<?xml version="1.0" encoding="UTF-8" standalone="no"?>
<!DOCTYPE svg PUBLIC "-//W3C//DTD SVG 1.1//EN"
 "http://www.w3.org/Graphics/SVG/1.1/DTD/svg11.dtd">
<!-- Generated by graphviz version 2.40.1 (20161225.0304)
 -->
<!-- Title: assets Pages: 1 -->
<svg width="1050pt" height="2489pt"
 viewBox="0.00 0.00 1049.50 2489.00" xmlns="http://www.w3.org/2000/svg" xmlns:xlink="http://www.w3.org/1999/xlink">
<g id="graph0" class="graph" transform="scale(1 1) rotate(0) translate(4 2485)">
<title>assets</title>
<polygon fill="#ffffff" stroke="transparent" points="-4,4 -4,-2485 1045.5,-2485 1045.5,4 -4,4"/>
<!-- assets -->
<g id="node1" class="node">
<title>assets</title>
<polygon fill="#efefef" stroke="transparent" points="404,-1552.5 404,-1587.5 645,-1587.5 645,-1552.5 404,-1552.5"/>
<polygon fill="none" stroke="#000000" points="404,-1552.5 404,-1587.5 645,-1587.5 645,-1552.5 404,-1552.5"/>
<text text-anchor="start" x="449.8658" y="-1565.3" font-family="Arial Bold" font-size="18.00" fill="#000000">assets</text>
<text text-anchor="start" x="501.8804" y="-1565.3" font-family="Arial" font-size="14.00" fill="#000000"> </text>
<text text-anchor="start" x="505.771" y="-1565.3" font-family="Arial" font-size="14.00" fill="#666666">[BASE TABLE]</text>
<polygon fill="none" stroke="#000000" points="404,-1522.5 404,-1552.5 645,-1552.5 645,-1522.5 404,-1522.5"/>
<text text-anchor="start" x="411" y="-1533.9" font-family="Arial" font-size="14.00" fill="#000000">id </text>
<text text-anchor="start" x="425.7798" y="-1533.9" font-family="Arial" font-size="14.00" fill="#666666">[int(10) unsigned]</text>
<polygon fill="none" stroke="#000000" points="404,-1492.5 404,-1522.5 645,-1522.5 645,-1492.5 404,-1492.5"/>
<text text-anchor="start" x="411" y="-1503.9" font-family="Arial" font-size="14.00" fill="#000000">category_id </text>
<text text-anchor="start" x="487.244" y="-1503.9" font-family="Arial" font-size="14.00" fill="#666666">[int(10) unsigned]</text>
<polygon fill="none" stroke="#000000" points="404,-1462.5 404,-1492.5 645,-1492.5 645,-1462.5 404,-1462.5"/>
<text text-anchor="start" x="411" y="-1473.9" font-family="Arial" font-size="14.00" fill="#000000">is_published </text>
<text text-anchor="start" x="492.6886" y="-1473.9" font-family="Arial" font-size="14.00" fill="#666666">[tinyint(1)]</text>
<polygon fill="none" stroke="#000000" points="404,-1432.5 404,-1462.5 645,-1462.5 645,-1432.5 404,-1432.5"/>
<text text-anchor="start" x="411" y="-1443.9" font-family="Arial" font-size="14.00" fill="#000000">date_added </text>
<text text-anchor="start" x="488.8246" y="-1443.9" font-family="Arial" font-size="14.00" fill="#666666">[datetime]</text>
<polygon fill="none" stroke="#000000" points="404,-1402.5 404,-1432.5 645,-1432.5 645,-1402.5 404,-1402.5"/>
<text text-anchor="start" x="411" y="-1413.9" font-family="Arial" font-size="14.00" fill="#000000">created_by </text>
<text text-anchor="start" x="484.1374" y="-1413.9" font-family="Arial" font-size="14.00" fill="#666666">[int(11)]</text>
<polygon fill="none" stroke="#000000" points="404,-1372.5 404,-1402.5 645,-1402.5 645,-1372.5 404,-1372.5"/>
<text text-anchor="start" x="411" y="-1383.9" font-family="Arial" font-size="14.00" fill="#000000">created_by_user </text>
<text text-anchor="start" x="519.1458" y="-1383.9" font-family="Arial" font-size="14.00" fill="#666666">[varchar(191)]</text>
<polygon fill="none" stroke="#000000" points="404,-1342.5 404,-1372.5 645,-1372.5 645,-1342.5 404,-1342.5"/>
<text text-anchor="start" x="411" y="-1353.9" font-family="Arial" font-size="14.00" fill="#000000">date_modified </text>
<text text-anchor="start" x="502.8064" y="-1353.9" font-family="Arial" font-size="14.00" fill="#666666">[datetime]</text>
<polygon fill="none" stroke="#000000" points="404,-1312.5 404,-1342.5 645,-1342.5 645,-1312.5 404,-1312.5"/>
<text text-anchor="start" x="411" y="-1323.9" font-family="Arial" font-size="14.00" fill="#000000">modified_by </text>
<text text-anchor="start" x="490.3506" y="-1323.9" font-family="Arial" font-size="14.00" fill="#666666">[int(11)]</text>
<polygon fill="none" stroke="#000000" points="404,-1282.5 404,-1312.5 645,-1312.5 645,-1282.5 404,-1282.5"/>
<text text-anchor="start" x="411" y="-1293.9" font-family="Arial" font-size="14.00" fill="#000000">modified_by_user </text>
<text text-anchor="start" x="525.359" y="-1293.9" font-family="Arial" font-size="14.00" fill="#666666">[varchar(191)]</text>
<polygon fill="none" stroke="#000000" points="404,-1252.5 404,-1282.5 645,-1282.5 645,-1252.5 404,-1252.5"/>
<text text-anchor="start" x="411" y="-1263.9" font-family="Arial" font-size="14.00" fill="#000000">checked_out </text>
<text text-anchor="start" x="494.2594" y="-1263.9" font-family="Arial" font-size="14.00" fill="#666666">[datetime]</text>
<polygon fill="none" stroke="#000000" points="404,-1222.5 404,-1252.5 645,-1252.5 645,-1222.5 404,-1222.5"/>
<text text-anchor="start" x="411" y="-1233.9" font-family="Arial" font-size="14.00" fill="#000000">checked_out_by </text>
<text text-anchor="start" x="516.8246" y="-1233.9" font-family="Arial" font-size="14.00" fill="#666666">[int(11)]</text>
<polygon fill="none" stroke="#000000" points="404,-1192.5 404,-1222.5 645,-1222.5 645,-1192.5 404,-1192.5"/>
<text text-anchor="start" x="410.5239" y="-1203.9" font-family="Arial" font-size="14.00" fill="#000000">checked_out_by_user </text>
<text text-anchor="start" x="551.3569" y="-1203.9" font-family="Arial" font-size="14.00" fill="#666666">[varchar(191)]</text>
<polygon fill="none" stroke="#000000" points="404,-1162.5 404,-1192.5 645,-1192.5 645,-1162.5 404,-1162.5"/>
<text text-anchor="start" x="411" y="-1173.9" font-family="Arial" font-size="14.00" fill="#000000">title </text>
<text text-anchor="start" x="436.6676" y="-1173.9" font-family="Arial" font-size="14.00" fill="#666666">[varchar(191)]</text>
<polygon fill="none" stroke="#000000" points="404,-1132.5 404,-1162.5 645,-1162.5 645,-1132.5 404,-1132.5"/>
<text text-anchor="start" x="411" y="-1143.9" font-family="Arial" font-size="14.00" fill="#000000">description </text>
<text text-anchor="start" x="482.568" y="-1143.9" font-family="Arial" font-size="14.00" fill="#666666">[longtext]</text>
<polygon fill="none" stroke="#000000" points="404,-1102.5 404,-1132.5 645,-1132.5 645,-1102.5 404,-1102.5"/>
<text text-anchor="start" x="411" y="-1113.9" font-family="Arial" font-size="14.00" fill="#000000">alias </text>
<text text-anchor="start" x="443.669" y="-1113.9" font-family="Arial" font-size="14.00" fill="#666666">[varchar(191)]</text>
<polygon fill="none" stroke="#000000" points="404,-1072.5 404,-1102.5 645,-1102.5 645,-1072.5 404,-1072.5"/>
<text text-anchor="start" x="411" y="-1083.9" font-family="Arial" font-size="14.00" fill="#000000">storage_location </text>
<text text-anchor="start" x="517.589" y="-1083.9" font-family="Arial" font-size="14.00" fill="#666666">[varchar(191)]</text>
<polygon fill="none" stroke="#000000" points="404,-1042.5 404,-1072.5 645,-1072.5 645,-1042.5 404,-1042.5"/>
<text text-anchor="start" x="411" y="-1053.9" font-family="Arial" font-size="14.00" fill="#000000">path </text>
<text text-anchor="start" x="442.129" y="-1053.9" font-family="Arial" font-size="14.00" fill="#666666">[varchar(191)]</text>
<polygon fill="none" stroke="#000000" points="404,-1012.5 404,-1042.5 645,-1042.5 645,-1012.5 404,-1012.5"/>
<text text-anchor="start" x="411" y="-1023.9" font-family="Arial" font-size="14.00" fill="#000000">remote_path </text>
<text text-anchor="start" x="493.4712" y="-1023.9" font-family="Arial" font-size="14.00" fill="#666666">[varchar(191)]</text>
<polygon fill="none" stroke="#000000" points="404,-982.5 404,-1012.5 645,-1012.5 645,-982.5 404,-982.5"/>
<text text-anchor="start" x="411" y="-993.9" font-family="Arial" font-size="14.00" fill="#000000">original_file_name </text>
<text text-anchor="start" x="528.4614" y="-993.9" font-family="Arial" font-size="14.00" fill="#666666">[varchar(191)]</text>
<polygon fill="none" stroke="#000000" points="404,-952.5 404,-982.5 645,-982.5 645,-952.5 404,-952.5"/>
<text text-anchor="start" x="411" y="-963.9" font-family="Arial" font-size="14.00" fill="#000000">lang </text>
<text text-anchor="start" x="441.345" y="-963.9" font-family="Arial" font-size="14.00" fill="#666666">[varchar(191)]</text>
<polygon fill="none" stroke="#000000" points="404,-922.5 404,-952.5 645,-952.5 645,-922.5 404,-922.5"/>
<text text-anchor="start" x="411" y="-933.9" font-family="Arial" font-size="14.00" fill="#000000">publish_up </text>
<text text-anchor="start" x="482.582" y="-933.9" font-family="Arial" font-size="14.00" fill="#666666">[datetime]</text>
<polygon fill="none" stroke="#000000" points="404,-892.5 404,-922.5 645,-922.5 645,-892.5 404,-892.5"/>
<text text-anchor="start" x="411" y="-903.9" font-family="Arial" font-size="14.00" fill="#000000">publish_down </text>
<text text-anchor="start" x="500.4712" y="-903.9" font-family="Arial" font-size="14.00" fill="#666666">[datetime]</text>
<polygon fill="none" stroke="#000000" points="404,-862.5 404,-892.5 645,-892.5 645,-862.5 404,-862.5"/>
<text text-anchor="start" x="411" y="-873.9" font-family="Arial" font-size="14.00" fill="#000000">download_count </text>
<text text-anchor="start" x="516.8204" y="-873.9" font-family="Arial" font-size="14.00" fill="#666666">[int(11)]</text>
<polygon fill="none" stroke="#000000" points="404,-832.5 404,-862.5 645,-862.5 645,-832.5 404,-832.5"/>
<text text-anchor="start" x="411" y="-843.9" font-family="Arial" font-size="14.00" fill="#000000">unique_download_count </text>
<text text-anchor="start" x="566.6226" y="-843.9" font-family="Arial" font-size="14.00" fill="#666666">[int(11)]</text>
<polygon fill="none" stroke="#000000" points="404,-802.5 404,-832.5 645,-832.5 645,-802.5 404,-802.5"/>
<text text-anchor="start" x="411" y="-813.9" font-family="Arial" font-size="14.00" fill="#000000">revision </text>
<text text-anchor="start" x="463.1122" y="-813.9" font-family="Arial" font-size="14.00" fill="#666666">[int(11)]</text>
<polygon fill="none" stroke="#000000" points="404,-772.5 404,-802.5 645,-802.5 645,-772.5 404,-772.5"/>
<text text-anchor="start" x="411" y="-783.9" font-family="Arial" font-size="14.00" fill="#000000">extension </text>
<text text-anchor="start" x="474.8008" y="-783.9" font-family="Arial" font-size="14.00" fill="#666666">[varchar(191)]</text>
<polygon fill="none" stroke="#000000" points="404,-742.5 404,-772.5 645,-772.5 645,-742.5 404,-742.5"/>
<text text-anchor="start" x="411" y="-753.9" font-family="Arial" font-size="14.00" fill="#000000">mime </text>
<text text-anchor="start" x="449.101" y="-753.9" font-family="Arial" font-size="14.00" fill="#666666">[varchar(191)]</text>
<polygon fill="none" stroke="#000000" points="404,-712.5 404,-742.5 645,-742.5 645,-712.5 404,-712.5"/>
<text text-anchor="start" x="411" y="-723.9" font-family="Arial" font-size="14.00" fill="#000000">size </text>
<text text-anchor="start" x="439.7798" y="-723.9" font-family="Arial" font-size="14.00" fill="#666666">[int(11)]</text>
<polygon fill="none" stroke="#000000" points="404,-682.5 404,-712.5 645,-712.5 645,-682.5 404,-682.5"/>
<text text-anchor="start" x="411" y="-693.9" font-family="Arial" font-size="14.00" fill="#000000">disallow </text>
<text text-anchor="start" x="464.6648" y="-693.9" font-family="Arial" font-size="14.00" fill="#666666">[tinyint(1)]</text>
<polygon fill="none" stroke="#000000" stroke-width="3" points="402,-681.5 402,-1589.5 646,-1589.5 646,-681.5 402,-681.5"/>
</g>
<!-- categories -->
<g id="node5" class="node">
<title>categories</title>
<polygon fill="#efefef" stroke="transparent" points="404,-522.5 404,-557.5 645,-557.5 645,-522.5 404,-522.5"/>
<polygon fill="none" stroke="#000000" points="404,-522.5 404,-557.5 645,-557.5 645,-522.5 404,-522.5"/>
<text text-anchor="start" x="434.3633" y="-535.3" font-family="Arial Bold" font-size="18.00" fill="#000000">categories</text>
<text text-anchor="start" x="517.3829" y="-535.3" font-family="Arial" font-size="14.00" fill="#000000"> </text>
<text text-anchor="start" x="521.2735" y="-535.3" font-family="Arial" font-size="14.00" fill="#666666">[BASE TABLE]</text>
<polygon fill="none" stroke="#000000" points="404,-492.5 404,-522.5 645,-522.5 645,-492.5 404,-492.5"/>
<text text-anchor="start" x="411" y="-503.9" font-family="Arial" font-size="14.00" fill="#000000">id </text>
<text text-anchor="start" x="425.7798" y="-503.9" font-family="Arial" font-size="14.00" fill="#666666">[int(10) unsigned]</text>
<polygon fill="none" stroke="#000000" points="404,-462.5 404,-492.5 645,-492.5 645,-462.5 404,-462.5"/>
<text text-anchor="start" x="411" y="-473.9" font-family="Arial" font-size="14.00" fill="#000000">is_published </text>
<text text-anchor="start" x="492.6886" y="-473.9" font-family="Arial" font-size="14.00" fill="#666666">[tinyint(1)]</text>
<polygon fill="none" stroke="#000000" points="404,-432.5 404,-462.5 645,-462.5 645,-432.5 404,-432.5"/>
<text text-anchor="start" x="411" y="-443.9" font-family="Arial" font-size="14.00" fill="#000000">date_added </text>
<text text-anchor="start" x="488.8246" y="-443.9" font-family="Arial" font-size="14.00" fill="#666666">[datetime]</text>
<polygon fill="none" stroke="#000000" points="404,-402.5 404,-432.5 645,-432.5 645,-402.5 404,-402.5"/>
<text text-anchor="start" x="411" y="-413.9" font-family="Arial" font-size="14.00" fill="#000000">created_by </text>
<text text-anchor="start" x="484.1374" y="-413.9" font-family="Arial" font-size="14.00" fill="#666666">[int(11)]</text>
<polygon fill="none" stroke="#000000" points="404,-372.5 404,-402.5 645,-402.5 645,-372.5 404,-372.5"/>
<text text-anchor="start" x="411" y="-383.9" font-family="Arial" font-size="14.00" fill="#000000">created_by_user </text>
<text text-anchor="start" x="519.1458" y="-383.9" font-family="Arial" font-size="14.00" fill="#666666">[varchar(191)]</text>
<polygon fill="none" stroke="#000000" points="404,-342.5 404,-372.5 645,-372.5 645,-342.5 404,-342.5"/>
<text text-anchor="start" x="411" y="-353.9" font-family="Arial" font-size="14.00" fill="#000000">date_modified </text>
<text text-anchor="start" x="502.8064" y="-353.9" font-family="Arial" font-size="14.00" fill="#666666">[datetime]</text>
<polygon fill="none" stroke="#000000" points="404,-312.5 404,-342.5 645,-342.5 645,-312.5 404,-312.5"/>
<text text-anchor="start" x="411" y="-323.9" font-family="Arial" font-size="14.00" fill="#000000">modified_by </text>
<text text-anchor="start" x="490.3506" y="-323.9" font-family="Arial" font-size="14.00" fill="#666666">[int(11)]</text>
<polygon fill="none" stroke="#000000" points="404,-282.5 404,-312.5 645,-312.5 645,-282.5 404,-282.5"/>
<text text-anchor="start" x="411" y="-293.9" font-family="Arial" font-size="14.00" fill="#000000">modified_by_user </text>
<text text-anchor="start" x="525.359" y="-293.9" font-family="Arial" font-size="14.00" fill="#666666">[varchar(191)]</text>
<polygon fill="none" stroke="#000000" points="404,-252.5 404,-282.5 645,-282.5 645,-252.5 404,-252.5"/>
<text text-anchor="start" x="411" y="-263.9" font-family="Arial" font-size="14.00" fill="#000000">checked_out </text>
<text text-anchor="start" x="494.2594" y="-263.9" font-family="Arial" font-size="14.00" fill="#666666">[datetime]</text>
<polygon fill="none" stroke="#000000" points="404,-222.5 404,-252.5 645,-252.5 645,-222.5 404,-222.5"/>
<text text-anchor="start" x="411" y="-233.9" font-family="Arial" font-size="14.00" fill="#000000">checked_out_by </text>
<text text-anchor="start" x="516.8246" y="-233.9" font-family="Arial" font-size="14.00" fill="#666666">[int(11)]</text>
<polygon fill="none" stroke="#000000" points="404,-192.5 404,-222.5 645,-222.5 645,-192.5 404,-192.5"/>
<text text-anchor="start" x="410.5239" y="-203.9" font-family="Arial" font-size="14.00" fill="#000000">checked_out_by_user </text>
<text text-anchor="start" x="551.3569" y="-203.9" font-family="Arial" font-size="14.00" fill="#666666">[varchar(191)]</text>
<polygon fill="none" stroke="#000000" points="404,-162.5 404,-192.5 645,-192.5 645,-162.5 404,-162.5"/>
<text text-anchor="start" x="411" y="-173.9" font-family="Arial" font-size="14.00" fill="#000000">title </text>
<text text-anchor="start" x="436.6676" y="-173.9" font-family="Arial" font-size="14.00" fill="#666666">[varchar(191)]</text>
<polygon fill="none" stroke="#000000" points="404,-132.5 404,-162.5 645,-162.5 645,-132.5 404,-132.5"/>
<text text-anchor="start" x="411" y="-143.9" font-family="Arial" font-size="14.00" fill="#000000">description </text>
<text text-anchor="start" x="482.568" y="-143.9" font-family="Arial" font-size="14.00" fill="#666666">[longtext]</text>
<polygon fill="none" stroke="#000000" points="404,-102.5 404,-132.5 645,-132.5 645,-102.5 404,-102.5"/>
<text text-anchor="start" x="411" y="-113.9" font-family="Arial" font-size="14.00" fill="#000000">alias </text>
<text text-anchor="start" x="443.669" y="-113.9" font-family="Arial" font-size="14.00" fill="#666666">[varchar(191)]</text>
<polygon fill="none" stroke="#000000" points="404,-72.5 404,-102.5 645,-102.5 645,-72.5 404,-72.5"/>
<text text-anchor="start" x="411" y="-83.9" font-family="Arial" font-size="14.00" fill="#000000">color </text>
<text text-anchor="start" x="445.223" y="-83.9" font-family="Arial" font-size="14.00" fill="#666666">[varchar(7)]</text>
<polygon fill="none" stroke="#000000" points="404,-42.5 404,-72.5 645,-72.5 645,-42.5 404,-42.5"/>
<text text-anchor="start" x="411" y="-53.9" font-family="Arial" font-size="14.00" fill="#000000">bundle </text>
<text text-anchor="start" x="456.9102" y="-53.9" font-family="Arial" font-size="14.00" fill="#666666">[varchar(50)]</text>
</g>
<!-- assets&#45;&gt;categories -->
<g id="edge4" class="edge">
<title>assets:category_id&#45;&gt;categories:id</title>
<path fill="none" stroke="#000000" d="M393.9852,-1507.329C-40.419,-1492.4206 -37.0807,-507.5 404,-507.5"/>
<polygon fill="#000000" stroke="#000000" points="394.0015,-1507.3292 403.9231,-1511.9993 399.0007,-1507.4146 404,-1507.5 404,-1507.5 404,-1507.5 399.0007,-1507.4146 404.0769,-1503.0007 394.0015,-1507.3292 394.0015,-1507.3292"/>
<text text-anchor="start" x="130.659" y="-1517.5" font-family="Arial" font-size="10.00" fill="#000000">FOREIGN KEY (category_id) REFERENCES categories (id)</text>
</g>
<!-- asset_downloads -->
<g id="node2" class="node">
<title>asset_downloads</title>
<polygon fill="#efefef" stroke="transparent" points="43,-2222.5 43,-2257.5 293,-2257.5 293,-2222.5 43,-2222.5"/>
<polygon fill="none" stroke="#000000" points="43,-2222.5 43,-2257.5 293,-2257.5 293,-2222.5 43,-2222.5"/>
<text text-anchor="start" x="49.8499" y="-2235.3" font-family="Arial Bold" font-size="18.00" fill="#000000">asset_downloads</text>
<text text-anchor="start" x="188.8963" y="-2235.3" font-family="Arial" font-size="14.00" fill="#000000"> </text>
<text text-anchor="start" x="192.7869" y="-2235.3" font-family="Arial" font-size="14.00" fill="#666666">[BASE TABLE]</text>
<polygon fill="none" stroke="#000000" points="43,-2192.5 43,-2222.5 293,-2222.5 293,-2192.5 43,-2192.5"/>
<text text-anchor="start" x="50" y="-2203.9" font-family="Arial" font-size="14.00" fill="#000000">id </text>
<text text-anchor="start" x="64.7798" y="-2203.9" font-family="Arial" font-size="14.00" fill="#666666">[bigint(20) unsigned]</text>
<polygon fill="none" stroke="#000000" points="43,-2162.5 43,-2192.5 293,-2192.5 293,-2162.5 43,-2162.5"/>
<text text-anchor="start" x="50" y="-2173.9" font-family="Arial" font-size="14.00" fill="#000000">asset_id </text>
<text text-anchor="start" x="106.0182" y="-2173.9" font-family="Arial" font-size="14.00" fill="#666666">[int(10) unsigned]</text>
<polygon fill="none" stroke="#000000" points="43,-2132.5 43,-2162.5 293,-2162.5 293,-2132.5 43,-2132.5"/>
<text text-anchor="start" x="50" y="-2143.9" font-family="Arial" font-size="14.00" fill="#000000">ip_id </text>
<text text-anchor="start" x="83.4516" y="-2143.9" font-family="Arial" font-size="14.00" fill="#666666">[int(10) unsigned]</text>
<polygon fill="none" stroke="#000000" points="43,-2102.5 43,-2132.5 293,-2132.5 293,-2102.5 43,-2102.5"/>
<text text-anchor="start" x="50" y="-2113.9" font-family="Arial" font-size="14.00" fill="#000000">lead_id </text>
<text text-anchor="start" x="99.0168" y="-2113.9" font-family="Arial" font-size="14.00" fill="#666666">[bigint(20) unsigned]</text>
<polygon fill="none" stroke="#000000" points="43,-2072.5 43,-2102.5 293,-2102.5 293,-2072.5 43,-2072.5"/>
<text text-anchor="start" x="50" y="-2083.9" font-family="Arial" font-size="14.00" fill="#000000">email_id </text>
<text text-anchor="start" x="106.0014" y="-2083.9" font-family="Arial" font-size="14.00" fill="#666666">[int(10) unsigned]</text>
<polygon fill="none" stroke="#000000" points="43,-2042.5 43,-2072.5 293,-2072.5 293,-2042.5 43,-2042.5"/>
<text text-anchor="start" x="50" y="-2053.9" font-family="Arial" font-size="14.00" fill="#000000">date_download </text>
<text text-anchor="start" x="148.8204" y="-2053.9" font-family="Arial" font-size="14.00" fill="#666666">[datetime]</text>
<polygon fill="none" stroke="#000000" points="43,-2012.5 43,-2042.5 293,-2042.5 293,-2012.5 43,-2012.5"/>
<text text-anchor="start" x="50" y="-2023.9" font-family="Arial" font-size="14.00" fill="#000000">code </text>
<text text-anchor="start" x="84.2384" y="-2023.9" font-family="Arial" font-size="14.00" fill="#666666">[int(11)]</text>
<polygon fill="none" stroke="#000000" points="43,-1982.5 43,-2012.5 293,-2012.5 293,-1982.5 43,-1982.5"/>
<text text-anchor="start" x="50" y="-1993.9" font-family="Arial" font-size="14.00" fill="#000000">referer </text>
<text text-anchor="start" x="95.1108" y="-1993.9" font-family="Arial" font-size="14.00" fill="#666666">[longtext]</text>
<polygon fill="none" stroke="#000000" points="43,-1952.5 43,-1982.5 293,-1982.5 293,-1952.5 43,-1952.5"/>
<text text-anchor="start" x="50" y="-1963.9" font-family="Arial" font-size="14.00" fill="#000000">tracking_id </text>
<text text-anchor="start" x="121.568" y="-1963.9" font-family="Arial" font-size="14.00" fill="#666666">[varchar(191)]</text>
<polygon fill="none" stroke="#000000" points="43,-1922.5 43,-1952.5 293,-1952.5 293,-1922.5 43,-1922.5"/>
<text text-anchor="start" x="50" y="-1933.9" font-family="Arial" font-size="14.00" fill="#000000">source </text>
<text text-anchor="start" x="95.899" y="-1933.9" font-family="Arial" font-size="14.00" fill="#666666">[varchar(191)]</text>
<polygon fill="none" stroke="#000000" points="43,-1892.5 43,-1922.5 293,-1922.5 293,-1892.5 43,-1892.5"/>
<text text-anchor="start" x="50" y="-1903.9" font-family="Arial" font-size="14.00" fill="#000000">source_id </text>
<text text-anchor="start" x="114.5708" y="-1903.9" font-family="Arial" font-size="14.00" fill="#666666">[int(11)]</text>
</g>
<!-- asset_downloads&#45;&gt;assets -->
<g id="edge1" class="edge">
<title>asset_downloads:asset_id&#45;&gt;assets:id</title>
<path fill="none" stroke="#000000" d="M302.2036,-2173.0082C347.5405,-2125.8121 331.2549,-1721.5622 345,-1670 361.6044,-1607.7119 339.5368,-1537.5 404,-1537.5"/>
<polygon fill="#000000" stroke="#000000" points="301.9868,-2173.1139 291.0263,-2173.4559 297.4934,-2175.307 293,-2177.5 293,-2177.5 293,-2177.5 297.4934,-2175.307 294.9737,-2181.5441 301.9868,-2173.1139 301.9868,-2173.1139"/>
<text text-anchor="start" x="300.495" y="-2187.5" font-family="Arial" font-size="10.00" fill="#000000">FOREIGN KEY (asset_id) REFERENCES assets (id)</text>
</g>
<!-- email_assets_xref -->
<g id="node3" class="node">
<title>email_assets_xref</title>
<polygon fill="#efefef" stroke="transparent" points="397,-2087.5 397,-2122.5 653,-2122.5 653,-2087.5 397,-2087.5"/>
<polygon fill="none" stroke="#000000" points="397,-2087.5 397,-2122.5 653,-2122.5 653,-2087.5 397,-2087.5"/>
<text text-anchor="start" x="403.8628" y="-2100.3" font-family="Arial Bold" font-size="18.00" fill="#000000">email_assets_xref</text>
<text text-anchor="start" x="548.8834" y="-2100.3" font-family="Arial" font-size="14.00" fill="#000000"> </text>
<text text-anchor="start" x="552.774" y="-2100.3" font-family="Arial" font-size="14.00" fill="#666666">[BASE TABLE]</text>
<polygon fill="none" stroke="#000000" points="397,-2057.5 397,-2087.5 653,-2087.5 653,-2057.5 397,-2057.5"/>
<text text-anchor="start" x="404" y="-2068.9" font-family="Arial" font-size="14.00" fill="#000000">email_id </text>
<text text-anchor="start" x="460.0014" y="-2068.9" font-family="Arial" font-size="14.00" fill="#666666">[int(10) unsigned]</text>
<polygon fill="none" stroke="#000000" points="397,-2027.5 397,-2057.5 653,-2057.5 653,-2027.5 397,-2027.5"/>
<text text-anchor="start" x="404" y="-2038.9" font-family="Arial" font-size="14.00" fill="#000000">asset_id </text>
<text text-anchor="start" x="460.0182" y="-2038.9" font-family="Arial" font-size="14.00" fill="#666666">[int(10) unsigned]</text>
</g>
<!-- email_assets_xref&#45;&gt;assets -->
<g id="edge2" class="edge">
<title>email_assets_xref:asset_id&#45;&gt;assets:id</title>
<path fill="none" stroke="#000000" d="M525.2334,-2017.2909C535.2903,-1795.3013 865.8194,-1537.5 645,-1537.5"/>
<polygon fill="#000000" stroke="#000000" points="525.2287,-2017.5026 520.5012,-2027.3971 525.1143,-2022.5013 525,-2027.5 525,-2027.5 525,-2027.5 525.1143,-2022.5013 529.4988,-2027.6029 525.2287,-2017.5026 525.2287,-2017.5026"/>
<text text-anchor="start" x="283.495" y="-2037.5" font-family="Arial" font-size="10.00" fill="#000000">FOREIGN KEY (asset_id) REFERENCES assets (id)</text>
</g>
<!-- tweets -->
<g id="node4" class="node">
<title>tweets</title>
<polygon fill="#efefef" stroke="transparent" points="758,-2402.5 758,-2437.5 999,-2437.5 999,-2402.5 758,-2402.5"/>
<polygon fill="none" stroke="#000000" points="758,-2402.5 758,-2437.5 999,-2437.5 999,-2402.5 758,-2402.5"/>
<text text-anchor="start" x="803.8676" y="-2415.3" font-family="Arial Bold" font-size="18.00" fill="#000000">tweets</text>
<text text-anchor="start" x="855.8786" y="-2415.3" font-family="Arial" font-size="14.00" fill="#000000"> </text>
<text text-anchor="start" x="859.7692" y="-2415.3" font-family="Arial" font-size="14.00" fill="#666666">[BASE TABLE]</text>
<polygon fill="none" stroke="#000000" points="758,-2372.5 758,-2402.5 999,-2402.5 999,-2372.5 758,-2372.5"/>
<text text-anchor="start" x="765" y="-2383.9" font-family="Arial" font-size="14.00" fill="#000000">id </text>
<text text-anchor="start" x="779.7798" y="-2383.9" font-family="Arial" font-size="14.00" fill="#666666">[int(10) unsigned]</text>
<polygon fill="none" stroke="#000000" points="758,-2342.5 758,-2372.5 999,-2372.5 999,-2342.5 758,-2342.5"/>
<text text-anchor="start" x="765" y="-2353.9" font-family="Arial" font-size="14.00" fill="#000000">category_id </text>
<text text-anchor="start" x="841.244" y="-2353.9" font-family="Arial" font-size="14.00" fill="#666666">[int(10) unsigned]</text>
<polygon fill="none" stroke="#000000" points="758,-2312.5 758,-2342.5 999,-2342.5 999,-2312.5 758,-2312.5"/>
<text text-anchor="start" x="765" y="-2323.9" font-family="Arial" font-size="14.00" fill="#000000">page_id </text>
<text text-anchor="start" x="818.6928" y="-2323.9" font-family="Arial" font-size="14.00" fill="#666666">[int(10) unsigned]</text>
<polygon fill="none" stroke="#000000" points="758,-2282.5 758,-2312.5 999,-2312.5 999,-2282.5 758,-2282.5"/>
<text text-anchor="start" x="765" y="-2293.9" font-family="Arial" font-size="14.00" fill="#000000">asset_id </text>
<text text-anchor="start" x="821.0182" y="-2293.9" font-family="Arial" font-size="14.00" fill="#666666">[int(10) unsigned]</text>
<polygon fill="none" stroke="#000000" points="758,-2252.5 758,-2282.5 999,-2282.5 999,-2252.5 758,-2252.5"/>
<text text-anchor="start" x="765" y="-2263.9" font-family="Arial" font-size="14.00" fill="#000000">is_published </text>
<text text-anchor="start" x="846.6886" y="-2263.9" font-family="Arial" font-size="14.00" fill="#666666">[tinyint(1)]</text>
<polygon fill="none" stroke="#000000" points="758,-2222.5 758,-2252.5 999,-2252.5 999,-2222.5 758,-2222.5"/>
<text text-anchor="start" x="765" y="-2233.9" font-family="Arial" font-size="14.00" fill="#000000">date_added </text>
<text text-anchor="start" x="842.8246" y="-2233.9" font-family="Arial" font-size="14.00" fill="#666666">[datetime]</text>
<polygon fill="none" stroke="#000000" points="758,-2192.5 758,-2222.5 999,-2222.5 999,-2192.5 758,-2192.5"/>
<text text-anchor="start" x="765" y="-2203.9" font-family="Arial" font-size="14.00" fill="#000000">created_by </text>
<text text-anchor="start" x="838.1374" y="-2203.9" font-family="Arial" font-size="14.00" fill="#666666">[int(11)]</text>
<polygon fill="none" stroke="#000000" points="758,-2162.5 758,-2192.5 999,-2192.5 999,-2162.5 758,-2162.5"/>
<text text-anchor="start" x="765" y="-2173.9" font-family="Arial" font-size="14.00" fill="#000000">created_by_user </text>
<text text-anchor="start" x="873.1458" y="-2173.9" font-family="Arial" font-size="14.00" fill="#666666">[varchar(191)]</text>
<polygon fill="none" stroke="#000000" points="758,-2132.5 758,-2162.5 999,-2162.5 999,-2132.5 758,-2132.5"/>
<text text-anchor="start" x="765" y="-2143.9" font-family="Arial" font-size="14.00" fill="#000000">date_modified </text>
<text text-anchor="start" x="856.8064" y="-2143.9" font-family="Arial" font-size="14.00" fill="#666666">[datetime]</text>
<polygon fill="none" stroke="#000000" points="758,-2102.5 758,-2132.5 999,-2132.5 999,-2102.5 758,-2102.5"/>
<text text-anchor="start" x="765" y="-2113.9" font-family="Arial" font-size="14.00" fill="#000000">modified_by </text>
<text text-anchor="start" x="844.3506" y="-2113.9" font-family="Arial" font-size="14.00" fill="#666666">[int(11)]</text>
<polygon fill="none" stroke="#000000" points="758,-2072.5 758,-2102.5 999,-2102.5 999,-2072.5 758,-2072.5"/>
<text text-anchor="start" x="765" y="-2083.9" font-family="Arial" font-size="14.00" fill="#000000">modified_by_user </text>
<text text-anchor="start" x="879.359" y="-2083.9" font-family="Arial" font-size="14.00" fill="#666666">[varchar(191)]</text>
<polygon fill="none" stroke="#000000" points="758,-2042.5 758,-2072.5 999,-2072.5 999,-2042.5 758,-2042.5"/>
<text text-anchor="start" x="765" y="-2053.9" font-family="Arial" font-size="14.00" fill="#000000">checked_out </text>
<text text-anchor="start" x="848.2594" y="-2053.9" font-family="Arial" font-size="14.00" fill="#666666">[datetime]</text>
<polygon fill="none" stroke="#000000" points="758,-2012.5 758,-2042.5 999,-2042.5 999,-2012.5 758,-2012.5"/>
<text text-anchor="start" x="765" y="-2023.9" font-family="Arial" font-size="14.00" fill="#000000">checked_out_by </text>
<text text-anchor="start" x="870.8246" y="-2023.9" font-family="Arial" font-size="14.00" fill="#666666">[int(11)]</text>
<polygon fill="none" stroke="#000000" points="758,-1982.5 758,-2012.5 999,-2012.5 999,-1982.5 758,-1982.5"/>
<text text-anchor="start" x="764.5239" y="-1993.9" font-family="Arial" font-size="14.00" fill="#000000">checked_out_by_user </text>
<text text-anchor="start" x="905.3569" y="-1993.9" font-family="Arial" font-size="14.00" fill="#666666">[varchar(191)]</text>
<polygon fill="none" stroke="#000000" points="758,-1952.5 758,-1982.5 999,-1982.5 999,-1952.5 758,-1952.5"/>
<text text-anchor="start" x="765" y="-1963.9" font-family="Arial" font-size="14.00" fill="#000000">name </text>
<text text-anchor="start" x="803.899" y="-1963.9" font-family="Arial" font-size="14.00" fill="#666666">[varchar(191)]</text>
<polygon fill="none" stroke="#000000" points="758,-1922.5 758,-1952.5 999,-1952.5 999,-1922.5 758,-1922.5"/>
<text text-anchor="start" x="765" y="-1933.9" font-family="Arial" font-size="14.00" fill="#000000">description </text>
<text text-anchor="start" x="836.568" y="-1933.9" font-family="Arial" font-size="14.00" fill="#666666">[longtext]</text>
<polygon fill="none" stroke="#000000" points="758,-1892.5 758,-1922.5 999,-1922.5 999,-1892.5 758,-1892.5"/>
<text text-anchor="start" x="765" y="-1903.9" font-family="Arial" font-size="14.00" fill="#000000">media_id </text>
<text text-anchor="start" x="825.6774" y="-1903.9" font-family="Arial" font-size="14.00" fill="#666666">[varchar(191)]</text>
<polygon fill="none" stroke="#000000" points="758,-1862.5 758,-1892.5 999,-1892.5 999,-1862.5 758,-1862.5"/>
<text text-anchor="start" x="765" y="-1873.9" font-family="Arial" font-size="14.00" fill="#000000">media_path </text>
<text text-anchor="start" x="842.0266" y="-1873.9" font-family="Arial" font-size="14.00" fill="#666666">[varchar(191)]</text>
<polygon fill="none" stroke="#000000" points="758,-1832.5 758,-1862.5 999,-1862.5 999,-1832.5 758,-1832.5"/>
<text text-anchor="start" x="765" y="-1843.9" font-family="Arial" font-size="14.00" fill="#000000">text </text>
<text text-anchor="start" x="791.4544" y="-1843.9" font-family="Arial" font-size="14.00" fill="#666666">[varchar(191)]</text>
<polygon fill="none" stroke="#000000" points="758,-1802.5 758,-1832.5 999,-1832.5 999,-1802.5 758,-1802.5"/>
<text text-anchor="start" x="765" y="-1813.9" font-family="Arial" font-size="14.00" fill="#000000">sent_count </text>
<text text-anchor="start" x="837.3674" y="-1813.9" font-family="Arial" font-size="14.00" fill="#666666">[int(11)]</text>
<polygon fill="none" stroke="#000000" points="758,-1772.5 758,-1802.5 999,-1802.5 999,-1772.5 758,-1772.5"/>
<text text-anchor="start" x="765" y="-1783.9" font-family="Arial" font-size="14.00" fill="#000000">favorite_count </text>
<text text-anchor="start" x="856.8078" y="-1783.9" font-family="Arial" font-size="14.00" fill="#666666">[int(11)]</text>
<polygon fill="none" stroke="#000000" points="758,-1742.5 758,-1772.5 999,-1772.5 999,-1742.5 758,-1742.5"/>
<text text-anchor="start" x="765" y="-1753.9" font-family="Arial" font-size="14.00" fill="#000000">retweet_count </text>
<text text-anchor="start" x="856.8078" y="-1753.9" font-family="Arial" font-size="14.00" fill="#666666">[int(11)]</text>
<polygon fill="none" stroke="#000000" points="758,-1712.5 758,-1742.5 999,-1742.5 999,-1712.5 758,-1712.5"/>
<text text-anchor="start" x="765" y="-1723.9" font-family="Arial" font-size="14.00" fill="#000000">lang </text>
<text text-anchor="start" x="795.345" y="-1723.9" font-family="Arial" font-size="14.00" fill="#666666">[varchar(191)]</text>
</g>
<!-- tweets&#45;&gt;assets -->
<g id="edge3" class="edge">
<title>tweets:asset_id&#45;&gt;assets:id</title>
<path fill="none" stroke="#000000" d="M748.4801,-2293.6185C691.2841,-2244.0065 721.7708,-1734.4063 705,-1670 688.7102,-1607.4408 709.6453,-1537.5 645,-1537.5"/>
<polygon fill="#000000" stroke="#000000" points="748.7401,-2293.7245 756.301,-2301.667 753.37,-2295.6122 758,-2297.5 758,-2297.5 758,-2297.5 753.37,-2295.6122 759.699,-2293.333 748.7401,-2293.7245 748.7401,-2293.7245"/>
<text text-anchor="start" x="516.495" y="-2307.5" font-family="Arial" font-size="10.00" fill="#000000">FOREIGN KEY (asset_id) REFERENCES assets (id)</text>
</g>
</g>
</svg>
