<?xml version="1.0" encoding="UTF-8" standalone="no"?>
<!DOCTYPE svg PUBLIC "-//W3C//DTD SVG 1.1//EN"
 "http://www.w3.org/Graphics/SVG/1.1/DTD/svg11.dtd">
<!-- Generated by graphviz version 2.40.1 (20161225.0304)
 -->
<!-- Title: bundle_grapesjsbuilder Pages: 1 -->
<svg width="600pt" height="1672pt"
 viewBox="0.00 0.00 599.50 1672.00" xmlns="http://www.w3.org/2000/svg" xmlns:xlink="http://www.w3.org/1999/xlink">
<g id="graph0" class="graph" transform="scale(1 1) rotate(0) translate(4 1668)">
<title>bundle_grapesjsbuilder</title>
<polygon fill="#ffffff" stroke="transparent" points="-4,4 -4,-1668 595.5,-1668 595.5,4 -4,4"/>
<!-- bundle_grapesjsbuilder -->
<g id="node1" class="node">
<title>bundle_grapesjsbuilder</title>
<polygon fill="#efefef" stroke="transparent" points="46.5,-1582.5 46.5,-1617.5 343.5,-1617.5 343.5,-1582.5 46.5,-1582.5"/>
<polygon fill="none" stroke="#000000" points="46.5,-1582.5 46.5,-1617.5 343.5,-1617.5 343.5,-1582.5 46.5,-1582.5"/>
<text text-anchor="start" x="53.3491" y="-1595.3" font-family="Arial Bold" font-size="18.00" fill="#000000">bundle_grapesjsbuilder</text>
<text text-anchor="start" x="239.3971" y="-1595.3" font-family="Arial" font-size="14.00" fill="#000000"> </text>
<text text-anchor="start" x="243.2877" y="-1595.3" font-family="Arial" font-size="14.00" fill="#666666">[BASE TABLE]</text>
<polygon fill="none" stroke="#000000" points="46.5,-1552.5 46.5,-1582.5 343.5,-1582.5 343.5,-1552.5 46.5,-1552.5"/>
<text text-anchor="start" x="53.5" y="-1563.9" font-family="Arial" font-size="14.00" fill="#000000">id </text>
<text text-anchor="start" x="68.2798" y="-1563.9" font-family="Arial" font-size="14.00" fill="#666666">[int(10) unsigned]</text>
<polygon fill="none" stroke="#000000" points="46.5,-1522.5 46.5,-1552.5 343.5,-1552.5 343.5,-1522.5 46.5,-1522.5"/>
<text text-anchor="start" x="53.5" y="-1533.9" font-family="Arial" font-size="14.00" fill="#000000">email_id </text>
<text text-anchor="start" x="109.5014" y="-1533.9" font-family="Arial" font-size="14.00" fill="#666666">[int(10) unsigned]</text>
<polygon fill="none" stroke="#000000" points="46.5,-1492.5 46.5,-1522.5 343.5,-1522.5 343.5,-1492.5 46.5,-1492.5"/>
<text text-anchor="start" x="53.5" y="-1503.9" font-family="Arial" font-size="14.00" fill="#000000">custom_mjml </text>
<text text-anchor="start" x="139.824" y="-1503.9" font-family="Arial" font-size="14.00" fill="#666666">[longtext]</text>
<polygon fill="none" stroke="#000000" stroke-width="3" points="44.5,-1491.5 44.5,-1619.5 344.5,-1619.5 344.5,-1491.5 44.5,-1491.5"/>
</g>
<!-- emails -->
<g id="node2" class="node">
<title>emails</title>
<polygon fill="#efefef" stroke="transparent" points="66.5,-1332.5 66.5,-1367.5 324.5,-1367.5 324.5,-1332.5 66.5,-1332.5"/>
<polygon fill="none" stroke="#000000" points="66.5,-1332.5 66.5,-1367.5 324.5,-1367.5 324.5,-1332.5 66.5,-1332.5"/>
<text text-anchor="start" x="120.8766" y="-1345.3" font-family="Arial Bold" font-size="18.00" fill="#000000">emails</text>
<text text-anchor="start" x="172.8696" y="-1345.3" font-family="Arial" font-size="14.00" fill="#000000"> </text>
<text text-anchor="start" x="176.7602" y="-1345.3" font-family="Arial" font-size="14.00" fill="#666666">[BASE TABLE]</text>
<polygon fill="none" stroke="#000000" points="66.5,-1302.5 66.5,-1332.5 324.5,-1332.5 324.5,-1302.5 66.5,-1302.5"/>
<text text-anchor="start" x="73.5" y="-1313.9" font-family="Arial" font-size="14.00" fill="#000000">id </text>
<text text-anchor="start" x="88.2798" y="-1313.9" font-family="Arial" font-size="14.00" fill="#666666">[int(10) unsigned]</text>
<polygon fill="none" stroke="#000000" points="66.5,-1272.5 66.5,-1302.5 324.5,-1302.5 324.5,-1272.5 66.5,-1272.5"/>
<text text-anchor="start" x="73.5" y="-1283.9" font-family="Arial" font-size="14.00" fill="#000000">category_id </text>
<text text-anchor="start" x="149.744" y="-1283.9" font-family="Arial" font-size="14.00" fill="#666666">[int(10) unsigned]</text>
<polygon fill="none" stroke="#000000" points="66.5,-1242.5 66.5,-1272.5 324.5,-1272.5 324.5,-1242.5 66.5,-1242.5"/>
<text text-anchor="start" x="73.5" y="-1253.9" font-family="Arial" font-size="14.00" fill="#000000">translation_parent_id </text>
<text text-anchor="start" x="208.0946" y="-1253.9" font-family="Arial" font-size="14.00" fill="#666666">[int(10) unsigned]</text>
<polygon fill="none" stroke="#000000" points="66.5,-1212.5 66.5,-1242.5 324.5,-1242.5 324.5,-1212.5 66.5,-1212.5"/>
<text text-anchor="start" x="73.5" y="-1223.9" font-family="Arial" font-size="14.00" fill="#000000">variant_parent_id </text>
<text text-anchor="start" x="185.5322" y="-1223.9" font-family="Arial" font-size="14.00" fill="#666666">[int(10) unsigned]</text>
<polygon fill="none" stroke="#000000" points="66.5,-1182.5 66.5,-1212.5 324.5,-1212.5 324.5,-1182.5 66.5,-1182.5"/>
<text text-anchor="start" x="73.5" y="-1193.9" font-family="Arial" font-size="14.00" fill="#000000">unsubscribeform_id </text>
<text text-anchor="start" x="199.5196" y="-1193.9" font-family="Arial" font-size="14.00" fill="#666666">[int(10) unsigned]</text>
<polygon fill="none" stroke="#000000" points="66.5,-1152.5 66.5,-1182.5 324.5,-1182.5 324.5,-1152.5 66.5,-1152.5"/>
<text text-anchor="start" x="73.3542" y="-1163.9" font-family="Arial" font-size="14.00" fill="#000000">preference_center_id </text>
<text text-anchor="start" x="209.5056" y="-1163.9" font-family="Arial" font-size="14.00" fill="#666666">[int(10) unsigned]</text>
<polygon fill="none" stroke="#000000" points="66.5,-1122.5 66.5,-1152.5 324.5,-1152.5 324.5,-1122.5 66.5,-1122.5"/>
<text text-anchor="start" x="73.5" y="-1133.9" font-family="Arial" font-size="14.00" fill="#000000">is_published </text>
<text text-anchor="start" x="155.1886" y="-1133.9" font-family="Arial" font-size="14.00" fill="#666666">[tinyint(1)]</text>
<polygon fill="none" stroke="#000000" points="66.5,-1092.5 66.5,-1122.5 324.5,-1122.5 324.5,-1092.5 66.5,-1092.5"/>
<text text-anchor="start" x="73.5" y="-1103.9" font-family="Arial" font-size="14.00" fill="#000000">date_added </text>
<text text-anchor="start" x="151.3246" y="-1103.9" font-family="Arial" font-size="14.00" fill="#666666">[datetime]</text>
<polygon fill="none" stroke="#000000" points="66.5,-1062.5 66.5,-1092.5 324.5,-1092.5 324.5,-1062.5 66.5,-1062.5"/>
<text text-anchor="start" x="73.5" y="-1073.9" font-family="Arial" font-size="14.00" fill="#000000">created_by </text>
<text text-anchor="start" x="146.6374" y="-1073.9" font-family="Arial" font-size="14.00" fill="#666666">[int(11)]</text>
<polygon fill="none" stroke="#000000" points="66.5,-1032.5 66.5,-1062.5 324.5,-1062.5 324.5,-1032.5 66.5,-1032.5"/>
<text text-anchor="start" x="73.5" y="-1043.9" font-family="Arial" font-size="14.00" fill="#000000">created_by_user </text>
<text text-anchor="start" x="181.6458" y="-1043.9" font-family="Arial" font-size="14.00" fill="#666666">[varchar(191)]</text>
<polygon fill="none" stroke="#000000" points="66.5,-1002.5 66.5,-1032.5 324.5,-1032.5 324.5,-1002.5 66.5,-1002.5"/>
<text text-anchor="start" x="73.5" y="-1013.9" font-family="Arial" font-size="14.00" fill="#000000">date_modified </text>
<text text-anchor="start" x="165.3064" y="-1013.9" font-family="Arial" font-size="14.00" fill="#666666">[datetime]</text>
<polygon fill="none" stroke="#000000" points="66.5,-972.5 66.5,-1002.5 324.5,-1002.5 324.5,-972.5 66.5,-972.5"/>
<text text-anchor="start" x="73.5" y="-983.9" font-family="Arial" font-size="14.00" fill="#000000">modified_by </text>
<text text-anchor="start" x="152.8506" y="-983.9" font-family="Arial" font-size="14.00" fill="#666666">[int(11)]</text>
<polygon fill="none" stroke="#000000" points="66.5,-942.5 66.5,-972.5 324.5,-972.5 324.5,-942.5 66.5,-942.5"/>
<text text-anchor="start" x="73.5" y="-953.9" font-family="Arial" font-size="14.00" fill="#000000">modified_by_user </text>
<text text-anchor="start" x="187.859" y="-953.9" font-family="Arial" font-size="14.00" fill="#666666">[varchar(191)]</text>
<polygon fill="none" stroke="#000000" points="66.5,-912.5 66.5,-942.5 324.5,-942.5 324.5,-912.5 66.5,-912.5"/>
<text text-anchor="start" x="73.5" y="-923.9" font-family="Arial" font-size="14.00" fill="#000000">checked_out </text>
<text text-anchor="start" x="156.7594" y="-923.9" font-family="Arial" font-size="14.00" fill="#666666">[datetime]</text>
<polygon fill="none" stroke="#000000" points="66.5,-882.5 66.5,-912.5 324.5,-912.5 324.5,-882.5 66.5,-882.5"/>
<text text-anchor="start" x="73.5" y="-893.9" font-family="Arial" font-size="14.00" fill="#000000">checked_out_by </text>
<text text-anchor="start" x="179.3246" y="-893.9" font-family="Arial" font-size="14.00" fill="#666666">[int(11)]</text>
<polygon fill="none" stroke="#000000" points="66.5,-852.5 66.5,-882.5 324.5,-882.5 324.5,-852.5 66.5,-852.5"/>
<text text-anchor="start" x="73.5" y="-863.9" font-family="Arial" font-size="14.00" fill="#000000">checked_out_by_user </text>
<text text-anchor="start" x="214.333" y="-863.9" font-family="Arial" font-size="14.00" fill="#666666">[varchar(191)]</text>
<polygon fill="none" stroke="#000000" points="66.5,-822.5 66.5,-852.5 324.5,-852.5 324.5,-822.5 66.5,-822.5"/>
<text text-anchor="start" x="73.5" y="-833.9" font-family="Arial" font-size="14.00" fill="#000000">name </text>
<text text-anchor="start" x="112.399" y="-833.9" font-family="Arial" font-size="14.00" fill="#666666">[varchar(191)]</text>
<polygon fill="none" stroke="#000000" points="66.5,-792.5 66.5,-822.5 324.5,-822.5 324.5,-792.5 66.5,-792.5"/>
<text text-anchor="start" x="73.5" y="-803.9" font-family="Arial" font-size="14.00" fill="#000000">description </text>
<text text-anchor="start" x="145.068" y="-803.9" font-family="Arial" font-size="14.00" fill="#666666">[longtext]</text>
<polygon fill="none" stroke="#000000" points="66.5,-762.5 66.5,-792.5 324.5,-792.5 324.5,-762.5 66.5,-762.5"/>
<text text-anchor="start" x="73.5" y="-773.9" font-family="Arial" font-size="14.00" fill="#000000">subject </text>
<text text-anchor="start" x="121.7356" y="-773.9" font-family="Arial" font-size="14.00" fill="#666666">[longtext]</text>
<polygon fill="none" stroke="#000000" points="66.5,-732.5 66.5,-762.5 324.5,-762.5 324.5,-732.5 66.5,-732.5"/>
<text text-anchor="start" x="73.5" y="-743.9" font-family="Arial" font-size="14.00" fill="#000000">from_address </text>
<text text-anchor="start" x="162.9586" y="-743.9" font-family="Arial" font-size="14.00" fill="#666666">[varchar(191)]</text>
<polygon fill="none" stroke="#000000" points="66.5,-702.5 66.5,-732.5 324.5,-732.5 324.5,-702.5 66.5,-702.5"/>
<text text-anchor="start" x="73.5" y="-713.9" font-family="Arial" font-size="14.00" fill="#000000">from_name </text>
<text text-anchor="start" x="148.176" y="-713.9" font-family="Arial" font-size="14.00" fill="#666666">[varchar(191)]</text>
<polygon fill="none" stroke="#000000" points="66.5,-672.5 66.5,-702.5 324.5,-702.5 324.5,-672.5 66.5,-672.5"/>
<text text-anchor="start" x="73.5" y="-683.9" font-family="Arial" font-size="14.00" fill="#000000">reply_to_address </text>
<text text-anchor="start" x="184.7524" y="-683.9" font-family="Arial" font-size="14.00" fill="#666666">[varchar(191)]</text>
<polygon fill="none" stroke="#000000" points="66.5,-642.5 66.5,-672.5 324.5,-672.5 324.5,-642.5 66.5,-642.5"/>
<text text-anchor="start" x="73.5" y="-653.9" font-family="Arial" font-size="14.00" fill="#000000">bcc_address </text>
<text text-anchor="start" x="156.7468" y="-653.9" font-family="Arial" font-size="14.00" fill="#666666">[varchar(191)]</text>
<polygon fill="none" stroke="#000000" points="66.5,-612.5 66.5,-642.5 324.5,-642.5 324.5,-612.5 66.5,-612.5"/>
<text text-anchor="start" x="73.5" y="-623.9" font-family="Arial" font-size="14.00" fill="#000000">use_owner_as_mailer </text>
<text text-anchor="start" x="214.3008" y="-623.9" font-family="Arial" font-size="14.00" fill="#666666">[tinyint(1)]</text>
<polygon fill="none" stroke="#000000" points="66.5,-582.5 66.5,-612.5 324.5,-612.5 324.5,-582.5 66.5,-582.5"/>
<text text-anchor="start" x="73.5" y="-593.9" font-family="Arial" font-size="14.00" fill="#000000">template </text>
<text text-anchor="start" x="131.0694" y="-593.9" font-family="Arial" font-size="14.00" fill="#666666">[varchar(191)]</text>
<polygon fill="none" stroke="#000000" points="66.5,-552.5 66.5,-582.5 324.5,-582.5 324.5,-552.5 66.5,-552.5"/>
<text text-anchor="start" x="73.5" y="-563.9" font-family="Arial" font-size="14.00" fill="#000000">content </text>
<text text-anchor="start" x="123.3022" y="-563.9" font-family="Arial" font-size="14.00" fill="#666666">[longtext]</text>
<polygon fill="none" stroke="#000000" points="66.5,-522.5 66.5,-552.5 324.5,-552.5 324.5,-522.5 66.5,-522.5"/>
<text text-anchor="start" x="73.5" y="-533.9" font-family="Arial" font-size="14.00" fill="#000000">utm_tags </text>
<text text-anchor="start" x="134.9628" y="-533.9" font-family="Arial" font-size="14.00" fill="#666666">[longtext]</text>
<polygon fill="none" stroke="#000000" points="66.5,-492.5 66.5,-522.5 324.5,-522.5 324.5,-492.5 66.5,-492.5"/>
<text text-anchor="start" x="73.5" y="-503.9" font-family="Arial" font-size="14.00" fill="#000000">plain_text </text>
<text text-anchor="start" x="137.298" y="-503.9" font-family="Arial" font-size="14.00" fill="#666666">[longtext]</text>
<polygon fill="none" stroke="#000000" points="66.5,-462.5 66.5,-492.5 324.5,-492.5 324.5,-462.5 66.5,-462.5"/>
<text text-anchor="start" x="73.5" y="-473.9" font-family="Arial" font-size="14.00" fill="#000000">custom_html </text>
<text text-anchor="start" x="156.73" y="-473.9" font-family="Arial" font-size="14.00" fill="#666666">[longtext]</text>
<polygon fill="none" stroke="#000000" points="66.5,-432.5 66.5,-462.5 324.5,-462.5 324.5,-432.5 66.5,-432.5"/>
<text text-anchor="start" x="73.5" y="-443.9" font-family="Arial" font-size="14.00" fill="#000000">email_type </text>
<text text-anchor="start" x="145.068" y="-443.9" font-family="Arial" font-size="14.00" fill="#666666">[longtext]</text>
<polygon fill="none" stroke="#000000" points="66.5,-402.5 66.5,-432.5 324.5,-432.5 324.5,-402.5 66.5,-402.5"/>
<text text-anchor="start" x="73.5" y="-413.9" font-family="Arial" font-size="14.00" fill="#000000">publish_up </text>
<text text-anchor="start" x="145.082" y="-413.9" font-family="Arial" font-size="14.00" fill="#666666">[datetime]</text>
<polygon fill="none" stroke="#000000" points="66.5,-372.5 66.5,-402.5 324.5,-402.5 324.5,-372.5 66.5,-372.5"/>
<text text-anchor="start" x="73.5" y="-383.9" font-family="Arial" font-size="14.00" fill="#000000">publish_down </text>
<text text-anchor="start" x="162.9712" y="-383.9" font-family="Arial" font-size="14.00" fill="#666666">[datetime]</text>
<polygon fill="none" stroke="#000000" points="66.5,-342.5 66.5,-372.5 324.5,-372.5 324.5,-342.5 66.5,-342.5"/>
<text text-anchor="start" x="73.5" y="-353.9" font-family="Arial" font-size="14.00" fill="#000000">read_count </text>
<text text-anchor="start" x="147.42" y="-353.9" font-family="Arial" font-size="14.00" fill="#666666">[int(11)]</text>
<polygon fill="none" stroke="#000000" points="66.5,-312.5 66.5,-342.5 324.5,-342.5 324.5,-312.5 66.5,-312.5"/>
<text text-anchor="start" x="73.5" y="-323.9" font-family="Arial" font-size="14.00" fill="#000000">sent_count </text>
<text text-anchor="start" x="145.8674" y="-323.9" font-family="Arial" font-size="14.00" fill="#666666">[int(11)]</text>
<polygon fill="none" stroke="#000000" points="66.5,-282.5 66.5,-312.5 324.5,-312.5 324.5,-282.5 66.5,-282.5"/>
<text text-anchor="start" x="73.5" y="-293.9" font-family="Arial" font-size="14.00" fill="#000000">variant_sent_count </text>
<text text-anchor="start" x="195.6556" y="-293.9" font-family="Arial" font-size="14.00" fill="#666666">[int(11)]</text>
<polygon fill="none" stroke="#000000" points="66.5,-252.5 66.5,-282.5 324.5,-282.5 324.5,-252.5 66.5,-252.5"/>
<text text-anchor="start" x="73.5" y="-263.9" font-family="Arial" font-size="14.00" fill="#000000">variant_read_count </text>
<text text-anchor="start" x="197.2082" y="-263.9" font-family="Arial" font-size="14.00" fill="#666666">[int(11)]</text>
<polygon fill="none" stroke="#000000" points="66.5,-222.5 66.5,-252.5 324.5,-252.5 324.5,-222.5 66.5,-222.5"/>
<text text-anchor="start" x="73.5" y="-233.9" font-family="Arial" font-size="14.00" fill="#000000">revision </text>
<text text-anchor="start" x="125.6122" y="-233.9" font-family="Arial" font-size="14.00" fill="#666666">[int(11)]</text>
<polygon fill="none" stroke="#000000" points="66.5,-192.5 66.5,-222.5 324.5,-222.5 324.5,-192.5 66.5,-192.5"/>
<text text-anchor="start" x="73.5" y="-203.9" font-family="Arial" font-size="14.00" fill="#000000">lang </text>
<text text-anchor="start" x="103.845" y="-203.9" font-family="Arial" font-size="14.00" fill="#666666">[varchar(191)]</text>
<polygon fill="none" stroke="#000000" points="66.5,-162.5 66.5,-192.5 324.5,-192.5 324.5,-162.5 66.5,-162.5"/>
<text text-anchor="start" x="73.5" y="-173.9" font-family="Arial" font-size="14.00" fill="#000000">variant_settings </text>
<text text-anchor="start" x="175.4144" y="-173.9" font-family="Arial" font-size="14.00" fill="#666666">[longtext]</text>
<polygon fill="none" stroke="#000000" points="66.5,-132.5 66.5,-162.5 324.5,-162.5 324.5,-132.5 66.5,-132.5"/>
<text text-anchor="start" x="73.5" y="-143.9" font-family="Arial" font-size="14.00" fill="#000000">variant_start_date </text>
<text text-anchor="start" x="189.4242" y="-143.9" font-family="Arial" font-size="14.00" fill="#666666">[datetime]</text>
<polygon fill="none" stroke="#000000" points="66.5,-102.5 66.5,-132.5 324.5,-132.5 324.5,-102.5 66.5,-102.5"/>
<text text-anchor="start" x="73.5" y="-113.9" font-family="Arial" font-size="14.00" fill="#000000">dynamic_content </text>
<text text-anchor="start" x="183.1998" y="-113.9" font-family="Arial" font-size="14.00" fill="#666666">[longtext]</text>
<polygon fill="none" stroke="#000000" points="66.5,-72.5 66.5,-102.5 324.5,-102.5 324.5,-72.5 66.5,-72.5"/>
<text text-anchor="start" x="73.5" y="-83.9" font-family="Arial" font-size="14.00" fill="#000000">headers </text>
<text text-anchor="start" x="127.9642" y="-83.9" font-family="Arial" font-size="14.00" fill="#666666">[longtext]</text>
<polygon fill="none" stroke="#000000" points="66.5,-42.5 66.5,-72.5 324.5,-72.5 324.5,-42.5 66.5,-42.5"/>
<text text-anchor="start" x="73.5" y="-53.9" font-family="Arial" font-size="14.00" fill="#000000">public_preview </text>
<text text-anchor="start" x="169.9558" y="-53.9" font-family="Arial" font-size="14.00" fill="#666666">[tinyint(1)]</text>
</g>
<!-- bundle_grapesjsbuilder&#45;&gt;emails -->
<g id="edge1" class="edge">
<title>bundle_grapesjsbuilder:email_id&#45;&gt;emails:id</title>
<path fill="none" stroke="#000000" d="M353.4251,-1535.985C381.0447,-1526.4615 367.5568,-1474.3856 343.5,-1447 261.5671,-1353.7297 148.4329,-1504.2703 66.5,-1411 39.0746,-1379.7796 24.9444,-1317.5 66.5,-1317.5"/>
<polygon fill="#000000" stroke="#000000" points="353.3855,-1535.991 342.8209,-1533.0515 348.4427,-1536.7455 343.5,-1537.5 343.5,-1537.5 343.5,-1537.5 348.4427,-1536.7455 344.1791,-1541.9485 353.3855,-1535.991 353.3855,-1535.991"/>
<text text-anchor="start" x="350.007" y="-1547.5" font-family="Arial" font-size="10.00" fill="#000000">FOREIGN KEY (email_id) REFERENCES emails (id)</text>
</g>
</g>
</svg>
