<?xml version="1.0" encoding="UTF-8" standalone="no"?>
<!DOCTYPE svg PUBLIC "-//W3C//DTD SVG 1.1//EN"
 "http://www.w3.org/Graphics/SVG/1.1/DTD/svg11.dtd">
<!-- Generated by graphviz version 2.40.1 (20161225.0304)
 -->
<!-- Title: cache_items Pages: 1 -->
<svg width="312pt" height="255pt"
 viewBox="0.00 0.00 312.00 255.00" xmlns="http://www.w3.org/2000/svg" xmlns:xlink="http://www.w3.org/1999/xlink">
<g id="graph0" class="graph" transform="scale(1 1) rotate(0) translate(4 251)">
<title>cache_items</title>
<polygon fill="#ffffff" stroke="transparent" points="-4,4 -4,-251 308,-251 308,4 -4,4"/>
<!-- cache_items -->
<g id="node1" class="node">
<title>cache_items</title>
<polygon fill="#efefef" stroke="transparent" points="46,-165.5 46,-200.5 258,-200.5 258,-165.5 46,-165.5"/>
<polygon fill="none" stroke="#000000" points="46,-165.5 46,-200.5 258,-200.5 258,-165.5 46,-165.5"/>
<text text-anchor="start" x="52.8633" y="-178.3" font-family="Arial Bold" font-size="18.00" fill="#000000">cache_items</text>
<text text-anchor="start" x="153.8829" y="-178.3" font-family="Arial" font-size="14.00" fill="#000000"> </text>
<text text-anchor="start" x="157.7735" y="-178.3" font-family="Arial" font-size="14.00" fill="#666666">[BASE TABLE]</text>
<polygon fill="none" stroke="#000000" points="46,-135.5 46,-165.5 258,-165.5 258,-135.5 46,-135.5"/>
<text text-anchor="start" x="53" y="-146.9" font-family="Arial" font-size="14.00" fill="#000000">item_id </text>
<text text-anchor="start" x="102.0028" y="-146.9" font-family="Arial" font-size="14.00" fill="#666666">[varbinary(255)]</text>
<polygon fill="none" stroke="#000000" points="46,-105.5 46,-135.5 258,-135.5 258,-105.5 46,-105.5"/>
<text text-anchor="start" x="53" y="-116.9" font-family="Arial" font-size="14.00" fill="#000000">item_data </text>
<text text-anchor="start" x="118.352" y="-116.9" font-family="Arial" font-size="14.00" fill="#666666">[longblob]</text>
<polygon fill="none" stroke="#000000" points="46,-75.5 46,-105.5 258,-105.5 258,-75.5 46,-75.5"/>
<text text-anchor="start" x="53" y="-86.9" font-family="Arial" font-size="14.00" fill="#000000">item_lifetime </text>
<text text-anchor="start" x="135.4404" y="-86.9" font-family="Arial" font-size="14.00" fill="#666666">[int(10) unsigned]</text>
<polygon fill="none" stroke="#000000" points="46,-45.5 46,-75.5 258,-75.5 258,-45.5 46,-45.5"/>
<text text-anchor="start" x="53" y="-56.9" font-family="Arial" font-size="14.00" fill="#000000">item_time </text>
<text text-anchor="start" x="117.554" y="-56.9" font-family="Arial" font-size="14.00" fill="#666666">[int(10) unsigned]</text>
<polygon fill="none" stroke="#000000" stroke-width="3" points="44.5,-44.5 44.5,-202.5 259.5,-202.5 259.5,-44.5 44.5,-44.5"/>
</g>
</g>
</svg>
