<?xml version="1.0" encoding="UTF-8" standalone="no"?>
<!DOCTYPE svg PUBLIC "-//W3C//DTD SVG 1.1//EN"
 "http://www.w3.org/Graphics/SVG/1.1/DTD/svg11.dtd">
<!-- Generated by graphviz version 2.40.1 (20161225.0304)
 -->
<!-- Title: campaigns Pages: 1 -->
<svg width="1897pt" height="2099pt"
 viewBox="0.00 0.00 1896.50 2099.00" xmlns="http://www.w3.org/2000/svg" xmlns:xlink="http://www.w3.org/1999/xlink">
<g id="graph0" class="graph" transform="scale(1 1) rotate(0) translate(4 2095)">
<title>campaigns</title>
<polygon fill="#ffffff" stroke="transparent" points="-4,4 -4,-2095 1892.5,-2095 1892.5,4 -4,4"/>
<!-- campaigns -->
<g id="node1" class="node">
<title>campaigns</title>
<polygon fill="#efefef" stroke="transparent" points="806,-1222.5 806,-1257.5 1047,-1257.5 1047,-1222.5 806,-1222.5"/>
<polygon fill="none" stroke="#000000" points="806,-1222.5 806,-1257.5 1047,-1257.5 1047,-1222.5 806,-1222.5"/>
<text text-anchor="start" x="834.3644" y="-1235.3" font-family="Arial Bold" font-size="18.00" fill="#000000">campaigns</text>
<text text-anchor="start" x="921.3818" y="-1235.3" font-family="Arial" font-size="14.00" fill="#000000"> </text>
<text text-anchor="start" x="925.2724" y="-1235.3" font-family="Arial" font-size="14.00" fill="#666666">[BASE TABLE]</text>
<polygon fill="none" stroke="#000000" points="806,-1192.5 806,-1222.5 1047,-1222.5 1047,-1192.5 806,-1192.5"/>
<text text-anchor="start" x="813" y="-1203.9" font-family="Arial" font-size="14.00" fill="#000000">id </text>
<text text-anchor="start" x="827.7798" y="-1203.9" font-family="Arial" font-size="14.00" fill="#666666">[int(10) unsigned]</text>
<polygon fill="none" stroke="#000000" points="806,-1162.5 806,-1192.5 1047,-1192.5 1047,-1162.5 806,-1162.5"/>
<text text-anchor="start" x="813" y="-1173.9" font-family="Arial" font-size="14.00" fill="#000000">category_id </text>
<text text-anchor="start" x="889.244" y="-1173.9" font-family="Arial" font-size="14.00" fill="#666666">[int(10) unsigned]</text>
<polygon fill="none" stroke="#000000" points="806,-1132.5 806,-1162.5 1047,-1162.5 1047,-1132.5 806,-1132.5"/>
<text text-anchor="start" x="813" y="-1143.9" font-family="Arial" font-size="14.00" fill="#000000">is_published </text>
<text text-anchor="start" x="894.6886" y="-1143.9" font-family="Arial" font-size="14.00" fill="#666666">[tinyint(1)]</text>
<polygon fill="none" stroke="#000000" points="806,-1102.5 806,-1132.5 1047,-1132.5 1047,-1102.5 806,-1102.5"/>
<text text-anchor="start" x="813" y="-1113.9" font-family="Arial" font-size="14.00" fill="#000000">date_added </text>
<text text-anchor="start" x="890.8246" y="-1113.9" font-family="Arial" font-size="14.00" fill="#666666">[datetime]</text>
<polygon fill="none" stroke="#000000" points="806,-1072.5 806,-1102.5 1047,-1102.5 1047,-1072.5 806,-1072.5"/>
<text text-anchor="start" x="813" y="-1083.9" font-family="Arial" font-size="14.00" fill="#000000">created_by </text>
<text text-anchor="start" x="886.1374" y="-1083.9" font-family="Arial" font-size="14.00" fill="#666666">[int(11)]</text>
<polygon fill="none" stroke="#000000" points="806,-1042.5 806,-1072.5 1047,-1072.5 1047,-1042.5 806,-1042.5"/>
<text text-anchor="start" x="813" y="-1053.9" font-family="Arial" font-size="14.00" fill="#000000">created_by_user </text>
<text text-anchor="start" x="921.1458" y="-1053.9" font-family="Arial" font-size="14.00" fill="#666666">[varchar(191)]</text>
<polygon fill="none" stroke="#000000" points="806,-1012.5 806,-1042.5 1047,-1042.5 1047,-1012.5 806,-1012.5"/>
<text text-anchor="start" x="813" y="-1023.9" font-family="Arial" font-size="14.00" fill="#000000">date_modified </text>
<text text-anchor="start" x="904.8064" y="-1023.9" font-family="Arial" font-size="14.00" fill="#666666">[datetime]</text>
<polygon fill="none" stroke="#000000" points="806,-982.5 806,-1012.5 1047,-1012.5 1047,-982.5 806,-982.5"/>
<text text-anchor="start" x="813" y="-993.9" font-family="Arial" font-size="14.00" fill="#000000">modified_by </text>
<text text-anchor="start" x="892.3506" y="-993.9" font-family="Arial" font-size="14.00" fill="#666666">[int(11)]</text>
<polygon fill="none" stroke="#000000" points="806,-952.5 806,-982.5 1047,-982.5 1047,-952.5 806,-952.5"/>
<text text-anchor="start" x="813" y="-963.9" font-family="Arial" font-size="14.00" fill="#000000">modified_by_user </text>
<text text-anchor="start" x="927.359" y="-963.9" font-family="Arial" font-size="14.00" fill="#666666">[varchar(191)]</text>
<polygon fill="none" stroke="#000000" points="806,-922.5 806,-952.5 1047,-952.5 1047,-922.5 806,-922.5"/>
<text text-anchor="start" x="813" y="-933.9" font-family="Arial" font-size="14.00" fill="#000000">checked_out </text>
<text text-anchor="start" x="896.2594" y="-933.9" font-family="Arial" font-size="14.00" fill="#666666">[datetime]</text>
<polygon fill="none" stroke="#000000" points="806,-892.5 806,-922.5 1047,-922.5 1047,-892.5 806,-892.5"/>
<text text-anchor="start" x="813" y="-903.9" font-family="Arial" font-size="14.00" fill="#000000">checked_out_by </text>
<text text-anchor="start" x="918.8246" y="-903.9" font-family="Arial" font-size="14.00" fill="#666666">[int(11)]</text>
<polygon fill="none" stroke="#000000" points="806,-862.5 806,-892.5 1047,-892.5 1047,-862.5 806,-862.5"/>
<text text-anchor="start" x="812.5239" y="-873.9" font-family="Arial" font-size="14.00" fill="#000000">checked_out_by_user </text>
<text text-anchor="start" x="953.3569" y="-873.9" font-family="Arial" font-size="14.00" fill="#666666">[varchar(191)]</text>
<polygon fill="none" stroke="#000000" points="806,-832.5 806,-862.5 1047,-862.5 1047,-832.5 806,-832.5"/>
<text text-anchor="start" x="813" y="-843.9" font-family="Arial" font-size="14.00" fill="#000000">name </text>
<text text-anchor="start" x="851.899" y="-843.9" font-family="Arial" font-size="14.00" fill="#666666">[varchar(191)]</text>
<polygon fill="none" stroke="#000000" points="806,-802.5 806,-832.5 1047,-832.5 1047,-802.5 806,-802.5"/>
<text text-anchor="start" x="813" y="-813.9" font-family="Arial" font-size="14.00" fill="#000000">description </text>
<text text-anchor="start" x="884.568" y="-813.9" font-family="Arial" font-size="14.00" fill="#666666">[longtext]</text>
<polygon fill="none" stroke="#000000" points="806,-772.5 806,-802.5 1047,-802.5 1047,-772.5 806,-772.5"/>
<text text-anchor="start" x="813" y="-783.9" font-family="Arial" font-size="14.00" fill="#000000">publish_up </text>
<text text-anchor="start" x="884.582" y="-783.9" font-family="Arial" font-size="14.00" fill="#666666">[datetime]</text>
<polygon fill="none" stroke="#000000" points="806,-742.5 806,-772.5 1047,-772.5 1047,-742.5 806,-742.5"/>
<text text-anchor="start" x="813" y="-753.9" font-family="Arial" font-size="14.00" fill="#000000">publish_down </text>
<text text-anchor="start" x="902.4712" y="-753.9" font-family="Arial" font-size="14.00" fill="#666666">[datetime]</text>
<polygon fill="none" stroke="#000000" points="806,-712.5 806,-742.5 1047,-742.5 1047,-712.5 806,-712.5"/>
<text text-anchor="start" x="813" y="-723.9" font-family="Arial" font-size="14.00" fill="#000000">canvas_settings </text>
<text text-anchor="start" x="917.2566" y="-723.9" font-family="Arial" font-size="14.00" fill="#666666">[longtext]</text>
<polygon fill="none" stroke="#000000" points="806,-682.5 806,-712.5 1047,-712.5 1047,-682.5 806,-682.5"/>
<text text-anchor="start" x="813" y="-693.9" font-family="Arial" font-size="14.00" fill="#000000">allow_restart </text>
<text text-anchor="start" x="896.2258" y="-693.9" font-family="Arial" font-size="14.00" fill="#666666">[int(11)]</text>
<polygon fill="none" stroke="#000000" stroke-width="3" points="804,-681.5 804,-1259.5 1048,-1259.5 1048,-681.5 804,-681.5"/>
</g>
<!-- categories -->
<g id="node7" class="node">
<title>categories</title>
<polygon fill="#efefef" stroke="transparent" points="806,-522.5 806,-557.5 1047,-557.5 1047,-522.5 806,-522.5"/>
<polygon fill="none" stroke="#000000" points="806,-522.5 806,-557.5 1047,-557.5 1047,-522.5 806,-522.5"/>
<text text-anchor="start" x="836.3633" y="-535.3" font-family="Arial Bold" font-size="18.00" fill="#000000">categories</text>
<text text-anchor="start" x="919.3829" y="-535.3" font-family="Arial" font-size="14.00" fill="#000000"> </text>
<text text-anchor="start" x="923.2735" y="-535.3" font-family="Arial" font-size="14.00" fill="#666666">[BASE TABLE]</text>
<polygon fill="none" stroke="#000000" points="806,-492.5 806,-522.5 1047,-522.5 1047,-492.5 806,-492.5"/>
<text text-anchor="start" x="813" y="-503.9" font-family="Arial" font-size="14.00" fill="#000000">id </text>
<text text-anchor="start" x="827.7798" y="-503.9" font-family="Arial" font-size="14.00" fill="#666666">[int(10) unsigned]</text>
<polygon fill="none" stroke="#000000" points="806,-462.5 806,-492.5 1047,-492.5 1047,-462.5 806,-462.5"/>
<text text-anchor="start" x="813" y="-473.9" font-family="Arial" font-size="14.00" fill="#000000">is_published </text>
<text text-anchor="start" x="894.6886" y="-473.9" font-family="Arial" font-size="14.00" fill="#666666">[tinyint(1)]</text>
<polygon fill="none" stroke="#000000" points="806,-432.5 806,-462.5 1047,-462.5 1047,-432.5 806,-432.5"/>
<text text-anchor="start" x="813" y="-443.9" font-family="Arial" font-size="14.00" fill="#000000">date_added </text>
<text text-anchor="start" x="890.8246" y="-443.9" font-family="Arial" font-size="14.00" fill="#666666">[datetime]</text>
<polygon fill="none" stroke="#000000" points="806,-402.5 806,-432.5 1047,-432.5 1047,-402.5 806,-402.5"/>
<text text-anchor="start" x="813" y="-413.9" font-family="Arial" font-size="14.00" fill="#000000">created_by </text>
<text text-anchor="start" x="886.1374" y="-413.9" font-family="Arial" font-size="14.00" fill="#666666">[int(11)]</text>
<polygon fill="none" stroke="#000000" points="806,-372.5 806,-402.5 1047,-402.5 1047,-372.5 806,-372.5"/>
<text text-anchor="start" x="813" y="-383.9" font-family="Arial" font-size="14.00" fill="#000000">created_by_user </text>
<text text-anchor="start" x="921.1458" y="-383.9" font-family="Arial" font-size="14.00" fill="#666666">[varchar(191)]</text>
<polygon fill="none" stroke="#000000" points="806,-342.5 806,-372.5 1047,-372.5 1047,-342.5 806,-342.5"/>
<text text-anchor="start" x="813" y="-353.9" font-family="Arial" font-size="14.00" fill="#000000">date_modified </text>
<text text-anchor="start" x="904.8064" y="-353.9" font-family="Arial" font-size="14.00" fill="#666666">[datetime]</text>
<polygon fill="none" stroke="#000000" points="806,-312.5 806,-342.5 1047,-342.5 1047,-312.5 806,-312.5"/>
<text text-anchor="start" x="813" y="-323.9" font-family="Arial" font-size="14.00" fill="#000000">modified_by </text>
<text text-anchor="start" x="892.3506" y="-323.9" font-family="Arial" font-size="14.00" fill="#666666">[int(11)]</text>
<polygon fill="none" stroke="#000000" points="806,-282.5 806,-312.5 1047,-312.5 1047,-282.5 806,-282.5"/>
<text text-anchor="start" x="813" y="-293.9" font-family="Arial" font-size="14.00" fill="#000000">modified_by_user </text>
<text text-anchor="start" x="927.359" y="-293.9" font-family="Arial" font-size="14.00" fill="#666666">[varchar(191)]</text>
<polygon fill="none" stroke="#000000" points="806,-252.5 806,-282.5 1047,-282.5 1047,-252.5 806,-252.5"/>
<text text-anchor="start" x="813" y="-263.9" font-family="Arial" font-size="14.00" fill="#000000">checked_out </text>
<text text-anchor="start" x="896.2594" y="-263.9" font-family="Arial" font-size="14.00" fill="#666666">[datetime]</text>
<polygon fill="none" stroke="#000000" points="806,-222.5 806,-252.5 1047,-252.5 1047,-222.5 806,-222.5"/>
<text text-anchor="start" x="813" y="-233.9" font-family="Arial" font-size="14.00" fill="#000000">checked_out_by </text>
<text text-anchor="start" x="918.8246" y="-233.9" font-family="Arial" font-size="14.00" fill="#666666">[int(11)]</text>
<polygon fill="none" stroke="#000000" points="806,-192.5 806,-222.5 1047,-222.5 1047,-192.5 806,-192.5"/>
<text text-anchor="start" x="812.5239" y="-203.9" font-family="Arial" font-size="14.00" fill="#000000">checked_out_by_user </text>
<text text-anchor="start" x="953.3569" y="-203.9" font-family="Arial" font-size="14.00" fill="#666666">[varchar(191)]</text>
<polygon fill="none" stroke="#000000" points="806,-162.5 806,-192.5 1047,-192.5 1047,-162.5 806,-162.5"/>
<text text-anchor="start" x="813" y="-173.9" font-family="Arial" font-size="14.00" fill="#000000">title </text>
<text text-anchor="start" x="838.6676" y="-173.9" font-family="Arial" font-size="14.00" fill="#666666">[varchar(191)]</text>
<polygon fill="none" stroke="#000000" points="806,-132.5 806,-162.5 1047,-162.5 1047,-132.5 806,-132.5"/>
<text text-anchor="start" x="813" y="-143.9" font-family="Arial" font-size="14.00" fill="#000000">description </text>
<text text-anchor="start" x="884.568" y="-143.9" font-family="Arial" font-size="14.00" fill="#666666">[longtext]</text>
<polygon fill="none" stroke="#000000" points="806,-102.5 806,-132.5 1047,-132.5 1047,-102.5 806,-102.5"/>
<text text-anchor="start" x="813" y="-113.9" font-family="Arial" font-size="14.00" fill="#000000">alias </text>
<text text-anchor="start" x="845.669" y="-113.9" font-family="Arial" font-size="14.00" fill="#666666">[varchar(191)]</text>
<polygon fill="none" stroke="#000000" points="806,-72.5 806,-102.5 1047,-102.5 1047,-72.5 806,-72.5"/>
<text text-anchor="start" x="813" y="-83.9" font-family="Arial" font-size="14.00" fill="#000000">color </text>
<text text-anchor="start" x="847.223" y="-83.9" font-family="Arial" font-size="14.00" fill="#666666">[varchar(7)]</text>
<polygon fill="none" stroke="#000000" points="806,-42.5 806,-72.5 1047,-72.5 1047,-42.5 806,-42.5"/>
<text text-anchor="start" x="813" y="-53.9" font-family="Arial" font-size="14.00" fill="#000000">bundle </text>
<text text-anchor="start" x="858.9102" y="-53.9" font-family="Arial" font-size="14.00" fill="#666666">[varchar(50)]</text>
</g>
<!-- campaigns&#45;&gt;categories -->
<g id="edge6" class="edge">
<title>campaigns:category_id&#45;&gt;categories:id</title>
<path fill="none" stroke="#000000" d="M795.6539,-1177.2261C508.2631,-1161.8889 511.7118,-507.5 806,-507.5"/>
<polygon fill="#000000" stroke="#000000" points="796.0035,-1177.2353 805.8809,-1181.9984 801.0018,-1177.3676 806,-1177.5 806,-1177.5 806,-1177.5 801.0018,-1177.3676 806.1191,-1173.0016 796.0035,-1177.2353 796.0035,-1177.2353"/>
<text text-anchor="start" x="532.659" y="-1187.5" font-family="Arial" font-size="10.00" fill="#000000">FOREIGN KEY (category_id) REFERENCES categories (id)</text>
</g>
<!-- campaign_events -->
<g id="node2" class="node">
<title>campaign_events</title>
<polygon fill="#efefef" stroke="transparent" points="43,-2012.5 43,-2047.5 295,-2047.5 295,-2012.5 43,-2012.5"/>
<polygon fill="none" stroke="#000000" points="43,-2012.5 43,-2047.5 295,-2047.5 295,-2012.5 43,-2012.5"/>
<text text-anchor="start" x="49.8509" y="-2025.3" font-family="Arial Bold" font-size="18.00" fill="#000000">campaign_events</text>
<text text-anchor="start" x="190.8953" y="-2025.3" font-family="Arial" font-size="14.00" fill="#000000"> </text>
<text text-anchor="start" x="194.7859" y="-2025.3" font-family="Arial" font-size="14.00" fill="#666666">[BASE TABLE]</text>
<polygon fill="none" stroke="#000000" points="43,-1982.5 43,-2012.5 295,-2012.5 295,-1982.5 43,-1982.5"/>
<text text-anchor="start" x="50" y="-1993.9" font-family="Arial" font-size="14.00" fill="#000000">id </text>
<text text-anchor="start" x="64.7798" y="-1993.9" font-family="Arial" font-size="14.00" fill="#666666">[int(10) unsigned]</text>
<polygon fill="none" stroke="#000000" points="43,-1952.5 43,-1982.5 295,-1982.5 295,-1952.5 43,-1952.5"/>
<text text-anchor="start" x="50" y="-1963.9" font-family="Arial" font-size="14.00" fill="#000000">campaign_id </text>
<text text-anchor="start" x="133.2426" y="-1963.9" font-family="Arial" font-size="14.00" fill="#666666">[int(10) unsigned]</text>
<polygon fill="none" stroke="#000000" points="43,-1922.5 43,-1952.5 295,-1952.5 295,-1922.5 43,-1922.5"/>
<text text-anchor="start" x="50" y="-1933.9" font-family="Arial" font-size="14.00" fill="#000000">parent_id </text>
<text text-anchor="start" x="112.244" y="-1933.9" font-family="Arial" font-size="14.00" fill="#666666">[int(10) unsigned]</text>
<polygon fill="none" stroke="#000000" points="43,-1892.5 43,-1922.5 295,-1922.5 295,-1892.5 43,-1892.5"/>
<text text-anchor="start" x="50" y="-1903.9" font-family="Arial" font-size="14.00" fill="#000000">name </text>
<text text-anchor="start" x="88.899" y="-1903.9" font-family="Arial" font-size="14.00" fill="#666666">[varchar(191)]</text>
<polygon fill="none" stroke="#000000" points="43,-1862.5 43,-1892.5 295,-1892.5 295,-1862.5 43,-1862.5"/>
<text text-anchor="start" x="50" y="-1873.9" font-family="Arial" font-size="14.00" fill="#000000">description </text>
<text text-anchor="start" x="121.568" y="-1873.9" font-family="Arial" font-size="14.00" fill="#666666">[longtext]</text>
<polygon fill="none" stroke="#000000" points="43,-1832.5 43,-1862.5 295,-1862.5 295,-1832.5 43,-1832.5"/>
<text text-anchor="start" x="50" y="-1843.9" font-family="Arial" font-size="14.00" fill="#000000">type </text>
<text text-anchor="start" x="80.3464" y="-1843.9" font-family="Arial" font-size="14.00" fill="#666666">[varchar(50)]</text>
<polygon fill="none" stroke="#000000" points="43,-1802.5 43,-1832.5 295,-1832.5 295,-1802.5 43,-1802.5"/>
<text text-anchor="start" x="50" y="-1813.9" font-family="Arial" font-size="14.00" fill="#000000">event_type </text>
<text text-anchor="start" x="122.3674" y="-1813.9" font-family="Arial" font-size="14.00" fill="#666666">[varchar(50)]</text>
<polygon fill="none" stroke="#000000" points="43,-1772.5 43,-1802.5 295,-1802.5 295,-1772.5 43,-1772.5"/>
<text text-anchor="start" x="50" y="-1783.9" font-family="Arial" font-size="14.00" fill="#000000">event_order </text>
<text text-anchor="start" x="128.5806" y="-1783.9" font-family="Arial" font-size="14.00" fill="#666666">[int(11)]</text>
<polygon fill="none" stroke="#000000" points="43,-1742.5 43,-1772.5 295,-1772.5 295,-1742.5 43,-1742.5"/>
<text text-anchor="start" x="50" y="-1753.9" font-family="Arial" font-size="14.00" fill="#000000">properties </text>
<text text-anchor="start" x="116.122" y="-1753.9" font-family="Arial" font-size="14.00" fill="#666666">[longtext]</text>
<polygon fill="none" stroke="#000000" points="43,-1712.5 43,-1742.5 295,-1742.5 295,-1712.5 43,-1712.5"/>
<text text-anchor="start" x="50" y="-1723.9" font-family="Arial" font-size="14.00" fill="#000000">trigger_date </text>
<text text-anchor="start" x="128.5778" y="-1723.9" font-family="Arial" font-size="14.00" fill="#666666">[datetime]</text>
<polygon fill="none" stroke="#000000" points="43,-1682.5 43,-1712.5 295,-1712.5 295,-1682.5 43,-1682.5"/>
<text text-anchor="start" x="50" y="-1693.9" font-family="Arial" font-size="14.00" fill="#000000">trigger_interval </text>
<text text-anchor="start" x="146.4516" y="-1693.9" font-family="Arial" font-size="14.00" fill="#666666">[int(11)]</text>
<polygon fill="none" stroke="#000000" points="43,-1652.5 43,-1682.5 295,-1682.5 295,-1652.5 43,-1652.5"/>
<text text-anchor="start" x="50" y="-1663.9" font-family="Arial" font-size="14.00" fill="#000000">trigger_interval_unit </text>
<text text-anchor="start" x="176.7966" y="-1663.9" font-family="Arial" font-size="14.00" fill="#666666">[varchar(1)]</text>
<polygon fill="none" stroke="#000000" points="43,-1622.5 43,-1652.5 295,-1652.5 295,-1622.5 43,-1622.5"/>
<text text-anchor="start" x="50" y="-1633.9" font-family="Arial" font-size="14.00" fill="#000000">trigger_hour </text>
<text text-anchor="start" x="129.3478" y="-1633.9" font-family="Arial" font-size="14.00" fill="#666666">[time]</text>
<polygon fill="none" stroke="#000000" points="43,-1592.5 43,-1622.5 295,-1622.5 295,-1592.5 43,-1592.5"/>
<text text-anchor="start" x="50" y="-1603.9" font-family="Arial" font-size="14.00" fill="#000000">trigger_restricted_start_hour </text>
<text text-anchor="start" x="229.6942" y="-1603.9" font-family="Arial" font-size="14.00" fill="#666666">[time]</text>
<polygon fill="none" stroke="#000000" points="43,-1562.5 43,-1592.5 295,-1592.5 295,-1562.5 43,-1562.5"/>
<text text-anchor="start" x="50" y="-1573.9" font-family="Arial" font-size="14.00" fill="#000000">trigger_restricted_stop_hour </text>
<text text-anchor="start" x="228.9256" y="-1573.9" font-family="Arial" font-size="14.00" fill="#666666">[time]</text>
<polygon fill="none" stroke="#000000" points="43,-1532.5 43,-1562.5 295,-1562.5 295,-1532.5 43,-1532.5"/>
<text text-anchor="start" x="50" y="-1543.9" font-family="Arial" font-size="14.00" fill="#000000">trigger_restricted_dow </text>
<text text-anchor="start" x="192.3506" y="-1543.9" font-family="Arial" font-size="14.00" fill="#666666">[longtext]</text>
<polygon fill="none" stroke="#000000" points="43,-1502.5 43,-1532.5 295,-1532.5 295,-1502.5 43,-1502.5"/>
<text text-anchor="start" x="50" y="-1513.9" font-family="Arial" font-size="14.00" fill="#000000">trigger_mode </text>
<text text-anchor="start" x="136.3478" y="-1513.9" font-family="Arial" font-size="14.00" fill="#666666">[varchar(10)]</text>
<polygon fill="none" stroke="#000000" points="43,-1472.5 43,-1502.5 295,-1502.5 295,-1472.5 43,-1472.5"/>
<text text-anchor="start" x="50" y="-1483.9" font-family="Arial" font-size="14.00" fill="#000000">decision_path </text>
<text text-anchor="start" x="140.2552" y="-1483.9" font-family="Arial" font-size="14.00" fill="#666666">[varchar(191)]</text>
<polygon fill="none" stroke="#000000" points="43,-1442.5 43,-1472.5 295,-1472.5 295,-1442.5 43,-1442.5"/>
<text text-anchor="start" x="50" y="-1453.9" font-family="Arial" font-size="14.00" fill="#000000">temp_id </text>
<text text-anchor="start" x="103.6788" y="-1453.9" font-family="Arial" font-size="14.00" fill="#666666">[varchar(191)]</text>
<polygon fill="none" stroke="#000000" points="43,-1412.5 43,-1442.5 295,-1442.5 295,-1412.5 43,-1412.5"/>
<text text-anchor="start" x="50" y="-1423.9" font-family="Arial" font-size="14.00" fill="#000000">channel </text>
<text text-anchor="start" x="102.9102" y="-1423.9" font-family="Arial" font-size="14.00" fill="#666666">[varchar(191)]</text>
<polygon fill="none" stroke="#000000" points="43,-1382.5 43,-1412.5 295,-1412.5 295,-1382.5 43,-1382.5"/>
<text text-anchor="start" x="50" y="-1393.9" font-family="Arial" font-size="14.00" fill="#000000">channel_id </text>
<text text-anchor="start" x="121.582" y="-1393.9" font-family="Arial" font-size="14.00" fill="#666666">[int(11)]</text>
</g>
<!-- campaign_events&#45;&gt;campaigns -->
<g id="edge1" class="edge">
<title>campaign_events:campaign_id&#45;&gt;campaigns:id</title>
<path fill="none" stroke="#000000" d="M304.3301,-1963.5261C359.1324,-1912.7443 304.8357,-1391.4823 347,-1340 414.2681,-1257.8661 699.8352,-1207.5 806,-1207.5"/>
<polygon fill="#000000" stroke="#000000" points="304.2003,-1963.5813 293.2366,-1963.3599 299.6001,-1965.5407 295,-1967.5 295,-1967.5 295,-1967.5 299.6001,-1965.5407 296.7634,-1971.6401 304.2003,-1963.5813 304.2003,-1963.5813"/>
<text text-anchor="start" x="302.049" y="-1977.5" font-family="Arial" font-size="10.00" fill="#000000">FOREIGN KEY (campaign_id) REFERENCES campaigns (id)</text>
</g>
<!-- campaign_form_xref -->
<g id="node3" class="node">
<title>campaign_form_xref</title>
<polygon fill="#efefef" stroke="transparent" points="400,-1727.5 400,-1762.5 675,-1762.5 675,-1727.5 400,-1727.5"/>
<polygon fill="none" stroke="#000000" points="400,-1727.5 400,-1762.5 675,-1762.5 675,-1727.5 400,-1727.5"/>
<text text-anchor="start" x="406.8615" y="-1740.3" font-family="Arial Bold" font-size="18.00" fill="#000000">campaign_form_xref</text>
<text text-anchor="start" x="570.8847" y="-1740.3" font-family="Arial" font-size="14.00" fill="#000000"> </text>
<text text-anchor="start" x="574.7753" y="-1740.3" font-family="Arial" font-size="14.00" fill="#666666">[BASE TABLE]</text>
<polygon fill="none" stroke="#000000" points="400,-1697.5 400,-1727.5 675,-1727.5 675,-1697.5 400,-1697.5"/>
<text text-anchor="start" x="407" y="-1708.9" font-family="Arial" font-size="14.00" fill="#000000">campaign_id </text>
<text text-anchor="start" x="490.2426" y="-1708.9" font-family="Arial" font-size="14.00" fill="#666666">[int(10) unsigned]</text>
<polygon fill="none" stroke="#000000" points="400,-1667.5 400,-1697.5 675,-1697.5 675,-1667.5 400,-1667.5"/>
<text text-anchor="start" x="407" y="-1678.9" font-family="Arial" font-size="14.00" fill="#000000">form_id </text>
<text text-anchor="start" x="457.5568" y="-1678.9" font-family="Arial" font-size="14.00" fill="#666666">[int(10) unsigned]</text>
</g>
<!-- campaign_form_xref&#45;&gt;campaigns -->
<g id="edge2" class="edge">
<title>campaign_form_xref:campaign_id&#45;&gt;campaigns:id</title>
<path fill="none" stroke="#000000" d="M684.9913,-1710.9134C753.5237,-1687.6551 699.3624,-1415.3925 726,-1340 748.9165,-1275.1391 737.2097,-1207.5 806,-1207.5"/>
<polygon fill="#000000" stroke="#000000" points="684.8763,-1710.9316 674.2942,-1708.0557 679.9381,-1711.7158 675,-1712.5 675,-1712.5 675,-1712.5 679.9381,-1711.7158 675.7058,-1716.9443 684.8763,-1710.9316 684.8763,-1710.9316"/>
<text text-anchor="start" x="682.049" y="-1722.5" font-family="Arial" font-size="10.00" fill="#000000">FOREIGN KEY (campaign_id) REFERENCES campaigns (id)</text>
</g>
<!-- campaign_leadlist_xref -->
<g id="node4" class="node">
<title>campaign_leadlist_xref</title>
<polygon fill="#efefef" stroke="transparent" points="779,-1727.5 779,-1762.5 1074,-1762.5 1074,-1727.5 779,-1727.5"/>
<polygon fill="none" stroke="#000000" points="779,-1727.5 779,-1762.5 1074,-1762.5 1074,-1727.5 779,-1727.5"/>
<text text-anchor="start" x="785.8562" y="-1740.3" font-family="Arial Bold" font-size="18.00" fill="#000000">campaign_leadlist_xref</text>
<text text-anchor="start" x="969.89" y="-1740.3" font-family="Arial" font-size="14.00" fill="#000000"> </text>
<text text-anchor="start" x="973.7806" y="-1740.3" font-family="Arial" font-size="14.00" fill="#666666">[BASE TABLE]</text>
<polygon fill="none" stroke="#000000" points="779,-1697.5 779,-1727.5 1074,-1727.5 1074,-1697.5 779,-1697.5"/>
<text text-anchor="start" x="786" y="-1708.9" font-family="Arial" font-size="14.00" fill="#000000">campaign_id </text>
<text text-anchor="start" x="869.2426" y="-1708.9" font-family="Arial" font-size="14.00" fill="#666666">[int(10) unsigned]</text>
<polygon fill="none" stroke="#000000" points="779,-1667.5 779,-1697.5 1074,-1697.5 1074,-1667.5 779,-1667.5"/>
<text text-anchor="start" x="786" y="-1678.9" font-family="Arial" font-size="14.00" fill="#000000">leadlist_id </text>
<text text-anchor="start" x="852.1206" y="-1678.9" font-family="Arial" font-size="14.00" fill="#666666">[int(10) unsigned]</text>
</g>
<!-- campaign_leadlist_xref&#45;&gt;campaigns -->
<g id="edge3" class="edge">
<title>campaign_leadlist_xref:campaign_id&#45;&gt;campaigns:id</title>
<path fill="none" stroke="#000000" d="M769.9686,-1707.5018C726.073,-1655.0541 753.1012,-1207.5 806,-1207.5"/>
<polygon fill="#000000" stroke="#000000" points="770.2505,-1707.6578 776.821,-1716.4373 774.6252,-1710.0789 779,-1712.5 779,-1712.5 779,-1712.5 774.6252,-1710.0789 781.179,-1708.5627 770.2505,-1707.6578 770.2505,-1707.6578"/>
<text text-anchor="start" x="786.049" y="-1696.5" font-family="Arial" font-size="10.00" fill="#000000">FOREIGN KEY (campaign_id) REFERENCES campaigns (id)</text>
</g>
<!-- campaign_leads -->
<g id="node5" class="node">
<title>campaign_leads</title>
<polygon fill="#efefef" stroke="transparent" points="1178,-1802.5 1178,-1837.5 1420,-1837.5 1420,-1802.5 1178,-1802.5"/>
<polygon fill="none" stroke="#000000" points="1178,-1802.5 1178,-1837.5 1420,-1837.5 1420,-1802.5 1178,-1802.5"/>
<text text-anchor="start" x="1184.8549" y="-1815.3" font-family="Arial Bold" font-size="18.00" fill="#000000">campaign_leads</text>
<text text-anchor="start" x="1315.8913" y="-1815.3" font-family="Arial" font-size="14.00" fill="#000000"> </text>
<text text-anchor="start" x="1319.7819" y="-1815.3" font-family="Arial" font-size="14.00" fill="#666666">[BASE TABLE]</text>
<polygon fill="none" stroke="#000000" points="1178,-1772.5 1178,-1802.5 1420,-1802.5 1420,-1772.5 1178,-1772.5"/>
<text text-anchor="start" x="1185" y="-1783.9" font-family="Arial" font-size="14.00" fill="#000000">campaign_id </text>
<text text-anchor="start" x="1268.2426" y="-1783.9" font-family="Arial" font-size="14.00" fill="#666666">[int(10) unsigned]</text>
<polygon fill="none" stroke="#000000" points="1178,-1742.5 1178,-1772.5 1420,-1772.5 1420,-1742.5 1178,-1742.5"/>
<text text-anchor="start" x="1185" y="-1753.9" font-family="Arial" font-size="14.00" fill="#000000">lead_id </text>
<text text-anchor="start" x="1234.0168" y="-1753.9" font-family="Arial" font-size="14.00" fill="#666666">[bigint(20) unsigned]</text>
<polygon fill="none" stroke="#000000" points="1178,-1712.5 1178,-1742.5 1420,-1742.5 1420,-1712.5 1178,-1712.5"/>
<text text-anchor="start" x="1185" y="-1723.9" font-family="Arial" font-size="14.00" fill="#000000">date_added </text>
<text text-anchor="start" x="1262.8246" y="-1723.9" font-family="Arial" font-size="14.00" fill="#666666">[datetime]</text>
<polygon fill="none" stroke="#000000" points="1178,-1682.5 1178,-1712.5 1420,-1712.5 1420,-1682.5 1178,-1682.5"/>
<text text-anchor="start" x="1185" y="-1693.9" font-family="Arial" font-size="14.00" fill="#000000">manually_removed </text>
<text text-anchor="start" x="1307.129" y="-1693.9" font-family="Arial" font-size="14.00" fill="#666666">[tinyint(1)]</text>
<polygon fill="none" stroke="#000000" points="1178,-1652.5 1178,-1682.5 1420,-1682.5 1420,-1652.5 1178,-1652.5"/>
<text text-anchor="start" x="1185" y="-1663.9" font-family="Arial" font-size="14.00" fill="#000000">manually_added </text>
<text text-anchor="start" x="1291.5904" y="-1663.9" font-family="Arial" font-size="14.00" fill="#666666">[tinyint(1)]</text>
<polygon fill="none" stroke="#000000" points="1178,-1622.5 1178,-1652.5 1420,-1652.5 1420,-1622.5 1178,-1622.5"/>
<text text-anchor="start" x="1185" y="-1633.9" font-family="Arial" font-size="14.00" fill="#000000">date_last_exited </text>
<text text-anchor="start" x="1290.819" y="-1633.9" font-family="Arial" font-size="14.00" fill="#666666">[datetime]</text>
<polygon fill="none" stroke="#000000" points="1178,-1592.5 1178,-1622.5 1420,-1622.5 1420,-1592.5 1178,-1592.5"/>
<text text-anchor="start" x="1185" y="-1603.9" font-family="Arial" font-size="14.00" fill="#000000">rotation </text>
<text text-anchor="start" x="1235.5694" y="-1603.9" font-family="Arial" font-size="14.00" fill="#666666">[int(11)]</text>
</g>
<!-- campaign_leads&#45;&gt;campaigns -->
<g id="edge4" class="edge">
<title>campaign_leads:campaign_id&#45;&gt;campaigns:id</title>
<path fill="none" stroke="#000000" d="M1169.0956,-1782.7154C1129.6379,-1737.391 1141.0271,-1384.354 1126,-1340 1103.9998,-1275.064 1115.5616,-1207.5 1047,-1207.5"/>
<polygon fill="#000000" stroke="#000000" points="1169.1911,-1782.7667 1175.87,-1791.464 1173.5956,-1785.1333 1178,-1787.5 1178,-1787.5 1178,-1787.5 1173.5956,-1785.1333 1180.13,-1783.536 1169.1911,-1782.7667 1169.1911,-1782.7667"/>
<text text-anchor="start" x="898.049" y="-1797.5" font-family="Arial" font-size="10.00" fill="#000000">FOREIGN KEY (campaign_id) REFERENCES campaigns (id)</text>
</g>
<!-- campaign_lead_event_log -->
<g id="node6" class="node">
<title>campaign_lead_event_log</title>
<polygon fill="#efefef" stroke="transparent" points="1525,-1907.5 1525,-1942.5 1846,-1942.5 1846,-1907.5 1525,-1907.5"/>
<polygon fill="none" stroke="#000000" points="1525,-1907.5 1525,-1942.5 1846,-1942.5 1846,-1907.5 1525,-1907.5"/>
<text text-anchor="start" x="1531.835" y="-1920.3" font-family="Arial Bold" font-size="18.00" fill="#000000">campaign_lead_event_log</text>
<text text-anchor="start" x="1741.9112" y="-1920.3" font-family="Arial" font-size="14.00" fill="#000000"> </text>
<text text-anchor="start" x="1745.8018" y="-1920.3" font-family="Arial" font-size="14.00" fill="#666666">[BASE TABLE]</text>
<polygon fill="none" stroke="#000000" points="1525,-1877.5 1525,-1907.5 1846,-1907.5 1846,-1877.5 1525,-1877.5"/>
<text text-anchor="start" x="1532" y="-1888.9" font-family="Arial" font-size="14.00" fill="#000000">id </text>
<text text-anchor="start" x="1546.7798" y="-1888.9" font-family="Arial" font-size="14.00" fill="#666666">[bigint(20) unsigned]</text>
<polygon fill="none" stroke="#000000" points="1525,-1847.5 1525,-1877.5 1846,-1877.5 1846,-1847.5 1525,-1847.5"/>
<text text-anchor="start" x="1532" y="-1858.9" font-family="Arial" font-size="14.00" fill="#000000">event_id </text>
<text text-anchor="start" x="1588.8008" y="-1858.9" font-family="Arial" font-size="14.00" fill="#666666">[int(10) unsigned]</text>
<polygon fill="none" stroke="#000000" points="1525,-1817.5 1525,-1847.5 1846,-1847.5 1846,-1817.5 1525,-1817.5"/>
<text text-anchor="start" x="1532" y="-1828.9" font-family="Arial" font-size="14.00" fill="#000000">lead_id </text>
<text text-anchor="start" x="1581.0168" y="-1828.9" font-family="Arial" font-size="14.00" fill="#666666">[bigint(20) unsigned]</text>
<polygon fill="none" stroke="#000000" points="1525,-1787.5 1525,-1817.5 1846,-1817.5 1846,-1787.5 1525,-1787.5"/>
<text text-anchor="start" x="1532" y="-1798.9" font-family="Arial" font-size="14.00" fill="#000000">campaign_id </text>
<text text-anchor="start" x="1615.2426" y="-1798.9" font-family="Arial" font-size="14.00" fill="#666666">[int(10) unsigned]</text>
<polygon fill="none" stroke="#000000" points="1525,-1757.5 1525,-1787.5 1846,-1787.5 1846,-1757.5 1525,-1757.5"/>
<text text-anchor="start" x="1532" y="-1768.9" font-family="Arial" font-size="14.00" fill="#000000">ip_id </text>
<text text-anchor="start" x="1565.4516" y="-1768.9" font-family="Arial" font-size="14.00" fill="#666666">[int(10) unsigned]</text>
<polygon fill="none" stroke="#000000" points="1525,-1727.5 1525,-1757.5 1846,-1757.5 1846,-1727.5 1525,-1727.5"/>
<text text-anchor="start" x="1532" y="-1738.9" font-family="Arial" font-size="14.00" fill="#000000">rotation </text>
<text text-anchor="start" x="1582.5694" y="-1738.9" font-family="Arial" font-size="14.00" fill="#666666">[int(11)]</text>
<polygon fill="none" stroke="#000000" points="1525,-1697.5 1525,-1727.5 1846,-1727.5 1846,-1697.5 1525,-1697.5"/>
<text text-anchor="start" x="1532" y="-1708.9" font-family="Arial" font-size="14.00" fill="#000000">date_triggered </text>
<text text-anchor="start" x="1626.143" y="-1708.9" font-family="Arial" font-size="14.00" fill="#666666">[datetime]</text>
<polygon fill="none" stroke="#000000" points="1525,-1667.5 1525,-1697.5 1846,-1697.5 1846,-1667.5 1525,-1667.5"/>
<text text-anchor="start" x="1532" y="-1678.9" font-family="Arial" font-size="14.00" fill="#000000">is_scheduled </text>
<text text-anchor="start" x="1617.582" y="-1678.9" font-family="Arial" font-size="14.00" fill="#666666">[tinyint(1)]</text>
<polygon fill="none" stroke="#000000" points="1525,-1637.5 1525,-1667.5 1846,-1667.5 1846,-1637.5 1525,-1637.5"/>
<text text-anchor="start" x="1532" y="-1648.9" font-family="Arial" font-size="14.00" fill="#000000">trigger_date </text>
<text text-anchor="start" x="1610.5778" y="-1648.9" font-family="Arial" font-size="14.00" fill="#666666">[datetime]</text>
<polygon fill="none" stroke="#000000" points="1525,-1607.5 1525,-1637.5 1846,-1637.5 1846,-1607.5 1525,-1607.5"/>
<text text-anchor="start" x="1532" y="-1618.9" font-family="Arial" font-size="14.00" fill="#000000">system_triggered </text>
<text text-anchor="start" x="1643.2384" y="-1618.9" font-family="Arial" font-size="14.00" fill="#666666">[tinyint(1)]</text>
<polygon fill="none" stroke="#000000" points="1525,-1577.5 1525,-1607.5 1846,-1607.5 1846,-1577.5 1525,-1577.5"/>
<text text-anchor="start" x="1532" y="-1588.9" font-family="Arial" font-size="14.00" fill="#000000">metadata </text>
<text text-anchor="start" x="1594.2454" y="-1588.9" font-family="Arial" font-size="14.00" fill="#666666">[longtext]</text>
<polygon fill="none" stroke="#000000" points="1525,-1547.5 1525,-1577.5 1846,-1577.5 1846,-1547.5 1525,-1547.5"/>
<text text-anchor="start" x="1532" y="-1558.9" font-family="Arial" font-size="14.00" fill="#000000">channel </text>
<text text-anchor="start" x="1584.9102" y="-1558.9" font-family="Arial" font-size="14.00" fill="#666666">[varchar(191)]</text>
<polygon fill="none" stroke="#000000" points="1525,-1517.5 1525,-1547.5 1846,-1547.5 1846,-1517.5 1525,-1517.5"/>
<text text-anchor="start" x="1532" y="-1528.9" font-family="Arial" font-size="14.00" fill="#000000">channel_id </text>
<text text-anchor="start" x="1603.582" y="-1528.9" font-family="Arial" font-size="14.00" fill="#666666">[int(11)]</text>
<polygon fill="none" stroke="#000000" points="1525,-1487.5 1525,-1517.5 1846,-1517.5 1846,-1487.5 1525,-1487.5"/>
<text text-anchor="start" x="1532" y="-1498.9" font-family="Arial" font-size="14.00" fill="#000000">non_action_path_taken </text>
<text text-anchor="start" x="1681.408" y="-1498.9" font-family="Arial" font-size="14.00" fill="#666666">[tinyint(1)]</text>
</g>
<!-- campaign_lead_event_log&#45;&gt;campaigns -->
<g id="edge5" class="edge">
<title>campaign_lead_event_log:campaign_id&#45;&gt;campaigns:id</title>
<path fill="none" stroke="#000000" d="M1514.8869,-1801.1104C1429.5091,-1775.9588 1535.638,-1416.8956 1472,-1340 1408.9266,-1263.7867 1145.9279,-1207.5 1047,-1207.5"/>
<polygon fill="#000000" stroke="#000000" points="1515.0931,-1801.1387 1524.3874,-1806.9581 1520.0465,-1801.8193 1525,-1802.5 1525,-1802.5 1525,-1802.5 1520.0465,-1801.8193 1525.6126,-1798.0419 1515.0931,-1801.1387 1515.0931,-1801.1387"/>
<text text-anchor="start" x="1532.049" y="-1812.5" font-family="Arial" font-size="10.00" fill="#000000">FOREIGN KEY (campaign_id) REFERENCES campaigns (id)</text>
</g>
</g>
</svg>
