<?xml version="1.0" encoding="UTF-8" standalone="no"?>
<!DOCTYPE svg PUBLIC "-//W3C//DTD SVG 1.1//EN"
 "http://www.w3.org/Graphics/SVG/1.1/DTD/svg11.dtd">
<!-- Generated by graphviz version 2.40.1 (20161225.0304)
 -->
<!-- Title: campaign_form_xref Pages: 1 -->
<svg width="811pt" height="1162pt"
 viewBox="0.00 0.00 811.00 1162.00" xmlns="http://www.w3.org/2000/svg" xmlns:xlink="http://www.w3.org/1999/xlink">
<g id="graph0" class="graph" transform="scale(1 1) rotate(0) translate(4 1158)">
<title>campaign_form_xref</title>
<polygon fill="#ffffff" stroke="transparent" points="-4,4 -4,-1158 807,-1158 807,4 -4,4"/>
<!-- campaign_form_xref -->
<g id="node1" class="node">
<title>campaign_form_xref</title>
<polygon fill="#efefef" stroke="transparent" points="287,-1072.5 287,-1107.5 562,-1107.5 562,-1072.5 287,-1072.5"/>
<polygon fill="none" stroke="#000000" points="287,-1072.5 287,-1107.5 562,-1107.5 562,-1072.5 287,-1072.5"/>
<text text-anchor="start" x="293.8615" y="-1085.3" font-family="Arial Bold" font-size="18.00" fill="#000000">campaign_form_xref</text>
<text text-anchor="start" x="457.8847" y="-1085.3" font-family="Arial" font-size="14.00" fill="#000000"> </text>
<text text-anchor="start" x="461.7753" y="-1085.3" font-family="Arial" font-size="14.00" fill="#666666">[BASE TABLE]</text>
<polygon fill="none" stroke="#000000" points="287,-1042.5 287,-1072.5 562,-1072.5 562,-1042.5 287,-1042.5"/>
<text text-anchor="start" x="294" y="-1053.9" font-family="Arial" font-size="14.00" fill="#000000">campaign_id </text>
<text text-anchor="start" x="377.2426" y="-1053.9" font-family="Arial" font-size="14.00" fill="#666666">[int(10) unsigned]</text>
<polygon fill="none" stroke="#000000" points="287,-1012.5 287,-1042.5 562,-1042.5 562,-1012.5 287,-1012.5"/>
<text text-anchor="start" x="294" y="-1023.9" font-family="Arial" font-size="14.00" fill="#000000">form_id </text>
<text text-anchor="start" x="344.5568" y="-1023.9" font-family="Arial" font-size="14.00" fill="#666666">[int(10) unsigned]</text>
<polygon fill="none" stroke="#000000" stroke-width="3" points="285,-1011.5 285,-1109.5 563,-1109.5 563,-1011.5 285,-1011.5"/>
</g>
<!-- campaigns -->
<g id="node2" class="node">
<title>campaigns</title>
<polygon fill="#efefef" stroke="transparent" points="132,-717.5 132,-752.5 373,-752.5 373,-717.5 132,-717.5"/>
<polygon fill="none" stroke="#000000" points="132,-717.5 132,-752.5 373,-752.5 373,-717.5 132,-717.5"/>
<text text-anchor="start" x="160.3644" y="-730.3" font-family="Arial Bold" font-size="18.00" fill="#000000">campaigns</text>
<text text-anchor="start" x="247.3818" y="-730.3" font-family="Arial" font-size="14.00" fill="#000000"> </text>
<text text-anchor="start" x="251.2724" y="-730.3" font-family="Arial" font-size="14.00" fill="#666666">[BASE TABLE]</text>
<polygon fill="none" stroke="#000000" points="132,-687.5 132,-717.5 373,-717.5 373,-687.5 132,-687.5"/>
<text text-anchor="start" x="139" y="-698.9" font-family="Arial" font-size="14.00" fill="#000000">id </text>
<text text-anchor="start" x="153.7798" y="-698.9" font-family="Arial" font-size="14.00" fill="#666666">[int(10) unsigned]</text>
<polygon fill="none" stroke="#000000" points="132,-657.5 132,-687.5 373,-687.5 373,-657.5 132,-657.5"/>
<text text-anchor="start" x="139" y="-668.9" font-family="Arial" font-size="14.00" fill="#000000">category_id </text>
<text text-anchor="start" x="215.244" y="-668.9" font-family="Arial" font-size="14.00" fill="#666666">[int(10) unsigned]</text>
<polygon fill="none" stroke="#000000" points="132,-627.5 132,-657.5 373,-657.5 373,-627.5 132,-627.5"/>
<text text-anchor="start" x="139" y="-638.9" font-family="Arial" font-size="14.00" fill="#000000">is_published </text>
<text text-anchor="start" x="220.6886" y="-638.9" font-family="Arial" font-size="14.00" fill="#666666">[tinyint(1)]</text>
<polygon fill="none" stroke="#000000" points="132,-597.5 132,-627.5 373,-627.5 373,-597.5 132,-597.5"/>
<text text-anchor="start" x="139" y="-608.9" font-family="Arial" font-size="14.00" fill="#000000">date_added </text>
<text text-anchor="start" x="216.8246" y="-608.9" font-family="Arial" font-size="14.00" fill="#666666">[datetime]</text>
<polygon fill="none" stroke="#000000" points="132,-567.5 132,-597.5 373,-597.5 373,-567.5 132,-567.5"/>
<text text-anchor="start" x="139" y="-578.9" font-family="Arial" font-size="14.00" fill="#000000">created_by </text>
<text text-anchor="start" x="212.1374" y="-578.9" font-family="Arial" font-size="14.00" fill="#666666">[int(11)]</text>
<polygon fill="none" stroke="#000000" points="132,-537.5 132,-567.5 373,-567.5 373,-537.5 132,-537.5"/>
<text text-anchor="start" x="139" y="-548.9" font-family="Arial" font-size="14.00" fill="#000000">created_by_user </text>
<text text-anchor="start" x="247.1458" y="-548.9" font-family="Arial" font-size="14.00" fill="#666666">[varchar(191)]</text>
<polygon fill="none" stroke="#000000" points="132,-507.5 132,-537.5 373,-537.5 373,-507.5 132,-507.5"/>
<text text-anchor="start" x="139" y="-518.9" font-family="Arial" font-size="14.00" fill="#000000">date_modified </text>
<text text-anchor="start" x="230.8064" y="-518.9" font-family="Arial" font-size="14.00" fill="#666666">[datetime]</text>
<polygon fill="none" stroke="#000000" points="132,-477.5 132,-507.5 373,-507.5 373,-477.5 132,-477.5"/>
<text text-anchor="start" x="139" y="-488.9" font-family="Arial" font-size="14.00" fill="#000000">modified_by </text>
<text text-anchor="start" x="218.3506" y="-488.9" font-family="Arial" font-size="14.00" fill="#666666">[int(11)]</text>
<polygon fill="none" stroke="#000000" points="132,-447.5 132,-477.5 373,-477.5 373,-447.5 132,-447.5"/>
<text text-anchor="start" x="139" y="-458.9" font-family="Arial" font-size="14.00" fill="#000000">modified_by_user </text>
<text text-anchor="start" x="253.359" y="-458.9" font-family="Arial" font-size="14.00" fill="#666666">[varchar(191)]</text>
<polygon fill="none" stroke="#000000" points="132,-417.5 132,-447.5 373,-447.5 373,-417.5 132,-417.5"/>
<text text-anchor="start" x="139" y="-428.9" font-family="Arial" font-size="14.00" fill="#000000">checked_out </text>
<text text-anchor="start" x="222.2594" y="-428.9" font-family="Arial" font-size="14.00" fill="#666666">[datetime]</text>
<polygon fill="none" stroke="#000000" points="132,-387.5 132,-417.5 373,-417.5 373,-387.5 132,-387.5"/>
<text text-anchor="start" x="139" y="-398.9" font-family="Arial" font-size="14.00" fill="#000000">checked_out_by </text>
<text text-anchor="start" x="244.8246" y="-398.9" font-family="Arial" font-size="14.00" fill="#666666">[int(11)]</text>
<polygon fill="none" stroke="#000000" points="132,-357.5 132,-387.5 373,-387.5 373,-357.5 132,-357.5"/>
<text text-anchor="start" x="138.5239" y="-368.9" font-family="Arial" font-size="14.00" fill="#000000">checked_out_by_user </text>
<text text-anchor="start" x="279.3569" y="-368.9" font-family="Arial" font-size="14.00" fill="#666666">[varchar(191)]</text>
<polygon fill="none" stroke="#000000" points="132,-327.5 132,-357.5 373,-357.5 373,-327.5 132,-327.5"/>
<text text-anchor="start" x="139" y="-338.9" font-family="Arial" font-size="14.00" fill="#000000">name </text>
<text text-anchor="start" x="177.899" y="-338.9" font-family="Arial" font-size="14.00" fill="#666666">[varchar(191)]</text>
<polygon fill="none" stroke="#000000" points="132,-297.5 132,-327.5 373,-327.5 373,-297.5 132,-297.5"/>
<text text-anchor="start" x="139" y="-308.9" font-family="Arial" font-size="14.00" fill="#000000">description </text>
<text text-anchor="start" x="210.568" y="-308.9" font-family="Arial" font-size="14.00" fill="#666666">[longtext]</text>
<polygon fill="none" stroke="#000000" points="132,-267.5 132,-297.5 373,-297.5 373,-267.5 132,-267.5"/>
<text text-anchor="start" x="139" y="-278.9" font-family="Arial" font-size="14.00" fill="#000000">publish_up </text>
<text text-anchor="start" x="210.582" y="-278.9" font-family="Arial" font-size="14.00" fill="#666666">[datetime]</text>
<polygon fill="none" stroke="#000000" points="132,-237.5 132,-267.5 373,-267.5 373,-237.5 132,-237.5"/>
<text text-anchor="start" x="139" y="-248.9" font-family="Arial" font-size="14.00" fill="#000000">publish_down </text>
<text text-anchor="start" x="228.4712" y="-248.9" font-family="Arial" font-size="14.00" fill="#666666">[datetime]</text>
<polygon fill="none" stroke="#000000" points="132,-207.5 132,-237.5 373,-237.5 373,-207.5 132,-207.5"/>
<text text-anchor="start" x="139" y="-218.9" font-family="Arial" font-size="14.00" fill="#000000">canvas_settings </text>
<text text-anchor="start" x="243.2566" y="-218.9" font-family="Arial" font-size="14.00" fill="#666666">[longtext]</text>
<polygon fill="none" stroke="#000000" points="132,-177.5 132,-207.5 373,-207.5 373,-177.5 132,-177.5"/>
<text text-anchor="start" x="139" y="-188.9" font-family="Arial" font-size="14.00" fill="#000000">allow_restart </text>
<text text-anchor="start" x="222.2258" y="-188.9" font-family="Arial" font-size="14.00" fill="#666666">[int(11)]</text>
</g>
<!-- campaign_form_xref&#45;&gt;campaigns -->
<g id="edge1" class="edge">
<title>campaign_form_xref:campaign_id&#45;&gt;campaigns:id</title>
<path fill="none" stroke="#000000" d="M276.9152,-1056.9708C142.8181,-1041.7318 531.6952,-702.5 373,-702.5"/>
<polygon fill="#000000" stroke="#000000" points="277.0137,-1056.9758 286.7641,-1061.9938 282.0069,-1057.2379 287,-1057.5 287,-1057.5 287,-1057.5 282.0069,-1057.2379 287.2359,-1053.0062 277.0137,-1056.9758 277.0137,-1056.9758"/>
<text text-anchor="start" x="7.049" y="-1067.5" font-family="Arial" font-size="10.00" fill="#000000">FOREIGN KEY (campaign_id) REFERENCES campaigns (id)</text>
</g>
<!-- forms -->
<g id="node3" class="node">
<title>forms</title>
<polygon fill="#efefef" stroke="transparent" points="477,-852.5 477,-887.5 718,-887.5 718,-852.5 477,-852.5"/>
<polygon fill="none" stroke="#000000" points="477,-852.5 477,-887.5 718,-887.5 718,-852.5 477,-852.5"/>
<text text-anchor="start" x="526.3767" y="-865.3" font-family="Arial Bold" font-size="18.00" fill="#000000">forms</text>
<text text-anchor="start" x="571.3695" y="-865.3" font-family="Arial" font-size="14.00" fill="#000000"> </text>
<text text-anchor="start" x="575.2601" y="-865.3" font-family="Arial" font-size="14.00" fill="#666666">[BASE TABLE]</text>
<polygon fill="none" stroke="#000000" points="477,-822.5 477,-852.5 718,-852.5 718,-822.5 477,-822.5"/>
<text text-anchor="start" x="484" y="-833.9" font-family="Arial" font-size="14.00" fill="#000000">id </text>
<text text-anchor="start" x="498.7798" y="-833.9" font-family="Arial" font-size="14.00" fill="#666666">[int(10) unsigned]</text>
<polygon fill="none" stroke="#000000" points="477,-792.5 477,-822.5 718,-822.5 718,-792.5 477,-792.5"/>
<text text-anchor="start" x="484" y="-803.9" font-family="Arial" font-size="14.00" fill="#000000">category_id </text>
<text text-anchor="start" x="560.244" y="-803.9" font-family="Arial" font-size="14.00" fill="#666666">[int(10) unsigned]</text>
<polygon fill="none" stroke="#000000" points="477,-762.5 477,-792.5 718,-792.5 718,-762.5 477,-762.5"/>
<text text-anchor="start" x="484" y="-773.9" font-family="Arial" font-size="14.00" fill="#000000">is_published </text>
<text text-anchor="start" x="565.6886" y="-773.9" font-family="Arial" font-size="14.00" fill="#666666">[tinyint(1)]</text>
<polygon fill="none" stroke="#000000" points="477,-732.5 477,-762.5 718,-762.5 718,-732.5 477,-732.5"/>
<text text-anchor="start" x="484" y="-743.9" font-family="Arial" font-size="14.00" fill="#000000">date_added </text>
<text text-anchor="start" x="561.8246" y="-743.9" font-family="Arial" font-size="14.00" fill="#666666">[datetime]</text>
<polygon fill="none" stroke="#000000" points="477,-702.5 477,-732.5 718,-732.5 718,-702.5 477,-702.5"/>
<text text-anchor="start" x="484" y="-713.9" font-family="Arial" font-size="14.00" fill="#000000">created_by </text>
<text text-anchor="start" x="557.1374" y="-713.9" font-family="Arial" font-size="14.00" fill="#666666">[int(11)]</text>
<polygon fill="none" stroke="#000000" points="477,-672.5 477,-702.5 718,-702.5 718,-672.5 477,-672.5"/>
<text text-anchor="start" x="484" y="-683.9" font-family="Arial" font-size="14.00" fill="#000000">created_by_user </text>
<text text-anchor="start" x="592.1458" y="-683.9" font-family="Arial" font-size="14.00" fill="#666666">[varchar(191)]</text>
<polygon fill="none" stroke="#000000" points="477,-642.5 477,-672.5 718,-672.5 718,-642.5 477,-642.5"/>
<text text-anchor="start" x="484" y="-653.9" font-family="Arial" font-size="14.00" fill="#000000">date_modified </text>
<text text-anchor="start" x="575.8064" y="-653.9" font-family="Arial" font-size="14.00" fill="#666666">[datetime]</text>
<polygon fill="none" stroke="#000000" points="477,-612.5 477,-642.5 718,-642.5 718,-612.5 477,-612.5"/>
<text text-anchor="start" x="484" y="-623.9" font-family="Arial" font-size="14.00" fill="#000000">modified_by </text>
<text text-anchor="start" x="563.3506" y="-623.9" font-family="Arial" font-size="14.00" fill="#666666">[int(11)]</text>
<polygon fill="none" stroke="#000000" points="477,-582.5 477,-612.5 718,-612.5 718,-582.5 477,-582.5"/>
<text text-anchor="start" x="484" y="-593.9" font-family="Arial" font-size="14.00" fill="#000000">modified_by_user </text>
<text text-anchor="start" x="598.359" y="-593.9" font-family="Arial" font-size="14.00" fill="#666666">[varchar(191)]</text>
<polygon fill="none" stroke="#000000" points="477,-552.5 477,-582.5 718,-582.5 718,-552.5 477,-552.5"/>
<text text-anchor="start" x="484" y="-563.9" font-family="Arial" font-size="14.00" fill="#000000">checked_out </text>
<text text-anchor="start" x="567.2594" y="-563.9" font-family="Arial" font-size="14.00" fill="#666666">[datetime]</text>
<polygon fill="none" stroke="#000000" points="477,-522.5 477,-552.5 718,-552.5 718,-522.5 477,-522.5"/>
<text text-anchor="start" x="484" y="-533.9" font-family="Arial" font-size="14.00" fill="#000000">checked_out_by </text>
<text text-anchor="start" x="589.8246" y="-533.9" font-family="Arial" font-size="14.00" fill="#666666">[int(11)]</text>
<polygon fill="none" stroke="#000000" points="477,-492.5 477,-522.5 718,-522.5 718,-492.5 477,-492.5"/>
<text text-anchor="start" x="483.5239" y="-503.9" font-family="Arial" font-size="14.00" fill="#000000">checked_out_by_user </text>
<text text-anchor="start" x="624.3569" y="-503.9" font-family="Arial" font-size="14.00" fill="#666666">[varchar(191)]</text>
<polygon fill="none" stroke="#000000" points="477,-462.5 477,-492.5 718,-492.5 718,-462.5 477,-462.5"/>
<text text-anchor="start" x="484" y="-473.9" font-family="Arial" font-size="14.00" fill="#000000">name </text>
<text text-anchor="start" x="522.899" y="-473.9" font-family="Arial" font-size="14.00" fill="#666666">[varchar(191)]</text>
<polygon fill="none" stroke="#000000" points="477,-432.5 477,-462.5 718,-462.5 718,-432.5 477,-432.5"/>
<text text-anchor="start" x="484" y="-443.9" font-family="Arial" font-size="14.00" fill="#000000">description </text>
<text text-anchor="start" x="555.568" y="-443.9" font-family="Arial" font-size="14.00" fill="#666666">[longtext]</text>
<polygon fill="none" stroke="#000000" points="477,-402.5 477,-432.5 718,-432.5 718,-402.5 477,-402.5"/>
<text text-anchor="start" x="484" y="-413.9" font-family="Arial" font-size="14.00" fill="#000000">alias </text>
<text text-anchor="start" x="516.669" y="-413.9" font-family="Arial" font-size="14.00" fill="#666666">[varchar(191)]</text>
<polygon fill="none" stroke="#000000" points="477,-372.5 477,-402.5 718,-402.5 718,-372.5 477,-372.5"/>
<text text-anchor="start" x="484" y="-383.9" font-family="Arial" font-size="14.00" fill="#000000">form_attr </text>
<text text-anchor="start" x="543.892" y="-383.9" font-family="Arial" font-size="14.00" fill="#666666">[varchar(191)]</text>
<polygon fill="none" stroke="#000000" points="477,-342.5 477,-372.5 718,-372.5 718,-342.5 477,-342.5"/>
<text text-anchor="start" x="484" y="-353.9" font-family="Arial" font-size="14.00" fill="#000000">cached_html </text>
<text text-anchor="start" x="567.244" y="-353.9" font-family="Arial" font-size="14.00" fill="#666666">[longtext]</text>
<polygon fill="none" stroke="#000000" points="477,-312.5 477,-342.5 718,-342.5 718,-312.5 477,-312.5"/>
<text text-anchor="start" x="484" y="-323.9" font-family="Arial" font-size="14.00" fill="#000000">post_action </text>
<text text-anchor="start" x="559.474" y="-323.9" font-family="Arial" font-size="14.00" fill="#666666">[varchar(191)]</text>
<polygon fill="none" stroke="#000000" points="477,-282.5 477,-312.5 718,-312.5 718,-282.5 477,-282.5"/>
<text text-anchor="start" x="484" y="-293.9" font-family="Arial" font-size="14.00" fill="#000000">post_action_property </text>
<text text-anchor="start" x="618.5988" y="-293.9" font-family="Arial" font-size="14.00" fill="#666666">[varchar(191)]</text>
<polygon fill="none" stroke="#000000" points="477,-252.5 477,-282.5 718,-282.5 718,-252.5 477,-252.5"/>
<text text-anchor="start" x="484" y="-263.9" font-family="Arial" font-size="14.00" fill="#000000">publish_up </text>
<text text-anchor="start" x="555.582" y="-263.9" font-family="Arial" font-size="14.00" fill="#666666">[datetime]</text>
<polygon fill="none" stroke="#000000" points="477,-222.5 477,-252.5 718,-252.5 718,-222.5 477,-222.5"/>
<text text-anchor="start" x="484" y="-233.9" font-family="Arial" font-size="14.00" fill="#000000">publish_down </text>
<text text-anchor="start" x="573.4712" y="-233.9" font-family="Arial" font-size="14.00" fill="#666666">[datetime]</text>
<polygon fill="none" stroke="#000000" points="477,-192.5 477,-222.5 718,-222.5 718,-192.5 477,-192.5"/>
<text text-anchor="start" x="484" y="-203.9" font-family="Arial" font-size="14.00" fill="#000000">template </text>
<text text-anchor="start" x="541.5694" y="-203.9" font-family="Arial" font-size="14.00" fill="#666666">[varchar(191)]</text>
<polygon fill="none" stroke="#000000" points="477,-162.5 477,-192.5 718,-192.5 718,-162.5 477,-162.5"/>
<text text-anchor="start" x="484" y="-173.9" font-family="Arial" font-size="14.00" fill="#000000">in_kiosk_mode </text>
<text text-anchor="start" x="581.2426" y="-173.9" font-family="Arial" font-size="14.00" fill="#666666">[tinyint(1)]</text>
<polygon fill="none" stroke="#000000" points="477,-132.5 477,-162.5 718,-162.5 718,-132.5 477,-132.5"/>
<text text-anchor="start" x="484" y="-143.9" font-family="Arial" font-size="14.00" fill="#000000">render_style </text>
<text text-anchor="start" x="564.9046" y="-143.9" font-family="Arial" font-size="14.00" fill="#666666">[tinyint(1)]</text>
<polygon fill="none" stroke="#000000" points="477,-102.5 477,-132.5 718,-132.5 718,-102.5 477,-102.5"/>
<text text-anchor="start" x="484" y="-113.9" font-family="Arial" font-size="14.00" fill="#000000">form_type </text>
<text text-anchor="start" x="550.1234" y="-113.9" font-family="Arial" font-size="14.00" fill="#666666">[varchar(191)]</text>
<polygon fill="none" stroke="#000000" points="477,-72.5 477,-102.5 718,-102.5 718,-72.5 477,-72.5"/>
<text text-anchor="start" x="484" y="-83.9" font-family="Arial" font-size="14.00" fill="#000000">no_index </text>
<text text-anchor="start" x="544.6928" y="-83.9" font-family="Arial" font-size="14.00" fill="#666666">[tinyint(1)]</text>
<polygon fill="none" stroke="#000000" points="477,-42.5 477,-72.5 718,-72.5 718,-42.5 477,-42.5"/>
<text text-anchor="start" x="484" y="-53.9" font-family="Arial" font-size="14.00" fill="#000000">progressive_profiling_limit </text>
<text text-anchor="start" x="649.669" y="-53.9" font-family="Arial" font-size="14.00" fill="#666666">[int(11)]</text>
</g>
<!-- campaign_form_xref&#45;&gt;forms -->
<g id="edge2" class="edge">
<title>campaign_form_xref:form_id&#45;&gt;forms:id</title>
<path fill="none" stroke="#000000" d="M571.8908,-1024.9157C585.0581,-1015.9814 574.5296,-985.9138 562,-967 539.3423,-932.7978 499.6577,-965.2022 477,-931 454.0501,-896.3566 435.4444,-837.5 477,-837.5"/>
<polygon fill="#000000" stroke="#000000" points="571.6752,-1024.972 560.8624,-1023.1462 566.8376,-1026.236 562,-1027.5 562,-1027.5 562,-1027.5 566.8376,-1026.236 563.1376,-1031.8538 571.6752,-1024.972 571.6752,-1024.972"/>
<text text-anchor="start" x="569.396" y="-1037.5" font-family="Arial" font-size="10.00" fill="#000000">FOREIGN KEY (form_id) REFERENCES forms (id)</text>
</g>
</g>
</svg>
