<?xml version="1.0" encoding="UTF-8" standalone="no"?>
<!DOCTYPE svg PUBLIC "-//W3C//DTD SVG 1.1//EN"
 "http://www.w3.org/Graphics/SVG/1.1/DTD/svg11.dtd">
<!-- Generated by graphviz version 2.40.1 (20161225.0304)
 -->
<!-- Title: campaign_lead_event_failed_log Pages: 1 -->
<svg width="754pt" height="802pt"
 viewBox="0.00 0.00 754.00 802.00" xmlns="http://www.w3.org/2000/svg" xmlns:xlink="http://www.w3.org/1999/xlink">
<g id="graph0" class="graph" transform="scale(1 1) rotate(0) translate(4 798)">
<title>campaign_lead_event_failed_log</title>
<polygon fill="#ffffff" stroke="transparent" points="-4,4 -4,-798 750,-798 750,4 -4,4"/>
<!-- campaign_lead_event_failed_log -->
<g id="node1" class="node">
<title>campaign_lead_event_failed_log</title>
<polygon fill="#efefef" stroke="transparent" points="326,-712.5 326,-747.5 700,-747.5 700,-712.5 326,-712.5"/>
<polygon fill="none" stroke="#000000" points="326,-712.5 326,-747.5 700,-747.5 700,-712.5 326,-712.5"/>
<text text-anchor="start" x="332.8273" y="-725.3" font-family="Arial Bold" font-size="18.00" fill="#000000">campaign_lead_event_failed_log</text>
<text text-anchor="start" x="595.9189" y="-725.3" font-family="Arial" font-size="14.00" fill="#000000"> </text>
<text text-anchor="start" x="599.8095" y="-725.3" font-family="Arial" font-size="14.00" fill="#666666">[BASE TABLE]</text>
<polygon fill="none" stroke="#000000" points="326,-682.5 326,-712.5 700,-712.5 700,-682.5 326,-682.5"/>
<text text-anchor="start" x="333" y="-693.9" font-family="Arial" font-size="14.00" fill="#000000">log_id </text>
<text text-anchor="start" x="374.2342" y="-693.9" font-family="Arial" font-size="14.00" fill="#666666">[bigint(20) unsigned]</text>
<polygon fill="none" stroke="#000000" points="326,-652.5 326,-682.5 700,-682.5 700,-652.5 326,-652.5"/>
<text text-anchor="start" x="333" y="-663.9" font-family="Arial" font-size="14.00" fill="#000000">date_added </text>
<text text-anchor="start" x="410.8246" y="-663.9" font-family="Arial" font-size="14.00" fill="#666666">[datetime]</text>
<polygon fill="none" stroke="#000000" points="326,-622.5 326,-652.5 700,-652.5 700,-622.5 326,-622.5"/>
<text text-anchor="start" x="333" y="-633.9" font-family="Arial" font-size="14.00" fill="#000000">reason </text>
<text text-anchor="start" x="379.6816" y="-633.9" font-family="Arial" font-size="14.00" fill="#666666">[longtext]</text>
<polygon fill="none" stroke="#000000" stroke-width="3" points="324.5,-621.5 324.5,-749.5 701.5,-749.5 701.5,-621.5 324.5,-621.5"/>
</g>
<!-- campaign_lead_event_log -->
<g id="node2" class="node">
<title>campaign_lead_event_log</title>
<polygon fill="#efefef" stroke="transparent" points="352,-462.5 352,-497.5 673,-497.5 673,-462.5 352,-462.5"/>
<polygon fill="none" stroke="#000000" points="352,-462.5 352,-497.5 673,-497.5 673,-462.5 352,-462.5"/>
<text text-anchor="start" x="358.835" y="-475.3" font-family="Arial Bold" font-size="18.00" fill="#000000">campaign_lead_event_log</text>
<text text-anchor="start" x="568.9112" y="-475.3" font-family="Arial" font-size="14.00" fill="#000000"> </text>
<text text-anchor="start" x="572.8018" y="-475.3" font-family="Arial" font-size="14.00" fill="#666666">[BASE TABLE]</text>
<polygon fill="none" stroke="#000000" points="352,-432.5 352,-462.5 673,-462.5 673,-432.5 352,-432.5"/>
<text text-anchor="start" x="359" y="-443.9" font-family="Arial" font-size="14.00" fill="#000000">id </text>
<text text-anchor="start" x="373.7798" y="-443.9" font-family="Arial" font-size="14.00" fill="#666666">[bigint(20) unsigned]</text>
<polygon fill="none" stroke="#000000" points="352,-402.5 352,-432.5 673,-432.5 673,-402.5 352,-402.5"/>
<text text-anchor="start" x="359" y="-413.9" font-family="Arial" font-size="14.00" fill="#000000">event_id </text>
<text text-anchor="start" x="415.8008" y="-413.9" font-family="Arial" font-size="14.00" fill="#666666">[int(10) unsigned]</text>
<polygon fill="none" stroke="#000000" points="352,-372.5 352,-402.5 673,-402.5 673,-372.5 352,-372.5"/>
<text text-anchor="start" x="359" y="-383.9" font-family="Arial" font-size="14.00" fill="#000000">lead_id </text>
<text text-anchor="start" x="408.0168" y="-383.9" font-family="Arial" font-size="14.00" fill="#666666">[bigint(20) unsigned]</text>
<polygon fill="none" stroke="#000000" points="352,-342.5 352,-372.5 673,-372.5 673,-342.5 352,-342.5"/>
<text text-anchor="start" x="359" y="-353.9" font-family="Arial" font-size="14.00" fill="#000000">campaign_id </text>
<text text-anchor="start" x="442.2426" y="-353.9" font-family="Arial" font-size="14.00" fill="#666666">[int(10) unsigned]</text>
<polygon fill="none" stroke="#000000" points="352,-312.5 352,-342.5 673,-342.5 673,-312.5 352,-312.5"/>
<text text-anchor="start" x="359" y="-323.9" font-family="Arial" font-size="14.00" fill="#000000">ip_id </text>
<text text-anchor="start" x="392.4516" y="-323.9" font-family="Arial" font-size="14.00" fill="#666666">[int(10) unsigned]</text>
<polygon fill="none" stroke="#000000" points="352,-282.5 352,-312.5 673,-312.5 673,-282.5 352,-282.5"/>
<text text-anchor="start" x="359" y="-293.9" font-family="Arial" font-size="14.00" fill="#000000">rotation </text>
<text text-anchor="start" x="409.5694" y="-293.9" font-family="Arial" font-size="14.00" fill="#666666">[int(11)]</text>
<polygon fill="none" stroke="#000000" points="352,-252.5 352,-282.5 673,-282.5 673,-252.5 352,-252.5"/>
<text text-anchor="start" x="359" y="-263.9" font-family="Arial" font-size="14.00" fill="#000000">date_triggered </text>
<text text-anchor="start" x="453.143" y="-263.9" font-family="Arial" font-size="14.00" fill="#666666">[datetime]</text>
<polygon fill="none" stroke="#000000" points="352,-222.5 352,-252.5 673,-252.5 673,-222.5 352,-222.5"/>
<text text-anchor="start" x="359" y="-233.9" font-family="Arial" font-size="14.00" fill="#000000">is_scheduled </text>
<text text-anchor="start" x="444.582" y="-233.9" font-family="Arial" font-size="14.00" fill="#666666">[tinyint(1)]</text>
<polygon fill="none" stroke="#000000" points="352,-192.5 352,-222.5 673,-222.5 673,-192.5 352,-192.5"/>
<text text-anchor="start" x="359" y="-203.9" font-family="Arial" font-size="14.00" fill="#000000">trigger_date </text>
<text text-anchor="start" x="437.5778" y="-203.9" font-family="Arial" font-size="14.00" fill="#666666">[datetime]</text>
<polygon fill="none" stroke="#000000" points="352,-162.5 352,-192.5 673,-192.5 673,-162.5 352,-162.5"/>
<text text-anchor="start" x="359" y="-173.9" font-family="Arial" font-size="14.00" fill="#000000">system_triggered </text>
<text text-anchor="start" x="470.2384" y="-173.9" font-family="Arial" font-size="14.00" fill="#666666">[tinyint(1)]</text>
<polygon fill="none" stroke="#000000" points="352,-132.5 352,-162.5 673,-162.5 673,-132.5 352,-132.5"/>
<text text-anchor="start" x="359" y="-143.9" font-family="Arial" font-size="14.00" fill="#000000">metadata </text>
<text text-anchor="start" x="421.2454" y="-143.9" font-family="Arial" font-size="14.00" fill="#666666">[longtext]</text>
<polygon fill="none" stroke="#000000" points="352,-102.5 352,-132.5 673,-132.5 673,-102.5 352,-102.5"/>
<text text-anchor="start" x="359" y="-113.9" font-family="Arial" font-size="14.00" fill="#000000">channel </text>
<text text-anchor="start" x="411.9102" y="-113.9" font-family="Arial" font-size="14.00" fill="#666666">[varchar(191)]</text>
<polygon fill="none" stroke="#000000" points="352,-72.5 352,-102.5 673,-102.5 673,-72.5 352,-72.5"/>
<text text-anchor="start" x="359" y="-83.9" font-family="Arial" font-size="14.00" fill="#000000">channel_id </text>
<text text-anchor="start" x="430.582" y="-83.9" font-family="Arial" font-size="14.00" fill="#666666">[int(11)]</text>
<polygon fill="none" stroke="#000000" points="352,-42.5 352,-72.5 673,-72.5 673,-42.5 352,-42.5"/>
<text text-anchor="start" x="359" y="-53.9" font-family="Arial" font-size="14.00" fill="#000000">non_action_path_taken </text>
<text text-anchor="start" x="508.408" y="-53.9" font-family="Arial" font-size="14.00" fill="#666666">[tinyint(1)]</text>
</g>
<!-- campaign_lead_event_failed_log&#45;&gt;campaign_lead_event_log -->
<g id="edge1" class="edge">
<title>campaign_lead_event_failed_log:log_id&#45;&gt;campaign_lead_event_log:id</title>
<path fill="none" stroke="#000000" d="M315.9988,-696.4072C274.9483,-686.6548 292.5891,-614.0564 326,-577 377.913,-519.4226 621.087,-598.5774 673,-541 700.8268,-510.1369 714.5556,-447.5 673,-447.5"/>
<polygon fill="#000000" stroke="#000000" points="316.0592,-696.4137 325.5112,-701.9734 321.0296,-696.9568 326,-697.5 326,-697.5 326,-697.5 321.0296,-696.9568 326.4888,-693.0266 316.0592,-696.4137 316.0592,-696.4137"/>
<text text-anchor="start" x="6.869" y="-707.5" font-family="Arial" font-size="10.00" fill="#000000">FOREIGN KEY (log_id) REFERENCES campaign_lead_event_log (id)</text>
</g>
</g>
</svg>
