<?xml version="1.0" encoding="UTF-8" standalone="no"?>
<!DOCTYPE svg PUBLIC "-//W3C//DTD SVG 1.1//EN"
 "http://www.w3.org/Graphics/SVG/1.1/DTD/svg11.dtd">
<!-- Generated by graphviz version 2.40.1 (20161225.0304)
 -->
<!-- Title: campaign_events Pages: 1 -->
<svg width="791pt" height="2069pt"
 viewBox="0.00 0.00 791.00 2069.00" xmlns="http://www.w3.org/2000/svg" xmlns:xlink="http://www.w3.org/1999/xlink">
<g id="graph0" class="graph" transform="scale(1 1) rotate(0) translate(4 2065)">
<title>campaign_events</title>
<polygon fill="#ffffff" stroke="transparent" points="-4,4 -4,-2065 787,-2065 787,4 -4,4"/>
<!-- campaign_events -->
<g id="node1" class="node">
<title>campaign_events</title>
<polygon fill="#efefef" stroke="transparent" points="287,-1372.5 287,-1407.5 539,-1407.5 539,-1372.5 287,-1372.5"/>
<polygon fill="none" stroke="#000000" points="287,-1372.5 287,-1407.5 539,-1407.5 539,-1372.5 287,-1372.5"/>
<text text-anchor="start" x="293.8509" y="-1385.3" font-family="Arial Bold" font-size="18.00" fill="#000000">campaign_events</text>
<text text-anchor="start" x="434.8953" y="-1385.3" font-family="Arial" font-size="14.00" fill="#000000"> </text>
<text text-anchor="start" x="438.7859" y="-1385.3" font-family="Arial" font-size="14.00" fill="#666666">[BASE TABLE]</text>
<polygon fill="none" stroke="#000000" points="287,-1342.5 287,-1372.5 539,-1372.5 539,-1342.5 287,-1342.5"/>
<text text-anchor="start" x="294" y="-1353.9" font-family="Arial" font-size="14.00" fill="#000000">id </text>
<text text-anchor="start" x="308.7798" y="-1353.9" font-family="Arial" font-size="14.00" fill="#666666">[int(10) unsigned]</text>
<polygon fill="none" stroke="#000000" points="287,-1312.5 287,-1342.5 539,-1342.5 539,-1312.5 287,-1312.5"/>
<text text-anchor="start" x="294" y="-1323.9" font-family="Arial" font-size="14.00" fill="#000000">campaign_id </text>
<text text-anchor="start" x="377.2426" y="-1323.9" font-family="Arial" font-size="14.00" fill="#666666">[int(10) unsigned]</text>
<polygon fill="none" stroke="#000000" points="287,-1282.5 287,-1312.5 539,-1312.5 539,-1282.5 287,-1282.5"/>
<text text-anchor="start" x="294" y="-1293.9" font-family="Arial" font-size="14.00" fill="#000000">parent_id </text>
<text text-anchor="start" x="356.244" y="-1293.9" font-family="Arial" font-size="14.00" fill="#666666">[int(10) unsigned]</text>
<polygon fill="none" stroke="#000000" points="287,-1252.5 287,-1282.5 539,-1282.5 539,-1252.5 287,-1252.5"/>
<text text-anchor="start" x="294" y="-1263.9" font-family="Arial" font-size="14.00" fill="#000000">name </text>
<text text-anchor="start" x="332.899" y="-1263.9" font-family="Arial" font-size="14.00" fill="#666666">[varchar(191)]</text>
<polygon fill="none" stroke="#000000" points="287,-1222.5 287,-1252.5 539,-1252.5 539,-1222.5 287,-1222.5"/>
<text text-anchor="start" x="294" y="-1233.9" font-family="Arial" font-size="14.00" fill="#000000">description </text>
<text text-anchor="start" x="365.568" y="-1233.9" font-family="Arial" font-size="14.00" fill="#666666">[longtext]</text>
<polygon fill="none" stroke="#000000" points="287,-1192.5 287,-1222.5 539,-1222.5 539,-1192.5 287,-1192.5"/>
<text text-anchor="start" x="294" y="-1203.9" font-family="Arial" font-size="14.00" fill="#000000">type </text>
<text text-anchor="start" x="324.3464" y="-1203.9" font-family="Arial" font-size="14.00" fill="#666666">[varchar(50)]</text>
<polygon fill="none" stroke="#000000" points="287,-1162.5 287,-1192.5 539,-1192.5 539,-1162.5 287,-1162.5"/>
<text text-anchor="start" x="294" y="-1173.9" font-family="Arial" font-size="14.00" fill="#000000">event_type </text>
<text text-anchor="start" x="366.3674" y="-1173.9" font-family="Arial" font-size="14.00" fill="#666666">[varchar(50)]</text>
<polygon fill="none" stroke="#000000" points="287,-1132.5 287,-1162.5 539,-1162.5 539,-1132.5 287,-1132.5"/>
<text text-anchor="start" x="294" y="-1143.9" font-family="Arial" font-size="14.00" fill="#000000">event_order </text>
<text text-anchor="start" x="372.5806" y="-1143.9" font-family="Arial" font-size="14.00" fill="#666666">[int(11)]</text>
<polygon fill="none" stroke="#000000" points="287,-1102.5 287,-1132.5 539,-1132.5 539,-1102.5 287,-1102.5"/>
<text text-anchor="start" x="294" y="-1113.9" font-family="Arial" font-size="14.00" fill="#000000">properties </text>
<text text-anchor="start" x="360.122" y="-1113.9" font-family="Arial" font-size="14.00" fill="#666666">[longtext]</text>
<polygon fill="none" stroke="#000000" points="287,-1072.5 287,-1102.5 539,-1102.5 539,-1072.5 287,-1072.5"/>
<text text-anchor="start" x="294" y="-1083.9" font-family="Arial" font-size="14.00" fill="#000000">trigger_date </text>
<text text-anchor="start" x="372.5778" y="-1083.9" font-family="Arial" font-size="14.00" fill="#666666">[datetime]</text>
<polygon fill="none" stroke="#000000" points="287,-1042.5 287,-1072.5 539,-1072.5 539,-1042.5 287,-1042.5"/>
<text text-anchor="start" x="294" y="-1053.9" font-family="Arial" font-size="14.00" fill="#000000">trigger_interval </text>
<text text-anchor="start" x="390.4516" y="-1053.9" font-family="Arial" font-size="14.00" fill="#666666">[int(11)]</text>
<polygon fill="none" stroke="#000000" points="287,-1012.5 287,-1042.5 539,-1042.5 539,-1012.5 287,-1012.5"/>
<text text-anchor="start" x="294" y="-1023.9" font-family="Arial" font-size="14.00" fill="#000000">trigger_interval_unit </text>
<text text-anchor="start" x="420.7966" y="-1023.9" font-family="Arial" font-size="14.00" fill="#666666">[varchar(1)]</text>
<polygon fill="none" stroke="#000000" points="287,-982.5 287,-1012.5 539,-1012.5 539,-982.5 287,-982.5"/>
<text text-anchor="start" x="294" y="-993.9" font-family="Arial" font-size="14.00" fill="#000000">trigger_hour </text>
<text text-anchor="start" x="373.3478" y="-993.9" font-family="Arial" font-size="14.00" fill="#666666">[time]</text>
<polygon fill="none" stroke="#000000" points="287,-952.5 287,-982.5 539,-982.5 539,-952.5 287,-952.5"/>
<text text-anchor="start" x="294" y="-963.9" font-family="Arial" font-size="14.00" fill="#000000">trigger_restricted_start_hour </text>
<text text-anchor="start" x="473.6942" y="-963.9" font-family="Arial" font-size="14.00" fill="#666666">[time]</text>
<polygon fill="none" stroke="#000000" points="287,-922.5 287,-952.5 539,-952.5 539,-922.5 287,-922.5"/>
<text text-anchor="start" x="294" y="-933.9" font-family="Arial" font-size="14.00" fill="#000000">trigger_restricted_stop_hour </text>
<text text-anchor="start" x="472.9256" y="-933.9" font-family="Arial" font-size="14.00" fill="#666666">[time]</text>
<polygon fill="none" stroke="#000000" points="287,-892.5 287,-922.5 539,-922.5 539,-892.5 287,-892.5"/>
<text text-anchor="start" x="294" y="-903.9" font-family="Arial" font-size="14.00" fill="#000000">trigger_restricted_dow </text>
<text text-anchor="start" x="436.3506" y="-903.9" font-family="Arial" font-size="14.00" fill="#666666">[longtext]</text>
<polygon fill="none" stroke="#000000" points="287,-862.5 287,-892.5 539,-892.5 539,-862.5 287,-862.5"/>
<text text-anchor="start" x="294" y="-873.9" font-family="Arial" font-size="14.00" fill="#000000">trigger_mode </text>
<text text-anchor="start" x="380.3478" y="-873.9" font-family="Arial" font-size="14.00" fill="#666666">[varchar(10)]</text>
<polygon fill="none" stroke="#000000" points="287,-832.5 287,-862.5 539,-862.5 539,-832.5 287,-832.5"/>
<text text-anchor="start" x="294" y="-843.9" font-family="Arial" font-size="14.00" fill="#000000">decision_path </text>
<text text-anchor="start" x="384.2552" y="-843.9" font-family="Arial" font-size="14.00" fill="#666666">[varchar(191)]</text>
<polygon fill="none" stroke="#000000" points="287,-802.5 287,-832.5 539,-832.5 539,-802.5 287,-802.5"/>
<text text-anchor="start" x="294" y="-813.9" font-family="Arial" font-size="14.00" fill="#000000">temp_id </text>
<text text-anchor="start" x="347.6788" y="-813.9" font-family="Arial" font-size="14.00" fill="#666666">[varchar(191)]</text>
<polygon fill="none" stroke="#000000" points="287,-772.5 287,-802.5 539,-802.5 539,-772.5 287,-772.5"/>
<text text-anchor="start" x="294" y="-783.9" font-family="Arial" font-size="14.00" fill="#000000">channel </text>
<text text-anchor="start" x="346.9102" y="-783.9" font-family="Arial" font-size="14.00" fill="#666666">[varchar(191)]</text>
<polygon fill="none" stroke="#000000" points="287,-742.5 287,-772.5 539,-772.5 539,-742.5 287,-742.5"/>
<text text-anchor="start" x="294" y="-753.9" font-family="Arial" font-size="14.00" fill="#000000">channel_id </text>
<text text-anchor="start" x="365.582" y="-753.9" font-family="Arial" font-size="14.00" fill="#666666">[int(11)]</text>
<polygon fill="none" stroke="#000000" stroke-width="3" points="285.5,-741.5 285.5,-1409.5 540.5,-1409.5 540.5,-741.5 285.5,-741.5"/>
</g>
<!-- campaign_events&#45;&gt;campaign_events -->
<g id="edge1" class="edge">
<title>campaign_events:parent_id&#45;&gt;campaign_events:id</title>
<path fill="none" stroke="#000000" d="M413.9084,-1322.9586C421.9891,-1558.3952 421.6863,-1804 413,-1804 404.2109,-1804 404.0049,-1581.476 412.382,-1372.5183"/>
<polygon fill="#000000" stroke="#000000" points="413.9035,-1322.8145 418.0523,-1312.6638 413.7292,-1317.8175 413.555,-1312.8206 413.555,-1312.8206 413.555,-1312.8206 413.7292,-1317.8175 409.0577,-1312.9774 413.9035,-1322.8145 413.9035,-1322.8145"/>
<text text-anchor="start" x="118.096" y="-1322.8206" font-family="Arial" font-size="10.00" fill="#000000">FOREIGN KEY (parent_id) REFERENCES campaign_events (id)</text>
</g>
<!-- campaigns -->
<g id="node4" class="node">
<title>campaigns</title>
<polygon fill="#efefef" stroke="transparent" points="292,-582.5 292,-617.5 533,-617.5 533,-582.5 292,-582.5"/>
<polygon fill="none" stroke="#000000" points="292,-582.5 292,-617.5 533,-617.5 533,-582.5 292,-582.5"/>
<text text-anchor="start" x="320.3644" y="-595.3" font-family="Arial Bold" font-size="18.00" fill="#000000">campaigns</text>
<text text-anchor="start" x="407.3818" y="-595.3" font-family="Arial" font-size="14.00" fill="#000000"> </text>
<text text-anchor="start" x="411.2724" y="-595.3" font-family="Arial" font-size="14.00" fill="#666666">[BASE TABLE]</text>
<polygon fill="none" stroke="#000000" points="292,-552.5 292,-582.5 533,-582.5 533,-552.5 292,-552.5"/>
<text text-anchor="start" x="299" y="-563.9" font-family="Arial" font-size="14.00" fill="#000000">id </text>
<text text-anchor="start" x="313.7798" y="-563.9" font-family="Arial" font-size="14.00" fill="#666666">[int(10) unsigned]</text>
<polygon fill="none" stroke="#000000" points="292,-522.5 292,-552.5 533,-552.5 533,-522.5 292,-522.5"/>
<text text-anchor="start" x="299" y="-533.9" font-family="Arial" font-size="14.00" fill="#000000">category_id </text>
<text text-anchor="start" x="375.244" y="-533.9" font-family="Arial" font-size="14.00" fill="#666666">[int(10) unsigned]</text>
<polygon fill="none" stroke="#000000" points="292,-492.5 292,-522.5 533,-522.5 533,-492.5 292,-492.5"/>
<text text-anchor="start" x="299" y="-503.9" font-family="Arial" font-size="14.00" fill="#000000">is_published </text>
<text text-anchor="start" x="380.6886" y="-503.9" font-family="Arial" font-size="14.00" fill="#666666">[tinyint(1)]</text>
<polygon fill="none" stroke="#000000" points="292,-462.5 292,-492.5 533,-492.5 533,-462.5 292,-462.5"/>
<text text-anchor="start" x="299" y="-473.9" font-family="Arial" font-size="14.00" fill="#000000">date_added </text>
<text text-anchor="start" x="376.8246" y="-473.9" font-family="Arial" font-size="14.00" fill="#666666">[datetime]</text>
<polygon fill="none" stroke="#000000" points="292,-432.5 292,-462.5 533,-462.5 533,-432.5 292,-432.5"/>
<text text-anchor="start" x="299" y="-443.9" font-family="Arial" font-size="14.00" fill="#000000">created_by </text>
<text text-anchor="start" x="372.1374" y="-443.9" font-family="Arial" font-size="14.00" fill="#666666">[int(11)]</text>
<polygon fill="none" stroke="#000000" points="292,-402.5 292,-432.5 533,-432.5 533,-402.5 292,-402.5"/>
<text text-anchor="start" x="299" y="-413.9" font-family="Arial" font-size="14.00" fill="#000000">created_by_user </text>
<text text-anchor="start" x="407.1458" y="-413.9" font-family="Arial" font-size="14.00" fill="#666666">[varchar(191)]</text>
<polygon fill="none" stroke="#000000" points="292,-372.5 292,-402.5 533,-402.5 533,-372.5 292,-372.5"/>
<text text-anchor="start" x="299" y="-383.9" font-family="Arial" font-size="14.00" fill="#000000">date_modified </text>
<text text-anchor="start" x="390.8064" y="-383.9" font-family="Arial" font-size="14.00" fill="#666666">[datetime]</text>
<polygon fill="none" stroke="#000000" points="292,-342.5 292,-372.5 533,-372.5 533,-342.5 292,-342.5"/>
<text text-anchor="start" x="299" y="-353.9" font-family="Arial" font-size="14.00" fill="#000000">modified_by </text>
<text text-anchor="start" x="378.3506" y="-353.9" font-family="Arial" font-size="14.00" fill="#666666">[int(11)]</text>
<polygon fill="none" stroke="#000000" points="292,-312.5 292,-342.5 533,-342.5 533,-312.5 292,-312.5"/>
<text text-anchor="start" x="299" y="-323.9" font-family="Arial" font-size="14.00" fill="#000000">modified_by_user </text>
<text text-anchor="start" x="413.359" y="-323.9" font-family="Arial" font-size="14.00" fill="#666666">[varchar(191)]</text>
<polygon fill="none" stroke="#000000" points="292,-282.5 292,-312.5 533,-312.5 533,-282.5 292,-282.5"/>
<text text-anchor="start" x="299" y="-293.9" font-family="Arial" font-size="14.00" fill="#000000">checked_out </text>
<text text-anchor="start" x="382.2594" y="-293.9" font-family="Arial" font-size="14.00" fill="#666666">[datetime]</text>
<polygon fill="none" stroke="#000000" points="292,-252.5 292,-282.5 533,-282.5 533,-252.5 292,-252.5"/>
<text text-anchor="start" x="299" y="-263.9" font-family="Arial" font-size="14.00" fill="#000000">checked_out_by </text>
<text text-anchor="start" x="404.8246" y="-263.9" font-family="Arial" font-size="14.00" fill="#666666">[int(11)]</text>
<polygon fill="none" stroke="#000000" points="292,-222.5 292,-252.5 533,-252.5 533,-222.5 292,-222.5"/>
<text text-anchor="start" x="298.5239" y="-233.9" font-family="Arial" font-size="14.00" fill="#000000">checked_out_by_user </text>
<text text-anchor="start" x="439.3569" y="-233.9" font-family="Arial" font-size="14.00" fill="#666666">[varchar(191)]</text>
<polygon fill="none" stroke="#000000" points="292,-192.5 292,-222.5 533,-222.5 533,-192.5 292,-192.5"/>
<text text-anchor="start" x="299" y="-203.9" font-family="Arial" font-size="14.00" fill="#000000">name </text>
<text text-anchor="start" x="337.899" y="-203.9" font-family="Arial" font-size="14.00" fill="#666666">[varchar(191)]</text>
<polygon fill="none" stroke="#000000" points="292,-162.5 292,-192.5 533,-192.5 533,-162.5 292,-162.5"/>
<text text-anchor="start" x="299" y="-173.9" font-family="Arial" font-size="14.00" fill="#000000">description </text>
<text text-anchor="start" x="370.568" y="-173.9" font-family="Arial" font-size="14.00" fill="#666666">[longtext]</text>
<polygon fill="none" stroke="#000000" points="292,-132.5 292,-162.5 533,-162.5 533,-132.5 292,-132.5"/>
<text text-anchor="start" x="299" y="-143.9" font-family="Arial" font-size="14.00" fill="#000000">publish_up </text>
<text text-anchor="start" x="370.582" y="-143.9" font-family="Arial" font-size="14.00" fill="#666666">[datetime]</text>
<polygon fill="none" stroke="#000000" points="292,-102.5 292,-132.5 533,-132.5 533,-102.5 292,-102.5"/>
<text text-anchor="start" x="299" y="-113.9" font-family="Arial" font-size="14.00" fill="#000000">publish_down </text>
<text text-anchor="start" x="388.4712" y="-113.9" font-family="Arial" font-size="14.00" fill="#666666">[datetime]</text>
<polygon fill="none" stroke="#000000" points="292,-72.5 292,-102.5 533,-102.5 533,-72.5 292,-72.5"/>
<text text-anchor="start" x="299" y="-83.9" font-family="Arial" font-size="14.00" fill="#000000">canvas_settings </text>
<text text-anchor="start" x="403.2566" y="-83.9" font-family="Arial" font-size="14.00" fill="#666666">[longtext]</text>
<polygon fill="none" stroke="#000000" points="292,-42.5 292,-72.5 533,-72.5 533,-42.5 292,-42.5"/>
<text text-anchor="start" x="299" y="-53.9" font-family="Arial" font-size="14.00" fill="#000000">allow_restart </text>
<text text-anchor="start" x="382.2258" y="-53.9" font-family="Arial" font-size="14.00" fill="#666666">[int(11)]</text>
</g>
<!-- campaign_events&#45;&gt;campaigns -->
<g id="edge4" class="edge">
<title>campaign_events:campaign_id&#45;&gt;campaigns:id</title>
<path fill="none" stroke="#000000" d="M276.906,-1327.3141C9.1583,-1317.3137 105.9963,-906.42 287,-697 359.2558,-613.4005 460.7442,-744.5995 533,-661 560.1737,-629.5603 574.5556,-567.5 533,-567.5"/>
<polygon fill="#000000" stroke="#000000" points="277.0017,-1327.3157 286.9171,-1331.9992 282.0008,-1327.4079 287,-1327.5 287,-1327.5 287,-1327.5 282.0008,-1327.4079 287.0829,-1323.0008 277.0017,-1327.3157 277.0017,-1327.3157"/>
<text text-anchor="start" x="7.049" y="-1337.5" font-family="Arial" font-size="10.00" fill="#000000">FOREIGN KEY (campaign_id) REFERENCES campaigns (id)</text>
</g>
<!-- campaign_lead_event_log -->
<g id="node2" class="node">
<title>campaign_lead_event_log</title>
<polygon fill="#efefef" stroke="transparent" points="59,-1967.5 59,-2002.5 380,-2002.5 380,-1967.5 59,-1967.5"/>
<polygon fill="none" stroke="#000000" points="59,-1967.5 59,-2002.5 380,-2002.5 380,-1967.5 59,-1967.5"/>
<text text-anchor="start" x="65.835" y="-1980.3" font-family="Arial Bold" font-size="18.00" fill="#000000">campaign_lead_event_log</text>
<text text-anchor="start" x="275.9112" y="-1980.3" font-family="Arial" font-size="14.00" fill="#000000"> </text>
<text text-anchor="start" x="279.8018" y="-1980.3" font-family="Arial" font-size="14.00" fill="#666666">[BASE TABLE]</text>
<polygon fill="none" stroke="#000000" points="59,-1937.5 59,-1967.5 380,-1967.5 380,-1937.5 59,-1937.5"/>
<text text-anchor="start" x="66" y="-1948.9" font-family="Arial" font-size="14.00" fill="#000000">id </text>
<text text-anchor="start" x="80.7798" y="-1948.9" font-family="Arial" font-size="14.00" fill="#666666">[bigint(20) unsigned]</text>
<polygon fill="none" stroke="#000000" points="59,-1907.5 59,-1937.5 380,-1937.5 380,-1907.5 59,-1907.5"/>
<text text-anchor="start" x="66" y="-1918.9" font-family="Arial" font-size="14.00" fill="#000000">event_id </text>
<text text-anchor="start" x="122.8008" y="-1918.9" font-family="Arial" font-size="14.00" fill="#666666">[int(10) unsigned]</text>
<polygon fill="none" stroke="#000000" points="59,-1877.5 59,-1907.5 380,-1907.5 380,-1877.5 59,-1877.5"/>
<text text-anchor="start" x="66" y="-1888.9" font-family="Arial" font-size="14.00" fill="#000000">lead_id </text>
<text text-anchor="start" x="115.0168" y="-1888.9" font-family="Arial" font-size="14.00" fill="#666666">[bigint(20) unsigned]</text>
<polygon fill="none" stroke="#000000" points="59,-1847.5 59,-1877.5 380,-1877.5 380,-1847.5 59,-1847.5"/>
<text text-anchor="start" x="66" y="-1858.9" font-family="Arial" font-size="14.00" fill="#000000">campaign_id </text>
<text text-anchor="start" x="149.2426" y="-1858.9" font-family="Arial" font-size="14.00" fill="#666666">[int(10) unsigned]</text>
<polygon fill="none" stroke="#000000" points="59,-1817.5 59,-1847.5 380,-1847.5 380,-1817.5 59,-1817.5"/>
<text text-anchor="start" x="66" y="-1828.9" font-family="Arial" font-size="14.00" fill="#000000">ip_id </text>
<text text-anchor="start" x="99.4516" y="-1828.9" font-family="Arial" font-size="14.00" fill="#666666">[int(10) unsigned]</text>
<polygon fill="none" stroke="#000000" points="59,-1787.5 59,-1817.5 380,-1817.5 380,-1787.5 59,-1787.5"/>
<text text-anchor="start" x="66" y="-1798.9" font-family="Arial" font-size="14.00" fill="#000000">rotation </text>
<text text-anchor="start" x="116.5694" y="-1798.9" font-family="Arial" font-size="14.00" fill="#666666">[int(11)]</text>
<polygon fill="none" stroke="#000000" points="59,-1757.5 59,-1787.5 380,-1787.5 380,-1757.5 59,-1757.5"/>
<text text-anchor="start" x="66" y="-1768.9" font-family="Arial" font-size="14.00" fill="#000000">date_triggered </text>
<text text-anchor="start" x="160.143" y="-1768.9" font-family="Arial" font-size="14.00" fill="#666666">[datetime]</text>
<polygon fill="none" stroke="#000000" points="59,-1727.5 59,-1757.5 380,-1757.5 380,-1727.5 59,-1727.5"/>
<text text-anchor="start" x="66" y="-1738.9" font-family="Arial" font-size="14.00" fill="#000000">is_scheduled </text>
<text text-anchor="start" x="151.582" y="-1738.9" font-family="Arial" font-size="14.00" fill="#666666">[tinyint(1)]</text>
<polygon fill="none" stroke="#000000" points="59,-1697.5 59,-1727.5 380,-1727.5 380,-1697.5 59,-1697.5"/>
<text text-anchor="start" x="66" y="-1708.9" font-family="Arial" font-size="14.00" fill="#000000">trigger_date </text>
<text text-anchor="start" x="144.5778" y="-1708.9" font-family="Arial" font-size="14.00" fill="#666666">[datetime]</text>
<polygon fill="none" stroke="#000000" points="59,-1667.5 59,-1697.5 380,-1697.5 380,-1667.5 59,-1667.5"/>
<text text-anchor="start" x="66" y="-1678.9" font-family="Arial" font-size="14.00" fill="#000000">system_triggered </text>
<text text-anchor="start" x="177.2384" y="-1678.9" font-family="Arial" font-size="14.00" fill="#666666">[tinyint(1)]</text>
<polygon fill="none" stroke="#000000" points="59,-1637.5 59,-1667.5 380,-1667.5 380,-1637.5 59,-1637.5"/>
<text text-anchor="start" x="66" y="-1648.9" font-family="Arial" font-size="14.00" fill="#000000">metadata </text>
<text text-anchor="start" x="128.2454" y="-1648.9" font-family="Arial" font-size="14.00" fill="#666666">[longtext]</text>
<polygon fill="none" stroke="#000000" points="59,-1607.5 59,-1637.5 380,-1637.5 380,-1607.5 59,-1607.5"/>
<text text-anchor="start" x="66" y="-1618.9" font-family="Arial" font-size="14.00" fill="#000000">channel </text>
<text text-anchor="start" x="118.9102" y="-1618.9" font-family="Arial" font-size="14.00" fill="#666666">[varchar(191)]</text>
<polygon fill="none" stroke="#000000" points="59,-1577.5 59,-1607.5 380,-1607.5 380,-1577.5 59,-1577.5"/>
<text text-anchor="start" x="66" y="-1588.9" font-family="Arial" font-size="14.00" fill="#000000">channel_id </text>
<text text-anchor="start" x="137.582" y="-1588.9" font-family="Arial" font-size="14.00" fill="#666666">[int(11)]</text>
<polygon fill="none" stroke="#000000" points="59,-1547.5 59,-1577.5 380,-1577.5 380,-1547.5 59,-1547.5"/>
<text text-anchor="start" x="66" y="-1558.9" font-family="Arial" font-size="14.00" fill="#000000">non_action_path_taken </text>
<text text-anchor="start" x="215.408" y="-1558.9" font-family="Arial" font-size="14.00" fill="#666666">[tinyint(1)]</text>
</g>
<!-- campaign_lead_event_log&#45;&gt;campaign_events -->
<g id="edge2" class="edge">
<title>campaign_lead_event_log:event_id&#45;&gt;campaign_events:id</title>
<path fill="none" stroke="#000000" d="M388.7834,-1917.1485C423.1847,-1871.0717 401.973,-1542.1098 380,-1505 355.9822,-1464.4368 311.0178,-1494.5632 287,-1454 265.1484,-1417.0952 244.1111,-1357.5 287,-1357.5"/>
<polygon fill="#000000" stroke="#000000" points="388.5398,-1917.2969 377.6586,-1918.6571 384.2699,-1919.8984 380,-1922.5 380,-1922.5 380,-1922.5 384.2699,-1919.8984 382.3414,-1926.3429 388.5398,-1917.2969 388.5398,-1917.2969"/>
<text text-anchor="start" x="387.485" y="-1932.5" font-family="Arial" font-size="10.00" fill="#000000">FOREIGN KEY (event_id) REFERENCES campaign_events (id)</text>
</g>
<!-- message_queue -->
<g id="node3" class="node">
<title>message_queue</title>
<polygon fill="#efefef" stroke="transparent" points="484,-1982.5 484,-2017.5 728,-2017.5 728,-1982.5 484,-1982.5"/>
<polygon fill="none" stroke="#000000" points="484,-1982.5 484,-2017.5 728,-2017.5 728,-1982.5 484,-1982.5"/>
<text text-anchor="start" x="490.846" y="-1995.3" font-family="Arial Bold" font-size="18.00" fill="#000000">message_queue</text>
<text text-anchor="start" x="623.9002" y="-1995.3" font-family="Arial" font-size="14.00" fill="#000000"> </text>
<text text-anchor="start" x="627.7908" y="-1995.3" font-family="Arial" font-size="14.00" fill="#666666">[BASE TABLE]</text>
<polygon fill="none" stroke="#000000" points="484,-1952.5 484,-1982.5 728,-1982.5 728,-1952.5 484,-1952.5"/>
<text text-anchor="start" x="491" y="-1963.9" font-family="Arial" font-size="14.00" fill="#000000">id </text>
<text text-anchor="start" x="505.7798" y="-1963.9" font-family="Arial" font-size="14.00" fill="#666666">[bigint(20) unsigned]</text>
<polygon fill="none" stroke="#000000" points="484,-1922.5 484,-1952.5 728,-1952.5 728,-1922.5 484,-1922.5"/>
<text text-anchor="start" x="491" y="-1933.9" font-family="Arial" font-size="14.00" fill="#000000">event_id </text>
<text text-anchor="start" x="547.8008" y="-1933.9" font-family="Arial" font-size="14.00" fill="#666666">[int(10) unsigned]</text>
<polygon fill="none" stroke="#000000" points="484,-1892.5 484,-1922.5 728,-1922.5 728,-1892.5 484,-1892.5"/>
<text text-anchor="start" x="491" y="-1903.9" font-family="Arial" font-size="14.00" fill="#000000">lead_id </text>
<text text-anchor="start" x="540.0168" y="-1903.9" font-family="Arial" font-size="14.00" fill="#666666">[bigint(20) unsigned]</text>
<polygon fill="none" stroke="#000000" points="484,-1862.5 484,-1892.5 728,-1892.5 728,-1862.5 484,-1862.5"/>
<text text-anchor="start" x="491" y="-1873.9" font-family="Arial" font-size="14.00" fill="#000000">channel </text>
<text text-anchor="start" x="543.9102" y="-1873.9" font-family="Arial" font-size="14.00" fill="#666666">[varchar(191)]</text>
<polygon fill="none" stroke="#000000" points="484,-1832.5 484,-1862.5 728,-1862.5 728,-1832.5 484,-1832.5"/>
<text text-anchor="start" x="491" y="-1843.9" font-family="Arial" font-size="14.00" fill="#000000">channel_id </text>
<text text-anchor="start" x="562.582" y="-1843.9" font-family="Arial" font-size="14.00" fill="#666666">[int(11)]</text>
<polygon fill="none" stroke="#000000" points="484,-1802.5 484,-1832.5 728,-1832.5 728,-1802.5 484,-1802.5"/>
<text text-anchor="start" x="491" y="-1813.9" font-family="Arial" font-size="14.00" fill="#000000">priority </text>
<text text-anchor="start" x="536.8808" y="-1813.9" font-family="Arial" font-size="14.00" fill="#666666">[smallint(6)]</text>
<polygon fill="none" stroke="#000000" points="484,-1772.5 484,-1802.5 728,-1802.5 728,-1772.5 484,-1772.5"/>
<text text-anchor="start" x="491" y="-1783.9" font-family="Arial" font-size="14.00" fill="#000000">max_attempts </text>
<text text-anchor="start" x="582.7966" y="-1783.9" font-family="Arial" font-size="14.00" fill="#666666">[smallint(6)]</text>
<polygon fill="none" stroke="#000000" points="484,-1742.5 484,-1772.5 728,-1772.5 728,-1742.5 484,-1742.5"/>
<text text-anchor="start" x="491" y="-1753.9" font-family="Arial" font-size="14.00" fill="#000000">attempts </text>
<text text-anchor="start" x="548.5708" y="-1753.9" font-family="Arial" font-size="14.00" fill="#666666">[smallint(6)]</text>
<polygon fill="none" stroke="#000000" points="484,-1712.5 484,-1742.5 728,-1742.5 728,-1712.5 484,-1712.5"/>
<text text-anchor="start" x="491" y="-1723.9" font-family="Arial" font-size="14.00" fill="#000000">success </text>
<text text-anchor="start" x="545.4558" y="-1723.9" font-family="Arial" font-size="14.00" fill="#666666">[tinyint(1)]</text>
<polygon fill="none" stroke="#000000" points="484,-1682.5 484,-1712.5 728,-1712.5 728,-1682.5 484,-1682.5"/>
<text text-anchor="start" x="491" y="-1693.9" font-family="Arial" font-size="14.00" fill="#000000">status </text>
<text text-anchor="start" x="532.237" y="-1693.9" font-family="Arial" font-size="14.00" fill="#666666">[varchar(191)]</text>
<polygon fill="none" stroke="#000000" points="484,-1652.5 484,-1682.5 728,-1682.5 728,-1652.5 484,-1652.5"/>
<text text-anchor="start" x="491" y="-1663.9" font-family="Arial" font-size="14.00" fill="#000000">date_published </text>
<text text-anchor="start" x="589.8204" y="-1663.9" font-family="Arial" font-size="14.00" fill="#666666">[datetime]</text>
<polygon fill="none" stroke="#000000" points="484,-1622.5 484,-1652.5 728,-1652.5 728,-1622.5 484,-1622.5"/>
<text text-anchor="start" x="491" y="-1633.9" font-family="Arial" font-size="14.00" fill="#000000">scheduled_date </text>
<text text-anchor="start" x="593.7138" y="-1633.9" font-family="Arial" font-size="14.00" fill="#666666">[datetime]</text>
<polygon fill="none" stroke="#000000" points="484,-1592.5 484,-1622.5 728,-1622.5 728,-1592.5 484,-1592.5"/>
<text text-anchor="start" x="491" y="-1603.9" font-family="Arial" font-size="14.00" fill="#000000">last_attempt </text>
<text text-anchor="start" x="571.1332" y="-1603.9" font-family="Arial" font-size="14.00" fill="#666666">[datetime]</text>
<polygon fill="none" stroke="#000000" points="484,-1562.5 484,-1592.5 728,-1592.5 728,-1562.5 484,-1562.5"/>
<text text-anchor="start" x="491" y="-1573.9" font-family="Arial" font-size="14.00" fill="#000000">date_sent </text>
<text text-anchor="start" x="556.3674" y="-1573.9" font-family="Arial" font-size="14.00" fill="#666666">[datetime]</text>
<polygon fill="none" stroke="#000000" points="484,-1532.5 484,-1562.5 728,-1562.5 728,-1532.5 484,-1532.5"/>
<text text-anchor="start" x="491" y="-1543.9" font-family="Arial" font-size="14.00" fill="#000000">options </text>
<text text-anchor="start" x="540.0182" y="-1543.9" font-family="Arial" font-size="14.00" fill="#666666">[longtext]</text>
</g>
<!-- message_queue&#45;&gt;campaign_events -->
<g id="edge3" class="edge">
<title>message_queue:event_id&#45;&gt;campaign_events:id</title>
<path fill="none" stroke="#000000" d="M475.0743,-1932.3822C437.7302,-1885.4632 461.9237,-1530.8349 484,-1490 497.894,-1464.3 525.106,-1479.7 539,-1454 559.3968,-1416.2717 581.8889,-1357.5 539,-1357.5"/>
<polygon fill="#000000" stroke="#000000" points="475.3249,-1932.5258 481.7616,-1941.4038 479.6624,-1935.0129 484,-1937.5 484,-1937.5 484,-1937.5 479.6624,-1935.0129 486.2384,-1933.5962 475.3249,-1932.5258 475.3249,-1932.5258"/>
<text text-anchor="start" x="491.485" y="-1947.5" font-family="Arial" font-size="10.00" fill="#000000">FOREIGN KEY (event_id) REFERENCES campaign_events (id)</text>
</g>
</g>
</svg>
