<?xml version="1.0" encoding="UTF-8" standalone="no"?>
<!DOCTYPE svg PUBLIC "-//W3C//DTD SVG 1.1//EN"
 "http://www.w3.org/Graphics/SVG/1.1/DTD/svg11.dtd">
<!-- Generated by graphviz version 2.40.1 (20161225.0304)
 -->
<!-- Title: campaign_leads Pages: 1 -->
<svg width="776pt" height="1852pt"
 viewBox="0.00 0.00 776.00 1852.00" xmlns="http://www.w3.org/2000/svg" xmlns:xlink="http://www.w3.org/1999/xlink">
<g id="graph0" class="graph" transform="scale(1 1) rotate(0) translate(4 1848)">
<title>campaign_leads</title>
<polygon fill="#ffffff" stroke="transparent" points="-4,4 -4,-1848 772,-1848 772,4 -4,4"/>
<!-- campaign_leads -->
<g id="node1" class="node">
<title>campaign_leads</title>
<polygon fill="#efefef" stroke="transparent" points="287,-1762.5 287,-1797.5 529,-1797.5 529,-1762.5 287,-1762.5"/>
<polygon fill="none" stroke="#000000" points="287,-1762.5 287,-1797.5 529,-1797.5 529,-1762.5 287,-1762.5"/>
<text text-anchor="start" x="293.8549" y="-1775.3" font-family="Arial Bold" font-size="18.00" fill="#000000">campaign_leads</text>
<text text-anchor="start" x="424.8913" y="-1775.3" font-family="Arial" font-size="14.00" fill="#000000"> </text>
<text text-anchor="start" x="428.7819" y="-1775.3" font-family="Arial" font-size="14.00" fill="#666666">[BASE TABLE]</text>
<polygon fill="none" stroke="#000000" points="287,-1732.5 287,-1762.5 529,-1762.5 529,-1732.5 287,-1732.5"/>
<text text-anchor="start" x="294" y="-1743.9" font-family="Arial" font-size="14.00" fill="#000000">campaign_id </text>
<text text-anchor="start" x="377.2426" y="-1743.9" font-family="Arial" font-size="14.00" fill="#666666">[int(10) unsigned]</text>
<polygon fill="none" stroke="#000000" points="287,-1702.5 287,-1732.5 529,-1732.5 529,-1702.5 287,-1702.5"/>
<text text-anchor="start" x="294" y="-1713.9" font-family="Arial" font-size="14.00" fill="#000000">lead_id </text>
<text text-anchor="start" x="343.0168" y="-1713.9" font-family="Arial" font-size="14.00" fill="#666666">[bigint(20) unsigned]</text>
<polygon fill="none" stroke="#000000" points="287,-1672.5 287,-1702.5 529,-1702.5 529,-1672.5 287,-1672.5"/>
<text text-anchor="start" x="294" y="-1683.9" font-family="Arial" font-size="14.00" fill="#000000">date_added </text>
<text text-anchor="start" x="371.8246" y="-1683.9" font-family="Arial" font-size="14.00" fill="#666666">[datetime]</text>
<polygon fill="none" stroke="#000000" points="287,-1642.5 287,-1672.5 529,-1672.5 529,-1642.5 287,-1642.5"/>
<text text-anchor="start" x="294" y="-1653.9" font-family="Arial" font-size="14.00" fill="#000000">manually_removed </text>
<text text-anchor="start" x="416.129" y="-1653.9" font-family="Arial" font-size="14.00" fill="#666666">[tinyint(1)]</text>
<polygon fill="none" stroke="#000000" points="287,-1612.5 287,-1642.5 529,-1642.5 529,-1612.5 287,-1612.5"/>
<text text-anchor="start" x="294" y="-1623.9" font-family="Arial" font-size="14.00" fill="#000000">manually_added </text>
<text text-anchor="start" x="400.5904" y="-1623.9" font-family="Arial" font-size="14.00" fill="#666666">[tinyint(1)]</text>
<polygon fill="none" stroke="#000000" points="287,-1582.5 287,-1612.5 529,-1612.5 529,-1582.5 287,-1582.5"/>
<text text-anchor="start" x="294" y="-1593.9" font-family="Arial" font-size="14.00" fill="#000000">date_last_exited </text>
<text text-anchor="start" x="399.819" y="-1593.9" font-family="Arial" font-size="14.00" fill="#666666">[datetime]</text>
<polygon fill="none" stroke="#000000" points="287,-1552.5 287,-1582.5 529,-1582.5 529,-1552.5 287,-1552.5"/>
<text text-anchor="start" x="294" y="-1563.9" font-family="Arial" font-size="14.00" fill="#000000">rotation </text>
<text text-anchor="start" x="344.5694" y="-1563.9" font-family="Arial" font-size="14.00" fill="#666666">[int(11)]</text>
<polygon fill="none" stroke="#000000" stroke-width="3" points="285.5,-1551.5 285.5,-1799.5 530.5,-1799.5 530.5,-1551.5 285.5,-1551.5"/>
</g>
<!-- campaigns -->
<g id="node2" class="node">
<title>campaigns</title>
<polygon fill="#efefef" stroke="transparent" points="112,-987.5 112,-1022.5 353,-1022.5 353,-987.5 112,-987.5"/>
<polygon fill="none" stroke="#000000" points="112,-987.5 112,-1022.5 353,-1022.5 353,-987.5 112,-987.5"/>
<text text-anchor="start" x="140.3644" y="-1000.3" font-family="Arial Bold" font-size="18.00" fill="#000000">campaigns</text>
<text text-anchor="start" x="227.3818" y="-1000.3" font-family="Arial" font-size="14.00" fill="#000000"> </text>
<text text-anchor="start" x="231.2724" y="-1000.3" font-family="Arial" font-size="14.00" fill="#666666">[BASE TABLE]</text>
<polygon fill="none" stroke="#000000" points="112,-957.5 112,-987.5 353,-987.5 353,-957.5 112,-957.5"/>
<text text-anchor="start" x="119" y="-968.9" font-family="Arial" font-size="14.00" fill="#000000">id </text>
<text text-anchor="start" x="133.7798" y="-968.9" font-family="Arial" font-size="14.00" fill="#666666">[int(10) unsigned]</text>
<polygon fill="none" stroke="#000000" points="112,-927.5 112,-957.5 353,-957.5 353,-927.5 112,-927.5"/>
<text text-anchor="start" x="119" y="-938.9" font-family="Arial" font-size="14.00" fill="#000000">category_id </text>
<text text-anchor="start" x="195.244" y="-938.9" font-family="Arial" font-size="14.00" fill="#666666">[int(10) unsigned]</text>
<polygon fill="none" stroke="#000000" points="112,-897.5 112,-927.5 353,-927.5 353,-897.5 112,-897.5"/>
<text text-anchor="start" x="119" y="-908.9" font-family="Arial" font-size="14.00" fill="#000000">is_published </text>
<text text-anchor="start" x="200.6886" y="-908.9" font-family="Arial" font-size="14.00" fill="#666666">[tinyint(1)]</text>
<polygon fill="none" stroke="#000000" points="112,-867.5 112,-897.5 353,-897.5 353,-867.5 112,-867.5"/>
<text text-anchor="start" x="119" y="-878.9" font-family="Arial" font-size="14.00" fill="#000000">date_added </text>
<text text-anchor="start" x="196.8246" y="-878.9" font-family="Arial" font-size="14.00" fill="#666666">[datetime]</text>
<polygon fill="none" stroke="#000000" points="112,-837.5 112,-867.5 353,-867.5 353,-837.5 112,-837.5"/>
<text text-anchor="start" x="119" y="-848.9" font-family="Arial" font-size="14.00" fill="#000000">created_by </text>
<text text-anchor="start" x="192.1374" y="-848.9" font-family="Arial" font-size="14.00" fill="#666666">[int(11)]</text>
<polygon fill="none" stroke="#000000" points="112,-807.5 112,-837.5 353,-837.5 353,-807.5 112,-807.5"/>
<text text-anchor="start" x="119" y="-818.9" font-family="Arial" font-size="14.00" fill="#000000">created_by_user </text>
<text text-anchor="start" x="227.1458" y="-818.9" font-family="Arial" font-size="14.00" fill="#666666">[varchar(191)]</text>
<polygon fill="none" stroke="#000000" points="112,-777.5 112,-807.5 353,-807.5 353,-777.5 112,-777.5"/>
<text text-anchor="start" x="119" y="-788.9" font-family="Arial" font-size="14.00" fill="#000000">date_modified </text>
<text text-anchor="start" x="210.8064" y="-788.9" font-family="Arial" font-size="14.00" fill="#666666">[datetime]</text>
<polygon fill="none" stroke="#000000" points="112,-747.5 112,-777.5 353,-777.5 353,-747.5 112,-747.5"/>
<text text-anchor="start" x="119" y="-758.9" font-family="Arial" font-size="14.00" fill="#000000">modified_by </text>
<text text-anchor="start" x="198.3506" y="-758.9" font-family="Arial" font-size="14.00" fill="#666666">[int(11)]</text>
<polygon fill="none" stroke="#000000" points="112,-717.5 112,-747.5 353,-747.5 353,-717.5 112,-717.5"/>
<text text-anchor="start" x="119" y="-728.9" font-family="Arial" font-size="14.00" fill="#000000">modified_by_user </text>
<text text-anchor="start" x="233.359" y="-728.9" font-family="Arial" font-size="14.00" fill="#666666">[varchar(191)]</text>
<polygon fill="none" stroke="#000000" points="112,-687.5 112,-717.5 353,-717.5 353,-687.5 112,-687.5"/>
<text text-anchor="start" x="119" y="-698.9" font-family="Arial" font-size="14.00" fill="#000000">checked_out </text>
<text text-anchor="start" x="202.2594" y="-698.9" font-family="Arial" font-size="14.00" fill="#666666">[datetime]</text>
<polygon fill="none" stroke="#000000" points="112,-657.5 112,-687.5 353,-687.5 353,-657.5 112,-657.5"/>
<text text-anchor="start" x="119" y="-668.9" font-family="Arial" font-size="14.00" fill="#000000">checked_out_by </text>
<text text-anchor="start" x="224.8246" y="-668.9" font-family="Arial" font-size="14.00" fill="#666666">[int(11)]</text>
<polygon fill="none" stroke="#000000" points="112,-627.5 112,-657.5 353,-657.5 353,-627.5 112,-627.5"/>
<text text-anchor="start" x="118.5239" y="-638.9" font-family="Arial" font-size="14.00" fill="#000000">checked_out_by_user </text>
<text text-anchor="start" x="259.3569" y="-638.9" font-family="Arial" font-size="14.00" fill="#666666">[varchar(191)]</text>
<polygon fill="none" stroke="#000000" points="112,-597.5 112,-627.5 353,-627.5 353,-597.5 112,-597.5"/>
<text text-anchor="start" x="119" y="-608.9" font-family="Arial" font-size="14.00" fill="#000000">name </text>
<text text-anchor="start" x="157.899" y="-608.9" font-family="Arial" font-size="14.00" fill="#666666">[varchar(191)]</text>
<polygon fill="none" stroke="#000000" points="112,-567.5 112,-597.5 353,-597.5 353,-567.5 112,-567.5"/>
<text text-anchor="start" x="119" y="-578.9" font-family="Arial" font-size="14.00" fill="#000000">description </text>
<text text-anchor="start" x="190.568" y="-578.9" font-family="Arial" font-size="14.00" fill="#666666">[longtext]</text>
<polygon fill="none" stroke="#000000" points="112,-537.5 112,-567.5 353,-567.5 353,-537.5 112,-537.5"/>
<text text-anchor="start" x="119" y="-548.9" font-family="Arial" font-size="14.00" fill="#000000">publish_up </text>
<text text-anchor="start" x="190.582" y="-548.9" font-family="Arial" font-size="14.00" fill="#666666">[datetime]</text>
<polygon fill="none" stroke="#000000" points="112,-507.5 112,-537.5 353,-537.5 353,-507.5 112,-507.5"/>
<text text-anchor="start" x="119" y="-518.9" font-family="Arial" font-size="14.00" fill="#000000">publish_down </text>
<text text-anchor="start" x="208.4712" y="-518.9" font-family="Arial" font-size="14.00" fill="#666666">[datetime]</text>
<polygon fill="none" stroke="#000000" points="112,-477.5 112,-507.5 353,-507.5 353,-477.5 112,-477.5"/>
<text text-anchor="start" x="119" y="-488.9" font-family="Arial" font-size="14.00" fill="#000000">canvas_settings </text>
<text text-anchor="start" x="223.2566" y="-488.9" font-family="Arial" font-size="14.00" fill="#666666">[longtext]</text>
<polygon fill="none" stroke="#000000" points="112,-447.5 112,-477.5 353,-477.5 353,-447.5 112,-447.5"/>
<text text-anchor="start" x="119" y="-458.9" font-family="Arial" font-size="14.00" fill="#000000">allow_restart </text>
<text text-anchor="start" x="202.2258" y="-458.9" font-family="Arial" font-size="14.00" fill="#666666">[int(11)]</text>
</g>
<!-- campaign_leads&#45;&gt;campaigns -->
<g id="edge1" class="edge">
<title>campaign_leads:campaign_id&#45;&gt;campaigns:id</title>
<path fill="none" stroke="#000000" d="M276.6574,-1746.4422C131.5744,-1714.5569 522.1321,-972.5 353,-972.5"/>
<polygon fill="#000000" stroke="#000000" points="277.0519,-1746.4825 286.5421,-1751.9766 282.0259,-1746.9912 287,-1747.5 287,-1747.5 287,-1747.5 282.0259,-1746.9912 287.4579,-1743.0234 277.0519,-1746.4825 277.0519,-1746.4825"/>
<text text-anchor="start" x="7.049" y="-1757.5" font-family="Arial" font-size="10.00" fill="#000000">FOREIGN KEY (campaign_id) REFERENCES campaigns (id)</text>
</g>
<!-- leads -->
<g id="node3" class="node">
<title>leads</title>
<polygon fill="#efefef" stroke="transparent" points="457,-1392.5 457,-1427.5 710,-1427.5 710,-1392.5 457,-1392.5"/>
<polygon fill="none" stroke="#000000" points="457,-1392.5 457,-1427.5 710,-1427.5 710,-1392.5 457,-1392.5"/>
<text text-anchor="start" x="513.3667" y="-1405.3" font-family="Arial Bold" font-size="18.00" fill="#000000">leads</text>
<text text-anchor="start" x="556.3795" y="-1405.3" font-family="Arial" font-size="14.00" fill="#000000"> </text>
<text text-anchor="start" x="560.2701" y="-1405.3" font-family="Arial" font-size="14.00" fill="#666666">[BASE TABLE]</text>
<polygon fill="none" stroke="#000000" points="457,-1362.5 457,-1392.5 710,-1392.5 710,-1362.5 457,-1362.5"/>
<text text-anchor="start" x="464" y="-1373.9" font-family="Arial" font-size="14.00" fill="#000000">id </text>
<text text-anchor="start" x="478.7798" y="-1373.9" font-family="Arial" font-size="14.00" fill="#666666">[bigint(20) unsigned]</text>
<polygon fill="none" stroke="#000000" points="457,-1332.5 457,-1362.5 710,-1362.5 710,-1332.5 457,-1332.5"/>
<text text-anchor="start" x="464" y="-1343.9" font-family="Arial" font-size="14.00" fill="#000000">owner_id </text>
<text text-anchor="start" x="524.6774" y="-1343.9" font-family="Arial" font-size="14.00" fill="#666666">[int(10) unsigned]</text>
<polygon fill="none" stroke="#000000" points="457,-1302.5 457,-1332.5 710,-1332.5 710,-1302.5 457,-1302.5"/>
<text text-anchor="start" x="464" y="-1313.9" font-family="Arial" font-size="14.00" fill="#000000">stage_id </text>
<text text-anchor="start" x="520.8008" y="-1313.9" font-family="Arial" font-size="14.00" fill="#666666">[int(10) unsigned]</text>
<polygon fill="none" stroke="#000000" points="457,-1272.5 457,-1302.5 710,-1302.5 710,-1272.5 457,-1272.5"/>
<text text-anchor="start" x="464" y="-1283.9" font-family="Arial" font-size="14.00" fill="#000000">is_published </text>
<text text-anchor="start" x="545.6886" y="-1283.9" font-family="Arial" font-size="14.00" fill="#666666">[tinyint(1)]</text>
<polygon fill="none" stroke="#000000" points="457,-1242.5 457,-1272.5 710,-1272.5 710,-1242.5 457,-1242.5"/>
<text text-anchor="start" x="464" y="-1253.9" font-family="Arial" font-size="14.00" fill="#000000">date_added </text>
<text text-anchor="start" x="541.8246" y="-1253.9" font-family="Arial" font-size="14.00" fill="#666666">[datetime]</text>
<polygon fill="none" stroke="#000000" points="457,-1212.5 457,-1242.5 710,-1242.5 710,-1212.5 457,-1212.5"/>
<text text-anchor="start" x="464" y="-1223.9" font-family="Arial" font-size="14.00" fill="#000000">created_by </text>
<text text-anchor="start" x="537.1374" y="-1223.9" font-family="Arial" font-size="14.00" fill="#666666">[int(11)]</text>
<polygon fill="none" stroke="#000000" points="457,-1182.5 457,-1212.5 710,-1212.5 710,-1182.5 457,-1182.5"/>
<text text-anchor="start" x="464" y="-1193.9" font-family="Arial" font-size="14.00" fill="#000000">created_by_user </text>
<text text-anchor="start" x="572.1458" y="-1193.9" font-family="Arial" font-size="14.00" fill="#666666">[varchar(191)]</text>
<polygon fill="none" stroke="#000000" points="457,-1152.5 457,-1182.5 710,-1182.5 710,-1152.5 457,-1152.5"/>
<text text-anchor="start" x="464" y="-1163.9" font-family="Arial" font-size="14.00" fill="#000000">date_modified </text>
<text text-anchor="start" x="555.8064" y="-1163.9" font-family="Arial" font-size="14.00" fill="#666666">[datetime]</text>
<polygon fill="none" stroke="#000000" points="457,-1122.5 457,-1152.5 710,-1152.5 710,-1122.5 457,-1122.5"/>
<text text-anchor="start" x="464" y="-1133.9" font-family="Arial" font-size="14.00" fill="#000000">modified_by </text>
<text text-anchor="start" x="543.3506" y="-1133.9" font-family="Arial" font-size="14.00" fill="#666666">[int(11)]</text>
<polygon fill="none" stroke="#000000" points="457,-1092.5 457,-1122.5 710,-1122.5 710,-1092.5 457,-1092.5"/>
<text text-anchor="start" x="464" y="-1103.9" font-family="Arial" font-size="14.00" fill="#000000">modified_by_user </text>
<text text-anchor="start" x="578.359" y="-1103.9" font-family="Arial" font-size="14.00" fill="#666666">[varchar(191)]</text>
<polygon fill="none" stroke="#000000" points="457,-1062.5 457,-1092.5 710,-1092.5 710,-1062.5 457,-1062.5"/>
<text text-anchor="start" x="464" y="-1073.9" font-family="Arial" font-size="14.00" fill="#000000">checked_out </text>
<text text-anchor="start" x="547.2594" y="-1073.9" font-family="Arial" font-size="14.00" fill="#666666">[datetime]</text>
<polygon fill="none" stroke="#000000" points="457,-1032.5 457,-1062.5 710,-1062.5 710,-1032.5 457,-1032.5"/>
<text text-anchor="start" x="464" y="-1043.9" font-family="Arial" font-size="14.00" fill="#000000">checked_out_by </text>
<text text-anchor="start" x="569.8246" y="-1043.9" font-family="Arial" font-size="14.00" fill="#666666">[int(11)]</text>
<polygon fill="none" stroke="#000000" points="457,-1002.5 457,-1032.5 710,-1032.5 710,-1002.5 457,-1002.5"/>
<text text-anchor="start" x="464" y="-1013.9" font-family="Arial" font-size="14.00" fill="#000000">checked_out_by_user </text>
<text text-anchor="start" x="604.833" y="-1013.9" font-family="Arial" font-size="14.00" fill="#666666">[varchar(191)]</text>
<polygon fill="none" stroke="#000000" points="457,-972.5 457,-1002.5 710,-1002.5 710,-972.5 457,-972.5"/>
<text text-anchor="start" x="464" y="-983.9" font-family="Arial" font-size="14.00" fill="#000000">points </text>
<text text-anchor="start" x="505.2356" y="-983.9" font-family="Arial" font-size="14.00" fill="#666666">[int(11)]</text>
<polygon fill="none" stroke="#000000" points="457,-942.5 457,-972.5 710,-972.5 710,-942.5 457,-942.5"/>
<text text-anchor="start" x="464" y="-953.9" font-family="Arial" font-size="14.00" fill="#000000">last_active </text>
<text text-anchor="start" x="534.0154" y="-953.9" font-family="Arial" font-size="14.00" fill="#666666">[datetime]</text>
<polygon fill="none" stroke="#000000" points="457,-912.5 457,-942.5 710,-942.5 710,-912.5 457,-912.5"/>
<text text-anchor="start" x="464" y="-923.9" font-family="Arial" font-size="14.00" fill="#000000">internal </text>
<text text-anchor="start" x="513.7854" y="-923.9" font-family="Arial" font-size="14.00" fill="#666666">[longtext]</text>
<polygon fill="none" stroke="#000000" points="457,-882.5 457,-912.5 710,-912.5 710,-882.5 457,-882.5"/>
<text text-anchor="start" x="464" y="-893.9" font-family="Arial" font-size="14.00" fill="#000000">social_cache </text>
<text text-anchor="start" x="548.7994" y="-893.9" font-family="Arial" font-size="14.00" fill="#666666">[longtext]</text>
<polygon fill="none" stroke="#000000" points="457,-852.5 457,-882.5 710,-882.5 710,-852.5 457,-852.5"/>
<text text-anchor="start" x="464" y="-863.9" font-family="Arial" font-size="14.00" fill="#000000">date_identified </text>
<text text-anchor="start" x="558.9256" y="-863.9" font-family="Arial" font-size="14.00" fill="#666666">[datetime]</text>
<polygon fill="none" stroke="#000000" points="457,-822.5 457,-852.5 710,-852.5 710,-822.5 457,-822.5"/>
<text text-anchor="start" x="463.7062" y="-833.9" font-family="Arial" font-size="14.00" fill="#000000">preferred_profile_image </text>
<text text-anchor="start" x="616.1746" y="-833.9" font-family="Arial" font-size="14.00" fill="#666666">[varchar(191)]</text>
<polygon fill="none" stroke="#000000" points="457,-792.5 457,-822.5 710,-822.5 710,-792.5 457,-792.5"/>
<text text-anchor="start" x="464" y="-803.9" font-family="Arial" font-size="14.00" fill="#000000">title </text>
<text text-anchor="start" x="489.6676" y="-803.9" font-family="Arial" font-size="14.00" fill="#666666">[varchar(191)]</text>
<polygon fill="none" stroke="#000000" points="457,-762.5 457,-792.5 710,-792.5 710,-762.5 457,-762.5"/>
<text text-anchor="start" x="464" y="-773.9" font-family="Arial" font-size="14.00" fill="#000000">firstname </text>
<text text-anchor="start" x="525.4474" y="-773.9" font-family="Arial" font-size="14.00" fill="#666666">[varchar(191)]</text>
<polygon fill="none" stroke="#000000" points="457,-732.5 457,-762.5 710,-762.5 710,-732.5 457,-732.5"/>
<text text-anchor="start" x="464" y="-743.9" font-family="Arial" font-size="14.00" fill="#000000">lastname </text>
<text text-anchor="start" x="524.6788" y="-743.9" font-family="Arial" font-size="14.00" fill="#666666">[varchar(191)]</text>
<polygon fill="none" stroke="#000000" points="457,-702.5 457,-732.5 710,-732.5 710,-702.5 457,-702.5"/>
<text text-anchor="start" x="464" y="-713.9" font-family="Arial" font-size="14.00" fill="#000000">company </text>
<text text-anchor="start" x="524.6816" y="-713.9" font-family="Arial" font-size="14.00" fill="#666666">[varchar(191)]</text>
<polygon fill="none" stroke="#000000" points="457,-672.5 457,-702.5 710,-702.5 710,-672.5 457,-672.5"/>
<text text-anchor="start" x="464" y="-683.9" font-family="Arial" font-size="14.00" fill="#000000">position </text>
<text text-anchor="start" x="516.1248" y="-683.9" font-family="Arial" font-size="14.00" fill="#666666">[varchar(191)]</text>
<polygon fill="none" stroke="#000000" points="457,-642.5 457,-672.5 710,-672.5 710,-642.5 457,-642.5"/>
<text text-anchor="start" x="464" y="-653.9" font-family="Arial" font-size="14.00" fill="#000000">email </text>
<text text-anchor="start" x="501.3296" y="-653.9" font-family="Arial" font-size="14.00" fill="#666666">[varchar(191)]</text>
<polygon fill="none" stroke="#000000" points="457,-612.5 457,-642.5 710,-642.5 710,-612.5 457,-612.5"/>
<text text-anchor="start" x="464" y="-623.9" font-family="Arial" font-size="14.00" fill="#000000">phone </text>
<text text-anchor="start" x="506.8036" y="-623.9" font-family="Arial" font-size="14.00" fill="#666666">[varchar(191)]</text>
<polygon fill="none" stroke="#000000" points="457,-582.5 457,-612.5 710,-612.5 710,-582.5 457,-582.5"/>
<text text-anchor="start" x="464" y="-593.9" font-family="Arial" font-size="14.00" fill="#000000">mobile </text>
<text text-anchor="start" x="509.1122" y="-593.9" font-family="Arial" font-size="14.00" fill="#666666">[varchar(191)]</text>
<polygon fill="none" stroke="#000000" points="457,-552.5 457,-582.5 710,-582.5 710,-552.5 457,-552.5"/>
<text text-anchor="start" x="464" y="-563.9" font-family="Arial" font-size="14.00" fill="#000000">address1 </text>
<text text-anchor="start" x="525.4642" y="-563.9" font-family="Arial" font-size="14.00" fill="#666666">[varchar(191)]</text>
<polygon fill="none" stroke="#000000" points="457,-522.5 457,-552.5 710,-552.5 710,-522.5 457,-522.5"/>
<text text-anchor="start" x="464" y="-533.9" font-family="Arial" font-size="14.00" fill="#000000">address2 </text>
<text text-anchor="start" x="525.4642" y="-533.9" font-family="Arial" font-size="14.00" fill="#666666">[varchar(191)]</text>
<polygon fill="none" stroke="#000000" points="457,-492.5 457,-522.5 710,-522.5 710,-492.5 457,-492.5"/>
<text text-anchor="start" x="464" y="-503.9" font-family="Arial" font-size="14.00" fill="#000000">city </text>
<text text-anchor="start" x="488.8878" y="-503.9" font-family="Arial" font-size="14.00" fill="#666666">[varchar(191)]</text>
<polygon fill="none" stroke="#000000" points="457,-462.5 457,-492.5 710,-492.5 710,-462.5 457,-462.5"/>
<text text-anchor="start" x="464" y="-473.9" font-family="Arial" font-size="14.00" fill="#000000">state </text>
<text text-anchor="start" x="498.237" y="-473.9" font-family="Arial" font-size="14.00" fill="#666666">[varchar(191)]</text>
<polygon fill="none" stroke="#000000" points="457,-432.5 457,-462.5 710,-462.5 710,-432.5 457,-432.5"/>
<text text-anchor="start" x="464" y="-443.9" font-family="Arial" font-size="14.00" fill="#000000">zipcode </text>
<text text-anchor="start" x="516.1276" y="-443.9" font-family="Arial" font-size="14.00" fill="#666666">[varchar(191)]</text>
<polygon fill="none" stroke="#000000" points="457,-402.5 457,-432.5 710,-432.5 710,-402.5 457,-402.5"/>
<text text-anchor="start" x="464" y="-413.9" font-family="Arial" font-size="14.00" fill="#000000">timezone </text>
<text text-anchor="start" x="524.6788" y="-413.9" font-family="Arial" font-size="14.00" fill="#666666">[varchar(191)]</text>
<polygon fill="none" stroke="#000000" points="457,-372.5 457,-402.5 710,-402.5 710,-372.5 457,-372.5"/>
<text text-anchor="start" x="464" y="-383.9" font-family="Arial" font-size="14.00" fill="#000000">country </text>
<text text-anchor="start" x="513.7896" y="-383.9" font-family="Arial" font-size="14.00" fill="#666666">[varchar(191)]</text>
<polygon fill="none" stroke="#000000" points="457,-342.5 457,-372.5 710,-372.5 710,-342.5 457,-342.5"/>
<text text-anchor="start" x="464" y="-353.9" font-family="Arial" font-size="14.00" fill="#000000">fax </text>
<text text-anchor="start" x="486.5638" y="-353.9" font-family="Arial" font-size="14.00" fill="#666666">[varchar(255)]</text>
<polygon fill="none" stroke="#000000" points="457,-312.5 457,-342.5 710,-342.5 710,-312.5 457,-312.5"/>
<text text-anchor="start" x="464" y="-323.9" font-family="Arial" font-size="14.00" fill="#000000">preferred_locale </text>
<text text-anchor="start" x="569.0196" y="-323.9" font-family="Arial" font-size="14.00" fill="#666666">[varchar(255)]</text>
<polygon fill="none" stroke="#000000" points="457,-282.5 457,-312.5 710,-312.5 710,-282.5 457,-282.5"/>
<text text-anchor="start" x="464" y="-293.9" font-family="Arial" font-size="14.00" fill="#000000">attribution_date </text>
<text text-anchor="start" x="564.3702" y="-293.9" font-family="Arial" font-size="14.00" fill="#666666">[datetime]</text>
<polygon fill="none" stroke="#000000" points="457,-252.5 457,-282.5 710,-282.5 710,-252.5 457,-252.5"/>
<text text-anchor="start" x="464" y="-263.9" font-family="Arial" font-size="14.00" fill="#000000">attribution </text>
<text text-anchor="start" x="529.3492" y="-263.9" font-family="Arial" font-size="14.00" fill="#666666">[double]</text>
<polygon fill="none" stroke="#000000" points="457,-222.5 457,-252.5 710,-252.5 710,-222.5 457,-222.5"/>
<text text-anchor="start" x="464" y="-233.9" font-family="Arial" font-size="14.00" fill="#000000">website </text>
<text text-anchor="start" x="515.3422" y="-233.9" font-family="Arial" font-size="14.00" fill="#666666">[longtext]</text>
<polygon fill="none" stroke="#000000" points="457,-192.5 457,-222.5 710,-222.5 710,-192.5 457,-192.5"/>
<text text-anchor="start" x="464" y="-203.9" font-family="Arial" font-size="14.00" fill="#000000">facebook </text>
<text text-anchor="start" x="524.6942" y="-203.9" font-family="Arial" font-size="14.00" fill="#666666">[varchar(255)]</text>
<polygon fill="none" stroke="#000000" points="457,-162.5 457,-192.5 710,-192.5 710,-162.5 457,-162.5"/>
<text text-anchor="start" x="464" y="-173.9" font-family="Arial" font-size="14.00" fill="#000000">foursquare </text>
<text text-anchor="start" x="534.798" y="-173.9" font-family="Arial" font-size="14.00" fill="#666666">[varchar(255)]</text>
<polygon fill="none" stroke="#000000" points="457,-132.5 457,-162.5 710,-162.5 710,-132.5 457,-132.5"/>
<text text-anchor="start" x="464" y="-143.9" font-family="Arial" font-size="14.00" fill="#000000">instagram </text>
<text text-anchor="start" x="529.3394" y="-143.9" font-family="Arial" font-size="14.00" fill="#666666">[varchar(255)]</text>
<polygon fill="none" stroke="#000000" points="457,-102.5 457,-132.5 710,-132.5 710,-102.5 457,-102.5"/>
<text text-anchor="start" x="464" y="-113.9" font-family="Arial" font-size="14.00" fill="#000000">linkedin </text>
<text text-anchor="start" x="515.3408" y="-113.9" font-family="Arial" font-size="14.00" fill="#666666">[varchar(255)]</text>
<polygon fill="none" stroke="#000000" points="457,-72.5 457,-102.5 710,-102.5 710,-72.5 457,-72.5"/>
<text text-anchor="start" x="464" y="-83.9" font-family="Arial" font-size="14.00" fill="#000000">skype </text>
<text text-anchor="start" x="504.4558" y="-83.9" font-family="Arial" font-size="14.00" fill="#666666">[varchar(255)]</text>
<polygon fill="none" stroke="#000000" points="457,-42.5 457,-72.5 710,-72.5 710,-42.5 457,-42.5"/>
<text text-anchor="start" x="464" y="-53.9" font-family="Arial" font-size="14.00" fill="#000000">twitter </text>
<text text-anchor="start" x="505.2188" y="-53.9" font-family="Arial" font-size="14.00" fill="#666666">[varchar(255)]</text>
</g>
<!-- campaign_leads&#45;&gt;leads -->
<g id="edge2" class="edge">
<title>campaign_leads:lead_id&#45;&gt;leads:id</title>
<path fill="none" stroke="#000000" d="M539.3401,-1716.9116C619.0818,-1707.3504 576.2638,-1583.4744 529,-1507 510.1909,-1476.5662 475.8091,-1501.4338 457,-1471 435.153,-1435.6507 415.4444,-1377.5 457,-1377.5"/>
<polygon fill="#000000" stroke="#000000" points="538.9838,-1716.9318 528.7443,-1713.0073 533.9919,-1717.2159 529,-1717.5 529,-1717.5 529,-1717.5 533.9919,-1717.2159 529.2557,-1721.9927 538.9838,-1716.9318 538.9838,-1716.9318"/>
<text text-anchor="start" x="536.496" y="-1727.5" font-family="Arial" font-size="10.00" fill="#000000">FOREIGN KEY (lead_id) REFERENCES leads (id)</text>
</g>
</g>
</svg>
