<?xml version="1.0" encoding="UTF-8" standalone="no"?>
<!DOCTYPE svg PUBLIC "-//W3C//DTD SVG 1.1//EN"
 "http://www.w3.org/Graphics/SVG/1.1/DTD/svg11.dtd">
<!-- Generated by graphviz version 2.40.1 (20161225.0304)
 -->
<!-- Title: campaign_lead_event_log Pages: 1 -->
<svg width="1371pt" height="2309pt"
 viewBox="0.00 0.00 1371.00 2309.00" xmlns="http://www.w3.org/2000/svg" xmlns:xlink="http://www.w3.org/1999/xlink">
<g id="graph0" class="graph" transform="scale(1 1) rotate(0) translate(4 2305)">
<title>campaign_lead_event_log</title>
<polygon fill="#ffffff" stroke="transparent" points="-4,4 -4,-2305 1367,-2305 1367,4 -4,4"/>
<!-- campaign_lead_event_log -->
<g id="node1" class="node">
<title>campaign_lead_event_log</title>
<polygon fill="#efefef" stroke="transparent" points="541,-1972.5 541,-2007.5 862,-2007.5 862,-1972.5 541,-1972.5"/>
<polygon fill="none" stroke="#000000" points="541,-1972.5 541,-2007.5 862,-2007.5 862,-1972.5 541,-1972.5"/>
<text text-anchor="start" x="547.835" y="-1985.3" font-family="Arial Bold" font-size="18.00" fill="#000000">campaign_lead_event_log</text>
<text text-anchor="start" x="757.9112" y="-1985.3" font-family="Arial" font-size="14.00" fill="#000000"> </text>
<text text-anchor="start" x="761.8018" y="-1985.3" font-family="Arial" font-size="14.00" fill="#666666">[BASE TABLE]</text>
<polygon fill="none" stroke="#000000" points="541,-1942.5 541,-1972.5 862,-1972.5 862,-1942.5 541,-1942.5"/>
<text text-anchor="start" x="548" y="-1953.9" font-family="Arial" font-size="14.00" fill="#000000">id </text>
<text text-anchor="start" x="562.7798" y="-1953.9" font-family="Arial" font-size="14.00" fill="#666666">[bigint(20) unsigned]</text>
<polygon fill="none" stroke="#000000" points="541,-1912.5 541,-1942.5 862,-1942.5 862,-1912.5 541,-1912.5"/>
<text text-anchor="start" x="548" y="-1923.9" font-family="Arial" font-size="14.00" fill="#000000">event_id </text>
<text text-anchor="start" x="604.8008" y="-1923.9" font-family="Arial" font-size="14.00" fill="#666666">[int(10) unsigned]</text>
<polygon fill="none" stroke="#000000" points="541,-1882.5 541,-1912.5 862,-1912.5 862,-1882.5 541,-1882.5"/>
<text text-anchor="start" x="548" y="-1893.9" font-family="Arial" font-size="14.00" fill="#000000">lead_id </text>
<text text-anchor="start" x="597.0168" y="-1893.9" font-family="Arial" font-size="14.00" fill="#666666">[bigint(20) unsigned]</text>
<polygon fill="none" stroke="#000000" points="541,-1852.5 541,-1882.5 862,-1882.5 862,-1852.5 541,-1852.5"/>
<text text-anchor="start" x="548" y="-1863.9" font-family="Arial" font-size="14.00" fill="#000000">campaign_id </text>
<text text-anchor="start" x="631.2426" y="-1863.9" font-family="Arial" font-size="14.00" fill="#666666">[int(10) unsigned]</text>
<polygon fill="none" stroke="#000000" points="541,-1822.5 541,-1852.5 862,-1852.5 862,-1822.5 541,-1822.5"/>
<text text-anchor="start" x="548" y="-1833.9" font-family="Arial" font-size="14.00" fill="#000000">ip_id </text>
<text text-anchor="start" x="581.4516" y="-1833.9" font-family="Arial" font-size="14.00" fill="#666666">[int(10) unsigned]</text>
<polygon fill="none" stroke="#000000" points="541,-1792.5 541,-1822.5 862,-1822.5 862,-1792.5 541,-1792.5"/>
<text text-anchor="start" x="548" y="-1803.9" font-family="Arial" font-size="14.00" fill="#000000">rotation </text>
<text text-anchor="start" x="598.5694" y="-1803.9" font-family="Arial" font-size="14.00" fill="#666666">[int(11)]</text>
<polygon fill="none" stroke="#000000" points="541,-1762.5 541,-1792.5 862,-1792.5 862,-1762.5 541,-1762.5"/>
<text text-anchor="start" x="548" y="-1773.9" font-family="Arial" font-size="14.00" fill="#000000">date_triggered </text>
<text text-anchor="start" x="642.143" y="-1773.9" font-family="Arial" font-size="14.00" fill="#666666">[datetime]</text>
<polygon fill="none" stroke="#000000" points="541,-1732.5 541,-1762.5 862,-1762.5 862,-1732.5 541,-1732.5"/>
<text text-anchor="start" x="548" y="-1743.9" font-family="Arial" font-size="14.00" fill="#000000">is_scheduled </text>
<text text-anchor="start" x="633.582" y="-1743.9" font-family="Arial" font-size="14.00" fill="#666666">[tinyint(1)]</text>
<polygon fill="none" stroke="#000000" points="541,-1702.5 541,-1732.5 862,-1732.5 862,-1702.5 541,-1702.5"/>
<text text-anchor="start" x="548" y="-1713.9" font-family="Arial" font-size="14.00" fill="#000000">trigger_date </text>
<text text-anchor="start" x="626.5778" y="-1713.9" font-family="Arial" font-size="14.00" fill="#666666">[datetime]</text>
<polygon fill="none" stroke="#000000" points="541,-1672.5 541,-1702.5 862,-1702.5 862,-1672.5 541,-1672.5"/>
<text text-anchor="start" x="548" y="-1683.9" font-family="Arial" font-size="14.00" fill="#000000">system_triggered </text>
<text text-anchor="start" x="659.2384" y="-1683.9" font-family="Arial" font-size="14.00" fill="#666666">[tinyint(1)]</text>
<polygon fill="none" stroke="#000000" points="541,-1642.5 541,-1672.5 862,-1672.5 862,-1642.5 541,-1642.5"/>
<text text-anchor="start" x="548" y="-1653.9" font-family="Arial" font-size="14.00" fill="#000000">metadata </text>
<text text-anchor="start" x="610.2454" y="-1653.9" font-family="Arial" font-size="14.00" fill="#666666">[longtext]</text>
<polygon fill="none" stroke="#000000" points="541,-1612.5 541,-1642.5 862,-1642.5 862,-1612.5 541,-1612.5"/>
<text text-anchor="start" x="548" y="-1623.9" font-family="Arial" font-size="14.00" fill="#000000">channel </text>
<text text-anchor="start" x="600.9102" y="-1623.9" font-family="Arial" font-size="14.00" fill="#666666">[varchar(191)]</text>
<polygon fill="none" stroke="#000000" points="541,-1582.5 541,-1612.5 862,-1612.5 862,-1582.5 541,-1582.5"/>
<text text-anchor="start" x="548" y="-1593.9" font-family="Arial" font-size="14.00" fill="#000000">channel_id </text>
<text text-anchor="start" x="619.582" y="-1593.9" font-family="Arial" font-size="14.00" fill="#666666">[int(11)]</text>
<polygon fill="none" stroke="#000000" points="541,-1552.5 541,-1582.5 862,-1582.5 862,-1552.5 541,-1552.5"/>
<text text-anchor="start" x="548" y="-1563.9" font-family="Arial" font-size="14.00" fill="#000000">non_action_path_taken </text>
<text text-anchor="start" x="697.408" y="-1563.9" font-family="Arial" font-size="14.00" fill="#666666">[tinyint(1)]</text>
<polygon fill="none" stroke="#000000" stroke-width="3" points="539,-1551.5 539,-2009.5 863,-2009.5 863,-1551.5 539,-1551.5"/>
</g>
<!-- campaign_events -->
<g id="node3" class="node">
<title>campaign_events</title>
<polygon fill="#efefef" stroke="transparent" points="43,-1032.5 43,-1067.5 295,-1067.5 295,-1032.5 43,-1032.5"/>
<polygon fill="none" stroke="#000000" points="43,-1032.5 43,-1067.5 295,-1067.5 295,-1032.5 43,-1032.5"/>
<text text-anchor="start" x="49.8509" y="-1045.3" font-family="Arial Bold" font-size="18.00" fill="#000000">campaign_events</text>
<text text-anchor="start" x="190.8953" y="-1045.3" font-family="Arial" font-size="14.00" fill="#000000"> </text>
<text text-anchor="start" x="194.7859" y="-1045.3" font-family="Arial" font-size="14.00" fill="#666666">[BASE TABLE]</text>
<polygon fill="none" stroke="#000000" points="43,-1002.5 43,-1032.5 295,-1032.5 295,-1002.5 43,-1002.5"/>
<text text-anchor="start" x="50" y="-1013.9" font-family="Arial" font-size="14.00" fill="#000000">id </text>
<text text-anchor="start" x="64.7798" y="-1013.9" font-family="Arial" font-size="14.00" fill="#666666">[int(10) unsigned]</text>
<polygon fill="none" stroke="#000000" points="43,-972.5 43,-1002.5 295,-1002.5 295,-972.5 43,-972.5"/>
<text text-anchor="start" x="50" y="-983.9" font-family="Arial" font-size="14.00" fill="#000000">campaign_id </text>
<text text-anchor="start" x="133.2426" y="-983.9" font-family="Arial" font-size="14.00" fill="#666666">[int(10) unsigned]</text>
<polygon fill="none" stroke="#000000" points="43,-942.5 43,-972.5 295,-972.5 295,-942.5 43,-942.5"/>
<text text-anchor="start" x="50" y="-953.9" font-family="Arial" font-size="14.00" fill="#000000">parent_id </text>
<text text-anchor="start" x="112.244" y="-953.9" font-family="Arial" font-size="14.00" fill="#666666">[int(10) unsigned]</text>
<polygon fill="none" stroke="#000000" points="43,-912.5 43,-942.5 295,-942.5 295,-912.5 43,-912.5"/>
<text text-anchor="start" x="50" y="-923.9" font-family="Arial" font-size="14.00" fill="#000000">name </text>
<text text-anchor="start" x="88.899" y="-923.9" font-family="Arial" font-size="14.00" fill="#666666">[varchar(191)]</text>
<polygon fill="none" stroke="#000000" points="43,-882.5 43,-912.5 295,-912.5 295,-882.5 43,-882.5"/>
<text text-anchor="start" x="50" y="-893.9" font-family="Arial" font-size="14.00" fill="#000000">description </text>
<text text-anchor="start" x="121.568" y="-893.9" font-family="Arial" font-size="14.00" fill="#666666">[longtext]</text>
<polygon fill="none" stroke="#000000" points="43,-852.5 43,-882.5 295,-882.5 295,-852.5 43,-852.5"/>
<text text-anchor="start" x="50" y="-863.9" font-family="Arial" font-size="14.00" fill="#000000">type </text>
<text text-anchor="start" x="80.3464" y="-863.9" font-family="Arial" font-size="14.00" fill="#666666">[varchar(50)]</text>
<polygon fill="none" stroke="#000000" points="43,-822.5 43,-852.5 295,-852.5 295,-822.5 43,-822.5"/>
<text text-anchor="start" x="50" y="-833.9" font-family="Arial" font-size="14.00" fill="#000000">event_type </text>
<text text-anchor="start" x="122.3674" y="-833.9" font-family="Arial" font-size="14.00" fill="#666666">[varchar(50)]</text>
<polygon fill="none" stroke="#000000" points="43,-792.5 43,-822.5 295,-822.5 295,-792.5 43,-792.5"/>
<text text-anchor="start" x="50" y="-803.9" font-family="Arial" font-size="14.00" fill="#000000">event_order </text>
<text text-anchor="start" x="128.5806" y="-803.9" font-family="Arial" font-size="14.00" fill="#666666">[int(11)]</text>
<polygon fill="none" stroke="#000000" points="43,-762.5 43,-792.5 295,-792.5 295,-762.5 43,-762.5"/>
<text text-anchor="start" x="50" y="-773.9" font-family="Arial" font-size="14.00" fill="#000000">properties </text>
<text text-anchor="start" x="116.122" y="-773.9" font-family="Arial" font-size="14.00" fill="#666666">[longtext]</text>
<polygon fill="none" stroke="#000000" points="43,-732.5 43,-762.5 295,-762.5 295,-732.5 43,-732.5"/>
<text text-anchor="start" x="50" y="-743.9" font-family="Arial" font-size="14.00" fill="#000000">trigger_date </text>
<text text-anchor="start" x="128.5778" y="-743.9" font-family="Arial" font-size="14.00" fill="#666666">[datetime]</text>
<polygon fill="none" stroke="#000000" points="43,-702.5 43,-732.5 295,-732.5 295,-702.5 43,-702.5"/>
<text text-anchor="start" x="50" y="-713.9" font-family="Arial" font-size="14.00" fill="#000000">trigger_interval </text>
<text text-anchor="start" x="146.4516" y="-713.9" font-family="Arial" font-size="14.00" fill="#666666">[int(11)]</text>
<polygon fill="none" stroke="#000000" points="43,-672.5 43,-702.5 295,-702.5 295,-672.5 43,-672.5"/>
<text text-anchor="start" x="50" y="-683.9" font-family="Arial" font-size="14.00" fill="#000000">trigger_interval_unit </text>
<text text-anchor="start" x="176.7966" y="-683.9" font-family="Arial" font-size="14.00" fill="#666666">[varchar(1)]</text>
<polygon fill="none" stroke="#000000" points="43,-642.5 43,-672.5 295,-672.5 295,-642.5 43,-642.5"/>
<text text-anchor="start" x="50" y="-653.9" font-family="Arial" font-size="14.00" fill="#000000">trigger_hour </text>
<text text-anchor="start" x="129.3478" y="-653.9" font-family="Arial" font-size="14.00" fill="#666666">[time]</text>
<polygon fill="none" stroke="#000000" points="43,-612.5 43,-642.5 295,-642.5 295,-612.5 43,-612.5"/>
<text text-anchor="start" x="50" y="-623.9" font-family="Arial" font-size="14.00" fill="#000000">trigger_restricted_start_hour </text>
<text text-anchor="start" x="229.6942" y="-623.9" font-family="Arial" font-size="14.00" fill="#666666">[time]</text>
<polygon fill="none" stroke="#000000" points="43,-582.5 43,-612.5 295,-612.5 295,-582.5 43,-582.5"/>
<text text-anchor="start" x="50" y="-593.9" font-family="Arial" font-size="14.00" fill="#000000">trigger_restricted_stop_hour </text>
<text text-anchor="start" x="228.9256" y="-593.9" font-family="Arial" font-size="14.00" fill="#666666">[time]</text>
<polygon fill="none" stroke="#000000" points="43,-552.5 43,-582.5 295,-582.5 295,-552.5 43,-552.5"/>
<text text-anchor="start" x="50" y="-563.9" font-family="Arial" font-size="14.00" fill="#000000">trigger_restricted_dow </text>
<text text-anchor="start" x="192.3506" y="-563.9" font-family="Arial" font-size="14.00" fill="#666666">[longtext]</text>
<polygon fill="none" stroke="#000000" points="43,-522.5 43,-552.5 295,-552.5 295,-522.5 43,-522.5"/>
<text text-anchor="start" x="50" y="-533.9" font-family="Arial" font-size="14.00" fill="#000000">trigger_mode </text>
<text text-anchor="start" x="136.3478" y="-533.9" font-family="Arial" font-size="14.00" fill="#666666">[varchar(10)]</text>
<polygon fill="none" stroke="#000000" points="43,-492.5 43,-522.5 295,-522.5 295,-492.5 43,-492.5"/>
<text text-anchor="start" x="50" y="-503.9" font-family="Arial" font-size="14.00" fill="#000000">decision_path </text>
<text text-anchor="start" x="140.2552" y="-503.9" font-family="Arial" font-size="14.00" fill="#666666">[varchar(191)]</text>
<polygon fill="none" stroke="#000000" points="43,-462.5 43,-492.5 295,-492.5 295,-462.5 43,-462.5"/>
<text text-anchor="start" x="50" y="-473.9" font-family="Arial" font-size="14.00" fill="#000000">temp_id </text>
<text text-anchor="start" x="103.6788" y="-473.9" font-family="Arial" font-size="14.00" fill="#666666">[varchar(191)]</text>
<polygon fill="none" stroke="#000000" points="43,-432.5 43,-462.5 295,-462.5 295,-432.5 43,-432.5"/>
<text text-anchor="start" x="50" y="-443.9" font-family="Arial" font-size="14.00" fill="#000000">channel </text>
<text text-anchor="start" x="102.9102" y="-443.9" font-family="Arial" font-size="14.00" fill="#666666">[varchar(191)]</text>
<polygon fill="none" stroke="#000000" points="43,-402.5 43,-432.5 295,-432.5 295,-402.5 43,-402.5"/>
<text text-anchor="start" x="50" y="-413.9" font-family="Arial" font-size="14.00" fill="#000000">channel_id </text>
<text text-anchor="start" x="121.582" y="-413.9" font-family="Arial" font-size="14.00" fill="#666666">[int(11)]</text>
</g>
<!-- campaign_lead_event_log&#45;&gt;campaign_events -->
<g id="edge2" class="edge">
<title>campaign_lead_event_log:event_id&#45;&gt;campaign_events:id</title>
<path fill="none" stroke="#000000" d="M530.8868,-1927.3228C323.1005,-1919.9028 402.3697,-1680.8227 347,-1471 334.0589,-1421.9597 345.7191,-1017.5 295,-1017.5"/>
<polygon fill="#000000" stroke="#000000" points="531.0015,-1927.3247 540.9211,-1931.9993 536.0008,-1927.4124 541,-1927.5 541,-1927.5 541,-1927.5 536.0008,-1927.4124 541.0789,-1923.0007 531.0015,-1927.3247 531.0015,-1927.3247"/>
<text text-anchor="start" x="249.485" y="-1937.5" font-family="Arial" font-size="10.00" fill="#000000">FOREIGN KEY (event_id) REFERENCES campaign_events (id)</text>
</g>
<!-- leads -->
<g id="node4" class="node">
<title>leads</title>
<polygon fill="#efefef" stroke="transparent" points="400,-1392.5 400,-1427.5 653,-1427.5 653,-1392.5 400,-1392.5"/>
<polygon fill="none" stroke="#000000" points="400,-1392.5 400,-1427.5 653,-1427.5 653,-1392.5 400,-1392.5"/>
<text text-anchor="start" x="456.3667" y="-1405.3" font-family="Arial Bold" font-size="18.00" fill="#000000">leads</text>
<text text-anchor="start" x="499.3795" y="-1405.3" font-family="Arial" font-size="14.00" fill="#000000"> </text>
<text text-anchor="start" x="503.2701" y="-1405.3" font-family="Arial" font-size="14.00" fill="#666666">[BASE TABLE]</text>
<polygon fill="none" stroke="#000000" points="400,-1362.5 400,-1392.5 653,-1392.5 653,-1362.5 400,-1362.5"/>
<text text-anchor="start" x="407" y="-1373.9" font-family="Arial" font-size="14.00" fill="#000000">id </text>
<text text-anchor="start" x="421.7798" y="-1373.9" font-family="Arial" font-size="14.00" fill="#666666">[bigint(20) unsigned]</text>
<polygon fill="none" stroke="#000000" points="400,-1332.5 400,-1362.5 653,-1362.5 653,-1332.5 400,-1332.5"/>
<text text-anchor="start" x="407" y="-1343.9" font-family="Arial" font-size="14.00" fill="#000000">owner_id </text>
<text text-anchor="start" x="467.6774" y="-1343.9" font-family="Arial" font-size="14.00" fill="#666666">[int(10) unsigned]</text>
<polygon fill="none" stroke="#000000" points="400,-1302.5 400,-1332.5 653,-1332.5 653,-1302.5 400,-1302.5"/>
<text text-anchor="start" x="407" y="-1313.9" font-family="Arial" font-size="14.00" fill="#000000">stage_id </text>
<text text-anchor="start" x="463.8008" y="-1313.9" font-family="Arial" font-size="14.00" fill="#666666">[int(10) unsigned]</text>
<polygon fill="none" stroke="#000000" points="400,-1272.5 400,-1302.5 653,-1302.5 653,-1272.5 400,-1272.5"/>
<text text-anchor="start" x="407" y="-1283.9" font-family="Arial" font-size="14.00" fill="#000000">is_published </text>
<text text-anchor="start" x="488.6886" y="-1283.9" font-family="Arial" font-size="14.00" fill="#666666">[tinyint(1)]</text>
<polygon fill="none" stroke="#000000" points="400,-1242.5 400,-1272.5 653,-1272.5 653,-1242.5 400,-1242.5"/>
<text text-anchor="start" x="407" y="-1253.9" font-family="Arial" font-size="14.00" fill="#000000">date_added </text>
<text text-anchor="start" x="484.8246" y="-1253.9" font-family="Arial" font-size="14.00" fill="#666666">[datetime]</text>
<polygon fill="none" stroke="#000000" points="400,-1212.5 400,-1242.5 653,-1242.5 653,-1212.5 400,-1212.5"/>
<text text-anchor="start" x="407" y="-1223.9" font-family="Arial" font-size="14.00" fill="#000000">created_by </text>
<text text-anchor="start" x="480.1374" y="-1223.9" font-family="Arial" font-size="14.00" fill="#666666">[int(11)]</text>
<polygon fill="none" stroke="#000000" points="400,-1182.5 400,-1212.5 653,-1212.5 653,-1182.5 400,-1182.5"/>
<text text-anchor="start" x="407" y="-1193.9" font-family="Arial" font-size="14.00" fill="#000000">created_by_user </text>
<text text-anchor="start" x="515.1458" y="-1193.9" font-family="Arial" font-size="14.00" fill="#666666">[varchar(191)]</text>
<polygon fill="none" stroke="#000000" points="400,-1152.5 400,-1182.5 653,-1182.5 653,-1152.5 400,-1152.5"/>
<text text-anchor="start" x="407" y="-1163.9" font-family="Arial" font-size="14.00" fill="#000000">date_modified </text>
<text text-anchor="start" x="498.8064" y="-1163.9" font-family="Arial" font-size="14.00" fill="#666666">[datetime]</text>
<polygon fill="none" stroke="#000000" points="400,-1122.5 400,-1152.5 653,-1152.5 653,-1122.5 400,-1122.5"/>
<text text-anchor="start" x="407" y="-1133.9" font-family="Arial" font-size="14.00" fill="#000000">modified_by </text>
<text text-anchor="start" x="486.3506" y="-1133.9" font-family="Arial" font-size="14.00" fill="#666666">[int(11)]</text>
<polygon fill="none" stroke="#000000" points="400,-1092.5 400,-1122.5 653,-1122.5 653,-1092.5 400,-1092.5"/>
<text text-anchor="start" x="407" y="-1103.9" font-family="Arial" font-size="14.00" fill="#000000">modified_by_user </text>
<text text-anchor="start" x="521.359" y="-1103.9" font-family="Arial" font-size="14.00" fill="#666666">[varchar(191)]</text>
<polygon fill="none" stroke="#000000" points="400,-1062.5 400,-1092.5 653,-1092.5 653,-1062.5 400,-1062.5"/>
<text text-anchor="start" x="407" y="-1073.9" font-family="Arial" font-size="14.00" fill="#000000">checked_out </text>
<text text-anchor="start" x="490.2594" y="-1073.9" font-family="Arial" font-size="14.00" fill="#666666">[datetime]</text>
<polygon fill="none" stroke="#000000" points="400,-1032.5 400,-1062.5 653,-1062.5 653,-1032.5 400,-1032.5"/>
<text text-anchor="start" x="407" y="-1043.9" font-family="Arial" font-size="14.00" fill="#000000">checked_out_by </text>
<text text-anchor="start" x="512.8246" y="-1043.9" font-family="Arial" font-size="14.00" fill="#666666">[int(11)]</text>
<polygon fill="none" stroke="#000000" points="400,-1002.5 400,-1032.5 653,-1032.5 653,-1002.5 400,-1002.5"/>
<text text-anchor="start" x="407" y="-1013.9" font-family="Arial" font-size="14.00" fill="#000000">checked_out_by_user </text>
<text text-anchor="start" x="547.833" y="-1013.9" font-family="Arial" font-size="14.00" fill="#666666">[varchar(191)]</text>
<polygon fill="none" stroke="#000000" points="400,-972.5 400,-1002.5 653,-1002.5 653,-972.5 400,-972.5"/>
<text text-anchor="start" x="407" y="-983.9" font-family="Arial" font-size="14.00" fill="#000000">points </text>
<text text-anchor="start" x="448.2356" y="-983.9" font-family="Arial" font-size="14.00" fill="#666666">[int(11)]</text>
<polygon fill="none" stroke="#000000" points="400,-942.5 400,-972.5 653,-972.5 653,-942.5 400,-942.5"/>
<text text-anchor="start" x="407" y="-953.9" font-family="Arial" font-size="14.00" fill="#000000">last_active </text>
<text text-anchor="start" x="477.0154" y="-953.9" font-family="Arial" font-size="14.00" fill="#666666">[datetime]</text>
<polygon fill="none" stroke="#000000" points="400,-912.5 400,-942.5 653,-942.5 653,-912.5 400,-912.5"/>
<text text-anchor="start" x="407" y="-923.9" font-family="Arial" font-size="14.00" fill="#000000">internal </text>
<text text-anchor="start" x="456.7854" y="-923.9" font-family="Arial" font-size="14.00" fill="#666666">[longtext]</text>
<polygon fill="none" stroke="#000000" points="400,-882.5 400,-912.5 653,-912.5 653,-882.5 400,-882.5"/>
<text text-anchor="start" x="407" y="-893.9" font-family="Arial" font-size="14.00" fill="#000000">social_cache </text>
<text text-anchor="start" x="491.7994" y="-893.9" font-family="Arial" font-size="14.00" fill="#666666">[longtext]</text>
<polygon fill="none" stroke="#000000" points="400,-852.5 400,-882.5 653,-882.5 653,-852.5 400,-852.5"/>
<text text-anchor="start" x="407" y="-863.9" font-family="Arial" font-size="14.00" fill="#000000">date_identified </text>
<text text-anchor="start" x="501.9256" y="-863.9" font-family="Arial" font-size="14.00" fill="#666666">[datetime]</text>
<polygon fill="none" stroke="#000000" points="400,-822.5 400,-852.5 653,-852.5 653,-822.5 400,-822.5"/>
<text text-anchor="start" x="406.7062" y="-833.9" font-family="Arial" font-size="14.00" fill="#000000">preferred_profile_image </text>
<text text-anchor="start" x="559.1746" y="-833.9" font-family="Arial" font-size="14.00" fill="#666666">[varchar(191)]</text>
<polygon fill="none" stroke="#000000" points="400,-792.5 400,-822.5 653,-822.5 653,-792.5 400,-792.5"/>
<text text-anchor="start" x="407" y="-803.9" font-family="Arial" font-size="14.00" fill="#000000">title </text>
<text text-anchor="start" x="432.6676" y="-803.9" font-family="Arial" font-size="14.00" fill="#666666">[varchar(191)]</text>
<polygon fill="none" stroke="#000000" points="400,-762.5 400,-792.5 653,-792.5 653,-762.5 400,-762.5"/>
<text text-anchor="start" x="407" y="-773.9" font-family="Arial" font-size="14.00" fill="#000000">firstname </text>
<text text-anchor="start" x="468.4474" y="-773.9" font-family="Arial" font-size="14.00" fill="#666666">[varchar(191)]</text>
<polygon fill="none" stroke="#000000" points="400,-732.5 400,-762.5 653,-762.5 653,-732.5 400,-732.5"/>
<text text-anchor="start" x="407" y="-743.9" font-family="Arial" font-size="14.00" fill="#000000">lastname </text>
<text text-anchor="start" x="467.6788" y="-743.9" font-family="Arial" font-size="14.00" fill="#666666">[varchar(191)]</text>
<polygon fill="none" stroke="#000000" points="400,-702.5 400,-732.5 653,-732.5 653,-702.5 400,-702.5"/>
<text text-anchor="start" x="407" y="-713.9" font-family="Arial" font-size="14.00" fill="#000000">company </text>
<text text-anchor="start" x="467.6816" y="-713.9" font-family="Arial" font-size="14.00" fill="#666666">[varchar(191)]</text>
<polygon fill="none" stroke="#000000" points="400,-672.5 400,-702.5 653,-702.5 653,-672.5 400,-672.5"/>
<text text-anchor="start" x="407" y="-683.9" font-family="Arial" font-size="14.00" fill="#000000">position </text>
<text text-anchor="start" x="459.1248" y="-683.9" font-family="Arial" font-size="14.00" fill="#666666">[varchar(191)]</text>
<polygon fill="none" stroke="#000000" points="400,-642.5 400,-672.5 653,-672.5 653,-642.5 400,-642.5"/>
<text text-anchor="start" x="407" y="-653.9" font-family="Arial" font-size="14.00" fill="#000000">email </text>
<text text-anchor="start" x="444.3296" y="-653.9" font-family="Arial" font-size="14.00" fill="#666666">[varchar(191)]</text>
<polygon fill="none" stroke="#000000" points="400,-612.5 400,-642.5 653,-642.5 653,-612.5 400,-612.5"/>
<text text-anchor="start" x="407" y="-623.9" font-family="Arial" font-size="14.00" fill="#000000">phone </text>
<text text-anchor="start" x="449.8036" y="-623.9" font-family="Arial" font-size="14.00" fill="#666666">[varchar(191)]</text>
<polygon fill="none" stroke="#000000" points="400,-582.5 400,-612.5 653,-612.5 653,-582.5 400,-582.5"/>
<text text-anchor="start" x="407" y="-593.9" font-family="Arial" font-size="14.00" fill="#000000">mobile </text>
<text text-anchor="start" x="452.1122" y="-593.9" font-family="Arial" font-size="14.00" fill="#666666">[varchar(191)]</text>
<polygon fill="none" stroke="#000000" points="400,-552.5 400,-582.5 653,-582.5 653,-552.5 400,-552.5"/>
<text text-anchor="start" x="407" y="-563.9" font-family="Arial" font-size="14.00" fill="#000000">address1 </text>
<text text-anchor="start" x="468.4642" y="-563.9" font-family="Arial" font-size="14.00" fill="#666666">[varchar(191)]</text>
<polygon fill="none" stroke="#000000" points="400,-522.5 400,-552.5 653,-552.5 653,-522.5 400,-522.5"/>
<text text-anchor="start" x="407" y="-533.9" font-family="Arial" font-size="14.00" fill="#000000">address2 </text>
<text text-anchor="start" x="468.4642" y="-533.9" font-family="Arial" font-size="14.00" fill="#666666">[varchar(191)]</text>
<polygon fill="none" stroke="#000000" points="400,-492.5 400,-522.5 653,-522.5 653,-492.5 400,-492.5"/>
<text text-anchor="start" x="407" y="-503.9" font-family="Arial" font-size="14.00" fill="#000000">city </text>
<text text-anchor="start" x="431.8878" y="-503.9" font-family="Arial" font-size="14.00" fill="#666666">[varchar(191)]</text>
<polygon fill="none" stroke="#000000" points="400,-462.5 400,-492.5 653,-492.5 653,-462.5 400,-462.5"/>
<text text-anchor="start" x="407" y="-473.9" font-family="Arial" font-size="14.00" fill="#000000">state </text>
<text text-anchor="start" x="441.237" y="-473.9" font-family="Arial" font-size="14.00" fill="#666666">[varchar(191)]</text>
<polygon fill="none" stroke="#000000" points="400,-432.5 400,-462.5 653,-462.5 653,-432.5 400,-432.5"/>
<text text-anchor="start" x="407" y="-443.9" font-family="Arial" font-size="14.00" fill="#000000">zipcode </text>
<text text-anchor="start" x="459.1276" y="-443.9" font-family="Arial" font-size="14.00" fill="#666666">[varchar(191)]</text>
<polygon fill="none" stroke="#000000" points="400,-402.5 400,-432.5 653,-432.5 653,-402.5 400,-402.5"/>
<text text-anchor="start" x="407" y="-413.9" font-family="Arial" font-size="14.00" fill="#000000">timezone </text>
<text text-anchor="start" x="467.6788" y="-413.9" font-family="Arial" font-size="14.00" fill="#666666">[varchar(191)]</text>
<polygon fill="none" stroke="#000000" points="400,-372.5 400,-402.5 653,-402.5 653,-372.5 400,-372.5"/>
<text text-anchor="start" x="407" y="-383.9" font-family="Arial" font-size="14.00" fill="#000000">country </text>
<text text-anchor="start" x="456.7896" y="-383.9" font-family="Arial" font-size="14.00" fill="#666666">[varchar(191)]</text>
<polygon fill="none" stroke="#000000" points="400,-342.5 400,-372.5 653,-372.5 653,-342.5 400,-342.5"/>
<text text-anchor="start" x="407" y="-353.9" font-family="Arial" font-size="14.00" fill="#000000">fax </text>
<text text-anchor="start" x="429.5638" y="-353.9" font-family="Arial" font-size="14.00" fill="#666666">[varchar(255)]</text>
<polygon fill="none" stroke="#000000" points="400,-312.5 400,-342.5 653,-342.5 653,-312.5 400,-312.5"/>
<text text-anchor="start" x="407" y="-323.9" font-family="Arial" font-size="14.00" fill="#000000">preferred_locale </text>
<text text-anchor="start" x="512.0196" y="-323.9" font-family="Arial" font-size="14.00" fill="#666666">[varchar(255)]</text>
<polygon fill="none" stroke="#000000" points="400,-282.5 400,-312.5 653,-312.5 653,-282.5 400,-282.5"/>
<text text-anchor="start" x="407" y="-293.9" font-family="Arial" font-size="14.00" fill="#000000">attribution_date </text>
<text text-anchor="start" x="507.3702" y="-293.9" font-family="Arial" font-size="14.00" fill="#666666">[datetime]</text>
<polygon fill="none" stroke="#000000" points="400,-252.5 400,-282.5 653,-282.5 653,-252.5 400,-252.5"/>
<text text-anchor="start" x="407" y="-263.9" font-family="Arial" font-size="14.00" fill="#000000">attribution </text>
<text text-anchor="start" x="472.3492" y="-263.9" font-family="Arial" font-size="14.00" fill="#666666">[double]</text>
<polygon fill="none" stroke="#000000" points="400,-222.5 400,-252.5 653,-252.5 653,-222.5 400,-222.5"/>
<text text-anchor="start" x="407" y="-233.9" font-family="Arial" font-size="14.00" fill="#000000">website </text>
<text text-anchor="start" x="458.3422" y="-233.9" font-family="Arial" font-size="14.00" fill="#666666">[longtext]</text>
<polygon fill="none" stroke="#000000" points="400,-192.5 400,-222.5 653,-222.5 653,-192.5 400,-192.5"/>
<text text-anchor="start" x="407" y="-203.9" font-family="Arial" font-size="14.00" fill="#000000">facebook </text>
<text text-anchor="start" x="467.6942" y="-203.9" font-family="Arial" font-size="14.00" fill="#666666">[varchar(255)]</text>
<polygon fill="none" stroke="#000000" points="400,-162.5 400,-192.5 653,-192.5 653,-162.5 400,-162.5"/>
<text text-anchor="start" x="407" y="-173.9" font-family="Arial" font-size="14.00" fill="#000000">foursquare </text>
<text text-anchor="start" x="477.798" y="-173.9" font-family="Arial" font-size="14.00" fill="#666666">[varchar(255)]</text>
<polygon fill="none" stroke="#000000" points="400,-132.5 400,-162.5 653,-162.5 653,-132.5 400,-132.5"/>
<text text-anchor="start" x="407" y="-143.9" font-family="Arial" font-size="14.00" fill="#000000">instagram </text>
<text text-anchor="start" x="472.3394" y="-143.9" font-family="Arial" font-size="14.00" fill="#666666">[varchar(255)]</text>
<polygon fill="none" stroke="#000000" points="400,-102.5 400,-132.5 653,-132.5 653,-102.5 400,-102.5"/>
<text text-anchor="start" x="407" y="-113.9" font-family="Arial" font-size="14.00" fill="#000000">linkedin </text>
<text text-anchor="start" x="458.3408" y="-113.9" font-family="Arial" font-size="14.00" fill="#666666">[varchar(255)]</text>
<polygon fill="none" stroke="#000000" points="400,-72.5 400,-102.5 653,-102.5 653,-72.5 400,-72.5"/>
<text text-anchor="start" x="407" y="-83.9" font-family="Arial" font-size="14.00" fill="#000000">skype </text>
<text text-anchor="start" x="447.4558" y="-83.9" font-family="Arial" font-size="14.00" fill="#666666">[varchar(255)]</text>
<polygon fill="none" stroke="#000000" points="400,-42.5 400,-72.5 653,-72.5 653,-42.5 400,-42.5"/>
<text text-anchor="start" x="407" y="-53.9" font-family="Arial" font-size="14.00" fill="#000000">twitter </text>
<text text-anchor="start" x="448.2188" y="-53.9" font-family="Arial" font-size="14.00" fill="#666666">[varchar(255)]</text>
</g>
<!-- campaign_lead_event_log&#45;&gt;leads -->
<g id="edge3" class="edge">
<title>campaign_lead_event_log:lead_id&#45;&gt;leads:id</title>
<path fill="none" stroke="#000000" d="M530.6294,-1897.1874C370.3827,-1887.282 440.8614,-1644.3718 541,-1507 571.7998,-1464.7484 622.2002,-1513.2516 653,-1471 677.4788,-1437.4195 694.5556,-1377.5 653,-1377.5"/>
<polygon fill="#000000" stroke="#000000" points="531.0045,-1897.1986 540.8644,-1901.998 536.0023,-1897.3493 541,-1897.5 541,-1897.5 541,-1897.5 536.0023,-1897.3493 541.1356,-1893.002 531.0045,-1897.1986 531.0045,-1897.1986"/>
<text text-anchor="start" x="309.496" y="-1907.5" font-family="Arial" font-size="10.00" fill="#000000">FOREIGN KEY (lead_id) REFERENCES leads (id)</text>
</g>
<!-- campaigns -->
<g id="node5" class="node">
<title>campaigns</title>
<polygon fill="#efefef" stroke="transparent" points="757,-987.5 757,-1022.5 998,-1022.5 998,-987.5 757,-987.5"/>
<polygon fill="none" stroke="#000000" points="757,-987.5 757,-1022.5 998,-1022.5 998,-987.5 757,-987.5"/>
<text text-anchor="start" x="785.3644" y="-1000.3" font-family="Arial Bold" font-size="18.00" fill="#000000">campaigns</text>
<text text-anchor="start" x="872.3818" y="-1000.3" font-family="Arial" font-size="14.00" fill="#000000"> </text>
<text text-anchor="start" x="876.2724" y="-1000.3" font-family="Arial" font-size="14.00" fill="#666666">[BASE TABLE]</text>
<polygon fill="none" stroke="#000000" points="757,-957.5 757,-987.5 998,-987.5 998,-957.5 757,-957.5"/>
<text text-anchor="start" x="764" y="-968.9" font-family="Arial" font-size="14.00" fill="#000000">id </text>
<text text-anchor="start" x="778.7798" y="-968.9" font-family="Arial" font-size="14.00" fill="#666666">[int(10) unsigned]</text>
<polygon fill="none" stroke="#000000" points="757,-927.5 757,-957.5 998,-957.5 998,-927.5 757,-927.5"/>
<text text-anchor="start" x="764" y="-938.9" font-family="Arial" font-size="14.00" fill="#000000">category_id </text>
<text text-anchor="start" x="840.244" y="-938.9" font-family="Arial" font-size="14.00" fill="#666666">[int(10) unsigned]</text>
<polygon fill="none" stroke="#000000" points="757,-897.5 757,-927.5 998,-927.5 998,-897.5 757,-897.5"/>
<text text-anchor="start" x="764" y="-908.9" font-family="Arial" font-size="14.00" fill="#000000">is_published </text>
<text text-anchor="start" x="845.6886" y="-908.9" font-family="Arial" font-size="14.00" fill="#666666">[tinyint(1)]</text>
<polygon fill="none" stroke="#000000" points="757,-867.5 757,-897.5 998,-897.5 998,-867.5 757,-867.5"/>
<text text-anchor="start" x="764" y="-878.9" font-family="Arial" font-size="14.00" fill="#000000">date_added </text>
<text text-anchor="start" x="841.8246" y="-878.9" font-family="Arial" font-size="14.00" fill="#666666">[datetime]</text>
<polygon fill="none" stroke="#000000" points="757,-837.5 757,-867.5 998,-867.5 998,-837.5 757,-837.5"/>
<text text-anchor="start" x="764" y="-848.9" font-family="Arial" font-size="14.00" fill="#000000">created_by </text>
<text text-anchor="start" x="837.1374" y="-848.9" font-family="Arial" font-size="14.00" fill="#666666">[int(11)]</text>
<polygon fill="none" stroke="#000000" points="757,-807.5 757,-837.5 998,-837.5 998,-807.5 757,-807.5"/>
<text text-anchor="start" x="764" y="-818.9" font-family="Arial" font-size="14.00" fill="#000000">created_by_user </text>
<text text-anchor="start" x="872.1458" y="-818.9" font-family="Arial" font-size="14.00" fill="#666666">[varchar(191)]</text>
<polygon fill="none" stroke="#000000" points="757,-777.5 757,-807.5 998,-807.5 998,-777.5 757,-777.5"/>
<text text-anchor="start" x="764" y="-788.9" font-family="Arial" font-size="14.00" fill="#000000">date_modified </text>
<text text-anchor="start" x="855.8064" y="-788.9" font-family="Arial" font-size="14.00" fill="#666666">[datetime]</text>
<polygon fill="none" stroke="#000000" points="757,-747.5 757,-777.5 998,-777.5 998,-747.5 757,-747.5"/>
<text text-anchor="start" x="764" y="-758.9" font-family="Arial" font-size="14.00" fill="#000000">modified_by </text>
<text text-anchor="start" x="843.3506" y="-758.9" font-family="Arial" font-size="14.00" fill="#666666">[int(11)]</text>
<polygon fill="none" stroke="#000000" points="757,-717.5 757,-747.5 998,-747.5 998,-717.5 757,-717.5"/>
<text text-anchor="start" x="764" y="-728.9" font-family="Arial" font-size="14.00" fill="#000000">modified_by_user </text>
<text text-anchor="start" x="878.359" y="-728.9" font-family="Arial" font-size="14.00" fill="#666666">[varchar(191)]</text>
<polygon fill="none" stroke="#000000" points="757,-687.5 757,-717.5 998,-717.5 998,-687.5 757,-687.5"/>
<text text-anchor="start" x="764" y="-698.9" font-family="Arial" font-size="14.00" fill="#000000">checked_out </text>
<text text-anchor="start" x="847.2594" y="-698.9" font-family="Arial" font-size="14.00" fill="#666666">[datetime]</text>
<polygon fill="none" stroke="#000000" points="757,-657.5 757,-687.5 998,-687.5 998,-657.5 757,-657.5"/>
<text text-anchor="start" x="764" y="-668.9" font-family="Arial" font-size="14.00" fill="#000000">checked_out_by </text>
<text text-anchor="start" x="869.8246" y="-668.9" font-family="Arial" font-size="14.00" fill="#666666">[int(11)]</text>
<polygon fill="none" stroke="#000000" points="757,-627.5 757,-657.5 998,-657.5 998,-627.5 757,-627.5"/>
<text text-anchor="start" x="763.5239" y="-638.9" font-family="Arial" font-size="14.00" fill="#000000">checked_out_by_user </text>
<text text-anchor="start" x="904.3569" y="-638.9" font-family="Arial" font-size="14.00" fill="#666666">[varchar(191)]</text>
<polygon fill="none" stroke="#000000" points="757,-597.5 757,-627.5 998,-627.5 998,-597.5 757,-597.5"/>
<text text-anchor="start" x="764" y="-608.9" font-family="Arial" font-size="14.00" fill="#000000">name </text>
<text text-anchor="start" x="802.899" y="-608.9" font-family="Arial" font-size="14.00" fill="#666666">[varchar(191)]</text>
<polygon fill="none" stroke="#000000" points="757,-567.5 757,-597.5 998,-597.5 998,-567.5 757,-567.5"/>
<text text-anchor="start" x="764" y="-578.9" font-family="Arial" font-size="14.00" fill="#000000">description </text>
<text text-anchor="start" x="835.568" y="-578.9" font-family="Arial" font-size="14.00" fill="#666666">[longtext]</text>
<polygon fill="none" stroke="#000000" points="757,-537.5 757,-567.5 998,-567.5 998,-537.5 757,-537.5"/>
<text text-anchor="start" x="764" y="-548.9" font-family="Arial" font-size="14.00" fill="#000000">publish_up </text>
<text text-anchor="start" x="835.582" y="-548.9" font-family="Arial" font-size="14.00" fill="#666666">[datetime]</text>
<polygon fill="none" stroke="#000000" points="757,-507.5 757,-537.5 998,-537.5 998,-507.5 757,-507.5"/>
<text text-anchor="start" x="764" y="-518.9" font-family="Arial" font-size="14.00" fill="#000000">publish_down </text>
<text text-anchor="start" x="853.4712" y="-518.9" font-family="Arial" font-size="14.00" fill="#666666">[datetime]</text>
<polygon fill="none" stroke="#000000" points="757,-477.5 757,-507.5 998,-507.5 998,-477.5 757,-477.5"/>
<text text-anchor="start" x="764" y="-488.9" font-family="Arial" font-size="14.00" fill="#000000">canvas_settings </text>
<text text-anchor="start" x="868.2566" y="-488.9" font-family="Arial" font-size="14.00" fill="#666666">[longtext]</text>
<polygon fill="none" stroke="#000000" points="757,-447.5 757,-477.5 998,-477.5 998,-447.5 757,-447.5"/>
<text text-anchor="start" x="764" y="-458.9" font-family="Arial" font-size="14.00" fill="#000000">allow_restart </text>
<text text-anchor="start" x="847.2258" y="-458.9" font-family="Arial" font-size="14.00" fill="#666666">[int(11)]</text>
</g>
<!-- campaign_lead_event_log&#45;&gt;campaigns -->
<g id="edge4" class="edge">
<title>campaign_lead_event_log:campaign_id&#45;&gt;campaigns:id</title>
<path fill="none" stroke="#000000" d="M872.0088,-1866.3832C1002.2117,-1835.5853 770.0627,-1177.2607 757,-1066 752.1544,-1024.7279 715.4444,-972.5 757,-972.5"/>
<polygon fill="#000000" stroke="#000000" points="871.9383,-1866.3909 861.5009,-1863.0278 866.9692,-1866.9455 862,-1867.5 862,-1867.5 862,-1867.5 866.9692,-1866.9455 862.4991,-1871.9722 871.9383,-1866.3909 871.9383,-1866.3909"/>
<text text-anchor="start" x="869.049" y="-1877.5" font-family="Arial" font-size="10.00" fill="#000000">FOREIGN KEY (campaign_id) REFERENCES campaigns (id)</text>
</g>
<!-- ip_addresses -->
<g id="node6" class="node">
<title>ip_addresses</title>
<polygon fill="#efefef" stroke="transparent" points="1102,-762.5 1102,-797.5 1320,-797.5 1320,-762.5 1102,-762.5"/>
<polygon fill="none" stroke="#000000" points="1102,-762.5 1102,-797.5 1320,-797.5 1320,-762.5 1102,-762.5"/>
<text text-anchor="start" x="1108.8582" y="-775.3" font-family="Arial Bold" font-size="18.00" fill="#000000">ip_addresses</text>
<text text-anchor="start" x="1215.888" y="-775.3" font-family="Arial" font-size="14.00" fill="#000000"> </text>
<text text-anchor="start" x="1219.7786" y="-775.3" font-family="Arial" font-size="14.00" fill="#666666">[BASE TABLE]</text>
<polygon fill="none" stroke="#000000" points="1102,-732.5 1102,-762.5 1320,-762.5 1320,-732.5 1102,-732.5"/>
<text text-anchor="start" x="1109" y="-743.9" font-family="Arial" font-size="14.00" fill="#000000">id </text>
<text text-anchor="start" x="1123.7798" y="-743.9" font-family="Arial" font-size="14.00" fill="#666666">[int(10) unsigned]</text>
<polygon fill="none" stroke="#000000" points="1102,-702.5 1102,-732.5 1320,-732.5 1320,-702.5 1102,-702.5"/>
<text text-anchor="start" x="1109" y="-713.9" font-family="Arial" font-size="14.00" fill="#000000">ip_address </text>
<text text-anchor="start" x="1181.3534" y="-713.9" font-family="Arial" font-size="14.00" fill="#666666">[varchar(45)]</text>
<polygon fill="none" stroke="#000000" points="1102,-672.5 1102,-702.5 1320,-702.5 1320,-672.5 1102,-672.5"/>
<text text-anchor="start" x="1109" y="-683.9" font-family="Arial" font-size="14.00" fill="#000000">ip_details </text>
<text text-anchor="start" x="1172.014" y="-683.9" font-family="Arial" font-size="14.00" fill="#666666">[longtext]</text>
</g>
<!-- campaign_lead_event_log&#45;&gt;ip_addresses -->
<g id="edge5" class="edge">
<title>campaign_lead_event_log:ip_id&#45;&gt;ip_addresses:id</title>
<path fill="none" stroke="#000000" d="M872.2133,-1837.2945C1043.412,-1830.261 1001.6055,-1643.9394 1050,-1471 1071.7193,-1393.3854 1021.4037,-747.5 1102,-747.5"/>
<polygon fill="#000000" stroke="#000000" points="871.998,-1837.2987 861.9094,-1833.0009 866.999,-1837.3994 862,-1837.5 862,-1837.5 862,-1837.5 866.999,-1837.3994 862.0906,-1841.9991 871.998,-1837.2987 871.998,-1837.2987"/>
<text text-anchor="start" x="869.2725" y="-1847.5" font-family="Arial" font-size="10.00" fill="#000000">FOREIGN KEY (ip_id) REFERENCES ip_addresses (id)</text>
</g>
<!-- campaign_lead_event_failed_log -->
<g id="node2" class="node">
<title>campaign_lead_event_failed_log</title>
<polygon fill="#efefef" stroke="transparent" points="515,-2222.5 515,-2257.5 889,-2257.5 889,-2222.5 515,-2222.5"/>
<polygon fill="none" stroke="#000000" points="515,-2222.5 515,-2257.5 889,-2257.5 889,-2222.5 515,-2222.5"/>
<text text-anchor="start" x="521.8273" y="-2235.3" font-family="Arial Bold" font-size="18.00" fill="#000000">campaign_lead_event_failed_log</text>
<text text-anchor="start" x="784.9189" y="-2235.3" font-family="Arial" font-size="14.00" fill="#000000"> </text>
<text text-anchor="start" x="788.8095" y="-2235.3" font-family="Arial" font-size="14.00" fill="#666666">[BASE TABLE]</text>
<polygon fill="none" stroke="#000000" points="515,-2192.5 515,-2222.5 889,-2222.5 889,-2192.5 515,-2192.5"/>
<text text-anchor="start" x="522" y="-2203.9" font-family="Arial" font-size="14.00" fill="#000000">log_id </text>
<text text-anchor="start" x="563.2342" y="-2203.9" font-family="Arial" font-size="14.00" fill="#666666">[bigint(20) unsigned]</text>
<polygon fill="none" stroke="#000000" points="515,-2162.5 515,-2192.5 889,-2192.5 889,-2162.5 515,-2162.5"/>
<text text-anchor="start" x="522" y="-2173.9" font-family="Arial" font-size="14.00" fill="#000000">date_added </text>
<text text-anchor="start" x="599.8246" y="-2173.9" font-family="Arial" font-size="14.00" fill="#666666">[datetime]</text>
<polygon fill="none" stroke="#000000" points="515,-2132.5 515,-2162.5 889,-2162.5 889,-2132.5 515,-2132.5"/>
<text text-anchor="start" x="522" y="-2143.9" font-family="Arial" font-size="14.00" fill="#000000">reason </text>
<text text-anchor="start" x="568.6816" y="-2143.9" font-family="Arial" font-size="14.00" fill="#666666">[longtext]</text>
</g>
<!-- campaign_lead_event_failed_log&#45;&gt;campaign_lead_event_log -->
<g id="edge1" class="edge">
<title>campaign_lead_event_failed_log:log_id&#45;&gt;campaign_lead_event_log:id</title>
<path fill="none" stroke="#000000" d="M504.9968,-2206.3738C465.2915,-2196.6281 482.4893,-2126.0581 515,-2090 566.913,-2032.4226 810.087,-2111.5774 862,-2054 890.7197,-2022.1466 904.8889,-1957.5 862,-1957.5"/>
<polygon fill="#000000" stroke="#000000" points="505.0628,-2206.3811 514.4965,-2211.9717 510.0314,-2206.9406 515,-2207.5 515,-2207.5 515,-2207.5 510.0314,-2206.9406 515.5035,-2203.0283 505.0628,-2206.3811 505.0628,-2206.3811"/>
<text text-anchor="start" x="195.869" y="-2217.5" font-family="Arial" font-size="10.00" fill="#000000">FOREIGN KEY (log_id) REFERENCES campaign_lead_event_log (id)</text>
</g>
</g>
</svg>
