<?xml version="1.0" encoding="UTF-8" standalone="no"?>
<!DOCTYPE svg PUBLIC "-//W3C//DTD SVG 1.1//EN"
 "http://www.w3.org/Graphics/SVG/1.1/DTD/svg11.dtd">
<!-- Generated by graphviz version 2.40.1 (20161225.0304)
 -->
<!-- Title: campaign_leadlist_xref Pages: 1 -->
<svg width="859pt" height="922pt"
 viewBox="0.00 0.00 859.00 922.00" xmlns="http://www.w3.org/2000/svg" xmlns:xlink="http://www.w3.org/1999/xlink">
<g id="graph0" class="graph" transform="scale(1 1) rotate(0) translate(4 918)">
<title>campaign_leadlist_xref</title>
<polygon fill="#ffffff" stroke="transparent" points="-4,4 -4,-918 855,-918 855,4 -4,4"/>
<!-- campaign_leadlist_xref -->
<g id="node1" class="node">
<title>campaign_leadlist_xref</title>
<polygon fill="#efefef" stroke="transparent" points="287,-832.5 287,-867.5 582,-867.5 582,-832.5 287,-832.5"/>
<polygon fill="none" stroke="#000000" points="287,-832.5 287,-867.5 582,-867.5 582,-832.5 287,-832.5"/>
<text text-anchor="start" x="293.8562" y="-845.3" font-family="Arial Bold" font-size="18.00" fill="#000000">campaign_leadlist_xref</text>
<text text-anchor="start" x="477.89" y="-845.3" font-family="Arial" font-size="14.00" fill="#000000"> </text>
<text text-anchor="start" x="481.7806" y="-845.3" font-family="Arial" font-size="14.00" fill="#666666">[BASE TABLE]</text>
<polygon fill="none" stroke="#000000" points="287,-802.5 287,-832.5 582,-832.5 582,-802.5 287,-802.5"/>
<text text-anchor="start" x="294" y="-813.9" font-family="Arial" font-size="14.00" fill="#000000">campaign_id </text>
<text text-anchor="start" x="377.2426" y="-813.9" font-family="Arial" font-size="14.00" fill="#666666">[int(10) unsigned]</text>
<polygon fill="none" stroke="#000000" points="287,-772.5 287,-802.5 582,-802.5 582,-772.5 287,-772.5"/>
<text text-anchor="start" x="294" y="-783.9" font-family="Arial" font-size="14.00" fill="#000000">leadlist_id </text>
<text text-anchor="start" x="360.1206" y="-783.9" font-family="Arial" font-size="14.00" fill="#666666">[int(10) unsigned]</text>
<polygon fill="none" stroke="#000000" stroke-width="3" points="285,-771.5 285,-869.5 583,-869.5 583,-771.5 285,-771.5"/>
</g>
<!-- campaigns -->
<g id="node2" class="node">
<title>campaigns</title>
<polygon fill="#efefef" stroke="transparent" points="142,-597.5 142,-632.5 383,-632.5 383,-597.5 142,-597.5"/>
<polygon fill="none" stroke="#000000" points="142,-597.5 142,-632.5 383,-632.5 383,-597.5 142,-597.5"/>
<text text-anchor="start" x="170.3644" y="-610.3" font-family="Arial Bold" font-size="18.00" fill="#000000">campaigns</text>
<text text-anchor="start" x="257.3818" y="-610.3" font-family="Arial" font-size="14.00" fill="#000000"> </text>
<text text-anchor="start" x="261.2724" y="-610.3" font-family="Arial" font-size="14.00" fill="#666666">[BASE TABLE]</text>
<polygon fill="none" stroke="#000000" points="142,-567.5 142,-597.5 383,-597.5 383,-567.5 142,-567.5"/>
<text text-anchor="start" x="149" y="-578.9" font-family="Arial" font-size="14.00" fill="#000000">id </text>
<text text-anchor="start" x="163.7798" y="-578.9" font-family="Arial" font-size="14.00" fill="#666666">[int(10) unsigned]</text>
<polygon fill="none" stroke="#000000" points="142,-537.5 142,-567.5 383,-567.5 383,-537.5 142,-537.5"/>
<text text-anchor="start" x="149" y="-548.9" font-family="Arial" font-size="14.00" fill="#000000">category_id </text>
<text text-anchor="start" x="225.244" y="-548.9" font-family="Arial" font-size="14.00" fill="#666666">[int(10) unsigned]</text>
<polygon fill="none" stroke="#000000" points="142,-507.5 142,-537.5 383,-537.5 383,-507.5 142,-507.5"/>
<text text-anchor="start" x="149" y="-518.9" font-family="Arial" font-size="14.00" fill="#000000">is_published </text>
<text text-anchor="start" x="230.6886" y="-518.9" font-family="Arial" font-size="14.00" fill="#666666">[tinyint(1)]</text>
<polygon fill="none" stroke="#000000" points="142,-477.5 142,-507.5 383,-507.5 383,-477.5 142,-477.5"/>
<text text-anchor="start" x="149" y="-488.9" font-family="Arial" font-size="14.00" fill="#000000">date_added </text>
<text text-anchor="start" x="226.8246" y="-488.9" font-family="Arial" font-size="14.00" fill="#666666">[datetime]</text>
<polygon fill="none" stroke="#000000" points="142,-447.5 142,-477.5 383,-477.5 383,-447.5 142,-447.5"/>
<text text-anchor="start" x="149" y="-458.9" font-family="Arial" font-size="14.00" fill="#000000">created_by </text>
<text text-anchor="start" x="222.1374" y="-458.9" font-family="Arial" font-size="14.00" fill="#666666">[int(11)]</text>
<polygon fill="none" stroke="#000000" points="142,-417.5 142,-447.5 383,-447.5 383,-417.5 142,-417.5"/>
<text text-anchor="start" x="149" y="-428.9" font-family="Arial" font-size="14.00" fill="#000000">created_by_user </text>
<text text-anchor="start" x="257.1458" y="-428.9" font-family="Arial" font-size="14.00" fill="#666666">[varchar(191)]</text>
<polygon fill="none" stroke="#000000" points="142,-387.5 142,-417.5 383,-417.5 383,-387.5 142,-387.5"/>
<text text-anchor="start" x="149" y="-398.9" font-family="Arial" font-size="14.00" fill="#000000">date_modified </text>
<text text-anchor="start" x="240.8064" y="-398.9" font-family="Arial" font-size="14.00" fill="#666666">[datetime]</text>
<polygon fill="none" stroke="#000000" points="142,-357.5 142,-387.5 383,-387.5 383,-357.5 142,-357.5"/>
<text text-anchor="start" x="149" y="-368.9" font-family="Arial" font-size="14.00" fill="#000000">modified_by </text>
<text text-anchor="start" x="228.3506" y="-368.9" font-family="Arial" font-size="14.00" fill="#666666">[int(11)]</text>
<polygon fill="none" stroke="#000000" points="142,-327.5 142,-357.5 383,-357.5 383,-327.5 142,-327.5"/>
<text text-anchor="start" x="149" y="-338.9" font-family="Arial" font-size="14.00" fill="#000000">modified_by_user </text>
<text text-anchor="start" x="263.359" y="-338.9" font-family="Arial" font-size="14.00" fill="#666666">[varchar(191)]</text>
<polygon fill="none" stroke="#000000" points="142,-297.5 142,-327.5 383,-327.5 383,-297.5 142,-297.5"/>
<text text-anchor="start" x="149" y="-308.9" font-family="Arial" font-size="14.00" fill="#000000">checked_out </text>
<text text-anchor="start" x="232.2594" y="-308.9" font-family="Arial" font-size="14.00" fill="#666666">[datetime]</text>
<polygon fill="none" stroke="#000000" points="142,-267.5 142,-297.5 383,-297.5 383,-267.5 142,-267.5"/>
<text text-anchor="start" x="149" y="-278.9" font-family="Arial" font-size="14.00" fill="#000000">checked_out_by </text>
<text text-anchor="start" x="254.8246" y="-278.9" font-family="Arial" font-size="14.00" fill="#666666">[int(11)]</text>
<polygon fill="none" stroke="#000000" points="142,-237.5 142,-267.5 383,-267.5 383,-237.5 142,-237.5"/>
<text text-anchor="start" x="148.5239" y="-248.9" font-family="Arial" font-size="14.00" fill="#000000">checked_out_by_user </text>
<text text-anchor="start" x="289.3569" y="-248.9" font-family="Arial" font-size="14.00" fill="#666666">[varchar(191)]</text>
<polygon fill="none" stroke="#000000" points="142,-207.5 142,-237.5 383,-237.5 383,-207.5 142,-207.5"/>
<text text-anchor="start" x="149" y="-218.9" font-family="Arial" font-size="14.00" fill="#000000">name </text>
<text text-anchor="start" x="187.899" y="-218.9" font-family="Arial" font-size="14.00" fill="#666666">[varchar(191)]</text>
<polygon fill="none" stroke="#000000" points="142,-177.5 142,-207.5 383,-207.5 383,-177.5 142,-177.5"/>
<text text-anchor="start" x="149" y="-188.9" font-family="Arial" font-size="14.00" fill="#000000">description </text>
<text text-anchor="start" x="220.568" y="-188.9" font-family="Arial" font-size="14.00" fill="#666666">[longtext]</text>
<polygon fill="none" stroke="#000000" points="142,-147.5 142,-177.5 383,-177.5 383,-147.5 142,-147.5"/>
<text text-anchor="start" x="149" y="-158.9" font-family="Arial" font-size="14.00" fill="#000000">publish_up </text>
<text text-anchor="start" x="220.582" y="-158.9" font-family="Arial" font-size="14.00" fill="#666666">[datetime]</text>
<polygon fill="none" stroke="#000000" points="142,-117.5 142,-147.5 383,-147.5 383,-117.5 142,-117.5"/>
<text text-anchor="start" x="149" y="-128.9" font-family="Arial" font-size="14.00" fill="#000000">publish_down </text>
<text text-anchor="start" x="238.4712" y="-128.9" font-family="Arial" font-size="14.00" fill="#666666">[datetime]</text>
<polygon fill="none" stroke="#000000" points="142,-87.5 142,-117.5 383,-117.5 383,-87.5 142,-87.5"/>
<text text-anchor="start" x="149" y="-98.9" font-family="Arial" font-size="14.00" fill="#000000">canvas_settings </text>
<text text-anchor="start" x="253.2566" y="-98.9" font-family="Arial" font-size="14.00" fill="#666666">[longtext]</text>
<polygon fill="none" stroke="#000000" points="142,-57.5 142,-87.5 383,-87.5 383,-57.5 142,-57.5"/>
<text text-anchor="start" x="149" y="-68.9" font-family="Arial" font-size="14.00" fill="#000000">allow_restart </text>
<text text-anchor="start" x="232.2258" y="-68.9" font-family="Arial" font-size="14.00" fill="#666666">[int(11)]</text>
</g>
<!-- campaign_leadlist_xref&#45;&gt;campaigns -->
<g id="edge1" class="edge">
<title>campaign_leadlist_xref:campaign_id&#45;&gt;campaigns:id</title>
<path fill="none" stroke="#000000" d="M276.8703,-815.9693C250.598,-806.7629 268.3015,-758.1069 287,-727 311.8909,-685.5915 358.1091,-717.4085 383,-676 404.4091,-640.3838 424.5556,-582.5 383,-582.5"/>
<polygon fill="#000000" stroke="#000000" points="277.1122,-816.0058 286.3276,-821.9495 282.0561,-816.7529 287,-817.5 287,-817.5 287,-817.5 282.0561,-816.7529 287.6724,-813.0505 277.1122,-816.0058 277.1122,-816.0058"/>
<text text-anchor="start" x="7.049" y="-827.5" font-family="Arial" font-size="10.00" fill="#000000">FOREIGN KEY (campaign_id) REFERENCES campaigns (id)</text>
</g>
<!-- lead_lists -->
<g id="node3" class="node">
<title>lead_lists</title>
<polygon fill="#efefef" stroke="transparent" points="487,-612.5 487,-647.5 728,-647.5 728,-612.5 487,-612.5"/>
<polygon fill="none" stroke="#000000" points="487,-612.5 487,-647.5 728,-647.5 728,-612.5 487,-612.5"/>
<text text-anchor="start" x="521.3683" y="-625.3" font-family="Arial Bold" font-size="18.00" fill="#000000">lead_lists</text>
<text text-anchor="start" x="596.3779" y="-625.3" font-family="Arial" font-size="14.00" fill="#000000"> </text>
<text text-anchor="start" x="600.2685" y="-625.3" font-family="Arial" font-size="14.00" fill="#666666">[BASE TABLE]</text>
<polygon fill="none" stroke="#000000" points="487,-582.5 487,-612.5 728,-612.5 728,-582.5 487,-582.5"/>
<text text-anchor="start" x="494" y="-593.9" font-family="Arial" font-size="14.00" fill="#000000">id </text>
<text text-anchor="start" x="508.7798" y="-593.9" font-family="Arial" font-size="14.00" fill="#666666">[int(10) unsigned]</text>
<polygon fill="none" stroke="#000000" points="487,-552.5 487,-582.5 728,-582.5 728,-552.5 487,-552.5"/>
<text text-anchor="start" x="494" y="-563.9" font-family="Arial" font-size="14.00" fill="#000000">category_id </text>
<text text-anchor="start" x="570.244" y="-563.9" font-family="Arial" font-size="14.00" fill="#666666">[int(10) unsigned]</text>
<polygon fill="none" stroke="#000000" points="487,-522.5 487,-552.5 728,-552.5 728,-522.5 487,-522.5"/>
<text text-anchor="start" x="494" y="-533.9" font-family="Arial" font-size="14.00" fill="#000000">is_published </text>
<text text-anchor="start" x="575.6886" y="-533.9" font-family="Arial" font-size="14.00" fill="#666666">[tinyint(1)]</text>
<polygon fill="none" stroke="#000000" points="487,-492.5 487,-522.5 728,-522.5 728,-492.5 487,-492.5"/>
<text text-anchor="start" x="494" y="-503.9" font-family="Arial" font-size="14.00" fill="#000000">date_added </text>
<text text-anchor="start" x="571.8246" y="-503.9" font-family="Arial" font-size="14.00" fill="#666666">[datetime]</text>
<polygon fill="none" stroke="#000000" points="487,-462.5 487,-492.5 728,-492.5 728,-462.5 487,-462.5"/>
<text text-anchor="start" x="494" y="-473.9" font-family="Arial" font-size="14.00" fill="#000000">created_by </text>
<text text-anchor="start" x="567.1374" y="-473.9" font-family="Arial" font-size="14.00" fill="#666666">[int(11)]</text>
<polygon fill="none" stroke="#000000" points="487,-432.5 487,-462.5 728,-462.5 728,-432.5 487,-432.5"/>
<text text-anchor="start" x="494" y="-443.9" font-family="Arial" font-size="14.00" fill="#000000">created_by_user </text>
<text text-anchor="start" x="602.1458" y="-443.9" font-family="Arial" font-size="14.00" fill="#666666">[varchar(191)]</text>
<polygon fill="none" stroke="#000000" points="487,-402.5 487,-432.5 728,-432.5 728,-402.5 487,-402.5"/>
<text text-anchor="start" x="494" y="-413.9" font-family="Arial" font-size="14.00" fill="#000000">date_modified </text>
<text text-anchor="start" x="585.8064" y="-413.9" font-family="Arial" font-size="14.00" fill="#666666">[datetime]</text>
<polygon fill="none" stroke="#000000" points="487,-372.5 487,-402.5 728,-402.5 728,-372.5 487,-372.5"/>
<text text-anchor="start" x="494" y="-383.9" font-family="Arial" font-size="14.00" fill="#000000">modified_by </text>
<text text-anchor="start" x="573.3506" y="-383.9" font-family="Arial" font-size="14.00" fill="#666666">[int(11)]</text>
<polygon fill="none" stroke="#000000" points="487,-342.5 487,-372.5 728,-372.5 728,-342.5 487,-342.5"/>
<text text-anchor="start" x="494" y="-353.9" font-family="Arial" font-size="14.00" fill="#000000">modified_by_user </text>
<text text-anchor="start" x="608.359" y="-353.9" font-family="Arial" font-size="14.00" fill="#666666">[varchar(191)]</text>
<polygon fill="none" stroke="#000000" points="487,-312.5 487,-342.5 728,-342.5 728,-312.5 487,-312.5"/>
<text text-anchor="start" x="494" y="-323.9" font-family="Arial" font-size="14.00" fill="#000000">checked_out </text>
<text text-anchor="start" x="577.2594" y="-323.9" font-family="Arial" font-size="14.00" fill="#666666">[datetime]</text>
<polygon fill="none" stroke="#000000" points="487,-282.5 487,-312.5 728,-312.5 728,-282.5 487,-282.5"/>
<text text-anchor="start" x="494" y="-293.9" font-family="Arial" font-size="14.00" fill="#000000">checked_out_by </text>
<text text-anchor="start" x="599.8246" y="-293.9" font-family="Arial" font-size="14.00" fill="#666666">[int(11)]</text>
<polygon fill="none" stroke="#000000" points="487,-252.5 487,-282.5 728,-282.5 728,-252.5 487,-252.5"/>
<text text-anchor="start" x="493.5239" y="-263.9" font-family="Arial" font-size="14.00" fill="#000000">checked_out_by_user </text>
<text text-anchor="start" x="634.3569" y="-263.9" font-family="Arial" font-size="14.00" fill="#666666">[varchar(191)]</text>
<polygon fill="none" stroke="#000000" points="487,-222.5 487,-252.5 728,-252.5 728,-222.5 487,-222.5"/>
<text text-anchor="start" x="494" y="-233.9" font-family="Arial" font-size="14.00" fill="#000000">name </text>
<text text-anchor="start" x="532.899" y="-233.9" font-family="Arial" font-size="14.00" fill="#666666">[varchar(191)]</text>
<polygon fill="none" stroke="#000000" points="487,-192.5 487,-222.5 728,-222.5 728,-192.5 487,-192.5"/>
<text text-anchor="start" x="494" y="-203.9" font-family="Arial" font-size="14.00" fill="#000000">description </text>
<text text-anchor="start" x="565.568" y="-203.9" font-family="Arial" font-size="14.00" fill="#666666">[longtext]</text>
<polygon fill="none" stroke="#000000" points="487,-162.5 487,-192.5 728,-192.5 728,-162.5 487,-162.5"/>
<text text-anchor="start" x="494" y="-173.9" font-family="Arial" font-size="14.00" fill="#000000">alias </text>
<text text-anchor="start" x="526.669" y="-173.9" font-family="Arial" font-size="14.00" fill="#666666">[varchar(191)]</text>
<polygon fill="none" stroke="#000000" points="487,-132.5 487,-162.5 728,-162.5 728,-132.5 487,-132.5"/>
<text text-anchor="start" x="494" y="-143.9" font-family="Arial" font-size="14.00" fill="#000000">public_name </text>
<text text-anchor="start" x="577.2426" y="-143.9" font-family="Arial" font-size="14.00" fill="#666666">[varchar(191)]</text>
<polygon fill="none" stroke="#000000" points="487,-102.5 487,-132.5 728,-132.5 728,-102.5 487,-102.5"/>
<text text-anchor="start" x="494" y="-113.9" font-family="Arial" font-size="14.00" fill="#000000">filters </text>
<text text-anchor="start" x="531.3282" y="-113.9" font-family="Arial" font-size="14.00" fill="#666666">[longtext]</text>
<polygon fill="none" stroke="#000000" points="487,-72.5 487,-102.5 728,-102.5 728,-72.5 487,-72.5"/>
<text text-anchor="start" x="494" y="-83.9" font-family="Arial" font-size="14.00" fill="#000000">is_global </text>
<text text-anchor="start" x="553.1234" y="-83.9" font-family="Arial" font-size="14.00" fill="#666666">[tinyint(1)]</text>
<polygon fill="none" stroke="#000000" points="487,-42.5 487,-72.5 728,-72.5 728,-42.5 487,-42.5"/>
<text text-anchor="start" x="494" y="-53.9" font-family="Arial" font-size="14.00" fill="#000000">is_preference_center </text>
<text text-anchor="start" x="629.3688" y="-53.9" font-family="Arial" font-size="14.00" fill="#666666">[tinyint(1)]</text>
</g>
<!-- campaign_leadlist_xref&#45;&gt;lead_lists -->
<g id="edge2" class="edge">
<title>campaign_leadlist_xref:leadlist_id&#45;&gt;lead_lists:id</title>
<path fill="none" stroke="#000000" d="M591.9172,-784.8978C605.1708,-775.9051 594.8904,-745.6697 582,-727 556.3457,-689.8439 512.6543,-728.1561 487,-691 463.3892,-656.8036 445.4444,-597.5 487,-597.5"/>
<polygon fill="#000000" stroke="#000000" points="591.6726,-784.962 580.8579,-783.1473 586.8363,-786.231 582,-787.5 582,-787.5 582,-787.5 586.8363,-786.231 583.1421,-791.8527 591.6726,-784.962 591.6726,-784.962"/>
<text text-anchor="start" x="589.4995" y="-797.5" font-family="Arial" font-size="10.00" fill="#000000">FOREIGN KEY (leadlist_id) REFERENCES lead_lists (id)</text>
</g>
</g>
</svg>
