<?xml version="1.0" encoding="UTF-8" standalone="no"?>
<!DOCTYPE svg PUBLIC "-//W3C//DTD SVG 1.1//EN"
 "http://www.w3.org/Graphics/SVG/1.1/DTD/svg11.dtd">
<!-- Generated by graphviz version 2.40.1 (20161225.0304)
 -->
<!-- Title: channel_url_trackables Pages: 1 -->
<svg width="645pt" height="892pt"
 viewBox="0.00 0.00 645.00 892.00" xmlns="http://www.w3.org/2000/svg" xmlns:xlink="http://www.w3.org/1999/xlink">
<g id="graph0" class="graph" transform="scale(1 1) rotate(0) translate(4 888)">
<title>channel_url_trackables</title>
<polygon fill="#ffffff" stroke="transparent" points="-4,4 -4,-888 641,-888 641,4 -4,4"/>
<!-- channel_url_trackables -->
<g id="node1" class="node">
<title>channel_url_trackables</title>
<polygon fill="#efefef" stroke="transparent" points="295,-802.5 295,-837.5 591,-837.5 591,-802.5 295,-802.5"/>
<polygon fill="none" stroke="#000000" points="295,-802.5 295,-837.5 591,-837.5 591,-802.5 295,-802.5"/>
<text text-anchor="start" x="301.8513" y="-815.3" font-family="Arial Bold" font-size="18.00" fill="#000000">channel_url_trackables</text>
<text text-anchor="start" x="486.8949" y="-815.3" font-family="Arial" font-size="14.00" fill="#000000"> </text>
<text text-anchor="start" x="490.7855" y="-815.3" font-family="Arial" font-size="14.00" fill="#666666">[BASE TABLE]</text>
<polygon fill="none" stroke="#000000" points="295,-772.5 295,-802.5 591,-802.5 591,-772.5 295,-772.5"/>
<text text-anchor="start" x="302" y="-783.9" font-family="Arial" font-size="14.00" fill="#000000">channel_id </text>
<text text-anchor="start" x="373.582" y="-783.9" font-family="Arial" font-size="14.00" fill="#666666">[int(11)]</text>
<polygon fill="none" stroke="#000000" points="295,-742.5 295,-772.5 591,-772.5 591,-742.5 295,-742.5"/>
<text text-anchor="start" x="302" y="-753.9" font-family="Arial" font-size="14.00" fill="#000000">redirect_id </text>
<text text-anchor="start" x="371.2286" y="-753.9" font-family="Arial" font-size="14.00" fill="#666666">[bigint(20) unsigned]</text>
<polygon fill="none" stroke="#000000" points="295,-712.5 295,-742.5 591,-742.5 591,-712.5 295,-712.5"/>
<text text-anchor="start" x="302" y="-723.9" font-family="Arial" font-size="14.00" fill="#000000">channel </text>
<text text-anchor="start" x="354.9102" y="-723.9" font-family="Arial" font-size="14.00" fill="#666666">[varchar(191)]</text>
<polygon fill="none" stroke="#000000" points="295,-682.5 295,-712.5 591,-712.5 591,-682.5 295,-682.5"/>
<text text-anchor="start" x="302" y="-693.9" font-family="Arial" font-size="14.00" fill="#000000">hits </text>
<text text-anchor="start" x="327.6704" y="-693.9" font-family="Arial" font-size="14.00" fill="#666666">[int(11)]</text>
<polygon fill="none" stroke="#000000" points="295,-652.5 295,-682.5 591,-682.5 591,-652.5 295,-652.5"/>
<text text-anchor="start" x="302" y="-663.9" font-family="Arial" font-size="14.00" fill="#000000">unique_hits </text>
<text text-anchor="start" x="377.4726" y="-663.9" font-family="Arial" font-size="14.00" fill="#666666">[int(11)]</text>
<polygon fill="none" stroke="#000000" stroke-width="3" points="293.5,-651.5 293.5,-839.5 592.5,-839.5 592.5,-651.5 293.5,-651.5"/>
</g>
<!-- page_redirects -->
<g id="node2" class="node">
<title>page_redirects</title>
<polygon fill="#efefef" stroke="transparent" points="322,-492.5 322,-527.5 563,-527.5 563,-492.5 322,-492.5"/>
<polygon fill="none" stroke="#000000" points="322,-492.5 322,-527.5 563,-527.5 563,-492.5 322,-492.5"/>
<text text-anchor="start" x="334.3579" y="-505.3" font-family="Arial Bold" font-size="18.00" fill="#000000">page_redirects</text>
<text text-anchor="start" x="453.3883" y="-505.3" font-family="Arial" font-size="14.00" fill="#000000"> </text>
<text text-anchor="start" x="457.2789" y="-505.3" font-family="Arial" font-size="14.00" fill="#666666">[BASE TABLE]</text>
<polygon fill="none" stroke="#000000" points="322,-462.5 322,-492.5 563,-492.5 563,-462.5 322,-462.5"/>
<text text-anchor="start" x="329" y="-473.9" font-family="Arial" font-size="14.00" fill="#000000">id </text>
<text text-anchor="start" x="343.7798" y="-473.9" font-family="Arial" font-size="14.00" fill="#666666">[bigint(20) unsigned]</text>
<polygon fill="none" stroke="#000000" points="322,-432.5 322,-462.5 563,-462.5 563,-432.5 322,-432.5"/>
<text text-anchor="start" x="329" y="-443.9" font-family="Arial" font-size="14.00" fill="#000000">is_published </text>
<text text-anchor="start" x="410.6886" y="-443.9" font-family="Arial" font-size="14.00" fill="#666666">[tinyint(1)]</text>
<polygon fill="none" stroke="#000000" points="322,-402.5 322,-432.5 563,-432.5 563,-402.5 322,-402.5"/>
<text text-anchor="start" x="329" y="-413.9" font-family="Arial" font-size="14.00" fill="#000000">date_added </text>
<text text-anchor="start" x="406.8246" y="-413.9" font-family="Arial" font-size="14.00" fill="#666666">[datetime]</text>
<polygon fill="none" stroke="#000000" points="322,-372.5 322,-402.5 563,-402.5 563,-372.5 322,-372.5"/>
<text text-anchor="start" x="329" y="-383.9" font-family="Arial" font-size="14.00" fill="#000000">created_by </text>
<text text-anchor="start" x="402.1374" y="-383.9" font-family="Arial" font-size="14.00" fill="#666666">[int(11)]</text>
<polygon fill="none" stroke="#000000" points="322,-342.5 322,-372.5 563,-372.5 563,-342.5 322,-342.5"/>
<text text-anchor="start" x="329" y="-353.9" font-family="Arial" font-size="14.00" fill="#000000">created_by_user </text>
<text text-anchor="start" x="437.1458" y="-353.9" font-family="Arial" font-size="14.00" fill="#666666">[varchar(191)]</text>
<polygon fill="none" stroke="#000000" points="322,-312.5 322,-342.5 563,-342.5 563,-312.5 322,-312.5"/>
<text text-anchor="start" x="329" y="-323.9" font-family="Arial" font-size="14.00" fill="#000000">date_modified </text>
<text text-anchor="start" x="420.8064" y="-323.9" font-family="Arial" font-size="14.00" fill="#666666">[datetime]</text>
<polygon fill="none" stroke="#000000" points="322,-282.5 322,-312.5 563,-312.5 563,-282.5 322,-282.5"/>
<text text-anchor="start" x="329" y="-293.9" font-family="Arial" font-size="14.00" fill="#000000">modified_by </text>
<text text-anchor="start" x="408.3506" y="-293.9" font-family="Arial" font-size="14.00" fill="#666666">[int(11)]</text>
<polygon fill="none" stroke="#000000" points="322,-252.5 322,-282.5 563,-282.5 563,-252.5 322,-252.5"/>
<text text-anchor="start" x="329" y="-263.9" font-family="Arial" font-size="14.00" fill="#000000">modified_by_user </text>
<text text-anchor="start" x="443.359" y="-263.9" font-family="Arial" font-size="14.00" fill="#666666">[varchar(191)]</text>
<polygon fill="none" stroke="#000000" points="322,-222.5 322,-252.5 563,-252.5 563,-222.5 322,-222.5"/>
<text text-anchor="start" x="329" y="-233.9" font-family="Arial" font-size="14.00" fill="#000000">checked_out </text>
<text text-anchor="start" x="412.2594" y="-233.9" font-family="Arial" font-size="14.00" fill="#666666">[datetime]</text>
<polygon fill="none" stroke="#000000" points="322,-192.5 322,-222.5 563,-222.5 563,-192.5 322,-192.5"/>
<text text-anchor="start" x="329" y="-203.9" font-family="Arial" font-size="14.00" fill="#000000">checked_out_by </text>
<text text-anchor="start" x="434.8246" y="-203.9" font-family="Arial" font-size="14.00" fill="#666666">[int(11)]</text>
<polygon fill="none" stroke="#000000" points="322,-162.5 322,-192.5 563,-192.5 563,-162.5 322,-162.5"/>
<text text-anchor="start" x="328.5239" y="-173.9" font-family="Arial" font-size="14.00" fill="#000000">checked_out_by_user </text>
<text text-anchor="start" x="469.3569" y="-173.9" font-family="Arial" font-size="14.00" fill="#666666">[varchar(191)]</text>
<polygon fill="none" stroke="#000000" points="322,-132.5 322,-162.5 563,-162.5 563,-132.5 322,-132.5"/>
<text text-anchor="start" x="329" y="-143.9" font-family="Arial" font-size="14.00" fill="#000000">redirect_id </text>
<text text-anchor="start" x="398.2286" y="-143.9" font-family="Arial" font-size="14.00" fill="#666666">[varchar(25)]</text>
<polygon fill="none" stroke="#000000" points="322,-102.5 322,-132.5 563,-132.5 563,-102.5 322,-102.5"/>
<text text-anchor="start" x="329" y="-113.9" font-family="Arial" font-size="14.00" fill="#000000">url </text>
<text text-anchor="start" x="348.4404" y="-113.9" font-family="Arial" font-size="14.00" fill="#666666">[longtext]</text>
<polygon fill="none" stroke="#000000" points="322,-72.5 322,-102.5 563,-102.5 563,-72.5 322,-72.5"/>
<text text-anchor="start" x="329" y="-83.9" font-family="Arial" font-size="14.00" fill="#000000">hits </text>
<text text-anchor="start" x="354.6704" y="-83.9" font-family="Arial" font-size="14.00" fill="#666666">[int(11)]</text>
<polygon fill="none" stroke="#000000" points="322,-42.5 322,-72.5 563,-72.5 563,-42.5 322,-42.5"/>
<text text-anchor="start" x="329" y="-53.9" font-family="Arial" font-size="14.00" fill="#000000">unique_hits </text>
<text text-anchor="start" x="404.4726" y="-53.9" font-family="Arial" font-size="14.00" fill="#666666">[int(11)]</text>
</g>
<!-- channel_url_trackables&#45;&gt;page_redirects -->
<g id="edge1" class="edge">
<title>channel_url_trackables:redirect_id&#45;&gt;page_redirects:id</title>
<path fill="none" stroke="#000000" d="M284.82,-756.6259C230.6739,-746.6948 253.3715,-654.5943 295,-607 374.1219,-516.5391 483.8781,-661.4609 563,-571 590.3584,-539.7209 604.5556,-477.5 563,-477.5"/>
<polygon fill="#000000" stroke="#000000" points="285.0367,-756.6445 294.615,-761.9835 290.0183,-757.0722 295,-757.5 295,-757.5 295,-757.5 290.0183,-757.0722 295.385,-753.0165 285.0367,-756.6445 285.0367,-756.6445"/>
<text text-anchor="start" x="7.1615" y="-767.5" font-family="Arial" font-size="10.00" fill="#000000">FOREIGN KEY (redirect_id) REFERENCES page_redirects (id)</text>
</g>
</g>
</svg>
