<?xml version="1.0" encoding="UTF-8" standalone="no"?>
<!DOCTYPE svg PUBLIC "-//W3C//DTD SVG 1.1//EN"
 "http://www.w3.org/Graphics/SVG/1.1/DTD/svg11.dtd">
<!-- Generated by graphviz version 2.40.1 (20161225.0304)
 -->
<!-- Title: companies Pages: 1 -->
<svg width="798pt" height="2159pt"
 viewBox="0.00 0.00 798.00 2159.00" xmlns="http://www.w3.org/2000/svg" xmlns:xlink="http://www.w3.org/1999/xlink">
<g id="graph0" class="graph" transform="scale(1 1) rotate(0) translate(4 2155)">
<title>companies</title>
<polygon fill="#ffffff" stroke="transparent" points="-4,4 -4,-2155 794,-2155 794,4 -4,4"/>
<!-- companies -->
<g id="node1" class="node">
<title>companies</title>
<polygon fill="#efefef" stroke="transparent" points="247,-1792.5 247,-1827.5 513,-1827.5 513,-1792.5 247,-1792.5"/>
<polygon fill="none" stroke="#000000" points="247,-1792.5 247,-1827.5 513,-1827.5 513,-1792.5 247,-1792.5"/>
<text text-anchor="start" x="287.8644" y="-1805.3" font-family="Arial Bold" font-size="18.00" fill="#000000">companies</text>
<text text-anchor="start" x="374.8818" y="-1805.3" font-family="Arial" font-size="14.00" fill="#000000"> </text>
<text text-anchor="start" x="378.7724" y="-1805.3" font-family="Arial" font-size="14.00" fill="#666666">[BASE TABLE]</text>
<polygon fill="none" stroke="#000000" points="247,-1762.5 247,-1792.5 513,-1792.5 513,-1762.5 247,-1762.5"/>
<text text-anchor="start" x="254" y="-1773.9" font-family="Arial" font-size="14.00" fill="#000000">id </text>
<text text-anchor="start" x="268.7798" y="-1773.9" font-family="Arial" font-size="14.00" fill="#666666">[int(11)]</text>
<polygon fill="none" stroke="#000000" points="247,-1732.5 247,-1762.5 513,-1762.5 513,-1732.5 247,-1732.5"/>
<text text-anchor="start" x="254" y="-1743.9" font-family="Arial" font-size="14.00" fill="#000000">owner_id </text>
<text text-anchor="start" x="314.6774" y="-1743.9" font-family="Arial" font-size="14.00" fill="#666666">[int(10) unsigned]</text>
<polygon fill="none" stroke="#000000" points="247,-1702.5 247,-1732.5 513,-1732.5 513,-1702.5 247,-1702.5"/>
<text text-anchor="start" x="254" y="-1713.9" font-family="Arial" font-size="14.00" fill="#000000">is_published </text>
<text text-anchor="start" x="335.6886" y="-1713.9" font-family="Arial" font-size="14.00" fill="#666666">[tinyint(1)]</text>
<polygon fill="none" stroke="#000000" points="247,-1672.5 247,-1702.5 513,-1702.5 513,-1672.5 247,-1672.5"/>
<text text-anchor="start" x="254" y="-1683.9" font-family="Arial" font-size="14.00" fill="#000000">date_added </text>
<text text-anchor="start" x="331.8246" y="-1683.9" font-family="Arial" font-size="14.00" fill="#666666">[datetime]</text>
<polygon fill="none" stroke="#000000" points="247,-1642.5 247,-1672.5 513,-1672.5 513,-1642.5 247,-1642.5"/>
<text text-anchor="start" x="254" y="-1653.9" font-family="Arial" font-size="14.00" fill="#000000">created_by </text>
<text text-anchor="start" x="327.1374" y="-1653.9" font-family="Arial" font-size="14.00" fill="#666666">[int(11)]</text>
<polygon fill="none" stroke="#000000" points="247,-1612.5 247,-1642.5 513,-1642.5 513,-1612.5 247,-1612.5"/>
<text text-anchor="start" x="254" y="-1623.9" font-family="Arial" font-size="14.00" fill="#000000">created_by_user </text>
<text text-anchor="start" x="362.1458" y="-1623.9" font-family="Arial" font-size="14.00" fill="#666666">[varchar(191)]</text>
<polygon fill="none" stroke="#000000" points="247,-1582.5 247,-1612.5 513,-1612.5 513,-1582.5 247,-1582.5"/>
<text text-anchor="start" x="254" y="-1593.9" font-family="Arial" font-size="14.00" fill="#000000">date_modified </text>
<text text-anchor="start" x="345.8064" y="-1593.9" font-family="Arial" font-size="14.00" fill="#666666">[datetime]</text>
<polygon fill="none" stroke="#000000" points="247,-1552.5 247,-1582.5 513,-1582.5 513,-1552.5 247,-1552.5"/>
<text text-anchor="start" x="254" y="-1563.9" font-family="Arial" font-size="14.00" fill="#000000">modified_by </text>
<text text-anchor="start" x="333.3506" y="-1563.9" font-family="Arial" font-size="14.00" fill="#666666">[int(11)]</text>
<polygon fill="none" stroke="#000000" points="247,-1522.5 247,-1552.5 513,-1552.5 513,-1522.5 247,-1522.5"/>
<text text-anchor="start" x="254" y="-1533.9" font-family="Arial" font-size="14.00" fill="#000000">modified_by_user </text>
<text text-anchor="start" x="368.359" y="-1533.9" font-family="Arial" font-size="14.00" fill="#666666">[varchar(191)]</text>
<polygon fill="none" stroke="#000000" points="247,-1492.5 247,-1522.5 513,-1522.5 513,-1492.5 247,-1492.5"/>
<text text-anchor="start" x="254" y="-1503.9" font-family="Arial" font-size="14.00" fill="#000000">checked_out </text>
<text text-anchor="start" x="337.2594" y="-1503.9" font-family="Arial" font-size="14.00" fill="#666666">[datetime]</text>
<polygon fill="none" stroke="#000000" points="247,-1462.5 247,-1492.5 513,-1492.5 513,-1462.5 247,-1462.5"/>
<text text-anchor="start" x="254" y="-1473.9" font-family="Arial" font-size="14.00" fill="#000000">checked_out_by </text>
<text text-anchor="start" x="359.8246" y="-1473.9" font-family="Arial" font-size="14.00" fill="#666666">[int(11)]</text>
<polygon fill="none" stroke="#000000" points="247,-1432.5 247,-1462.5 513,-1462.5 513,-1432.5 247,-1432.5"/>
<text text-anchor="start" x="254" y="-1443.9" font-family="Arial" font-size="14.00" fill="#000000">checked_out_by_user </text>
<text text-anchor="start" x="394.833" y="-1443.9" font-family="Arial" font-size="14.00" fill="#666666">[varchar(191)]</text>
<polygon fill="none" stroke="#000000" points="247,-1402.5 247,-1432.5 513,-1432.5 513,-1402.5 247,-1402.5"/>
<text text-anchor="start" x="254" y="-1413.9" font-family="Arial" font-size="14.00" fill="#000000">social_cache </text>
<text text-anchor="start" x="338.7994" y="-1413.9" font-family="Arial" font-size="14.00" fill="#666666">[longtext]</text>
<polygon fill="none" stroke="#000000" points="247,-1372.5 247,-1402.5 513,-1402.5 513,-1372.5 247,-1372.5"/>
<text text-anchor="start" x="254" y="-1383.9" font-family="Arial" font-size="14.00" fill="#000000">score </text>
<text text-anchor="start" x="292.1164" y="-1383.9" font-family="Arial" font-size="14.00" fill="#666666">[int(11)]</text>
<polygon fill="none" stroke="#000000" points="247,-1342.5 247,-1372.5 513,-1372.5 513,-1342.5 247,-1342.5"/>
<text text-anchor="start" x="254" y="-1353.9" font-family="Arial" font-size="14.00" fill="#000000">companyemail </text>
<text text-anchor="start" x="348.1206" y="-1353.9" font-family="Arial" font-size="14.00" fill="#666666">[varchar(191)]</text>
<polygon fill="none" stroke="#000000" points="247,-1312.5 247,-1342.5 513,-1342.5 513,-1312.5 247,-1312.5"/>
<text text-anchor="start" x="254" y="-1323.9" font-family="Arial" font-size="14.00" fill="#000000">companyaddress1 </text>
<text text-anchor="start" x="372.2552" y="-1323.9" font-family="Arial" font-size="14.00" fill="#666666">[varchar(191)]</text>
<polygon fill="none" stroke="#000000" points="247,-1282.5 247,-1312.5 513,-1312.5 513,-1282.5 247,-1282.5"/>
<text text-anchor="start" x="254" y="-1293.9" font-family="Arial" font-size="14.00" fill="#000000">companyaddress2 </text>
<text text-anchor="start" x="372.2552" y="-1293.9" font-family="Arial" font-size="14.00" fill="#666666">[varchar(191)]</text>
<polygon fill="none" stroke="#000000" points="247,-1252.5 247,-1282.5 513,-1282.5 513,-1252.5 247,-1252.5"/>
<text text-anchor="start" x="254" y="-1263.9" font-family="Arial" font-size="14.00" fill="#000000">companyphone </text>
<text text-anchor="start" x="353.5946" y="-1263.9" font-family="Arial" font-size="14.00" fill="#666666">[varchar(191)]</text>
<polygon fill="none" stroke="#000000" points="247,-1222.5 247,-1252.5 513,-1252.5 513,-1222.5 247,-1222.5"/>
<text text-anchor="start" x="254" y="-1233.9" font-family="Arial" font-size="14.00" fill="#000000">companycity </text>
<text text-anchor="start" x="335.6788" y="-1233.9" font-family="Arial" font-size="14.00" fill="#666666">[varchar(191)]</text>
<polygon fill="none" stroke="#000000" points="247,-1192.5 247,-1222.5 513,-1222.5 513,-1192.5 247,-1192.5"/>
<text text-anchor="start" x="254" y="-1203.9" font-family="Arial" font-size="14.00" fill="#000000">companystate </text>
<text text-anchor="start" x="345.028" y="-1203.9" font-family="Arial" font-size="14.00" fill="#666666">[varchar(191)]</text>
<polygon fill="none" stroke="#000000" points="247,-1162.5 247,-1192.5 513,-1192.5 513,-1162.5 247,-1162.5"/>
<text text-anchor="start" x="254" y="-1173.9" font-family="Arial" font-size="14.00" fill="#000000">companyzipcode </text>
<text text-anchor="start" x="362.9186" y="-1173.9" font-family="Arial" font-size="14.00" fill="#666666">[varchar(191)]</text>
<polygon fill="none" stroke="#000000" points="247,-1132.5 247,-1162.5 513,-1162.5 513,-1132.5 247,-1132.5"/>
<text text-anchor="start" x="254" y="-1143.9" font-family="Arial" font-size="14.00" fill="#000000">companycountry </text>
<text text-anchor="start" x="360.5806" y="-1143.9" font-family="Arial" font-size="14.00" fill="#666666">[varchar(191)]</text>
<polygon fill="none" stroke="#000000" points="247,-1102.5 247,-1132.5 513,-1132.5 513,-1102.5 247,-1102.5"/>
<text text-anchor="start" x="254" y="-1113.9" font-family="Arial" font-size="14.00" fill="#000000">companyname </text>
<text text-anchor="start" x="349.69" y="-1113.9" font-family="Arial" font-size="14.00" fill="#666666">[varchar(191)]</text>
<polygon fill="none" stroke="#000000" points="247,-1072.5 247,-1102.5 513,-1102.5 513,-1072.5 247,-1072.5"/>
<text text-anchor="start" x="254" y="-1083.9" font-family="Arial" font-size="14.00" fill="#000000">companywebsite </text>
<text text-anchor="start" x="362.1332" y="-1083.9" font-family="Arial" font-size="14.00" fill="#666666">[longtext]</text>
<polygon fill="none" stroke="#000000" points="247,-1042.5 247,-1072.5 513,-1072.5 513,-1042.5 247,-1042.5"/>
<text text-anchor="start" x="254" y="-1053.9" font-family="Arial" font-size="14.00" fill="#000000">companyindustry </text>
<text text-anchor="start" x="363.6872" y="-1053.9" font-family="Arial" font-size="14.00" fill="#666666">[varchar(191)]</text>
<polygon fill="none" stroke="#000000" points="247,-1012.5 247,-1042.5 513,-1042.5 513,-1012.5 247,-1012.5"/>
<text text-anchor="start" x="254" y="-1023.9" font-family="Arial" font-size="14.00" fill="#000000">companydescription </text>
<text text-anchor="start" x="382.359" y="-1023.9" font-family="Arial" font-size="14.00" fill="#666666">[longtext]</text>
<polygon fill="none" stroke="#000000" points="247,-982.5 247,-1012.5 513,-1012.5 513,-982.5 247,-982.5"/>
<text text-anchor="start" x="253.5737" y="-993.9" font-family="Arial" font-size="14.00" fill="#000000">companynumber_of_employees </text>
<text text-anchor="start" x="456.6255" y="-993.9" font-family="Arial" font-size="14.00" fill="#666666">[double]</text>
<polygon fill="none" stroke="#000000" points="247,-952.5 247,-982.5 513,-982.5 513,-952.5 247,-952.5"/>
<text text-anchor="start" x="254" y="-963.9" font-family="Arial" font-size="14.00" fill="#000000">companyfax </text>
<text text-anchor="start" x="333.3548" y="-963.9" font-family="Arial" font-size="14.00" fill="#666666">[varchar(255)]</text>
<polygon fill="none" stroke="#000000" points="247,-922.5 247,-952.5 513,-952.5 513,-922.5 247,-922.5"/>
<text text-anchor="start" x="254" y="-933.9" font-family="Arial" font-size="14.00" fill="#000000">companyannual_revenue </text>
<text text-anchor="start" x="415.0574" y="-933.9" font-family="Arial" font-size="14.00" fill="#666666">[double]</text>
<polygon fill="none" stroke="#000000" stroke-width="3" points="245.5,-921.5 245.5,-1829.5 514.5,-1829.5 514.5,-921.5 245.5,-921.5"/>
</g>
<!-- users -->
<g id="node3" class="node">
<title>users</title>
<polygon fill="#efefef" stroke="transparent" points="259,-762.5 259,-797.5 500,-797.5 500,-762.5 259,-762.5"/>
<polygon fill="none" stroke="#000000" points="259,-762.5 259,-797.5 500,-797.5 500,-762.5 259,-762.5"/>
<text text-anchor="start" x="308.8708" y="-775.3" font-family="Arial Bold" font-size="18.00" fill="#000000">users</text>
<text text-anchor="start" x="352.8754" y="-775.3" font-family="Arial" font-size="14.00" fill="#000000"> </text>
<text text-anchor="start" x="356.766" y="-775.3" font-family="Arial" font-size="14.00" fill="#666666">[BASE TABLE]</text>
<polygon fill="none" stroke="#000000" points="259,-732.5 259,-762.5 500,-762.5 500,-732.5 259,-732.5"/>
<text text-anchor="start" x="266" y="-743.9" font-family="Arial" font-size="14.00" fill="#000000">id </text>
<text text-anchor="start" x="280.7798" y="-743.9" font-family="Arial" font-size="14.00" fill="#666666">[int(10) unsigned]</text>
<polygon fill="none" stroke="#000000" points="259,-702.5 259,-732.5 500,-732.5 500,-702.5 259,-702.5"/>
<text text-anchor="start" x="266" y="-713.9" font-family="Arial" font-size="14.00" fill="#000000">role_id </text>
<text text-anchor="start" x="311.8948" y="-713.9" font-family="Arial" font-size="14.00" fill="#666666">[int(10) unsigned]</text>
<polygon fill="none" stroke="#000000" points="259,-672.5 259,-702.5 500,-702.5 500,-672.5 259,-672.5"/>
<text text-anchor="start" x="266" y="-683.9" font-family="Arial" font-size="14.00" fill="#000000">is_published </text>
<text text-anchor="start" x="347.6886" y="-683.9" font-family="Arial" font-size="14.00" fill="#666666">[tinyint(1)]</text>
<polygon fill="none" stroke="#000000" points="259,-642.5 259,-672.5 500,-672.5 500,-642.5 259,-642.5"/>
<text text-anchor="start" x="266" y="-653.9" font-family="Arial" font-size="14.00" fill="#000000">date_added </text>
<text text-anchor="start" x="343.8246" y="-653.9" font-family="Arial" font-size="14.00" fill="#666666">[datetime]</text>
<polygon fill="none" stroke="#000000" points="259,-612.5 259,-642.5 500,-642.5 500,-612.5 259,-612.5"/>
<text text-anchor="start" x="266" y="-623.9" font-family="Arial" font-size="14.00" fill="#000000">created_by </text>
<text text-anchor="start" x="339.1374" y="-623.9" font-family="Arial" font-size="14.00" fill="#666666">[int(11)]</text>
<polygon fill="none" stroke="#000000" points="259,-582.5 259,-612.5 500,-612.5 500,-582.5 259,-582.5"/>
<text text-anchor="start" x="266" y="-593.9" font-family="Arial" font-size="14.00" fill="#000000">created_by_user </text>
<text text-anchor="start" x="374.1458" y="-593.9" font-family="Arial" font-size="14.00" fill="#666666">[varchar(191)]</text>
<polygon fill="none" stroke="#000000" points="259,-552.5 259,-582.5 500,-582.5 500,-552.5 259,-552.5"/>
<text text-anchor="start" x="266" y="-563.9" font-family="Arial" font-size="14.00" fill="#000000">date_modified </text>
<text text-anchor="start" x="357.8064" y="-563.9" font-family="Arial" font-size="14.00" fill="#666666">[datetime]</text>
<polygon fill="none" stroke="#000000" points="259,-522.5 259,-552.5 500,-552.5 500,-522.5 259,-522.5"/>
<text text-anchor="start" x="266" y="-533.9" font-family="Arial" font-size="14.00" fill="#000000">modified_by </text>
<text text-anchor="start" x="345.3506" y="-533.9" font-family="Arial" font-size="14.00" fill="#666666">[int(11)]</text>
<polygon fill="none" stroke="#000000" points="259,-492.5 259,-522.5 500,-522.5 500,-492.5 259,-492.5"/>
<text text-anchor="start" x="266" y="-503.9" font-family="Arial" font-size="14.00" fill="#000000">modified_by_user </text>
<text text-anchor="start" x="380.359" y="-503.9" font-family="Arial" font-size="14.00" fill="#666666">[varchar(191)]</text>
<polygon fill="none" stroke="#000000" points="259,-462.5 259,-492.5 500,-492.5 500,-462.5 259,-462.5"/>
<text text-anchor="start" x="266" y="-473.9" font-family="Arial" font-size="14.00" fill="#000000">checked_out </text>
<text text-anchor="start" x="349.2594" y="-473.9" font-family="Arial" font-size="14.00" fill="#666666">[datetime]</text>
<polygon fill="none" stroke="#000000" points="259,-432.5 259,-462.5 500,-462.5 500,-432.5 259,-432.5"/>
<text text-anchor="start" x="266" y="-443.9" font-family="Arial" font-size="14.00" fill="#000000">checked_out_by </text>
<text text-anchor="start" x="371.8246" y="-443.9" font-family="Arial" font-size="14.00" fill="#666666">[int(11)]</text>
<polygon fill="none" stroke="#000000" points="259,-402.5 259,-432.5 500,-432.5 500,-402.5 259,-402.5"/>
<text text-anchor="start" x="265.5239" y="-413.9" font-family="Arial" font-size="14.00" fill="#000000">checked_out_by_user </text>
<text text-anchor="start" x="406.3569" y="-413.9" font-family="Arial" font-size="14.00" fill="#666666">[varchar(191)]</text>
<polygon fill="none" stroke="#000000" points="259,-372.5 259,-402.5 500,-402.5 500,-372.5 259,-372.5"/>
<text text-anchor="start" x="266" y="-383.9" font-family="Arial" font-size="14.00" fill="#000000">username </text>
<text text-anchor="start" x="332.1248" y="-383.9" font-family="Arial" font-size="14.00" fill="#666666">[varchar(191)]</text>
<polygon fill="none" stroke="#000000" points="259,-342.5 259,-372.5 500,-372.5 500,-342.5 259,-342.5"/>
<text text-anchor="start" x="266" y="-353.9" font-family="Arial" font-size="14.00" fill="#000000">password </text>
<text text-anchor="start" x="329.7882" y="-353.9" font-family="Arial" font-size="14.00" fill="#666666">[varchar(64)]</text>
<polygon fill="none" stroke="#000000" points="259,-312.5 259,-342.5 500,-342.5 500,-312.5 259,-312.5"/>
<text text-anchor="start" x="266" y="-323.9" font-family="Arial" font-size="14.00" fill="#000000">first_name </text>
<text text-anchor="start" x="335.23" y="-323.9" font-family="Arial" font-size="14.00" fill="#666666">[varchar(191)]</text>
<polygon fill="none" stroke="#000000" points="259,-282.5 259,-312.5 500,-312.5 500,-282.5 259,-282.5"/>
<text text-anchor="start" x="266" y="-293.9" font-family="Arial" font-size="14.00" fill="#000000">last_name </text>
<text text-anchor="start" x="334.4614" y="-293.9" font-family="Arial" font-size="14.00" fill="#666666">[varchar(191)]</text>
<polygon fill="none" stroke="#000000" points="259,-252.5 259,-282.5 500,-282.5 500,-252.5 259,-252.5"/>
<text text-anchor="start" x="266" y="-263.9" font-family="Arial" font-size="14.00" fill="#000000">email </text>
<text text-anchor="start" x="303.3296" y="-263.9" font-family="Arial" font-size="14.00" fill="#666666">[varchar(191)]</text>
<polygon fill="none" stroke="#000000" points="259,-222.5 259,-252.5 500,-252.5 500,-222.5 259,-222.5"/>
<text text-anchor="start" x="266" y="-233.9" font-family="Arial" font-size="14.00" fill="#000000">position </text>
<text text-anchor="start" x="318.1248" y="-233.9" font-family="Arial" font-size="14.00" fill="#666666">[varchar(191)]</text>
<polygon fill="none" stroke="#000000" points="259,-192.5 259,-222.5 500,-222.5 500,-192.5 259,-192.5"/>
<text text-anchor="start" x="266" y="-203.9" font-family="Arial" font-size="14.00" fill="#000000">timezone </text>
<text text-anchor="start" x="326.6788" y="-203.9" font-family="Arial" font-size="14.00" fill="#666666">[varchar(191)]</text>
<polygon fill="none" stroke="#000000" points="259,-162.5 259,-192.5 500,-192.5 500,-162.5 259,-162.5"/>
<text text-anchor="start" x="266" y="-173.9" font-family="Arial" font-size="14.00" fill="#000000">locale </text>
<text text-anchor="start" x="306.4516" y="-173.9" font-family="Arial" font-size="14.00" fill="#666666">[varchar(191)]</text>
<polygon fill="none" stroke="#000000" points="259,-132.5 259,-162.5 500,-162.5 500,-132.5 259,-132.5"/>
<text text-anchor="start" x="266" y="-143.9" font-family="Arial" font-size="14.00" fill="#000000">last_login </text>
<text text-anchor="start" x="329.014" y="-143.9" font-family="Arial" font-size="14.00" fill="#666666">[datetime]</text>
<polygon fill="none" stroke="#000000" points="259,-102.5 259,-132.5 500,-132.5 500,-102.5 259,-102.5"/>
<text text-anchor="start" x="266" y="-113.9" font-family="Arial" font-size="14.00" fill="#000000">last_active </text>
<text text-anchor="start" x="336.0154" y="-113.9" font-family="Arial" font-size="14.00" fill="#666666">[datetime]</text>
<polygon fill="none" stroke="#000000" points="259,-72.5 259,-102.5 500,-102.5 500,-72.5 259,-72.5"/>
<text text-anchor="start" x="266" y="-83.9" font-family="Arial" font-size="14.00" fill="#000000">preferences </text>
<text text-anchor="start" x="343.798" y="-83.9" font-family="Arial" font-size="14.00" fill="#666666">[longtext]</text>
<polygon fill="none" stroke="#000000" points="259,-42.5 259,-72.5 500,-72.5 500,-42.5 259,-42.5"/>
<text text-anchor="start" x="266" y="-53.9" font-family="Arial" font-size="14.00" fill="#000000">signature </text>
<text text-anchor="start" x="327.4614" y="-53.9" font-family="Arial" font-size="14.00" fill="#666666">[longtext]</text>
</g>
<!-- companies&#45;&gt;users -->
<g id="edge2" class="edge">
<title>companies:owner_id&#45;&gt;users:id</title>
<path fill="none" stroke="#000000" d="M237.2767,-1744.6093C152.6584,-1692.3247 185.8359,-947.4834 247,-877 321.4396,-791.2183 425.5604,-926.7817 500,-841 527.236,-809.6142 541.5556,-747.5 500,-747.5"/>
<polygon fill="#000000" stroke="#000000" points="237.4146,-1744.6502 245.7176,-1751.8134 242.2073,-1746.0751 247,-1747.5 247,-1747.5 247,-1747.5 242.2073,-1746.0751 248.2824,-1743.1866 237.4146,-1744.6502 237.4146,-1744.6502"/>
<text text-anchor="start" x="7.056" y="-1757.5" font-family="Arial" font-size="10.00" fill="#000000">FOREIGN KEY (owner_id) REFERENCES users (id)</text>
</g>
<!-- companies_leads -->
<g id="node2" class="node">
<title>companies_leads</title>
<polygon fill="#efefef" stroke="transparent" points="254,-2072.5 254,-2107.5 505,-2107.5 505,-2072.5 254,-2072.5"/>
<polygon fill="none" stroke="#000000" points="254,-2072.5 254,-2107.5 505,-2107.5 505,-2072.5 254,-2072.5"/>
<text text-anchor="start" x="260.8549" y="-2085.3" font-family="Arial Bold" font-size="18.00" fill="#000000">companies_leads</text>
<text text-anchor="start" x="400.8913" y="-2085.3" font-family="Arial" font-size="14.00" fill="#000000"> </text>
<text text-anchor="start" x="404.7819" y="-2085.3" font-family="Arial" font-size="14.00" fill="#666666">[BASE TABLE]</text>
<polygon fill="none" stroke="#000000" points="254,-2042.5 254,-2072.5 505,-2072.5 505,-2042.5 254,-2042.5"/>
<text text-anchor="start" x="261" y="-2053.9" font-family="Arial" font-size="14.00" fill="#000000">company_id </text>
<text text-anchor="start" x="340.3534" y="-2053.9" font-family="Arial" font-size="14.00" fill="#666666">[int(11)]</text>
<polygon fill="none" stroke="#000000" points="254,-2012.5 254,-2042.5 505,-2042.5 505,-2012.5 254,-2012.5"/>
<text text-anchor="start" x="261" y="-2023.9" font-family="Arial" font-size="14.00" fill="#000000">lead_id </text>
<text text-anchor="start" x="310.0168" y="-2023.9" font-family="Arial" font-size="14.00" fill="#666666">[bigint(20) unsigned]</text>
<polygon fill="none" stroke="#000000" points="254,-1982.5 254,-2012.5 505,-2012.5 505,-1982.5 254,-1982.5"/>
<text text-anchor="start" x="261" y="-1993.9" font-family="Arial" font-size="14.00" fill="#000000">date_added </text>
<text text-anchor="start" x="338.8246" y="-1993.9" font-family="Arial" font-size="14.00" fill="#666666">[datetime]</text>
<polygon fill="none" stroke="#000000" points="254,-1952.5 254,-1982.5 505,-1982.5 505,-1952.5 254,-1952.5"/>
<text text-anchor="start" x="261" y="-1963.9" font-family="Arial" font-size="14.00" fill="#000000">is_primary </text>
<text text-anchor="start" x="329.4334" y="-1963.9" font-family="Arial" font-size="14.00" fill="#666666">[tinyint(1)]</text>
</g>
<!-- companies_leads&#45;&gt;companies -->
<g id="edge1" class="edge">
<title>companies_leads:company_id&#45;&gt;companies:id</title>
<path fill="none" stroke="#000000" d="M514.976,-2056.6443C568.0308,-2046.9216 545.6794,-1956.7497 505,-1910 429,-1822.659 323,-1961.341 247,-1874 218.8464,-1841.6452 204.1111,-1777.5 247,-1777.5"/>
<polygon fill="#000000" stroke="#000000" points="514.9634,-2056.6453 504.6154,-2053.0165 509.9817,-2057.0726 505,-2057.5 505,-2057.5 505,-2057.5 509.9817,-2057.0726 505.3846,-2061.9835 514.9634,-2056.6453 514.9634,-2056.6453"/>
<text text-anchor="start" x="512.438" y="-2067.5" font-family="Arial" font-size="10.00" fill="#000000">FOREIGN KEY (company_id) REFERENCES companies (id)</text>
</g>
</g>
</svg>
