<?xml version="1.0" encoding="UTF-8" standalone="no"?>
<!DOCTYPE svg PUBLIC "-//W3C//DTD SVG 1.1//EN"
 "http://www.w3.org/Graphics/SVG/1.1/DTD/svg11.dtd">
<!-- Generated by graphviz version 2.40.1 (20161225.0304)
 -->
<!-- Title: companies_leads Pages: 1 -->
<svg width="783pt" height="1762pt"
 viewBox="0.00 0.00 783.00 1762.00" xmlns="http://www.w3.org/2000/svg" xmlns:xlink="http://www.w3.org/1999/xlink">
<g id="graph0" class="graph" transform="scale(1 1) rotate(0) translate(4 1758)">
<title>companies_leads</title>
<polygon fill="#ffffff" stroke="transparent" points="-4,4 -4,-1758 779,-1758 779,4 -4,4"/>
<!-- companies_leads -->
<g id="node1" class="node">
<title>companies_leads</title>
<polygon fill="#efefef" stroke="transparent" points="285,-1672.5 285,-1707.5 536,-1707.5 536,-1672.5 285,-1672.5"/>
<polygon fill="none" stroke="#000000" points="285,-1672.5 285,-1707.5 536,-1707.5 536,-1672.5 285,-1672.5"/>
<text text-anchor="start" x="291.8549" y="-1685.3" font-family="Arial Bold" font-size="18.00" fill="#000000">companies_leads</text>
<text text-anchor="start" x="431.8913" y="-1685.3" font-family="Arial" font-size="14.00" fill="#000000"> </text>
<text text-anchor="start" x="435.7819" y="-1685.3" font-family="Arial" font-size="14.00" fill="#666666">[BASE TABLE]</text>
<polygon fill="none" stroke="#000000" points="285,-1642.5 285,-1672.5 536,-1672.5 536,-1642.5 285,-1642.5"/>
<text text-anchor="start" x="292" y="-1653.9" font-family="Arial" font-size="14.00" fill="#000000">company_id </text>
<text text-anchor="start" x="371.3534" y="-1653.9" font-family="Arial" font-size="14.00" fill="#666666">[int(11)]</text>
<polygon fill="none" stroke="#000000" points="285,-1612.5 285,-1642.5 536,-1642.5 536,-1612.5 285,-1612.5"/>
<text text-anchor="start" x="292" y="-1623.9" font-family="Arial" font-size="14.00" fill="#000000">lead_id </text>
<text text-anchor="start" x="341.0168" y="-1623.9" font-family="Arial" font-size="14.00" fill="#666666">[bigint(20) unsigned]</text>
<polygon fill="none" stroke="#000000" points="285,-1582.5 285,-1612.5 536,-1612.5 536,-1582.5 285,-1582.5"/>
<text text-anchor="start" x="292" y="-1593.9" font-family="Arial" font-size="14.00" fill="#000000">date_added </text>
<text text-anchor="start" x="369.8246" y="-1593.9" font-family="Arial" font-size="14.00" fill="#666666">[datetime]</text>
<polygon fill="none" stroke="#000000" points="285,-1552.5 285,-1582.5 536,-1582.5 536,-1552.5 285,-1552.5"/>
<text text-anchor="start" x="292" y="-1563.9" font-family="Arial" font-size="14.00" fill="#000000">is_primary </text>
<text text-anchor="start" x="360.4334" y="-1563.9" font-family="Arial" font-size="14.00" fill="#666666">[tinyint(1)]</text>
<polygon fill="none" stroke="#000000" stroke-width="3" points="283,-1551.5 283,-1709.5 537,-1709.5 537,-1551.5 283,-1551.5"/>
</g>
<!-- companies -->
<g id="node2" class="node">
<title>companies</title>
<polygon fill="#efefef" stroke="transparent" points="96,-1152.5 96,-1187.5 362,-1187.5 362,-1152.5 96,-1152.5"/>
<polygon fill="none" stroke="#000000" points="96,-1152.5 96,-1187.5 362,-1187.5 362,-1152.5 96,-1152.5"/>
<text text-anchor="start" x="136.8644" y="-1165.3" font-family="Arial Bold" font-size="18.00" fill="#000000">companies</text>
<text text-anchor="start" x="223.8818" y="-1165.3" font-family="Arial" font-size="14.00" fill="#000000"> </text>
<text text-anchor="start" x="227.7724" y="-1165.3" font-family="Arial" font-size="14.00" fill="#666666">[BASE TABLE]</text>
<polygon fill="none" stroke="#000000" points="96,-1122.5 96,-1152.5 362,-1152.5 362,-1122.5 96,-1122.5"/>
<text text-anchor="start" x="103" y="-1133.9" font-family="Arial" font-size="14.00" fill="#000000">id </text>
<text text-anchor="start" x="117.7798" y="-1133.9" font-family="Arial" font-size="14.00" fill="#666666">[int(11)]</text>
<polygon fill="none" stroke="#000000" points="96,-1092.5 96,-1122.5 362,-1122.5 362,-1092.5 96,-1092.5"/>
<text text-anchor="start" x="103" y="-1103.9" font-family="Arial" font-size="14.00" fill="#000000">owner_id </text>
<text text-anchor="start" x="163.6774" y="-1103.9" font-family="Arial" font-size="14.00" fill="#666666">[int(10) unsigned]</text>
<polygon fill="none" stroke="#000000" points="96,-1062.5 96,-1092.5 362,-1092.5 362,-1062.5 96,-1062.5"/>
<text text-anchor="start" x="103" y="-1073.9" font-family="Arial" font-size="14.00" fill="#000000">is_published </text>
<text text-anchor="start" x="184.6886" y="-1073.9" font-family="Arial" font-size="14.00" fill="#666666">[tinyint(1)]</text>
<polygon fill="none" stroke="#000000" points="96,-1032.5 96,-1062.5 362,-1062.5 362,-1032.5 96,-1032.5"/>
<text text-anchor="start" x="103" y="-1043.9" font-family="Arial" font-size="14.00" fill="#000000">date_added </text>
<text text-anchor="start" x="180.8246" y="-1043.9" font-family="Arial" font-size="14.00" fill="#666666">[datetime]</text>
<polygon fill="none" stroke="#000000" points="96,-1002.5 96,-1032.5 362,-1032.5 362,-1002.5 96,-1002.5"/>
<text text-anchor="start" x="103" y="-1013.9" font-family="Arial" font-size="14.00" fill="#000000">created_by </text>
<text text-anchor="start" x="176.1374" y="-1013.9" font-family="Arial" font-size="14.00" fill="#666666">[int(11)]</text>
<polygon fill="none" stroke="#000000" points="96,-972.5 96,-1002.5 362,-1002.5 362,-972.5 96,-972.5"/>
<text text-anchor="start" x="103" y="-983.9" font-family="Arial" font-size="14.00" fill="#000000">created_by_user </text>
<text text-anchor="start" x="211.1458" y="-983.9" font-family="Arial" font-size="14.00" fill="#666666">[varchar(191)]</text>
<polygon fill="none" stroke="#000000" points="96,-942.5 96,-972.5 362,-972.5 362,-942.5 96,-942.5"/>
<text text-anchor="start" x="103" y="-953.9" font-family="Arial" font-size="14.00" fill="#000000">date_modified </text>
<text text-anchor="start" x="194.8064" y="-953.9" font-family="Arial" font-size="14.00" fill="#666666">[datetime]</text>
<polygon fill="none" stroke="#000000" points="96,-912.5 96,-942.5 362,-942.5 362,-912.5 96,-912.5"/>
<text text-anchor="start" x="103" y="-923.9" font-family="Arial" font-size="14.00" fill="#000000">modified_by </text>
<text text-anchor="start" x="182.3506" y="-923.9" font-family="Arial" font-size="14.00" fill="#666666">[int(11)]</text>
<polygon fill="none" stroke="#000000" points="96,-882.5 96,-912.5 362,-912.5 362,-882.5 96,-882.5"/>
<text text-anchor="start" x="103" y="-893.9" font-family="Arial" font-size="14.00" fill="#000000">modified_by_user </text>
<text text-anchor="start" x="217.359" y="-893.9" font-family="Arial" font-size="14.00" fill="#666666">[varchar(191)]</text>
<polygon fill="none" stroke="#000000" points="96,-852.5 96,-882.5 362,-882.5 362,-852.5 96,-852.5"/>
<text text-anchor="start" x="103" y="-863.9" font-family="Arial" font-size="14.00" fill="#000000">checked_out </text>
<text text-anchor="start" x="186.2594" y="-863.9" font-family="Arial" font-size="14.00" fill="#666666">[datetime]</text>
<polygon fill="none" stroke="#000000" points="96,-822.5 96,-852.5 362,-852.5 362,-822.5 96,-822.5"/>
<text text-anchor="start" x="103" y="-833.9" font-family="Arial" font-size="14.00" fill="#000000">checked_out_by </text>
<text text-anchor="start" x="208.8246" y="-833.9" font-family="Arial" font-size="14.00" fill="#666666">[int(11)]</text>
<polygon fill="none" stroke="#000000" points="96,-792.5 96,-822.5 362,-822.5 362,-792.5 96,-792.5"/>
<text text-anchor="start" x="103" y="-803.9" font-family="Arial" font-size="14.00" fill="#000000">checked_out_by_user </text>
<text text-anchor="start" x="243.833" y="-803.9" font-family="Arial" font-size="14.00" fill="#666666">[varchar(191)]</text>
<polygon fill="none" stroke="#000000" points="96,-762.5 96,-792.5 362,-792.5 362,-762.5 96,-762.5"/>
<text text-anchor="start" x="103" y="-773.9" font-family="Arial" font-size="14.00" fill="#000000">social_cache </text>
<text text-anchor="start" x="187.7994" y="-773.9" font-family="Arial" font-size="14.00" fill="#666666">[longtext]</text>
<polygon fill="none" stroke="#000000" points="96,-732.5 96,-762.5 362,-762.5 362,-732.5 96,-732.5"/>
<text text-anchor="start" x="103" y="-743.9" font-family="Arial" font-size="14.00" fill="#000000">score </text>
<text text-anchor="start" x="141.1164" y="-743.9" font-family="Arial" font-size="14.00" fill="#666666">[int(11)]</text>
<polygon fill="none" stroke="#000000" points="96,-702.5 96,-732.5 362,-732.5 362,-702.5 96,-702.5"/>
<text text-anchor="start" x="103" y="-713.9" font-family="Arial" font-size="14.00" fill="#000000">companyemail </text>
<text text-anchor="start" x="197.1206" y="-713.9" font-family="Arial" font-size="14.00" fill="#666666">[varchar(191)]</text>
<polygon fill="none" stroke="#000000" points="96,-672.5 96,-702.5 362,-702.5 362,-672.5 96,-672.5"/>
<text text-anchor="start" x="103" y="-683.9" font-family="Arial" font-size="14.00" fill="#000000">companyaddress1 </text>
<text text-anchor="start" x="221.2552" y="-683.9" font-family="Arial" font-size="14.00" fill="#666666">[varchar(191)]</text>
<polygon fill="none" stroke="#000000" points="96,-642.5 96,-672.5 362,-672.5 362,-642.5 96,-642.5"/>
<text text-anchor="start" x="103" y="-653.9" font-family="Arial" font-size="14.00" fill="#000000">companyaddress2 </text>
<text text-anchor="start" x="221.2552" y="-653.9" font-family="Arial" font-size="14.00" fill="#666666">[varchar(191)]</text>
<polygon fill="none" stroke="#000000" points="96,-612.5 96,-642.5 362,-642.5 362,-612.5 96,-612.5"/>
<text text-anchor="start" x="103" y="-623.9" font-family="Arial" font-size="14.00" fill="#000000">companyphone </text>
<text text-anchor="start" x="202.5946" y="-623.9" font-family="Arial" font-size="14.00" fill="#666666">[varchar(191)]</text>
<polygon fill="none" stroke="#000000" points="96,-582.5 96,-612.5 362,-612.5 362,-582.5 96,-582.5"/>
<text text-anchor="start" x="103" y="-593.9" font-family="Arial" font-size="14.00" fill="#000000">companycity </text>
<text text-anchor="start" x="184.6788" y="-593.9" font-family="Arial" font-size="14.00" fill="#666666">[varchar(191)]</text>
<polygon fill="none" stroke="#000000" points="96,-552.5 96,-582.5 362,-582.5 362,-552.5 96,-552.5"/>
<text text-anchor="start" x="103" y="-563.9" font-family="Arial" font-size="14.00" fill="#000000">companystate </text>
<text text-anchor="start" x="194.028" y="-563.9" font-family="Arial" font-size="14.00" fill="#666666">[varchar(191)]</text>
<polygon fill="none" stroke="#000000" points="96,-522.5 96,-552.5 362,-552.5 362,-522.5 96,-522.5"/>
<text text-anchor="start" x="103" y="-533.9" font-family="Arial" font-size="14.00" fill="#000000">companyzipcode </text>
<text text-anchor="start" x="211.9186" y="-533.9" font-family="Arial" font-size="14.00" fill="#666666">[varchar(191)]</text>
<polygon fill="none" stroke="#000000" points="96,-492.5 96,-522.5 362,-522.5 362,-492.5 96,-492.5"/>
<text text-anchor="start" x="103" y="-503.9" font-family="Arial" font-size="14.00" fill="#000000">companycountry </text>
<text text-anchor="start" x="209.5806" y="-503.9" font-family="Arial" font-size="14.00" fill="#666666">[varchar(191)]</text>
<polygon fill="none" stroke="#000000" points="96,-462.5 96,-492.5 362,-492.5 362,-462.5 96,-462.5"/>
<text text-anchor="start" x="103" y="-473.9" font-family="Arial" font-size="14.00" fill="#000000">companyname </text>
<text text-anchor="start" x="198.69" y="-473.9" font-family="Arial" font-size="14.00" fill="#666666">[varchar(191)]</text>
<polygon fill="none" stroke="#000000" points="96,-432.5 96,-462.5 362,-462.5 362,-432.5 96,-432.5"/>
<text text-anchor="start" x="103" y="-443.9" font-family="Arial" font-size="14.00" fill="#000000">companywebsite </text>
<text text-anchor="start" x="211.1332" y="-443.9" font-family="Arial" font-size="14.00" fill="#666666">[longtext]</text>
<polygon fill="none" stroke="#000000" points="96,-402.5 96,-432.5 362,-432.5 362,-402.5 96,-402.5"/>
<text text-anchor="start" x="103" y="-413.9" font-family="Arial" font-size="14.00" fill="#000000">companyindustry </text>
<text text-anchor="start" x="212.6872" y="-413.9" font-family="Arial" font-size="14.00" fill="#666666">[varchar(191)]</text>
<polygon fill="none" stroke="#000000" points="96,-372.5 96,-402.5 362,-402.5 362,-372.5 96,-372.5"/>
<text text-anchor="start" x="103" y="-383.9" font-family="Arial" font-size="14.00" fill="#000000">companydescription </text>
<text text-anchor="start" x="231.359" y="-383.9" font-family="Arial" font-size="14.00" fill="#666666">[longtext]</text>
<polygon fill="none" stroke="#000000" points="96,-342.5 96,-372.5 362,-372.5 362,-342.5 96,-342.5"/>
<text text-anchor="start" x="102.5737" y="-353.9" font-family="Arial" font-size="14.00" fill="#000000">companynumber_of_employees </text>
<text text-anchor="start" x="305.6255" y="-353.9" font-family="Arial" font-size="14.00" fill="#666666">[double]</text>
<polygon fill="none" stroke="#000000" points="96,-312.5 96,-342.5 362,-342.5 362,-312.5 96,-312.5"/>
<text text-anchor="start" x="103" y="-323.9" font-family="Arial" font-size="14.00" fill="#000000">companyfax </text>
<text text-anchor="start" x="182.3548" y="-323.9" font-family="Arial" font-size="14.00" fill="#666666">[varchar(255)]</text>
<polygon fill="none" stroke="#000000" points="96,-282.5 96,-312.5 362,-312.5 362,-282.5 96,-282.5"/>
<text text-anchor="start" x="103" y="-293.9" font-family="Arial" font-size="14.00" fill="#000000">companyannual_revenue </text>
<text text-anchor="start" x="264.0574" y="-293.9" font-family="Arial" font-size="14.00" fill="#666666">[double]</text>
</g>
<!-- companies_leads&#45;&gt;companies -->
<g id="edge1" class="edge">
<title>companies_leads:company_id&#45;&gt;companies:id</title>
<path fill="none" stroke="#000000" d="M275.0095,-1655.9147C187.7617,-1624.5244 475.051,-1137.5 362,-1137.5"/>
<polygon fill="#000000" stroke="#000000" points="275.1236,-1655.9327 284.2947,-1661.9444 280.0618,-1656.7163 285,-1657.5 285,-1657.5 285,-1657.5 280.0618,-1656.7163 285.7053,-1653.0556 275.1236,-1655.9327 275.1236,-1655.9327"/>
<text text-anchor="start" x="7.438" y="-1667.5" font-family="Arial" font-size="10.00" fill="#000000">FOREIGN KEY (company_id) REFERENCES companies (id)</text>
</g>
<!-- leads -->
<g id="node3" class="node">
<title>leads</title>
<polygon fill="#efefef" stroke="transparent" points="467,-1392.5 467,-1427.5 720,-1427.5 720,-1392.5 467,-1392.5"/>
<polygon fill="none" stroke="#000000" points="467,-1392.5 467,-1427.5 720,-1427.5 720,-1392.5 467,-1392.5"/>
<text text-anchor="start" x="523.3667" y="-1405.3" font-family="Arial Bold" font-size="18.00" fill="#000000">leads</text>
<text text-anchor="start" x="566.3795" y="-1405.3" font-family="Arial" font-size="14.00" fill="#000000"> </text>
<text text-anchor="start" x="570.2701" y="-1405.3" font-family="Arial" font-size="14.00" fill="#666666">[BASE TABLE]</text>
<polygon fill="none" stroke="#000000" points="467,-1362.5 467,-1392.5 720,-1392.5 720,-1362.5 467,-1362.5"/>
<text text-anchor="start" x="474" y="-1373.9" font-family="Arial" font-size="14.00" fill="#000000">id </text>
<text text-anchor="start" x="488.7798" y="-1373.9" font-family="Arial" font-size="14.00" fill="#666666">[bigint(20) unsigned]</text>
<polygon fill="none" stroke="#000000" points="467,-1332.5 467,-1362.5 720,-1362.5 720,-1332.5 467,-1332.5"/>
<text text-anchor="start" x="474" y="-1343.9" font-family="Arial" font-size="14.00" fill="#000000">owner_id </text>
<text text-anchor="start" x="534.6774" y="-1343.9" font-family="Arial" font-size="14.00" fill="#666666">[int(10) unsigned]</text>
<polygon fill="none" stroke="#000000" points="467,-1302.5 467,-1332.5 720,-1332.5 720,-1302.5 467,-1302.5"/>
<text text-anchor="start" x="474" y="-1313.9" font-family="Arial" font-size="14.00" fill="#000000">stage_id </text>
<text text-anchor="start" x="530.8008" y="-1313.9" font-family="Arial" font-size="14.00" fill="#666666">[int(10) unsigned]</text>
<polygon fill="none" stroke="#000000" points="467,-1272.5 467,-1302.5 720,-1302.5 720,-1272.5 467,-1272.5"/>
<text text-anchor="start" x="474" y="-1283.9" font-family="Arial" font-size="14.00" fill="#000000">is_published </text>
<text text-anchor="start" x="555.6886" y="-1283.9" font-family="Arial" font-size="14.00" fill="#666666">[tinyint(1)]</text>
<polygon fill="none" stroke="#000000" points="467,-1242.5 467,-1272.5 720,-1272.5 720,-1242.5 467,-1242.5"/>
<text text-anchor="start" x="474" y="-1253.9" font-family="Arial" font-size="14.00" fill="#000000">date_added </text>
<text text-anchor="start" x="551.8246" y="-1253.9" font-family="Arial" font-size="14.00" fill="#666666">[datetime]</text>
<polygon fill="none" stroke="#000000" points="467,-1212.5 467,-1242.5 720,-1242.5 720,-1212.5 467,-1212.5"/>
<text text-anchor="start" x="474" y="-1223.9" font-family="Arial" font-size="14.00" fill="#000000">created_by </text>
<text text-anchor="start" x="547.1374" y="-1223.9" font-family="Arial" font-size="14.00" fill="#666666">[int(11)]</text>
<polygon fill="none" stroke="#000000" points="467,-1182.5 467,-1212.5 720,-1212.5 720,-1182.5 467,-1182.5"/>
<text text-anchor="start" x="474" y="-1193.9" font-family="Arial" font-size="14.00" fill="#000000">created_by_user </text>
<text text-anchor="start" x="582.1458" y="-1193.9" font-family="Arial" font-size="14.00" fill="#666666">[varchar(191)]</text>
<polygon fill="none" stroke="#000000" points="467,-1152.5 467,-1182.5 720,-1182.5 720,-1152.5 467,-1152.5"/>
<text text-anchor="start" x="474" y="-1163.9" font-family="Arial" font-size="14.00" fill="#000000">date_modified </text>
<text text-anchor="start" x="565.8064" y="-1163.9" font-family="Arial" font-size="14.00" fill="#666666">[datetime]</text>
<polygon fill="none" stroke="#000000" points="467,-1122.5 467,-1152.5 720,-1152.5 720,-1122.5 467,-1122.5"/>
<text text-anchor="start" x="474" y="-1133.9" font-family="Arial" font-size="14.00" fill="#000000">modified_by </text>
<text text-anchor="start" x="553.3506" y="-1133.9" font-family="Arial" font-size="14.00" fill="#666666">[int(11)]</text>
<polygon fill="none" stroke="#000000" points="467,-1092.5 467,-1122.5 720,-1122.5 720,-1092.5 467,-1092.5"/>
<text text-anchor="start" x="474" y="-1103.9" font-family="Arial" font-size="14.00" fill="#000000">modified_by_user </text>
<text text-anchor="start" x="588.359" y="-1103.9" font-family="Arial" font-size="14.00" fill="#666666">[varchar(191)]</text>
<polygon fill="none" stroke="#000000" points="467,-1062.5 467,-1092.5 720,-1092.5 720,-1062.5 467,-1062.5"/>
<text text-anchor="start" x="474" y="-1073.9" font-family="Arial" font-size="14.00" fill="#000000">checked_out </text>
<text text-anchor="start" x="557.2594" y="-1073.9" font-family="Arial" font-size="14.00" fill="#666666">[datetime]</text>
<polygon fill="none" stroke="#000000" points="467,-1032.5 467,-1062.5 720,-1062.5 720,-1032.5 467,-1032.5"/>
<text text-anchor="start" x="474" y="-1043.9" font-family="Arial" font-size="14.00" fill="#000000">checked_out_by </text>
<text text-anchor="start" x="579.8246" y="-1043.9" font-family="Arial" font-size="14.00" fill="#666666">[int(11)]</text>
<polygon fill="none" stroke="#000000" points="467,-1002.5 467,-1032.5 720,-1032.5 720,-1002.5 467,-1002.5"/>
<text text-anchor="start" x="474" y="-1013.9" font-family="Arial" font-size="14.00" fill="#000000">checked_out_by_user </text>
<text text-anchor="start" x="614.833" y="-1013.9" font-family="Arial" font-size="14.00" fill="#666666">[varchar(191)]</text>
<polygon fill="none" stroke="#000000" points="467,-972.5 467,-1002.5 720,-1002.5 720,-972.5 467,-972.5"/>
<text text-anchor="start" x="474" y="-983.9" font-family="Arial" font-size="14.00" fill="#000000">points </text>
<text text-anchor="start" x="515.2356" y="-983.9" font-family="Arial" font-size="14.00" fill="#666666">[int(11)]</text>
<polygon fill="none" stroke="#000000" points="467,-942.5 467,-972.5 720,-972.5 720,-942.5 467,-942.5"/>
<text text-anchor="start" x="474" y="-953.9" font-family="Arial" font-size="14.00" fill="#000000">last_active </text>
<text text-anchor="start" x="544.0154" y="-953.9" font-family="Arial" font-size="14.00" fill="#666666">[datetime]</text>
<polygon fill="none" stroke="#000000" points="467,-912.5 467,-942.5 720,-942.5 720,-912.5 467,-912.5"/>
<text text-anchor="start" x="474" y="-923.9" font-family="Arial" font-size="14.00" fill="#000000">internal </text>
<text text-anchor="start" x="523.7854" y="-923.9" font-family="Arial" font-size="14.00" fill="#666666">[longtext]</text>
<polygon fill="none" stroke="#000000" points="467,-882.5 467,-912.5 720,-912.5 720,-882.5 467,-882.5"/>
<text text-anchor="start" x="474" y="-893.9" font-family="Arial" font-size="14.00" fill="#000000">social_cache </text>
<text text-anchor="start" x="558.7994" y="-893.9" font-family="Arial" font-size="14.00" fill="#666666">[longtext]</text>
<polygon fill="none" stroke="#000000" points="467,-852.5 467,-882.5 720,-882.5 720,-852.5 467,-852.5"/>
<text text-anchor="start" x="474" y="-863.9" font-family="Arial" font-size="14.00" fill="#000000">date_identified </text>
<text text-anchor="start" x="568.9256" y="-863.9" font-family="Arial" font-size="14.00" fill="#666666">[datetime]</text>
<polygon fill="none" stroke="#000000" points="467,-822.5 467,-852.5 720,-852.5 720,-822.5 467,-822.5"/>
<text text-anchor="start" x="473.7062" y="-833.9" font-family="Arial" font-size="14.00" fill="#000000">preferred_profile_image </text>
<text text-anchor="start" x="626.1746" y="-833.9" font-family="Arial" font-size="14.00" fill="#666666">[varchar(191)]</text>
<polygon fill="none" stroke="#000000" points="467,-792.5 467,-822.5 720,-822.5 720,-792.5 467,-792.5"/>
<text text-anchor="start" x="474" y="-803.9" font-family="Arial" font-size="14.00" fill="#000000">title </text>
<text text-anchor="start" x="499.6676" y="-803.9" font-family="Arial" font-size="14.00" fill="#666666">[varchar(191)]</text>
<polygon fill="none" stroke="#000000" points="467,-762.5 467,-792.5 720,-792.5 720,-762.5 467,-762.5"/>
<text text-anchor="start" x="474" y="-773.9" font-family="Arial" font-size="14.00" fill="#000000">firstname </text>
<text text-anchor="start" x="535.4474" y="-773.9" font-family="Arial" font-size="14.00" fill="#666666">[varchar(191)]</text>
<polygon fill="none" stroke="#000000" points="467,-732.5 467,-762.5 720,-762.5 720,-732.5 467,-732.5"/>
<text text-anchor="start" x="474" y="-743.9" font-family="Arial" font-size="14.00" fill="#000000">lastname </text>
<text text-anchor="start" x="534.6788" y="-743.9" font-family="Arial" font-size="14.00" fill="#666666">[varchar(191)]</text>
<polygon fill="none" stroke="#000000" points="467,-702.5 467,-732.5 720,-732.5 720,-702.5 467,-702.5"/>
<text text-anchor="start" x="474" y="-713.9" font-family="Arial" font-size="14.00" fill="#000000">company </text>
<text text-anchor="start" x="534.6816" y="-713.9" font-family="Arial" font-size="14.00" fill="#666666">[varchar(191)]</text>
<polygon fill="none" stroke="#000000" points="467,-672.5 467,-702.5 720,-702.5 720,-672.5 467,-672.5"/>
<text text-anchor="start" x="474" y="-683.9" font-family="Arial" font-size="14.00" fill="#000000">position </text>
<text text-anchor="start" x="526.1248" y="-683.9" font-family="Arial" font-size="14.00" fill="#666666">[varchar(191)]</text>
<polygon fill="none" stroke="#000000" points="467,-642.5 467,-672.5 720,-672.5 720,-642.5 467,-642.5"/>
<text text-anchor="start" x="474" y="-653.9" font-family="Arial" font-size="14.00" fill="#000000">email </text>
<text text-anchor="start" x="511.3296" y="-653.9" font-family="Arial" font-size="14.00" fill="#666666">[varchar(191)]</text>
<polygon fill="none" stroke="#000000" points="467,-612.5 467,-642.5 720,-642.5 720,-612.5 467,-612.5"/>
<text text-anchor="start" x="474" y="-623.9" font-family="Arial" font-size="14.00" fill="#000000">phone </text>
<text text-anchor="start" x="516.8036" y="-623.9" font-family="Arial" font-size="14.00" fill="#666666">[varchar(191)]</text>
<polygon fill="none" stroke="#000000" points="467,-582.5 467,-612.5 720,-612.5 720,-582.5 467,-582.5"/>
<text text-anchor="start" x="474" y="-593.9" font-family="Arial" font-size="14.00" fill="#000000">mobile </text>
<text text-anchor="start" x="519.1122" y="-593.9" font-family="Arial" font-size="14.00" fill="#666666">[varchar(191)]</text>
<polygon fill="none" stroke="#000000" points="467,-552.5 467,-582.5 720,-582.5 720,-552.5 467,-552.5"/>
<text text-anchor="start" x="474" y="-563.9" font-family="Arial" font-size="14.00" fill="#000000">address1 </text>
<text text-anchor="start" x="535.4642" y="-563.9" font-family="Arial" font-size="14.00" fill="#666666">[varchar(191)]</text>
<polygon fill="none" stroke="#000000" points="467,-522.5 467,-552.5 720,-552.5 720,-522.5 467,-522.5"/>
<text text-anchor="start" x="474" y="-533.9" font-family="Arial" font-size="14.00" fill="#000000">address2 </text>
<text text-anchor="start" x="535.4642" y="-533.9" font-family="Arial" font-size="14.00" fill="#666666">[varchar(191)]</text>
<polygon fill="none" stroke="#000000" points="467,-492.5 467,-522.5 720,-522.5 720,-492.5 467,-492.5"/>
<text text-anchor="start" x="474" y="-503.9" font-family="Arial" font-size="14.00" fill="#000000">city </text>
<text text-anchor="start" x="498.8878" y="-503.9" font-family="Arial" font-size="14.00" fill="#666666">[varchar(191)]</text>
<polygon fill="none" stroke="#000000" points="467,-462.5 467,-492.5 720,-492.5 720,-462.5 467,-462.5"/>
<text text-anchor="start" x="474" y="-473.9" font-family="Arial" font-size="14.00" fill="#000000">state </text>
<text text-anchor="start" x="508.237" y="-473.9" font-family="Arial" font-size="14.00" fill="#666666">[varchar(191)]</text>
<polygon fill="none" stroke="#000000" points="467,-432.5 467,-462.5 720,-462.5 720,-432.5 467,-432.5"/>
<text text-anchor="start" x="474" y="-443.9" font-family="Arial" font-size="14.00" fill="#000000">zipcode </text>
<text text-anchor="start" x="526.1276" y="-443.9" font-family="Arial" font-size="14.00" fill="#666666">[varchar(191)]</text>
<polygon fill="none" stroke="#000000" points="467,-402.5 467,-432.5 720,-432.5 720,-402.5 467,-402.5"/>
<text text-anchor="start" x="474" y="-413.9" font-family="Arial" font-size="14.00" fill="#000000">timezone </text>
<text text-anchor="start" x="534.6788" y="-413.9" font-family="Arial" font-size="14.00" fill="#666666">[varchar(191)]</text>
<polygon fill="none" stroke="#000000" points="467,-372.5 467,-402.5 720,-402.5 720,-372.5 467,-372.5"/>
<text text-anchor="start" x="474" y="-383.9" font-family="Arial" font-size="14.00" fill="#000000">country </text>
<text text-anchor="start" x="523.7896" y="-383.9" font-family="Arial" font-size="14.00" fill="#666666">[varchar(191)]</text>
<polygon fill="none" stroke="#000000" points="467,-342.5 467,-372.5 720,-372.5 720,-342.5 467,-342.5"/>
<text text-anchor="start" x="474" y="-353.9" font-family="Arial" font-size="14.00" fill="#000000">fax </text>
<text text-anchor="start" x="496.5638" y="-353.9" font-family="Arial" font-size="14.00" fill="#666666">[varchar(255)]</text>
<polygon fill="none" stroke="#000000" points="467,-312.5 467,-342.5 720,-342.5 720,-312.5 467,-312.5"/>
<text text-anchor="start" x="474" y="-323.9" font-family="Arial" font-size="14.00" fill="#000000">preferred_locale </text>
<text text-anchor="start" x="579.0196" y="-323.9" font-family="Arial" font-size="14.00" fill="#666666">[varchar(255)]</text>
<polygon fill="none" stroke="#000000" points="467,-282.5 467,-312.5 720,-312.5 720,-282.5 467,-282.5"/>
<text text-anchor="start" x="474" y="-293.9" font-family="Arial" font-size="14.00" fill="#000000">attribution_date </text>
<text text-anchor="start" x="574.3702" y="-293.9" font-family="Arial" font-size="14.00" fill="#666666">[datetime]</text>
<polygon fill="none" stroke="#000000" points="467,-252.5 467,-282.5 720,-282.5 720,-252.5 467,-252.5"/>
<text text-anchor="start" x="474" y="-263.9" font-family="Arial" font-size="14.00" fill="#000000">attribution </text>
<text text-anchor="start" x="539.3492" y="-263.9" font-family="Arial" font-size="14.00" fill="#666666">[double]</text>
<polygon fill="none" stroke="#000000" points="467,-222.5 467,-252.5 720,-252.5 720,-222.5 467,-222.5"/>
<text text-anchor="start" x="474" y="-233.9" font-family="Arial" font-size="14.00" fill="#000000">website </text>
<text text-anchor="start" x="525.3422" y="-233.9" font-family="Arial" font-size="14.00" fill="#666666">[longtext]</text>
<polygon fill="none" stroke="#000000" points="467,-192.5 467,-222.5 720,-222.5 720,-192.5 467,-192.5"/>
<text text-anchor="start" x="474" y="-203.9" font-family="Arial" font-size="14.00" fill="#000000">facebook </text>
<text text-anchor="start" x="534.6942" y="-203.9" font-family="Arial" font-size="14.00" fill="#666666">[varchar(255)]</text>
<polygon fill="none" stroke="#000000" points="467,-162.5 467,-192.5 720,-192.5 720,-162.5 467,-162.5"/>
<text text-anchor="start" x="474" y="-173.9" font-family="Arial" font-size="14.00" fill="#000000">foursquare </text>
<text text-anchor="start" x="544.798" y="-173.9" font-family="Arial" font-size="14.00" fill="#666666">[varchar(255)]</text>
<polygon fill="none" stroke="#000000" points="467,-132.5 467,-162.5 720,-162.5 720,-132.5 467,-132.5"/>
<text text-anchor="start" x="474" y="-143.9" font-family="Arial" font-size="14.00" fill="#000000">instagram </text>
<text text-anchor="start" x="539.3394" y="-143.9" font-family="Arial" font-size="14.00" fill="#666666">[varchar(255)]</text>
<polygon fill="none" stroke="#000000" points="467,-102.5 467,-132.5 720,-132.5 720,-102.5 467,-102.5"/>
<text text-anchor="start" x="474" y="-113.9" font-family="Arial" font-size="14.00" fill="#000000">linkedin </text>
<text text-anchor="start" x="525.3408" y="-113.9" font-family="Arial" font-size="14.00" fill="#666666">[varchar(255)]</text>
<polygon fill="none" stroke="#000000" points="467,-72.5 467,-102.5 720,-102.5 720,-72.5 467,-72.5"/>
<text text-anchor="start" x="474" y="-83.9" font-family="Arial" font-size="14.00" fill="#000000">skype </text>
<text text-anchor="start" x="514.4558" y="-83.9" font-family="Arial" font-size="14.00" fill="#666666">[varchar(255)]</text>
<polygon fill="none" stroke="#000000" points="467,-42.5 467,-72.5 720,-72.5 720,-42.5 467,-42.5"/>
<text text-anchor="start" x="474" y="-53.9" font-family="Arial" font-size="14.00" fill="#000000">twitter </text>
<text text-anchor="start" x="515.2188" y="-53.9" font-family="Arial" font-size="14.00" fill="#666666">[varchar(255)]</text>
</g>
<!-- companies_leads&#45;&gt;leads -->
<g id="edge2" class="edge">
<title>companies_leads:lead_id&#45;&gt;leads:id</title>
<path fill="none" stroke="#000000" d="M546.1469,-1626.4281C585.9186,-1617.1379 561.8101,-1549.5779 536,-1507 518.0694,-1477.4206 484.9306,-1500.5794 467,-1471 445.4585,-1435.4637 425.4444,-1377.5 467,-1377.5"/>
<polygon fill="#000000" stroke="#000000" points="545.9447,-1626.4493 535.5272,-1623.0249 540.9723,-1626.9747 536,-1627.5 536,-1627.5 536,-1627.5 540.9723,-1626.9747 536.4728,-1631.9751 545.9447,-1626.4493 545.9447,-1626.4493"/>
<text text-anchor="start" x="543.496" y="-1637.5" font-family="Arial" font-size="10.00" fill="#000000">FOREIGN KEY (lead_id) REFERENCES leads (id)</text>
</g>
</g>
</svg>
