<?xml version="1.0" encoding="UTF-8" standalone="no"?>
<!DOCTYPE svg PUBLIC "-//W3C//DTD SVG 1.1//EN"
 "http://www.w3.org/Graphics/SVG/1.1/DTD/svg11.dtd">
<!-- Generated by graphviz version 2.40.1 (20161225.0304)
 -->
<!-- Title: contact_merge_records Pages: 1 -->
<svg width="606pt" height="1792pt"
 viewBox="0.00 0.00 606.00 1792.00" xmlns="http://www.w3.org/2000/svg" xmlns:xlink="http://www.w3.org/1999/xlink">
<g id="graph0" class="graph" transform="scale(1 1) rotate(0) translate(4 1788)">
<title>contact_merge_records</title>
<polygon fill="#ffffff" stroke="transparent" points="-4,4 -4,-1788 602,-1788 602,4 -4,4"/>
<!-- contact_merge_records -->
<g id="node1" class="node">
<title>contact_merge_records</title>
<polygon fill="#efefef" stroke="transparent" points="252,-1702.5 252,-1737.5 552,-1737.5 552,-1702.5 252,-1702.5"/>
<polygon fill="none" stroke="#000000" points="252,-1702.5 252,-1737.5 552,-1737.5 552,-1702.5 252,-1702.5"/>
<text text-anchor="start" x="258.8524" y="-1715.3" font-family="Arial Bold" font-size="18.00" fill="#000000">contact_merge_records</text>
<text text-anchor="start" x="447.8938" y="-1715.3" font-family="Arial" font-size="14.00" fill="#000000"> </text>
<text text-anchor="start" x="451.7844" y="-1715.3" font-family="Arial" font-size="14.00" fill="#666666">[BASE TABLE]</text>
<polygon fill="none" stroke="#000000" points="252,-1672.5 252,-1702.5 552,-1702.5 552,-1672.5 252,-1672.5"/>
<text text-anchor="start" x="259" y="-1683.9" font-family="Arial" font-size="14.00" fill="#000000">id </text>
<text text-anchor="start" x="273.7798" y="-1683.9" font-family="Arial" font-size="14.00" fill="#666666">[int(11)]</text>
<polygon fill="none" stroke="#000000" points="252,-1642.5 252,-1672.5 552,-1672.5 552,-1642.5 252,-1642.5"/>
<text text-anchor="start" x="259" y="-1653.9" font-family="Arial" font-size="14.00" fill="#000000">contact_id </text>
<text text-anchor="start" x="326.6914" y="-1653.9" font-family="Arial" font-size="14.00" fill="#666666">[bigint(20) unsigned]</text>
<polygon fill="none" stroke="#000000" points="252,-1612.5 252,-1642.5 552,-1642.5 552,-1612.5 252,-1612.5"/>
<text text-anchor="start" x="259" y="-1623.9" font-family="Arial" font-size="14.00" fill="#000000">date_added </text>
<text text-anchor="start" x="336.8246" y="-1623.9" font-family="Arial" font-size="14.00" fill="#666666">[datetime]</text>
<polygon fill="none" stroke="#000000" points="252,-1582.5 252,-1612.5 552,-1612.5 552,-1582.5 252,-1582.5"/>
<text text-anchor="start" x="259" y="-1593.9" font-family="Arial" font-size="14.00" fill="#000000">merged_id </text>
<text text-anchor="start" x="329.014" y="-1593.9" font-family="Arial" font-size="14.00" fill="#666666">[int(11)]</text>
<polygon fill="none" stroke="#000000" points="252,-1552.5 252,-1582.5 552,-1582.5 552,-1552.5 252,-1552.5"/>
<text text-anchor="start" x="259" y="-1563.9" font-family="Arial" font-size="14.00" fill="#000000">name </text>
<text text-anchor="start" x="297.899" y="-1563.9" font-family="Arial" font-size="14.00" fill="#666666">[varchar(191)]</text>
<polygon fill="none" stroke="#000000" stroke-width="3" points="250.5,-1551.5 250.5,-1739.5 553.5,-1739.5 553.5,-1551.5 250.5,-1551.5"/>
</g>
<!-- leads -->
<g id="node2" class="node">
<title>leads</title>
<polygon fill="#efefef" stroke="transparent" points="275,-1392.5 275,-1427.5 528,-1427.5 528,-1392.5 275,-1392.5"/>
<polygon fill="none" stroke="#000000" points="275,-1392.5 275,-1427.5 528,-1427.5 528,-1392.5 275,-1392.5"/>
<text text-anchor="start" x="331.3667" y="-1405.3" font-family="Arial Bold" font-size="18.00" fill="#000000">leads</text>
<text text-anchor="start" x="374.3795" y="-1405.3" font-family="Arial" font-size="14.00" fill="#000000"> </text>
<text text-anchor="start" x="378.2701" y="-1405.3" font-family="Arial" font-size="14.00" fill="#666666">[BASE TABLE]</text>
<polygon fill="none" stroke="#000000" points="275,-1362.5 275,-1392.5 528,-1392.5 528,-1362.5 275,-1362.5"/>
<text text-anchor="start" x="282" y="-1373.9" font-family="Arial" font-size="14.00" fill="#000000">id </text>
<text text-anchor="start" x="296.7798" y="-1373.9" font-family="Arial" font-size="14.00" fill="#666666">[bigint(20) unsigned]</text>
<polygon fill="none" stroke="#000000" points="275,-1332.5 275,-1362.5 528,-1362.5 528,-1332.5 275,-1332.5"/>
<text text-anchor="start" x="282" y="-1343.9" font-family="Arial" font-size="14.00" fill="#000000">owner_id </text>
<text text-anchor="start" x="342.6774" y="-1343.9" font-family="Arial" font-size="14.00" fill="#666666">[int(10) unsigned]</text>
<polygon fill="none" stroke="#000000" points="275,-1302.5 275,-1332.5 528,-1332.5 528,-1302.5 275,-1302.5"/>
<text text-anchor="start" x="282" y="-1313.9" font-family="Arial" font-size="14.00" fill="#000000">stage_id </text>
<text text-anchor="start" x="338.8008" y="-1313.9" font-family="Arial" font-size="14.00" fill="#666666">[int(10) unsigned]</text>
<polygon fill="none" stroke="#000000" points="275,-1272.5 275,-1302.5 528,-1302.5 528,-1272.5 275,-1272.5"/>
<text text-anchor="start" x="282" y="-1283.9" font-family="Arial" font-size="14.00" fill="#000000">is_published </text>
<text text-anchor="start" x="363.6886" y="-1283.9" font-family="Arial" font-size="14.00" fill="#666666">[tinyint(1)]</text>
<polygon fill="none" stroke="#000000" points="275,-1242.5 275,-1272.5 528,-1272.5 528,-1242.5 275,-1242.5"/>
<text text-anchor="start" x="282" y="-1253.9" font-family="Arial" font-size="14.00" fill="#000000">date_added </text>
<text text-anchor="start" x="359.8246" y="-1253.9" font-family="Arial" font-size="14.00" fill="#666666">[datetime]</text>
<polygon fill="none" stroke="#000000" points="275,-1212.5 275,-1242.5 528,-1242.5 528,-1212.5 275,-1212.5"/>
<text text-anchor="start" x="282" y="-1223.9" font-family="Arial" font-size="14.00" fill="#000000">created_by </text>
<text text-anchor="start" x="355.1374" y="-1223.9" font-family="Arial" font-size="14.00" fill="#666666">[int(11)]</text>
<polygon fill="none" stroke="#000000" points="275,-1182.5 275,-1212.5 528,-1212.5 528,-1182.5 275,-1182.5"/>
<text text-anchor="start" x="282" y="-1193.9" font-family="Arial" font-size="14.00" fill="#000000">created_by_user </text>
<text text-anchor="start" x="390.1458" y="-1193.9" font-family="Arial" font-size="14.00" fill="#666666">[varchar(191)]</text>
<polygon fill="none" stroke="#000000" points="275,-1152.5 275,-1182.5 528,-1182.5 528,-1152.5 275,-1152.5"/>
<text text-anchor="start" x="282" y="-1163.9" font-family="Arial" font-size="14.00" fill="#000000">date_modified </text>
<text text-anchor="start" x="373.8064" y="-1163.9" font-family="Arial" font-size="14.00" fill="#666666">[datetime]</text>
<polygon fill="none" stroke="#000000" points="275,-1122.5 275,-1152.5 528,-1152.5 528,-1122.5 275,-1122.5"/>
<text text-anchor="start" x="282" y="-1133.9" font-family="Arial" font-size="14.00" fill="#000000">modified_by </text>
<text text-anchor="start" x="361.3506" y="-1133.9" font-family="Arial" font-size="14.00" fill="#666666">[int(11)]</text>
<polygon fill="none" stroke="#000000" points="275,-1092.5 275,-1122.5 528,-1122.5 528,-1092.5 275,-1092.5"/>
<text text-anchor="start" x="282" y="-1103.9" font-family="Arial" font-size="14.00" fill="#000000">modified_by_user </text>
<text text-anchor="start" x="396.359" y="-1103.9" font-family="Arial" font-size="14.00" fill="#666666">[varchar(191)]</text>
<polygon fill="none" stroke="#000000" points="275,-1062.5 275,-1092.5 528,-1092.5 528,-1062.5 275,-1062.5"/>
<text text-anchor="start" x="282" y="-1073.9" font-family="Arial" font-size="14.00" fill="#000000">checked_out </text>
<text text-anchor="start" x="365.2594" y="-1073.9" font-family="Arial" font-size="14.00" fill="#666666">[datetime]</text>
<polygon fill="none" stroke="#000000" points="275,-1032.5 275,-1062.5 528,-1062.5 528,-1032.5 275,-1032.5"/>
<text text-anchor="start" x="282" y="-1043.9" font-family="Arial" font-size="14.00" fill="#000000">checked_out_by </text>
<text text-anchor="start" x="387.8246" y="-1043.9" font-family="Arial" font-size="14.00" fill="#666666">[int(11)]</text>
<polygon fill="none" stroke="#000000" points="275,-1002.5 275,-1032.5 528,-1032.5 528,-1002.5 275,-1002.5"/>
<text text-anchor="start" x="282" y="-1013.9" font-family="Arial" font-size="14.00" fill="#000000">checked_out_by_user </text>
<text text-anchor="start" x="422.833" y="-1013.9" font-family="Arial" font-size="14.00" fill="#666666">[varchar(191)]</text>
<polygon fill="none" stroke="#000000" points="275,-972.5 275,-1002.5 528,-1002.5 528,-972.5 275,-972.5"/>
<text text-anchor="start" x="282" y="-983.9" font-family="Arial" font-size="14.00" fill="#000000">points </text>
<text text-anchor="start" x="323.2356" y="-983.9" font-family="Arial" font-size="14.00" fill="#666666">[int(11)]</text>
<polygon fill="none" stroke="#000000" points="275,-942.5 275,-972.5 528,-972.5 528,-942.5 275,-942.5"/>
<text text-anchor="start" x="282" y="-953.9" font-family="Arial" font-size="14.00" fill="#000000">last_active </text>
<text text-anchor="start" x="352.0154" y="-953.9" font-family="Arial" font-size="14.00" fill="#666666">[datetime]</text>
<polygon fill="none" stroke="#000000" points="275,-912.5 275,-942.5 528,-942.5 528,-912.5 275,-912.5"/>
<text text-anchor="start" x="282" y="-923.9" font-family="Arial" font-size="14.00" fill="#000000">internal </text>
<text text-anchor="start" x="331.7854" y="-923.9" font-family="Arial" font-size="14.00" fill="#666666">[longtext]</text>
<polygon fill="none" stroke="#000000" points="275,-882.5 275,-912.5 528,-912.5 528,-882.5 275,-882.5"/>
<text text-anchor="start" x="282" y="-893.9" font-family="Arial" font-size="14.00" fill="#000000">social_cache </text>
<text text-anchor="start" x="366.7994" y="-893.9" font-family="Arial" font-size="14.00" fill="#666666">[longtext]</text>
<polygon fill="none" stroke="#000000" points="275,-852.5 275,-882.5 528,-882.5 528,-852.5 275,-852.5"/>
<text text-anchor="start" x="282" y="-863.9" font-family="Arial" font-size="14.00" fill="#000000">date_identified </text>
<text text-anchor="start" x="376.9256" y="-863.9" font-family="Arial" font-size="14.00" fill="#666666">[datetime]</text>
<polygon fill="none" stroke="#000000" points="275,-822.5 275,-852.5 528,-852.5 528,-822.5 275,-822.5"/>
<text text-anchor="start" x="281.7062" y="-833.9" font-family="Arial" font-size="14.00" fill="#000000">preferred_profile_image </text>
<text text-anchor="start" x="434.1746" y="-833.9" font-family="Arial" font-size="14.00" fill="#666666">[varchar(191)]</text>
<polygon fill="none" stroke="#000000" points="275,-792.5 275,-822.5 528,-822.5 528,-792.5 275,-792.5"/>
<text text-anchor="start" x="282" y="-803.9" font-family="Arial" font-size="14.00" fill="#000000">title </text>
<text text-anchor="start" x="307.6676" y="-803.9" font-family="Arial" font-size="14.00" fill="#666666">[varchar(191)]</text>
<polygon fill="none" stroke="#000000" points="275,-762.5 275,-792.5 528,-792.5 528,-762.5 275,-762.5"/>
<text text-anchor="start" x="282" y="-773.9" font-family="Arial" font-size="14.00" fill="#000000">firstname </text>
<text text-anchor="start" x="343.4474" y="-773.9" font-family="Arial" font-size="14.00" fill="#666666">[varchar(191)]</text>
<polygon fill="none" stroke="#000000" points="275,-732.5 275,-762.5 528,-762.5 528,-732.5 275,-732.5"/>
<text text-anchor="start" x="282" y="-743.9" font-family="Arial" font-size="14.00" fill="#000000">lastname </text>
<text text-anchor="start" x="342.6788" y="-743.9" font-family="Arial" font-size="14.00" fill="#666666">[varchar(191)]</text>
<polygon fill="none" stroke="#000000" points="275,-702.5 275,-732.5 528,-732.5 528,-702.5 275,-702.5"/>
<text text-anchor="start" x="282" y="-713.9" font-family="Arial" font-size="14.00" fill="#000000">company </text>
<text text-anchor="start" x="342.6816" y="-713.9" font-family="Arial" font-size="14.00" fill="#666666">[varchar(191)]</text>
<polygon fill="none" stroke="#000000" points="275,-672.5 275,-702.5 528,-702.5 528,-672.5 275,-672.5"/>
<text text-anchor="start" x="282" y="-683.9" font-family="Arial" font-size="14.00" fill="#000000">position </text>
<text text-anchor="start" x="334.1248" y="-683.9" font-family="Arial" font-size="14.00" fill="#666666">[varchar(191)]</text>
<polygon fill="none" stroke="#000000" points="275,-642.5 275,-672.5 528,-672.5 528,-642.5 275,-642.5"/>
<text text-anchor="start" x="282" y="-653.9" font-family="Arial" font-size="14.00" fill="#000000">email </text>
<text text-anchor="start" x="319.3296" y="-653.9" font-family="Arial" font-size="14.00" fill="#666666">[varchar(191)]</text>
<polygon fill="none" stroke="#000000" points="275,-612.5 275,-642.5 528,-642.5 528,-612.5 275,-612.5"/>
<text text-anchor="start" x="282" y="-623.9" font-family="Arial" font-size="14.00" fill="#000000">phone </text>
<text text-anchor="start" x="324.8036" y="-623.9" font-family="Arial" font-size="14.00" fill="#666666">[varchar(191)]</text>
<polygon fill="none" stroke="#000000" points="275,-582.5 275,-612.5 528,-612.5 528,-582.5 275,-582.5"/>
<text text-anchor="start" x="282" y="-593.9" font-family="Arial" font-size="14.00" fill="#000000">mobile </text>
<text text-anchor="start" x="327.1122" y="-593.9" font-family="Arial" font-size="14.00" fill="#666666">[varchar(191)]</text>
<polygon fill="none" stroke="#000000" points="275,-552.5 275,-582.5 528,-582.5 528,-552.5 275,-552.5"/>
<text text-anchor="start" x="282" y="-563.9" font-family="Arial" font-size="14.00" fill="#000000">address1 </text>
<text text-anchor="start" x="343.4642" y="-563.9" font-family="Arial" font-size="14.00" fill="#666666">[varchar(191)]</text>
<polygon fill="none" stroke="#000000" points="275,-522.5 275,-552.5 528,-552.5 528,-522.5 275,-522.5"/>
<text text-anchor="start" x="282" y="-533.9" font-family="Arial" font-size="14.00" fill="#000000">address2 </text>
<text text-anchor="start" x="343.4642" y="-533.9" font-family="Arial" font-size="14.00" fill="#666666">[varchar(191)]</text>
<polygon fill="none" stroke="#000000" points="275,-492.5 275,-522.5 528,-522.5 528,-492.5 275,-492.5"/>
<text text-anchor="start" x="282" y="-503.9" font-family="Arial" font-size="14.00" fill="#000000">city </text>
<text text-anchor="start" x="306.8878" y="-503.9" font-family="Arial" font-size="14.00" fill="#666666">[varchar(191)]</text>
<polygon fill="none" stroke="#000000" points="275,-462.5 275,-492.5 528,-492.5 528,-462.5 275,-462.5"/>
<text text-anchor="start" x="282" y="-473.9" font-family="Arial" font-size="14.00" fill="#000000">state </text>
<text text-anchor="start" x="316.237" y="-473.9" font-family="Arial" font-size="14.00" fill="#666666">[varchar(191)]</text>
<polygon fill="none" stroke="#000000" points="275,-432.5 275,-462.5 528,-462.5 528,-432.5 275,-432.5"/>
<text text-anchor="start" x="282" y="-443.9" font-family="Arial" font-size="14.00" fill="#000000">zipcode </text>
<text text-anchor="start" x="334.1276" y="-443.9" font-family="Arial" font-size="14.00" fill="#666666">[varchar(191)]</text>
<polygon fill="none" stroke="#000000" points="275,-402.5 275,-432.5 528,-432.5 528,-402.5 275,-402.5"/>
<text text-anchor="start" x="282" y="-413.9" font-family="Arial" font-size="14.00" fill="#000000">timezone </text>
<text text-anchor="start" x="342.6788" y="-413.9" font-family="Arial" font-size="14.00" fill="#666666">[varchar(191)]</text>
<polygon fill="none" stroke="#000000" points="275,-372.5 275,-402.5 528,-402.5 528,-372.5 275,-372.5"/>
<text text-anchor="start" x="282" y="-383.9" font-family="Arial" font-size="14.00" fill="#000000">country </text>
<text text-anchor="start" x="331.7896" y="-383.9" font-family="Arial" font-size="14.00" fill="#666666">[varchar(191)]</text>
<polygon fill="none" stroke="#000000" points="275,-342.5 275,-372.5 528,-372.5 528,-342.5 275,-342.5"/>
<text text-anchor="start" x="282" y="-353.9" font-family="Arial" font-size="14.00" fill="#000000">fax </text>
<text text-anchor="start" x="304.5638" y="-353.9" font-family="Arial" font-size="14.00" fill="#666666">[varchar(255)]</text>
<polygon fill="none" stroke="#000000" points="275,-312.5 275,-342.5 528,-342.5 528,-312.5 275,-312.5"/>
<text text-anchor="start" x="282" y="-323.9" font-family="Arial" font-size="14.00" fill="#000000">preferred_locale </text>
<text text-anchor="start" x="387.0196" y="-323.9" font-family="Arial" font-size="14.00" fill="#666666">[varchar(255)]</text>
<polygon fill="none" stroke="#000000" points="275,-282.5 275,-312.5 528,-312.5 528,-282.5 275,-282.5"/>
<text text-anchor="start" x="282" y="-293.9" font-family="Arial" font-size="14.00" fill="#000000">attribution_date </text>
<text text-anchor="start" x="382.3702" y="-293.9" font-family="Arial" font-size="14.00" fill="#666666">[datetime]</text>
<polygon fill="none" stroke="#000000" points="275,-252.5 275,-282.5 528,-282.5 528,-252.5 275,-252.5"/>
<text text-anchor="start" x="282" y="-263.9" font-family="Arial" font-size="14.00" fill="#000000">attribution </text>
<text text-anchor="start" x="347.3492" y="-263.9" font-family="Arial" font-size="14.00" fill="#666666">[double]</text>
<polygon fill="none" stroke="#000000" points="275,-222.5 275,-252.5 528,-252.5 528,-222.5 275,-222.5"/>
<text text-anchor="start" x="282" y="-233.9" font-family="Arial" font-size="14.00" fill="#000000">website </text>
<text text-anchor="start" x="333.3422" y="-233.9" font-family="Arial" font-size="14.00" fill="#666666">[longtext]</text>
<polygon fill="none" stroke="#000000" points="275,-192.5 275,-222.5 528,-222.5 528,-192.5 275,-192.5"/>
<text text-anchor="start" x="282" y="-203.9" font-family="Arial" font-size="14.00" fill="#000000">facebook </text>
<text text-anchor="start" x="342.6942" y="-203.9" font-family="Arial" font-size="14.00" fill="#666666">[varchar(255)]</text>
<polygon fill="none" stroke="#000000" points="275,-162.5 275,-192.5 528,-192.5 528,-162.5 275,-162.5"/>
<text text-anchor="start" x="282" y="-173.9" font-family="Arial" font-size="14.00" fill="#000000">foursquare </text>
<text text-anchor="start" x="352.798" y="-173.9" font-family="Arial" font-size="14.00" fill="#666666">[varchar(255)]</text>
<polygon fill="none" stroke="#000000" points="275,-132.5 275,-162.5 528,-162.5 528,-132.5 275,-132.5"/>
<text text-anchor="start" x="282" y="-143.9" font-family="Arial" font-size="14.00" fill="#000000">instagram </text>
<text text-anchor="start" x="347.3394" y="-143.9" font-family="Arial" font-size="14.00" fill="#666666">[varchar(255)]</text>
<polygon fill="none" stroke="#000000" points="275,-102.5 275,-132.5 528,-132.5 528,-102.5 275,-102.5"/>
<text text-anchor="start" x="282" y="-113.9" font-family="Arial" font-size="14.00" fill="#000000">linkedin </text>
<text text-anchor="start" x="333.3408" y="-113.9" font-family="Arial" font-size="14.00" fill="#666666">[varchar(255)]</text>
<polygon fill="none" stroke="#000000" points="275,-72.5 275,-102.5 528,-102.5 528,-72.5 275,-72.5"/>
<text text-anchor="start" x="282" y="-83.9" font-family="Arial" font-size="14.00" fill="#000000">skype </text>
<text text-anchor="start" x="322.4558" y="-83.9" font-family="Arial" font-size="14.00" fill="#666666">[varchar(255)]</text>
<polygon fill="none" stroke="#000000" points="275,-42.5 275,-72.5 528,-72.5 528,-42.5 275,-42.5"/>
<text text-anchor="start" x="282" y="-53.9" font-family="Arial" font-size="14.00" fill="#000000">twitter </text>
<text text-anchor="start" x="323.2188" y="-53.9" font-family="Arial" font-size="14.00" fill="#666666">[varchar(255)]</text>
</g>
<!-- contact_merge_records&#45;&gt;leads -->
<g id="edge1" class="edge">
<title>contact_merge_records:contact_id&#45;&gt;leads:id</title>
<path fill="none" stroke="#000000" d="M241.8192,-1656.6252C187.664,-1646.6861 210.2805,-1554.5145 252,-1507 333.6205,-1414.0419 446.3795,-1563.9581 528,-1471 555.4182,-1439.7733 569.5556,-1377.5 528,-1377.5"/>
<polygon fill="#000000" stroke="#000000" points="242.0367,-1656.6438 251.6147,-1661.9835 247.0184,-1657.0719 252,-1657.5 252,-1657.5 252,-1657.5 247.0184,-1657.0719 252.3853,-1653.0165 242.0367,-1656.6438 242.0367,-1656.6438"/>
<text text-anchor="start" x="6.8265" y="-1667.5" font-family="Arial" font-size="10.00" fill="#000000">FOREIGN KEY (contact_id) REFERENCES leads (id)</text>
</g>
</g>
</svg>
