<?xml version="1.0" encoding="UTF-8" standalone="no"?>
<!DOCTYPE svg PUBLIC "-//W3C//DTD SVG 1.1//EN"
 "http://www.w3.org/Graphics/SVG/1.1/DTD/svg11.dtd">
<!-- Generated by graphviz version 2.40.1 (20161225.0304)
 -->
<!-- Title: dynamic_content_lead_data Pages: 1 -->
<svg width="930pt" height="1792pt"
 viewBox="0.00 0.00 930.00 1792.00" xmlns="http://www.w3.org/2000/svg" xmlns:xlink="http://www.w3.org/1999/xlink">
<g id="graph0" class="graph" transform="scale(1 1) rotate(0) translate(4 1788)">
<title>dynamic_content_lead_data</title>
<polygon fill="#ffffff" stroke="transparent" points="-4,4 -4,-1788 926,-1788 926,4 -4,4"/>
<!-- dynamic_content_lead_data -->
<g id="node1" class="node">
<title>dynamic_content_lead_data</title>
<polygon fill="#efefef" stroke="transparent" points="239,-1702.5 239,-1737.5 575,-1737.5 575,-1702.5 239,-1702.5"/>
<polygon fill="none" stroke="#000000" points="239,-1702.5 239,-1737.5 575,-1737.5 575,-1702.5 239,-1702.5"/>
<text text-anchor="start" x="245.8299" y="-1715.3" font-family="Arial Bold" font-size="18.00" fill="#000000">dynamic_content_lead_data</text>
<text text-anchor="start" x="470.9163" y="-1715.3" font-family="Arial" font-size="14.00" fill="#000000"> </text>
<text text-anchor="start" x="474.8069" y="-1715.3" font-family="Arial" font-size="14.00" fill="#666666">[BASE TABLE]</text>
<polygon fill="none" stroke="#000000" points="239,-1672.5 239,-1702.5 575,-1702.5 575,-1672.5 239,-1672.5"/>
<text text-anchor="start" x="246" y="-1683.9" font-family="Arial" font-size="14.00" fill="#000000">id </text>
<text text-anchor="start" x="260.7798" y="-1683.9" font-family="Arial" font-size="14.00" fill="#666666">[int(10) unsigned]</text>
<polygon fill="none" stroke="#000000" points="239,-1642.5 239,-1672.5 575,-1672.5 575,-1642.5 239,-1642.5"/>
<text text-anchor="start" x="246" y="-1653.9" font-family="Arial" font-size="14.00" fill="#000000">lead_id </text>
<text text-anchor="start" x="295.0168" y="-1653.9" font-family="Arial" font-size="14.00" fill="#666666">[bigint(20) unsigned]</text>
<polygon fill="none" stroke="#000000" points="239,-1612.5 239,-1642.5 575,-1642.5 575,-1612.5 239,-1612.5"/>
<text text-anchor="start" x="246" y="-1623.9" font-family="Arial" font-size="14.00" fill="#000000">dynamic_content_id </text>
<text text-anchor="start" x="374.3716" y="-1623.9" font-family="Arial" font-size="14.00" fill="#666666">[int(10) unsigned]</text>
<polygon fill="none" stroke="#000000" points="239,-1582.5 239,-1612.5 575,-1612.5 575,-1582.5 239,-1582.5"/>
<text text-anchor="start" x="246" y="-1593.9" font-family="Arial" font-size="14.00" fill="#000000">date_added </text>
<text text-anchor="start" x="323.8246" y="-1593.9" font-family="Arial" font-size="14.00" fill="#666666">[datetime]</text>
<polygon fill="none" stroke="#000000" points="239,-1552.5 239,-1582.5 575,-1582.5 575,-1552.5 239,-1552.5"/>
<text text-anchor="start" x="246" y="-1563.9" font-family="Arial" font-size="14.00" fill="#000000">slot </text>
<text text-anchor="start" x="271.6704" y="-1563.9" font-family="Arial" font-size="14.00" fill="#666666">[longtext]</text>
<polygon fill="none" stroke="#000000" stroke-width="3" points="237.5,-1551.5 237.5,-1739.5 576.5,-1739.5 576.5,-1551.5 237.5,-1551.5"/>
</g>
<!-- leads -->
<g id="node2" class="node">
<title>leads</title>
<polygon fill="#efefef" stroke="transparent" points="101,-1392.5 101,-1427.5 354,-1427.5 354,-1392.5 101,-1392.5"/>
<polygon fill="none" stroke="#000000" points="101,-1392.5 101,-1427.5 354,-1427.5 354,-1392.5 101,-1392.5"/>
<text text-anchor="start" x="157.3667" y="-1405.3" font-family="Arial Bold" font-size="18.00" fill="#000000">leads</text>
<text text-anchor="start" x="200.3795" y="-1405.3" font-family="Arial" font-size="14.00" fill="#000000"> </text>
<text text-anchor="start" x="204.2701" y="-1405.3" font-family="Arial" font-size="14.00" fill="#666666">[BASE TABLE]</text>
<polygon fill="none" stroke="#000000" points="101,-1362.5 101,-1392.5 354,-1392.5 354,-1362.5 101,-1362.5"/>
<text text-anchor="start" x="108" y="-1373.9" font-family="Arial" font-size="14.00" fill="#000000">id </text>
<text text-anchor="start" x="122.7798" y="-1373.9" font-family="Arial" font-size="14.00" fill="#666666">[bigint(20) unsigned]</text>
<polygon fill="none" stroke="#000000" points="101,-1332.5 101,-1362.5 354,-1362.5 354,-1332.5 101,-1332.5"/>
<text text-anchor="start" x="108" y="-1343.9" font-family="Arial" font-size="14.00" fill="#000000">owner_id </text>
<text text-anchor="start" x="168.6774" y="-1343.9" font-family="Arial" font-size="14.00" fill="#666666">[int(10) unsigned]</text>
<polygon fill="none" stroke="#000000" points="101,-1302.5 101,-1332.5 354,-1332.5 354,-1302.5 101,-1302.5"/>
<text text-anchor="start" x="108" y="-1313.9" font-family="Arial" font-size="14.00" fill="#000000">stage_id </text>
<text text-anchor="start" x="164.8008" y="-1313.9" font-family="Arial" font-size="14.00" fill="#666666">[int(10) unsigned]</text>
<polygon fill="none" stroke="#000000" points="101,-1272.5 101,-1302.5 354,-1302.5 354,-1272.5 101,-1272.5"/>
<text text-anchor="start" x="108" y="-1283.9" font-family="Arial" font-size="14.00" fill="#000000">is_published </text>
<text text-anchor="start" x="189.6886" y="-1283.9" font-family="Arial" font-size="14.00" fill="#666666">[tinyint(1)]</text>
<polygon fill="none" stroke="#000000" points="101,-1242.5 101,-1272.5 354,-1272.5 354,-1242.5 101,-1242.5"/>
<text text-anchor="start" x="108" y="-1253.9" font-family="Arial" font-size="14.00" fill="#000000">date_added </text>
<text text-anchor="start" x="185.8246" y="-1253.9" font-family="Arial" font-size="14.00" fill="#666666">[datetime]</text>
<polygon fill="none" stroke="#000000" points="101,-1212.5 101,-1242.5 354,-1242.5 354,-1212.5 101,-1212.5"/>
<text text-anchor="start" x="108" y="-1223.9" font-family="Arial" font-size="14.00" fill="#000000">created_by </text>
<text text-anchor="start" x="181.1374" y="-1223.9" font-family="Arial" font-size="14.00" fill="#666666">[int(11)]</text>
<polygon fill="none" stroke="#000000" points="101,-1182.5 101,-1212.5 354,-1212.5 354,-1182.5 101,-1182.5"/>
<text text-anchor="start" x="108" y="-1193.9" font-family="Arial" font-size="14.00" fill="#000000">created_by_user </text>
<text text-anchor="start" x="216.1458" y="-1193.9" font-family="Arial" font-size="14.00" fill="#666666">[varchar(191)]</text>
<polygon fill="none" stroke="#000000" points="101,-1152.5 101,-1182.5 354,-1182.5 354,-1152.5 101,-1152.5"/>
<text text-anchor="start" x="108" y="-1163.9" font-family="Arial" font-size="14.00" fill="#000000">date_modified </text>
<text text-anchor="start" x="199.8064" y="-1163.9" font-family="Arial" font-size="14.00" fill="#666666">[datetime]</text>
<polygon fill="none" stroke="#000000" points="101,-1122.5 101,-1152.5 354,-1152.5 354,-1122.5 101,-1122.5"/>
<text text-anchor="start" x="108" y="-1133.9" font-family="Arial" font-size="14.00" fill="#000000">modified_by </text>
<text text-anchor="start" x="187.3506" y="-1133.9" font-family="Arial" font-size="14.00" fill="#666666">[int(11)]</text>
<polygon fill="none" stroke="#000000" points="101,-1092.5 101,-1122.5 354,-1122.5 354,-1092.5 101,-1092.5"/>
<text text-anchor="start" x="108" y="-1103.9" font-family="Arial" font-size="14.00" fill="#000000">modified_by_user </text>
<text text-anchor="start" x="222.359" y="-1103.9" font-family="Arial" font-size="14.00" fill="#666666">[varchar(191)]</text>
<polygon fill="none" stroke="#000000" points="101,-1062.5 101,-1092.5 354,-1092.5 354,-1062.5 101,-1062.5"/>
<text text-anchor="start" x="108" y="-1073.9" font-family="Arial" font-size="14.00" fill="#000000">checked_out </text>
<text text-anchor="start" x="191.2594" y="-1073.9" font-family="Arial" font-size="14.00" fill="#666666">[datetime]</text>
<polygon fill="none" stroke="#000000" points="101,-1032.5 101,-1062.5 354,-1062.5 354,-1032.5 101,-1032.5"/>
<text text-anchor="start" x="108" y="-1043.9" font-family="Arial" font-size="14.00" fill="#000000">checked_out_by </text>
<text text-anchor="start" x="213.8246" y="-1043.9" font-family="Arial" font-size="14.00" fill="#666666">[int(11)]</text>
<polygon fill="none" stroke="#000000" points="101,-1002.5 101,-1032.5 354,-1032.5 354,-1002.5 101,-1002.5"/>
<text text-anchor="start" x="108" y="-1013.9" font-family="Arial" font-size="14.00" fill="#000000">checked_out_by_user </text>
<text text-anchor="start" x="248.833" y="-1013.9" font-family="Arial" font-size="14.00" fill="#666666">[varchar(191)]</text>
<polygon fill="none" stroke="#000000" points="101,-972.5 101,-1002.5 354,-1002.5 354,-972.5 101,-972.5"/>
<text text-anchor="start" x="108" y="-983.9" font-family="Arial" font-size="14.00" fill="#000000">points </text>
<text text-anchor="start" x="149.2356" y="-983.9" font-family="Arial" font-size="14.00" fill="#666666">[int(11)]</text>
<polygon fill="none" stroke="#000000" points="101,-942.5 101,-972.5 354,-972.5 354,-942.5 101,-942.5"/>
<text text-anchor="start" x="108" y="-953.9" font-family="Arial" font-size="14.00" fill="#000000">last_active </text>
<text text-anchor="start" x="178.0154" y="-953.9" font-family="Arial" font-size="14.00" fill="#666666">[datetime]</text>
<polygon fill="none" stroke="#000000" points="101,-912.5 101,-942.5 354,-942.5 354,-912.5 101,-912.5"/>
<text text-anchor="start" x="108" y="-923.9" font-family="Arial" font-size="14.00" fill="#000000">internal </text>
<text text-anchor="start" x="157.7854" y="-923.9" font-family="Arial" font-size="14.00" fill="#666666">[longtext]</text>
<polygon fill="none" stroke="#000000" points="101,-882.5 101,-912.5 354,-912.5 354,-882.5 101,-882.5"/>
<text text-anchor="start" x="108" y="-893.9" font-family="Arial" font-size="14.00" fill="#000000">social_cache </text>
<text text-anchor="start" x="192.7994" y="-893.9" font-family="Arial" font-size="14.00" fill="#666666">[longtext]</text>
<polygon fill="none" stroke="#000000" points="101,-852.5 101,-882.5 354,-882.5 354,-852.5 101,-852.5"/>
<text text-anchor="start" x="108" y="-863.9" font-family="Arial" font-size="14.00" fill="#000000">date_identified </text>
<text text-anchor="start" x="202.9256" y="-863.9" font-family="Arial" font-size="14.00" fill="#666666">[datetime]</text>
<polygon fill="none" stroke="#000000" points="101,-822.5 101,-852.5 354,-852.5 354,-822.5 101,-822.5"/>
<text text-anchor="start" x="107.7062" y="-833.9" font-family="Arial" font-size="14.00" fill="#000000">preferred_profile_image </text>
<text text-anchor="start" x="260.1746" y="-833.9" font-family="Arial" font-size="14.00" fill="#666666">[varchar(191)]</text>
<polygon fill="none" stroke="#000000" points="101,-792.5 101,-822.5 354,-822.5 354,-792.5 101,-792.5"/>
<text text-anchor="start" x="108" y="-803.9" font-family="Arial" font-size="14.00" fill="#000000">title </text>
<text text-anchor="start" x="133.6676" y="-803.9" font-family="Arial" font-size="14.00" fill="#666666">[varchar(191)]</text>
<polygon fill="none" stroke="#000000" points="101,-762.5 101,-792.5 354,-792.5 354,-762.5 101,-762.5"/>
<text text-anchor="start" x="108" y="-773.9" font-family="Arial" font-size="14.00" fill="#000000">firstname </text>
<text text-anchor="start" x="169.4474" y="-773.9" font-family="Arial" font-size="14.00" fill="#666666">[varchar(191)]</text>
<polygon fill="none" stroke="#000000" points="101,-732.5 101,-762.5 354,-762.5 354,-732.5 101,-732.5"/>
<text text-anchor="start" x="108" y="-743.9" font-family="Arial" font-size="14.00" fill="#000000">lastname </text>
<text text-anchor="start" x="168.6788" y="-743.9" font-family="Arial" font-size="14.00" fill="#666666">[varchar(191)]</text>
<polygon fill="none" stroke="#000000" points="101,-702.5 101,-732.5 354,-732.5 354,-702.5 101,-702.5"/>
<text text-anchor="start" x="108" y="-713.9" font-family="Arial" font-size="14.00" fill="#000000">company </text>
<text text-anchor="start" x="168.6816" y="-713.9" font-family="Arial" font-size="14.00" fill="#666666">[varchar(191)]</text>
<polygon fill="none" stroke="#000000" points="101,-672.5 101,-702.5 354,-702.5 354,-672.5 101,-672.5"/>
<text text-anchor="start" x="108" y="-683.9" font-family="Arial" font-size="14.00" fill="#000000">position </text>
<text text-anchor="start" x="160.1248" y="-683.9" font-family="Arial" font-size="14.00" fill="#666666">[varchar(191)]</text>
<polygon fill="none" stroke="#000000" points="101,-642.5 101,-672.5 354,-672.5 354,-642.5 101,-642.5"/>
<text text-anchor="start" x="108" y="-653.9" font-family="Arial" font-size="14.00" fill="#000000">email </text>
<text text-anchor="start" x="145.3296" y="-653.9" font-family="Arial" font-size="14.00" fill="#666666">[varchar(191)]</text>
<polygon fill="none" stroke="#000000" points="101,-612.5 101,-642.5 354,-642.5 354,-612.5 101,-612.5"/>
<text text-anchor="start" x="108" y="-623.9" font-family="Arial" font-size="14.00" fill="#000000">phone </text>
<text text-anchor="start" x="150.8036" y="-623.9" font-family="Arial" font-size="14.00" fill="#666666">[varchar(191)]</text>
<polygon fill="none" stroke="#000000" points="101,-582.5 101,-612.5 354,-612.5 354,-582.5 101,-582.5"/>
<text text-anchor="start" x="108" y="-593.9" font-family="Arial" font-size="14.00" fill="#000000">mobile </text>
<text text-anchor="start" x="153.1122" y="-593.9" font-family="Arial" font-size="14.00" fill="#666666">[varchar(191)]</text>
<polygon fill="none" stroke="#000000" points="101,-552.5 101,-582.5 354,-582.5 354,-552.5 101,-552.5"/>
<text text-anchor="start" x="108" y="-563.9" font-family="Arial" font-size="14.00" fill="#000000">address1 </text>
<text text-anchor="start" x="169.4642" y="-563.9" font-family="Arial" font-size="14.00" fill="#666666">[varchar(191)]</text>
<polygon fill="none" stroke="#000000" points="101,-522.5 101,-552.5 354,-552.5 354,-522.5 101,-522.5"/>
<text text-anchor="start" x="108" y="-533.9" font-family="Arial" font-size="14.00" fill="#000000">address2 </text>
<text text-anchor="start" x="169.4642" y="-533.9" font-family="Arial" font-size="14.00" fill="#666666">[varchar(191)]</text>
<polygon fill="none" stroke="#000000" points="101,-492.5 101,-522.5 354,-522.5 354,-492.5 101,-492.5"/>
<text text-anchor="start" x="108" y="-503.9" font-family="Arial" font-size="14.00" fill="#000000">city </text>
<text text-anchor="start" x="132.8878" y="-503.9" font-family="Arial" font-size="14.00" fill="#666666">[varchar(191)]</text>
<polygon fill="none" stroke="#000000" points="101,-462.5 101,-492.5 354,-492.5 354,-462.5 101,-462.5"/>
<text text-anchor="start" x="108" y="-473.9" font-family="Arial" font-size="14.00" fill="#000000">state </text>
<text text-anchor="start" x="142.237" y="-473.9" font-family="Arial" font-size="14.00" fill="#666666">[varchar(191)]</text>
<polygon fill="none" stroke="#000000" points="101,-432.5 101,-462.5 354,-462.5 354,-432.5 101,-432.5"/>
<text text-anchor="start" x="108" y="-443.9" font-family="Arial" font-size="14.00" fill="#000000">zipcode </text>
<text text-anchor="start" x="160.1276" y="-443.9" font-family="Arial" font-size="14.00" fill="#666666">[varchar(191)]</text>
<polygon fill="none" stroke="#000000" points="101,-402.5 101,-432.5 354,-432.5 354,-402.5 101,-402.5"/>
<text text-anchor="start" x="108" y="-413.9" font-family="Arial" font-size="14.00" fill="#000000">timezone </text>
<text text-anchor="start" x="168.6788" y="-413.9" font-family="Arial" font-size="14.00" fill="#666666">[varchar(191)]</text>
<polygon fill="none" stroke="#000000" points="101,-372.5 101,-402.5 354,-402.5 354,-372.5 101,-372.5"/>
<text text-anchor="start" x="108" y="-383.9" font-family="Arial" font-size="14.00" fill="#000000">country </text>
<text text-anchor="start" x="157.7896" y="-383.9" font-family="Arial" font-size="14.00" fill="#666666">[varchar(191)]</text>
<polygon fill="none" stroke="#000000" points="101,-342.5 101,-372.5 354,-372.5 354,-342.5 101,-342.5"/>
<text text-anchor="start" x="108" y="-353.9" font-family="Arial" font-size="14.00" fill="#000000">fax </text>
<text text-anchor="start" x="130.5638" y="-353.9" font-family="Arial" font-size="14.00" fill="#666666">[varchar(255)]</text>
<polygon fill="none" stroke="#000000" points="101,-312.5 101,-342.5 354,-342.5 354,-312.5 101,-312.5"/>
<text text-anchor="start" x="108" y="-323.9" font-family="Arial" font-size="14.00" fill="#000000">preferred_locale </text>
<text text-anchor="start" x="213.0196" y="-323.9" font-family="Arial" font-size="14.00" fill="#666666">[varchar(255)]</text>
<polygon fill="none" stroke="#000000" points="101,-282.5 101,-312.5 354,-312.5 354,-282.5 101,-282.5"/>
<text text-anchor="start" x="108" y="-293.9" font-family="Arial" font-size="14.00" fill="#000000">attribution_date </text>
<text text-anchor="start" x="208.3702" y="-293.9" font-family="Arial" font-size="14.00" fill="#666666">[datetime]</text>
<polygon fill="none" stroke="#000000" points="101,-252.5 101,-282.5 354,-282.5 354,-252.5 101,-252.5"/>
<text text-anchor="start" x="108" y="-263.9" font-family="Arial" font-size="14.00" fill="#000000">attribution </text>
<text text-anchor="start" x="173.3492" y="-263.9" font-family="Arial" font-size="14.00" fill="#666666">[double]</text>
<polygon fill="none" stroke="#000000" points="101,-222.5 101,-252.5 354,-252.5 354,-222.5 101,-222.5"/>
<text text-anchor="start" x="108" y="-233.9" font-family="Arial" font-size="14.00" fill="#000000">website </text>
<text text-anchor="start" x="159.3422" y="-233.9" font-family="Arial" font-size="14.00" fill="#666666">[longtext]</text>
<polygon fill="none" stroke="#000000" points="101,-192.5 101,-222.5 354,-222.5 354,-192.5 101,-192.5"/>
<text text-anchor="start" x="108" y="-203.9" font-family="Arial" font-size="14.00" fill="#000000">facebook </text>
<text text-anchor="start" x="168.6942" y="-203.9" font-family="Arial" font-size="14.00" fill="#666666">[varchar(255)]</text>
<polygon fill="none" stroke="#000000" points="101,-162.5 101,-192.5 354,-192.5 354,-162.5 101,-162.5"/>
<text text-anchor="start" x="108" y="-173.9" font-family="Arial" font-size="14.00" fill="#000000">foursquare </text>
<text text-anchor="start" x="178.798" y="-173.9" font-family="Arial" font-size="14.00" fill="#666666">[varchar(255)]</text>
<polygon fill="none" stroke="#000000" points="101,-132.5 101,-162.5 354,-162.5 354,-132.5 101,-132.5"/>
<text text-anchor="start" x="108" y="-143.9" font-family="Arial" font-size="14.00" fill="#000000">instagram </text>
<text text-anchor="start" x="173.3394" y="-143.9" font-family="Arial" font-size="14.00" fill="#666666">[varchar(255)]</text>
<polygon fill="none" stroke="#000000" points="101,-102.5 101,-132.5 354,-132.5 354,-102.5 101,-102.5"/>
<text text-anchor="start" x="108" y="-113.9" font-family="Arial" font-size="14.00" fill="#000000">linkedin </text>
<text text-anchor="start" x="159.3408" y="-113.9" font-family="Arial" font-size="14.00" fill="#666666">[varchar(255)]</text>
<polygon fill="none" stroke="#000000" points="101,-72.5 101,-102.5 354,-102.5 354,-72.5 101,-72.5"/>
<text text-anchor="start" x="108" y="-83.9" font-family="Arial" font-size="14.00" fill="#000000">skype </text>
<text text-anchor="start" x="148.4558" y="-83.9" font-family="Arial" font-size="14.00" fill="#666666">[varchar(255)]</text>
<polygon fill="none" stroke="#000000" points="101,-42.5 101,-72.5 354,-72.5 354,-42.5 101,-42.5"/>
<text text-anchor="start" x="108" y="-53.9" font-family="Arial" font-size="14.00" fill="#000000">twitter </text>
<text text-anchor="start" x="149.2188" y="-53.9" font-family="Arial" font-size="14.00" fill="#666666">[varchar(255)]</text>
</g>
<!-- dynamic_content_lead_data&#45;&gt;leads -->
<g id="edge1" class="edge">
<title>dynamic_content_lead_data:lead_id&#45;&gt;leads:id</title>
<path fill="none" stroke="#000000" d="M228.8576,-1656.6561C175.1319,-1647.0622 201.5586,-1557.9538 239,-1507 270.713,-1463.8418 322.287,-1514.1582 354,-1471 378.6066,-1437.513 395.5556,-1377.5 354,-1377.5"/>
<polygon fill="#000000" stroke="#000000" points="229.0344,-1656.6707 238.6268,-1661.9845 234.0172,-1657.0854 239,-1657.5 239,-1657.5 239,-1657.5 234.0172,-1657.0854 239.3732,-1653.0155 229.0344,-1656.6707 229.0344,-1656.6707"/>
<text text-anchor="start" x="7.496" y="-1667.5" font-family="Arial" font-size="10.00" fill="#000000">FOREIGN KEY (lead_id) REFERENCES leads (id)</text>
</g>
<!-- dynamic_content -->
<g id="node3" class="node">
<title>dynamic_content</title>
<polygon fill="#efefef" stroke="transparent" points="458,-1122.5 458,-1157.5 714,-1157.5 714,-1122.5 458,-1122.5"/>
<polygon fill="none" stroke="#000000" points="458,-1122.5 458,-1157.5 714,-1157.5 714,-1122.5 458,-1122.5"/>
<text text-anchor="start" x="469.3529" y="-1135.3" font-family="Arial Bold" font-size="18.00" fill="#000000">dynamic_content</text>
<text text-anchor="start" x="605.3933" y="-1135.3" font-family="Arial" font-size="14.00" fill="#000000"> </text>
<text text-anchor="start" x="609.2839" y="-1135.3" font-family="Arial" font-size="14.00" fill="#666666">[BASE TABLE]</text>
<polygon fill="none" stroke="#000000" points="458,-1092.5 458,-1122.5 714,-1122.5 714,-1092.5 458,-1092.5"/>
<text text-anchor="start" x="465" y="-1103.9" font-family="Arial" font-size="14.00" fill="#000000">id </text>
<text text-anchor="start" x="479.7798" y="-1103.9" font-family="Arial" font-size="14.00" fill="#666666">[int(10) unsigned]</text>
<polygon fill="none" stroke="#000000" points="458,-1062.5 458,-1092.5 714,-1092.5 714,-1062.5 458,-1062.5"/>
<text text-anchor="start" x="465" y="-1073.9" font-family="Arial" font-size="14.00" fill="#000000">category_id </text>
<text text-anchor="start" x="541.244" y="-1073.9" font-family="Arial" font-size="14.00" fill="#666666">[int(10) unsigned]</text>
<polygon fill="none" stroke="#000000" points="458,-1032.5 458,-1062.5 714,-1062.5 714,-1032.5 458,-1032.5"/>
<text text-anchor="start" x="464.6326" y="-1043.9" font-family="Arial" font-size="14.00" fill="#000000">translation_parent_id </text>
<text text-anchor="start" x="599.2272" y="-1043.9" font-family="Arial" font-size="14.00" fill="#666666">[int(10) unsigned]</text>
<polygon fill="none" stroke="#000000" points="458,-1002.5 458,-1032.5 714,-1032.5 714,-1002.5 458,-1002.5"/>
<text text-anchor="start" x="465" y="-1013.9" font-family="Arial" font-size="14.00" fill="#000000">variant_parent_id </text>
<text text-anchor="start" x="577.0322" y="-1013.9" font-family="Arial" font-size="14.00" fill="#666666">[int(10) unsigned]</text>
<polygon fill="none" stroke="#000000" points="458,-972.5 458,-1002.5 714,-1002.5 714,-972.5 458,-972.5"/>
<text text-anchor="start" x="465" y="-983.9" font-family="Arial" font-size="14.00" fill="#000000">is_published </text>
<text text-anchor="start" x="546.6886" y="-983.9" font-family="Arial" font-size="14.00" fill="#666666">[tinyint(1)]</text>
<polygon fill="none" stroke="#000000" points="458,-942.5 458,-972.5 714,-972.5 714,-942.5 458,-942.5"/>
<text text-anchor="start" x="465" y="-953.9" font-family="Arial" font-size="14.00" fill="#000000">date_added </text>
<text text-anchor="start" x="542.8246" y="-953.9" font-family="Arial" font-size="14.00" fill="#666666">[datetime]</text>
<polygon fill="none" stroke="#000000" points="458,-912.5 458,-942.5 714,-942.5 714,-912.5 458,-912.5"/>
<text text-anchor="start" x="465" y="-923.9" font-family="Arial" font-size="14.00" fill="#000000">created_by </text>
<text text-anchor="start" x="538.1374" y="-923.9" font-family="Arial" font-size="14.00" fill="#666666">[int(11)]</text>
<polygon fill="none" stroke="#000000" points="458,-882.5 458,-912.5 714,-912.5 714,-882.5 458,-882.5"/>
<text text-anchor="start" x="465" y="-893.9" font-family="Arial" font-size="14.00" fill="#000000">created_by_user </text>
<text text-anchor="start" x="573.1458" y="-893.9" font-family="Arial" font-size="14.00" fill="#666666">[varchar(191)]</text>
<polygon fill="none" stroke="#000000" points="458,-852.5 458,-882.5 714,-882.5 714,-852.5 458,-852.5"/>
<text text-anchor="start" x="465" y="-863.9" font-family="Arial" font-size="14.00" fill="#000000">date_modified </text>
<text text-anchor="start" x="556.8064" y="-863.9" font-family="Arial" font-size="14.00" fill="#666666">[datetime]</text>
<polygon fill="none" stroke="#000000" points="458,-822.5 458,-852.5 714,-852.5 714,-822.5 458,-822.5"/>
<text text-anchor="start" x="465" y="-833.9" font-family="Arial" font-size="14.00" fill="#000000">modified_by </text>
<text text-anchor="start" x="544.3506" y="-833.9" font-family="Arial" font-size="14.00" fill="#666666">[int(11)]</text>
<polygon fill="none" stroke="#000000" points="458,-792.5 458,-822.5 714,-822.5 714,-792.5 458,-792.5"/>
<text text-anchor="start" x="465" y="-803.9" font-family="Arial" font-size="14.00" fill="#000000">modified_by_user </text>
<text text-anchor="start" x="579.359" y="-803.9" font-family="Arial" font-size="14.00" fill="#666666">[varchar(191)]</text>
<polygon fill="none" stroke="#000000" points="458,-762.5 458,-792.5 714,-792.5 714,-762.5 458,-762.5"/>
<text text-anchor="start" x="465" y="-773.9" font-family="Arial" font-size="14.00" fill="#000000">checked_out </text>
<text text-anchor="start" x="548.2594" y="-773.9" font-family="Arial" font-size="14.00" fill="#666666">[datetime]</text>
<polygon fill="none" stroke="#000000" points="458,-732.5 458,-762.5 714,-762.5 714,-732.5 458,-732.5"/>
<text text-anchor="start" x="465" y="-743.9" font-family="Arial" font-size="14.00" fill="#000000">checked_out_by </text>
<text text-anchor="start" x="570.8246" y="-743.9" font-family="Arial" font-size="14.00" fill="#666666">[int(11)]</text>
<polygon fill="none" stroke="#000000" points="458,-702.5 458,-732.5 714,-732.5 714,-702.5 458,-702.5"/>
<text text-anchor="start" x="465" y="-713.9" font-family="Arial" font-size="14.00" fill="#000000">checked_out_by_user </text>
<text text-anchor="start" x="605.833" y="-713.9" font-family="Arial" font-size="14.00" fill="#666666">[varchar(191)]</text>
<polygon fill="none" stroke="#000000" points="458,-672.5 458,-702.5 714,-702.5 714,-672.5 458,-672.5"/>
<text text-anchor="start" x="465" y="-683.9" font-family="Arial" font-size="14.00" fill="#000000">name </text>
<text text-anchor="start" x="503.899" y="-683.9" font-family="Arial" font-size="14.00" fill="#666666">[varchar(191)]</text>
<polygon fill="none" stroke="#000000" points="458,-642.5 458,-672.5 714,-672.5 714,-642.5 458,-642.5"/>
<text text-anchor="start" x="465" y="-653.9" font-family="Arial" font-size="14.00" fill="#000000">description </text>
<text text-anchor="start" x="536.568" y="-653.9" font-family="Arial" font-size="14.00" fill="#666666">[longtext]</text>
<polygon fill="none" stroke="#000000" points="458,-612.5 458,-642.5 714,-642.5 714,-612.5 458,-612.5"/>
<text text-anchor="start" x="465" y="-623.9" font-family="Arial" font-size="14.00" fill="#000000">publish_up </text>
<text text-anchor="start" x="536.582" y="-623.9" font-family="Arial" font-size="14.00" fill="#666666">[datetime]</text>
<polygon fill="none" stroke="#000000" points="458,-582.5 458,-612.5 714,-612.5 714,-582.5 458,-582.5"/>
<text text-anchor="start" x="465" y="-593.9" font-family="Arial" font-size="14.00" fill="#000000">publish_down </text>
<text text-anchor="start" x="554.4712" y="-593.9" font-family="Arial" font-size="14.00" fill="#666666">[datetime]</text>
<polygon fill="none" stroke="#000000" points="458,-552.5 458,-582.5 714,-582.5 714,-552.5 458,-552.5"/>
<text text-anchor="start" x="465" y="-563.9" font-family="Arial" font-size="14.00" fill="#000000">sent_count </text>
<text text-anchor="start" x="537.3674" y="-563.9" font-family="Arial" font-size="14.00" fill="#666666">[int(11)]</text>
<polygon fill="none" stroke="#000000" points="458,-522.5 458,-552.5 714,-552.5 714,-522.5 458,-522.5"/>
<text text-anchor="start" x="465" y="-533.9" font-family="Arial" font-size="14.00" fill="#000000">content </text>
<text text-anchor="start" x="514.8022" y="-533.9" font-family="Arial" font-size="14.00" fill="#666666">[longtext]</text>
<polygon fill="none" stroke="#000000" points="458,-492.5 458,-522.5 714,-522.5 714,-492.5 458,-492.5"/>
<text text-anchor="start" x="465" y="-503.9" font-family="Arial" font-size="14.00" fill="#000000">utm_tags </text>
<text text-anchor="start" x="526.4628" y="-503.9" font-family="Arial" font-size="14.00" fill="#666666">[longtext]</text>
<polygon fill="none" stroke="#000000" points="458,-462.5 458,-492.5 714,-492.5 714,-462.5 458,-462.5"/>
<text text-anchor="start" x="465" y="-473.9" font-family="Arial" font-size="14.00" fill="#000000">lang </text>
<text text-anchor="start" x="495.345" y="-473.9" font-family="Arial" font-size="14.00" fill="#666666">[varchar(191)]</text>
<polygon fill="none" stroke="#000000" points="458,-432.5 458,-462.5 714,-462.5 714,-432.5 458,-432.5"/>
<text text-anchor="start" x="465" y="-443.9" font-family="Arial" font-size="14.00" fill="#000000">variant_settings </text>
<text text-anchor="start" x="566.9144" y="-443.9" font-family="Arial" font-size="14.00" fill="#666666">[longtext]</text>
<polygon fill="none" stroke="#000000" points="458,-402.5 458,-432.5 714,-432.5 714,-402.5 458,-402.5"/>
<text text-anchor="start" x="465" y="-413.9" font-family="Arial" font-size="14.00" fill="#000000">variant_start_date </text>
<text text-anchor="start" x="580.9242" y="-413.9" font-family="Arial" font-size="14.00" fill="#666666">[datetime]</text>
<polygon fill="none" stroke="#000000" points="458,-372.5 458,-402.5 714,-402.5 714,-372.5 458,-372.5"/>
<text text-anchor="start" x="465" y="-383.9" font-family="Arial" font-size="14.00" fill="#000000">filters </text>
<text text-anchor="start" x="502.3282" y="-383.9" font-family="Arial" font-size="14.00" fill="#666666">[longtext]</text>
<polygon fill="none" stroke="#000000" points="458,-342.5 458,-372.5 714,-372.5 714,-342.5 458,-342.5"/>
<text text-anchor="start" x="465" y="-353.9" font-family="Arial" font-size="14.00" fill="#000000">is_campaign_based </text>
<text text-anchor="start" x="593.373" y="-353.9" font-family="Arial" font-size="14.00" fill="#666666">[tinyint(1)]</text>
<polygon fill="none" stroke="#000000" points="458,-312.5 458,-342.5 714,-342.5 714,-312.5 458,-312.5"/>
<text text-anchor="start" x="465" y="-323.9" font-family="Arial" font-size="14.00" fill="#000000">slot_name </text>
<text text-anchor="start" x="533.4614" y="-323.9" font-family="Arial" font-size="14.00" fill="#666666">[varchar(191)]</text>
</g>
<!-- dynamic_content_lead_data&#45;&gt;dynamic_content -->
<g id="edge2" class="edge">
<title>dynamic_content_lead_data:dynamic_content_id&#45;&gt;dynamic_content:id</title>
<path fill="none" stroke="#000000" d="M585.0112,-1625.9147C671.1257,-1594.5244 343.3726,-1107.5 458,-1107.5"/>
<polygon fill="#000000" stroke="#000000" points="584.8769,-1625.9358 574.2961,-1623.0554 579.9385,-1626.7179 575,-1627.5 575,-1627.5 575,-1627.5 579.9385,-1626.7179 575.7039,-1631.9446 584.8769,-1625.9358 584.8769,-1625.9358"/>
<text text-anchor="start" x="582.314" y="-1637.5" font-family="Arial" font-size="10.00" fill="#000000">FOREIGN KEY (dynamic_content_id) REFERENCES dynamic_content (id)</text>
</g>
</g>
</svg>
