<?xml version="1.0" encoding="UTF-8" standalone="no"?>
<!DOCTYPE svg PUBLIC "-//W3C//DTD SVG 1.1//EN"
 "http://www.w3.org/Graphics/SVG/1.1/DTD/svg11.dtd">
<!-- Generated by graphviz version 2.40.1 (20161225.0304)
 -->
<!-- Title: dynamic_content_stats Pages: 1 -->
<svg width="889pt" height="1942pt"
 viewBox="0.00 0.00 889.00 1942.00" xmlns="http://www.w3.org/2000/svg" xmlns:xlink="http://www.w3.org/1999/xlink">
<g id="graph0" class="graph" transform="scale(1 1) rotate(0) translate(4 1938)">
<title>dynamic_content_stats</title>
<polygon fill="#ffffff" stroke="transparent" points="-4,4 -4,-1938 885,-1938 885,4 -4,4"/>
<!-- dynamic_content_stats -->
<g id="node1" class="node">
<title>dynamic_content_stats</title>
<polygon fill="#efefef" stroke="transparent" points="347,-1852.5 347,-1887.5 642,-1887.5 642,-1852.5 347,-1852.5"/>
<polygon fill="none" stroke="#000000" points="347,-1852.5 347,-1887.5 642,-1887.5 642,-1852.5 347,-1852.5"/>
<text text-anchor="start" x="353.8445" y="-1865.3" font-family="Arial Bold" font-size="18.00" fill="#000000">dynamic_content_stats</text>
<text text-anchor="start" x="537.9017" y="-1865.3" font-family="Arial" font-size="14.00" fill="#000000"> </text>
<text text-anchor="start" x="541.7923" y="-1865.3" font-family="Arial" font-size="14.00" fill="#666666">[BASE TABLE]</text>
<polygon fill="none" stroke="#000000" points="347,-1822.5 347,-1852.5 642,-1852.5 642,-1822.5 347,-1822.5"/>
<text text-anchor="start" x="354" y="-1833.9" font-family="Arial" font-size="14.00" fill="#000000">id </text>
<text text-anchor="start" x="368.7798" y="-1833.9" font-family="Arial" font-size="14.00" fill="#666666">[bigint(20) unsigned]</text>
<polygon fill="none" stroke="#000000" points="347,-1792.5 347,-1822.5 642,-1822.5 642,-1792.5 347,-1792.5"/>
<text text-anchor="start" x="354" y="-1803.9" font-family="Arial" font-size="14.00" fill="#000000">dynamic_content_id </text>
<text text-anchor="start" x="482.3716" y="-1803.9" font-family="Arial" font-size="14.00" fill="#666666">[int(10) unsigned]</text>
<polygon fill="none" stroke="#000000" points="347,-1762.5 347,-1792.5 642,-1792.5 642,-1762.5 347,-1762.5"/>
<text text-anchor="start" x="354" y="-1773.9" font-family="Arial" font-size="14.00" fill="#000000">lead_id </text>
<text text-anchor="start" x="403.0168" y="-1773.9" font-family="Arial" font-size="14.00" fill="#666666">[bigint(20) unsigned]</text>
<polygon fill="none" stroke="#000000" points="347,-1732.5 347,-1762.5 642,-1762.5 642,-1732.5 347,-1732.5"/>
<text text-anchor="start" x="354" y="-1743.9" font-family="Arial" font-size="14.00" fill="#000000">date_sent </text>
<text text-anchor="start" x="419.3674" y="-1743.9" font-family="Arial" font-size="14.00" fill="#666666">[datetime]</text>
<polygon fill="none" stroke="#000000" points="347,-1702.5 347,-1732.5 642,-1732.5 642,-1702.5 347,-1702.5"/>
<text text-anchor="start" x="354" y="-1713.9" font-family="Arial" font-size="14.00" fill="#000000">source </text>
<text text-anchor="start" x="399.899" y="-1713.9" font-family="Arial" font-size="14.00" fill="#666666">[varchar(191)]</text>
<polygon fill="none" stroke="#000000" points="347,-1672.5 347,-1702.5 642,-1702.5 642,-1672.5 347,-1672.5"/>
<text text-anchor="start" x="354" y="-1683.9" font-family="Arial" font-size="14.00" fill="#000000">source_id </text>
<text text-anchor="start" x="418.5708" y="-1683.9" font-family="Arial" font-size="14.00" fill="#666666">[int(11)]</text>
<polygon fill="none" stroke="#000000" points="347,-1642.5 347,-1672.5 642,-1672.5 642,-1642.5 347,-1642.5"/>
<text text-anchor="start" x="354" y="-1653.9" font-family="Arial" font-size="14.00" fill="#000000">tokens </text>
<text text-anchor="start" x="399.129" y="-1653.9" font-family="Arial" font-size="14.00" fill="#666666">[longtext]</text>
<polygon fill="none" stroke="#000000" points="347,-1612.5 347,-1642.5 642,-1642.5 642,-1612.5 347,-1612.5"/>
<text text-anchor="start" x="354" y="-1623.9" font-family="Arial" font-size="14.00" fill="#000000">sent_count </text>
<text text-anchor="start" x="426.3674" y="-1623.9" font-family="Arial" font-size="14.00" fill="#666666">[int(11)]</text>
<polygon fill="none" stroke="#000000" points="347,-1582.5 347,-1612.5 642,-1612.5 642,-1582.5 347,-1582.5"/>
<text text-anchor="start" x="354" y="-1593.9" font-family="Arial" font-size="14.00" fill="#000000">last_sent </text>
<text text-anchor="start" x="413.9088" y="-1593.9" font-family="Arial" font-size="14.00" fill="#666666">[datetime]</text>
<polygon fill="none" stroke="#000000" points="347,-1552.5 347,-1582.5 642,-1582.5 642,-1552.5 347,-1552.5"/>
<text text-anchor="start" x="354" y="-1563.9" font-family="Arial" font-size="14.00" fill="#000000">sent_details </text>
<text text-anchor="start" x="432.5806" y="-1563.9" font-family="Arial" font-size="14.00" fill="#666666">[longtext]</text>
<polygon fill="none" stroke="#000000" stroke-width="3" points="345,-1551.5 345,-1889.5 643,-1889.5 643,-1551.5 345,-1551.5"/>
</g>
<!-- dynamic_content -->
<g id="node2" class="node">
<title>dynamic_content</title>
<polygon fill="#efefef" stroke="transparent" points="187,-1122.5 187,-1157.5 443,-1157.5 443,-1122.5 187,-1122.5"/>
<polygon fill="none" stroke="#000000" points="187,-1122.5 187,-1157.5 443,-1157.5 443,-1122.5 187,-1122.5"/>
<text text-anchor="start" x="198.3529" y="-1135.3" font-family="Arial Bold" font-size="18.00" fill="#000000">dynamic_content</text>
<text text-anchor="start" x="334.3933" y="-1135.3" font-family="Arial" font-size="14.00" fill="#000000"> </text>
<text text-anchor="start" x="338.2839" y="-1135.3" font-family="Arial" font-size="14.00" fill="#666666">[BASE TABLE]</text>
<polygon fill="none" stroke="#000000" points="187,-1092.5 187,-1122.5 443,-1122.5 443,-1092.5 187,-1092.5"/>
<text text-anchor="start" x="194" y="-1103.9" font-family="Arial" font-size="14.00" fill="#000000">id </text>
<text text-anchor="start" x="208.7798" y="-1103.9" font-family="Arial" font-size="14.00" fill="#666666">[int(10) unsigned]</text>
<polygon fill="none" stroke="#000000" points="187,-1062.5 187,-1092.5 443,-1092.5 443,-1062.5 187,-1062.5"/>
<text text-anchor="start" x="194" y="-1073.9" font-family="Arial" font-size="14.00" fill="#000000">category_id </text>
<text text-anchor="start" x="270.244" y="-1073.9" font-family="Arial" font-size="14.00" fill="#666666">[int(10) unsigned]</text>
<polygon fill="none" stroke="#000000" points="187,-1032.5 187,-1062.5 443,-1062.5 443,-1032.5 187,-1032.5"/>
<text text-anchor="start" x="193.6326" y="-1043.9" font-family="Arial" font-size="14.00" fill="#000000">translation_parent_id </text>
<text text-anchor="start" x="328.2272" y="-1043.9" font-family="Arial" font-size="14.00" fill="#666666">[int(10) unsigned]</text>
<polygon fill="none" stroke="#000000" points="187,-1002.5 187,-1032.5 443,-1032.5 443,-1002.5 187,-1002.5"/>
<text text-anchor="start" x="194" y="-1013.9" font-family="Arial" font-size="14.00" fill="#000000">variant_parent_id </text>
<text text-anchor="start" x="306.0322" y="-1013.9" font-family="Arial" font-size="14.00" fill="#666666">[int(10) unsigned]</text>
<polygon fill="none" stroke="#000000" points="187,-972.5 187,-1002.5 443,-1002.5 443,-972.5 187,-972.5"/>
<text text-anchor="start" x="194" y="-983.9" font-family="Arial" font-size="14.00" fill="#000000">is_published </text>
<text text-anchor="start" x="275.6886" y="-983.9" font-family="Arial" font-size="14.00" fill="#666666">[tinyint(1)]</text>
<polygon fill="none" stroke="#000000" points="187,-942.5 187,-972.5 443,-972.5 443,-942.5 187,-942.5"/>
<text text-anchor="start" x="194" y="-953.9" font-family="Arial" font-size="14.00" fill="#000000">date_added </text>
<text text-anchor="start" x="271.8246" y="-953.9" font-family="Arial" font-size="14.00" fill="#666666">[datetime]</text>
<polygon fill="none" stroke="#000000" points="187,-912.5 187,-942.5 443,-942.5 443,-912.5 187,-912.5"/>
<text text-anchor="start" x="194" y="-923.9" font-family="Arial" font-size="14.00" fill="#000000">created_by </text>
<text text-anchor="start" x="267.1374" y="-923.9" font-family="Arial" font-size="14.00" fill="#666666">[int(11)]</text>
<polygon fill="none" stroke="#000000" points="187,-882.5 187,-912.5 443,-912.5 443,-882.5 187,-882.5"/>
<text text-anchor="start" x="194" y="-893.9" font-family="Arial" font-size="14.00" fill="#000000">created_by_user </text>
<text text-anchor="start" x="302.1458" y="-893.9" font-family="Arial" font-size="14.00" fill="#666666">[varchar(191)]</text>
<polygon fill="none" stroke="#000000" points="187,-852.5 187,-882.5 443,-882.5 443,-852.5 187,-852.5"/>
<text text-anchor="start" x="194" y="-863.9" font-family="Arial" font-size="14.00" fill="#000000">date_modified </text>
<text text-anchor="start" x="285.8064" y="-863.9" font-family="Arial" font-size="14.00" fill="#666666">[datetime]</text>
<polygon fill="none" stroke="#000000" points="187,-822.5 187,-852.5 443,-852.5 443,-822.5 187,-822.5"/>
<text text-anchor="start" x="194" y="-833.9" font-family="Arial" font-size="14.00" fill="#000000">modified_by </text>
<text text-anchor="start" x="273.3506" y="-833.9" font-family="Arial" font-size="14.00" fill="#666666">[int(11)]</text>
<polygon fill="none" stroke="#000000" points="187,-792.5 187,-822.5 443,-822.5 443,-792.5 187,-792.5"/>
<text text-anchor="start" x="194" y="-803.9" font-family="Arial" font-size="14.00" fill="#000000">modified_by_user </text>
<text text-anchor="start" x="308.359" y="-803.9" font-family="Arial" font-size="14.00" fill="#666666">[varchar(191)]</text>
<polygon fill="none" stroke="#000000" points="187,-762.5 187,-792.5 443,-792.5 443,-762.5 187,-762.5"/>
<text text-anchor="start" x="194" y="-773.9" font-family="Arial" font-size="14.00" fill="#000000">checked_out </text>
<text text-anchor="start" x="277.2594" y="-773.9" font-family="Arial" font-size="14.00" fill="#666666">[datetime]</text>
<polygon fill="none" stroke="#000000" points="187,-732.5 187,-762.5 443,-762.5 443,-732.5 187,-732.5"/>
<text text-anchor="start" x="194" y="-743.9" font-family="Arial" font-size="14.00" fill="#000000">checked_out_by </text>
<text text-anchor="start" x="299.8246" y="-743.9" font-family="Arial" font-size="14.00" fill="#666666">[int(11)]</text>
<polygon fill="none" stroke="#000000" points="187,-702.5 187,-732.5 443,-732.5 443,-702.5 187,-702.5"/>
<text text-anchor="start" x="194" y="-713.9" font-family="Arial" font-size="14.00" fill="#000000">checked_out_by_user </text>
<text text-anchor="start" x="334.833" y="-713.9" font-family="Arial" font-size="14.00" fill="#666666">[varchar(191)]</text>
<polygon fill="none" stroke="#000000" points="187,-672.5 187,-702.5 443,-702.5 443,-672.5 187,-672.5"/>
<text text-anchor="start" x="194" y="-683.9" font-family="Arial" font-size="14.00" fill="#000000">name </text>
<text text-anchor="start" x="232.899" y="-683.9" font-family="Arial" font-size="14.00" fill="#666666">[varchar(191)]</text>
<polygon fill="none" stroke="#000000" points="187,-642.5 187,-672.5 443,-672.5 443,-642.5 187,-642.5"/>
<text text-anchor="start" x="194" y="-653.9" font-family="Arial" font-size="14.00" fill="#000000">description </text>
<text text-anchor="start" x="265.568" y="-653.9" font-family="Arial" font-size="14.00" fill="#666666">[longtext]</text>
<polygon fill="none" stroke="#000000" points="187,-612.5 187,-642.5 443,-642.5 443,-612.5 187,-612.5"/>
<text text-anchor="start" x="194" y="-623.9" font-family="Arial" font-size="14.00" fill="#000000">publish_up </text>
<text text-anchor="start" x="265.582" y="-623.9" font-family="Arial" font-size="14.00" fill="#666666">[datetime]</text>
<polygon fill="none" stroke="#000000" points="187,-582.5 187,-612.5 443,-612.5 443,-582.5 187,-582.5"/>
<text text-anchor="start" x="194" y="-593.9" font-family="Arial" font-size="14.00" fill="#000000">publish_down </text>
<text text-anchor="start" x="283.4712" y="-593.9" font-family="Arial" font-size="14.00" fill="#666666">[datetime]</text>
<polygon fill="none" stroke="#000000" points="187,-552.5 187,-582.5 443,-582.5 443,-552.5 187,-552.5"/>
<text text-anchor="start" x="194" y="-563.9" font-family="Arial" font-size="14.00" fill="#000000">sent_count </text>
<text text-anchor="start" x="266.3674" y="-563.9" font-family="Arial" font-size="14.00" fill="#666666">[int(11)]</text>
<polygon fill="none" stroke="#000000" points="187,-522.5 187,-552.5 443,-552.5 443,-522.5 187,-522.5"/>
<text text-anchor="start" x="194" y="-533.9" font-family="Arial" font-size="14.00" fill="#000000">content </text>
<text text-anchor="start" x="243.8022" y="-533.9" font-family="Arial" font-size="14.00" fill="#666666">[longtext]</text>
<polygon fill="none" stroke="#000000" points="187,-492.5 187,-522.5 443,-522.5 443,-492.5 187,-492.5"/>
<text text-anchor="start" x="194" y="-503.9" font-family="Arial" font-size="14.00" fill="#000000">utm_tags </text>
<text text-anchor="start" x="255.4628" y="-503.9" font-family="Arial" font-size="14.00" fill="#666666">[longtext]</text>
<polygon fill="none" stroke="#000000" points="187,-462.5 187,-492.5 443,-492.5 443,-462.5 187,-462.5"/>
<text text-anchor="start" x="194" y="-473.9" font-family="Arial" font-size="14.00" fill="#000000">lang </text>
<text text-anchor="start" x="224.345" y="-473.9" font-family="Arial" font-size="14.00" fill="#666666">[varchar(191)]</text>
<polygon fill="none" stroke="#000000" points="187,-432.5 187,-462.5 443,-462.5 443,-432.5 187,-432.5"/>
<text text-anchor="start" x="194" y="-443.9" font-family="Arial" font-size="14.00" fill="#000000">variant_settings </text>
<text text-anchor="start" x="295.9144" y="-443.9" font-family="Arial" font-size="14.00" fill="#666666">[longtext]</text>
<polygon fill="none" stroke="#000000" points="187,-402.5 187,-432.5 443,-432.5 443,-402.5 187,-402.5"/>
<text text-anchor="start" x="194" y="-413.9" font-family="Arial" font-size="14.00" fill="#000000">variant_start_date </text>
<text text-anchor="start" x="309.9242" y="-413.9" font-family="Arial" font-size="14.00" fill="#666666">[datetime]</text>
<polygon fill="none" stroke="#000000" points="187,-372.5 187,-402.5 443,-402.5 443,-372.5 187,-372.5"/>
<text text-anchor="start" x="194" y="-383.9" font-family="Arial" font-size="14.00" fill="#000000">filters </text>
<text text-anchor="start" x="231.3282" y="-383.9" font-family="Arial" font-size="14.00" fill="#666666">[longtext]</text>
<polygon fill="none" stroke="#000000" points="187,-342.5 187,-372.5 443,-372.5 443,-342.5 187,-342.5"/>
<text text-anchor="start" x="194" y="-353.9" font-family="Arial" font-size="14.00" fill="#000000">is_campaign_based </text>
<text text-anchor="start" x="322.373" y="-353.9" font-family="Arial" font-size="14.00" fill="#666666">[tinyint(1)]</text>
<polygon fill="none" stroke="#000000" points="187,-312.5 187,-342.5 443,-342.5 443,-312.5 187,-312.5"/>
<text text-anchor="start" x="194" y="-323.9" font-family="Arial" font-size="14.00" fill="#000000">slot_name </text>
<text text-anchor="start" x="262.4614" y="-323.9" font-family="Arial" font-size="14.00" fill="#666666">[varchar(191)]</text>
</g>
<!-- dynamic_content_stats&#45;&gt;dynamic_content -->
<g id="edge1" class="edge">
<title>dynamic_content_stats:dynamic_content_id&#45;&gt;dynamic_content:id</title>
<path fill="none" stroke="#000000" d="M337.0161,-1806.7322C194.003,-1783.5818 436.3605,-1244.3439 443,-1201 449.2922,-1159.9236 484.5556,-1107.5 443,-1107.5"/>
<polygon fill="#000000" stroke="#000000" points="337.0294,-1806.7331 346.6549,-1811.9868 342.0147,-1807.1166 347,-1807.5 347,-1807.5 347,-1807.5 342.0147,-1807.1166 347.3451,-1803.0132 337.0294,-1806.7331 337.0294,-1806.7331"/>
<text text-anchor="start" x="7.314" y="-1817.5" font-family="Arial" font-size="10.00" fill="#000000">FOREIGN KEY (dynamic_content_id) REFERENCES dynamic_content (id)</text>
</g>
<!-- leads -->
<g id="node3" class="node">
<title>leads</title>
<polygon fill="#efefef" stroke="transparent" points="548,-1392.5 548,-1427.5 801,-1427.5 801,-1392.5 548,-1392.5"/>
<polygon fill="none" stroke="#000000" points="548,-1392.5 548,-1427.5 801,-1427.5 801,-1392.5 548,-1392.5"/>
<text text-anchor="start" x="604.3667" y="-1405.3" font-family="Arial Bold" font-size="18.00" fill="#000000">leads</text>
<text text-anchor="start" x="647.3795" y="-1405.3" font-family="Arial" font-size="14.00" fill="#000000"> </text>
<text text-anchor="start" x="651.2701" y="-1405.3" font-family="Arial" font-size="14.00" fill="#666666">[BASE TABLE]</text>
<polygon fill="none" stroke="#000000" points="548,-1362.5 548,-1392.5 801,-1392.5 801,-1362.5 548,-1362.5"/>
<text text-anchor="start" x="555" y="-1373.9" font-family="Arial" font-size="14.00" fill="#000000">id </text>
<text text-anchor="start" x="569.7798" y="-1373.9" font-family="Arial" font-size="14.00" fill="#666666">[bigint(20) unsigned]</text>
<polygon fill="none" stroke="#000000" points="548,-1332.5 548,-1362.5 801,-1362.5 801,-1332.5 548,-1332.5"/>
<text text-anchor="start" x="555" y="-1343.9" font-family="Arial" font-size="14.00" fill="#000000">owner_id </text>
<text text-anchor="start" x="615.6774" y="-1343.9" font-family="Arial" font-size="14.00" fill="#666666">[int(10) unsigned]</text>
<polygon fill="none" stroke="#000000" points="548,-1302.5 548,-1332.5 801,-1332.5 801,-1302.5 548,-1302.5"/>
<text text-anchor="start" x="555" y="-1313.9" font-family="Arial" font-size="14.00" fill="#000000">stage_id </text>
<text text-anchor="start" x="611.8008" y="-1313.9" font-family="Arial" font-size="14.00" fill="#666666">[int(10) unsigned]</text>
<polygon fill="none" stroke="#000000" points="548,-1272.5 548,-1302.5 801,-1302.5 801,-1272.5 548,-1272.5"/>
<text text-anchor="start" x="555" y="-1283.9" font-family="Arial" font-size="14.00" fill="#000000">is_published </text>
<text text-anchor="start" x="636.6886" y="-1283.9" font-family="Arial" font-size="14.00" fill="#666666">[tinyint(1)]</text>
<polygon fill="none" stroke="#000000" points="548,-1242.5 548,-1272.5 801,-1272.5 801,-1242.5 548,-1242.5"/>
<text text-anchor="start" x="555" y="-1253.9" font-family="Arial" font-size="14.00" fill="#000000">date_added </text>
<text text-anchor="start" x="632.8246" y="-1253.9" font-family="Arial" font-size="14.00" fill="#666666">[datetime]</text>
<polygon fill="none" stroke="#000000" points="548,-1212.5 548,-1242.5 801,-1242.5 801,-1212.5 548,-1212.5"/>
<text text-anchor="start" x="555" y="-1223.9" font-family="Arial" font-size="14.00" fill="#000000">created_by </text>
<text text-anchor="start" x="628.1374" y="-1223.9" font-family="Arial" font-size="14.00" fill="#666666">[int(11)]</text>
<polygon fill="none" stroke="#000000" points="548,-1182.5 548,-1212.5 801,-1212.5 801,-1182.5 548,-1182.5"/>
<text text-anchor="start" x="555" y="-1193.9" font-family="Arial" font-size="14.00" fill="#000000">created_by_user </text>
<text text-anchor="start" x="663.1458" y="-1193.9" font-family="Arial" font-size="14.00" fill="#666666">[varchar(191)]</text>
<polygon fill="none" stroke="#000000" points="548,-1152.5 548,-1182.5 801,-1182.5 801,-1152.5 548,-1152.5"/>
<text text-anchor="start" x="555" y="-1163.9" font-family="Arial" font-size="14.00" fill="#000000">date_modified </text>
<text text-anchor="start" x="646.8064" y="-1163.9" font-family="Arial" font-size="14.00" fill="#666666">[datetime]</text>
<polygon fill="none" stroke="#000000" points="548,-1122.5 548,-1152.5 801,-1152.5 801,-1122.5 548,-1122.5"/>
<text text-anchor="start" x="555" y="-1133.9" font-family="Arial" font-size="14.00" fill="#000000">modified_by </text>
<text text-anchor="start" x="634.3506" y="-1133.9" font-family="Arial" font-size="14.00" fill="#666666">[int(11)]</text>
<polygon fill="none" stroke="#000000" points="548,-1092.5 548,-1122.5 801,-1122.5 801,-1092.5 548,-1092.5"/>
<text text-anchor="start" x="555" y="-1103.9" font-family="Arial" font-size="14.00" fill="#000000">modified_by_user </text>
<text text-anchor="start" x="669.359" y="-1103.9" font-family="Arial" font-size="14.00" fill="#666666">[varchar(191)]</text>
<polygon fill="none" stroke="#000000" points="548,-1062.5 548,-1092.5 801,-1092.5 801,-1062.5 548,-1062.5"/>
<text text-anchor="start" x="555" y="-1073.9" font-family="Arial" font-size="14.00" fill="#000000">checked_out </text>
<text text-anchor="start" x="638.2594" y="-1073.9" font-family="Arial" font-size="14.00" fill="#666666">[datetime]</text>
<polygon fill="none" stroke="#000000" points="548,-1032.5 548,-1062.5 801,-1062.5 801,-1032.5 548,-1032.5"/>
<text text-anchor="start" x="555" y="-1043.9" font-family="Arial" font-size="14.00" fill="#000000">checked_out_by </text>
<text text-anchor="start" x="660.8246" y="-1043.9" font-family="Arial" font-size="14.00" fill="#666666">[int(11)]</text>
<polygon fill="none" stroke="#000000" points="548,-1002.5 548,-1032.5 801,-1032.5 801,-1002.5 548,-1002.5"/>
<text text-anchor="start" x="555" y="-1013.9" font-family="Arial" font-size="14.00" fill="#000000">checked_out_by_user </text>
<text text-anchor="start" x="695.833" y="-1013.9" font-family="Arial" font-size="14.00" fill="#666666">[varchar(191)]</text>
<polygon fill="none" stroke="#000000" points="548,-972.5 548,-1002.5 801,-1002.5 801,-972.5 548,-972.5"/>
<text text-anchor="start" x="555" y="-983.9" font-family="Arial" font-size="14.00" fill="#000000">points </text>
<text text-anchor="start" x="596.2356" y="-983.9" font-family="Arial" font-size="14.00" fill="#666666">[int(11)]</text>
<polygon fill="none" stroke="#000000" points="548,-942.5 548,-972.5 801,-972.5 801,-942.5 548,-942.5"/>
<text text-anchor="start" x="555" y="-953.9" font-family="Arial" font-size="14.00" fill="#000000">last_active </text>
<text text-anchor="start" x="625.0154" y="-953.9" font-family="Arial" font-size="14.00" fill="#666666">[datetime]</text>
<polygon fill="none" stroke="#000000" points="548,-912.5 548,-942.5 801,-942.5 801,-912.5 548,-912.5"/>
<text text-anchor="start" x="555" y="-923.9" font-family="Arial" font-size="14.00" fill="#000000">internal </text>
<text text-anchor="start" x="604.7854" y="-923.9" font-family="Arial" font-size="14.00" fill="#666666">[longtext]</text>
<polygon fill="none" stroke="#000000" points="548,-882.5 548,-912.5 801,-912.5 801,-882.5 548,-882.5"/>
<text text-anchor="start" x="555" y="-893.9" font-family="Arial" font-size="14.00" fill="#000000">social_cache </text>
<text text-anchor="start" x="639.7994" y="-893.9" font-family="Arial" font-size="14.00" fill="#666666">[longtext]</text>
<polygon fill="none" stroke="#000000" points="548,-852.5 548,-882.5 801,-882.5 801,-852.5 548,-852.5"/>
<text text-anchor="start" x="555" y="-863.9" font-family="Arial" font-size="14.00" fill="#000000">date_identified </text>
<text text-anchor="start" x="649.9256" y="-863.9" font-family="Arial" font-size="14.00" fill="#666666">[datetime]</text>
<polygon fill="none" stroke="#000000" points="548,-822.5 548,-852.5 801,-852.5 801,-822.5 548,-822.5"/>
<text text-anchor="start" x="554.7062" y="-833.9" font-family="Arial" font-size="14.00" fill="#000000">preferred_profile_image </text>
<text text-anchor="start" x="707.1746" y="-833.9" font-family="Arial" font-size="14.00" fill="#666666">[varchar(191)]</text>
<polygon fill="none" stroke="#000000" points="548,-792.5 548,-822.5 801,-822.5 801,-792.5 548,-792.5"/>
<text text-anchor="start" x="555" y="-803.9" font-family="Arial" font-size="14.00" fill="#000000">title </text>
<text text-anchor="start" x="580.6676" y="-803.9" font-family="Arial" font-size="14.00" fill="#666666">[varchar(191)]</text>
<polygon fill="none" stroke="#000000" points="548,-762.5 548,-792.5 801,-792.5 801,-762.5 548,-762.5"/>
<text text-anchor="start" x="555" y="-773.9" font-family="Arial" font-size="14.00" fill="#000000">firstname </text>
<text text-anchor="start" x="616.4474" y="-773.9" font-family="Arial" font-size="14.00" fill="#666666">[varchar(191)]</text>
<polygon fill="none" stroke="#000000" points="548,-732.5 548,-762.5 801,-762.5 801,-732.5 548,-732.5"/>
<text text-anchor="start" x="555" y="-743.9" font-family="Arial" font-size="14.00" fill="#000000">lastname </text>
<text text-anchor="start" x="615.6788" y="-743.9" font-family="Arial" font-size="14.00" fill="#666666">[varchar(191)]</text>
<polygon fill="none" stroke="#000000" points="548,-702.5 548,-732.5 801,-732.5 801,-702.5 548,-702.5"/>
<text text-anchor="start" x="555" y="-713.9" font-family="Arial" font-size="14.00" fill="#000000">company </text>
<text text-anchor="start" x="615.6816" y="-713.9" font-family="Arial" font-size="14.00" fill="#666666">[varchar(191)]</text>
<polygon fill="none" stroke="#000000" points="548,-672.5 548,-702.5 801,-702.5 801,-672.5 548,-672.5"/>
<text text-anchor="start" x="555" y="-683.9" font-family="Arial" font-size="14.00" fill="#000000">position </text>
<text text-anchor="start" x="607.1248" y="-683.9" font-family="Arial" font-size="14.00" fill="#666666">[varchar(191)]</text>
<polygon fill="none" stroke="#000000" points="548,-642.5 548,-672.5 801,-672.5 801,-642.5 548,-642.5"/>
<text text-anchor="start" x="555" y="-653.9" font-family="Arial" font-size="14.00" fill="#000000">email </text>
<text text-anchor="start" x="592.3296" y="-653.9" font-family="Arial" font-size="14.00" fill="#666666">[varchar(191)]</text>
<polygon fill="none" stroke="#000000" points="548,-612.5 548,-642.5 801,-642.5 801,-612.5 548,-612.5"/>
<text text-anchor="start" x="555" y="-623.9" font-family="Arial" font-size="14.00" fill="#000000">phone </text>
<text text-anchor="start" x="597.8036" y="-623.9" font-family="Arial" font-size="14.00" fill="#666666">[varchar(191)]</text>
<polygon fill="none" stroke="#000000" points="548,-582.5 548,-612.5 801,-612.5 801,-582.5 548,-582.5"/>
<text text-anchor="start" x="555" y="-593.9" font-family="Arial" font-size="14.00" fill="#000000">mobile </text>
<text text-anchor="start" x="600.1122" y="-593.9" font-family="Arial" font-size="14.00" fill="#666666">[varchar(191)]</text>
<polygon fill="none" stroke="#000000" points="548,-552.5 548,-582.5 801,-582.5 801,-552.5 548,-552.5"/>
<text text-anchor="start" x="555" y="-563.9" font-family="Arial" font-size="14.00" fill="#000000">address1 </text>
<text text-anchor="start" x="616.4642" y="-563.9" font-family="Arial" font-size="14.00" fill="#666666">[varchar(191)]</text>
<polygon fill="none" stroke="#000000" points="548,-522.5 548,-552.5 801,-552.5 801,-522.5 548,-522.5"/>
<text text-anchor="start" x="555" y="-533.9" font-family="Arial" font-size="14.00" fill="#000000">address2 </text>
<text text-anchor="start" x="616.4642" y="-533.9" font-family="Arial" font-size="14.00" fill="#666666">[varchar(191)]</text>
<polygon fill="none" stroke="#000000" points="548,-492.5 548,-522.5 801,-522.5 801,-492.5 548,-492.5"/>
<text text-anchor="start" x="555" y="-503.9" font-family="Arial" font-size="14.00" fill="#000000">city </text>
<text text-anchor="start" x="579.8878" y="-503.9" font-family="Arial" font-size="14.00" fill="#666666">[varchar(191)]</text>
<polygon fill="none" stroke="#000000" points="548,-462.5 548,-492.5 801,-492.5 801,-462.5 548,-462.5"/>
<text text-anchor="start" x="555" y="-473.9" font-family="Arial" font-size="14.00" fill="#000000">state </text>
<text text-anchor="start" x="589.237" y="-473.9" font-family="Arial" font-size="14.00" fill="#666666">[varchar(191)]</text>
<polygon fill="none" stroke="#000000" points="548,-432.5 548,-462.5 801,-462.5 801,-432.5 548,-432.5"/>
<text text-anchor="start" x="555" y="-443.9" font-family="Arial" font-size="14.00" fill="#000000">zipcode </text>
<text text-anchor="start" x="607.1276" y="-443.9" font-family="Arial" font-size="14.00" fill="#666666">[varchar(191)]</text>
<polygon fill="none" stroke="#000000" points="548,-402.5 548,-432.5 801,-432.5 801,-402.5 548,-402.5"/>
<text text-anchor="start" x="555" y="-413.9" font-family="Arial" font-size="14.00" fill="#000000">timezone </text>
<text text-anchor="start" x="615.6788" y="-413.9" font-family="Arial" font-size="14.00" fill="#666666">[varchar(191)]</text>
<polygon fill="none" stroke="#000000" points="548,-372.5 548,-402.5 801,-402.5 801,-372.5 548,-372.5"/>
<text text-anchor="start" x="555" y="-383.9" font-family="Arial" font-size="14.00" fill="#000000">country </text>
<text text-anchor="start" x="604.7896" y="-383.9" font-family="Arial" font-size="14.00" fill="#666666">[varchar(191)]</text>
<polygon fill="none" stroke="#000000" points="548,-342.5 548,-372.5 801,-372.5 801,-342.5 548,-342.5"/>
<text text-anchor="start" x="555" y="-353.9" font-family="Arial" font-size="14.00" fill="#000000">fax </text>
<text text-anchor="start" x="577.5638" y="-353.9" font-family="Arial" font-size="14.00" fill="#666666">[varchar(255)]</text>
<polygon fill="none" stroke="#000000" points="548,-312.5 548,-342.5 801,-342.5 801,-312.5 548,-312.5"/>
<text text-anchor="start" x="555" y="-323.9" font-family="Arial" font-size="14.00" fill="#000000">preferred_locale </text>
<text text-anchor="start" x="660.0196" y="-323.9" font-family="Arial" font-size="14.00" fill="#666666">[varchar(255)]</text>
<polygon fill="none" stroke="#000000" points="548,-282.5 548,-312.5 801,-312.5 801,-282.5 548,-282.5"/>
<text text-anchor="start" x="555" y="-293.9" font-family="Arial" font-size="14.00" fill="#000000">attribution_date </text>
<text text-anchor="start" x="655.3702" y="-293.9" font-family="Arial" font-size="14.00" fill="#666666">[datetime]</text>
<polygon fill="none" stroke="#000000" points="548,-252.5 548,-282.5 801,-282.5 801,-252.5 548,-252.5"/>
<text text-anchor="start" x="555" y="-263.9" font-family="Arial" font-size="14.00" fill="#000000">attribution </text>
<text text-anchor="start" x="620.3492" y="-263.9" font-family="Arial" font-size="14.00" fill="#666666">[double]</text>
<polygon fill="none" stroke="#000000" points="548,-222.5 548,-252.5 801,-252.5 801,-222.5 548,-222.5"/>
<text text-anchor="start" x="555" y="-233.9" font-family="Arial" font-size="14.00" fill="#000000">website </text>
<text text-anchor="start" x="606.3422" y="-233.9" font-family="Arial" font-size="14.00" fill="#666666">[longtext]</text>
<polygon fill="none" stroke="#000000" points="548,-192.5 548,-222.5 801,-222.5 801,-192.5 548,-192.5"/>
<text text-anchor="start" x="555" y="-203.9" font-family="Arial" font-size="14.00" fill="#000000">facebook </text>
<text text-anchor="start" x="615.6942" y="-203.9" font-family="Arial" font-size="14.00" fill="#666666">[varchar(255)]</text>
<polygon fill="none" stroke="#000000" points="548,-162.5 548,-192.5 801,-192.5 801,-162.5 548,-162.5"/>
<text text-anchor="start" x="555" y="-173.9" font-family="Arial" font-size="14.00" fill="#000000">foursquare </text>
<text text-anchor="start" x="625.798" y="-173.9" font-family="Arial" font-size="14.00" fill="#666666">[varchar(255)]</text>
<polygon fill="none" stroke="#000000" points="548,-132.5 548,-162.5 801,-162.5 801,-132.5 548,-132.5"/>
<text text-anchor="start" x="555" y="-143.9" font-family="Arial" font-size="14.00" fill="#000000">instagram </text>
<text text-anchor="start" x="620.3394" y="-143.9" font-family="Arial" font-size="14.00" fill="#666666">[varchar(255)]</text>
<polygon fill="none" stroke="#000000" points="548,-102.5 548,-132.5 801,-132.5 801,-102.5 548,-102.5"/>
<text text-anchor="start" x="555" y="-113.9" font-family="Arial" font-size="14.00" fill="#000000">linkedin </text>
<text text-anchor="start" x="606.3408" y="-113.9" font-family="Arial" font-size="14.00" fill="#666666">[varchar(255)]</text>
<polygon fill="none" stroke="#000000" points="548,-72.5 548,-102.5 801,-102.5 801,-72.5 548,-72.5"/>
<text text-anchor="start" x="555" y="-83.9" font-family="Arial" font-size="14.00" fill="#000000">skype </text>
<text text-anchor="start" x="595.4558" y="-83.9" font-family="Arial" font-size="14.00" fill="#666666">[varchar(255)]</text>
<polygon fill="none" stroke="#000000" points="548,-42.5 548,-72.5 801,-72.5 801,-42.5 548,-42.5"/>
<text text-anchor="start" x="555" y="-53.9" font-family="Arial" font-size="14.00" fill="#000000">twitter </text>
<text text-anchor="start" x="596.2188" y="-53.9" font-family="Arial" font-size="14.00" fill="#666666">[varchar(255)]</text>
</g>
<!-- dynamic_content_stats&#45;&gt;leads -->
<g id="edge2" class="edge">
<title>dynamic_content_stats:lead_id&#45;&gt;leads:id</title>
<path fill="none" stroke="#000000" d="M652.1266,-1777.0647C759.1563,-1767.5164 708.1368,-1603.1501 642,-1507 616.6466,-1470.141 573.3534,-1507.859 548,-1471 524.4495,-1436.7621 506.4444,-1377.5 548,-1377.5"/>
<polygon fill="#000000" stroke="#000000" points="651.9908,-1777.0704 641.8067,-1773.0042 646.9954,-1777.2852 642,-1777.5 642,-1777.5 642,-1777.5 646.9954,-1777.2852 642.1933,-1781.9958 651.9908,-1777.0704 651.9908,-1777.0704"/>
<text text-anchor="start" x="649.496" y="-1787.5" font-family="Arial" font-size="10.00" fill="#000000">FOREIGN KEY (lead_id) REFERENCES leads (id)</text>
</g>
</g>
</svg>
