<?xml version="1.0" encoding="UTF-8" standalone="no"?>
<!DOCTYPE svg PUBLIC "-//W3C//DTD SVG 1.1//EN"
 "http://www.w3.org/Graphics/SVG/1.1/DTD/svg11.dtd">
<!-- Generated by graphviz version 2.40.1 (20161225.0304)
 -->
<!-- Title: dynamic_content Pages: 1 -->
<svg width="839pt" height="2039pt"
 viewBox="0.00 0.00 839.00 2039.00" xmlns="http://www.w3.org/2000/svg" xmlns:xlink="http://www.w3.org/1999/xlink">
<g id="graph0" class="graph" transform="scale(1 1) rotate(0) translate(4 2035)">
<title>dynamic_content</title>
<polygon fill="#ffffff" stroke="transparent" points="-4,4 -4,-2035 835,-2035 835,4 -4,4"/>
<!-- dynamic_content -->
<g id="node1" class="node">
<title>dynamic_content</title>
<polygon fill="#efefef" stroke="transparent" points="293,-1492.5 293,-1527.5 549,-1527.5 549,-1492.5 293,-1492.5"/>
<polygon fill="none" stroke="#000000" points="293,-1492.5 293,-1527.5 549,-1527.5 549,-1492.5 293,-1492.5"/>
<text text-anchor="start" x="304.3529" y="-1505.3" font-family="Arial Bold" font-size="18.00" fill="#000000">dynamic_content</text>
<text text-anchor="start" x="440.3933" y="-1505.3" font-family="Arial" font-size="14.00" fill="#000000"> </text>
<text text-anchor="start" x="444.2839" y="-1505.3" font-family="Arial" font-size="14.00" fill="#666666">[BASE TABLE]</text>
<polygon fill="none" stroke="#000000" points="293,-1462.5 293,-1492.5 549,-1492.5 549,-1462.5 293,-1462.5"/>
<text text-anchor="start" x="300" y="-1473.9" font-family="Arial" font-size="14.00" fill="#000000">id </text>
<text text-anchor="start" x="314.7798" y="-1473.9" font-family="Arial" font-size="14.00" fill="#666666">[int(10) unsigned]</text>
<polygon fill="none" stroke="#000000" points="293,-1432.5 293,-1462.5 549,-1462.5 549,-1432.5 293,-1432.5"/>
<text text-anchor="start" x="300" y="-1443.9" font-family="Arial" font-size="14.00" fill="#000000">category_id </text>
<text text-anchor="start" x="376.244" y="-1443.9" font-family="Arial" font-size="14.00" fill="#666666">[int(10) unsigned]</text>
<polygon fill="none" stroke="#000000" points="293,-1402.5 293,-1432.5 549,-1432.5 549,-1402.5 293,-1402.5"/>
<text text-anchor="start" x="299.6326" y="-1413.9" font-family="Arial" font-size="14.00" fill="#000000">translation_parent_id </text>
<text text-anchor="start" x="434.2272" y="-1413.9" font-family="Arial" font-size="14.00" fill="#666666">[int(10) unsigned]</text>
<polygon fill="none" stroke="#000000" points="293,-1372.5 293,-1402.5 549,-1402.5 549,-1372.5 293,-1372.5"/>
<text text-anchor="start" x="300" y="-1383.9" font-family="Arial" font-size="14.00" fill="#000000">variant_parent_id </text>
<text text-anchor="start" x="412.0322" y="-1383.9" font-family="Arial" font-size="14.00" fill="#666666">[int(10) unsigned]</text>
<polygon fill="none" stroke="#000000" points="293,-1342.5 293,-1372.5 549,-1372.5 549,-1342.5 293,-1342.5"/>
<text text-anchor="start" x="300" y="-1353.9" font-family="Arial" font-size="14.00" fill="#000000">is_published </text>
<text text-anchor="start" x="381.6886" y="-1353.9" font-family="Arial" font-size="14.00" fill="#666666">[tinyint(1)]</text>
<polygon fill="none" stroke="#000000" points="293,-1312.5 293,-1342.5 549,-1342.5 549,-1312.5 293,-1312.5"/>
<text text-anchor="start" x="300" y="-1323.9" font-family="Arial" font-size="14.00" fill="#000000">date_added </text>
<text text-anchor="start" x="377.8246" y="-1323.9" font-family="Arial" font-size="14.00" fill="#666666">[datetime]</text>
<polygon fill="none" stroke="#000000" points="293,-1282.5 293,-1312.5 549,-1312.5 549,-1282.5 293,-1282.5"/>
<text text-anchor="start" x="300" y="-1293.9" font-family="Arial" font-size="14.00" fill="#000000">created_by </text>
<text text-anchor="start" x="373.1374" y="-1293.9" font-family="Arial" font-size="14.00" fill="#666666">[int(11)]</text>
<polygon fill="none" stroke="#000000" points="293,-1252.5 293,-1282.5 549,-1282.5 549,-1252.5 293,-1252.5"/>
<text text-anchor="start" x="300" y="-1263.9" font-family="Arial" font-size="14.00" fill="#000000">created_by_user </text>
<text text-anchor="start" x="408.1458" y="-1263.9" font-family="Arial" font-size="14.00" fill="#666666">[varchar(191)]</text>
<polygon fill="none" stroke="#000000" points="293,-1222.5 293,-1252.5 549,-1252.5 549,-1222.5 293,-1222.5"/>
<text text-anchor="start" x="300" y="-1233.9" font-family="Arial" font-size="14.00" fill="#000000">date_modified </text>
<text text-anchor="start" x="391.8064" y="-1233.9" font-family="Arial" font-size="14.00" fill="#666666">[datetime]</text>
<polygon fill="none" stroke="#000000" points="293,-1192.5 293,-1222.5 549,-1222.5 549,-1192.5 293,-1192.5"/>
<text text-anchor="start" x="300" y="-1203.9" font-family="Arial" font-size="14.00" fill="#000000">modified_by </text>
<text text-anchor="start" x="379.3506" y="-1203.9" font-family="Arial" font-size="14.00" fill="#666666">[int(11)]</text>
<polygon fill="none" stroke="#000000" points="293,-1162.5 293,-1192.5 549,-1192.5 549,-1162.5 293,-1162.5"/>
<text text-anchor="start" x="300" y="-1173.9" font-family="Arial" font-size="14.00" fill="#000000">modified_by_user </text>
<text text-anchor="start" x="414.359" y="-1173.9" font-family="Arial" font-size="14.00" fill="#666666">[varchar(191)]</text>
<polygon fill="none" stroke="#000000" points="293,-1132.5 293,-1162.5 549,-1162.5 549,-1132.5 293,-1132.5"/>
<text text-anchor="start" x="300" y="-1143.9" font-family="Arial" font-size="14.00" fill="#000000">checked_out </text>
<text text-anchor="start" x="383.2594" y="-1143.9" font-family="Arial" font-size="14.00" fill="#666666">[datetime]</text>
<polygon fill="none" stroke="#000000" points="293,-1102.5 293,-1132.5 549,-1132.5 549,-1102.5 293,-1102.5"/>
<text text-anchor="start" x="300" y="-1113.9" font-family="Arial" font-size="14.00" fill="#000000">checked_out_by </text>
<text text-anchor="start" x="405.8246" y="-1113.9" font-family="Arial" font-size="14.00" fill="#666666">[int(11)]</text>
<polygon fill="none" stroke="#000000" points="293,-1072.5 293,-1102.5 549,-1102.5 549,-1072.5 293,-1072.5"/>
<text text-anchor="start" x="300" y="-1083.9" font-family="Arial" font-size="14.00" fill="#000000">checked_out_by_user </text>
<text text-anchor="start" x="440.833" y="-1083.9" font-family="Arial" font-size="14.00" fill="#666666">[varchar(191)]</text>
<polygon fill="none" stroke="#000000" points="293,-1042.5 293,-1072.5 549,-1072.5 549,-1042.5 293,-1042.5"/>
<text text-anchor="start" x="300" y="-1053.9" font-family="Arial" font-size="14.00" fill="#000000">name </text>
<text text-anchor="start" x="338.899" y="-1053.9" font-family="Arial" font-size="14.00" fill="#666666">[varchar(191)]</text>
<polygon fill="none" stroke="#000000" points="293,-1012.5 293,-1042.5 549,-1042.5 549,-1012.5 293,-1012.5"/>
<text text-anchor="start" x="300" y="-1023.9" font-family="Arial" font-size="14.00" fill="#000000">description </text>
<text text-anchor="start" x="371.568" y="-1023.9" font-family="Arial" font-size="14.00" fill="#666666">[longtext]</text>
<polygon fill="none" stroke="#000000" points="293,-982.5 293,-1012.5 549,-1012.5 549,-982.5 293,-982.5"/>
<text text-anchor="start" x="300" y="-993.9" font-family="Arial" font-size="14.00" fill="#000000">publish_up </text>
<text text-anchor="start" x="371.582" y="-993.9" font-family="Arial" font-size="14.00" fill="#666666">[datetime]</text>
<polygon fill="none" stroke="#000000" points="293,-952.5 293,-982.5 549,-982.5 549,-952.5 293,-952.5"/>
<text text-anchor="start" x="300" y="-963.9" font-family="Arial" font-size="14.00" fill="#000000">publish_down </text>
<text text-anchor="start" x="389.4712" y="-963.9" font-family="Arial" font-size="14.00" fill="#666666">[datetime]</text>
<polygon fill="none" stroke="#000000" points="293,-922.5 293,-952.5 549,-952.5 549,-922.5 293,-922.5"/>
<text text-anchor="start" x="300" y="-933.9" font-family="Arial" font-size="14.00" fill="#000000">sent_count </text>
<text text-anchor="start" x="372.3674" y="-933.9" font-family="Arial" font-size="14.00" fill="#666666">[int(11)]</text>
<polygon fill="none" stroke="#000000" points="293,-892.5 293,-922.5 549,-922.5 549,-892.5 293,-892.5"/>
<text text-anchor="start" x="300" y="-903.9" font-family="Arial" font-size="14.00" fill="#000000">content </text>
<text text-anchor="start" x="349.8022" y="-903.9" font-family="Arial" font-size="14.00" fill="#666666">[longtext]</text>
<polygon fill="none" stroke="#000000" points="293,-862.5 293,-892.5 549,-892.5 549,-862.5 293,-862.5"/>
<text text-anchor="start" x="300" y="-873.9" font-family="Arial" font-size="14.00" fill="#000000">utm_tags </text>
<text text-anchor="start" x="361.4628" y="-873.9" font-family="Arial" font-size="14.00" fill="#666666">[longtext]</text>
<polygon fill="none" stroke="#000000" points="293,-832.5 293,-862.5 549,-862.5 549,-832.5 293,-832.5"/>
<text text-anchor="start" x="300" y="-843.9" font-family="Arial" font-size="14.00" fill="#000000">lang </text>
<text text-anchor="start" x="330.345" y="-843.9" font-family="Arial" font-size="14.00" fill="#666666">[varchar(191)]</text>
<polygon fill="none" stroke="#000000" points="293,-802.5 293,-832.5 549,-832.5 549,-802.5 293,-802.5"/>
<text text-anchor="start" x="300" y="-813.9" font-family="Arial" font-size="14.00" fill="#000000">variant_settings </text>
<text text-anchor="start" x="401.9144" y="-813.9" font-family="Arial" font-size="14.00" fill="#666666">[longtext]</text>
<polygon fill="none" stroke="#000000" points="293,-772.5 293,-802.5 549,-802.5 549,-772.5 293,-772.5"/>
<text text-anchor="start" x="300" y="-783.9" font-family="Arial" font-size="14.00" fill="#000000">variant_start_date </text>
<text text-anchor="start" x="415.9242" y="-783.9" font-family="Arial" font-size="14.00" fill="#666666">[datetime]</text>
<polygon fill="none" stroke="#000000" points="293,-742.5 293,-772.5 549,-772.5 549,-742.5 293,-742.5"/>
<text text-anchor="start" x="300" y="-753.9" font-family="Arial" font-size="14.00" fill="#000000">filters </text>
<text text-anchor="start" x="337.3282" y="-753.9" font-family="Arial" font-size="14.00" fill="#666666">[longtext]</text>
<polygon fill="none" stroke="#000000" points="293,-712.5 293,-742.5 549,-742.5 549,-712.5 293,-712.5"/>
<text text-anchor="start" x="300" y="-723.9" font-family="Arial" font-size="14.00" fill="#000000">is_campaign_based </text>
<text text-anchor="start" x="428.373" y="-723.9" font-family="Arial" font-size="14.00" fill="#666666">[tinyint(1)]</text>
<polygon fill="none" stroke="#000000" points="293,-682.5 293,-712.5 549,-712.5 549,-682.5 293,-682.5"/>
<text text-anchor="start" x="300" y="-693.9" font-family="Arial" font-size="14.00" fill="#000000">slot_name </text>
<text text-anchor="start" x="368.4614" y="-693.9" font-family="Arial" font-size="14.00" fill="#666666">[varchar(191)]</text>
<polygon fill="none" stroke="#000000" stroke-width="3" points="291.5,-681.5 291.5,-1529.5 550.5,-1529.5 550.5,-681.5 291.5,-681.5"/>
</g>
<!-- dynamic_content&#45;&gt;dynamic_content -->
<g id="edge1" class="edge">
<title>dynamic_content:translation_parent_id&#45;&gt;dynamic_content:id</title>
<path fill="none" stroke="#000000" d="M421.8114,-1442.9901C429.9913,-1707.221 429.7209,-1931 421,-1931 412.2109,-1931 412.0049,-1704.0255 420.382,-1492.6861"/>
<polygon fill="#000000" stroke="#000000" points="421.8047,-1442.7727 425.9895,-1432.6367 421.6482,-1437.7751 421.4917,-1432.7776 421.4917,-1432.7776 421.4917,-1432.7776 421.6482,-1437.7751 416.9939,-1432.9184 421.8047,-1442.7727 421.8047,-1442.7727"/>
<text text-anchor="start" x="77.5832" y="-1442.7776" font-family="Arial" font-size="10.00" fill="#000000">FOREIGN KEY (translation_parent_id) REFERENCES dynamic_content (id)</text>
</g>
<!-- dynamic_content&#45;&gt;dynamic_content -->
<g id="edge2" class="edge">
<title>dynamic_content:variant_parent_id&#45;&gt;dynamic_content:id</title>
<path fill="none" stroke="#000000" d="M421.8114,-1413.0749C429.9913,-1679.053 429.7209,-1931 421,-1931 412.2109,-1931 412.0049,-1704.0255 420.382,-1492.6861"/>
<polygon fill="#000000" stroke="#000000" points="421.8031,-1412.8033 425.9895,-1402.668 421.6474,-1407.8057 421.4917,-1402.8082 421.4917,-1402.8082 421.4917,-1402.8082 421.6474,-1407.8057 416.9939,-1402.9483 421.8031,-1412.8033 421.8031,-1412.8033"/>
<text text-anchor="start" x="93.6412" y="-1412.8082" font-family="Arial" font-size="10.00" fill="#000000">FOREIGN KEY (variant_parent_id) REFERENCES dynamic_content (id)</text>
</g>
<!-- categories -->
<g id="node4" class="node">
<title>categories</title>
<polygon fill="#efefef" stroke="transparent" points="300,-522.5 300,-557.5 541,-557.5 541,-522.5 300,-522.5"/>
<polygon fill="none" stroke="#000000" points="300,-522.5 300,-557.5 541,-557.5 541,-522.5 300,-522.5"/>
<text text-anchor="start" x="330.3633" y="-535.3" font-family="Arial Bold" font-size="18.00" fill="#000000">categories</text>
<text text-anchor="start" x="413.3829" y="-535.3" font-family="Arial" font-size="14.00" fill="#000000"> </text>
<text text-anchor="start" x="417.2735" y="-535.3" font-family="Arial" font-size="14.00" fill="#666666">[BASE TABLE]</text>
<polygon fill="none" stroke="#000000" points="300,-492.5 300,-522.5 541,-522.5 541,-492.5 300,-492.5"/>
<text text-anchor="start" x="307" y="-503.9" font-family="Arial" font-size="14.00" fill="#000000">id </text>
<text text-anchor="start" x="321.7798" y="-503.9" font-family="Arial" font-size="14.00" fill="#666666">[int(10) unsigned]</text>
<polygon fill="none" stroke="#000000" points="300,-462.5 300,-492.5 541,-492.5 541,-462.5 300,-462.5"/>
<text text-anchor="start" x="307" y="-473.9" font-family="Arial" font-size="14.00" fill="#000000">is_published </text>
<text text-anchor="start" x="388.6886" y="-473.9" font-family="Arial" font-size="14.00" fill="#666666">[tinyint(1)]</text>
<polygon fill="none" stroke="#000000" points="300,-432.5 300,-462.5 541,-462.5 541,-432.5 300,-432.5"/>
<text text-anchor="start" x="307" y="-443.9" font-family="Arial" font-size="14.00" fill="#000000">date_added </text>
<text text-anchor="start" x="384.8246" y="-443.9" font-family="Arial" font-size="14.00" fill="#666666">[datetime]</text>
<polygon fill="none" stroke="#000000" points="300,-402.5 300,-432.5 541,-432.5 541,-402.5 300,-402.5"/>
<text text-anchor="start" x="307" y="-413.9" font-family="Arial" font-size="14.00" fill="#000000">created_by </text>
<text text-anchor="start" x="380.1374" y="-413.9" font-family="Arial" font-size="14.00" fill="#666666">[int(11)]</text>
<polygon fill="none" stroke="#000000" points="300,-372.5 300,-402.5 541,-402.5 541,-372.5 300,-372.5"/>
<text text-anchor="start" x="307" y="-383.9" font-family="Arial" font-size="14.00" fill="#000000">created_by_user </text>
<text text-anchor="start" x="415.1458" y="-383.9" font-family="Arial" font-size="14.00" fill="#666666">[varchar(191)]</text>
<polygon fill="none" stroke="#000000" points="300,-342.5 300,-372.5 541,-372.5 541,-342.5 300,-342.5"/>
<text text-anchor="start" x="307" y="-353.9" font-family="Arial" font-size="14.00" fill="#000000">date_modified </text>
<text text-anchor="start" x="398.8064" y="-353.9" font-family="Arial" font-size="14.00" fill="#666666">[datetime]</text>
<polygon fill="none" stroke="#000000" points="300,-312.5 300,-342.5 541,-342.5 541,-312.5 300,-312.5"/>
<text text-anchor="start" x="307" y="-323.9" font-family="Arial" font-size="14.00" fill="#000000">modified_by </text>
<text text-anchor="start" x="386.3506" y="-323.9" font-family="Arial" font-size="14.00" fill="#666666">[int(11)]</text>
<polygon fill="none" stroke="#000000" points="300,-282.5 300,-312.5 541,-312.5 541,-282.5 300,-282.5"/>
<text text-anchor="start" x="307" y="-293.9" font-family="Arial" font-size="14.00" fill="#000000">modified_by_user </text>
<text text-anchor="start" x="421.359" y="-293.9" font-family="Arial" font-size="14.00" fill="#666666">[varchar(191)]</text>
<polygon fill="none" stroke="#000000" points="300,-252.5 300,-282.5 541,-282.5 541,-252.5 300,-252.5"/>
<text text-anchor="start" x="307" y="-263.9" font-family="Arial" font-size="14.00" fill="#000000">checked_out </text>
<text text-anchor="start" x="390.2594" y="-263.9" font-family="Arial" font-size="14.00" fill="#666666">[datetime]</text>
<polygon fill="none" stroke="#000000" points="300,-222.5 300,-252.5 541,-252.5 541,-222.5 300,-222.5"/>
<text text-anchor="start" x="307" y="-233.9" font-family="Arial" font-size="14.00" fill="#000000">checked_out_by </text>
<text text-anchor="start" x="412.8246" y="-233.9" font-family="Arial" font-size="14.00" fill="#666666">[int(11)]</text>
<polygon fill="none" stroke="#000000" points="300,-192.5 300,-222.5 541,-222.5 541,-192.5 300,-192.5"/>
<text text-anchor="start" x="306.5239" y="-203.9" font-family="Arial" font-size="14.00" fill="#000000">checked_out_by_user </text>
<text text-anchor="start" x="447.3569" y="-203.9" font-family="Arial" font-size="14.00" fill="#666666">[varchar(191)]</text>
<polygon fill="none" stroke="#000000" points="300,-162.5 300,-192.5 541,-192.5 541,-162.5 300,-162.5"/>
<text text-anchor="start" x="307" y="-173.9" font-family="Arial" font-size="14.00" fill="#000000">title </text>
<text text-anchor="start" x="332.6676" y="-173.9" font-family="Arial" font-size="14.00" fill="#666666">[varchar(191)]</text>
<polygon fill="none" stroke="#000000" points="300,-132.5 300,-162.5 541,-162.5 541,-132.5 300,-132.5"/>
<text text-anchor="start" x="307" y="-143.9" font-family="Arial" font-size="14.00" fill="#000000">description </text>
<text text-anchor="start" x="378.568" y="-143.9" font-family="Arial" font-size="14.00" fill="#666666">[longtext]</text>
<polygon fill="none" stroke="#000000" points="300,-102.5 300,-132.5 541,-132.5 541,-102.5 300,-102.5"/>
<text text-anchor="start" x="307" y="-113.9" font-family="Arial" font-size="14.00" fill="#000000">alias </text>
<text text-anchor="start" x="339.669" y="-113.9" font-family="Arial" font-size="14.00" fill="#666666">[varchar(191)]</text>
<polygon fill="none" stroke="#000000" points="300,-72.5 300,-102.5 541,-102.5 541,-72.5 300,-72.5"/>
<text text-anchor="start" x="307" y="-83.9" font-family="Arial" font-size="14.00" fill="#000000">color </text>
<text text-anchor="start" x="341.223" y="-83.9" font-family="Arial" font-size="14.00" fill="#666666">[varchar(7)]</text>
<polygon fill="none" stroke="#000000" points="300,-42.5 300,-72.5 541,-72.5 541,-42.5 300,-42.5"/>
<text text-anchor="start" x="307" y="-53.9" font-family="Arial" font-size="14.00" fill="#000000">bundle </text>
<text text-anchor="start" x="352.9102" y="-53.9" font-family="Arial" font-size="14.00" fill="#666666">[varchar(50)]</text>
</g>
<!-- dynamic_content&#45;&gt;categories -->
<g id="edge5" class="edge">
<title>dynamic_content:category_id&#45;&gt;categories:id</title>
<path fill="none" stroke="#000000" d="M282.842,-1447.3543C-64.8411,-1437.277 59.5334,-906.8039 293,-637 365.8797,-552.7771 468.1203,-685.2229 541,-601 568.1918,-569.576 582.5556,-507.5 541,-507.5"/>
<polygon fill="#000000" stroke="#000000" points="283.001,-1447.3565 292.9354,-1451.9995 288.0005,-1447.4283 293,-1447.5 293,-1447.5 293,-1447.5 288.0005,-1447.4283 293.0646,-1443.0005 283.001,-1447.3565 283.001,-1447.3565"/>
<text text-anchor="start" x="19.659" y="-1457.5" font-family="Arial" font-size="10.00" fill="#000000">FOREIGN KEY (category_id) REFERENCES categories (id)</text>
</g>
<!-- dynamic_content_lead_data -->
<g id="node2" class="node">
<title>dynamic_content_lead_data</title>
<polygon fill="#efefef" stroke="transparent" points="43,-1877.5 43,-1912.5 379,-1912.5 379,-1877.5 43,-1877.5"/>
<polygon fill="none" stroke="#000000" points="43,-1877.5 43,-1912.5 379,-1912.5 379,-1877.5 43,-1877.5"/>
<text text-anchor="start" x="49.8299" y="-1890.3" font-family="Arial Bold" font-size="18.00" fill="#000000">dynamic_content_lead_data</text>
<text text-anchor="start" x="274.9163" y="-1890.3" font-family="Arial" font-size="14.00" fill="#000000"> </text>
<text text-anchor="start" x="278.8069" y="-1890.3" font-family="Arial" font-size="14.00" fill="#666666">[BASE TABLE]</text>
<polygon fill="none" stroke="#000000" points="43,-1847.5 43,-1877.5 379,-1877.5 379,-1847.5 43,-1847.5"/>
<text text-anchor="start" x="50" y="-1858.9" font-family="Arial" font-size="14.00" fill="#000000">id </text>
<text text-anchor="start" x="64.7798" y="-1858.9" font-family="Arial" font-size="14.00" fill="#666666">[int(10) unsigned]</text>
<polygon fill="none" stroke="#000000" points="43,-1817.5 43,-1847.5 379,-1847.5 379,-1817.5 43,-1817.5"/>
<text text-anchor="start" x="50" y="-1828.9" font-family="Arial" font-size="14.00" fill="#000000">lead_id </text>
<text text-anchor="start" x="99.0168" y="-1828.9" font-family="Arial" font-size="14.00" fill="#666666">[bigint(20) unsigned]</text>
<polygon fill="none" stroke="#000000" points="43,-1787.5 43,-1817.5 379,-1817.5 379,-1787.5 43,-1787.5"/>
<text text-anchor="start" x="50" y="-1798.9" font-family="Arial" font-size="14.00" fill="#000000">dynamic_content_id </text>
<text text-anchor="start" x="178.3716" y="-1798.9" font-family="Arial" font-size="14.00" fill="#666666">[int(10) unsigned]</text>
<polygon fill="none" stroke="#000000" points="43,-1757.5 43,-1787.5 379,-1787.5 379,-1757.5 43,-1757.5"/>
<text text-anchor="start" x="50" y="-1768.9" font-family="Arial" font-size="14.00" fill="#000000">date_added </text>
<text text-anchor="start" x="127.8246" y="-1768.9" font-family="Arial" font-size="14.00" fill="#666666">[datetime]</text>
<polygon fill="none" stroke="#000000" points="43,-1727.5 43,-1757.5 379,-1757.5 379,-1727.5 43,-1727.5"/>
<text text-anchor="start" x="50" y="-1738.9" font-family="Arial" font-size="14.00" fill="#000000">slot </text>
<text text-anchor="start" x="75.6704" y="-1738.9" font-family="Arial" font-size="14.00" fill="#666666">[longtext]</text>
</g>
<!-- dynamic_content_lead_data&#45;&gt;dynamic_content -->
<g id="edge3" class="edge">
<title>dynamic_content_lead_data:dynamic_content_id&#45;&gt;dynamic_content:id</title>
<path fill="none" stroke="#000000" d="M389.2243,-1801.4103C426.0808,-1792.496 394.6473,-1730.7442 379,-1685 358.8018,-1625.9513 313.1982,-1633.0487 293,-1574 279.119,-1533.4195 250.1111,-1477.5 293,-1477.5"/>
<polygon fill="#000000" stroke="#000000" points="388.9437,-1801.4401 378.523,-1798.0253 383.9718,-1801.9701 379,-1802.5 379,-1802.5 379,-1802.5 383.9718,-1801.9701 379.477,-1806.9747 388.9437,-1801.4401 388.9437,-1801.4401"/>
<text text-anchor="start" x="386.314" y="-1812.5" font-family="Arial" font-size="10.00" fill="#000000">FOREIGN KEY (dynamic_content_id) REFERENCES dynamic_content (id)</text>
</g>
<!-- dynamic_content_stats -->
<g id="node3" class="node">
<title>dynamic_content_stats</title>
<polygon fill="#efefef" stroke="transparent" points="484,-1952.5 484,-1987.5 779,-1987.5 779,-1952.5 484,-1952.5"/>
<polygon fill="none" stroke="#000000" points="484,-1952.5 484,-1987.5 779,-1987.5 779,-1952.5 484,-1952.5"/>
<text text-anchor="start" x="490.8445" y="-1965.3" font-family="Arial Bold" font-size="18.00" fill="#000000">dynamic_content_stats</text>
<text text-anchor="start" x="674.9017" y="-1965.3" font-family="Arial" font-size="14.00" fill="#000000"> </text>
<text text-anchor="start" x="678.7923" y="-1965.3" font-family="Arial" font-size="14.00" fill="#666666">[BASE TABLE]</text>
<polygon fill="none" stroke="#000000" points="484,-1922.5 484,-1952.5 779,-1952.5 779,-1922.5 484,-1922.5"/>
<text text-anchor="start" x="491" y="-1933.9" font-family="Arial" font-size="14.00" fill="#000000">id </text>
<text text-anchor="start" x="505.7798" y="-1933.9" font-family="Arial" font-size="14.00" fill="#666666">[bigint(20) unsigned]</text>
<polygon fill="none" stroke="#000000" points="484,-1892.5 484,-1922.5 779,-1922.5 779,-1892.5 484,-1892.5"/>
<text text-anchor="start" x="491" y="-1903.9" font-family="Arial" font-size="14.00" fill="#000000">dynamic_content_id </text>
<text text-anchor="start" x="619.3716" y="-1903.9" font-family="Arial" font-size="14.00" fill="#666666">[int(10) unsigned]</text>
<polygon fill="none" stroke="#000000" points="484,-1862.5 484,-1892.5 779,-1892.5 779,-1862.5 484,-1862.5"/>
<text text-anchor="start" x="491" y="-1873.9" font-family="Arial" font-size="14.00" fill="#000000">lead_id </text>
<text text-anchor="start" x="540.0168" y="-1873.9" font-family="Arial" font-size="14.00" fill="#666666">[bigint(20) unsigned]</text>
<polygon fill="none" stroke="#000000" points="484,-1832.5 484,-1862.5 779,-1862.5 779,-1832.5 484,-1832.5"/>
<text text-anchor="start" x="491" y="-1843.9" font-family="Arial" font-size="14.00" fill="#000000">date_sent </text>
<text text-anchor="start" x="556.3674" y="-1843.9" font-family="Arial" font-size="14.00" fill="#666666">[datetime]</text>
<polygon fill="none" stroke="#000000" points="484,-1802.5 484,-1832.5 779,-1832.5 779,-1802.5 484,-1802.5"/>
<text text-anchor="start" x="491" y="-1813.9" font-family="Arial" font-size="14.00" fill="#000000">source </text>
<text text-anchor="start" x="536.899" y="-1813.9" font-family="Arial" font-size="14.00" fill="#666666">[varchar(191)]</text>
<polygon fill="none" stroke="#000000" points="484,-1772.5 484,-1802.5 779,-1802.5 779,-1772.5 484,-1772.5"/>
<text text-anchor="start" x="491" y="-1783.9" font-family="Arial" font-size="14.00" fill="#000000">source_id </text>
<text text-anchor="start" x="555.5708" y="-1783.9" font-family="Arial" font-size="14.00" fill="#666666">[int(11)]</text>
<polygon fill="none" stroke="#000000" points="484,-1742.5 484,-1772.5 779,-1772.5 779,-1742.5 484,-1742.5"/>
<text text-anchor="start" x="491" y="-1753.9" font-family="Arial" font-size="14.00" fill="#000000">tokens </text>
<text text-anchor="start" x="536.129" y="-1753.9" font-family="Arial" font-size="14.00" fill="#666666">[longtext]</text>
<polygon fill="none" stroke="#000000" points="484,-1712.5 484,-1742.5 779,-1742.5 779,-1712.5 484,-1712.5"/>
<text text-anchor="start" x="491" y="-1723.9" font-family="Arial" font-size="14.00" fill="#000000">sent_count </text>
<text text-anchor="start" x="563.3674" y="-1723.9" font-family="Arial" font-size="14.00" fill="#666666">[int(11)]</text>
<polygon fill="none" stroke="#000000" points="484,-1682.5 484,-1712.5 779,-1712.5 779,-1682.5 484,-1682.5"/>
<text text-anchor="start" x="491" y="-1693.9" font-family="Arial" font-size="14.00" fill="#000000">last_sent </text>
<text text-anchor="start" x="550.9088" y="-1693.9" font-family="Arial" font-size="14.00" fill="#666666">[datetime]</text>
<polygon fill="none" stroke="#000000" points="484,-1652.5 484,-1682.5 779,-1682.5 779,-1652.5 484,-1652.5"/>
<text text-anchor="start" x="491" y="-1663.9" font-family="Arial" font-size="14.00" fill="#000000">sent_details </text>
<text text-anchor="start" x="569.5806" y="-1663.9" font-family="Arial" font-size="14.00" fill="#666666">[longtext]</text>
</g>
<!-- dynamic_content_stats&#45;&gt;dynamic_content -->
<g id="edge4" class="edge">
<title>dynamic_content_stats:dynamic_content_id&#45;&gt;dynamic_content:id</title>
<path fill="none" stroke="#000000" d="M474.0229,-1905.4112C421.4518,-1881.7397 452.2715,-1663.8425 484,-1610 500.7659,-1581.5487 532.2341,-1602.4513 549,-1574 570.7743,-1537.0495 591.8889,-1477.5 549,-1477.5"/>
<polygon fill="#000000" stroke="#000000" points="474.2122,-1905.4507 483.0778,-1911.9045 479.1061,-1906.4754 484,-1907.5 484,-1907.5 484,-1907.5 479.1061,-1906.4754 484.9222,-1903.0955 474.2122,-1905.4507 474.2122,-1905.4507"/>
<text text-anchor="start" x="491.314" y="-1917.5" font-family="Arial" font-size="10.00" fill="#000000">FOREIGN KEY (dynamic_content_id) REFERENCES dynamic_content (id)</text>
</g>
</g>
</svg>
