<?xml version="1.0" encoding="UTF-8" standalone="no"?>
<!DOCTYPE svg PUBLIC "-//W3C//DTD SVG 1.1//EN"
 "http://www.w3.org/Graphics/SVG/1.1/DTD/svg11.dtd">
<!-- Generated by graphviz version 2.40.1 (20161225.0304)
 -->
<!-- Title: email_stats_devices Pages: 1 -->
<svg width="964pt" height="1072pt"
 viewBox="0.00 0.00 963.50 1072.00" xmlns="http://www.w3.org/2000/svg" xmlns:xlink="http://www.w3.org/1999/xlink">
<g id="graph0" class="graph" transform="scale(1 1) rotate(0) translate(4 1068)">
<title>email_stats_devices</title>
<polygon fill="#ffffff" stroke="transparent" points="-4,4 -4,-1068 959.5,-1068 959.5,4 -4,4"/>
<!-- email_stats_devices -->
<g id="node1" class="node">
<title>email_stats_devices</title>
<polygon fill="#efefef" stroke="transparent" points="352.5,-982.5 352.5,-1017.5 625.5,-1017.5 625.5,-982.5 352.5,-982.5"/>
<polygon fill="none" stroke="#000000" points="352.5,-982.5 352.5,-1017.5 625.5,-1017.5 625.5,-982.5 352.5,-982.5"/>
<text text-anchor="start" x="359.3587" y="-995.3" font-family="Arial Bold" font-size="18.00" fill="#000000">email_stats_devices</text>
<text text-anchor="start" x="521.3875" y="-995.3" font-family="Arial" font-size="14.00" fill="#000000"> </text>
<text text-anchor="start" x="525.2781" y="-995.3" font-family="Arial" font-size="14.00" fill="#666666">[BASE TABLE]</text>
<polygon fill="none" stroke="#000000" points="352.5,-952.5 352.5,-982.5 625.5,-982.5 625.5,-952.5 352.5,-952.5"/>
<text text-anchor="start" x="359.5" y="-963.9" font-family="Arial" font-size="14.00" fill="#000000">id </text>
<text text-anchor="start" x="374.2798" y="-963.9" font-family="Arial" font-size="14.00" fill="#666666">[bigint(20) unsigned]</text>
<polygon fill="none" stroke="#000000" points="352.5,-922.5 352.5,-952.5 625.5,-952.5 625.5,-922.5 352.5,-922.5"/>
<text text-anchor="start" x="359.5" y="-933.9" font-family="Arial" font-size="14.00" fill="#000000">device_id </text>
<text text-anchor="start" x="422.5168" y="-933.9" font-family="Arial" font-size="14.00" fill="#666666">[bigint(20) unsigned]</text>
<polygon fill="none" stroke="#000000" points="352.5,-892.5 352.5,-922.5 625.5,-922.5 625.5,-892.5 352.5,-892.5"/>
<text text-anchor="start" x="359.5" y="-903.9" font-family="Arial" font-size="14.00" fill="#000000">stat_id </text>
<text text-anchor="start" x="404.6262" y="-903.9" font-family="Arial" font-size="14.00" fill="#666666">[bigint(20) unsigned]</text>
<polygon fill="none" stroke="#000000" points="352.5,-862.5 352.5,-892.5 625.5,-892.5 625.5,-862.5 352.5,-862.5"/>
<text text-anchor="start" x="359.5" y="-873.9" font-family="Arial" font-size="14.00" fill="#000000">ip_id </text>
<text text-anchor="start" x="392.9516" y="-873.9" font-family="Arial" font-size="14.00" fill="#666666">[int(10) unsigned]</text>
<polygon fill="none" stroke="#000000" points="352.5,-832.5 352.5,-862.5 625.5,-862.5 625.5,-832.5 352.5,-832.5"/>
<text text-anchor="start" x="359.5" y="-843.9" font-family="Arial" font-size="14.00" fill="#000000">date_opened </text>
<text text-anchor="start" x="445.1072" y="-843.9" font-family="Arial" font-size="14.00" fill="#666666">[datetime]</text>
<polygon fill="none" stroke="#000000" stroke-width="3" points="350.5,-831.5 350.5,-1019.5 626.5,-1019.5 626.5,-831.5 350.5,-831.5"/>
</g>
<!-- lead_devices -->
<g id="node2" class="node">
<title>lead_devices</title>
<polygon fill="#efefef" stroke="transparent" points="43.5,-537.5 43.5,-572.5 284.5,-572.5 284.5,-537.5 43.5,-537.5"/>
<polygon fill="none" stroke="#000000" points="43.5,-537.5 43.5,-572.5 284.5,-572.5 284.5,-537.5 43.5,-537.5"/>
<text text-anchor="start" x="62.8572" y="-550.3" font-family="Arial Bold" font-size="18.00" fill="#000000">lead_devices</text>
<text text-anchor="start" x="167.889" y="-550.3" font-family="Arial" font-size="14.00" fill="#000000"> </text>
<text text-anchor="start" x="171.7796" y="-550.3" font-family="Arial" font-size="14.00" fill="#666666">[BASE TABLE]</text>
<polygon fill="none" stroke="#000000" points="43.5,-507.5 43.5,-537.5 284.5,-537.5 284.5,-507.5 43.5,-507.5"/>
<text text-anchor="start" x="50.5" y="-518.9" font-family="Arial" font-size="14.00" fill="#000000">id </text>
<text text-anchor="start" x="65.2798" y="-518.9" font-family="Arial" font-size="14.00" fill="#666666">[bigint(20) unsigned]</text>
<polygon fill="none" stroke="#000000" points="43.5,-477.5 43.5,-507.5 284.5,-507.5 284.5,-477.5 43.5,-477.5"/>
<text text-anchor="start" x="50.5" y="-488.9" font-family="Arial" font-size="14.00" fill="#000000">lead_id </text>
<text text-anchor="start" x="99.5168" y="-488.9" font-family="Arial" font-size="14.00" fill="#666666">[bigint(20) unsigned]</text>
<polygon fill="none" stroke="#000000" points="43.5,-447.5 43.5,-477.5 284.5,-477.5 284.5,-447.5 43.5,-447.5"/>
<text text-anchor="start" x="50.5" y="-458.9" font-family="Arial" font-size="14.00" fill="#000000">date_added </text>
<text text-anchor="start" x="128.3246" y="-458.9" font-family="Arial" font-size="14.00" fill="#666666">[datetime]</text>
<polygon fill="none" stroke="#000000" points="43.5,-417.5 43.5,-447.5 284.5,-447.5 284.5,-417.5 43.5,-417.5"/>
<text text-anchor="start" x="50.5" y="-428.9" font-family="Arial" font-size="14.00" fill="#000000">client_info </text>
<text text-anchor="start" x="117.4046" y="-428.9" font-family="Arial" font-size="14.00" fill="#666666">[longtext]</text>
<polygon fill="none" stroke="#000000" points="43.5,-387.5 43.5,-417.5 284.5,-417.5 284.5,-387.5 43.5,-387.5"/>
<text text-anchor="start" x="50.5" y="-398.9" font-family="Arial" font-size="14.00" fill="#000000">device </text>
<text text-anchor="start" x="94.845" y="-398.9" font-family="Arial" font-size="14.00" fill="#666666">[varchar(191)]</text>
<polygon fill="none" stroke="#000000" points="43.5,-357.5 43.5,-387.5 284.5,-387.5 284.5,-357.5 43.5,-357.5"/>
<text text-anchor="start" x="50.5" y="-368.9" font-family="Arial" font-size="14.00" fill="#000000">device_os_name </text>
<text text-anchor="start" x="160.2012" y="-368.9" font-family="Arial" font-size="14.00" fill="#666666">[varchar(191)]</text>
<polygon fill="none" stroke="#000000" points="43.5,-327.5 43.5,-357.5 284.5,-357.5 284.5,-327.5 43.5,-327.5"/>
<text text-anchor="start" x="50.0316" y="-338.9" font-family="Arial" font-size="14.00" fill="#000000">device_os_shortname </text>
<text text-anchor="start" x="190.8492" y="-338.9" font-family="Arial" font-size="14.00" fill="#666666">[varchar(191)]</text>
<polygon fill="none" stroke="#000000" points="43.5,-297.5 43.5,-327.5 284.5,-327.5 284.5,-297.5 43.5,-297.5"/>
<text text-anchor="start" x="50.5" y="-308.9" font-family="Arial" font-size="14.00" fill="#000000">device_os_version </text>
<text text-anchor="start" x="170.3078" y="-308.9" font-family="Arial" font-size="14.00" fill="#666666">[varchar(191)]</text>
<polygon fill="none" stroke="#000000" points="43.5,-267.5 43.5,-297.5 284.5,-297.5 284.5,-267.5 43.5,-267.5"/>
<text text-anchor="start" x="50.5" y="-278.9" font-family="Arial" font-size="14.00" fill="#000000">device_os_platform </text>
<text text-anchor="start" x="175.7496" y="-278.9" font-family="Arial" font-size="14.00" fill="#666666">[varchar(191)]</text>
<polygon fill="none" stroke="#000000" points="43.5,-237.5 43.5,-267.5 284.5,-267.5 284.5,-237.5 43.5,-237.5"/>
<text text-anchor="start" x="50.5" y="-248.9" font-family="Arial" font-size="14.00" fill="#000000">device_brand </text>
<text text-anchor="start" x="138.4186" y="-248.9" font-family="Arial" font-size="14.00" fill="#666666">[varchar(191)]</text>
<polygon fill="none" stroke="#000000" points="43.5,-207.5 43.5,-237.5 284.5,-237.5 284.5,-207.5 43.5,-207.5"/>
<text text-anchor="start" x="50.5" y="-218.9" font-family="Arial" font-size="14.00" fill="#000000">device_model </text>
<text text-anchor="start" x="140.7426" y="-218.9" font-family="Arial" font-size="14.00" fill="#666666">[varchar(191)]</text>
<polygon fill="none" stroke="#000000" points="43.5,-177.5 43.5,-207.5 284.5,-207.5 284.5,-177.5 43.5,-177.5"/>
<text text-anchor="start" x="50.5" y="-188.9" font-family="Arial" font-size="14.00" fill="#000000">tracking_id </text>
<text text-anchor="start" x="122.068" y="-188.9" font-family="Arial" font-size="14.00" fill="#666666">[varchar(191)]</text>
</g>
<!-- email_stats_devices&#45;&gt;lead_devices -->
<g id="edge1" class="edge">
<title>email_stats_devices:device_id&#45;&gt;lead_devices:id</title>
<path fill="none" stroke="#000000" d="M342.4954,-935.6498C268.0133,-905.7114 374.3016,-522.5 284.5,-522.5"/>
<polygon fill="#000000" stroke="#000000" points="342.6667,-935.6814 351.6816,-941.925 347.5834,-936.5907 352.5,-937.5 352.5,-937.5 352.5,-937.5 347.5834,-936.5907 353.3184,-933.075 342.6667,-935.6814 342.6667,-935.6814"/>
<text text-anchor="start" x="76.7685" y="-947.5" font-family="Arial" font-size="10.00" fill="#000000">FOREIGN KEY (device_id) REFERENCES lead_devices (id)</text>
</g>
<!-- email_stats -->
<g id="node3" class="node">
<title>email_stats</title>
<polygon fill="#efefef" stroke="transparent" points="388.5,-672.5 388.5,-707.5 590.5,-707.5 590.5,-672.5 388.5,-672.5"/>
<polygon fill="none" stroke="#000000" points="388.5,-672.5 388.5,-707.5 590.5,-707.5 590.5,-672.5 388.5,-672.5"/>
<text text-anchor="start" x="395.3682" y="-685.3" font-family="Arial Bold" font-size="18.00" fill="#000000">email_stats</text>
<text text-anchor="start" x="486.378" y="-685.3" font-family="Arial" font-size="14.00" fill="#000000"> </text>
<text text-anchor="start" x="490.2686" y="-685.3" font-family="Arial" font-size="14.00" fill="#666666">[BASE TABLE]</text>
<polygon fill="none" stroke="#000000" points="388.5,-642.5 388.5,-672.5 590.5,-672.5 590.5,-642.5 388.5,-642.5"/>
<text text-anchor="start" x="395.5" y="-653.9" font-family="Arial" font-size="14.00" fill="#000000">id </text>
<text text-anchor="start" x="410.2798" y="-653.9" font-family="Arial" font-size="14.00" fill="#666666">[bigint(20) unsigned]</text>
<polygon fill="none" stroke="#000000" points="388.5,-612.5 388.5,-642.5 590.5,-642.5 590.5,-612.5 388.5,-612.5"/>
<text text-anchor="start" x="395.5" y="-623.9" font-family="Arial" font-size="14.00" fill="#000000">email_id </text>
<text text-anchor="start" x="451.5014" y="-623.9" font-family="Arial" font-size="14.00" fill="#666666">[int(10) unsigned]</text>
<polygon fill="none" stroke="#000000" points="388.5,-582.5 388.5,-612.5 590.5,-612.5 590.5,-582.5 388.5,-582.5"/>
<text text-anchor="start" x="395.5" y="-593.9" font-family="Arial" font-size="14.00" fill="#000000">lead_id </text>
<text text-anchor="start" x="444.5168" y="-593.9" font-family="Arial" font-size="14.00" fill="#666666">[bigint(20) unsigned]</text>
<polygon fill="none" stroke="#000000" points="388.5,-552.5 388.5,-582.5 590.5,-582.5 590.5,-552.5 388.5,-552.5"/>
<text text-anchor="start" x="395.5" y="-563.9" font-family="Arial" font-size="14.00" fill="#000000">list_id </text>
<text text-anchor="start" x="435.1662" y="-563.9" font-family="Arial" font-size="14.00" fill="#666666">[int(10) unsigned]</text>
<polygon fill="none" stroke="#000000" points="388.5,-522.5 388.5,-552.5 590.5,-552.5 590.5,-522.5 388.5,-522.5"/>
<text text-anchor="start" x="395.5" y="-533.9" font-family="Arial" font-size="14.00" fill="#000000">ip_id </text>
<text text-anchor="start" x="428.9516" y="-533.9" font-family="Arial" font-size="14.00" fill="#666666">[int(10) unsigned]</text>
<polygon fill="none" stroke="#000000" points="388.5,-492.5 388.5,-522.5 590.5,-522.5 590.5,-492.5 388.5,-492.5"/>
<text text-anchor="start" x="395.5" y="-503.9" font-family="Arial" font-size="14.00" fill="#000000">copy_id </text>
<text text-anchor="start" x="447.6276" y="-503.9" font-family="Arial" font-size="14.00" fill="#666666">[varchar(32)]</text>
<polygon fill="none" stroke="#000000" points="388.5,-462.5 388.5,-492.5 590.5,-492.5 590.5,-462.5 388.5,-462.5"/>
<text text-anchor="start" x="395.5" y="-473.9" font-family="Arial" font-size="14.00" fill="#000000">email_address </text>
<text text-anchor="start" x="490.4032" y="-473.9" font-family="Arial" font-size="14.00" fill="#666666">[varchar(191)]</text>
<polygon fill="none" stroke="#000000" points="388.5,-432.5 388.5,-462.5 590.5,-462.5 590.5,-432.5 388.5,-432.5"/>
<text text-anchor="start" x="395.5" y="-443.9" font-family="Arial" font-size="14.00" fill="#000000">date_sent </text>
<text text-anchor="start" x="460.8674" y="-443.9" font-family="Arial" font-size="14.00" fill="#666666">[datetime]</text>
<polygon fill="none" stroke="#000000" points="388.5,-402.5 388.5,-432.5 590.5,-432.5 590.5,-402.5 388.5,-402.5"/>
<text text-anchor="start" x="395.5" y="-413.9" font-family="Arial" font-size="14.00" fill="#000000">is_read </text>
<text text-anchor="start" x="445.2882" y="-413.9" font-family="Arial" font-size="14.00" fill="#666666">[tinyint(1)]</text>
<polygon fill="none" stroke="#000000" points="388.5,-372.5 388.5,-402.5 590.5,-402.5 590.5,-372.5 388.5,-372.5"/>
<text text-anchor="start" x="395.5" y="-383.9" font-family="Arial" font-size="14.00" fill="#000000">is_failed </text>
<text text-anchor="start" x="450.7314" y="-383.9" font-family="Arial" font-size="14.00" fill="#666666">[tinyint(1)]</text>
<polygon fill="none" stroke="#000000" points="388.5,-342.5 388.5,-372.5 590.5,-372.5 590.5,-342.5 388.5,-342.5"/>
<text text-anchor="start" x="395.5" y="-353.9" font-family="Arial" font-size="14.00" fill="#000000">viewed_in_browser </text>
<text text-anchor="start" x="519.1816" y="-353.9" font-family="Arial" font-size="14.00" fill="#666666">[tinyint(1)]</text>
<polygon fill="none" stroke="#000000" points="388.5,-312.5 388.5,-342.5 590.5,-342.5 590.5,-312.5 388.5,-312.5"/>
<text text-anchor="start" x="395.5" y="-323.9" font-family="Arial" font-size="14.00" fill="#000000">date_read </text>
<text text-anchor="start" x="462.42" y="-323.9" font-family="Arial" font-size="14.00" fill="#666666">[datetime]</text>
<polygon fill="none" stroke="#000000" points="388.5,-282.5 388.5,-312.5 590.5,-312.5 590.5,-282.5 388.5,-282.5"/>
<text text-anchor="start" x="395.5" y="-293.9" font-family="Arial" font-size="14.00" fill="#000000">tracking_hash </text>
<text text-anchor="start" x="486.5266" y="-293.9" font-family="Arial" font-size="14.00" fill="#666666">[varchar(191)]</text>
<polygon fill="none" stroke="#000000" points="388.5,-252.5 388.5,-282.5 590.5,-282.5 590.5,-252.5 388.5,-252.5"/>
<text text-anchor="start" x="395.5" y="-263.9" font-family="Arial" font-size="14.00" fill="#000000">retry_count </text>
<text text-anchor="start" x="469.406" y="-263.9" font-family="Arial" font-size="14.00" fill="#666666">[int(11)]</text>
<polygon fill="none" stroke="#000000" points="388.5,-222.5 388.5,-252.5 590.5,-252.5 590.5,-222.5 388.5,-222.5"/>
<text text-anchor="start" x="395.5" y="-233.9" font-family="Arial" font-size="14.00" fill="#000000">source </text>
<text text-anchor="start" x="441.399" y="-233.9" font-family="Arial" font-size="14.00" fill="#666666">[varchar(191)]</text>
<polygon fill="none" stroke="#000000" points="388.5,-192.5 388.5,-222.5 590.5,-222.5 590.5,-192.5 388.5,-192.5"/>
<text text-anchor="start" x="395.5" y="-203.9" font-family="Arial" font-size="14.00" fill="#000000">source_id </text>
<text text-anchor="start" x="460.0708" y="-203.9" font-family="Arial" font-size="14.00" fill="#666666">[int(11)]</text>
<polygon fill="none" stroke="#000000" points="388.5,-162.5 388.5,-192.5 590.5,-192.5 590.5,-162.5 388.5,-162.5"/>
<text text-anchor="start" x="395.5" y="-173.9" font-family="Arial" font-size="14.00" fill="#000000">tokens </text>
<text text-anchor="start" x="440.629" y="-173.9" font-family="Arial" font-size="14.00" fill="#666666">[longtext]</text>
<polygon fill="none" stroke="#000000" points="388.5,-132.5 388.5,-162.5 590.5,-162.5 590.5,-132.5 388.5,-132.5"/>
<text text-anchor="start" x="395.5" y="-143.9" font-family="Arial" font-size="14.00" fill="#000000">open_count </text>
<text text-anchor="start" x="472.542" y="-143.9" font-family="Arial" font-size="14.00" fill="#666666">[int(11)]</text>
<polygon fill="none" stroke="#000000" points="388.5,-102.5 388.5,-132.5 590.5,-132.5 590.5,-102.5 388.5,-102.5"/>
<text text-anchor="start" x="395.5" y="-113.9" font-family="Arial" font-size="14.00" fill="#000000">last_opened </text>
<text text-anchor="start" x="475.6486" y="-113.9" font-family="Arial" font-size="14.00" fill="#666666">[datetime]</text>
<polygon fill="none" stroke="#000000" points="388.5,-72.5 388.5,-102.5 590.5,-102.5 590.5,-72.5 388.5,-72.5"/>
<text text-anchor="start" x="395.5" y="-83.9" font-family="Arial" font-size="14.00" fill="#000000">open_details </text>
<text text-anchor="start" x="478.7552" y="-83.9" font-family="Arial" font-size="14.00" fill="#666666">[longtext]</text>
<polygon fill="none" stroke="#000000" points="388.5,-42.5 388.5,-72.5 590.5,-72.5 590.5,-42.5 388.5,-42.5"/>
<text text-anchor="start" x="395.5" y="-53.9" font-family="Arial" font-size="14.00" fill="#000000">generated_sent_date </text>
<text text-anchor="start" x="531.6794" y="-53.9" font-family="Arial" font-size="14.00" fill="#666666">[date]</text>
</g>
<!-- email_stats_devices&#45;&gt;email_stats -->
<g id="edge2" class="edge">
<title>email_stats_devices:stat_id&#45;&gt;email_stats:id</title>
<path fill="none" stroke="#000000" d="M635.4888,-906.4181C676.4304,-896.7616 658.0239,-824.8373 625.5,-787 556.0506,-706.2047 457.9494,-831.7953 388.5,-751 361.4119,-719.4865 346.9444,-657.5 388.5,-657.5"/>
<polygon fill="#000000" stroke="#000000" points="635.4419,-906.4231 625.0154,-903.0262 630.4709,-906.9616 625.5,-907.5 625.5,-907.5 625.5,-907.5 630.4709,-906.9616 625.9846,-911.9738 635.4419,-906.4231 635.4419,-906.4231"/>
<text text-anchor="start" x="632.053" y="-917.5" font-family="Arial" font-size="10.00" fill="#000000">FOREIGN KEY (stat_id) REFERENCES email_stats (id)</text>
</g>
<!-- ip_addresses -->
<g id="node4" class="node">
<title>ip_addresses</title>
<polygon fill="#efefef" stroke="transparent" points="694.5,-402.5 694.5,-437.5 912.5,-437.5 912.5,-402.5 694.5,-402.5"/>
<polygon fill="none" stroke="#000000" points="694.5,-402.5 694.5,-437.5 912.5,-437.5 912.5,-402.5 694.5,-402.5"/>
<text text-anchor="start" x="701.3582" y="-415.3" font-family="Arial Bold" font-size="18.00" fill="#000000">ip_addresses</text>
<text text-anchor="start" x="808.388" y="-415.3" font-family="Arial" font-size="14.00" fill="#000000"> </text>
<text text-anchor="start" x="812.2786" y="-415.3" font-family="Arial" font-size="14.00" fill="#666666">[BASE TABLE]</text>
<polygon fill="none" stroke="#000000" points="694.5,-372.5 694.5,-402.5 912.5,-402.5 912.5,-372.5 694.5,-372.5"/>
<text text-anchor="start" x="701.5" y="-383.9" font-family="Arial" font-size="14.00" fill="#000000">id </text>
<text text-anchor="start" x="716.2798" y="-383.9" font-family="Arial" font-size="14.00" fill="#666666">[int(10) unsigned]</text>
<polygon fill="none" stroke="#000000" points="694.5,-342.5 694.5,-372.5 912.5,-372.5 912.5,-342.5 694.5,-342.5"/>
<text text-anchor="start" x="701.5" y="-353.9" font-family="Arial" font-size="14.00" fill="#000000">ip_address </text>
<text text-anchor="start" x="773.8534" y="-353.9" font-family="Arial" font-size="14.00" fill="#666666">[varchar(45)]</text>
<polygon fill="none" stroke="#000000" points="694.5,-312.5 694.5,-342.5 912.5,-342.5 912.5,-312.5 694.5,-312.5"/>
<text text-anchor="start" x="701.5" y="-323.9" font-family="Arial" font-size="14.00" fill="#000000">ip_details </text>
<text text-anchor="start" x="764.514" y="-323.9" font-family="Arial" font-size="14.00" fill="#666666">[longtext]</text>
</g>
<!-- email_stats_devices&#45;&gt;ip_addresses -->
<g id="edge3" class="edge">
<title>email_stats_devices:ip_id&#45;&gt;ip_addresses:id</title>
<path fill="none" stroke="#000000" d="M635.6096,-875.9153C725.7283,-845.5011 588.1879,-387.5 694.5,-387.5"/>
<polygon fill="#000000" stroke="#000000" points="635.3794,-875.9513 624.8031,-873.0543 630.4397,-876.7256 625.5,-877.5 625.5,-877.5 625.5,-877.5 630.4397,-876.7256 626.1969,-881.9457 635.3794,-875.9513 635.3794,-875.9513"/>
<text text-anchor="start" x="632.7725" y="-887.5" font-family="Arial" font-size="10.00" fill="#000000">FOREIGN KEY (ip_id) REFERENCES ip_addresses (id)</text>
</g>
</g>
</svg>
