<?xml version="1.0" encoding="UTF-8" standalone="no"?>
<!DOCTYPE svg PUBLIC "-//W3C//DTD SVG 1.1//EN"
 "http://www.w3.org/Graphics/SVG/1.1/DTD/svg11.dtd">
<!-- Generated by graphviz version 2.40.1 (20161225.0304)
 -->
<!-- Title: email_copies Pages: 1 -->
<svg width="538pt" height="1042pt"
 viewBox="0.00 0.00 538.00 1042.00" xmlns="http://www.w3.org/2000/svg" xmlns:xlink="http://www.w3.org/1999/xlink">
<g id="graph0" class="graph" transform="scale(1 1) rotate(0) translate(4 1038)">
<title>email_copies</title>
<polygon fill="#ffffff" stroke="transparent" points="-4,4 -4,-1038 534,-1038 534,4 -4,4"/>
<!-- email_copies -->
<g id="node1" class="node">
<title>email_copies</title>
<polygon fill="#efefef" stroke="transparent" points="46,-165.5 46,-200.5 262,-200.5 262,-165.5 46,-165.5"/>
<polygon fill="none" stroke="#000000" points="46,-165.5 46,-200.5 262,-200.5 262,-165.5 46,-165.5"/>
<text text-anchor="start" x="52.8671" y="-178.3" font-family="Arial Bold" font-size="18.00" fill="#000000">email_copies</text>
<text text-anchor="start" x="157.8791" y="-178.3" font-family="Arial" font-size="14.00" fill="#000000"> </text>
<text text-anchor="start" x="161.7697" y="-178.3" font-family="Arial" font-size="14.00" fill="#666666">[BASE TABLE]</text>
<polygon fill="none" stroke="#000000" points="46,-135.5 46,-165.5 262,-165.5 262,-135.5 46,-135.5"/>
<text text-anchor="start" x="53" y="-146.9" font-family="Arial" font-size="14.00" fill="#000000">id </text>
<text text-anchor="start" x="67.7798" y="-146.9" font-family="Arial" font-size="14.00" fill="#666666">[varchar(32)]</text>
<polygon fill="none" stroke="#000000" points="46,-105.5 46,-135.5 262,-135.5 262,-105.5 46,-105.5"/>
<text text-anchor="start" x="53" y="-116.9" font-family="Arial" font-size="14.00" fill="#000000">date_created </text>
<text text-anchor="start" x="138.5932" y="-116.9" font-family="Arial" font-size="14.00" fill="#666666">[datetime]</text>
<polygon fill="none" stroke="#000000" points="46,-75.5 46,-105.5 262,-105.5 262,-75.5 46,-75.5"/>
<text text-anchor="start" x="53" y="-86.9" font-family="Arial" font-size="14.00" fill="#000000">body </text>
<text text-anchor="start" x="87.2384" y="-86.9" font-family="Arial" font-size="14.00" fill="#666666">[longtext]</text>
<polygon fill="none" stroke="#000000" points="46,-45.5 46,-75.5 262,-75.5 262,-45.5 46,-45.5"/>
<text text-anchor="start" x="53" y="-56.9" font-family="Arial" font-size="14.00" fill="#000000">subject </text>
<text text-anchor="start" x="101.2356" y="-56.9" font-family="Arial" font-size="14.00" fill="#666666">[longtext]</text>
<polygon fill="none" stroke="#000000" stroke-width="3" points="44.5,-44.5 44.5,-202.5 263.5,-202.5 263.5,-44.5 44.5,-44.5"/>
</g>
<!-- email_stats -->
<g id="node2" class="node">
<title>email_stats</title>
<polygon fill="#efefef" stroke="transparent" points="53,-955.5 53,-990.5 255,-990.5 255,-955.5 53,-955.5"/>
<polygon fill="none" stroke="#000000" points="53,-955.5 53,-990.5 255,-990.5 255,-955.5 53,-955.5"/>
<text text-anchor="start" x="59.8682" y="-968.3" font-family="Arial Bold" font-size="18.00" fill="#000000">email_stats</text>
<text text-anchor="start" x="150.878" y="-968.3" font-family="Arial" font-size="14.00" fill="#000000"> </text>
<text text-anchor="start" x="154.7686" y="-968.3" font-family="Arial" font-size="14.00" fill="#666666">[BASE TABLE]</text>
<polygon fill="none" stroke="#000000" points="53,-925.5 53,-955.5 255,-955.5 255,-925.5 53,-925.5"/>
<text text-anchor="start" x="60" y="-936.9" font-family="Arial" font-size="14.00" fill="#000000">id </text>
<text text-anchor="start" x="74.7798" y="-936.9" font-family="Arial" font-size="14.00" fill="#666666">[bigint(20) unsigned]</text>
<polygon fill="none" stroke="#000000" points="53,-895.5 53,-925.5 255,-925.5 255,-895.5 53,-895.5"/>
<text text-anchor="start" x="60" y="-906.9" font-family="Arial" font-size="14.00" fill="#000000">email_id </text>
<text text-anchor="start" x="116.0014" y="-906.9" font-family="Arial" font-size="14.00" fill="#666666">[int(10) unsigned]</text>
<polygon fill="none" stroke="#000000" points="53,-865.5 53,-895.5 255,-895.5 255,-865.5 53,-865.5"/>
<text text-anchor="start" x="60" y="-876.9" font-family="Arial" font-size="14.00" fill="#000000">lead_id </text>
<text text-anchor="start" x="109.0168" y="-876.9" font-family="Arial" font-size="14.00" fill="#666666">[bigint(20) unsigned]</text>
<polygon fill="none" stroke="#000000" points="53,-835.5 53,-865.5 255,-865.5 255,-835.5 53,-835.5"/>
<text text-anchor="start" x="60" y="-846.9" font-family="Arial" font-size="14.00" fill="#000000">list_id </text>
<text text-anchor="start" x="99.6662" y="-846.9" font-family="Arial" font-size="14.00" fill="#666666">[int(10) unsigned]</text>
<polygon fill="none" stroke="#000000" points="53,-805.5 53,-835.5 255,-835.5 255,-805.5 53,-805.5"/>
<text text-anchor="start" x="60" y="-816.9" font-family="Arial" font-size="14.00" fill="#000000">ip_id </text>
<text text-anchor="start" x="93.4516" y="-816.9" font-family="Arial" font-size="14.00" fill="#666666">[int(10) unsigned]</text>
<polygon fill="none" stroke="#000000" points="53,-775.5 53,-805.5 255,-805.5 255,-775.5 53,-775.5"/>
<text text-anchor="start" x="60" y="-786.9" font-family="Arial" font-size="14.00" fill="#000000">copy_id </text>
<text text-anchor="start" x="112.1276" y="-786.9" font-family="Arial" font-size="14.00" fill="#666666">[varchar(32)]</text>
<polygon fill="none" stroke="#000000" points="53,-745.5 53,-775.5 255,-775.5 255,-745.5 53,-745.5"/>
<text text-anchor="start" x="60" y="-756.9" font-family="Arial" font-size="14.00" fill="#000000">email_address </text>
<text text-anchor="start" x="154.9032" y="-756.9" font-family="Arial" font-size="14.00" fill="#666666">[varchar(191)]</text>
<polygon fill="none" stroke="#000000" points="53,-715.5 53,-745.5 255,-745.5 255,-715.5 53,-715.5"/>
<text text-anchor="start" x="60" y="-726.9" font-family="Arial" font-size="14.00" fill="#000000">date_sent </text>
<text text-anchor="start" x="125.3674" y="-726.9" font-family="Arial" font-size="14.00" fill="#666666">[datetime]</text>
<polygon fill="none" stroke="#000000" points="53,-685.5 53,-715.5 255,-715.5 255,-685.5 53,-685.5"/>
<text text-anchor="start" x="60" y="-696.9" font-family="Arial" font-size="14.00" fill="#000000">is_read </text>
<text text-anchor="start" x="109.7882" y="-696.9" font-family="Arial" font-size="14.00" fill="#666666">[tinyint(1)]</text>
<polygon fill="none" stroke="#000000" points="53,-655.5 53,-685.5 255,-685.5 255,-655.5 53,-655.5"/>
<text text-anchor="start" x="60" y="-666.9" font-family="Arial" font-size="14.00" fill="#000000">is_failed </text>
<text text-anchor="start" x="115.2314" y="-666.9" font-family="Arial" font-size="14.00" fill="#666666">[tinyint(1)]</text>
<polygon fill="none" stroke="#000000" points="53,-625.5 53,-655.5 255,-655.5 255,-625.5 53,-625.5"/>
<text text-anchor="start" x="60" y="-636.9" font-family="Arial" font-size="14.00" fill="#000000">viewed_in_browser </text>
<text text-anchor="start" x="183.6816" y="-636.9" font-family="Arial" font-size="14.00" fill="#666666">[tinyint(1)]</text>
<polygon fill="none" stroke="#000000" points="53,-595.5 53,-625.5 255,-625.5 255,-595.5 53,-595.5"/>
<text text-anchor="start" x="60" y="-606.9" font-family="Arial" font-size="14.00" fill="#000000">date_read </text>
<text text-anchor="start" x="126.92" y="-606.9" font-family="Arial" font-size="14.00" fill="#666666">[datetime]</text>
<polygon fill="none" stroke="#000000" points="53,-565.5 53,-595.5 255,-595.5 255,-565.5 53,-565.5"/>
<text text-anchor="start" x="60" y="-576.9" font-family="Arial" font-size="14.00" fill="#000000">tracking_hash </text>
<text text-anchor="start" x="151.0266" y="-576.9" font-family="Arial" font-size="14.00" fill="#666666">[varchar(191)]</text>
<polygon fill="none" stroke="#000000" points="53,-535.5 53,-565.5 255,-565.5 255,-535.5 53,-535.5"/>
<text text-anchor="start" x="60" y="-546.9" font-family="Arial" font-size="14.00" fill="#000000">retry_count </text>
<text text-anchor="start" x="133.906" y="-546.9" font-family="Arial" font-size="14.00" fill="#666666">[int(11)]</text>
<polygon fill="none" stroke="#000000" points="53,-505.5 53,-535.5 255,-535.5 255,-505.5 53,-505.5"/>
<text text-anchor="start" x="60" y="-516.9" font-family="Arial" font-size="14.00" fill="#000000">source </text>
<text text-anchor="start" x="105.899" y="-516.9" font-family="Arial" font-size="14.00" fill="#666666">[varchar(191)]</text>
<polygon fill="none" stroke="#000000" points="53,-475.5 53,-505.5 255,-505.5 255,-475.5 53,-475.5"/>
<text text-anchor="start" x="60" y="-486.9" font-family="Arial" font-size="14.00" fill="#000000">source_id </text>
<text text-anchor="start" x="124.5708" y="-486.9" font-family="Arial" font-size="14.00" fill="#666666">[int(11)]</text>
<polygon fill="none" stroke="#000000" points="53,-445.5 53,-475.5 255,-475.5 255,-445.5 53,-445.5"/>
<text text-anchor="start" x="60" y="-456.9" font-family="Arial" font-size="14.00" fill="#000000">tokens </text>
<text text-anchor="start" x="105.129" y="-456.9" font-family="Arial" font-size="14.00" fill="#666666">[longtext]</text>
<polygon fill="none" stroke="#000000" points="53,-415.5 53,-445.5 255,-445.5 255,-415.5 53,-415.5"/>
<text text-anchor="start" x="60" y="-426.9" font-family="Arial" font-size="14.00" fill="#000000">open_count </text>
<text text-anchor="start" x="137.042" y="-426.9" font-family="Arial" font-size="14.00" fill="#666666">[int(11)]</text>
<polygon fill="none" stroke="#000000" points="53,-385.5 53,-415.5 255,-415.5 255,-385.5 53,-385.5"/>
<text text-anchor="start" x="60" y="-396.9" font-family="Arial" font-size="14.00" fill="#000000">last_opened </text>
<text text-anchor="start" x="140.1486" y="-396.9" font-family="Arial" font-size="14.00" fill="#666666">[datetime]</text>
<polygon fill="none" stroke="#000000" points="53,-355.5 53,-385.5 255,-385.5 255,-355.5 53,-355.5"/>
<text text-anchor="start" x="60" y="-366.9" font-family="Arial" font-size="14.00" fill="#000000">open_details </text>
<text text-anchor="start" x="143.2552" y="-366.9" font-family="Arial" font-size="14.00" fill="#666666">[longtext]</text>
<polygon fill="none" stroke="#000000" points="53,-325.5 53,-355.5 255,-355.5 255,-325.5 53,-325.5"/>
<text text-anchor="start" x="60" y="-336.9" font-family="Arial" font-size="14.00" fill="#000000">generated_sent_date </text>
<text text-anchor="start" x="196.1794" y="-336.9" font-family="Arial" font-size="14.00" fill="#666666">[date]</text>
</g>
<!-- email_stats&#45;&gt;email_copies -->
<g id="edge1" class="edge">
<title>email_stats:copy_id&#45;&gt;email_copies:id</title>
<path fill="none" stroke="#000000" d="M264.5765,-786.4131C326.6,-731.9063 329.7818,-150.5 262,-150.5"/>
<polygon fill="#000000" stroke="#000000" points="264.1975,-786.5748 253.2337,-786.3611 259.5987,-788.5374 255,-790.5 255,-790.5 255,-790.5 259.5987,-788.5374 256.7663,-794.6389 264.1975,-786.5748 264.1975,-786.5748"/>
<text text-anchor="start" x="262.163" y="-800.5" font-family="Arial" font-size="10.00" fill="#000000">FOREIGN KEY (copy_id) REFERENCES email_copies (id)</text>
</g>
</g>
</svg>
