<?xml version="1.0" encoding="UTF-8" standalone="no"?>
<!DOCTYPE svg PUBLIC "-//W3C//DTD SVG 1.1//EN"
 "http://www.w3.org/Graphics/SVG/1.1/DTD/svg11.dtd">
<!-- Generated by graphviz version 2.40.1 (20161225.0304)
 -->
<!-- Title: email_list_xref Pages: 1 -->
<svg width="751pt" height="1642pt"
 viewBox="0.00 0.00 751.00 1642.00" xmlns="http://www.w3.org/2000/svg" xmlns:xlink="http://www.w3.org/1999/xlink">
<g id="graph0" class="graph" transform="scale(1 1) rotate(0) translate(4 1638)">
<title>email_list_xref</title>
<polygon fill="#ffffff" stroke="transparent" points="-4,4 -4,-1638 747,-1638 747,4 -4,4"/>
<!-- email_list_xref -->
<g id="node1" class="node">
<title>email_list_xref</title>
<polygon fill="#efefef" stroke="transparent" points="248,-1552.5 248,-1587.5 474,-1587.5 474,-1552.5 248,-1552.5"/>
<polygon fill="none" stroke="#000000" points="248,-1552.5 248,-1587.5 474,-1587.5 474,-1552.5 248,-1552.5"/>
<text text-anchor="start" x="254.8748" y="-1565.3" font-family="Arial Bold" font-size="18.00" fill="#000000">email_list_xref</text>
<text text-anchor="start" x="369.8714" y="-1565.3" font-family="Arial" font-size="14.00" fill="#000000"> </text>
<text text-anchor="start" x="373.762" y="-1565.3" font-family="Arial" font-size="14.00" fill="#666666">[BASE TABLE]</text>
<polygon fill="none" stroke="#000000" points="248,-1522.5 248,-1552.5 474,-1552.5 474,-1522.5 248,-1522.5"/>
<text text-anchor="start" x="255" y="-1533.9" font-family="Arial" font-size="14.00" fill="#000000">email_id </text>
<text text-anchor="start" x="311.0014" y="-1533.9" font-family="Arial" font-size="14.00" fill="#666666">[int(10) unsigned]</text>
<polygon fill="none" stroke="#000000" points="248,-1492.5 248,-1522.5 474,-1522.5 474,-1492.5 248,-1492.5"/>
<text text-anchor="start" x="255" y="-1503.9" font-family="Arial" font-size="14.00" fill="#000000">leadlist_id </text>
<text text-anchor="start" x="321.1206" y="-1503.9" font-family="Arial" font-size="14.00" fill="#666666">[int(10) unsigned]</text>
<polygon fill="none" stroke="#000000" stroke-width="3" points="246.5,-1491.5 246.5,-1589.5 475.5,-1589.5 475.5,-1491.5 246.5,-1491.5"/>
</g>
<!-- emails -->
<g id="node2" class="node">
<title>emails</title>
<polygon fill="#efefef" stroke="transparent" points="55,-1332.5 55,-1367.5 313,-1367.5 313,-1332.5 55,-1332.5"/>
<polygon fill="none" stroke="#000000" points="55,-1332.5 55,-1367.5 313,-1367.5 313,-1332.5 55,-1332.5"/>
<text text-anchor="start" x="109.3766" y="-1345.3" font-family="Arial Bold" font-size="18.00" fill="#000000">emails</text>
<text text-anchor="start" x="161.3696" y="-1345.3" font-family="Arial" font-size="14.00" fill="#000000"> </text>
<text text-anchor="start" x="165.2602" y="-1345.3" font-family="Arial" font-size="14.00" fill="#666666">[BASE TABLE]</text>
<polygon fill="none" stroke="#000000" points="55,-1302.5 55,-1332.5 313,-1332.5 313,-1302.5 55,-1302.5"/>
<text text-anchor="start" x="62" y="-1313.9" font-family="Arial" font-size="14.00" fill="#000000">id </text>
<text text-anchor="start" x="76.7798" y="-1313.9" font-family="Arial" font-size="14.00" fill="#666666">[int(10) unsigned]</text>
<polygon fill="none" stroke="#000000" points="55,-1272.5 55,-1302.5 313,-1302.5 313,-1272.5 55,-1272.5"/>
<text text-anchor="start" x="62" y="-1283.9" font-family="Arial" font-size="14.00" fill="#000000">category_id </text>
<text text-anchor="start" x="138.244" y="-1283.9" font-family="Arial" font-size="14.00" fill="#666666">[int(10) unsigned]</text>
<polygon fill="none" stroke="#000000" points="55,-1242.5 55,-1272.5 313,-1272.5 313,-1242.5 55,-1242.5"/>
<text text-anchor="start" x="62" y="-1253.9" font-family="Arial" font-size="14.00" fill="#000000">translation_parent_id </text>
<text text-anchor="start" x="196.5946" y="-1253.9" font-family="Arial" font-size="14.00" fill="#666666">[int(10) unsigned]</text>
<polygon fill="none" stroke="#000000" points="55,-1212.5 55,-1242.5 313,-1242.5 313,-1212.5 55,-1212.5"/>
<text text-anchor="start" x="62" y="-1223.9" font-family="Arial" font-size="14.00" fill="#000000">variant_parent_id </text>
<text text-anchor="start" x="174.0322" y="-1223.9" font-family="Arial" font-size="14.00" fill="#666666">[int(10) unsigned]</text>
<polygon fill="none" stroke="#000000" points="55,-1182.5 55,-1212.5 313,-1212.5 313,-1182.5 55,-1182.5"/>
<text text-anchor="start" x="62" y="-1193.9" font-family="Arial" font-size="14.00" fill="#000000">unsubscribeform_id </text>
<text text-anchor="start" x="188.0196" y="-1193.9" font-family="Arial" font-size="14.00" fill="#666666">[int(10) unsigned]</text>
<polygon fill="none" stroke="#000000" points="55,-1152.5 55,-1182.5 313,-1182.5 313,-1152.5 55,-1152.5"/>
<text text-anchor="start" x="61.8542" y="-1163.9" font-family="Arial" font-size="14.00" fill="#000000">preference_center_id </text>
<text text-anchor="start" x="198.0056" y="-1163.9" font-family="Arial" font-size="14.00" fill="#666666">[int(10) unsigned]</text>
<polygon fill="none" stroke="#000000" points="55,-1122.5 55,-1152.5 313,-1152.5 313,-1122.5 55,-1122.5"/>
<text text-anchor="start" x="62" y="-1133.9" font-family="Arial" font-size="14.00" fill="#000000">is_published </text>
<text text-anchor="start" x="143.6886" y="-1133.9" font-family="Arial" font-size="14.00" fill="#666666">[tinyint(1)]</text>
<polygon fill="none" stroke="#000000" points="55,-1092.5 55,-1122.5 313,-1122.5 313,-1092.5 55,-1092.5"/>
<text text-anchor="start" x="62" y="-1103.9" font-family="Arial" font-size="14.00" fill="#000000">date_added </text>
<text text-anchor="start" x="139.8246" y="-1103.9" font-family="Arial" font-size="14.00" fill="#666666">[datetime]</text>
<polygon fill="none" stroke="#000000" points="55,-1062.5 55,-1092.5 313,-1092.5 313,-1062.5 55,-1062.5"/>
<text text-anchor="start" x="62" y="-1073.9" font-family="Arial" font-size="14.00" fill="#000000">created_by </text>
<text text-anchor="start" x="135.1374" y="-1073.9" font-family="Arial" font-size="14.00" fill="#666666">[int(11)]</text>
<polygon fill="none" stroke="#000000" points="55,-1032.5 55,-1062.5 313,-1062.5 313,-1032.5 55,-1032.5"/>
<text text-anchor="start" x="62" y="-1043.9" font-family="Arial" font-size="14.00" fill="#000000">created_by_user </text>
<text text-anchor="start" x="170.1458" y="-1043.9" font-family="Arial" font-size="14.00" fill="#666666">[varchar(191)]</text>
<polygon fill="none" stroke="#000000" points="55,-1002.5 55,-1032.5 313,-1032.5 313,-1002.5 55,-1002.5"/>
<text text-anchor="start" x="62" y="-1013.9" font-family="Arial" font-size="14.00" fill="#000000">date_modified </text>
<text text-anchor="start" x="153.8064" y="-1013.9" font-family="Arial" font-size="14.00" fill="#666666">[datetime]</text>
<polygon fill="none" stroke="#000000" points="55,-972.5 55,-1002.5 313,-1002.5 313,-972.5 55,-972.5"/>
<text text-anchor="start" x="62" y="-983.9" font-family="Arial" font-size="14.00" fill="#000000">modified_by </text>
<text text-anchor="start" x="141.3506" y="-983.9" font-family="Arial" font-size="14.00" fill="#666666">[int(11)]</text>
<polygon fill="none" stroke="#000000" points="55,-942.5 55,-972.5 313,-972.5 313,-942.5 55,-942.5"/>
<text text-anchor="start" x="62" y="-953.9" font-family="Arial" font-size="14.00" fill="#000000">modified_by_user </text>
<text text-anchor="start" x="176.359" y="-953.9" font-family="Arial" font-size="14.00" fill="#666666">[varchar(191)]</text>
<polygon fill="none" stroke="#000000" points="55,-912.5 55,-942.5 313,-942.5 313,-912.5 55,-912.5"/>
<text text-anchor="start" x="62" y="-923.9" font-family="Arial" font-size="14.00" fill="#000000">checked_out </text>
<text text-anchor="start" x="145.2594" y="-923.9" font-family="Arial" font-size="14.00" fill="#666666">[datetime]</text>
<polygon fill="none" stroke="#000000" points="55,-882.5 55,-912.5 313,-912.5 313,-882.5 55,-882.5"/>
<text text-anchor="start" x="62" y="-893.9" font-family="Arial" font-size="14.00" fill="#000000">checked_out_by </text>
<text text-anchor="start" x="167.8246" y="-893.9" font-family="Arial" font-size="14.00" fill="#666666">[int(11)]</text>
<polygon fill="none" stroke="#000000" points="55,-852.5 55,-882.5 313,-882.5 313,-852.5 55,-852.5"/>
<text text-anchor="start" x="62" y="-863.9" font-family="Arial" font-size="14.00" fill="#000000">checked_out_by_user </text>
<text text-anchor="start" x="202.833" y="-863.9" font-family="Arial" font-size="14.00" fill="#666666">[varchar(191)]</text>
<polygon fill="none" stroke="#000000" points="55,-822.5 55,-852.5 313,-852.5 313,-822.5 55,-822.5"/>
<text text-anchor="start" x="62" y="-833.9" font-family="Arial" font-size="14.00" fill="#000000">name </text>
<text text-anchor="start" x="100.899" y="-833.9" font-family="Arial" font-size="14.00" fill="#666666">[varchar(191)]</text>
<polygon fill="none" stroke="#000000" points="55,-792.5 55,-822.5 313,-822.5 313,-792.5 55,-792.5"/>
<text text-anchor="start" x="62" y="-803.9" font-family="Arial" font-size="14.00" fill="#000000">description </text>
<text text-anchor="start" x="133.568" y="-803.9" font-family="Arial" font-size="14.00" fill="#666666">[longtext]</text>
<polygon fill="none" stroke="#000000" points="55,-762.5 55,-792.5 313,-792.5 313,-762.5 55,-762.5"/>
<text text-anchor="start" x="62" y="-773.9" font-family="Arial" font-size="14.00" fill="#000000">subject </text>
<text text-anchor="start" x="110.2356" y="-773.9" font-family="Arial" font-size="14.00" fill="#666666">[longtext]</text>
<polygon fill="none" stroke="#000000" points="55,-732.5 55,-762.5 313,-762.5 313,-732.5 55,-732.5"/>
<text text-anchor="start" x="62" y="-743.9" font-family="Arial" font-size="14.00" fill="#000000">from_address </text>
<text text-anchor="start" x="151.4586" y="-743.9" font-family="Arial" font-size="14.00" fill="#666666">[varchar(191)]</text>
<polygon fill="none" stroke="#000000" points="55,-702.5 55,-732.5 313,-732.5 313,-702.5 55,-702.5"/>
<text text-anchor="start" x="62" y="-713.9" font-family="Arial" font-size="14.00" fill="#000000">from_name </text>
<text text-anchor="start" x="136.676" y="-713.9" font-family="Arial" font-size="14.00" fill="#666666">[varchar(191)]</text>
<polygon fill="none" stroke="#000000" points="55,-672.5 55,-702.5 313,-702.5 313,-672.5 55,-672.5"/>
<text text-anchor="start" x="62" y="-683.9" font-family="Arial" font-size="14.00" fill="#000000">reply_to_address </text>
<text text-anchor="start" x="173.2524" y="-683.9" font-family="Arial" font-size="14.00" fill="#666666">[varchar(191)]</text>
<polygon fill="none" stroke="#000000" points="55,-642.5 55,-672.5 313,-672.5 313,-642.5 55,-642.5"/>
<text text-anchor="start" x="62" y="-653.9" font-family="Arial" font-size="14.00" fill="#000000">bcc_address </text>
<text text-anchor="start" x="145.2468" y="-653.9" font-family="Arial" font-size="14.00" fill="#666666">[varchar(191)]</text>
<polygon fill="none" stroke="#000000" points="55,-612.5 55,-642.5 313,-642.5 313,-612.5 55,-612.5"/>
<text text-anchor="start" x="62" y="-623.9" font-family="Arial" font-size="14.00" fill="#000000">use_owner_as_mailer </text>
<text text-anchor="start" x="202.8008" y="-623.9" font-family="Arial" font-size="14.00" fill="#666666">[tinyint(1)]</text>
<polygon fill="none" stroke="#000000" points="55,-582.5 55,-612.5 313,-612.5 313,-582.5 55,-582.5"/>
<text text-anchor="start" x="62" y="-593.9" font-family="Arial" font-size="14.00" fill="#000000">template </text>
<text text-anchor="start" x="119.5694" y="-593.9" font-family="Arial" font-size="14.00" fill="#666666">[varchar(191)]</text>
<polygon fill="none" stroke="#000000" points="55,-552.5 55,-582.5 313,-582.5 313,-552.5 55,-552.5"/>
<text text-anchor="start" x="62" y="-563.9" font-family="Arial" font-size="14.00" fill="#000000">content </text>
<text text-anchor="start" x="111.8022" y="-563.9" font-family="Arial" font-size="14.00" fill="#666666">[longtext]</text>
<polygon fill="none" stroke="#000000" points="55,-522.5 55,-552.5 313,-552.5 313,-522.5 55,-522.5"/>
<text text-anchor="start" x="62" y="-533.9" font-family="Arial" font-size="14.00" fill="#000000">utm_tags </text>
<text text-anchor="start" x="123.4628" y="-533.9" font-family="Arial" font-size="14.00" fill="#666666">[longtext]</text>
<polygon fill="none" stroke="#000000" points="55,-492.5 55,-522.5 313,-522.5 313,-492.5 55,-492.5"/>
<text text-anchor="start" x="62" y="-503.9" font-family="Arial" font-size="14.00" fill="#000000">plain_text </text>
<text text-anchor="start" x="125.798" y="-503.9" font-family="Arial" font-size="14.00" fill="#666666">[longtext]</text>
<polygon fill="none" stroke="#000000" points="55,-462.5 55,-492.5 313,-492.5 313,-462.5 55,-462.5"/>
<text text-anchor="start" x="62" y="-473.9" font-family="Arial" font-size="14.00" fill="#000000">custom_html </text>
<text text-anchor="start" x="145.23" y="-473.9" font-family="Arial" font-size="14.00" fill="#666666">[longtext]</text>
<polygon fill="none" stroke="#000000" points="55,-432.5 55,-462.5 313,-462.5 313,-432.5 55,-432.5"/>
<text text-anchor="start" x="62" y="-443.9" font-family="Arial" font-size="14.00" fill="#000000">email_type </text>
<text text-anchor="start" x="133.568" y="-443.9" font-family="Arial" font-size="14.00" fill="#666666">[longtext]</text>
<polygon fill="none" stroke="#000000" points="55,-402.5 55,-432.5 313,-432.5 313,-402.5 55,-402.5"/>
<text text-anchor="start" x="62" y="-413.9" font-family="Arial" font-size="14.00" fill="#000000">publish_up </text>
<text text-anchor="start" x="133.582" y="-413.9" font-family="Arial" font-size="14.00" fill="#666666">[datetime]</text>
<polygon fill="none" stroke="#000000" points="55,-372.5 55,-402.5 313,-402.5 313,-372.5 55,-372.5"/>
<text text-anchor="start" x="62" y="-383.9" font-family="Arial" font-size="14.00" fill="#000000">publish_down </text>
<text text-anchor="start" x="151.4712" y="-383.9" font-family="Arial" font-size="14.00" fill="#666666">[datetime]</text>
<polygon fill="none" stroke="#000000" points="55,-342.5 55,-372.5 313,-372.5 313,-342.5 55,-342.5"/>
<text text-anchor="start" x="62" y="-353.9" font-family="Arial" font-size="14.00" fill="#000000">read_count </text>
<text text-anchor="start" x="135.92" y="-353.9" font-family="Arial" font-size="14.00" fill="#666666">[int(11)]</text>
<polygon fill="none" stroke="#000000" points="55,-312.5 55,-342.5 313,-342.5 313,-312.5 55,-312.5"/>
<text text-anchor="start" x="62" y="-323.9" font-family="Arial" font-size="14.00" fill="#000000">sent_count </text>
<text text-anchor="start" x="134.3674" y="-323.9" font-family="Arial" font-size="14.00" fill="#666666">[int(11)]</text>
<polygon fill="none" stroke="#000000" points="55,-282.5 55,-312.5 313,-312.5 313,-282.5 55,-282.5"/>
<text text-anchor="start" x="62" y="-293.9" font-family="Arial" font-size="14.00" fill="#000000">variant_sent_count </text>
<text text-anchor="start" x="184.1556" y="-293.9" font-family="Arial" font-size="14.00" fill="#666666">[int(11)]</text>
<polygon fill="none" stroke="#000000" points="55,-252.5 55,-282.5 313,-282.5 313,-252.5 55,-252.5"/>
<text text-anchor="start" x="62" y="-263.9" font-family="Arial" font-size="14.00" fill="#000000">variant_read_count </text>
<text text-anchor="start" x="185.7082" y="-263.9" font-family="Arial" font-size="14.00" fill="#666666">[int(11)]</text>
<polygon fill="none" stroke="#000000" points="55,-222.5 55,-252.5 313,-252.5 313,-222.5 55,-222.5"/>
<text text-anchor="start" x="62" y="-233.9" font-family="Arial" font-size="14.00" fill="#000000">revision </text>
<text text-anchor="start" x="114.1122" y="-233.9" font-family="Arial" font-size="14.00" fill="#666666">[int(11)]</text>
<polygon fill="none" stroke="#000000" points="55,-192.5 55,-222.5 313,-222.5 313,-192.5 55,-192.5"/>
<text text-anchor="start" x="62" y="-203.9" font-family="Arial" font-size="14.00" fill="#000000">lang </text>
<text text-anchor="start" x="92.345" y="-203.9" font-family="Arial" font-size="14.00" fill="#666666">[varchar(191)]</text>
<polygon fill="none" stroke="#000000" points="55,-162.5 55,-192.5 313,-192.5 313,-162.5 55,-162.5"/>
<text text-anchor="start" x="62" y="-173.9" font-family="Arial" font-size="14.00" fill="#000000">variant_settings </text>
<text text-anchor="start" x="163.9144" y="-173.9" font-family="Arial" font-size="14.00" fill="#666666">[longtext]</text>
<polygon fill="none" stroke="#000000" points="55,-132.5 55,-162.5 313,-162.5 313,-132.5 55,-132.5"/>
<text text-anchor="start" x="62" y="-143.9" font-family="Arial" font-size="14.00" fill="#000000">variant_start_date </text>
<text text-anchor="start" x="177.9242" y="-143.9" font-family="Arial" font-size="14.00" fill="#666666">[datetime]</text>
<polygon fill="none" stroke="#000000" points="55,-102.5 55,-132.5 313,-132.5 313,-102.5 55,-102.5"/>
<text text-anchor="start" x="62" y="-113.9" font-family="Arial" font-size="14.00" fill="#000000">dynamic_content </text>
<text text-anchor="start" x="171.6998" y="-113.9" font-family="Arial" font-size="14.00" fill="#666666">[longtext]</text>
<polygon fill="none" stroke="#000000" points="55,-72.5 55,-102.5 313,-102.5 313,-72.5 55,-72.5"/>
<text text-anchor="start" x="62" y="-83.9" font-family="Arial" font-size="14.00" fill="#000000">headers </text>
<text text-anchor="start" x="116.4642" y="-83.9" font-family="Arial" font-size="14.00" fill="#666666">[longtext]</text>
<polygon fill="none" stroke="#000000" points="55,-42.5 55,-72.5 313,-72.5 313,-42.5 55,-42.5"/>
<text text-anchor="start" x="62" y="-53.9" font-family="Arial" font-size="14.00" fill="#000000">public_preview </text>
<text text-anchor="start" x="158.4558" y="-53.9" font-family="Arial" font-size="14.00" fill="#666666">[tinyint(1)]</text>
</g>
<!-- email_list_xref&#45;&gt;emails -->
<g id="edge1" class="edge">
<title>email_list_xref:email_id&#45;&gt;emails:id</title>
<path fill="none" stroke="#000000" d="M237.8781,-1535.974C211.6512,-1526.7945 229.5737,-1478.2689 248,-1447 264.7659,-1418.5487 296.2341,-1439.4513 313,-1411 334.0974,-1375.1983 354.5556,-1317.5 313,-1317.5"/>
<polygon fill="#000000" stroke="#000000" points="238.1118,-1536.0091 247.3291,-1541.9497 243.0559,-1536.7545 248,-1537.5 248,-1537.5 248,-1537.5 243.0559,-1536.7545 248.6709,-1533.0503 238.1118,-1536.0091 238.1118,-1536.0091"/>
<text text-anchor="start" x="6.507" y="-1547.5" font-family="Arial" font-size="10.00" fill="#000000">FOREIGN KEY (email_id) REFERENCES emails (id)</text>
</g>
<!-- lead_lists -->
<g id="node3" class="node">
<title>lead_lists</title>
<polygon fill="#efefef" stroke="transparent" points="418,-972.5 418,-1007.5 659,-1007.5 659,-972.5 418,-972.5"/>
<polygon fill="none" stroke="#000000" points="418,-972.5 418,-1007.5 659,-1007.5 659,-972.5 418,-972.5"/>
<text text-anchor="start" x="452.3683" y="-985.3" font-family="Arial Bold" font-size="18.00" fill="#000000">lead_lists</text>
<text text-anchor="start" x="527.3779" y="-985.3" font-family="Arial" font-size="14.00" fill="#000000"> </text>
<text text-anchor="start" x="531.2685" y="-985.3" font-family="Arial" font-size="14.00" fill="#666666">[BASE TABLE]</text>
<polygon fill="none" stroke="#000000" points="418,-942.5 418,-972.5 659,-972.5 659,-942.5 418,-942.5"/>
<text text-anchor="start" x="425" y="-953.9" font-family="Arial" font-size="14.00" fill="#000000">id </text>
<text text-anchor="start" x="439.7798" y="-953.9" font-family="Arial" font-size="14.00" fill="#666666">[int(10) unsigned]</text>
<polygon fill="none" stroke="#000000" points="418,-912.5 418,-942.5 659,-942.5 659,-912.5 418,-912.5"/>
<text text-anchor="start" x="425" y="-923.9" font-family="Arial" font-size="14.00" fill="#000000">category_id </text>
<text text-anchor="start" x="501.244" y="-923.9" font-family="Arial" font-size="14.00" fill="#666666">[int(10) unsigned]</text>
<polygon fill="none" stroke="#000000" points="418,-882.5 418,-912.5 659,-912.5 659,-882.5 418,-882.5"/>
<text text-anchor="start" x="425" y="-893.9" font-family="Arial" font-size="14.00" fill="#000000">is_published </text>
<text text-anchor="start" x="506.6886" y="-893.9" font-family="Arial" font-size="14.00" fill="#666666">[tinyint(1)]</text>
<polygon fill="none" stroke="#000000" points="418,-852.5 418,-882.5 659,-882.5 659,-852.5 418,-852.5"/>
<text text-anchor="start" x="425" y="-863.9" font-family="Arial" font-size="14.00" fill="#000000">date_added </text>
<text text-anchor="start" x="502.8246" y="-863.9" font-family="Arial" font-size="14.00" fill="#666666">[datetime]</text>
<polygon fill="none" stroke="#000000" points="418,-822.5 418,-852.5 659,-852.5 659,-822.5 418,-822.5"/>
<text text-anchor="start" x="425" y="-833.9" font-family="Arial" font-size="14.00" fill="#000000">created_by </text>
<text text-anchor="start" x="498.1374" y="-833.9" font-family="Arial" font-size="14.00" fill="#666666">[int(11)]</text>
<polygon fill="none" stroke="#000000" points="418,-792.5 418,-822.5 659,-822.5 659,-792.5 418,-792.5"/>
<text text-anchor="start" x="425" y="-803.9" font-family="Arial" font-size="14.00" fill="#000000">created_by_user </text>
<text text-anchor="start" x="533.1458" y="-803.9" font-family="Arial" font-size="14.00" fill="#666666">[varchar(191)]</text>
<polygon fill="none" stroke="#000000" points="418,-762.5 418,-792.5 659,-792.5 659,-762.5 418,-762.5"/>
<text text-anchor="start" x="425" y="-773.9" font-family="Arial" font-size="14.00" fill="#000000">date_modified </text>
<text text-anchor="start" x="516.8064" y="-773.9" font-family="Arial" font-size="14.00" fill="#666666">[datetime]</text>
<polygon fill="none" stroke="#000000" points="418,-732.5 418,-762.5 659,-762.5 659,-732.5 418,-732.5"/>
<text text-anchor="start" x="425" y="-743.9" font-family="Arial" font-size="14.00" fill="#000000">modified_by </text>
<text text-anchor="start" x="504.3506" y="-743.9" font-family="Arial" font-size="14.00" fill="#666666">[int(11)]</text>
<polygon fill="none" stroke="#000000" points="418,-702.5 418,-732.5 659,-732.5 659,-702.5 418,-702.5"/>
<text text-anchor="start" x="425" y="-713.9" font-family="Arial" font-size="14.00" fill="#000000">modified_by_user </text>
<text text-anchor="start" x="539.359" y="-713.9" font-family="Arial" font-size="14.00" fill="#666666">[varchar(191)]</text>
<polygon fill="none" stroke="#000000" points="418,-672.5 418,-702.5 659,-702.5 659,-672.5 418,-672.5"/>
<text text-anchor="start" x="425" y="-683.9" font-family="Arial" font-size="14.00" fill="#000000">checked_out </text>
<text text-anchor="start" x="508.2594" y="-683.9" font-family="Arial" font-size="14.00" fill="#666666">[datetime]</text>
<polygon fill="none" stroke="#000000" points="418,-642.5 418,-672.5 659,-672.5 659,-642.5 418,-642.5"/>
<text text-anchor="start" x="425" y="-653.9" font-family="Arial" font-size="14.00" fill="#000000">checked_out_by </text>
<text text-anchor="start" x="530.8246" y="-653.9" font-family="Arial" font-size="14.00" fill="#666666">[int(11)]</text>
<polygon fill="none" stroke="#000000" points="418,-612.5 418,-642.5 659,-642.5 659,-612.5 418,-612.5"/>
<text text-anchor="start" x="424.5239" y="-623.9" font-family="Arial" font-size="14.00" fill="#000000">checked_out_by_user </text>
<text text-anchor="start" x="565.3569" y="-623.9" font-family="Arial" font-size="14.00" fill="#666666">[varchar(191)]</text>
<polygon fill="none" stroke="#000000" points="418,-582.5 418,-612.5 659,-612.5 659,-582.5 418,-582.5"/>
<text text-anchor="start" x="425" y="-593.9" font-family="Arial" font-size="14.00" fill="#000000">name </text>
<text text-anchor="start" x="463.899" y="-593.9" font-family="Arial" font-size="14.00" fill="#666666">[varchar(191)]</text>
<polygon fill="none" stroke="#000000" points="418,-552.5 418,-582.5 659,-582.5 659,-552.5 418,-552.5"/>
<text text-anchor="start" x="425" y="-563.9" font-family="Arial" font-size="14.00" fill="#000000">description </text>
<text text-anchor="start" x="496.568" y="-563.9" font-family="Arial" font-size="14.00" fill="#666666">[longtext]</text>
<polygon fill="none" stroke="#000000" points="418,-522.5 418,-552.5 659,-552.5 659,-522.5 418,-522.5"/>
<text text-anchor="start" x="425" y="-533.9" font-family="Arial" font-size="14.00" fill="#000000">alias </text>
<text text-anchor="start" x="457.669" y="-533.9" font-family="Arial" font-size="14.00" fill="#666666">[varchar(191)]</text>
<polygon fill="none" stroke="#000000" points="418,-492.5 418,-522.5 659,-522.5 659,-492.5 418,-492.5"/>
<text text-anchor="start" x="425" y="-503.9" font-family="Arial" font-size="14.00" fill="#000000">public_name </text>
<text text-anchor="start" x="508.2426" y="-503.9" font-family="Arial" font-size="14.00" fill="#666666">[varchar(191)]</text>
<polygon fill="none" stroke="#000000" points="418,-462.5 418,-492.5 659,-492.5 659,-462.5 418,-462.5"/>
<text text-anchor="start" x="425" y="-473.9" font-family="Arial" font-size="14.00" fill="#000000">filters </text>
<text text-anchor="start" x="462.3282" y="-473.9" font-family="Arial" font-size="14.00" fill="#666666">[longtext]</text>
<polygon fill="none" stroke="#000000" points="418,-432.5 418,-462.5 659,-462.5 659,-432.5 418,-432.5"/>
<text text-anchor="start" x="425" y="-443.9" font-family="Arial" font-size="14.00" fill="#000000">is_global </text>
<text text-anchor="start" x="484.1234" y="-443.9" font-family="Arial" font-size="14.00" fill="#666666">[tinyint(1)]</text>
<polygon fill="none" stroke="#000000" points="418,-402.5 418,-432.5 659,-432.5 659,-402.5 418,-402.5"/>
<text text-anchor="start" x="425" y="-413.9" font-family="Arial" font-size="14.00" fill="#000000">is_preference_center </text>
<text text-anchor="start" x="560.3688" y="-413.9" font-family="Arial" font-size="14.00" fill="#666666">[tinyint(1)]</text>
</g>
<!-- email_list_xref&#45;&gt;lead_lists -->
<g id="edge2" class="edge">
<title>email_list_xref:leadlist_id&#45;&gt;lead_lists:id</title>
<path fill="none" stroke="#000000" d="M484.0139,-1506.0183C578.9757,-1474.7033 298.8651,-957.5 418,-957.5"/>
<polygon fill="#000000" stroke="#000000" points="483.8923,-1506.0362 473.3413,-1503.0485 478.9462,-1506.7681 474,-1507.5 474,-1507.5 474,-1507.5 478.9462,-1506.7681 474.6587,-1511.9515 483.8923,-1506.0362 483.8923,-1506.0362"/>
<text text-anchor="start" x="481.4995" y="-1517.5" font-family="Arial" font-size="10.00" fill="#000000">FOREIGN KEY (leadlist_id) REFERENCES lead_lists (id)</text>
</g>
</g>
</svg>
