<?xml version="1.0" encoding="UTF-8" standalone="no"?>
<!DOCTYPE svg PUBLIC "-//W3C//DTD SVG 1.1//EN"
 "http://www.w3.org/Graphics/SVG/1.1/DTD/svg11.dtd">
<!-- Generated by graphviz version 2.40.1 (20161225.0304)
 -->
<!-- Title: email_assets_xref Pages: 1 -->
<svg width="761pt" height="1642pt"
 viewBox="0.00 0.00 761.00 1642.00" xmlns="http://www.w3.org/2000/svg" xmlns:xlink="http://www.w3.org/1999/xlink">
<g id="graph0" class="graph" transform="scale(1 1) rotate(0) translate(4 1638)">
<title>email_assets_xref</title>
<polygon fill="#ffffff" stroke="transparent" points="-4,4 -4,-1638 757,-1638 757,4 -4,4"/>
<!-- email_assets_xref -->
<g id="node1" class="node">
<title>email_assets_xref</title>
<polygon fill="#efefef" stroke="transparent" points="248,-1552.5 248,-1587.5 504,-1587.5 504,-1552.5 248,-1552.5"/>
<polygon fill="none" stroke="#000000" points="248,-1552.5 248,-1587.5 504,-1587.5 504,-1552.5 248,-1552.5"/>
<text text-anchor="start" x="254.8628" y="-1565.3" font-family="Arial Bold" font-size="18.00" fill="#000000">email_assets_xref</text>
<text text-anchor="start" x="399.8834" y="-1565.3" font-family="Arial" font-size="14.00" fill="#000000"> </text>
<text text-anchor="start" x="403.774" y="-1565.3" font-family="Arial" font-size="14.00" fill="#666666">[BASE TABLE]</text>
<polygon fill="none" stroke="#000000" points="248,-1522.5 248,-1552.5 504,-1552.5 504,-1522.5 248,-1522.5"/>
<text text-anchor="start" x="255" y="-1533.9" font-family="Arial" font-size="14.00" fill="#000000">email_id </text>
<text text-anchor="start" x="311.0014" y="-1533.9" font-family="Arial" font-size="14.00" fill="#666666">[int(10) unsigned]</text>
<polygon fill="none" stroke="#000000" points="248,-1492.5 248,-1522.5 504,-1522.5 504,-1492.5 248,-1492.5"/>
<text text-anchor="start" x="255" y="-1503.9" font-family="Arial" font-size="14.00" fill="#000000">asset_id </text>
<text text-anchor="start" x="311.0182" y="-1503.9" font-family="Arial" font-size="14.00" fill="#666666">[int(10) unsigned]</text>
<polygon fill="none" stroke="#000000" stroke-width="3" points="246.5,-1491.5 246.5,-1589.5 505.5,-1589.5 505.5,-1491.5 246.5,-1491.5"/>
</g>
<!-- emails -->
<g id="node2" class="node">
<title>emails</title>
<polygon fill="#efefef" stroke="transparent" points="70,-1332.5 70,-1367.5 328,-1367.5 328,-1332.5 70,-1332.5"/>
<polygon fill="none" stroke="#000000" points="70,-1332.5 70,-1367.5 328,-1367.5 328,-1332.5 70,-1332.5"/>
<text text-anchor="start" x="124.3766" y="-1345.3" font-family="Arial Bold" font-size="18.00" fill="#000000">emails</text>
<text text-anchor="start" x="176.3696" y="-1345.3" font-family="Arial" font-size="14.00" fill="#000000"> </text>
<text text-anchor="start" x="180.2602" y="-1345.3" font-family="Arial" font-size="14.00" fill="#666666">[BASE TABLE]</text>
<polygon fill="none" stroke="#000000" points="70,-1302.5 70,-1332.5 328,-1332.5 328,-1302.5 70,-1302.5"/>
<text text-anchor="start" x="77" y="-1313.9" font-family="Arial" font-size="14.00" fill="#000000">id </text>
<text text-anchor="start" x="91.7798" y="-1313.9" font-family="Arial" font-size="14.00" fill="#666666">[int(10) unsigned]</text>
<polygon fill="none" stroke="#000000" points="70,-1272.5 70,-1302.5 328,-1302.5 328,-1272.5 70,-1272.5"/>
<text text-anchor="start" x="77" y="-1283.9" font-family="Arial" font-size="14.00" fill="#000000">category_id </text>
<text text-anchor="start" x="153.244" y="-1283.9" font-family="Arial" font-size="14.00" fill="#666666">[int(10) unsigned]</text>
<polygon fill="none" stroke="#000000" points="70,-1242.5 70,-1272.5 328,-1272.5 328,-1242.5 70,-1242.5"/>
<text text-anchor="start" x="77" y="-1253.9" font-family="Arial" font-size="14.00" fill="#000000">translation_parent_id </text>
<text text-anchor="start" x="211.5946" y="-1253.9" font-family="Arial" font-size="14.00" fill="#666666">[int(10) unsigned]</text>
<polygon fill="none" stroke="#000000" points="70,-1212.5 70,-1242.5 328,-1242.5 328,-1212.5 70,-1212.5"/>
<text text-anchor="start" x="77" y="-1223.9" font-family="Arial" font-size="14.00" fill="#000000">variant_parent_id </text>
<text text-anchor="start" x="189.0322" y="-1223.9" font-family="Arial" font-size="14.00" fill="#666666">[int(10) unsigned]</text>
<polygon fill="none" stroke="#000000" points="70,-1182.5 70,-1212.5 328,-1212.5 328,-1182.5 70,-1182.5"/>
<text text-anchor="start" x="77" y="-1193.9" font-family="Arial" font-size="14.00" fill="#000000">unsubscribeform_id </text>
<text text-anchor="start" x="203.0196" y="-1193.9" font-family="Arial" font-size="14.00" fill="#666666">[int(10) unsigned]</text>
<polygon fill="none" stroke="#000000" points="70,-1152.5 70,-1182.5 328,-1182.5 328,-1152.5 70,-1152.5"/>
<text text-anchor="start" x="76.8542" y="-1163.9" font-family="Arial" font-size="14.00" fill="#000000">preference_center_id </text>
<text text-anchor="start" x="213.0056" y="-1163.9" font-family="Arial" font-size="14.00" fill="#666666">[int(10) unsigned]</text>
<polygon fill="none" stroke="#000000" points="70,-1122.5 70,-1152.5 328,-1152.5 328,-1122.5 70,-1122.5"/>
<text text-anchor="start" x="77" y="-1133.9" font-family="Arial" font-size="14.00" fill="#000000">is_published </text>
<text text-anchor="start" x="158.6886" y="-1133.9" font-family="Arial" font-size="14.00" fill="#666666">[tinyint(1)]</text>
<polygon fill="none" stroke="#000000" points="70,-1092.5 70,-1122.5 328,-1122.5 328,-1092.5 70,-1092.5"/>
<text text-anchor="start" x="77" y="-1103.9" font-family="Arial" font-size="14.00" fill="#000000">date_added </text>
<text text-anchor="start" x="154.8246" y="-1103.9" font-family="Arial" font-size="14.00" fill="#666666">[datetime]</text>
<polygon fill="none" stroke="#000000" points="70,-1062.5 70,-1092.5 328,-1092.5 328,-1062.5 70,-1062.5"/>
<text text-anchor="start" x="77" y="-1073.9" font-family="Arial" font-size="14.00" fill="#000000">created_by </text>
<text text-anchor="start" x="150.1374" y="-1073.9" font-family="Arial" font-size="14.00" fill="#666666">[int(11)]</text>
<polygon fill="none" stroke="#000000" points="70,-1032.5 70,-1062.5 328,-1062.5 328,-1032.5 70,-1032.5"/>
<text text-anchor="start" x="77" y="-1043.9" font-family="Arial" font-size="14.00" fill="#000000">created_by_user </text>
<text text-anchor="start" x="185.1458" y="-1043.9" font-family="Arial" font-size="14.00" fill="#666666">[varchar(191)]</text>
<polygon fill="none" stroke="#000000" points="70,-1002.5 70,-1032.5 328,-1032.5 328,-1002.5 70,-1002.5"/>
<text text-anchor="start" x="77" y="-1013.9" font-family="Arial" font-size="14.00" fill="#000000">date_modified </text>
<text text-anchor="start" x="168.8064" y="-1013.9" font-family="Arial" font-size="14.00" fill="#666666">[datetime]</text>
<polygon fill="none" stroke="#000000" points="70,-972.5 70,-1002.5 328,-1002.5 328,-972.5 70,-972.5"/>
<text text-anchor="start" x="77" y="-983.9" font-family="Arial" font-size="14.00" fill="#000000">modified_by </text>
<text text-anchor="start" x="156.3506" y="-983.9" font-family="Arial" font-size="14.00" fill="#666666">[int(11)]</text>
<polygon fill="none" stroke="#000000" points="70,-942.5 70,-972.5 328,-972.5 328,-942.5 70,-942.5"/>
<text text-anchor="start" x="77" y="-953.9" font-family="Arial" font-size="14.00" fill="#000000">modified_by_user </text>
<text text-anchor="start" x="191.359" y="-953.9" font-family="Arial" font-size="14.00" fill="#666666">[varchar(191)]</text>
<polygon fill="none" stroke="#000000" points="70,-912.5 70,-942.5 328,-942.5 328,-912.5 70,-912.5"/>
<text text-anchor="start" x="77" y="-923.9" font-family="Arial" font-size="14.00" fill="#000000">checked_out </text>
<text text-anchor="start" x="160.2594" y="-923.9" font-family="Arial" font-size="14.00" fill="#666666">[datetime]</text>
<polygon fill="none" stroke="#000000" points="70,-882.5 70,-912.5 328,-912.5 328,-882.5 70,-882.5"/>
<text text-anchor="start" x="77" y="-893.9" font-family="Arial" font-size="14.00" fill="#000000">checked_out_by </text>
<text text-anchor="start" x="182.8246" y="-893.9" font-family="Arial" font-size="14.00" fill="#666666">[int(11)]</text>
<polygon fill="none" stroke="#000000" points="70,-852.5 70,-882.5 328,-882.5 328,-852.5 70,-852.5"/>
<text text-anchor="start" x="77" y="-863.9" font-family="Arial" font-size="14.00" fill="#000000">checked_out_by_user </text>
<text text-anchor="start" x="217.833" y="-863.9" font-family="Arial" font-size="14.00" fill="#666666">[varchar(191)]</text>
<polygon fill="none" stroke="#000000" points="70,-822.5 70,-852.5 328,-852.5 328,-822.5 70,-822.5"/>
<text text-anchor="start" x="77" y="-833.9" font-family="Arial" font-size="14.00" fill="#000000">name </text>
<text text-anchor="start" x="115.899" y="-833.9" font-family="Arial" font-size="14.00" fill="#666666">[varchar(191)]</text>
<polygon fill="none" stroke="#000000" points="70,-792.5 70,-822.5 328,-822.5 328,-792.5 70,-792.5"/>
<text text-anchor="start" x="77" y="-803.9" font-family="Arial" font-size="14.00" fill="#000000">description </text>
<text text-anchor="start" x="148.568" y="-803.9" font-family="Arial" font-size="14.00" fill="#666666">[longtext]</text>
<polygon fill="none" stroke="#000000" points="70,-762.5 70,-792.5 328,-792.5 328,-762.5 70,-762.5"/>
<text text-anchor="start" x="77" y="-773.9" font-family="Arial" font-size="14.00" fill="#000000">subject </text>
<text text-anchor="start" x="125.2356" y="-773.9" font-family="Arial" font-size="14.00" fill="#666666">[longtext]</text>
<polygon fill="none" stroke="#000000" points="70,-732.5 70,-762.5 328,-762.5 328,-732.5 70,-732.5"/>
<text text-anchor="start" x="77" y="-743.9" font-family="Arial" font-size="14.00" fill="#000000">from_address </text>
<text text-anchor="start" x="166.4586" y="-743.9" font-family="Arial" font-size="14.00" fill="#666666">[varchar(191)]</text>
<polygon fill="none" stroke="#000000" points="70,-702.5 70,-732.5 328,-732.5 328,-702.5 70,-702.5"/>
<text text-anchor="start" x="77" y="-713.9" font-family="Arial" font-size="14.00" fill="#000000">from_name </text>
<text text-anchor="start" x="151.676" y="-713.9" font-family="Arial" font-size="14.00" fill="#666666">[varchar(191)]</text>
<polygon fill="none" stroke="#000000" points="70,-672.5 70,-702.5 328,-702.5 328,-672.5 70,-672.5"/>
<text text-anchor="start" x="77" y="-683.9" font-family="Arial" font-size="14.00" fill="#000000">reply_to_address </text>
<text text-anchor="start" x="188.2524" y="-683.9" font-family="Arial" font-size="14.00" fill="#666666">[varchar(191)]</text>
<polygon fill="none" stroke="#000000" points="70,-642.5 70,-672.5 328,-672.5 328,-642.5 70,-642.5"/>
<text text-anchor="start" x="77" y="-653.9" font-family="Arial" font-size="14.00" fill="#000000">bcc_address </text>
<text text-anchor="start" x="160.2468" y="-653.9" font-family="Arial" font-size="14.00" fill="#666666">[varchar(191)]</text>
<polygon fill="none" stroke="#000000" points="70,-612.5 70,-642.5 328,-642.5 328,-612.5 70,-612.5"/>
<text text-anchor="start" x="77" y="-623.9" font-family="Arial" font-size="14.00" fill="#000000">use_owner_as_mailer </text>
<text text-anchor="start" x="217.8008" y="-623.9" font-family="Arial" font-size="14.00" fill="#666666">[tinyint(1)]</text>
<polygon fill="none" stroke="#000000" points="70,-582.5 70,-612.5 328,-612.5 328,-582.5 70,-582.5"/>
<text text-anchor="start" x="77" y="-593.9" font-family="Arial" font-size="14.00" fill="#000000">template </text>
<text text-anchor="start" x="134.5694" y="-593.9" font-family="Arial" font-size="14.00" fill="#666666">[varchar(191)]</text>
<polygon fill="none" stroke="#000000" points="70,-552.5 70,-582.5 328,-582.5 328,-552.5 70,-552.5"/>
<text text-anchor="start" x="77" y="-563.9" font-family="Arial" font-size="14.00" fill="#000000">content </text>
<text text-anchor="start" x="126.8022" y="-563.9" font-family="Arial" font-size="14.00" fill="#666666">[longtext]</text>
<polygon fill="none" stroke="#000000" points="70,-522.5 70,-552.5 328,-552.5 328,-522.5 70,-522.5"/>
<text text-anchor="start" x="77" y="-533.9" font-family="Arial" font-size="14.00" fill="#000000">utm_tags </text>
<text text-anchor="start" x="138.4628" y="-533.9" font-family="Arial" font-size="14.00" fill="#666666">[longtext]</text>
<polygon fill="none" stroke="#000000" points="70,-492.5 70,-522.5 328,-522.5 328,-492.5 70,-492.5"/>
<text text-anchor="start" x="77" y="-503.9" font-family="Arial" font-size="14.00" fill="#000000">plain_text </text>
<text text-anchor="start" x="140.798" y="-503.9" font-family="Arial" font-size="14.00" fill="#666666">[longtext]</text>
<polygon fill="none" stroke="#000000" points="70,-462.5 70,-492.5 328,-492.5 328,-462.5 70,-462.5"/>
<text text-anchor="start" x="77" y="-473.9" font-family="Arial" font-size="14.00" fill="#000000">custom_html </text>
<text text-anchor="start" x="160.23" y="-473.9" font-family="Arial" font-size="14.00" fill="#666666">[longtext]</text>
<polygon fill="none" stroke="#000000" points="70,-432.5 70,-462.5 328,-462.5 328,-432.5 70,-432.5"/>
<text text-anchor="start" x="77" y="-443.9" font-family="Arial" font-size="14.00" fill="#000000">email_type </text>
<text text-anchor="start" x="148.568" y="-443.9" font-family="Arial" font-size="14.00" fill="#666666">[longtext]</text>
<polygon fill="none" stroke="#000000" points="70,-402.5 70,-432.5 328,-432.5 328,-402.5 70,-402.5"/>
<text text-anchor="start" x="77" y="-413.9" font-family="Arial" font-size="14.00" fill="#000000">publish_up </text>
<text text-anchor="start" x="148.582" y="-413.9" font-family="Arial" font-size="14.00" fill="#666666">[datetime]</text>
<polygon fill="none" stroke="#000000" points="70,-372.5 70,-402.5 328,-402.5 328,-372.5 70,-372.5"/>
<text text-anchor="start" x="77" y="-383.9" font-family="Arial" font-size="14.00" fill="#000000">publish_down </text>
<text text-anchor="start" x="166.4712" y="-383.9" font-family="Arial" font-size="14.00" fill="#666666">[datetime]</text>
<polygon fill="none" stroke="#000000" points="70,-342.5 70,-372.5 328,-372.5 328,-342.5 70,-342.5"/>
<text text-anchor="start" x="77" y="-353.9" font-family="Arial" font-size="14.00" fill="#000000">read_count </text>
<text text-anchor="start" x="150.92" y="-353.9" font-family="Arial" font-size="14.00" fill="#666666">[int(11)]</text>
<polygon fill="none" stroke="#000000" points="70,-312.5 70,-342.5 328,-342.5 328,-312.5 70,-312.5"/>
<text text-anchor="start" x="77" y="-323.9" font-family="Arial" font-size="14.00" fill="#000000">sent_count </text>
<text text-anchor="start" x="149.3674" y="-323.9" font-family="Arial" font-size="14.00" fill="#666666">[int(11)]</text>
<polygon fill="none" stroke="#000000" points="70,-282.5 70,-312.5 328,-312.5 328,-282.5 70,-282.5"/>
<text text-anchor="start" x="77" y="-293.9" font-family="Arial" font-size="14.00" fill="#000000">variant_sent_count </text>
<text text-anchor="start" x="199.1556" y="-293.9" font-family="Arial" font-size="14.00" fill="#666666">[int(11)]</text>
<polygon fill="none" stroke="#000000" points="70,-252.5 70,-282.5 328,-282.5 328,-252.5 70,-252.5"/>
<text text-anchor="start" x="77" y="-263.9" font-family="Arial" font-size="14.00" fill="#000000">variant_read_count </text>
<text text-anchor="start" x="200.7082" y="-263.9" font-family="Arial" font-size="14.00" fill="#666666">[int(11)]</text>
<polygon fill="none" stroke="#000000" points="70,-222.5 70,-252.5 328,-252.5 328,-222.5 70,-222.5"/>
<text text-anchor="start" x="77" y="-233.9" font-family="Arial" font-size="14.00" fill="#000000">revision </text>
<text text-anchor="start" x="129.1122" y="-233.9" font-family="Arial" font-size="14.00" fill="#666666">[int(11)]</text>
<polygon fill="none" stroke="#000000" points="70,-192.5 70,-222.5 328,-222.5 328,-192.5 70,-192.5"/>
<text text-anchor="start" x="77" y="-203.9" font-family="Arial" font-size="14.00" fill="#000000">lang </text>
<text text-anchor="start" x="107.345" y="-203.9" font-family="Arial" font-size="14.00" fill="#666666">[varchar(191)]</text>
<polygon fill="none" stroke="#000000" points="70,-162.5 70,-192.5 328,-192.5 328,-162.5 70,-162.5"/>
<text text-anchor="start" x="77" y="-173.9" font-family="Arial" font-size="14.00" fill="#000000">variant_settings </text>
<text text-anchor="start" x="178.9144" y="-173.9" font-family="Arial" font-size="14.00" fill="#666666">[longtext]</text>
<polygon fill="none" stroke="#000000" points="70,-132.5 70,-162.5 328,-162.5 328,-132.5 70,-132.5"/>
<text text-anchor="start" x="77" y="-143.9" font-family="Arial" font-size="14.00" fill="#000000">variant_start_date </text>
<text text-anchor="start" x="192.9242" y="-143.9" font-family="Arial" font-size="14.00" fill="#666666">[datetime]</text>
<polygon fill="none" stroke="#000000" points="70,-102.5 70,-132.5 328,-132.5 328,-102.5 70,-102.5"/>
<text text-anchor="start" x="77" y="-113.9" font-family="Arial" font-size="14.00" fill="#000000">dynamic_content </text>
<text text-anchor="start" x="186.6998" y="-113.9" font-family="Arial" font-size="14.00" fill="#666666">[longtext]</text>
<polygon fill="none" stroke="#000000" points="70,-72.5 70,-102.5 328,-102.5 328,-72.5 70,-72.5"/>
<text text-anchor="start" x="77" y="-83.9" font-family="Arial" font-size="14.00" fill="#000000">headers </text>
<text text-anchor="start" x="131.4642" y="-83.9" font-family="Arial" font-size="14.00" fill="#666666">[longtext]</text>
<polygon fill="none" stroke="#000000" points="70,-42.5 70,-72.5 328,-72.5 328,-42.5 70,-42.5"/>
<text text-anchor="start" x="77" y="-53.9" font-family="Arial" font-size="14.00" fill="#000000">public_preview </text>
<text text-anchor="start" x="173.4558" y="-53.9" font-family="Arial" font-size="14.00" fill="#666666">[tinyint(1)]</text>
</g>
<!-- email_assets_xref&#45;&gt;emails -->
<g id="edge1" class="edge">
<title>email_assets_xref:email_id&#45;&gt;emails:id</title>
<path fill="none" stroke="#000000" d="M237.8415,-1535.9513C211.4011,-1526.6401 228.2933,-1477.4782 248,-1447 269.1703,-1414.2583 306.8297,-1443.7417 328,-1411 350.5635,-1376.1037 369.5556,-1317.5 328,-1317.5"/>
<polygon fill="#000000" stroke="#000000" points="238.1142,-1535.9928 247.3218,-1541.9486 243.0571,-1536.7464 248,-1537.5 248,-1537.5 248,-1537.5 243.0571,-1536.7464 248.6782,-1533.0514 238.1142,-1535.9928 238.1142,-1535.9928"/>
<text text-anchor="start" x="6.507" y="-1547.5" font-family="Arial" font-size="10.00" fill="#000000">FOREIGN KEY (email_id) REFERENCES emails (id)</text>
</g>
<!-- assets -->
<g id="node3" class="node">
<title>assets</title>
<polygon fill="#efefef" stroke="transparent" points="433,-1122.5 433,-1157.5 674,-1157.5 674,-1122.5 433,-1122.5"/>
<polygon fill="none" stroke="#000000" points="433,-1122.5 433,-1157.5 674,-1157.5 674,-1122.5 433,-1122.5"/>
<text text-anchor="start" x="478.8658" y="-1135.3" font-family="Arial Bold" font-size="18.00" fill="#000000">assets</text>
<text text-anchor="start" x="530.8804" y="-1135.3" font-family="Arial" font-size="14.00" fill="#000000"> </text>
<text text-anchor="start" x="534.771" y="-1135.3" font-family="Arial" font-size="14.00" fill="#666666">[BASE TABLE]</text>
<polygon fill="none" stroke="#000000" points="433,-1092.5 433,-1122.5 674,-1122.5 674,-1092.5 433,-1092.5"/>
<text text-anchor="start" x="440" y="-1103.9" font-family="Arial" font-size="14.00" fill="#000000">id </text>
<text text-anchor="start" x="454.7798" y="-1103.9" font-family="Arial" font-size="14.00" fill="#666666">[int(10) unsigned]</text>
<polygon fill="none" stroke="#000000" points="433,-1062.5 433,-1092.5 674,-1092.5 674,-1062.5 433,-1062.5"/>
<text text-anchor="start" x="440" y="-1073.9" font-family="Arial" font-size="14.00" fill="#000000">category_id </text>
<text text-anchor="start" x="516.244" y="-1073.9" font-family="Arial" font-size="14.00" fill="#666666">[int(10) unsigned]</text>
<polygon fill="none" stroke="#000000" points="433,-1032.5 433,-1062.5 674,-1062.5 674,-1032.5 433,-1032.5"/>
<text text-anchor="start" x="440" y="-1043.9" font-family="Arial" font-size="14.00" fill="#000000">is_published </text>
<text text-anchor="start" x="521.6886" y="-1043.9" font-family="Arial" font-size="14.00" fill="#666666">[tinyint(1)]</text>
<polygon fill="none" stroke="#000000" points="433,-1002.5 433,-1032.5 674,-1032.5 674,-1002.5 433,-1002.5"/>
<text text-anchor="start" x="440" y="-1013.9" font-family="Arial" font-size="14.00" fill="#000000">date_added </text>
<text text-anchor="start" x="517.8246" y="-1013.9" font-family="Arial" font-size="14.00" fill="#666666">[datetime]</text>
<polygon fill="none" stroke="#000000" points="433,-972.5 433,-1002.5 674,-1002.5 674,-972.5 433,-972.5"/>
<text text-anchor="start" x="440" y="-983.9" font-family="Arial" font-size="14.00" fill="#000000">created_by </text>
<text text-anchor="start" x="513.1374" y="-983.9" font-family="Arial" font-size="14.00" fill="#666666">[int(11)]</text>
<polygon fill="none" stroke="#000000" points="433,-942.5 433,-972.5 674,-972.5 674,-942.5 433,-942.5"/>
<text text-anchor="start" x="440" y="-953.9" font-family="Arial" font-size="14.00" fill="#000000">created_by_user </text>
<text text-anchor="start" x="548.1458" y="-953.9" font-family="Arial" font-size="14.00" fill="#666666">[varchar(191)]</text>
<polygon fill="none" stroke="#000000" points="433,-912.5 433,-942.5 674,-942.5 674,-912.5 433,-912.5"/>
<text text-anchor="start" x="440" y="-923.9" font-family="Arial" font-size="14.00" fill="#000000">date_modified </text>
<text text-anchor="start" x="531.8064" y="-923.9" font-family="Arial" font-size="14.00" fill="#666666">[datetime]</text>
<polygon fill="none" stroke="#000000" points="433,-882.5 433,-912.5 674,-912.5 674,-882.5 433,-882.5"/>
<text text-anchor="start" x="440" y="-893.9" font-family="Arial" font-size="14.00" fill="#000000">modified_by </text>
<text text-anchor="start" x="519.3506" y="-893.9" font-family="Arial" font-size="14.00" fill="#666666">[int(11)]</text>
<polygon fill="none" stroke="#000000" points="433,-852.5 433,-882.5 674,-882.5 674,-852.5 433,-852.5"/>
<text text-anchor="start" x="440" y="-863.9" font-family="Arial" font-size="14.00" fill="#000000">modified_by_user </text>
<text text-anchor="start" x="554.359" y="-863.9" font-family="Arial" font-size="14.00" fill="#666666">[varchar(191)]</text>
<polygon fill="none" stroke="#000000" points="433,-822.5 433,-852.5 674,-852.5 674,-822.5 433,-822.5"/>
<text text-anchor="start" x="440" y="-833.9" font-family="Arial" font-size="14.00" fill="#000000">checked_out </text>
<text text-anchor="start" x="523.2594" y="-833.9" font-family="Arial" font-size="14.00" fill="#666666">[datetime]</text>
<polygon fill="none" stroke="#000000" points="433,-792.5 433,-822.5 674,-822.5 674,-792.5 433,-792.5"/>
<text text-anchor="start" x="440" y="-803.9" font-family="Arial" font-size="14.00" fill="#000000">checked_out_by </text>
<text text-anchor="start" x="545.8246" y="-803.9" font-family="Arial" font-size="14.00" fill="#666666">[int(11)]</text>
<polygon fill="none" stroke="#000000" points="433,-762.5 433,-792.5 674,-792.5 674,-762.5 433,-762.5"/>
<text text-anchor="start" x="439.5239" y="-773.9" font-family="Arial" font-size="14.00" fill="#000000">checked_out_by_user </text>
<text text-anchor="start" x="580.3569" y="-773.9" font-family="Arial" font-size="14.00" fill="#666666">[varchar(191)]</text>
<polygon fill="none" stroke="#000000" points="433,-732.5 433,-762.5 674,-762.5 674,-732.5 433,-732.5"/>
<text text-anchor="start" x="440" y="-743.9" font-family="Arial" font-size="14.00" fill="#000000">title </text>
<text text-anchor="start" x="465.6676" y="-743.9" font-family="Arial" font-size="14.00" fill="#666666">[varchar(191)]</text>
<polygon fill="none" stroke="#000000" points="433,-702.5 433,-732.5 674,-732.5 674,-702.5 433,-702.5"/>
<text text-anchor="start" x="440" y="-713.9" font-family="Arial" font-size="14.00" fill="#000000">description </text>
<text text-anchor="start" x="511.568" y="-713.9" font-family="Arial" font-size="14.00" fill="#666666">[longtext]</text>
<polygon fill="none" stroke="#000000" points="433,-672.5 433,-702.5 674,-702.5 674,-672.5 433,-672.5"/>
<text text-anchor="start" x="440" y="-683.9" font-family="Arial" font-size="14.00" fill="#000000">alias </text>
<text text-anchor="start" x="472.669" y="-683.9" font-family="Arial" font-size="14.00" fill="#666666">[varchar(191)]</text>
<polygon fill="none" stroke="#000000" points="433,-642.5 433,-672.5 674,-672.5 674,-642.5 433,-642.5"/>
<text text-anchor="start" x="440" y="-653.9" font-family="Arial" font-size="14.00" fill="#000000">storage_location </text>
<text text-anchor="start" x="546.589" y="-653.9" font-family="Arial" font-size="14.00" fill="#666666">[varchar(191)]</text>
<polygon fill="none" stroke="#000000" points="433,-612.5 433,-642.5 674,-642.5 674,-612.5 433,-612.5"/>
<text text-anchor="start" x="440" y="-623.9" font-family="Arial" font-size="14.00" fill="#000000">path </text>
<text text-anchor="start" x="471.129" y="-623.9" font-family="Arial" font-size="14.00" fill="#666666">[varchar(191)]</text>
<polygon fill="none" stroke="#000000" points="433,-582.5 433,-612.5 674,-612.5 674,-582.5 433,-582.5"/>
<text text-anchor="start" x="440" y="-593.9" font-family="Arial" font-size="14.00" fill="#000000">remote_path </text>
<text text-anchor="start" x="522.4712" y="-593.9" font-family="Arial" font-size="14.00" fill="#666666">[varchar(191)]</text>
<polygon fill="none" stroke="#000000" points="433,-552.5 433,-582.5 674,-582.5 674,-552.5 433,-552.5"/>
<text text-anchor="start" x="440" y="-563.9" font-family="Arial" font-size="14.00" fill="#000000">original_file_name </text>
<text text-anchor="start" x="557.4614" y="-563.9" font-family="Arial" font-size="14.00" fill="#666666">[varchar(191)]</text>
<polygon fill="none" stroke="#000000" points="433,-522.5 433,-552.5 674,-552.5 674,-522.5 433,-522.5"/>
<text text-anchor="start" x="440" y="-533.9" font-family="Arial" font-size="14.00" fill="#000000">lang </text>
<text text-anchor="start" x="470.345" y="-533.9" font-family="Arial" font-size="14.00" fill="#666666">[varchar(191)]</text>
<polygon fill="none" stroke="#000000" points="433,-492.5 433,-522.5 674,-522.5 674,-492.5 433,-492.5"/>
<text text-anchor="start" x="440" y="-503.9" font-family="Arial" font-size="14.00" fill="#000000">publish_up </text>
<text text-anchor="start" x="511.582" y="-503.9" font-family="Arial" font-size="14.00" fill="#666666">[datetime]</text>
<polygon fill="none" stroke="#000000" points="433,-462.5 433,-492.5 674,-492.5 674,-462.5 433,-462.5"/>
<text text-anchor="start" x="440" y="-473.9" font-family="Arial" font-size="14.00" fill="#000000">publish_down </text>
<text text-anchor="start" x="529.4712" y="-473.9" font-family="Arial" font-size="14.00" fill="#666666">[datetime]</text>
<polygon fill="none" stroke="#000000" points="433,-432.5 433,-462.5 674,-462.5 674,-432.5 433,-432.5"/>
<text text-anchor="start" x="440" y="-443.9" font-family="Arial" font-size="14.00" fill="#000000">download_count </text>
<text text-anchor="start" x="545.8204" y="-443.9" font-family="Arial" font-size="14.00" fill="#666666">[int(11)]</text>
<polygon fill="none" stroke="#000000" points="433,-402.5 433,-432.5 674,-432.5 674,-402.5 433,-402.5"/>
<text text-anchor="start" x="440" y="-413.9" font-family="Arial" font-size="14.00" fill="#000000">unique_download_count </text>
<text text-anchor="start" x="595.6226" y="-413.9" font-family="Arial" font-size="14.00" fill="#666666">[int(11)]</text>
<polygon fill="none" stroke="#000000" points="433,-372.5 433,-402.5 674,-402.5 674,-372.5 433,-372.5"/>
<text text-anchor="start" x="440" y="-383.9" font-family="Arial" font-size="14.00" fill="#000000">revision </text>
<text text-anchor="start" x="492.1122" y="-383.9" font-family="Arial" font-size="14.00" fill="#666666">[int(11)]</text>
<polygon fill="none" stroke="#000000" points="433,-342.5 433,-372.5 674,-372.5 674,-342.5 433,-342.5"/>
<text text-anchor="start" x="440" y="-353.9" font-family="Arial" font-size="14.00" fill="#000000">extension </text>
<text text-anchor="start" x="503.8008" y="-353.9" font-family="Arial" font-size="14.00" fill="#666666">[varchar(191)]</text>
<polygon fill="none" stroke="#000000" points="433,-312.5 433,-342.5 674,-342.5 674,-312.5 433,-312.5"/>
<text text-anchor="start" x="440" y="-323.9" font-family="Arial" font-size="14.00" fill="#000000">mime </text>
<text text-anchor="start" x="478.101" y="-323.9" font-family="Arial" font-size="14.00" fill="#666666">[varchar(191)]</text>
<polygon fill="none" stroke="#000000" points="433,-282.5 433,-312.5 674,-312.5 674,-282.5 433,-282.5"/>
<text text-anchor="start" x="440" y="-293.9" font-family="Arial" font-size="14.00" fill="#000000">size </text>
<text text-anchor="start" x="468.7798" y="-293.9" font-family="Arial" font-size="14.00" fill="#666666">[int(11)]</text>
<polygon fill="none" stroke="#000000" points="433,-252.5 433,-282.5 674,-282.5 674,-252.5 433,-252.5"/>
<text text-anchor="start" x="440" y="-263.9" font-family="Arial" font-size="14.00" fill="#000000">disallow </text>
<text text-anchor="start" x="493.6648" y="-263.9" font-family="Arial" font-size="14.00" fill="#666666">[tinyint(1)]</text>
</g>
<!-- email_assets_xref&#45;&gt;assets -->
<g id="edge2" class="edge">
<title>email_assets_xref:asset_id&#45;&gt;assets:id</title>
<path fill="none" stroke="#000000" d="M514.346,-1507.0022C667.0909,-1491.262 256.1462,-1107.5 433,-1107.5"/>
<polygon fill="#000000" stroke="#000000" points="513.9884,-1507.0193 503.7837,-1503.0052 508.9942,-1507.2597 504,-1507.5 504,-1507.5 504,-1507.5 508.9942,-1507.2597 504.2163,-1511.9948 513.9884,-1507.0193 513.9884,-1507.0193"/>
<text text-anchor="start" x="511.495" y="-1517.5" font-family="Arial" font-size="10.00" fill="#000000">FOREIGN KEY (asset_id) REFERENCES assets (id)</text>
</g>
</g>
</svg>
