<?xml version="1.0" encoding="UTF-8" standalone="no"?>
<!DOCTYPE svg PUBLIC "-//W3C//DTD SVG 1.1//EN"
 "http://www.w3.org/Graphics/SVG/1.1/DTD/svg11.dtd">
<!-- Generated by graphviz version 2.40.1 (20161225.0304)
 -->
<!-- Title: email_stat_replies Pages: 1 -->
<svg width="572pt" height="1042pt"
 viewBox="0.00 0.00 572.00 1042.00" xmlns="http://www.w3.org/2000/svg" xmlns:xlink="http://www.w3.org/1999/xlink">
<g id="graph0" class="graph" transform="scale(1 1) rotate(0) translate(4 1038)">
<title>email_stat_replies</title>
<polygon fill="#ffffff" stroke="transparent" points="-4,4 -4,-1038 568,-1038 568,4 -4,4"/>
<!-- email_stat_replies -->
<g id="node1" class="node">
<title>email_stat_replies</title>
<polygon fill="#efefef" stroke="transparent" points="46,-952.5 46,-987.5 302,-987.5 302,-952.5 46,-952.5"/>
<polygon fill="none" stroke="#000000" points="46,-952.5 46,-987.5 302,-987.5 302,-952.5 46,-952.5"/>
<text text-anchor="start" x="52.8655" y="-965.3" font-family="Arial Bold" font-size="18.00" fill="#000000">email_stat_replies</text>
<text text-anchor="start" x="197.8807" y="-965.3" font-family="Arial" font-size="14.00" fill="#000000"> </text>
<text text-anchor="start" x="201.7713" y="-965.3" font-family="Arial" font-size="14.00" fill="#666666">[BASE TABLE]</text>
<polygon fill="none" stroke="#000000" points="46,-922.5 46,-952.5 302,-952.5 302,-922.5 46,-922.5"/>
<text text-anchor="start" x="53" y="-933.9" font-family="Arial" font-size="14.00" fill="#000000">id </text>
<text text-anchor="start" x="67.7798" y="-933.9" font-family="Arial" font-size="14.00" fill="#666666">[char(36)]</text>
<polygon fill="none" stroke="#000000" points="46,-892.5 46,-922.5 302,-922.5 302,-892.5 46,-892.5"/>
<text text-anchor="start" x="53" y="-903.9" font-family="Arial" font-size="14.00" fill="#000000">stat_id </text>
<text text-anchor="start" x="98.1262" y="-903.9" font-family="Arial" font-size="14.00" fill="#666666">[bigint(20) unsigned]</text>
<polygon fill="none" stroke="#000000" points="46,-862.5 46,-892.5 302,-892.5 302,-862.5 46,-862.5"/>
<text text-anchor="start" x="53" y="-873.9" font-family="Arial" font-size="14.00" fill="#000000">date_replied </text>
<text text-anchor="start" x="133.9158" y="-873.9" font-family="Arial" font-size="14.00" fill="#666666">[datetime]</text>
<polygon fill="none" stroke="#000000" points="46,-832.5 46,-862.5 302,-862.5 302,-832.5 46,-832.5"/>
<text text-anchor="start" x="53" y="-843.9" font-family="Arial" font-size="14.00" fill="#000000">message_id </text>
<text text-anchor="start" x="132.3534" y="-843.9" font-family="Arial" font-size="14.00" fill="#666666">[varchar(191)]</text>
<polygon fill="none" stroke="#000000" stroke-width="3" points="44.5,-831.5 44.5,-989.5 303.5,-989.5 303.5,-831.5 44.5,-831.5"/>
</g>
<!-- email_stats -->
<g id="node2" class="node">
<title>email_stats</title>
<polygon fill="#efefef" stroke="transparent" points="73,-672.5 73,-707.5 275,-707.5 275,-672.5 73,-672.5"/>
<polygon fill="none" stroke="#000000" points="73,-672.5 73,-707.5 275,-707.5 275,-672.5 73,-672.5"/>
<text text-anchor="start" x="79.8682" y="-685.3" font-family="Arial Bold" font-size="18.00" fill="#000000">email_stats</text>
<text text-anchor="start" x="170.878" y="-685.3" font-family="Arial" font-size="14.00" fill="#000000"> </text>
<text text-anchor="start" x="174.7686" y="-685.3" font-family="Arial" font-size="14.00" fill="#666666">[BASE TABLE]</text>
<polygon fill="none" stroke="#000000" points="73,-642.5 73,-672.5 275,-672.5 275,-642.5 73,-642.5"/>
<text text-anchor="start" x="80" y="-653.9" font-family="Arial" font-size="14.00" fill="#000000">id </text>
<text text-anchor="start" x="94.7798" y="-653.9" font-family="Arial" font-size="14.00" fill="#666666">[bigint(20) unsigned]</text>
<polygon fill="none" stroke="#000000" points="73,-612.5 73,-642.5 275,-642.5 275,-612.5 73,-612.5"/>
<text text-anchor="start" x="80" y="-623.9" font-family="Arial" font-size="14.00" fill="#000000">email_id </text>
<text text-anchor="start" x="136.0014" y="-623.9" font-family="Arial" font-size="14.00" fill="#666666">[int(10) unsigned]</text>
<polygon fill="none" stroke="#000000" points="73,-582.5 73,-612.5 275,-612.5 275,-582.5 73,-582.5"/>
<text text-anchor="start" x="80" y="-593.9" font-family="Arial" font-size="14.00" fill="#000000">lead_id </text>
<text text-anchor="start" x="129.0168" y="-593.9" font-family="Arial" font-size="14.00" fill="#666666">[bigint(20) unsigned]</text>
<polygon fill="none" stroke="#000000" points="73,-552.5 73,-582.5 275,-582.5 275,-552.5 73,-552.5"/>
<text text-anchor="start" x="80" y="-563.9" font-family="Arial" font-size="14.00" fill="#000000">list_id </text>
<text text-anchor="start" x="119.6662" y="-563.9" font-family="Arial" font-size="14.00" fill="#666666">[int(10) unsigned]</text>
<polygon fill="none" stroke="#000000" points="73,-522.5 73,-552.5 275,-552.5 275,-522.5 73,-522.5"/>
<text text-anchor="start" x="80" y="-533.9" font-family="Arial" font-size="14.00" fill="#000000">ip_id </text>
<text text-anchor="start" x="113.4516" y="-533.9" font-family="Arial" font-size="14.00" fill="#666666">[int(10) unsigned]</text>
<polygon fill="none" stroke="#000000" points="73,-492.5 73,-522.5 275,-522.5 275,-492.5 73,-492.5"/>
<text text-anchor="start" x="80" y="-503.9" font-family="Arial" font-size="14.00" fill="#000000">copy_id </text>
<text text-anchor="start" x="132.1276" y="-503.9" font-family="Arial" font-size="14.00" fill="#666666">[varchar(32)]</text>
<polygon fill="none" stroke="#000000" points="73,-462.5 73,-492.5 275,-492.5 275,-462.5 73,-462.5"/>
<text text-anchor="start" x="80" y="-473.9" font-family="Arial" font-size="14.00" fill="#000000">email_address </text>
<text text-anchor="start" x="174.9032" y="-473.9" font-family="Arial" font-size="14.00" fill="#666666">[varchar(191)]</text>
<polygon fill="none" stroke="#000000" points="73,-432.5 73,-462.5 275,-462.5 275,-432.5 73,-432.5"/>
<text text-anchor="start" x="80" y="-443.9" font-family="Arial" font-size="14.00" fill="#000000">date_sent </text>
<text text-anchor="start" x="145.3674" y="-443.9" font-family="Arial" font-size="14.00" fill="#666666">[datetime]</text>
<polygon fill="none" stroke="#000000" points="73,-402.5 73,-432.5 275,-432.5 275,-402.5 73,-402.5"/>
<text text-anchor="start" x="80" y="-413.9" font-family="Arial" font-size="14.00" fill="#000000">is_read </text>
<text text-anchor="start" x="129.7882" y="-413.9" font-family="Arial" font-size="14.00" fill="#666666">[tinyint(1)]</text>
<polygon fill="none" stroke="#000000" points="73,-372.5 73,-402.5 275,-402.5 275,-372.5 73,-372.5"/>
<text text-anchor="start" x="80" y="-383.9" font-family="Arial" font-size="14.00" fill="#000000">is_failed </text>
<text text-anchor="start" x="135.2314" y="-383.9" font-family="Arial" font-size="14.00" fill="#666666">[tinyint(1)]</text>
<polygon fill="none" stroke="#000000" points="73,-342.5 73,-372.5 275,-372.5 275,-342.5 73,-342.5"/>
<text text-anchor="start" x="80" y="-353.9" font-family="Arial" font-size="14.00" fill="#000000">viewed_in_browser </text>
<text text-anchor="start" x="203.6816" y="-353.9" font-family="Arial" font-size="14.00" fill="#666666">[tinyint(1)]</text>
<polygon fill="none" stroke="#000000" points="73,-312.5 73,-342.5 275,-342.5 275,-312.5 73,-312.5"/>
<text text-anchor="start" x="80" y="-323.9" font-family="Arial" font-size="14.00" fill="#000000">date_read </text>
<text text-anchor="start" x="146.92" y="-323.9" font-family="Arial" font-size="14.00" fill="#666666">[datetime]</text>
<polygon fill="none" stroke="#000000" points="73,-282.5 73,-312.5 275,-312.5 275,-282.5 73,-282.5"/>
<text text-anchor="start" x="80" y="-293.9" font-family="Arial" font-size="14.00" fill="#000000">tracking_hash </text>
<text text-anchor="start" x="171.0266" y="-293.9" font-family="Arial" font-size="14.00" fill="#666666">[varchar(191)]</text>
<polygon fill="none" stroke="#000000" points="73,-252.5 73,-282.5 275,-282.5 275,-252.5 73,-252.5"/>
<text text-anchor="start" x="80" y="-263.9" font-family="Arial" font-size="14.00" fill="#000000">retry_count </text>
<text text-anchor="start" x="153.906" y="-263.9" font-family="Arial" font-size="14.00" fill="#666666">[int(11)]</text>
<polygon fill="none" stroke="#000000" points="73,-222.5 73,-252.5 275,-252.5 275,-222.5 73,-222.5"/>
<text text-anchor="start" x="80" y="-233.9" font-family="Arial" font-size="14.00" fill="#000000">source </text>
<text text-anchor="start" x="125.899" y="-233.9" font-family="Arial" font-size="14.00" fill="#666666">[varchar(191)]</text>
<polygon fill="none" stroke="#000000" points="73,-192.5 73,-222.5 275,-222.5 275,-192.5 73,-192.5"/>
<text text-anchor="start" x="80" y="-203.9" font-family="Arial" font-size="14.00" fill="#000000">source_id </text>
<text text-anchor="start" x="144.5708" y="-203.9" font-family="Arial" font-size="14.00" fill="#666666">[int(11)]</text>
<polygon fill="none" stroke="#000000" points="73,-162.5 73,-192.5 275,-192.5 275,-162.5 73,-162.5"/>
<text text-anchor="start" x="80" y="-173.9" font-family="Arial" font-size="14.00" fill="#000000">tokens </text>
<text text-anchor="start" x="125.129" y="-173.9" font-family="Arial" font-size="14.00" fill="#666666">[longtext]</text>
<polygon fill="none" stroke="#000000" points="73,-132.5 73,-162.5 275,-162.5 275,-132.5 73,-132.5"/>
<text text-anchor="start" x="80" y="-143.9" font-family="Arial" font-size="14.00" fill="#000000">open_count </text>
<text text-anchor="start" x="157.042" y="-143.9" font-family="Arial" font-size="14.00" fill="#666666">[int(11)]</text>
<polygon fill="none" stroke="#000000" points="73,-102.5 73,-132.5 275,-132.5 275,-102.5 73,-102.5"/>
<text text-anchor="start" x="80" y="-113.9" font-family="Arial" font-size="14.00" fill="#000000">last_opened </text>
<text text-anchor="start" x="160.1486" y="-113.9" font-family="Arial" font-size="14.00" fill="#666666">[datetime]</text>
<polygon fill="none" stroke="#000000" points="73,-72.5 73,-102.5 275,-102.5 275,-72.5 73,-72.5"/>
<text text-anchor="start" x="80" y="-83.9" font-family="Arial" font-size="14.00" fill="#000000">open_details </text>
<text text-anchor="start" x="163.2552" y="-83.9" font-family="Arial" font-size="14.00" fill="#666666">[longtext]</text>
<polygon fill="none" stroke="#000000" points="73,-42.5 73,-72.5 275,-72.5 275,-42.5 73,-42.5"/>
<text text-anchor="start" x="80" y="-53.9" font-family="Arial" font-size="14.00" fill="#000000">generated_sent_date </text>
<text text-anchor="start" x="216.1794" y="-53.9" font-family="Arial" font-size="14.00" fill="#666666">[date]</text>
</g>
<!-- email_stat_replies&#45;&gt;email_stats -->
<g id="edge1" class="edge">
<title>email_stat_replies:stat_id&#45;&gt;email_stats:id</title>
<path fill="none" stroke="#000000" d="M312.0724,-906.7828C411.987,-892.1191 383.2648,-657.5 275,-657.5"/>
<polygon fill="#000000" stroke="#000000" points="311.9747,-906.7897 301.6804,-903.0114 306.9874,-907.1448 302,-907.5 302,-907.5 302,-907.5 306.9874,-907.1448 302.3196,-911.9886 311.9747,-906.7897 311.9747,-906.7897"/>
<text text-anchor="start" x="308.553" y="-917.5" font-family="Arial" font-size="10.00" fill="#000000">FOREIGN KEY (stat_id) REFERENCES email_stats (id)</text>
</g>
</g>
</svg>
