<?xml version="1.0" encoding="UTF-8" standalone="no"?>
<!DOCTYPE svg PUBLIC "-//W3C//DTD SVG 1.1//EN"
 "http://www.w3.org/Graphics/SVG/1.1/DTD/svg11.dtd">
<!-- Generated by graphviz version 2.40.1 (20161225.0304)
 -->
<!-- Title: focus Pages: 1 -->
<svg width="575pt" height="1889pt"
 viewBox="0.00 0.00 574.50 1889.00" xmlns="http://www.w3.org/2000/svg" xmlns:xlink="http://www.w3.org/1999/xlink">
<g id="graph0" class="graph" transform="scale(1 1) rotate(0) translate(4 1885)">
<title>focus</title>
<polygon fill="#ffffff" stroke="transparent" points="-4,4 -4,-1885 570.5,-1885 570.5,4 -4,4"/>
<!-- focus -->
<g id="node1" class="node">
<title>focus</title>
<polygon fill="#efefef" stroke="transparent" points="280,-1462.5 280,-1497.5 521,-1497.5 521,-1462.5 280,-1462.5"/>
<polygon fill="none" stroke="#000000" points="280,-1462.5 280,-1497.5 521,-1497.5 521,-1462.5 280,-1462.5"/>
<text text-anchor="start" x="330.3658" y="-1475.3" font-family="Arial Bold" font-size="18.00" fill="#000000">focus</text>
<text text-anchor="start" x="373.3804" y="-1475.3" font-family="Arial" font-size="14.00" fill="#000000"> </text>
<text text-anchor="start" x="377.271" y="-1475.3" font-family="Arial" font-size="14.00" fill="#666666">[BASE TABLE]</text>
<polygon fill="none" stroke="#000000" points="280,-1432.5 280,-1462.5 521,-1462.5 521,-1432.5 280,-1432.5"/>
<text text-anchor="start" x="287" y="-1443.9" font-family="Arial" font-size="14.00" fill="#000000">id </text>
<text text-anchor="start" x="301.7798" y="-1443.9" font-family="Arial" font-size="14.00" fill="#666666">[int(10) unsigned]</text>
<polygon fill="none" stroke="#000000" points="280,-1402.5 280,-1432.5 521,-1432.5 521,-1402.5 280,-1402.5"/>
<text text-anchor="start" x="287" y="-1413.9" font-family="Arial" font-size="14.00" fill="#000000">category_id </text>
<text text-anchor="start" x="363.244" y="-1413.9" font-family="Arial" font-size="14.00" fill="#666666">[int(10) unsigned]</text>
<polygon fill="none" stroke="#000000" points="280,-1372.5 280,-1402.5 521,-1402.5 521,-1372.5 280,-1372.5"/>
<text text-anchor="start" x="287" y="-1383.9" font-family="Arial" font-size="14.00" fill="#000000">is_published </text>
<text text-anchor="start" x="368.6886" y="-1383.9" font-family="Arial" font-size="14.00" fill="#666666">[tinyint(1)]</text>
<polygon fill="none" stroke="#000000" points="280,-1342.5 280,-1372.5 521,-1372.5 521,-1342.5 280,-1342.5"/>
<text text-anchor="start" x="287" y="-1353.9" font-family="Arial" font-size="14.00" fill="#000000">date_added </text>
<text text-anchor="start" x="364.8246" y="-1353.9" font-family="Arial" font-size="14.00" fill="#666666">[datetime]</text>
<polygon fill="none" stroke="#000000" points="280,-1312.5 280,-1342.5 521,-1342.5 521,-1312.5 280,-1312.5"/>
<text text-anchor="start" x="287" y="-1323.9" font-family="Arial" font-size="14.00" fill="#000000">created_by </text>
<text text-anchor="start" x="360.1374" y="-1323.9" font-family="Arial" font-size="14.00" fill="#666666">[int(11)]</text>
<polygon fill="none" stroke="#000000" points="280,-1282.5 280,-1312.5 521,-1312.5 521,-1282.5 280,-1282.5"/>
<text text-anchor="start" x="287" y="-1293.9" font-family="Arial" font-size="14.00" fill="#000000">created_by_user </text>
<text text-anchor="start" x="395.1458" y="-1293.9" font-family="Arial" font-size="14.00" fill="#666666">[varchar(191)]</text>
<polygon fill="none" stroke="#000000" points="280,-1252.5 280,-1282.5 521,-1282.5 521,-1252.5 280,-1252.5"/>
<text text-anchor="start" x="287" y="-1263.9" font-family="Arial" font-size="14.00" fill="#000000">date_modified </text>
<text text-anchor="start" x="378.8064" y="-1263.9" font-family="Arial" font-size="14.00" fill="#666666">[datetime]</text>
<polygon fill="none" stroke="#000000" points="280,-1222.5 280,-1252.5 521,-1252.5 521,-1222.5 280,-1222.5"/>
<text text-anchor="start" x="287" y="-1233.9" font-family="Arial" font-size="14.00" fill="#000000">modified_by </text>
<text text-anchor="start" x="366.3506" y="-1233.9" font-family="Arial" font-size="14.00" fill="#666666">[int(11)]</text>
<polygon fill="none" stroke="#000000" points="280,-1192.5 280,-1222.5 521,-1222.5 521,-1192.5 280,-1192.5"/>
<text text-anchor="start" x="287" y="-1203.9" font-family="Arial" font-size="14.00" fill="#000000">modified_by_user </text>
<text text-anchor="start" x="401.359" y="-1203.9" font-family="Arial" font-size="14.00" fill="#666666">[varchar(191)]</text>
<polygon fill="none" stroke="#000000" points="280,-1162.5 280,-1192.5 521,-1192.5 521,-1162.5 280,-1162.5"/>
<text text-anchor="start" x="287" y="-1173.9" font-family="Arial" font-size="14.00" fill="#000000">checked_out </text>
<text text-anchor="start" x="370.2594" y="-1173.9" font-family="Arial" font-size="14.00" fill="#666666">[datetime]</text>
<polygon fill="none" stroke="#000000" points="280,-1132.5 280,-1162.5 521,-1162.5 521,-1132.5 280,-1132.5"/>
<text text-anchor="start" x="287" y="-1143.9" font-family="Arial" font-size="14.00" fill="#000000">checked_out_by </text>
<text text-anchor="start" x="392.8246" y="-1143.9" font-family="Arial" font-size="14.00" fill="#666666">[int(11)]</text>
<polygon fill="none" stroke="#000000" points="280,-1102.5 280,-1132.5 521,-1132.5 521,-1102.5 280,-1102.5"/>
<text text-anchor="start" x="286.5239" y="-1113.9" font-family="Arial" font-size="14.00" fill="#000000">checked_out_by_user </text>
<text text-anchor="start" x="427.3569" y="-1113.9" font-family="Arial" font-size="14.00" fill="#666666">[varchar(191)]</text>
<polygon fill="none" stroke="#000000" points="280,-1072.5 280,-1102.5 521,-1102.5 521,-1072.5 280,-1072.5"/>
<text text-anchor="start" x="287" y="-1083.9" font-family="Arial" font-size="14.00" fill="#000000">name </text>
<text text-anchor="start" x="325.899" y="-1083.9" font-family="Arial" font-size="14.00" fill="#666666">[varchar(191)]</text>
<polygon fill="none" stroke="#000000" points="280,-1042.5 280,-1072.5 521,-1072.5 521,-1042.5 280,-1042.5"/>
<text text-anchor="start" x="287" y="-1053.9" font-family="Arial" font-size="14.00" fill="#000000">description </text>
<text text-anchor="start" x="358.568" y="-1053.9" font-family="Arial" font-size="14.00" fill="#666666">[longtext]</text>
<polygon fill="none" stroke="#000000" points="280,-1012.5 280,-1042.5 521,-1042.5 521,-1012.5 280,-1012.5"/>
<text text-anchor="start" x="287" y="-1023.9" font-family="Arial" font-size="14.00" fill="#000000">focus_type </text>
<text text-anchor="start" x="358.5848" y="-1023.9" font-family="Arial" font-size="14.00" fill="#666666">[varchar(191)]</text>
<polygon fill="none" stroke="#000000" points="280,-982.5 280,-1012.5 521,-1012.5 521,-982.5 280,-982.5"/>
<text text-anchor="start" x="287" y="-993.9" font-family="Arial" font-size="14.00" fill="#000000">style </text>
<text text-anchor="start" x="319.6704" y="-993.9" font-family="Arial" font-size="14.00" fill="#666666">[varchar(191)]</text>
<polygon fill="none" stroke="#000000" points="280,-952.5 280,-982.5 521,-982.5 521,-952.5 280,-952.5"/>
<text text-anchor="start" x="287" y="-963.9" font-family="Arial" font-size="14.00" fill="#000000">website </text>
<text text-anchor="start" x="338.3422" y="-963.9" font-family="Arial" font-size="14.00" fill="#666666">[varchar(191)]</text>
<polygon fill="none" stroke="#000000" points="280,-922.5 280,-952.5 521,-952.5 521,-922.5 280,-922.5"/>
<text text-anchor="start" x="287" y="-933.9" font-family="Arial" font-size="14.00" fill="#000000">publish_up </text>
<text text-anchor="start" x="358.582" y="-933.9" font-family="Arial" font-size="14.00" fill="#666666">[datetime]</text>
<polygon fill="none" stroke="#000000" points="280,-892.5 280,-922.5 521,-922.5 521,-892.5 280,-892.5"/>
<text text-anchor="start" x="287" y="-903.9" font-family="Arial" font-size="14.00" fill="#000000">publish_down </text>
<text text-anchor="start" x="376.4712" y="-903.9" font-family="Arial" font-size="14.00" fill="#666666">[datetime]</text>
<polygon fill="none" stroke="#000000" points="280,-862.5 280,-892.5 521,-892.5 521,-862.5 280,-862.5"/>
<text text-anchor="start" x="287" y="-873.9" font-family="Arial" font-size="14.00" fill="#000000">properties </text>
<text text-anchor="start" x="353.122" y="-873.9" font-family="Arial" font-size="14.00" fill="#666666">[longtext]</text>
<polygon fill="none" stroke="#000000" points="280,-832.5 280,-862.5 521,-862.5 521,-832.5 280,-832.5"/>
<text text-anchor="start" x="287" y="-843.9" font-family="Arial" font-size="14.00" fill="#000000">utm_tags </text>
<text text-anchor="start" x="348.4628" y="-843.9" font-family="Arial" font-size="14.00" fill="#666666">[longtext]</text>
<polygon fill="none" stroke="#000000" points="280,-802.5 280,-832.5 521,-832.5 521,-802.5 280,-802.5"/>
<text text-anchor="start" x="287" y="-813.9" font-family="Arial" font-size="14.00" fill="#000000">form_id </text>
<text text-anchor="start" x="337.5568" y="-813.9" font-family="Arial" font-size="14.00" fill="#666666">[int(11)]</text>
<polygon fill="none" stroke="#000000" points="280,-772.5 280,-802.5 521,-802.5 521,-772.5 280,-772.5"/>
<text text-anchor="start" x="287" y="-783.9" font-family="Arial" font-size="14.00" fill="#000000">cache </text>
<text text-anchor="start" x="328.2384" y="-783.9" font-family="Arial" font-size="14.00" fill="#666666">[longtext]</text>
<polygon fill="none" stroke="#000000" points="280,-742.5 280,-772.5 521,-772.5 521,-742.5 280,-742.5"/>
<text text-anchor="start" x="287" y="-753.9" font-family="Arial" font-size="14.00" fill="#000000">html_mode </text>
<text text-anchor="start" x="360.122" y="-753.9" font-family="Arial" font-size="14.00" fill="#666666">[varchar(191)]</text>
<polygon fill="none" stroke="#000000" points="280,-712.5 280,-742.5 521,-742.5 521,-712.5 280,-712.5"/>
<text text-anchor="start" x="287" y="-723.9" font-family="Arial" font-size="14.00" fill="#000000">editor </text>
<text text-anchor="start" x="325.8962" y="-723.9" font-family="Arial" font-size="14.00" fill="#666666">[longtext]</text>
<polygon fill="none" stroke="#000000" points="280,-682.5 280,-712.5 521,-712.5 521,-682.5 280,-682.5"/>
<text text-anchor="start" x="287" y="-693.9" font-family="Arial" font-size="14.00" fill="#000000">html </text>
<text text-anchor="start" x="317.331" y="-693.9" font-family="Arial" font-size="14.00" fill="#666666">[longtext]</text>
<polygon fill="none" stroke="#000000" stroke-width="3" points="278,-681.5 278,-1499.5 522,-1499.5 522,-681.5 278,-681.5"/>
</g>
<!-- categories -->
<g id="node3" class="node">
<title>categories</title>
<polygon fill="#efefef" stroke="transparent" points="280,-522.5 280,-557.5 521,-557.5 521,-522.5 280,-522.5"/>
<polygon fill="none" stroke="#000000" points="280,-522.5 280,-557.5 521,-557.5 521,-522.5 280,-522.5"/>
<text text-anchor="start" x="310.3633" y="-535.3" font-family="Arial Bold" font-size="18.00" fill="#000000">categories</text>
<text text-anchor="start" x="393.3829" y="-535.3" font-family="Arial" font-size="14.00" fill="#000000"> </text>
<text text-anchor="start" x="397.2735" y="-535.3" font-family="Arial" font-size="14.00" fill="#666666">[BASE TABLE]</text>
<polygon fill="none" stroke="#000000" points="280,-492.5 280,-522.5 521,-522.5 521,-492.5 280,-492.5"/>
<text text-anchor="start" x="287" y="-503.9" font-family="Arial" font-size="14.00" fill="#000000">id </text>
<text text-anchor="start" x="301.7798" y="-503.9" font-family="Arial" font-size="14.00" fill="#666666">[int(10) unsigned]</text>
<polygon fill="none" stroke="#000000" points="280,-462.5 280,-492.5 521,-492.5 521,-462.5 280,-462.5"/>
<text text-anchor="start" x="287" y="-473.9" font-family="Arial" font-size="14.00" fill="#000000">is_published </text>
<text text-anchor="start" x="368.6886" y="-473.9" font-family="Arial" font-size="14.00" fill="#666666">[tinyint(1)]</text>
<polygon fill="none" stroke="#000000" points="280,-432.5 280,-462.5 521,-462.5 521,-432.5 280,-432.5"/>
<text text-anchor="start" x="287" y="-443.9" font-family="Arial" font-size="14.00" fill="#000000">date_added </text>
<text text-anchor="start" x="364.8246" y="-443.9" font-family="Arial" font-size="14.00" fill="#666666">[datetime]</text>
<polygon fill="none" stroke="#000000" points="280,-402.5 280,-432.5 521,-432.5 521,-402.5 280,-402.5"/>
<text text-anchor="start" x="287" y="-413.9" font-family="Arial" font-size="14.00" fill="#000000">created_by </text>
<text text-anchor="start" x="360.1374" y="-413.9" font-family="Arial" font-size="14.00" fill="#666666">[int(11)]</text>
<polygon fill="none" stroke="#000000" points="280,-372.5 280,-402.5 521,-402.5 521,-372.5 280,-372.5"/>
<text text-anchor="start" x="287" y="-383.9" font-family="Arial" font-size="14.00" fill="#000000">created_by_user </text>
<text text-anchor="start" x="395.1458" y="-383.9" font-family="Arial" font-size="14.00" fill="#666666">[varchar(191)]</text>
<polygon fill="none" stroke="#000000" points="280,-342.5 280,-372.5 521,-372.5 521,-342.5 280,-342.5"/>
<text text-anchor="start" x="287" y="-353.9" font-family="Arial" font-size="14.00" fill="#000000">date_modified </text>
<text text-anchor="start" x="378.8064" y="-353.9" font-family="Arial" font-size="14.00" fill="#666666">[datetime]</text>
<polygon fill="none" stroke="#000000" points="280,-312.5 280,-342.5 521,-342.5 521,-312.5 280,-312.5"/>
<text text-anchor="start" x="287" y="-323.9" font-family="Arial" font-size="14.00" fill="#000000">modified_by </text>
<text text-anchor="start" x="366.3506" y="-323.9" font-family="Arial" font-size="14.00" fill="#666666">[int(11)]</text>
<polygon fill="none" stroke="#000000" points="280,-282.5 280,-312.5 521,-312.5 521,-282.5 280,-282.5"/>
<text text-anchor="start" x="287" y="-293.9" font-family="Arial" font-size="14.00" fill="#000000">modified_by_user </text>
<text text-anchor="start" x="401.359" y="-293.9" font-family="Arial" font-size="14.00" fill="#666666">[varchar(191)]</text>
<polygon fill="none" stroke="#000000" points="280,-252.5 280,-282.5 521,-282.5 521,-252.5 280,-252.5"/>
<text text-anchor="start" x="287" y="-263.9" font-family="Arial" font-size="14.00" fill="#000000">checked_out </text>
<text text-anchor="start" x="370.2594" y="-263.9" font-family="Arial" font-size="14.00" fill="#666666">[datetime]</text>
<polygon fill="none" stroke="#000000" points="280,-222.5 280,-252.5 521,-252.5 521,-222.5 280,-222.5"/>
<text text-anchor="start" x="287" y="-233.9" font-family="Arial" font-size="14.00" fill="#000000">checked_out_by </text>
<text text-anchor="start" x="392.8246" y="-233.9" font-family="Arial" font-size="14.00" fill="#666666">[int(11)]</text>
<polygon fill="none" stroke="#000000" points="280,-192.5 280,-222.5 521,-222.5 521,-192.5 280,-192.5"/>
<text text-anchor="start" x="286.5239" y="-203.9" font-family="Arial" font-size="14.00" fill="#000000">checked_out_by_user </text>
<text text-anchor="start" x="427.3569" y="-203.9" font-family="Arial" font-size="14.00" fill="#666666">[varchar(191)]</text>
<polygon fill="none" stroke="#000000" points="280,-162.5 280,-192.5 521,-192.5 521,-162.5 280,-162.5"/>
<text text-anchor="start" x="287" y="-173.9" font-family="Arial" font-size="14.00" fill="#000000">title </text>
<text text-anchor="start" x="312.6676" y="-173.9" font-family="Arial" font-size="14.00" fill="#666666">[varchar(191)]</text>
<polygon fill="none" stroke="#000000" points="280,-132.5 280,-162.5 521,-162.5 521,-132.5 280,-132.5"/>
<text text-anchor="start" x="287" y="-143.9" font-family="Arial" font-size="14.00" fill="#000000">description </text>
<text text-anchor="start" x="358.568" y="-143.9" font-family="Arial" font-size="14.00" fill="#666666">[longtext]</text>
<polygon fill="none" stroke="#000000" points="280,-102.5 280,-132.5 521,-132.5 521,-102.5 280,-102.5"/>
<text text-anchor="start" x="287" y="-113.9" font-family="Arial" font-size="14.00" fill="#000000">alias </text>
<text text-anchor="start" x="319.669" y="-113.9" font-family="Arial" font-size="14.00" fill="#666666">[varchar(191)]</text>
<polygon fill="none" stroke="#000000" points="280,-72.5 280,-102.5 521,-102.5 521,-72.5 280,-72.5"/>
<text text-anchor="start" x="287" y="-83.9" font-family="Arial" font-size="14.00" fill="#000000">color </text>
<text text-anchor="start" x="321.223" y="-83.9" font-family="Arial" font-size="14.00" fill="#666666">[varchar(7)]</text>
<polygon fill="none" stroke="#000000" points="280,-42.5 280,-72.5 521,-72.5 521,-42.5 280,-42.5"/>
<text text-anchor="start" x="287" y="-53.9" font-family="Arial" font-size="14.00" fill="#000000">bundle </text>
<text text-anchor="start" x="332.9102" y="-53.9" font-family="Arial" font-size="14.00" fill="#666666">[varchar(50)]</text>
</g>
<!-- focus&#45;&gt;categories -->
<g id="edge2" class="edge">
<title>focus:category_id&#45;&gt;categories:id</title>
<path fill="none" stroke="#000000" d="M270.2628,-1414.5569C179.0004,-1358.0735 182.2461,-507.5 280,-507.5"/>
<polygon fill="#000000" stroke="#000000" points="270.4277,-1414.6067 278.698,-1421.8075 275.2138,-1416.0534 280,-1417.5 280,-1417.5 280,-1417.5 275.2138,-1416.0534 281.302,-1413.1925 270.4277,-1414.6067 270.4277,-1414.6067"/>
<text text-anchor="start" x="6.659" y="-1427.5" font-family="Arial" font-size="10.00" fill="#000000">FOREIGN KEY (category_id) REFERENCES categories (id)</text>
</g>
<!-- focus_stats -->
<g id="node2" class="node">
<title>focus_stats</title>
<polygon fill="#efefef" stroke="transparent" points="300,-1802.5 300,-1837.5 502,-1837.5 502,-1802.5 300,-1802.5"/>
<polygon fill="none" stroke="#000000" points="300,-1802.5 300,-1837.5 502,-1837.5 502,-1802.5 300,-1802.5"/>
<text text-anchor="start" x="306.8574" y="-1815.3" font-family="Arial Bold" font-size="18.00" fill="#000000">focus_stats</text>
<text text-anchor="start" x="397.8888" y="-1815.3" font-family="Arial" font-size="14.00" fill="#000000"> </text>
<text text-anchor="start" x="401.7794" y="-1815.3" font-family="Arial" font-size="14.00" fill="#666666">[BASE TABLE]</text>
<polygon fill="none" stroke="#000000" points="300,-1772.5 300,-1802.5 502,-1802.5 502,-1772.5 300,-1772.5"/>
<text text-anchor="start" x="307" y="-1783.9" font-family="Arial" font-size="14.00" fill="#000000">id </text>
<text text-anchor="start" x="321.7798" y="-1783.9" font-family="Arial" font-size="14.00" fill="#666666">[int(10) unsigned]</text>
<polygon fill="none" stroke="#000000" points="300,-1742.5 300,-1772.5 502,-1772.5 502,-1742.5 300,-1742.5"/>
<text text-anchor="start" x="307" y="-1753.9" font-family="Arial" font-size="14.00" fill="#000000">focus_id </text>
<text text-anchor="start" x="363.0182" y="-1753.9" font-family="Arial" font-size="14.00" fill="#666666">[int(10) unsigned]</text>
<polygon fill="none" stroke="#000000" points="300,-1712.5 300,-1742.5 502,-1742.5 502,-1712.5 300,-1712.5"/>
<text text-anchor="start" x="307" y="-1723.9" font-family="Arial" font-size="14.00" fill="#000000">lead_id </text>
<text text-anchor="start" x="356.0168" y="-1723.9" font-family="Arial" font-size="14.00" fill="#666666">[bigint(20) unsigned]</text>
<polygon fill="none" stroke="#000000" points="300,-1682.5 300,-1712.5 502,-1712.5 502,-1682.5 300,-1682.5"/>
<text text-anchor="start" x="307" y="-1693.9" font-family="Arial" font-size="14.00" fill="#000000">type </text>
<text text-anchor="start" x="337.3464" y="-1693.9" font-family="Arial" font-size="14.00" fill="#666666">[varchar(191)]</text>
<polygon fill="none" stroke="#000000" points="300,-1652.5 300,-1682.5 502,-1682.5 502,-1652.5 300,-1652.5"/>
<text text-anchor="start" x="307" y="-1663.9" font-family="Arial" font-size="14.00" fill="#000000">type_id </text>
<text text-anchor="start" x="356.0182" y="-1663.9" font-family="Arial" font-size="14.00" fill="#666666">[int(11)]</text>
<polygon fill="none" stroke="#000000" points="300,-1622.5 300,-1652.5 502,-1652.5 502,-1622.5 300,-1622.5"/>
<text text-anchor="start" x="307" y="-1633.9" font-family="Arial" font-size="14.00" fill="#000000">date_added </text>
<text text-anchor="start" x="384.8246" y="-1633.9" font-family="Arial" font-size="14.00" fill="#666666">[datetime]</text>
</g>
<!-- focus_stats&#45;&gt;focus -->
<g id="edge1" class="edge">
<title>focus_stats:focus_id&#45;&gt;focus:id</title>
<path fill="none" stroke="#000000" d="M290.0067,-1756.8051C223.6546,-1747.068 251.1934,-1637.4003 300,-1580 364.4645,-1504.1848 456.5355,-1619.8152 521,-1544 548.7823,-1511.3259 563.8889,-1447.5 521,-1447.5"/>
<polygon fill="#000000" stroke="#000000" points="290.0241,-1756.8062 299.6878,-1761.9892 295.012,-1757.1531 300,-1757.5 300,-1757.5 300,-1757.5 295.012,-1757.1531 300.3122,-1753.0108 290.0241,-1756.8062 290.0241,-1756.8062"/>
<text text-anchor="start" x="62.995" y="-1767.5" font-family="Arial" font-size="10.00" fill="#000000">FOREIGN KEY (focus_id) REFERENCES focus (id)</text>
</g>
</g>
</svg>
