<?xml version="1.0" encoding="UTF-8" standalone="no"?>
<!DOCTYPE svg PUBLIC "-//W3C//DTD SVG 1.1//EN"
 "http://www.w3.org/Graphics/SVG/1.1/DTD/svg11.dtd">
<!-- Generated by graphviz version 2.40.1 (20161225.0304)
 -->
<!-- Title: focus_stats Pages: 1 -->
<svg width="698pt" height="1822pt"
 viewBox="0.00 0.00 697.50 1822.00" xmlns="http://www.w3.org/2000/svg" xmlns:xlink="http://www.w3.org/1999/xlink">
<g id="graph0" class="graph" transform="scale(1 1) rotate(0) translate(4 1818)">
<title>focus_stats</title>
<polygon fill="#ffffff" stroke="transparent" points="-4,4 -4,-1818 693.5,-1818 693.5,4 -4,4"/>
<!-- focus_stats -->
<g id="node1" class="node">
<title>focus_stats</title>
<polygon fill="#efefef" stroke="transparent" points="244,-1732.5 244,-1767.5 446,-1767.5 446,-1732.5 244,-1732.5"/>
<polygon fill="none" stroke="#000000" points="244,-1732.5 244,-1767.5 446,-1767.5 446,-1732.5 244,-1732.5"/>
<text text-anchor="start" x="250.8574" y="-1745.3" font-family="Arial Bold" font-size="18.00" fill="#000000">focus_stats</text>
<text text-anchor="start" x="341.8888" y="-1745.3" font-family="Arial" font-size="14.00" fill="#000000"> </text>
<text text-anchor="start" x="345.7794" y="-1745.3" font-family="Arial" font-size="14.00" fill="#666666">[BASE TABLE]</text>
<polygon fill="none" stroke="#000000" points="244,-1702.5 244,-1732.5 446,-1732.5 446,-1702.5 244,-1702.5"/>
<text text-anchor="start" x="251" y="-1713.9" font-family="Arial" font-size="14.00" fill="#000000">id </text>
<text text-anchor="start" x="265.7798" y="-1713.9" font-family="Arial" font-size="14.00" fill="#666666">[int(10) unsigned]</text>
<polygon fill="none" stroke="#000000" points="244,-1672.5 244,-1702.5 446,-1702.5 446,-1672.5 244,-1672.5"/>
<text text-anchor="start" x="251" y="-1683.9" font-family="Arial" font-size="14.00" fill="#000000">focus_id </text>
<text text-anchor="start" x="307.0182" y="-1683.9" font-family="Arial" font-size="14.00" fill="#666666">[int(10) unsigned]</text>
<polygon fill="none" stroke="#000000" points="244,-1642.5 244,-1672.5 446,-1672.5 446,-1642.5 244,-1642.5"/>
<text text-anchor="start" x="251" y="-1653.9" font-family="Arial" font-size="14.00" fill="#000000">lead_id </text>
<text text-anchor="start" x="300.0168" y="-1653.9" font-family="Arial" font-size="14.00" fill="#666666">[bigint(20) unsigned]</text>
<polygon fill="none" stroke="#000000" points="244,-1612.5 244,-1642.5 446,-1642.5 446,-1612.5 244,-1612.5"/>
<text text-anchor="start" x="251" y="-1623.9" font-family="Arial" font-size="14.00" fill="#000000">type </text>
<text text-anchor="start" x="281.3464" y="-1623.9" font-family="Arial" font-size="14.00" fill="#666666">[varchar(191)]</text>
<polygon fill="none" stroke="#000000" points="244,-1582.5 244,-1612.5 446,-1612.5 446,-1582.5 244,-1582.5"/>
<text text-anchor="start" x="251" y="-1593.9" font-family="Arial" font-size="14.00" fill="#000000">type_id </text>
<text text-anchor="start" x="300.0182" y="-1593.9" font-family="Arial" font-size="14.00" fill="#666666">[int(11)]</text>
<polygon fill="none" stroke="#000000" points="244,-1552.5 244,-1582.5 446,-1582.5 446,-1552.5 244,-1552.5"/>
<text text-anchor="start" x="251" y="-1563.9" font-family="Arial" font-size="14.00" fill="#000000">date_added </text>
<text text-anchor="start" x="328.8246" y="-1563.9" font-family="Arial" font-size="14.00" fill="#666666">[datetime]</text>
<polygon fill="none" stroke="#000000" stroke-width="3" points="242.5,-1551.5 242.5,-1769.5 447.5,-1769.5 447.5,-1551.5 242.5,-1551.5"/>
</g>
<!-- focus -->
<g id="node2" class="node">
<title>focus</title>
<polygon fill="#efefef" stroke="transparent" points="49,-1107.5 49,-1142.5 290,-1142.5 290,-1107.5 49,-1107.5"/>
<polygon fill="none" stroke="#000000" points="49,-1107.5 49,-1142.5 290,-1142.5 290,-1107.5 49,-1107.5"/>
<text text-anchor="start" x="99.3658" y="-1120.3" font-family="Arial Bold" font-size="18.00" fill="#000000">focus</text>
<text text-anchor="start" x="142.3804" y="-1120.3" font-family="Arial" font-size="14.00" fill="#000000"> </text>
<text text-anchor="start" x="146.271" y="-1120.3" font-family="Arial" font-size="14.00" fill="#666666">[BASE TABLE]</text>
<polygon fill="none" stroke="#000000" points="49,-1077.5 49,-1107.5 290,-1107.5 290,-1077.5 49,-1077.5"/>
<text text-anchor="start" x="56" y="-1088.9" font-family="Arial" font-size="14.00" fill="#000000">id </text>
<text text-anchor="start" x="70.7798" y="-1088.9" font-family="Arial" font-size="14.00" fill="#666666">[int(10) unsigned]</text>
<polygon fill="none" stroke="#000000" points="49,-1047.5 49,-1077.5 290,-1077.5 290,-1047.5 49,-1047.5"/>
<text text-anchor="start" x="56" y="-1058.9" font-family="Arial" font-size="14.00" fill="#000000">category_id </text>
<text text-anchor="start" x="132.244" y="-1058.9" font-family="Arial" font-size="14.00" fill="#666666">[int(10) unsigned]</text>
<polygon fill="none" stroke="#000000" points="49,-1017.5 49,-1047.5 290,-1047.5 290,-1017.5 49,-1017.5"/>
<text text-anchor="start" x="56" y="-1028.9" font-family="Arial" font-size="14.00" fill="#000000">is_published </text>
<text text-anchor="start" x="137.6886" y="-1028.9" font-family="Arial" font-size="14.00" fill="#666666">[tinyint(1)]</text>
<polygon fill="none" stroke="#000000" points="49,-987.5 49,-1017.5 290,-1017.5 290,-987.5 49,-987.5"/>
<text text-anchor="start" x="56" y="-998.9" font-family="Arial" font-size="14.00" fill="#000000">date_added </text>
<text text-anchor="start" x="133.8246" y="-998.9" font-family="Arial" font-size="14.00" fill="#666666">[datetime]</text>
<polygon fill="none" stroke="#000000" points="49,-957.5 49,-987.5 290,-987.5 290,-957.5 49,-957.5"/>
<text text-anchor="start" x="56" y="-968.9" font-family="Arial" font-size="14.00" fill="#000000">created_by </text>
<text text-anchor="start" x="129.1374" y="-968.9" font-family="Arial" font-size="14.00" fill="#666666">[int(11)]</text>
<polygon fill="none" stroke="#000000" points="49,-927.5 49,-957.5 290,-957.5 290,-927.5 49,-927.5"/>
<text text-anchor="start" x="56" y="-938.9" font-family="Arial" font-size="14.00" fill="#000000">created_by_user </text>
<text text-anchor="start" x="164.1458" y="-938.9" font-family="Arial" font-size="14.00" fill="#666666">[varchar(191)]</text>
<polygon fill="none" stroke="#000000" points="49,-897.5 49,-927.5 290,-927.5 290,-897.5 49,-897.5"/>
<text text-anchor="start" x="56" y="-908.9" font-family="Arial" font-size="14.00" fill="#000000">date_modified </text>
<text text-anchor="start" x="147.8064" y="-908.9" font-family="Arial" font-size="14.00" fill="#666666">[datetime]</text>
<polygon fill="none" stroke="#000000" points="49,-867.5 49,-897.5 290,-897.5 290,-867.5 49,-867.5"/>
<text text-anchor="start" x="56" y="-878.9" font-family="Arial" font-size="14.00" fill="#000000">modified_by </text>
<text text-anchor="start" x="135.3506" y="-878.9" font-family="Arial" font-size="14.00" fill="#666666">[int(11)]</text>
<polygon fill="none" stroke="#000000" points="49,-837.5 49,-867.5 290,-867.5 290,-837.5 49,-837.5"/>
<text text-anchor="start" x="56" y="-848.9" font-family="Arial" font-size="14.00" fill="#000000">modified_by_user </text>
<text text-anchor="start" x="170.359" y="-848.9" font-family="Arial" font-size="14.00" fill="#666666">[varchar(191)]</text>
<polygon fill="none" stroke="#000000" points="49,-807.5 49,-837.5 290,-837.5 290,-807.5 49,-807.5"/>
<text text-anchor="start" x="56" y="-818.9" font-family="Arial" font-size="14.00" fill="#000000">checked_out </text>
<text text-anchor="start" x="139.2594" y="-818.9" font-family="Arial" font-size="14.00" fill="#666666">[datetime]</text>
<polygon fill="none" stroke="#000000" points="49,-777.5 49,-807.5 290,-807.5 290,-777.5 49,-777.5"/>
<text text-anchor="start" x="56" y="-788.9" font-family="Arial" font-size="14.00" fill="#000000">checked_out_by </text>
<text text-anchor="start" x="161.8246" y="-788.9" font-family="Arial" font-size="14.00" fill="#666666">[int(11)]</text>
<polygon fill="none" stroke="#000000" points="49,-747.5 49,-777.5 290,-777.5 290,-747.5 49,-747.5"/>
<text text-anchor="start" x="55.5239" y="-758.9" font-family="Arial" font-size="14.00" fill="#000000">checked_out_by_user </text>
<text text-anchor="start" x="196.3569" y="-758.9" font-family="Arial" font-size="14.00" fill="#666666">[varchar(191)]</text>
<polygon fill="none" stroke="#000000" points="49,-717.5 49,-747.5 290,-747.5 290,-717.5 49,-717.5"/>
<text text-anchor="start" x="56" y="-728.9" font-family="Arial" font-size="14.00" fill="#000000">name </text>
<text text-anchor="start" x="94.899" y="-728.9" font-family="Arial" font-size="14.00" fill="#666666">[varchar(191)]</text>
<polygon fill="none" stroke="#000000" points="49,-687.5 49,-717.5 290,-717.5 290,-687.5 49,-687.5"/>
<text text-anchor="start" x="56" y="-698.9" font-family="Arial" font-size="14.00" fill="#000000">description </text>
<text text-anchor="start" x="127.568" y="-698.9" font-family="Arial" font-size="14.00" fill="#666666">[longtext]</text>
<polygon fill="none" stroke="#000000" points="49,-657.5 49,-687.5 290,-687.5 290,-657.5 49,-657.5"/>
<text text-anchor="start" x="56" y="-668.9" font-family="Arial" font-size="14.00" fill="#000000">focus_type </text>
<text text-anchor="start" x="127.5848" y="-668.9" font-family="Arial" font-size="14.00" fill="#666666">[varchar(191)]</text>
<polygon fill="none" stroke="#000000" points="49,-627.5 49,-657.5 290,-657.5 290,-627.5 49,-627.5"/>
<text text-anchor="start" x="56" y="-638.9" font-family="Arial" font-size="14.00" fill="#000000">style </text>
<text text-anchor="start" x="88.6704" y="-638.9" font-family="Arial" font-size="14.00" fill="#666666">[varchar(191)]</text>
<polygon fill="none" stroke="#000000" points="49,-597.5 49,-627.5 290,-627.5 290,-597.5 49,-597.5"/>
<text text-anchor="start" x="56" y="-608.9" font-family="Arial" font-size="14.00" fill="#000000">website </text>
<text text-anchor="start" x="107.3422" y="-608.9" font-family="Arial" font-size="14.00" fill="#666666">[varchar(191)]</text>
<polygon fill="none" stroke="#000000" points="49,-567.5 49,-597.5 290,-597.5 290,-567.5 49,-567.5"/>
<text text-anchor="start" x="56" y="-578.9" font-family="Arial" font-size="14.00" fill="#000000">publish_up </text>
<text text-anchor="start" x="127.582" y="-578.9" font-family="Arial" font-size="14.00" fill="#666666">[datetime]</text>
<polygon fill="none" stroke="#000000" points="49,-537.5 49,-567.5 290,-567.5 290,-537.5 49,-537.5"/>
<text text-anchor="start" x="56" y="-548.9" font-family="Arial" font-size="14.00" fill="#000000">publish_down </text>
<text text-anchor="start" x="145.4712" y="-548.9" font-family="Arial" font-size="14.00" fill="#666666">[datetime]</text>
<polygon fill="none" stroke="#000000" points="49,-507.5 49,-537.5 290,-537.5 290,-507.5 49,-507.5"/>
<text text-anchor="start" x="56" y="-518.9" font-family="Arial" font-size="14.00" fill="#000000">properties </text>
<text text-anchor="start" x="122.122" y="-518.9" font-family="Arial" font-size="14.00" fill="#666666">[longtext]</text>
<polygon fill="none" stroke="#000000" points="49,-477.5 49,-507.5 290,-507.5 290,-477.5 49,-477.5"/>
<text text-anchor="start" x="56" y="-488.9" font-family="Arial" font-size="14.00" fill="#000000">utm_tags </text>
<text text-anchor="start" x="117.4628" y="-488.9" font-family="Arial" font-size="14.00" fill="#666666">[longtext]</text>
<polygon fill="none" stroke="#000000" points="49,-447.5 49,-477.5 290,-477.5 290,-447.5 49,-447.5"/>
<text text-anchor="start" x="56" y="-458.9" font-family="Arial" font-size="14.00" fill="#000000">form_id </text>
<text text-anchor="start" x="106.5568" y="-458.9" font-family="Arial" font-size="14.00" fill="#666666">[int(11)]</text>
<polygon fill="none" stroke="#000000" points="49,-417.5 49,-447.5 290,-447.5 290,-417.5 49,-417.5"/>
<text text-anchor="start" x="56" y="-428.9" font-family="Arial" font-size="14.00" fill="#000000">cache </text>
<text text-anchor="start" x="97.2384" y="-428.9" font-family="Arial" font-size="14.00" fill="#666666">[longtext]</text>
<polygon fill="none" stroke="#000000" points="49,-387.5 49,-417.5 290,-417.5 290,-387.5 49,-387.5"/>
<text text-anchor="start" x="56" y="-398.9" font-family="Arial" font-size="14.00" fill="#000000">html_mode </text>
<text text-anchor="start" x="129.122" y="-398.9" font-family="Arial" font-size="14.00" fill="#666666">[varchar(191)]</text>
<polygon fill="none" stroke="#000000" points="49,-357.5 49,-387.5 290,-387.5 290,-357.5 49,-357.5"/>
<text text-anchor="start" x="56" y="-368.9" font-family="Arial" font-size="14.00" fill="#000000">editor </text>
<text text-anchor="start" x="94.8962" y="-368.9" font-family="Arial" font-size="14.00" fill="#666666">[longtext]</text>
<polygon fill="none" stroke="#000000" points="49,-327.5 49,-357.5 290,-357.5 290,-327.5 49,-327.5"/>
<text text-anchor="start" x="56" y="-338.9" font-family="Arial" font-size="14.00" fill="#000000">html </text>
<text text-anchor="start" x="86.331" y="-338.9" font-family="Arial" font-size="14.00" fill="#666666">[longtext]</text>
</g>
<!-- focus_stats&#45;&gt;focus -->
<g id="edge1" class="edge">
<title>focus_stats:focus_id&#45;&gt;focus:id</title>
<path fill="none" stroke="#000000" d="M233.7805,-1686.0954C128.6557,-1654.276 418.861,-1092.5 290,-1092.5"/>
<polygon fill="#000000" stroke="#000000" points="234.0931,-1686.1383 243.3872,-1691.9581 239.0466,-1686.8191 244,-1687.5 244,-1687.5 244,-1687.5 239.0466,-1686.8191 244.6128,-1683.0419 234.0931,-1686.1383 234.0931,-1686.1383"/>
<text text-anchor="start" x="6.995" y="-1697.5" font-family="Arial" font-size="10.00" fill="#000000">FOREIGN KEY (focus_id) REFERENCES focus (id)</text>
</g>
<!-- leads -->
<g id="node3" class="node">
<title>leads</title>
<polygon fill="#efefef" stroke="transparent" points="394,-1392.5 394,-1427.5 647,-1427.5 647,-1392.5 394,-1392.5"/>
<polygon fill="none" stroke="#000000" points="394,-1392.5 394,-1427.5 647,-1427.5 647,-1392.5 394,-1392.5"/>
<text text-anchor="start" x="450.3667" y="-1405.3" font-family="Arial Bold" font-size="18.00" fill="#000000">leads</text>
<text text-anchor="start" x="493.3795" y="-1405.3" font-family="Arial" font-size="14.00" fill="#000000"> </text>
<text text-anchor="start" x="497.2701" y="-1405.3" font-family="Arial" font-size="14.00" fill="#666666">[BASE TABLE]</text>
<polygon fill="none" stroke="#000000" points="394,-1362.5 394,-1392.5 647,-1392.5 647,-1362.5 394,-1362.5"/>
<text text-anchor="start" x="401" y="-1373.9" font-family="Arial" font-size="14.00" fill="#000000">id </text>
<text text-anchor="start" x="415.7798" y="-1373.9" font-family="Arial" font-size="14.00" fill="#666666">[bigint(20) unsigned]</text>
<polygon fill="none" stroke="#000000" points="394,-1332.5 394,-1362.5 647,-1362.5 647,-1332.5 394,-1332.5"/>
<text text-anchor="start" x="401" y="-1343.9" font-family="Arial" font-size="14.00" fill="#000000">owner_id </text>
<text text-anchor="start" x="461.6774" y="-1343.9" font-family="Arial" font-size="14.00" fill="#666666">[int(10) unsigned]</text>
<polygon fill="none" stroke="#000000" points="394,-1302.5 394,-1332.5 647,-1332.5 647,-1302.5 394,-1302.5"/>
<text text-anchor="start" x="401" y="-1313.9" font-family="Arial" font-size="14.00" fill="#000000">stage_id </text>
<text text-anchor="start" x="457.8008" y="-1313.9" font-family="Arial" font-size="14.00" fill="#666666">[int(10) unsigned]</text>
<polygon fill="none" stroke="#000000" points="394,-1272.5 394,-1302.5 647,-1302.5 647,-1272.5 394,-1272.5"/>
<text text-anchor="start" x="401" y="-1283.9" font-family="Arial" font-size="14.00" fill="#000000">is_published </text>
<text text-anchor="start" x="482.6886" y="-1283.9" font-family="Arial" font-size="14.00" fill="#666666">[tinyint(1)]</text>
<polygon fill="none" stroke="#000000" points="394,-1242.5 394,-1272.5 647,-1272.5 647,-1242.5 394,-1242.5"/>
<text text-anchor="start" x="401" y="-1253.9" font-family="Arial" font-size="14.00" fill="#000000">date_added </text>
<text text-anchor="start" x="478.8246" y="-1253.9" font-family="Arial" font-size="14.00" fill="#666666">[datetime]</text>
<polygon fill="none" stroke="#000000" points="394,-1212.5 394,-1242.5 647,-1242.5 647,-1212.5 394,-1212.5"/>
<text text-anchor="start" x="401" y="-1223.9" font-family="Arial" font-size="14.00" fill="#000000">created_by </text>
<text text-anchor="start" x="474.1374" y="-1223.9" font-family="Arial" font-size="14.00" fill="#666666">[int(11)]</text>
<polygon fill="none" stroke="#000000" points="394,-1182.5 394,-1212.5 647,-1212.5 647,-1182.5 394,-1182.5"/>
<text text-anchor="start" x="401" y="-1193.9" font-family="Arial" font-size="14.00" fill="#000000">created_by_user </text>
<text text-anchor="start" x="509.1458" y="-1193.9" font-family="Arial" font-size="14.00" fill="#666666">[varchar(191)]</text>
<polygon fill="none" stroke="#000000" points="394,-1152.5 394,-1182.5 647,-1182.5 647,-1152.5 394,-1152.5"/>
<text text-anchor="start" x="401" y="-1163.9" font-family="Arial" font-size="14.00" fill="#000000">date_modified </text>
<text text-anchor="start" x="492.8064" y="-1163.9" font-family="Arial" font-size="14.00" fill="#666666">[datetime]</text>
<polygon fill="none" stroke="#000000" points="394,-1122.5 394,-1152.5 647,-1152.5 647,-1122.5 394,-1122.5"/>
<text text-anchor="start" x="401" y="-1133.9" font-family="Arial" font-size="14.00" fill="#000000">modified_by </text>
<text text-anchor="start" x="480.3506" y="-1133.9" font-family="Arial" font-size="14.00" fill="#666666">[int(11)]</text>
<polygon fill="none" stroke="#000000" points="394,-1092.5 394,-1122.5 647,-1122.5 647,-1092.5 394,-1092.5"/>
<text text-anchor="start" x="401" y="-1103.9" font-family="Arial" font-size="14.00" fill="#000000">modified_by_user </text>
<text text-anchor="start" x="515.359" y="-1103.9" font-family="Arial" font-size="14.00" fill="#666666">[varchar(191)]</text>
<polygon fill="none" stroke="#000000" points="394,-1062.5 394,-1092.5 647,-1092.5 647,-1062.5 394,-1062.5"/>
<text text-anchor="start" x="401" y="-1073.9" font-family="Arial" font-size="14.00" fill="#000000">checked_out </text>
<text text-anchor="start" x="484.2594" y="-1073.9" font-family="Arial" font-size="14.00" fill="#666666">[datetime]</text>
<polygon fill="none" stroke="#000000" points="394,-1032.5 394,-1062.5 647,-1062.5 647,-1032.5 394,-1032.5"/>
<text text-anchor="start" x="401" y="-1043.9" font-family="Arial" font-size="14.00" fill="#000000">checked_out_by </text>
<text text-anchor="start" x="506.8246" y="-1043.9" font-family="Arial" font-size="14.00" fill="#666666">[int(11)]</text>
<polygon fill="none" stroke="#000000" points="394,-1002.5 394,-1032.5 647,-1032.5 647,-1002.5 394,-1002.5"/>
<text text-anchor="start" x="401" y="-1013.9" font-family="Arial" font-size="14.00" fill="#000000">checked_out_by_user </text>
<text text-anchor="start" x="541.833" y="-1013.9" font-family="Arial" font-size="14.00" fill="#666666">[varchar(191)]</text>
<polygon fill="none" stroke="#000000" points="394,-972.5 394,-1002.5 647,-1002.5 647,-972.5 394,-972.5"/>
<text text-anchor="start" x="401" y="-983.9" font-family="Arial" font-size="14.00" fill="#000000">points </text>
<text text-anchor="start" x="442.2356" y="-983.9" font-family="Arial" font-size="14.00" fill="#666666">[int(11)]</text>
<polygon fill="none" stroke="#000000" points="394,-942.5 394,-972.5 647,-972.5 647,-942.5 394,-942.5"/>
<text text-anchor="start" x="401" y="-953.9" font-family="Arial" font-size="14.00" fill="#000000">last_active </text>
<text text-anchor="start" x="471.0154" y="-953.9" font-family="Arial" font-size="14.00" fill="#666666">[datetime]</text>
<polygon fill="none" stroke="#000000" points="394,-912.5 394,-942.5 647,-942.5 647,-912.5 394,-912.5"/>
<text text-anchor="start" x="401" y="-923.9" font-family="Arial" font-size="14.00" fill="#000000">internal </text>
<text text-anchor="start" x="450.7854" y="-923.9" font-family="Arial" font-size="14.00" fill="#666666">[longtext]</text>
<polygon fill="none" stroke="#000000" points="394,-882.5 394,-912.5 647,-912.5 647,-882.5 394,-882.5"/>
<text text-anchor="start" x="401" y="-893.9" font-family="Arial" font-size="14.00" fill="#000000">social_cache </text>
<text text-anchor="start" x="485.7994" y="-893.9" font-family="Arial" font-size="14.00" fill="#666666">[longtext]</text>
<polygon fill="none" stroke="#000000" points="394,-852.5 394,-882.5 647,-882.5 647,-852.5 394,-852.5"/>
<text text-anchor="start" x="401" y="-863.9" font-family="Arial" font-size="14.00" fill="#000000">date_identified </text>
<text text-anchor="start" x="495.9256" y="-863.9" font-family="Arial" font-size="14.00" fill="#666666">[datetime]</text>
<polygon fill="none" stroke="#000000" points="394,-822.5 394,-852.5 647,-852.5 647,-822.5 394,-822.5"/>
<text text-anchor="start" x="400.7062" y="-833.9" font-family="Arial" font-size="14.00" fill="#000000">preferred_profile_image </text>
<text text-anchor="start" x="553.1746" y="-833.9" font-family="Arial" font-size="14.00" fill="#666666">[varchar(191)]</text>
<polygon fill="none" stroke="#000000" points="394,-792.5 394,-822.5 647,-822.5 647,-792.5 394,-792.5"/>
<text text-anchor="start" x="401" y="-803.9" font-family="Arial" font-size="14.00" fill="#000000">title </text>
<text text-anchor="start" x="426.6676" y="-803.9" font-family="Arial" font-size="14.00" fill="#666666">[varchar(191)]</text>
<polygon fill="none" stroke="#000000" points="394,-762.5 394,-792.5 647,-792.5 647,-762.5 394,-762.5"/>
<text text-anchor="start" x="401" y="-773.9" font-family="Arial" font-size="14.00" fill="#000000">firstname </text>
<text text-anchor="start" x="462.4474" y="-773.9" font-family="Arial" font-size="14.00" fill="#666666">[varchar(191)]</text>
<polygon fill="none" stroke="#000000" points="394,-732.5 394,-762.5 647,-762.5 647,-732.5 394,-732.5"/>
<text text-anchor="start" x="401" y="-743.9" font-family="Arial" font-size="14.00" fill="#000000">lastname </text>
<text text-anchor="start" x="461.6788" y="-743.9" font-family="Arial" font-size="14.00" fill="#666666">[varchar(191)]</text>
<polygon fill="none" stroke="#000000" points="394,-702.5 394,-732.5 647,-732.5 647,-702.5 394,-702.5"/>
<text text-anchor="start" x="401" y="-713.9" font-family="Arial" font-size="14.00" fill="#000000">company </text>
<text text-anchor="start" x="461.6816" y="-713.9" font-family="Arial" font-size="14.00" fill="#666666">[varchar(191)]</text>
<polygon fill="none" stroke="#000000" points="394,-672.5 394,-702.5 647,-702.5 647,-672.5 394,-672.5"/>
<text text-anchor="start" x="401" y="-683.9" font-family="Arial" font-size="14.00" fill="#000000">position </text>
<text text-anchor="start" x="453.1248" y="-683.9" font-family="Arial" font-size="14.00" fill="#666666">[varchar(191)]</text>
<polygon fill="none" stroke="#000000" points="394,-642.5 394,-672.5 647,-672.5 647,-642.5 394,-642.5"/>
<text text-anchor="start" x="401" y="-653.9" font-family="Arial" font-size="14.00" fill="#000000">email </text>
<text text-anchor="start" x="438.3296" y="-653.9" font-family="Arial" font-size="14.00" fill="#666666">[varchar(191)]</text>
<polygon fill="none" stroke="#000000" points="394,-612.5 394,-642.5 647,-642.5 647,-612.5 394,-612.5"/>
<text text-anchor="start" x="401" y="-623.9" font-family="Arial" font-size="14.00" fill="#000000">phone </text>
<text text-anchor="start" x="443.8036" y="-623.9" font-family="Arial" font-size="14.00" fill="#666666">[varchar(191)]</text>
<polygon fill="none" stroke="#000000" points="394,-582.5 394,-612.5 647,-612.5 647,-582.5 394,-582.5"/>
<text text-anchor="start" x="401" y="-593.9" font-family="Arial" font-size="14.00" fill="#000000">mobile </text>
<text text-anchor="start" x="446.1122" y="-593.9" font-family="Arial" font-size="14.00" fill="#666666">[varchar(191)]</text>
<polygon fill="none" stroke="#000000" points="394,-552.5 394,-582.5 647,-582.5 647,-552.5 394,-552.5"/>
<text text-anchor="start" x="401" y="-563.9" font-family="Arial" font-size="14.00" fill="#000000">address1 </text>
<text text-anchor="start" x="462.4642" y="-563.9" font-family="Arial" font-size="14.00" fill="#666666">[varchar(191)]</text>
<polygon fill="none" stroke="#000000" points="394,-522.5 394,-552.5 647,-552.5 647,-522.5 394,-522.5"/>
<text text-anchor="start" x="401" y="-533.9" font-family="Arial" font-size="14.00" fill="#000000">address2 </text>
<text text-anchor="start" x="462.4642" y="-533.9" font-family="Arial" font-size="14.00" fill="#666666">[varchar(191)]</text>
<polygon fill="none" stroke="#000000" points="394,-492.5 394,-522.5 647,-522.5 647,-492.5 394,-492.5"/>
<text text-anchor="start" x="401" y="-503.9" font-family="Arial" font-size="14.00" fill="#000000">city </text>
<text text-anchor="start" x="425.8878" y="-503.9" font-family="Arial" font-size="14.00" fill="#666666">[varchar(191)]</text>
<polygon fill="none" stroke="#000000" points="394,-462.5 394,-492.5 647,-492.5 647,-462.5 394,-462.5"/>
<text text-anchor="start" x="401" y="-473.9" font-family="Arial" font-size="14.00" fill="#000000">state </text>
<text text-anchor="start" x="435.237" y="-473.9" font-family="Arial" font-size="14.00" fill="#666666">[varchar(191)]</text>
<polygon fill="none" stroke="#000000" points="394,-432.5 394,-462.5 647,-462.5 647,-432.5 394,-432.5"/>
<text text-anchor="start" x="401" y="-443.9" font-family="Arial" font-size="14.00" fill="#000000">zipcode </text>
<text text-anchor="start" x="453.1276" y="-443.9" font-family="Arial" font-size="14.00" fill="#666666">[varchar(191)]</text>
<polygon fill="none" stroke="#000000" points="394,-402.5 394,-432.5 647,-432.5 647,-402.5 394,-402.5"/>
<text text-anchor="start" x="401" y="-413.9" font-family="Arial" font-size="14.00" fill="#000000">timezone </text>
<text text-anchor="start" x="461.6788" y="-413.9" font-family="Arial" font-size="14.00" fill="#666666">[varchar(191)]</text>
<polygon fill="none" stroke="#000000" points="394,-372.5 394,-402.5 647,-402.5 647,-372.5 394,-372.5"/>
<text text-anchor="start" x="401" y="-383.9" font-family="Arial" font-size="14.00" fill="#000000">country </text>
<text text-anchor="start" x="450.7896" y="-383.9" font-family="Arial" font-size="14.00" fill="#666666">[varchar(191)]</text>
<polygon fill="none" stroke="#000000" points="394,-342.5 394,-372.5 647,-372.5 647,-342.5 394,-342.5"/>
<text text-anchor="start" x="401" y="-353.9" font-family="Arial" font-size="14.00" fill="#000000">fax </text>
<text text-anchor="start" x="423.5638" y="-353.9" font-family="Arial" font-size="14.00" fill="#666666">[varchar(255)]</text>
<polygon fill="none" stroke="#000000" points="394,-312.5 394,-342.5 647,-342.5 647,-312.5 394,-312.5"/>
<text text-anchor="start" x="401" y="-323.9" font-family="Arial" font-size="14.00" fill="#000000">preferred_locale </text>
<text text-anchor="start" x="506.0196" y="-323.9" font-family="Arial" font-size="14.00" fill="#666666">[varchar(255)]</text>
<polygon fill="none" stroke="#000000" points="394,-282.5 394,-312.5 647,-312.5 647,-282.5 394,-282.5"/>
<text text-anchor="start" x="401" y="-293.9" font-family="Arial" font-size="14.00" fill="#000000">attribution_date </text>
<text text-anchor="start" x="501.3702" y="-293.9" font-family="Arial" font-size="14.00" fill="#666666">[datetime]</text>
<polygon fill="none" stroke="#000000" points="394,-252.5 394,-282.5 647,-282.5 647,-252.5 394,-252.5"/>
<text text-anchor="start" x="401" y="-263.9" font-family="Arial" font-size="14.00" fill="#000000">attribution </text>
<text text-anchor="start" x="466.3492" y="-263.9" font-family="Arial" font-size="14.00" fill="#666666">[double]</text>
<polygon fill="none" stroke="#000000" points="394,-222.5 394,-252.5 647,-252.5 647,-222.5 394,-222.5"/>
<text text-anchor="start" x="401" y="-233.9" font-family="Arial" font-size="14.00" fill="#000000">website </text>
<text text-anchor="start" x="452.3422" y="-233.9" font-family="Arial" font-size="14.00" fill="#666666">[longtext]</text>
<polygon fill="none" stroke="#000000" points="394,-192.5 394,-222.5 647,-222.5 647,-192.5 394,-192.5"/>
<text text-anchor="start" x="401" y="-203.9" font-family="Arial" font-size="14.00" fill="#000000">facebook </text>
<text text-anchor="start" x="461.6942" y="-203.9" font-family="Arial" font-size="14.00" fill="#666666">[varchar(255)]</text>
<polygon fill="none" stroke="#000000" points="394,-162.5 394,-192.5 647,-192.5 647,-162.5 394,-162.5"/>
<text text-anchor="start" x="401" y="-173.9" font-family="Arial" font-size="14.00" fill="#000000">foursquare </text>
<text text-anchor="start" x="471.798" y="-173.9" font-family="Arial" font-size="14.00" fill="#666666">[varchar(255)]</text>
<polygon fill="none" stroke="#000000" points="394,-132.5 394,-162.5 647,-162.5 647,-132.5 394,-132.5"/>
<text text-anchor="start" x="401" y="-143.9" font-family="Arial" font-size="14.00" fill="#000000">instagram </text>
<text text-anchor="start" x="466.3394" y="-143.9" font-family="Arial" font-size="14.00" fill="#666666">[varchar(255)]</text>
<polygon fill="none" stroke="#000000" points="394,-102.5 394,-132.5 647,-132.5 647,-102.5 394,-102.5"/>
<text text-anchor="start" x="401" y="-113.9" font-family="Arial" font-size="14.00" fill="#000000">linkedin </text>
<text text-anchor="start" x="452.3408" y="-113.9" font-family="Arial" font-size="14.00" fill="#666666">[varchar(255)]</text>
<polygon fill="none" stroke="#000000" points="394,-72.5 394,-102.5 647,-102.5 647,-72.5 394,-72.5"/>
<text text-anchor="start" x="401" y="-83.9" font-family="Arial" font-size="14.00" fill="#000000">skype </text>
<text text-anchor="start" x="441.4558" y="-83.9" font-family="Arial" font-size="14.00" fill="#666666">[varchar(255)]</text>
<polygon fill="none" stroke="#000000" points="394,-42.5 394,-72.5 647,-72.5 647,-42.5 394,-42.5"/>
<text text-anchor="start" x="401" y="-53.9" font-family="Arial" font-size="14.00" fill="#000000">twitter </text>
<text text-anchor="start" x="442.2188" y="-53.9" font-family="Arial" font-size="14.00" fill="#666666">[varchar(255)]</text>
</g>
<!-- focus_stats&#45;&gt;leads -->
<g id="edge2" class="edge">
<title>focus_stats:lead_id&#45;&gt;leads:id</title>
<path fill="none" stroke="#000000" d="M456.141,-1657.4337C746.4726,-1653.5581 399.2149,-1480.953 394,-1471 374.7138,-1434.1909 352.4444,-1377.5 394,-1377.5"/>
<polygon fill="#000000" stroke="#000000" points="455.9998,-1657.4346 445.9705,-1653.0001 450.9999,-1657.4673 446,-1657.5 446,-1657.5 446,-1657.5 450.9999,-1657.4673 446.0295,-1661.9999 455.9998,-1657.4346 455.9998,-1657.4346"/>
<text text-anchor="start" x="453.496" y="-1667.5" font-family="Arial" font-size="10.00" fill="#000000">FOREIGN KEY (lead_id) REFERENCES leads (id)</text>
</g>
</g>
</svg>
