<?xml version="1.0" encoding="UTF-8" standalone="no"?>
<!DOCTYPE svg PUBLIC "-//W3C//DTD SVG 1.1//EN"
 "http://www.w3.org/Graphics/SVG/1.1/DTD/svg11.dtd">
<!-- Generated by graphviz version 2.40.1 (20161225.0304)
 -->
<!-- Title: form_submissions Pages: 1 -->
<svg width="1376pt" height="1882pt"
 viewBox="0.00 0.00 1375.50 1882.00" xmlns="http://www.w3.org/2000/svg" xmlns:xlink="http://www.w3.org/1999/xlink">
<g id="graph0" class="graph" transform="scale(1 1) rotate(0) translate(4 1878)">
<title>form_submissions</title>
<polygon fill="#ffffff" stroke="transparent" points="-4,4 -4,-1878 1371.5,-1878 1371.5,4 -4,4"/>
<!-- form_submissions -->
<g id="node1" class="node">
<title>form_submissions</title>
<polygon fill="#efefef" stroke="transparent" points="539.5,-1792.5 539.5,-1827.5 795.5,-1827.5 795.5,-1792.5 539.5,-1792.5"/>
<polygon fill="none" stroke="#000000" points="539.5,-1792.5 539.5,-1827.5 795.5,-1827.5 795.5,-1792.5 539.5,-1792.5"/>
<text text-anchor="start" x="546.3709" y="-1805.3" font-family="Arial Bold" font-size="18.00" fill="#000000">form_submissions</text>
<text text-anchor="start" x="691.3753" y="-1805.3" font-family="Arial" font-size="14.00" fill="#000000"> </text>
<text text-anchor="start" x="695.2659" y="-1805.3" font-family="Arial" font-size="14.00" fill="#666666">[BASE TABLE]</text>
<polygon fill="none" stroke="#000000" points="539.5,-1762.5 539.5,-1792.5 795.5,-1792.5 795.5,-1762.5 539.5,-1762.5"/>
<text text-anchor="start" x="546.5" y="-1773.9" font-family="Arial" font-size="14.00" fill="#000000">id </text>
<text text-anchor="start" x="561.2798" y="-1773.9" font-family="Arial" font-size="14.00" fill="#666666">[bigint(20) unsigned]</text>
<polygon fill="none" stroke="#000000" points="539.5,-1732.5 539.5,-1762.5 795.5,-1762.5 795.5,-1732.5 539.5,-1732.5"/>
<text text-anchor="start" x="546.5" y="-1743.9" font-family="Arial" font-size="14.00" fill="#000000">form_id </text>
<text text-anchor="start" x="597.0568" y="-1743.9" font-family="Arial" font-size="14.00" fill="#666666">[int(10) unsigned]</text>
<polygon fill="none" stroke="#000000" points="539.5,-1702.5 539.5,-1732.5 795.5,-1732.5 795.5,-1702.5 539.5,-1702.5"/>
<text text-anchor="start" x="546.5" y="-1713.9" font-family="Arial" font-size="14.00" fill="#000000">ip_id </text>
<text text-anchor="start" x="579.9516" y="-1713.9" font-family="Arial" font-size="14.00" fill="#666666">[int(10) unsigned]</text>
<polygon fill="none" stroke="#000000" points="539.5,-1672.5 539.5,-1702.5 795.5,-1702.5 795.5,-1672.5 539.5,-1672.5"/>
<text text-anchor="start" x="546.5" y="-1683.9" font-family="Arial" font-size="14.00" fill="#000000">lead_id </text>
<text text-anchor="start" x="595.5168" y="-1683.9" font-family="Arial" font-size="14.00" fill="#666666">[bigint(20) unsigned]</text>
<polygon fill="none" stroke="#000000" points="539.5,-1642.5 539.5,-1672.5 795.5,-1672.5 795.5,-1642.5 539.5,-1642.5"/>
<text text-anchor="start" x="546.5" y="-1653.9" font-family="Arial" font-size="14.00" fill="#000000">page_id </text>
<text text-anchor="start" x="600.1928" y="-1653.9" font-family="Arial" font-size="14.00" fill="#666666">[int(10) unsigned]</text>
<polygon fill="none" stroke="#000000" points="539.5,-1612.5 539.5,-1642.5 795.5,-1642.5 795.5,-1612.5 539.5,-1612.5"/>
<text text-anchor="start" x="546.5" y="-1623.9" font-family="Arial" font-size="14.00" fill="#000000">tracking_id </text>
<text text-anchor="start" x="618.068" y="-1623.9" font-family="Arial" font-size="14.00" fill="#666666">[varchar(191)]</text>
<polygon fill="none" stroke="#000000" points="539.5,-1582.5 539.5,-1612.5 795.5,-1612.5 795.5,-1582.5 539.5,-1582.5"/>
<text text-anchor="start" x="546.5" y="-1593.9" font-family="Arial" font-size="14.00" fill="#000000">date_submitted </text>
<text text-anchor="start" x="646.0904" y="-1593.9" font-family="Arial" font-size="14.00" fill="#666666">[datetime]</text>
<polygon fill="none" stroke="#000000" points="539.5,-1552.5 539.5,-1582.5 795.5,-1582.5 795.5,-1552.5 539.5,-1552.5"/>
<text text-anchor="start" x="546.5" y="-1563.9" font-family="Arial" font-size="14.00" fill="#000000">referer </text>
<text text-anchor="start" x="591.6108" y="-1563.9" font-family="Arial" font-size="14.00" fill="#666666">[longtext]</text>
<polygon fill="none" stroke="#000000" stroke-width="3" points="538,-1551.5 538,-1829.5 797,-1829.5 797,-1551.5 538,-1551.5"/>
</g>
<!-- forms -->
<g id="node2" class="node">
<title>forms</title>
<polygon fill="#efefef" stroke="transparent" points="43.5,-1122.5 43.5,-1157.5 284.5,-1157.5 284.5,-1122.5 43.5,-1122.5"/>
<polygon fill="none" stroke="#000000" points="43.5,-1122.5 43.5,-1157.5 284.5,-1157.5 284.5,-1122.5 43.5,-1122.5"/>
<text text-anchor="start" x="92.8767" y="-1135.3" font-family="Arial Bold" font-size="18.00" fill="#000000">forms</text>
<text text-anchor="start" x="137.8695" y="-1135.3" font-family="Arial" font-size="14.00" fill="#000000"> </text>
<text text-anchor="start" x="141.7601" y="-1135.3" font-family="Arial" font-size="14.00" fill="#666666">[BASE TABLE]</text>
<polygon fill="none" stroke="#000000" points="43.5,-1092.5 43.5,-1122.5 284.5,-1122.5 284.5,-1092.5 43.5,-1092.5"/>
<text text-anchor="start" x="50.5" y="-1103.9" font-family="Arial" font-size="14.00" fill="#000000">id </text>
<text text-anchor="start" x="65.2798" y="-1103.9" font-family="Arial" font-size="14.00" fill="#666666">[int(10) unsigned]</text>
<polygon fill="none" stroke="#000000" points="43.5,-1062.5 43.5,-1092.5 284.5,-1092.5 284.5,-1062.5 43.5,-1062.5"/>
<text text-anchor="start" x="50.5" y="-1073.9" font-family="Arial" font-size="14.00" fill="#000000">category_id </text>
<text text-anchor="start" x="126.744" y="-1073.9" font-family="Arial" font-size="14.00" fill="#666666">[int(10) unsigned]</text>
<polygon fill="none" stroke="#000000" points="43.5,-1032.5 43.5,-1062.5 284.5,-1062.5 284.5,-1032.5 43.5,-1032.5"/>
<text text-anchor="start" x="50.5" y="-1043.9" font-family="Arial" font-size="14.00" fill="#000000">is_published </text>
<text text-anchor="start" x="132.1886" y="-1043.9" font-family="Arial" font-size="14.00" fill="#666666">[tinyint(1)]</text>
<polygon fill="none" stroke="#000000" points="43.5,-1002.5 43.5,-1032.5 284.5,-1032.5 284.5,-1002.5 43.5,-1002.5"/>
<text text-anchor="start" x="50.5" y="-1013.9" font-family="Arial" font-size="14.00" fill="#000000">date_added </text>
<text text-anchor="start" x="128.3246" y="-1013.9" font-family="Arial" font-size="14.00" fill="#666666">[datetime]</text>
<polygon fill="none" stroke="#000000" points="43.5,-972.5 43.5,-1002.5 284.5,-1002.5 284.5,-972.5 43.5,-972.5"/>
<text text-anchor="start" x="50.5" y="-983.9" font-family="Arial" font-size="14.00" fill="#000000">created_by </text>
<text text-anchor="start" x="123.6374" y="-983.9" font-family="Arial" font-size="14.00" fill="#666666">[int(11)]</text>
<polygon fill="none" stroke="#000000" points="43.5,-942.5 43.5,-972.5 284.5,-972.5 284.5,-942.5 43.5,-942.5"/>
<text text-anchor="start" x="50.5" y="-953.9" font-family="Arial" font-size="14.00" fill="#000000">created_by_user </text>
<text text-anchor="start" x="158.6458" y="-953.9" font-family="Arial" font-size="14.00" fill="#666666">[varchar(191)]</text>
<polygon fill="none" stroke="#000000" points="43.5,-912.5 43.5,-942.5 284.5,-942.5 284.5,-912.5 43.5,-912.5"/>
<text text-anchor="start" x="50.5" y="-923.9" font-family="Arial" font-size="14.00" fill="#000000">date_modified </text>
<text text-anchor="start" x="142.3064" y="-923.9" font-family="Arial" font-size="14.00" fill="#666666">[datetime]</text>
<polygon fill="none" stroke="#000000" points="43.5,-882.5 43.5,-912.5 284.5,-912.5 284.5,-882.5 43.5,-882.5"/>
<text text-anchor="start" x="50.5" y="-893.9" font-family="Arial" font-size="14.00" fill="#000000">modified_by </text>
<text text-anchor="start" x="129.8506" y="-893.9" font-family="Arial" font-size="14.00" fill="#666666">[int(11)]</text>
<polygon fill="none" stroke="#000000" points="43.5,-852.5 43.5,-882.5 284.5,-882.5 284.5,-852.5 43.5,-852.5"/>
<text text-anchor="start" x="50.5" y="-863.9" font-family="Arial" font-size="14.00" fill="#000000">modified_by_user </text>
<text text-anchor="start" x="164.859" y="-863.9" font-family="Arial" font-size="14.00" fill="#666666">[varchar(191)]</text>
<polygon fill="none" stroke="#000000" points="43.5,-822.5 43.5,-852.5 284.5,-852.5 284.5,-822.5 43.5,-822.5"/>
<text text-anchor="start" x="50.5" y="-833.9" font-family="Arial" font-size="14.00" fill="#000000">checked_out </text>
<text text-anchor="start" x="133.7594" y="-833.9" font-family="Arial" font-size="14.00" fill="#666666">[datetime]</text>
<polygon fill="none" stroke="#000000" points="43.5,-792.5 43.5,-822.5 284.5,-822.5 284.5,-792.5 43.5,-792.5"/>
<text text-anchor="start" x="50.5" y="-803.9" font-family="Arial" font-size="14.00" fill="#000000">checked_out_by </text>
<text text-anchor="start" x="156.3246" y="-803.9" font-family="Arial" font-size="14.00" fill="#666666">[int(11)]</text>
<polygon fill="none" stroke="#000000" points="43.5,-762.5 43.5,-792.5 284.5,-792.5 284.5,-762.5 43.5,-762.5"/>
<text text-anchor="start" x="50.0239" y="-773.9" font-family="Arial" font-size="14.00" fill="#000000">checked_out_by_user </text>
<text text-anchor="start" x="190.8569" y="-773.9" font-family="Arial" font-size="14.00" fill="#666666">[varchar(191)]</text>
<polygon fill="none" stroke="#000000" points="43.5,-732.5 43.5,-762.5 284.5,-762.5 284.5,-732.5 43.5,-732.5"/>
<text text-anchor="start" x="50.5" y="-743.9" font-family="Arial" font-size="14.00" fill="#000000">name </text>
<text text-anchor="start" x="89.399" y="-743.9" font-family="Arial" font-size="14.00" fill="#666666">[varchar(191)]</text>
<polygon fill="none" stroke="#000000" points="43.5,-702.5 43.5,-732.5 284.5,-732.5 284.5,-702.5 43.5,-702.5"/>
<text text-anchor="start" x="50.5" y="-713.9" font-family="Arial" font-size="14.00" fill="#000000">description </text>
<text text-anchor="start" x="122.068" y="-713.9" font-family="Arial" font-size="14.00" fill="#666666">[longtext]</text>
<polygon fill="none" stroke="#000000" points="43.5,-672.5 43.5,-702.5 284.5,-702.5 284.5,-672.5 43.5,-672.5"/>
<text text-anchor="start" x="50.5" y="-683.9" font-family="Arial" font-size="14.00" fill="#000000">alias </text>
<text text-anchor="start" x="83.169" y="-683.9" font-family="Arial" font-size="14.00" fill="#666666">[varchar(191)]</text>
<polygon fill="none" stroke="#000000" points="43.5,-642.5 43.5,-672.5 284.5,-672.5 284.5,-642.5 43.5,-642.5"/>
<text text-anchor="start" x="50.5" y="-653.9" font-family="Arial" font-size="14.00" fill="#000000">form_attr </text>
<text text-anchor="start" x="110.392" y="-653.9" font-family="Arial" font-size="14.00" fill="#666666">[varchar(191)]</text>
<polygon fill="none" stroke="#000000" points="43.5,-612.5 43.5,-642.5 284.5,-642.5 284.5,-612.5 43.5,-612.5"/>
<text text-anchor="start" x="50.5" y="-623.9" font-family="Arial" font-size="14.00" fill="#000000">cached_html </text>
<text text-anchor="start" x="133.744" y="-623.9" font-family="Arial" font-size="14.00" fill="#666666">[longtext]</text>
<polygon fill="none" stroke="#000000" points="43.5,-582.5 43.5,-612.5 284.5,-612.5 284.5,-582.5 43.5,-582.5"/>
<text text-anchor="start" x="50.5" y="-593.9" font-family="Arial" font-size="14.00" fill="#000000">post_action </text>
<text text-anchor="start" x="125.974" y="-593.9" font-family="Arial" font-size="14.00" fill="#666666">[varchar(191)]</text>
<polygon fill="none" stroke="#000000" points="43.5,-552.5 43.5,-582.5 284.5,-582.5 284.5,-552.5 43.5,-552.5"/>
<text text-anchor="start" x="50.5" y="-563.9" font-family="Arial" font-size="14.00" fill="#000000">post_action_property </text>
<text text-anchor="start" x="185.0988" y="-563.9" font-family="Arial" font-size="14.00" fill="#666666">[varchar(191)]</text>
<polygon fill="none" stroke="#000000" points="43.5,-522.5 43.5,-552.5 284.5,-552.5 284.5,-522.5 43.5,-522.5"/>
<text text-anchor="start" x="50.5" y="-533.9" font-family="Arial" font-size="14.00" fill="#000000">publish_up </text>
<text text-anchor="start" x="122.082" y="-533.9" font-family="Arial" font-size="14.00" fill="#666666">[datetime]</text>
<polygon fill="none" stroke="#000000" points="43.5,-492.5 43.5,-522.5 284.5,-522.5 284.5,-492.5 43.5,-492.5"/>
<text text-anchor="start" x="50.5" y="-503.9" font-family="Arial" font-size="14.00" fill="#000000">publish_down </text>
<text text-anchor="start" x="139.9712" y="-503.9" font-family="Arial" font-size="14.00" fill="#666666">[datetime]</text>
<polygon fill="none" stroke="#000000" points="43.5,-462.5 43.5,-492.5 284.5,-492.5 284.5,-462.5 43.5,-462.5"/>
<text text-anchor="start" x="50.5" y="-473.9" font-family="Arial" font-size="14.00" fill="#000000">template </text>
<text text-anchor="start" x="108.0694" y="-473.9" font-family="Arial" font-size="14.00" fill="#666666">[varchar(191)]</text>
<polygon fill="none" stroke="#000000" points="43.5,-432.5 43.5,-462.5 284.5,-462.5 284.5,-432.5 43.5,-432.5"/>
<text text-anchor="start" x="50.5" y="-443.9" font-family="Arial" font-size="14.00" fill="#000000">in_kiosk_mode </text>
<text text-anchor="start" x="147.7426" y="-443.9" font-family="Arial" font-size="14.00" fill="#666666">[tinyint(1)]</text>
<polygon fill="none" stroke="#000000" points="43.5,-402.5 43.5,-432.5 284.5,-432.5 284.5,-402.5 43.5,-402.5"/>
<text text-anchor="start" x="50.5" y="-413.9" font-family="Arial" font-size="14.00" fill="#000000">render_style </text>
<text text-anchor="start" x="131.4046" y="-413.9" font-family="Arial" font-size="14.00" fill="#666666">[tinyint(1)]</text>
<polygon fill="none" stroke="#000000" points="43.5,-372.5 43.5,-402.5 284.5,-402.5 284.5,-372.5 43.5,-372.5"/>
<text text-anchor="start" x="50.5" y="-383.9" font-family="Arial" font-size="14.00" fill="#000000">form_type </text>
<text text-anchor="start" x="116.6234" y="-383.9" font-family="Arial" font-size="14.00" fill="#666666">[varchar(191)]</text>
<polygon fill="none" stroke="#000000" points="43.5,-342.5 43.5,-372.5 284.5,-372.5 284.5,-342.5 43.5,-342.5"/>
<text text-anchor="start" x="50.5" y="-353.9" font-family="Arial" font-size="14.00" fill="#000000">no_index </text>
<text text-anchor="start" x="111.1928" y="-353.9" font-family="Arial" font-size="14.00" fill="#666666">[tinyint(1)]</text>
<polygon fill="none" stroke="#000000" points="43.5,-312.5 43.5,-342.5 284.5,-342.5 284.5,-312.5 43.5,-312.5"/>
<text text-anchor="start" x="50.5" y="-323.9" font-family="Arial" font-size="14.00" fill="#000000">progressive_profiling_limit </text>
<text text-anchor="start" x="216.169" y="-323.9" font-family="Arial" font-size="14.00" fill="#666666">[int(11)]</text>
</g>
<!-- form_submissions&#45;&gt;forms -->
<g id="edge1" class="edge">
<title>form_submissions:form_id&#45;&gt;forms:id</title>
<path fill="none" stroke="#000000" d="M529.4662,-1747.2966C387.3334,-1741.4164 392.8407,-1608.9678 336.5,-1471 305.6507,-1395.456 366.1001,-1107.5 284.5,-1107.5"/>
<polygon fill="#000000" stroke="#000000" points="529.5021,-1747.2972 539.4088,-1751.9991 534.501,-1747.3986 539.5,-1747.5 539.5,-1747.5 539.5,-1747.5 534.501,-1747.3986 539.5912,-1743.0009 529.5021,-1747.2972 529.5021,-1747.2972"/>
<text text-anchor="start" x="305.896" y="-1757.5" font-family="Arial" font-size="10.00" fill="#000000">FOREIGN KEY (form_id) REFERENCES forms (id)</text>
</g>
<!-- ip_addresses -->
<g id="node3" class="node">
<title>ip_addresses</title>
<polygon fill="#efefef" stroke="transparent" points="388.5,-762.5 388.5,-797.5 606.5,-797.5 606.5,-762.5 388.5,-762.5"/>
<polygon fill="none" stroke="#000000" points="388.5,-762.5 388.5,-797.5 606.5,-797.5 606.5,-762.5 388.5,-762.5"/>
<text text-anchor="start" x="395.3582" y="-775.3" font-family="Arial Bold" font-size="18.00" fill="#000000">ip_addresses</text>
<text text-anchor="start" x="502.388" y="-775.3" font-family="Arial" font-size="14.00" fill="#000000"> </text>
<text text-anchor="start" x="506.2786" y="-775.3" font-family="Arial" font-size="14.00" fill="#666666">[BASE TABLE]</text>
<polygon fill="none" stroke="#000000" points="388.5,-732.5 388.5,-762.5 606.5,-762.5 606.5,-732.5 388.5,-732.5"/>
<text text-anchor="start" x="395.5" y="-743.9" font-family="Arial" font-size="14.00" fill="#000000">id </text>
<text text-anchor="start" x="410.2798" y="-743.9" font-family="Arial" font-size="14.00" fill="#666666">[int(10) unsigned]</text>
<polygon fill="none" stroke="#000000" points="388.5,-702.5 388.5,-732.5 606.5,-732.5 606.5,-702.5 388.5,-702.5"/>
<text text-anchor="start" x="395.5" y="-713.9" font-family="Arial" font-size="14.00" fill="#000000">ip_address </text>
<text text-anchor="start" x="467.8534" y="-713.9" font-family="Arial" font-size="14.00" fill="#666666">[varchar(45)]</text>
<polygon fill="none" stroke="#000000" points="388.5,-672.5 388.5,-702.5 606.5,-702.5 606.5,-672.5 388.5,-672.5"/>
<text text-anchor="start" x="395.5" y="-683.9" font-family="Arial" font-size="14.00" fill="#000000">ip_details </text>
<text text-anchor="start" x="458.514" y="-683.9" font-family="Arial" font-size="14.00" fill="#666666">[longtext]</text>
</g>
<!-- form_submissions&#45;&gt;ip_addresses -->
<g id="edge2" class="edge">
<title>form_submissions:ip_id&#45;&gt;ip_addresses:id</title>
<path fill="none" stroke="#000000" d="M530.0036,-1714.3629C449.8318,-1654.1553 710.9475,-747.5 606.5,-747.5"/>
<polygon fill="#000000" stroke="#000000" points="530.0047,-1714.3632 538.0884,-1721.7729 534.7523,-1715.9316 539.5,-1717.5 539.5,-1717.5 539.5,-1717.5 534.7523,-1715.9316 540.9116,-1713.2271 530.0047,-1714.3632 530.0047,-1714.3632"/>
<text text-anchor="start" x="283.7725" y="-1727.5" font-family="Arial" font-size="10.00" fill="#000000">FOREIGN KEY (ip_id) REFERENCES ip_addresses (id)</text>
</g>
<!-- leads -->
<g id="node4" class="node">
<title>leads</title>
<polygon fill="#efefef" stroke="transparent" points="711.5,-1392.5 711.5,-1427.5 964.5,-1427.5 964.5,-1392.5 711.5,-1392.5"/>
<polygon fill="none" stroke="#000000" points="711.5,-1392.5 711.5,-1427.5 964.5,-1427.5 964.5,-1392.5 711.5,-1392.5"/>
<text text-anchor="start" x="767.8667" y="-1405.3" font-family="Arial Bold" font-size="18.00" fill="#000000">leads</text>
<text text-anchor="start" x="810.8795" y="-1405.3" font-family="Arial" font-size="14.00" fill="#000000"> </text>
<text text-anchor="start" x="814.7701" y="-1405.3" font-family="Arial" font-size="14.00" fill="#666666">[BASE TABLE]</text>
<polygon fill="none" stroke="#000000" points="711.5,-1362.5 711.5,-1392.5 964.5,-1392.5 964.5,-1362.5 711.5,-1362.5"/>
<text text-anchor="start" x="718.5" y="-1373.9" font-family="Arial" font-size="14.00" fill="#000000">id </text>
<text text-anchor="start" x="733.2798" y="-1373.9" font-family="Arial" font-size="14.00" fill="#666666">[bigint(20) unsigned]</text>
<polygon fill="none" stroke="#000000" points="711.5,-1332.5 711.5,-1362.5 964.5,-1362.5 964.5,-1332.5 711.5,-1332.5"/>
<text text-anchor="start" x="718.5" y="-1343.9" font-family="Arial" font-size="14.00" fill="#000000">owner_id </text>
<text text-anchor="start" x="779.1774" y="-1343.9" font-family="Arial" font-size="14.00" fill="#666666">[int(10) unsigned]</text>
<polygon fill="none" stroke="#000000" points="711.5,-1302.5 711.5,-1332.5 964.5,-1332.5 964.5,-1302.5 711.5,-1302.5"/>
<text text-anchor="start" x="718.5" y="-1313.9" font-family="Arial" font-size="14.00" fill="#000000">stage_id </text>
<text text-anchor="start" x="775.3008" y="-1313.9" font-family="Arial" font-size="14.00" fill="#666666">[int(10) unsigned]</text>
<polygon fill="none" stroke="#000000" points="711.5,-1272.5 711.5,-1302.5 964.5,-1302.5 964.5,-1272.5 711.5,-1272.5"/>
<text text-anchor="start" x="718.5" y="-1283.9" font-family="Arial" font-size="14.00" fill="#000000">is_published </text>
<text text-anchor="start" x="800.1886" y="-1283.9" font-family="Arial" font-size="14.00" fill="#666666">[tinyint(1)]</text>
<polygon fill="none" stroke="#000000" points="711.5,-1242.5 711.5,-1272.5 964.5,-1272.5 964.5,-1242.5 711.5,-1242.5"/>
<text text-anchor="start" x="718.5" y="-1253.9" font-family="Arial" font-size="14.00" fill="#000000">date_added </text>
<text text-anchor="start" x="796.3246" y="-1253.9" font-family="Arial" font-size="14.00" fill="#666666">[datetime]</text>
<polygon fill="none" stroke="#000000" points="711.5,-1212.5 711.5,-1242.5 964.5,-1242.5 964.5,-1212.5 711.5,-1212.5"/>
<text text-anchor="start" x="718.5" y="-1223.9" font-family="Arial" font-size="14.00" fill="#000000">created_by </text>
<text text-anchor="start" x="791.6374" y="-1223.9" font-family="Arial" font-size="14.00" fill="#666666">[int(11)]</text>
<polygon fill="none" stroke="#000000" points="711.5,-1182.5 711.5,-1212.5 964.5,-1212.5 964.5,-1182.5 711.5,-1182.5"/>
<text text-anchor="start" x="718.5" y="-1193.9" font-family="Arial" font-size="14.00" fill="#000000">created_by_user </text>
<text text-anchor="start" x="826.6458" y="-1193.9" font-family="Arial" font-size="14.00" fill="#666666">[varchar(191)]</text>
<polygon fill="none" stroke="#000000" points="711.5,-1152.5 711.5,-1182.5 964.5,-1182.5 964.5,-1152.5 711.5,-1152.5"/>
<text text-anchor="start" x="718.5" y="-1163.9" font-family="Arial" font-size="14.00" fill="#000000">date_modified </text>
<text text-anchor="start" x="810.3064" y="-1163.9" font-family="Arial" font-size="14.00" fill="#666666">[datetime]</text>
<polygon fill="none" stroke="#000000" points="711.5,-1122.5 711.5,-1152.5 964.5,-1152.5 964.5,-1122.5 711.5,-1122.5"/>
<text text-anchor="start" x="718.5" y="-1133.9" font-family="Arial" font-size="14.00" fill="#000000">modified_by </text>
<text text-anchor="start" x="797.8506" y="-1133.9" font-family="Arial" font-size="14.00" fill="#666666">[int(11)]</text>
<polygon fill="none" stroke="#000000" points="711.5,-1092.5 711.5,-1122.5 964.5,-1122.5 964.5,-1092.5 711.5,-1092.5"/>
<text text-anchor="start" x="718.5" y="-1103.9" font-family="Arial" font-size="14.00" fill="#000000">modified_by_user </text>
<text text-anchor="start" x="832.859" y="-1103.9" font-family="Arial" font-size="14.00" fill="#666666">[varchar(191)]</text>
<polygon fill="none" stroke="#000000" points="711.5,-1062.5 711.5,-1092.5 964.5,-1092.5 964.5,-1062.5 711.5,-1062.5"/>
<text text-anchor="start" x="718.5" y="-1073.9" font-family="Arial" font-size="14.00" fill="#000000">checked_out </text>
<text text-anchor="start" x="801.7594" y="-1073.9" font-family="Arial" font-size="14.00" fill="#666666">[datetime]</text>
<polygon fill="none" stroke="#000000" points="711.5,-1032.5 711.5,-1062.5 964.5,-1062.5 964.5,-1032.5 711.5,-1032.5"/>
<text text-anchor="start" x="718.5" y="-1043.9" font-family="Arial" font-size="14.00" fill="#000000">checked_out_by </text>
<text text-anchor="start" x="824.3246" y="-1043.9" font-family="Arial" font-size="14.00" fill="#666666">[int(11)]</text>
<polygon fill="none" stroke="#000000" points="711.5,-1002.5 711.5,-1032.5 964.5,-1032.5 964.5,-1002.5 711.5,-1002.5"/>
<text text-anchor="start" x="718.5" y="-1013.9" font-family="Arial" font-size="14.00" fill="#000000">checked_out_by_user </text>
<text text-anchor="start" x="859.333" y="-1013.9" font-family="Arial" font-size="14.00" fill="#666666">[varchar(191)]</text>
<polygon fill="none" stroke="#000000" points="711.5,-972.5 711.5,-1002.5 964.5,-1002.5 964.5,-972.5 711.5,-972.5"/>
<text text-anchor="start" x="718.5" y="-983.9" font-family="Arial" font-size="14.00" fill="#000000">points </text>
<text text-anchor="start" x="759.7356" y="-983.9" font-family="Arial" font-size="14.00" fill="#666666">[int(11)]</text>
<polygon fill="none" stroke="#000000" points="711.5,-942.5 711.5,-972.5 964.5,-972.5 964.5,-942.5 711.5,-942.5"/>
<text text-anchor="start" x="718.5" y="-953.9" font-family="Arial" font-size="14.00" fill="#000000">last_active </text>
<text text-anchor="start" x="788.5154" y="-953.9" font-family="Arial" font-size="14.00" fill="#666666">[datetime]</text>
<polygon fill="none" stroke="#000000" points="711.5,-912.5 711.5,-942.5 964.5,-942.5 964.5,-912.5 711.5,-912.5"/>
<text text-anchor="start" x="718.5" y="-923.9" font-family="Arial" font-size="14.00" fill="#000000">internal </text>
<text text-anchor="start" x="768.2854" y="-923.9" font-family="Arial" font-size="14.00" fill="#666666">[longtext]</text>
<polygon fill="none" stroke="#000000" points="711.5,-882.5 711.5,-912.5 964.5,-912.5 964.5,-882.5 711.5,-882.5"/>
<text text-anchor="start" x="718.5" y="-893.9" font-family="Arial" font-size="14.00" fill="#000000">social_cache </text>
<text text-anchor="start" x="803.2994" y="-893.9" font-family="Arial" font-size="14.00" fill="#666666">[longtext]</text>
<polygon fill="none" stroke="#000000" points="711.5,-852.5 711.5,-882.5 964.5,-882.5 964.5,-852.5 711.5,-852.5"/>
<text text-anchor="start" x="718.5" y="-863.9" font-family="Arial" font-size="14.00" fill="#000000">date_identified </text>
<text text-anchor="start" x="813.4256" y="-863.9" font-family="Arial" font-size="14.00" fill="#666666">[datetime]</text>
<polygon fill="none" stroke="#000000" points="711.5,-822.5 711.5,-852.5 964.5,-852.5 964.5,-822.5 711.5,-822.5"/>
<text text-anchor="start" x="718.2062" y="-833.9" font-family="Arial" font-size="14.00" fill="#000000">preferred_profile_image </text>
<text text-anchor="start" x="870.6746" y="-833.9" font-family="Arial" font-size="14.00" fill="#666666">[varchar(191)]</text>
<polygon fill="none" stroke="#000000" points="711.5,-792.5 711.5,-822.5 964.5,-822.5 964.5,-792.5 711.5,-792.5"/>
<text text-anchor="start" x="718.5" y="-803.9" font-family="Arial" font-size="14.00" fill="#000000">title </text>
<text text-anchor="start" x="744.1676" y="-803.9" font-family="Arial" font-size="14.00" fill="#666666">[varchar(191)]</text>
<polygon fill="none" stroke="#000000" points="711.5,-762.5 711.5,-792.5 964.5,-792.5 964.5,-762.5 711.5,-762.5"/>
<text text-anchor="start" x="718.5" y="-773.9" font-family="Arial" font-size="14.00" fill="#000000">firstname </text>
<text text-anchor="start" x="779.9474" y="-773.9" font-family="Arial" font-size="14.00" fill="#666666">[varchar(191)]</text>
<polygon fill="none" stroke="#000000" points="711.5,-732.5 711.5,-762.5 964.5,-762.5 964.5,-732.5 711.5,-732.5"/>
<text text-anchor="start" x="718.5" y="-743.9" font-family="Arial" font-size="14.00" fill="#000000">lastname </text>
<text text-anchor="start" x="779.1788" y="-743.9" font-family="Arial" font-size="14.00" fill="#666666">[varchar(191)]</text>
<polygon fill="none" stroke="#000000" points="711.5,-702.5 711.5,-732.5 964.5,-732.5 964.5,-702.5 711.5,-702.5"/>
<text text-anchor="start" x="718.5" y="-713.9" font-family="Arial" font-size="14.00" fill="#000000">company </text>
<text text-anchor="start" x="779.1816" y="-713.9" font-family="Arial" font-size="14.00" fill="#666666">[varchar(191)]</text>
<polygon fill="none" stroke="#000000" points="711.5,-672.5 711.5,-702.5 964.5,-702.5 964.5,-672.5 711.5,-672.5"/>
<text text-anchor="start" x="718.5" y="-683.9" font-family="Arial" font-size="14.00" fill="#000000">position </text>
<text text-anchor="start" x="770.6248" y="-683.9" font-family="Arial" font-size="14.00" fill="#666666">[varchar(191)]</text>
<polygon fill="none" stroke="#000000" points="711.5,-642.5 711.5,-672.5 964.5,-672.5 964.5,-642.5 711.5,-642.5"/>
<text text-anchor="start" x="718.5" y="-653.9" font-family="Arial" font-size="14.00" fill="#000000">email </text>
<text text-anchor="start" x="755.8296" y="-653.9" font-family="Arial" font-size="14.00" fill="#666666">[varchar(191)]</text>
<polygon fill="none" stroke="#000000" points="711.5,-612.5 711.5,-642.5 964.5,-642.5 964.5,-612.5 711.5,-612.5"/>
<text text-anchor="start" x="718.5" y="-623.9" font-family="Arial" font-size="14.00" fill="#000000">phone </text>
<text text-anchor="start" x="761.3036" y="-623.9" font-family="Arial" font-size="14.00" fill="#666666">[varchar(191)]</text>
<polygon fill="none" stroke="#000000" points="711.5,-582.5 711.5,-612.5 964.5,-612.5 964.5,-582.5 711.5,-582.5"/>
<text text-anchor="start" x="718.5" y="-593.9" font-family="Arial" font-size="14.00" fill="#000000">mobile </text>
<text text-anchor="start" x="763.6122" y="-593.9" font-family="Arial" font-size="14.00" fill="#666666">[varchar(191)]</text>
<polygon fill="none" stroke="#000000" points="711.5,-552.5 711.5,-582.5 964.5,-582.5 964.5,-552.5 711.5,-552.5"/>
<text text-anchor="start" x="718.5" y="-563.9" font-family="Arial" font-size="14.00" fill="#000000">address1 </text>
<text text-anchor="start" x="779.9642" y="-563.9" font-family="Arial" font-size="14.00" fill="#666666">[varchar(191)]</text>
<polygon fill="none" stroke="#000000" points="711.5,-522.5 711.5,-552.5 964.5,-552.5 964.5,-522.5 711.5,-522.5"/>
<text text-anchor="start" x="718.5" y="-533.9" font-family="Arial" font-size="14.00" fill="#000000">address2 </text>
<text text-anchor="start" x="779.9642" y="-533.9" font-family="Arial" font-size="14.00" fill="#666666">[varchar(191)]</text>
<polygon fill="none" stroke="#000000" points="711.5,-492.5 711.5,-522.5 964.5,-522.5 964.5,-492.5 711.5,-492.5"/>
<text text-anchor="start" x="718.5" y="-503.9" font-family="Arial" font-size="14.00" fill="#000000">city </text>
<text text-anchor="start" x="743.3878" y="-503.9" font-family="Arial" font-size="14.00" fill="#666666">[varchar(191)]</text>
<polygon fill="none" stroke="#000000" points="711.5,-462.5 711.5,-492.5 964.5,-492.5 964.5,-462.5 711.5,-462.5"/>
<text text-anchor="start" x="718.5" y="-473.9" font-family="Arial" font-size="14.00" fill="#000000">state </text>
<text text-anchor="start" x="752.737" y="-473.9" font-family="Arial" font-size="14.00" fill="#666666">[varchar(191)]</text>
<polygon fill="none" stroke="#000000" points="711.5,-432.5 711.5,-462.5 964.5,-462.5 964.5,-432.5 711.5,-432.5"/>
<text text-anchor="start" x="718.5" y="-443.9" font-family="Arial" font-size="14.00" fill="#000000">zipcode </text>
<text text-anchor="start" x="770.6276" y="-443.9" font-family="Arial" font-size="14.00" fill="#666666">[varchar(191)]</text>
<polygon fill="none" stroke="#000000" points="711.5,-402.5 711.5,-432.5 964.5,-432.5 964.5,-402.5 711.5,-402.5"/>
<text text-anchor="start" x="718.5" y="-413.9" font-family="Arial" font-size="14.00" fill="#000000">timezone </text>
<text text-anchor="start" x="779.1788" y="-413.9" font-family="Arial" font-size="14.00" fill="#666666">[varchar(191)]</text>
<polygon fill="none" stroke="#000000" points="711.5,-372.5 711.5,-402.5 964.5,-402.5 964.5,-372.5 711.5,-372.5"/>
<text text-anchor="start" x="718.5" y="-383.9" font-family="Arial" font-size="14.00" fill="#000000">country </text>
<text text-anchor="start" x="768.2896" y="-383.9" font-family="Arial" font-size="14.00" fill="#666666">[varchar(191)]</text>
<polygon fill="none" stroke="#000000" points="711.5,-342.5 711.5,-372.5 964.5,-372.5 964.5,-342.5 711.5,-342.5"/>
<text text-anchor="start" x="718.5" y="-353.9" font-family="Arial" font-size="14.00" fill="#000000">fax </text>
<text text-anchor="start" x="741.0638" y="-353.9" font-family="Arial" font-size="14.00" fill="#666666">[varchar(255)]</text>
<polygon fill="none" stroke="#000000" points="711.5,-312.5 711.5,-342.5 964.5,-342.5 964.5,-312.5 711.5,-312.5"/>
<text text-anchor="start" x="718.5" y="-323.9" font-family="Arial" font-size="14.00" fill="#000000">preferred_locale </text>
<text text-anchor="start" x="823.5196" y="-323.9" font-family="Arial" font-size="14.00" fill="#666666">[varchar(255)]</text>
<polygon fill="none" stroke="#000000" points="711.5,-282.5 711.5,-312.5 964.5,-312.5 964.5,-282.5 711.5,-282.5"/>
<text text-anchor="start" x="718.5" y="-293.9" font-family="Arial" font-size="14.00" fill="#000000">attribution_date </text>
<text text-anchor="start" x="818.8702" y="-293.9" font-family="Arial" font-size="14.00" fill="#666666">[datetime]</text>
<polygon fill="none" stroke="#000000" points="711.5,-252.5 711.5,-282.5 964.5,-282.5 964.5,-252.5 711.5,-252.5"/>
<text text-anchor="start" x="718.5" y="-263.9" font-family="Arial" font-size="14.00" fill="#000000">attribution </text>
<text text-anchor="start" x="783.8492" y="-263.9" font-family="Arial" font-size="14.00" fill="#666666">[double]</text>
<polygon fill="none" stroke="#000000" points="711.5,-222.5 711.5,-252.5 964.5,-252.5 964.5,-222.5 711.5,-222.5"/>
<text text-anchor="start" x="718.5" y="-233.9" font-family="Arial" font-size="14.00" fill="#000000">website </text>
<text text-anchor="start" x="769.8422" y="-233.9" font-family="Arial" font-size="14.00" fill="#666666">[longtext]</text>
<polygon fill="none" stroke="#000000" points="711.5,-192.5 711.5,-222.5 964.5,-222.5 964.5,-192.5 711.5,-192.5"/>
<text text-anchor="start" x="718.5" y="-203.9" font-family="Arial" font-size="14.00" fill="#000000">facebook </text>
<text text-anchor="start" x="779.1942" y="-203.9" font-family="Arial" font-size="14.00" fill="#666666">[varchar(255)]</text>
<polygon fill="none" stroke="#000000" points="711.5,-162.5 711.5,-192.5 964.5,-192.5 964.5,-162.5 711.5,-162.5"/>
<text text-anchor="start" x="718.5" y="-173.9" font-family="Arial" font-size="14.00" fill="#000000">foursquare </text>
<text text-anchor="start" x="789.298" y="-173.9" font-family="Arial" font-size="14.00" fill="#666666">[varchar(255)]</text>
<polygon fill="none" stroke="#000000" points="711.5,-132.5 711.5,-162.5 964.5,-162.5 964.5,-132.5 711.5,-132.5"/>
<text text-anchor="start" x="718.5" y="-143.9" font-family="Arial" font-size="14.00" fill="#000000">instagram </text>
<text text-anchor="start" x="783.8394" y="-143.9" font-family="Arial" font-size="14.00" fill="#666666">[varchar(255)]</text>
<polygon fill="none" stroke="#000000" points="711.5,-102.5 711.5,-132.5 964.5,-132.5 964.5,-102.5 711.5,-102.5"/>
<text text-anchor="start" x="718.5" y="-113.9" font-family="Arial" font-size="14.00" fill="#000000">linkedin </text>
<text text-anchor="start" x="769.8408" y="-113.9" font-family="Arial" font-size="14.00" fill="#666666">[varchar(255)]</text>
<polygon fill="none" stroke="#000000" points="711.5,-72.5 711.5,-102.5 964.5,-102.5 964.5,-72.5 711.5,-72.5"/>
<text text-anchor="start" x="718.5" y="-83.9" font-family="Arial" font-size="14.00" fill="#000000">skype </text>
<text text-anchor="start" x="758.9558" y="-83.9" font-family="Arial" font-size="14.00" fill="#666666">[varchar(255)]</text>
<polygon fill="none" stroke="#000000" points="711.5,-42.5 711.5,-72.5 964.5,-72.5 964.5,-42.5 711.5,-42.5"/>
<text text-anchor="start" x="718.5" y="-53.9" font-family="Arial" font-size="14.00" fill="#000000">twitter </text>
<text text-anchor="start" x="759.7188" y="-53.9" font-family="Arial" font-size="14.00" fill="#666666">[varchar(255)]</text>
</g>
<!-- form_submissions&#45;&gt;leads -->
<g id="edge3" class="edge">
<title>form_submissions:lead_id&#45;&gt;leads:id</title>
<path fill="none" stroke="#000000" d="M805.617,-1686.8272C872.4661,-1677.3942 837.6778,-1570.9643 795.5,-1507 773.1405,-1473.0909 733.8595,-1504.9091 711.5,-1471 688.624,-1436.3077 669.9444,-1377.5 711.5,-1377.5"/>
<polygon fill="#000000" stroke="#000000" points="805.478,-1686.8364 795.2014,-1683.0099 800.489,-1687.1682 795.5,-1687.5 795.5,-1687.5 795.5,-1687.5 800.489,-1687.1682 795.7986,-1691.9901 805.478,-1686.8364 805.478,-1686.8364"/>
<text text-anchor="start" x="802.996" y="-1697.5" font-family="Arial" font-size="10.00" fill="#000000">FOREIGN KEY (lead_id) REFERENCES leads (id)</text>
</g>
<!-- pages -->
<g id="node5" class="node">
<title>pages</title>
<polygon fill="#efefef" stroke="transparent" points="1068.5,-1212.5 1068.5,-1247.5 1324.5,-1247.5 1324.5,-1212.5 1068.5,-1212.5"/>
<polygon fill="none" stroke="#000000" points="1068.5,-1212.5 1068.5,-1247.5 1324.5,-1247.5 1324.5,-1212.5 1068.5,-1212.5"/>
<text text-anchor="start" x="1123.3607" y="-1225.3" font-family="Arial Bold" font-size="18.00" fill="#000000">pages</text>
<text text-anchor="start" x="1172.3855" y="-1225.3" font-family="Arial" font-size="14.00" fill="#000000"> </text>
<text text-anchor="start" x="1176.2761" y="-1225.3" font-family="Arial" font-size="14.00" fill="#666666">[BASE TABLE]</text>
<polygon fill="none" stroke="#000000" points="1068.5,-1182.5 1068.5,-1212.5 1324.5,-1212.5 1324.5,-1182.5 1068.5,-1182.5"/>
<text text-anchor="start" x="1075.5" y="-1193.9" font-family="Arial" font-size="14.00" fill="#000000">id </text>
<text text-anchor="start" x="1090.2798" y="-1193.9" font-family="Arial" font-size="14.00" fill="#666666">[int(10) unsigned]</text>
<polygon fill="none" stroke="#000000" points="1068.5,-1152.5 1068.5,-1182.5 1324.5,-1182.5 1324.5,-1152.5 1068.5,-1152.5"/>
<text text-anchor="start" x="1075.5" y="-1163.9" font-family="Arial" font-size="14.00" fill="#000000">category_id </text>
<text text-anchor="start" x="1151.744" y="-1163.9" font-family="Arial" font-size="14.00" fill="#666666">[int(10) unsigned]</text>
<polygon fill="none" stroke="#000000" points="1068.5,-1122.5 1068.5,-1152.5 1324.5,-1152.5 1324.5,-1122.5 1068.5,-1122.5"/>
<text text-anchor="start" x="1075.1326" y="-1133.9" font-family="Arial" font-size="14.00" fill="#000000">translation_parent_id </text>
<text text-anchor="start" x="1209.7272" y="-1133.9" font-family="Arial" font-size="14.00" fill="#666666">[int(10) unsigned]</text>
<polygon fill="none" stroke="#000000" points="1068.5,-1092.5 1068.5,-1122.5 1324.5,-1122.5 1324.5,-1092.5 1068.5,-1092.5"/>
<text text-anchor="start" x="1075.5" y="-1103.9" font-family="Arial" font-size="14.00" fill="#000000">variant_parent_id </text>
<text text-anchor="start" x="1187.5322" y="-1103.9" font-family="Arial" font-size="14.00" fill="#666666">[int(10) unsigned]</text>
<polygon fill="none" stroke="#000000" points="1068.5,-1062.5 1068.5,-1092.5 1324.5,-1092.5 1324.5,-1062.5 1068.5,-1062.5"/>
<text text-anchor="start" x="1075.5" y="-1073.9" font-family="Arial" font-size="14.00" fill="#000000">is_published </text>
<text text-anchor="start" x="1157.1886" y="-1073.9" font-family="Arial" font-size="14.00" fill="#666666">[tinyint(1)]</text>
<polygon fill="none" stroke="#000000" points="1068.5,-1032.5 1068.5,-1062.5 1324.5,-1062.5 1324.5,-1032.5 1068.5,-1032.5"/>
<text text-anchor="start" x="1075.5" y="-1043.9" font-family="Arial" font-size="14.00" fill="#000000">date_added </text>
<text text-anchor="start" x="1153.3246" y="-1043.9" font-family="Arial" font-size="14.00" fill="#666666">[datetime]</text>
<polygon fill="none" stroke="#000000" points="1068.5,-1002.5 1068.5,-1032.5 1324.5,-1032.5 1324.5,-1002.5 1068.5,-1002.5"/>
<text text-anchor="start" x="1075.5" y="-1013.9" font-family="Arial" font-size="14.00" fill="#000000">created_by </text>
<text text-anchor="start" x="1148.6374" y="-1013.9" font-family="Arial" font-size="14.00" fill="#666666">[int(11)]</text>
<polygon fill="none" stroke="#000000" points="1068.5,-972.5 1068.5,-1002.5 1324.5,-1002.5 1324.5,-972.5 1068.5,-972.5"/>
<text text-anchor="start" x="1075.5" y="-983.9" font-family="Arial" font-size="14.00" fill="#000000">created_by_user </text>
<text text-anchor="start" x="1183.6458" y="-983.9" font-family="Arial" font-size="14.00" fill="#666666">[varchar(191)]</text>
<polygon fill="none" stroke="#000000" points="1068.5,-942.5 1068.5,-972.5 1324.5,-972.5 1324.5,-942.5 1068.5,-942.5"/>
<text text-anchor="start" x="1075.5" y="-953.9" font-family="Arial" font-size="14.00" fill="#000000">date_modified </text>
<text text-anchor="start" x="1167.3064" y="-953.9" font-family="Arial" font-size="14.00" fill="#666666">[datetime]</text>
<polygon fill="none" stroke="#000000" points="1068.5,-912.5 1068.5,-942.5 1324.5,-942.5 1324.5,-912.5 1068.5,-912.5"/>
<text text-anchor="start" x="1075.5" y="-923.9" font-family="Arial" font-size="14.00" fill="#000000">modified_by </text>
<text text-anchor="start" x="1154.8506" y="-923.9" font-family="Arial" font-size="14.00" fill="#666666">[int(11)]</text>
<polygon fill="none" stroke="#000000" points="1068.5,-882.5 1068.5,-912.5 1324.5,-912.5 1324.5,-882.5 1068.5,-882.5"/>
<text text-anchor="start" x="1075.5" y="-893.9" font-family="Arial" font-size="14.00" fill="#000000">modified_by_user </text>
<text text-anchor="start" x="1189.859" y="-893.9" font-family="Arial" font-size="14.00" fill="#666666">[varchar(191)]</text>
<polygon fill="none" stroke="#000000" points="1068.5,-852.5 1068.5,-882.5 1324.5,-882.5 1324.5,-852.5 1068.5,-852.5"/>
<text text-anchor="start" x="1075.5" y="-863.9" font-family="Arial" font-size="14.00" fill="#000000">checked_out </text>
<text text-anchor="start" x="1158.7594" y="-863.9" font-family="Arial" font-size="14.00" fill="#666666">[datetime]</text>
<polygon fill="none" stroke="#000000" points="1068.5,-822.5 1068.5,-852.5 1324.5,-852.5 1324.5,-822.5 1068.5,-822.5"/>
<text text-anchor="start" x="1075.5" y="-833.9" font-family="Arial" font-size="14.00" fill="#000000">checked_out_by </text>
<text text-anchor="start" x="1181.3246" y="-833.9" font-family="Arial" font-size="14.00" fill="#666666">[int(11)]</text>
<polygon fill="none" stroke="#000000" points="1068.5,-792.5 1068.5,-822.5 1324.5,-822.5 1324.5,-792.5 1068.5,-792.5"/>
<text text-anchor="start" x="1075.5" y="-803.9" font-family="Arial" font-size="14.00" fill="#000000">checked_out_by_user </text>
<text text-anchor="start" x="1216.333" y="-803.9" font-family="Arial" font-size="14.00" fill="#666666">[varchar(191)]</text>
<polygon fill="none" stroke="#000000" points="1068.5,-762.5 1068.5,-792.5 1324.5,-792.5 1324.5,-762.5 1068.5,-762.5"/>
<text text-anchor="start" x="1075.5" y="-773.9" font-family="Arial" font-size="14.00" fill="#000000">title </text>
<text text-anchor="start" x="1101.1676" y="-773.9" font-family="Arial" font-size="14.00" fill="#666666">[varchar(191)]</text>
<polygon fill="none" stroke="#000000" points="1068.5,-732.5 1068.5,-762.5 1324.5,-762.5 1324.5,-732.5 1068.5,-732.5"/>
<text text-anchor="start" x="1075.5" y="-743.9" font-family="Arial" font-size="14.00" fill="#000000">alias </text>
<text text-anchor="start" x="1108.169" y="-743.9" font-family="Arial" font-size="14.00" fill="#666666">[varchar(191)]</text>
<polygon fill="none" stroke="#000000" points="1068.5,-702.5 1068.5,-732.5 1324.5,-732.5 1324.5,-702.5 1068.5,-702.5"/>
<text text-anchor="start" x="1075.5" y="-713.9" font-family="Arial" font-size="14.00" fill="#000000">template </text>
<text text-anchor="start" x="1133.0694" y="-713.9" font-family="Arial" font-size="14.00" fill="#666666">[varchar(191)]</text>
<polygon fill="none" stroke="#000000" points="1068.5,-672.5 1068.5,-702.5 1324.5,-702.5 1324.5,-672.5 1068.5,-672.5"/>
<text text-anchor="start" x="1075.5" y="-683.9" font-family="Arial" font-size="14.00" fill="#000000">custom_html </text>
<text text-anchor="start" x="1158.73" y="-683.9" font-family="Arial" font-size="14.00" fill="#666666">[longtext]</text>
<polygon fill="none" stroke="#000000" points="1068.5,-642.5 1068.5,-672.5 1324.5,-672.5 1324.5,-642.5 1068.5,-642.5"/>
<text text-anchor="start" x="1075.5" y="-653.9" font-family="Arial" font-size="14.00" fill="#000000">content </text>
<text text-anchor="start" x="1125.3022" y="-653.9" font-family="Arial" font-size="14.00" fill="#666666">[longtext]</text>
<polygon fill="none" stroke="#000000" points="1068.5,-612.5 1068.5,-642.5 1324.5,-642.5 1324.5,-612.5 1068.5,-612.5"/>
<text text-anchor="start" x="1075.5" y="-623.9" font-family="Arial" font-size="14.00" fill="#000000">publish_up </text>
<text text-anchor="start" x="1147.082" y="-623.9" font-family="Arial" font-size="14.00" fill="#666666">[datetime]</text>
<polygon fill="none" stroke="#000000" points="1068.5,-582.5 1068.5,-612.5 1324.5,-612.5 1324.5,-582.5 1068.5,-582.5"/>
<text text-anchor="start" x="1075.5" y="-593.9" font-family="Arial" font-size="14.00" fill="#000000">publish_down </text>
<text text-anchor="start" x="1164.9712" y="-593.9" font-family="Arial" font-size="14.00" fill="#666666">[datetime]</text>
<polygon fill="none" stroke="#000000" points="1068.5,-552.5 1068.5,-582.5 1324.5,-582.5 1324.5,-552.5 1068.5,-552.5"/>
<text text-anchor="start" x="1075.5" y="-563.9" font-family="Arial" font-size="14.00" fill="#000000">hits </text>
<text text-anchor="start" x="1101.1704" y="-563.9" font-family="Arial" font-size="14.00" fill="#666666">[int(11)]</text>
<polygon fill="none" stroke="#000000" points="1068.5,-522.5 1068.5,-552.5 1324.5,-552.5 1324.5,-522.5 1068.5,-522.5"/>
<text text-anchor="start" x="1075.5" y="-533.9" font-family="Arial" font-size="14.00" fill="#000000">unique_hits </text>
<text text-anchor="start" x="1150.9726" y="-533.9" font-family="Arial" font-size="14.00" fill="#666666">[int(11)]</text>
<polygon fill="none" stroke="#000000" points="1068.5,-492.5 1068.5,-522.5 1324.5,-522.5 1324.5,-492.5 1068.5,-492.5"/>
<text text-anchor="start" x="1075.5" y="-503.9" font-family="Arial" font-size="14.00" fill="#000000">variant_hits </text>
<text text-anchor="start" x="1150.9586" y="-503.9" font-family="Arial" font-size="14.00" fill="#666666">[int(11)]</text>
<polygon fill="none" stroke="#000000" points="1068.5,-462.5 1068.5,-492.5 1324.5,-492.5 1324.5,-462.5 1068.5,-462.5"/>
<text text-anchor="start" x="1075.5" y="-473.9" font-family="Arial" font-size="14.00" fill="#000000">revision </text>
<text text-anchor="start" x="1127.6122" y="-473.9" font-family="Arial" font-size="14.00" fill="#666666">[int(11)]</text>
<polygon fill="none" stroke="#000000" points="1068.5,-432.5 1068.5,-462.5 1324.5,-462.5 1324.5,-432.5 1068.5,-432.5"/>
<text text-anchor="start" x="1075.5" y="-443.9" font-family="Arial" font-size="14.00" fill="#000000">meta_description </text>
<text text-anchor="start" x="1185.967" y="-443.9" font-family="Arial" font-size="14.00" fill="#666666">[varchar(191)]</text>
<polygon fill="none" stroke="#000000" points="1068.5,-402.5 1068.5,-432.5 1324.5,-432.5 1324.5,-402.5 1068.5,-402.5"/>
<text text-anchor="start" x="1075.5" y="-413.9" font-family="Arial" font-size="14.00" fill="#000000">redirect_type </text>
<text text-anchor="start" x="1160.2952" y="-413.9" font-family="Arial" font-size="14.00" fill="#666666">[varchar(100)]</text>
<polygon fill="none" stroke="#000000" points="1068.5,-372.5 1068.5,-402.5 1324.5,-402.5 1324.5,-372.5 1068.5,-372.5"/>
<text text-anchor="start" x="1075.5" y="-383.9" font-family="Arial" font-size="14.00" fill="#000000">redirect_url </text>
<text text-anchor="start" x="1149.3892" y="-383.9" font-family="Arial" font-size="14.00" fill="#666666">[varchar(2048)]</text>
<polygon fill="none" stroke="#000000" points="1068.5,-342.5 1068.5,-372.5 1324.5,-372.5 1324.5,-342.5 1068.5,-342.5"/>
<text text-anchor="start" x="1075.5" y="-353.9" font-family="Arial" font-size="14.00" fill="#000000">is_preference_center </text>
<text text-anchor="start" x="1210.8688" y="-353.9" font-family="Arial" font-size="14.00" fill="#666666">[tinyint(1)]</text>
<polygon fill="none" stroke="#000000" points="1068.5,-312.5 1068.5,-342.5 1324.5,-342.5 1324.5,-312.5 1068.5,-312.5"/>
<text text-anchor="start" x="1075.5" y="-323.9" font-family="Arial" font-size="14.00" fill="#000000">no_index </text>
<text text-anchor="start" x="1136.1928" y="-323.9" font-family="Arial" font-size="14.00" fill="#666666">[tinyint(1)]</text>
<polygon fill="none" stroke="#000000" points="1068.5,-282.5 1068.5,-312.5 1324.5,-312.5 1324.5,-282.5 1068.5,-282.5"/>
<text text-anchor="start" x="1075.5" y="-293.9" font-family="Arial" font-size="14.00" fill="#000000">lang </text>
<text text-anchor="start" x="1105.845" y="-293.9" font-family="Arial" font-size="14.00" fill="#666666">[varchar(191)]</text>
<polygon fill="none" stroke="#000000" points="1068.5,-252.5 1068.5,-282.5 1324.5,-282.5 1324.5,-252.5 1068.5,-252.5"/>
<text text-anchor="start" x="1075.5" y="-263.9" font-family="Arial" font-size="14.00" fill="#000000">variant_settings </text>
<text text-anchor="start" x="1177.4144" y="-263.9" font-family="Arial" font-size="14.00" fill="#666666">[longtext]</text>
<polygon fill="none" stroke="#000000" points="1068.5,-222.5 1068.5,-252.5 1324.5,-252.5 1324.5,-222.5 1068.5,-222.5"/>
<text text-anchor="start" x="1075.5" y="-233.9" font-family="Arial" font-size="14.00" fill="#000000">variant_start_date </text>
<text text-anchor="start" x="1191.4242" y="-233.9" font-family="Arial" font-size="14.00" fill="#666666">[datetime]</text>
</g>
<!-- form_submissions&#45;&gt;pages -->
<g id="edge4" class="edge">
<title>form_submissions:page_id&#45;&gt;pages:id</title>
<path fill="none" stroke="#000000" d="M805.8194,-1657.3314C925.5619,-1653.3426 953.4256,-1578.9296 1016.5,-1471 1047.7154,-1417.5859 1006.6335,-1197.5 1068.5,-1197.5"/>
<polygon fill="#000000" stroke="#000000" points="805.4987,-1657.3365 795.4264,-1653.0006 800.4993,-1657.4183 795.5,-1657.5 795.5,-1657.5 795.5,-1657.5 800.4993,-1657.4183 795.5736,-1661.9994 805.4987,-1657.3365 805.4987,-1657.3365"/>
<text text-anchor="start" x="802.656" y="-1667.5" font-family="Arial" font-size="10.00" fill="#000000">FOREIGN KEY (page_id) REFERENCES pages (id)</text>
</g>
</g>
</svg>
