<?xml version="1.0" encoding="UTF-8" standalone="no"?>
<!DOCTYPE svg PUBLIC "-//W3C//DTD SVG 1.1//EN"
 "http://www.w3.org/Graphics/SVG/1.1/DTD/svg11.dtd">
<!-- Generated by graphviz version 2.40.1 (20161225.0304)
 -->
<!-- Title: form_actions Pages: 1 -->
<svg width="519pt" height="1312pt"
 viewBox="0.00 0.00 518.50 1312.00" xmlns="http://www.w3.org/2000/svg" xmlns:xlink="http://www.w3.org/1999/xlink">
<g id="graph0" class="graph" transform="scale(1 1) rotate(0) translate(4 1308)">
<title>form_actions</title>
<polygon fill="#ffffff" stroke="transparent" points="-4,4 -4,-1308 514.5,-1308 514.5,4 -4,4"/>
<!-- form_actions -->
<g id="node1" class="node">
<title>form_actions</title>
<polygon fill="#efefef" stroke="transparent" points="241,-1222.5 241,-1257.5 455,-1257.5 455,-1222.5 241,-1222.5"/>
<polygon fill="none" stroke="#000000" points="241,-1222.5 241,-1257.5 455,-1257.5 455,-1222.5 241,-1222.5"/>
<text text-anchor="start" x="247.8661" y="-1235.3" font-family="Arial Bold" font-size="18.00" fill="#000000">form_actions</text>
<text text-anchor="start" x="350.8801" y="-1235.3" font-family="Arial" font-size="14.00" fill="#000000"> </text>
<text text-anchor="start" x="354.7707" y="-1235.3" font-family="Arial" font-size="14.00" fill="#666666">[BASE TABLE]</text>
<polygon fill="none" stroke="#000000" points="241,-1192.5 241,-1222.5 455,-1222.5 455,-1192.5 241,-1192.5"/>
<text text-anchor="start" x="248" y="-1203.9" font-family="Arial" font-size="14.00" fill="#000000">id </text>
<text text-anchor="start" x="262.7798" y="-1203.9" font-family="Arial" font-size="14.00" fill="#666666">[int(10) unsigned]</text>
<polygon fill="none" stroke="#000000" points="241,-1162.5 241,-1192.5 455,-1192.5 455,-1162.5 241,-1162.5"/>
<text text-anchor="start" x="248" y="-1173.9" font-family="Arial" font-size="14.00" fill="#000000">form_id </text>
<text text-anchor="start" x="298.5568" y="-1173.9" font-family="Arial" font-size="14.00" fill="#666666">[int(10) unsigned]</text>
<polygon fill="none" stroke="#000000" points="241,-1132.5 241,-1162.5 455,-1162.5 455,-1132.5 241,-1132.5"/>
<text text-anchor="start" x="248" y="-1143.9" font-family="Arial" font-size="14.00" fill="#000000">name </text>
<text text-anchor="start" x="286.899" y="-1143.9" font-family="Arial" font-size="14.00" fill="#666666">[varchar(191)]</text>
<polygon fill="none" stroke="#000000" points="241,-1102.5 241,-1132.5 455,-1132.5 455,-1102.5 241,-1102.5"/>
<text text-anchor="start" x="248" y="-1113.9" font-family="Arial" font-size="14.00" fill="#000000">description </text>
<text text-anchor="start" x="319.568" y="-1113.9" font-family="Arial" font-size="14.00" fill="#666666">[longtext]</text>
<polygon fill="none" stroke="#000000" points="241,-1072.5 241,-1102.5 455,-1102.5 455,-1072.5 241,-1072.5"/>
<text text-anchor="start" x="248" y="-1083.9" font-family="Arial" font-size="14.00" fill="#000000">type </text>
<text text-anchor="start" x="278.3464" y="-1083.9" font-family="Arial" font-size="14.00" fill="#666666">[varchar(50)]</text>
<polygon fill="none" stroke="#000000" points="241,-1042.5 241,-1072.5 455,-1072.5 455,-1042.5 241,-1042.5"/>
<text text-anchor="start" x="248" y="-1053.9" font-family="Arial" font-size="14.00" fill="#000000">action_order </text>
<text text-anchor="start" x="329.6872" y="-1053.9" font-family="Arial" font-size="14.00" fill="#666666">[int(11)]</text>
<polygon fill="none" stroke="#000000" points="241,-1012.5 241,-1042.5 455,-1042.5 455,-1012.5 241,-1012.5"/>
<text text-anchor="start" x="248" y="-1023.9" font-family="Arial" font-size="14.00" fill="#000000">properties </text>
<text text-anchor="start" x="314.122" y="-1023.9" font-family="Arial" font-size="14.00" fill="#666666">[longtext]</text>
<polygon fill="none" stroke="#000000" stroke-width="3" points="239.5,-1011.5 239.5,-1259.5 456.5,-1259.5 456.5,-1011.5 239.5,-1011.5"/>
</g>
<!-- forms -->
<g id="node2" class="node">
<title>forms</title>
<polygon fill="#efefef" stroke="transparent" points="227,-852.5 227,-887.5 468,-887.5 468,-852.5 227,-852.5"/>
<polygon fill="none" stroke="#000000" points="227,-852.5 227,-887.5 468,-887.5 468,-852.5 227,-852.5"/>
<text text-anchor="start" x="276.3767" y="-865.3" font-family="Arial Bold" font-size="18.00" fill="#000000">forms</text>
<text text-anchor="start" x="321.3695" y="-865.3" font-family="Arial" font-size="14.00" fill="#000000"> </text>
<text text-anchor="start" x="325.2601" y="-865.3" font-family="Arial" font-size="14.00" fill="#666666">[BASE TABLE]</text>
<polygon fill="none" stroke="#000000" points="227,-822.5 227,-852.5 468,-852.5 468,-822.5 227,-822.5"/>
<text text-anchor="start" x="234" y="-833.9" font-family="Arial" font-size="14.00" fill="#000000">id </text>
<text text-anchor="start" x="248.7798" y="-833.9" font-family="Arial" font-size="14.00" fill="#666666">[int(10) unsigned]</text>
<polygon fill="none" stroke="#000000" points="227,-792.5 227,-822.5 468,-822.5 468,-792.5 227,-792.5"/>
<text text-anchor="start" x="234" y="-803.9" font-family="Arial" font-size="14.00" fill="#000000">category_id </text>
<text text-anchor="start" x="310.244" y="-803.9" font-family="Arial" font-size="14.00" fill="#666666">[int(10) unsigned]</text>
<polygon fill="none" stroke="#000000" points="227,-762.5 227,-792.5 468,-792.5 468,-762.5 227,-762.5"/>
<text text-anchor="start" x="234" y="-773.9" font-family="Arial" font-size="14.00" fill="#000000">is_published </text>
<text text-anchor="start" x="315.6886" y="-773.9" font-family="Arial" font-size="14.00" fill="#666666">[tinyint(1)]</text>
<polygon fill="none" stroke="#000000" points="227,-732.5 227,-762.5 468,-762.5 468,-732.5 227,-732.5"/>
<text text-anchor="start" x="234" y="-743.9" font-family="Arial" font-size="14.00" fill="#000000">date_added </text>
<text text-anchor="start" x="311.8246" y="-743.9" font-family="Arial" font-size="14.00" fill="#666666">[datetime]</text>
<polygon fill="none" stroke="#000000" points="227,-702.5 227,-732.5 468,-732.5 468,-702.5 227,-702.5"/>
<text text-anchor="start" x="234" y="-713.9" font-family="Arial" font-size="14.00" fill="#000000">created_by </text>
<text text-anchor="start" x="307.1374" y="-713.9" font-family="Arial" font-size="14.00" fill="#666666">[int(11)]</text>
<polygon fill="none" stroke="#000000" points="227,-672.5 227,-702.5 468,-702.5 468,-672.5 227,-672.5"/>
<text text-anchor="start" x="234" y="-683.9" font-family="Arial" font-size="14.00" fill="#000000">created_by_user </text>
<text text-anchor="start" x="342.1458" y="-683.9" font-family="Arial" font-size="14.00" fill="#666666">[varchar(191)]</text>
<polygon fill="none" stroke="#000000" points="227,-642.5 227,-672.5 468,-672.5 468,-642.5 227,-642.5"/>
<text text-anchor="start" x="234" y="-653.9" font-family="Arial" font-size="14.00" fill="#000000">date_modified </text>
<text text-anchor="start" x="325.8064" y="-653.9" font-family="Arial" font-size="14.00" fill="#666666">[datetime]</text>
<polygon fill="none" stroke="#000000" points="227,-612.5 227,-642.5 468,-642.5 468,-612.5 227,-612.5"/>
<text text-anchor="start" x="234" y="-623.9" font-family="Arial" font-size="14.00" fill="#000000">modified_by </text>
<text text-anchor="start" x="313.3506" y="-623.9" font-family="Arial" font-size="14.00" fill="#666666">[int(11)]</text>
<polygon fill="none" stroke="#000000" points="227,-582.5 227,-612.5 468,-612.5 468,-582.5 227,-582.5"/>
<text text-anchor="start" x="234" y="-593.9" font-family="Arial" font-size="14.00" fill="#000000">modified_by_user </text>
<text text-anchor="start" x="348.359" y="-593.9" font-family="Arial" font-size="14.00" fill="#666666">[varchar(191)]</text>
<polygon fill="none" stroke="#000000" points="227,-552.5 227,-582.5 468,-582.5 468,-552.5 227,-552.5"/>
<text text-anchor="start" x="234" y="-563.9" font-family="Arial" font-size="14.00" fill="#000000">checked_out </text>
<text text-anchor="start" x="317.2594" y="-563.9" font-family="Arial" font-size="14.00" fill="#666666">[datetime]</text>
<polygon fill="none" stroke="#000000" points="227,-522.5 227,-552.5 468,-552.5 468,-522.5 227,-522.5"/>
<text text-anchor="start" x="234" y="-533.9" font-family="Arial" font-size="14.00" fill="#000000">checked_out_by </text>
<text text-anchor="start" x="339.8246" y="-533.9" font-family="Arial" font-size="14.00" fill="#666666">[int(11)]</text>
<polygon fill="none" stroke="#000000" points="227,-492.5 227,-522.5 468,-522.5 468,-492.5 227,-492.5"/>
<text text-anchor="start" x="233.5239" y="-503.9" font-family="Arial" font-size="14.00" fill="#000000">checked_out_by_user </text>
<text text-anchor="start" x="374.3569" y="-503.9" font-family="Arial" font-size="14.00" fill="#666666">[varchar(191)]</text>
<polygon fill="none" stroke="#000000" points="227,-462.5 227,-492.5 468,-492.5 468,-462.5 227,-462.5"/>
<text text-anchor="start" x="234" y="-473.9" font-family="Arial" font-size="14.00" fill="#000000">name </text>
<text text-anchor="start" x="272.899" y="-473.9" font-family="Arial" font-size="14.00" fill="#666666">[varchar(191)]</text>
<polygon fill="none" stroke="#000000" points="227,-432.5 227,-462.5 468,-462.5 468,-432.5 227,-432.5"/>
<text text-anchor="start" x="234" y="-443.9" font-family="Arial" font-size="14.00" fill="#000000">description </text>
<text text-anchor="start" x="305.568" y="-443.9" font-family="Arial" font-size="14.00" fill="#666666">[longtext]</text>
<polygon fill="none" stroke="#000000" points="227,-402.5 227,-432.5 468,-432.5 468,-402.5 227,-402.5"/>
<text text-anchor="start" x="234" y="-413.9" font-family="Arial" font-size="14.00" fill="#000000">alias </text>
<text text-anchor="start" x="266.669" y="-413.9" font-family="Arial" font-size="14.00" fill="#666666">[varchar(191)]</text>
<polygon fill="none" stroke="#000000" points="227,-372.5 227,-402.5 468,-402.5 468,-372.5 227,-372.5"/>
<text text-anchor="start" x="234" y="-383.9" font-family="Arial" font-size="14.00" fill="#000000">form_attr </text>
<text text-anchor="start" x="293.892" y="-383.9" font-family="Arial" font-size="14.00" fill="#666666">[varchar(191)]</text>
<polygon fill="none" stroke="#000000" points="227,-342.5 227,-372.5 468,-372.5 468,-342.5 227,-342.5"/>
<text text-anchor="start" x="234" y="-353.9" font-family="Arial" font-size="14.00" fill="#000000">cached_html </text>
<text text-anchor="start" x="317.244" y="-353.9" font-family="Arial" font-size="14.00" fill="#666666">[longtext]</text>
<polygon fill="none" stroke="#000000" points="227,-312.5 227,-342.5 468,-342.5 468,-312.5 227,-312.5"/>
<text text-anchor="start" x="234" y="-323.9" font-family="Arial" font-size="14.00" fill="#000000">post_action </text>
<text text-anchor="start" x="309.474" y="-323.9" font-family="Arial" font-size="14.00" fill="#666666">[varchar(191)]</text>
<polygon fill="none" stroke="#000000" points="227,-282.5 227,-312.5 468,-312.5 468,-282.5 227,-282.5"/>
<text text-anchor="start" x="234" y="-293.9" font-family="Arial" font-size="14.00" fill="#000000">post_action_property </text>
<text text-anchor="start" x="368.5988" y="-293.9" font-family="Arial" font-size="14.00" fill="#666666">[varchar(191)]</text>
<polygon fill="none" stroke="#000000" points="227,-252.5 227,-282.5 468,-282.5 468,-252.5 227,-252.5"/>
<text text-anchor="start" x="234" y="-263.9" font-family="Arial" font-size="14.00" fill="#000000">publish_up </text>
<text text-anchor="start" x="305.582" y="-263.9" font-family="Arial" font-size="14.00" fill="#666666">[datetime]</text>
<polygon fill="none" stroke="#000000" points="227,-222.5 227,-252.5 468,-252.5 468,-222.5 227,-222.5"/>
<text text-anchor="start" x="234" y="-233.9" font-family="Arial" font-size="14.00" fill="#000000">publish_down </text>
<text text-anchor="start" x="323.4712" y="-233.9" font-family="Arial" font-size="14.00" fill="#666666">[datetime]</text>
<polygon fill="none" stroke="#000000" points="227,-192.5 227,-222.5 468,-222.5 468,-192.5 227,-192.5"/>
<text text-anchor="start" x="234" y="-203.9" font-family="Arial" font-size="14.00" fill="#000000">template </text>
<text text-anchor="start" x="291.5694" y="-203.9" font-family="Arial" font-size="14.00" fill="#666666">[varchar(191)]</text>
<polygon fill="none" stroke="#000000" points="227,-162.5 227,-192.5 468,-192.5 468,-162.5 227,-162.5"/>
<text text-anchor="start" x="234" y="-173.9" font-family="Arial" font-size="14.00" fill="#000000">in_kiosk_mode </text>
<text text-anchor="start" x="331.2426" y="-173.9" font-family="Arial" font-size="14.00" fill="#666666">[tinyint(1)]</text>
<polygon fill="none" stroke="#000000" points="227,-132.5 227,-162.5 468,-162.5 468,-132.5 227,-132.5"/>
<text text-anchor="start" x="234" y="-143.9" font-family="Arial" font-size="14.00" fill="#000000">render_style </text>
<text text-anchor="start" x="314.9046" y="-143.9" font-family="Arial" font-size="14.00" fill="#666666">[tinyint(1)]</text>
<polygon fill="none" stroke="#000000" points="227,-102.5 227,-132.5 468,-132.5 468,-102.5 227,-102.5"/>
<text text-anchor="start" x="234" y="-113.9" font-family="Arial" font-size="14.00" fill="#000000">form_type </text>
<text text-anchor="start" x="300.1234" y="-113.9" font-family="Arial" font-size="14.00" fill="#666666">[varchar(191)]</text>
<polygon fill="none" stroke="#000000" points="227,-72.5 227,-102.5 468,-102.5 468,-72.5 227,-72.5"/>
<text text-anchor="start" x="234" y="-83.9" font-family="Arial" font-size="14.00" fill="#000000">no_index </text>
<text text-anchor="start" x="294.6928" y="-83.9" font-family="Arial" font-size="14.00" fill="#666666">[tinyint(1)]</text>
<polygon fill="none" stroke="#000000" points="227,-42.5 227,-72.5 468,-72.5 468,-42.5 227,-42.5"/>
<text text-anchor="start" x="234" y="-53.9" font-family="Arial" font-size="14.00" fill="#000000">progressive_profiling_limit </text>
<text text-anchor="start" x="399.669" y="-53.9" font-family="Arial" font-size="14.00" fill="#666666">[int(11)]</text>
</g>
<!-- form_actions&#45;&gt;forms -->
<g id="edge1" class="edge">
<title>form_actions:form_id&#45;&gt;forms:id</title>
<path fill="none" stroke="#000000" d="M230.609,-1176.8745C150.0498,-1166.7171 182.6208,-1035.3672 241,-967 307.3331,-889.3181 401.6669,-1008.6819 468,-931 494.985,-899.3982 509.5556,-837.5 468,-837.5"/>
<polygon fill="#000000" stroke="#000000" points="231.0181,-1176.899 240.7295,-1181.9919 236.009,-1177.1995 241,-1177.5 241,-1177.5 241,-1177.5 236.009,-1177.1995 241.2705,-1173.0081 231.0181,-1176.899 231.0181,-1176.899"/>
<text text-anchor="start" x="7.396" y="-1187.5" font-family="Arial" font-size="10.00" fill="#000000">FOREIGN KEY (form_id) REFERENCES forms (id)</text>
</g>
</g>
</svg>
