<?xml version="1.0" encoding="UTF-8" standalone="no"?>
<!DOCTYPE svg PUBLIC "-//W3C//DTD SVG 1.1//EN"
 "http://www.w3.org/Graphics/SVG/1.1/DTD/svg11.dtd">
<!-- Generated by graphviz version 2.40.1 (20161225.0304)
 -->
<!-- Title: form_fields Pages: 1 -->
<svg width="533pt" height="1822pt"
 viewBox="0.00 0.00 533.00 1822.00" xmlns="http://www.w3.org/2000/svg" xmlns:xlink="http://www.w3.org/1999/xlink">
<g id="graph0" class="graph" transform="scale(1 1) rotate(0) translate(4 1818)">
<title>form_fields</title>
<polygon fill="#ffffff" stroke="transparent" points="-4,4 -4,-1818 529,-1818 529,4 -4,4"/>
<!-- form_fields -->
<g id="node1" class="node">
<title>form_fields</title>
<polygon fill="#efefef" stroke="transparent" points="241,-1732.5 241,-1767.5 479,-1767.5 479,-1732.5 241,-1732.5"/>
<polygon fill="none" stroke="#000000" points="241,-1732.5 241,-1767.5 479,-1767.5 479,-1732.5 241,-1732.5"/>
<text text-anchor="start" x="267.3721" y="-1745.3" font-family="Arial Bold" font-size="18.00" fill="#000000">form_fields</text>
<text text-anchor="start" x="355.3741" y="-1745.3" font-family="Arial" font-size="14.00" fill="#000000"> </text>
<text text-anchor="start" x="359.2647" y="-1745.3" font-family="Arial" font-size="14.00" fill="#666666">[BASE TABLE]</text>
<polygon fill="none" stroke="#000000" points="241,-1702.5 241,-1732.5 479,-1732.5 479,-1702.5 241,-1702.5"/>
<text text-anchor="start" x="248" y="-1713.9" font-family="Arial" font-size="14.00" fill="#000000">id </text>
<text text-anchor="start" x="262.7798" y="-1713.9" font-family="Arial" font-size="14.00" fill="#666666">[int(10) unsigned]</text>
<polygon fill="none" stroke="#000000" points="241,-1672.5 241,-1702.5 479,-1702.5 479,-1672.5 241,-1672.5"/>
<text text-anchor="start" x="248" y="-1683.9" font-family="Arial" font-size="14.00" fill="#000000">form_id </text>
<text text-anchor="start" x="298.5568" y="-1683.9" font-family="Arial" font-size="14.00" fill="#666666">[int(10) unsigned]</text>
<polygon fill="none" stroke="#000000" points="241,-1642.5 241,-1672.5 479,-1672.5 479,-1642.5 241,-1642.5"/>
<text text-anchor="start" x="248" y="-1653.9" font-family="Arial" font-size="14.00" fill="#000000">label </text>
<text text-anchor="start" x="281.4516" y="-1653.9" font-family="Arial" font-size="14.00" fill="#666666">[longtext]</text>
<polygon fill="none" stroke="#000000" points="241,-1612.5 241,-1642.5 479,-1642.5 479,-1612.5 241,-1612.5"/>
<text text-anchor="start" x="248" y="-1623.9" font-family="Arial" font-size="14.00" fill="#000000">show_label </text>
<text text-anchor="start" x="321.906" y="-1623.9" font-family="Arial" font-size="14.00" fill="#666666">[tinyint(1)]</text>
<polygon fill="none" stroke="#000000" points="241,-1582.5 241,-1612.5 479,-1612.5 479,-1582.5 241,-1582.5"/>
<text text-anchor="start" x="248" y="-1593.9" font-family="Arial" font-size="14.00" fill="#000000">alias </text>
<text text-anchor="start" x="280.669" y="-1593.9" font-family="Arial" font-size="14.00" fill="#666666">[varchar(191)]</text>
<polygon fill="none" stroke="#000000" points="241,-1552.5 241,-1582.5 479,-1582.5 479,-1552.5 241,-1552.5"/>
<text text-anchor="start" x="248" y="-1563.9" font-family="Arial" font-size="14.00" fill="#000000">type </text>
<text text-anchor="start" x="278.3464" y="-1563.9" font-family="Arial" font-size="14.00" fill="#666666">[varchar(191)]</text>
<polygon fill="none" stroke="#000000" points="241,-1522.5 241,-1552.5 479,-1552.5 479,-1522.5 241,-1522.5"/>
<text text-anchor="start" x="248" y="-1533.9" font-family="Arial" font-size="14.00" fill="#000000">is_custom </text>
<text text-anchor="start" x="314.8962" y="-1533.9" font-family="Arial" font-size="14.00" fill="#666666">[tinyint(1)]</text>
<polygon fill="none" stroke="#000000" points="241,-1492.5 241,-1522.5 479,-1522.5 479,-1492.5 241,-1492.5"/>
<text text-anchor="start" x="248" y="-1503.9" font-family="Arial" font-size="14.00" fill="#000000">custom_parameters </text>
<text text-anchor="start" x="375.575" y="-1503.9" font-family="Arial" font-size="14.00" fill="#666666">[longtext]</text>
<polygon fill="none" stroke="#000000" points="241,-1462.5 241,-1492.5 479,-1492.5 479,-1462.5 241,-1462.5"/>
<text text-anchor="start" x="248" y="-1473.9" font-family="Arial" font-size="14.00" fill="#000000">default_value </text>
<text text-anchor="start" x="335.1458" y="-1473.9" font-family="Arial" font-size="14.00" fill="#666666">[longtext]</text>
<polygon fill="none" stroke="#000000" points="241,-1432.5 241,-1462.5 479,-1462.5 479,-1432.5 241,-1432.5"/>
<text text-anchor="start" x="248" y="-1443.9" font-family="Arial" font-size="14.00" fill="#000000">is_required </text>
<text text-anchor="start" x="321.1206" y="-1443.9" font-family="Arial" font-size="14.00" fill="#666666">[tinyint(1)]</text>
<polygon fill="none" stroke="#000000" points="241,-1402.5 241,-1432.5 479,-1432.5 479,-1402.5 241,-1402.5"/>
<text text-anchor="start" x="248" y="-1413.9" font-family="Arial" font-size="14.00" fill="#000000">validation_message </text>
<text text-anchor="start" x="375.5876" y="-1413.9" font-family="Arial" font-size="14.00" fill="#666666">[longtext]</text>
<polygon fill="none" stroke="#000000" points="241,-1372.5 241,-1402.5 479,-1402.5 479,-1372.5 241,-1372.5"/>
<text text-anchor="start" x="248" y="-1383.9" font-family="Arial" font-size="14.00" fill="#000000">help_message </text>
<text text-anchor="start" x="342.9186" y="-1383.9" font-family="Arial" font-size="14.00" fill="#666666">[longtext]</text>
<polygon fill="none" stroke="#000000" points="241,-1342.5 241,-1372.5 479,-1372.5 479,-1342.5 241,-1342.5"/>
<text text-anchor="start" x="248" y="-1353.9" font-family="Arial" font-size="14.00" fill="#000000">field_order </text>
<text text-anchor="start" x="318.0112" y="-1353.9" font-family="Arial" font-size="14.00" fill="#666666">[int(11)]</text>
<polygon fill="none" stroke="#000000" points="241,-1312.5 241,-1342.5 479,-1342.5 479,-1312.5 241,-1312.5"/>
<text text-anchor="start" x="248" y="-1323.9" font-family="Arial" font-size="14.00" fill="#000000">properties </text>
<text text-anchor="start" x="314.122" y="-1323.9" font-family="Arial" font-size="14.00" fill="#666666">[longtext]</text>
<polygon fill="none" stroke="#000000" points="241,-1282.5 241,-1312.5 479,-1312.5 479,-1282.5 241,-1282.5"/>
<text text-anchor="start" x="248" y="-1293.9" font-family="Arial" font-size="14.00" fill="#000000">validation </text>
<text text-anchor="start" x="311.014" y="-1293.9" font-family="Arial" font-size="14.00" fill="#666666">[longtext]</text>
<polygon fill="none" stroke="#000000" points="241,-1252.5 241,-1282.5 479,-1282.5 479,-1252.5 241,-1252.5"/>
<text text-anchor="start" x="248" y="-1263.9" font-family="Arial" font-size="14.00" fill="#000000">label_attr </text>
<text text-anchor="start" x="309.4586" y="-1263.9" font-family="Arial" font-size="14.00" fill="#666666">[varchar(191)]</text>
<polygon fill="none" stroke="#000000" points="241,-1222.5 241,-1252.5 479,-1252.5 479,-1222.5 241,-1222.5"/>
<text text-anchor="start" x="248" y="-1233.9" font-family="Arial" font-size="14.00" fill="#000000">input_attr </text>
<text text-anchor="start" x="310.2426" y="-1233.9" font-family="Arial" font-size="14.00" fill="#666666">[varchar(191)]</text>
<polygon fill="none" stroke="#000000" points="241,-1192.5 241,-1222.5 479,-1222.5 479,-1192.5 241,-1192.5"/>
<text text-anchor="start" x="248" y="-1203.9" font-family="Arial" font-size="14.00" fill="#000000">container_attr </text>
<text text-anchor="start" x="337.4684" y="-1203.9" font-family="Arial" font-size="14.00" fill="#666666">[varchar(191)]</text>
<polygon fill="none" stroke="#000000" points="241,-1162.5 241,-1192.5 479,-1192.5 479,-1162.5 241,-1162.5"/>
<text text-anchor="start" x="248" y="-1173.9" font-family="Arial" font-size="14.00" fill="#000000">lead_field </text>
<text text-anchor="start" x="311.7966" y="-1173.9" font-family="Arial" font-size="14.00" fill="#666666">[varchar(191)]</text>
<polygon fill="none" stroke="#000000" points="241,-1132.5 241,-1162.5 479,-1162.5 479,-1132.5 241,-1132.5"/>
<text text-anchor="start" x="248" y="-1143.9" font-family="Arial" font-size="14.00" fill="#000000">save_result </text>
<text text-anchor="start" x="323.4614" y="-1143.9" font-family="Arial" font-size="14.00" fill="#666666">[tinyint(1)]</text>
<polygon fill="none" stroke="#000000" points="241,-1102.5 241,-1132.5 479,-1132.5 479,-1102.5 241,-1102.5"/>
<text text-anchor="start" x="248" y="-1113.9" font-family="Arial" font-size="14.00" fill="#000000">is_auto_fill </text>
<text text-anchor="start" x="318.0112" y="-1113.9" font-family="Arial" font-size="14.00" fill="#666666">[tinyint(1)]</text>
<polygon fill="none" stroke="#000000" points="241,-1072.5 241,-1102.5 479,-1102.5 479,-1072.5 241,-1072.5"/>
<text text-anchor="start" x="247.9783" y="-1083.9" font-family="Arial" font-size="14.00" fill="#000000">show_when_value_exists </text>
<text text-anchor="start" x="410.5771" y="-1083.9" font-family="Arial" font-size="14.00" fill="#666666">[tinyint(1)]</text>
<polygon fill="none" stroke="#000000" points="241,-1042.5 241,-1072.5 479,-1072.5 479,-1042.5 241,-1042.5"/>
<text text-anchor="start" x="248" y="-1053.9" font-family="Arial" font-size="14.00" fill="#000000">show_after_x_submissions </text>
<text text-anchor="start" x="419.9214" y="-1053.9" font-family="Arial" font-size="14.00" fill="#666666">[int(11)]</text>
<polygon fill="none" stroke="#000000" points="241,-1012.5 241,-1042.5 479,-1042.5 479,-1012.5 241,-1012.5"/>
<text text-anchor="start" x="248" y="-1023.9" font-family="Arial" font-size="14.00" fill="#000000">always_display </text>
<text text-anchor="start" x="346.0126" y="-1023.9" font-family="Arial" font-size="14.00" fill="#666666">[tinyint(1)]</text>
<polygon fill="none" stroke="#000000" stroke-width="3" points="239.5,-1011.5 239.5,-1769.5 480.5,-1769.5 480.5,-1011.5 239.5,-1011.5"/>
</g>
<!-- forms -->
<g id="node2" class="node">
<title>forms</title>
<polygon fill="#efefef" stroke="transparent" points="239,-852.5 239,-887.5 480,-887.5 480,-852.5 239,-852.5"/>
<polygon fill="none" stroke="#000000" points="239,-852.5 239,-887.5 480,-887.5 480,-852.5 239,-852.5"/>
<text text-anchor="start" x="288.3767" y="-865.3" font-family="Arial Bold" font-size="18.00" fill="#000000">forms</text>
<text text-anchor="start" x="333.3695" y="-865.3" font-family="Arial" font-size="14.00" fill="#000000"> </text>
<text text-anchor="start" x="337.2601" y="-865.3" font-family="Arial" font-size="14.00" fill="#666666">[BASE TABLE]</text>
<polygon fill="none" stroke="#000000" points="239,-822.5 239,-852.5 480,-852.5 480,-822.5 239,-822.5"/>
<text text-anchor="start" x="246" y="-833.9" font-family="Arial" font-size="14.00" fill="#000000">id </text>
<text text-anchor="start" x="260.7798" y="-833.9" font-family="Arial" font-size="14.00" fill="#666666">[int(10) unsigned]</text>
<polygon fill="none" stroke="#000000" points="239,-792.5 239,-822.5 480,-822.5 480,-792.5 239,-792.5"/>
<text text-anchor="start" x="246" y="-803.9" font-family="Arial" font-size="14.00" fill="#000000">category_id </text>
<text text-anchor="start" x="322.244" y="-803.9" font-family="Arial" font-size="14.00" fill="#666666">[int(10) unsigned]</text>
<polygon fill="none" stroke="#000000" points="239,-762.5 239,-792.5 480,-792.5 480,-762.5 239,-762.5"/>
<text text-anchor="start" x="246" y="-773.9" font-family="Arial" font-size="14.00" fill="#000000">is_published </text>
<text text-anchor="start" x="327.6886" y="-773.9" font-family="Arial" font-size="14.00" fill="#666666">[tinyint(1)]</text>
<polygon fill="none" stroke="#000000" points="239,-732.5 239,-762.5 480,-762.5 480,-732.5 239,-732.5"/>
<text text-anchor="start" x="246" y="-743.9" font-family="Arial" font-size="14.00" fill="#000000">date_added </text>
<text text-anchor="start" x="323.8246" y="-743.9" font-family="Arial" font-size="14.00" fill="#666666">[datetime]</text>
<polygon fill="none" stroke="#000000" points="239,-702.5 239,-732.5 480,-732.5 480,-702.5 239,-702.5"/>
<text text-anchor="start" x="246" y="-713.9" font-family="Arial" font-size="14.00" fill="#000000">created_by </text>
<text text-anchor="start" x="319.1374" y="-713.9" font-family="Arial" font-size="14.00" fill="#666666">[int(11)]</text>
<polygon fill="none" stroke="#000000" points="239,-672.5 239,-702.5 480,-702.5 480,-672.5 239,-672.5"/>
<text text-anchor="start" x="246" y="-683.9" font-family="Arial" font-size="14.00" fill="#000000">created_by_user </text>
<text text-anchor="start" x="354.1458" y="-683.9" font-family="Arial" font-size="14.00" fill="#666666">[varchar(191)]</text>
<polygon fill="none" stroke="#000000" points="239,-642.5 239,-672.5 480,-672.5 480,-642.5 239,-642.5"/>
<text text-anchor="start" x="246" y="-653.9" font-family="Arial" font-size="14.00" fill="#000000">date_modified </text>
<text text-anchor="start" x="337.8064" y="-653.9" font-family="Arial" font-size="14.00" fill="#666666">[datetime]</text>
<polygon fill="none" stroke="#000000" points="239,-612.5 239,-642.5 480,-642.5 480,-612.5 239,-612.5"/>
<text text-anchor="start" x="246" y="-623.9" font-family="Arial" font-size="14.00" fill="#000000">modified_by </text>
<text text-anchor="start" x="325.3506" y="-623.9" font-family="Arial" font-size="14.00" fill="#666666">[int(11)]</text>
<polygon fill="none" stroke="#000000" points="239,-582.5 239,-612.5 480,-612.5 480,-582.5 239,-582.5"/>
<text text-anchor="start" x="246" y="-593.9" font-family="Arial" font-size="14.00" fill="#000000">modified_by_user </text>
<text text-anchor="start" x="360.359" y="-593.9" font-family="Arial" font-size="14.00" fill="#666666">[varchar(191)]</text>
<polygon fill="none" stroke="#000000" points="239,-552.5 239,-582.5 480,-582.5 480,-552.5 239,-552.5"/>
<text text-anchor="start" x="246" y="-563.9" font-family="Arial" font-size="14.00" fill="#000000">checked_out </text>
<text text-anchor="start" x="329.2594" y="-563.9" font-family="Arial" font-size="14.00" fill="#666666">[datetime]</text>
<polygon fill="none" stroke="#000000" points="239,-522.5 239,-552.5 480,-552.5 480,-522.5 239,-522.5"/>
<text text-anchor="start" x="246" y="-533.9" font-family="Arial" font-size="14.00" fill="#000000">checked_out_by </text>
<text text-anchor="start" x="351.8246" y="-533.9" font-family="Arial" font-size="14.00" fill="#666666">[int(11)]</text>
<polygon fill="none" stroke="#000000" points="239,-492.5 239,-522.5 480,-522.5 480,-492.5 239,-492.5"/>
<text text-anchor="start" x="245.5239" y="-503.9" font-family="Arial" font-size="14.00" fill="#000000">checked_out_by_user </text>
<text text-anchor="start" x="386.3569" y="-503.9" font-family="Arial" font-size="14.00" fill="#666666">[varchar(191)]</text>
<polygon fill="none" stroke="#000000" points="239,-462.5 239,-492.5 480,-492.5 480,-462.5 239,-462.5"/>
<text text-anchor="start" x="246" y="-473.9" font-family="Arial" font-size="14.00" fill="#000000">name </text>
<text text-anchor="start" x="284.899" y="-473.9" font-family="Arial" font-size="14.00" fill="#666666">[varchar(191)]</text>
<polygon fill="none" stroke="#000000" points="239,-432.5 239,-462.5 480,-462.5 480,-432.5 239,-432.5"/>
<text text-anchor="start" x="246" y="-443.9" font-family="Arial" font-size="14.00" fill="#000000">description </text>
<text text-anchor="start" x="317.568" y="-443.9" font-family="Arial" font-size="14.00" fill="#666666">[longtext]</text>
<polygon fill="none" stroke="#000000" points="239,-402.5 239,-432.5 480,-432.5 480,-402.5 239,-402.5"/>
<text text-anchor="start" x="246" y="-413.9" font-family="Arial" font-size="14.00" fill="#000000">alias </text>
<text text-anchor="start" x="278.669" y="-413.9" font-family="Arial" font-size="14.00" fill="#666666">[varchar(191)]</text>
<polygon fill="none" stroke="#000000" points="239,-372.5 239,-402.5 480,-402.5 480,-372.5 239,-372.5"/>
<text text-anchor="start" x="246" y="-383.9" font-family="Arial" font-size="14.00" fill="#000000">form_attr </text>
<text text-anchor="start" x="305.892" y="-383.9" font-family="Arial" font-size="14.00" fill="#666666">[varchar(191)]</text>
<polygon fill="none" stroke="#000000" points="239,-342.5 239,-372.5 480,-372.5 480,-342.5 239,-342.5"/>
<text text-anchor="start" x="246" y="-353.9" font-family="Arial" font-size="14.00" fill="#000000">cached_html </text>
<text text-anchor="start" x="329.244" y="-353.9" font-family="Arial" font-size="14.00" fill="#666666">[longtext]</text>
<polygon fill="none" stroke="#000000" points="239,-312.5 239,-342.5 480,-342.5 480,-312.5 239,-312.5"/>
<text text-anchor="start" x="246" y="-323.9" font-family="Arial" font-size="14.00" fill="#000000">post_action </text>
<text text-anchor="start" x="321.474" y="-323.9" font-family="Arial" font-size="14.00" fill="#666666">[varchar(191)]</text>
<polygon fill="none" stroke="#000000" points="239,-282.5 239,-312.5 480,-312.5 480,-282.5 239,-282.5"/>
<text text-anchor="start" x="246" y="-293.9" font-family="Arial" font-size="14.00" fill="#000000">post_action_property </text>
<text text-anchor="start" x="380.5988" y="-293.9" font-family="Arial" font-size="14.00" fill="#666666">[varchar(191)]</text>
<polygon fill="none" stroke="#000000" points="239,-252.5 239,-282.5 480,-282.5 480,-252.5 239,-252.5"/>
<text text-anchor="start" x="246" y="-263.9" font-family="Arial" font-size="14.00" fill="#000000">publish_up </text>
<text text-anchor="start" x="317.582" y="-263.9" font-family="Arial" font-size="14.00" fill="#666666">[datetime]</text>
<polygon fill="none" stroke="#000000" points="239,-222.5 239,-252.5 480,-252.5 480,-222.5 239,-222.5"/>
<text text-anchor="start" x="246" y="-233.9" font-family="Arial" font-size="14.00" fill="#000000">publish_down </text>
<text text-anchor="start" x="335.4712" y="-233.9" font-family="Arial" font-size="14.00" fill="#666666">[datetime]</text>
<polygon fill="none" stroke="#000000" points="239,-192.5 239,-222.5 480,-222.5 480,-192.5 239,-192.5"/>
<text text-anchor="start" x="246" y="-203.9" font-family="Arial" font-size="14.00" fill="#000000">template </text>
<text text-anchor="start" x="303.5694" y="-203.9" font-family="Arial" font-size="14.00" fill="#666666">[varchar(191)]</text>
<polygon fill="none" stroke="#000000" points="239,-162.5 239,-192.5 480,-192.5 480,-162.5 239,-162.5"/>
<text text-anchor="start" x="246" y="-173.9" font-family="Arial" font-size="14.00" fill="#000000">in_kiosk_mode </text>
<text text-anchor="start" x="343.2426" y="-173.9" font-family="Arial" font-size="14.00" fill="#666666">[tinyint(1)]</text>
<polygon fill="none" stroke="#000000" points="239,-132.5 239,-162.5 480,-162.5 480,-132.5 239,-132.5"/>
<text text-anchor="start" x="246" y="-143.9" font-family="Arial" font-size="14.00" fill="#000000">render_style </text>
<text text-anchor="start" x="326.9046" y="-143.9" font-family="Arial" font-size="14.00" fill="#666666">[tinyint(1)]</text>
<polygon fill="none" stroke="#000000" points="239,-102.5 239,-132.5 480,-132.5 480,-102.5 239,-102.5"/>
<text text-anchor="start" x="246" y="-113.9" font-family="Arial" font-size="14.00" fill="#000000">form_type </text>
<text text-anchor="start" x="312.1234" y="-113.9" font-family="Arial" font-size="14.00" fill="#666666">[varchar(191)]</text>
<polygon fill="none" stroke="#000000" points="239,-72.5 239,-102.5 480,-102.5 480,-72.5 239,-72.5"/>
<text text-anchor="start" x="246" y="-83.9" font-family="Arial" font-size="14.00" fill="#000000">no_index </text>
<text text-anchor="start" x="306.6928" y="-83.9" font-family="Arial" font-size="14.00" fill="#666666">[tinyint(1)]</text>
<polygon fill="none" stroke="#000000" points="239,-42.5 239,-72.5 480,-72.5 480,-42.5 239,-42.5"/>
<text text-anchor="start" x="246" y="-53.9" font-family="Arial" font-size="14.00" fill="#000000">progressive_profiling_limit </text>
<text text-anchor="start" x="411.669" y="-53.9" font-family="Arial" font-size="14.00" fill="#666666">[int(11)]</text>
</g>
<!-- form_fields&#45;&gt;forms -->
<g id="edge1" class="edge">
<title>form_fields:form_id&#45;&gt;forms:id</title>
<path fill="none" stroke="#000000" d="M231.2713,-1683.9452C163.3814,-1631.9027 191.0218,-1025.0701 241,-967 311.0729,-885.5817 409.9271,-1012.4183 480,-931 507.1077,-899.5034 521.5556,-837.5 480,-837.5"/>
<polygon fill="#000000" stroke="#000000" points="231.6074,-1684.0679 239.4556,-1691.7267 236.3037,-1685.784 241,-1687.5 241,-1687.5 241,-1687.5 236.3037,-1685.784 242.5444,-1683.2733 231.6074,-1684.0679 231.6074,-1684.0679"/>
<text text-anchor="start" x="7.396" y="-1697.5" font-family="Arial" font-size="10.00" fill="#000000">FOREIGN KEY (form_id) REFERENCES forms (id)</text>
</g>
</g>
</svg>
