<?xml version="1.0" encoding="UTF-8" standalone="no"?>
<!DOCTYPE svg PUBLIC "-//W3C//DTD SVG 1.1//EN"
 "http://www.w3.org/Graphics/SVG/1.1/DTD/svg11.dtd">
<!-- Generated by graphviz version 2.40.1 (20161225.0304)
 -->
<!-- Title: lead_stages_change_log Pages: 1 -->
<svg width="808pt" height="1822pt"
 viewBox="0.00 0.00 808.00 1822.00" xmlns="http://www.w3.org/2000/svg" xmlns:xlink="http://www.w3.org/1999/xlink">
<g id="graph0" class="graph" transform="scale(1 1) rotate(0) translate(4 1818)">
<title>lead_stages_change_log</title>
<polygon fill="#ffffff" stroke="transparent" points="-4,4 -4,-1818 804,-1818 804,4 -4,4"/>
<!-- lead_stages_change_log -->
<g id="node1" class="node">
<title>lead_stages_change_log</title>
<polygon fill="#efefef" stroke="transparent" points="239,-1732.5 239,-1767.5 550,-1767.5 550,-1732.5 239,-1732.5"/>
<polygon fill="none" stroke="#000000" points="239,-1732.5 239,-1767.5 550,-1767.5 550,-1732.5 239,-1732.5"/>
<text text-anchor="start" x="245.8282" y="-1745.3" font-family="Arial Bold" font-size="18.00" fill="#000000">lead_stages_change_log</text>
<text text-anchor="start" x="445.918" y="-1745.3" font-family="Arial" font-size="14.00" fill="#000000"> </text>
<text text-anchor="start" x="449.8086" y="-1745.3" font-family="Arial" font-size="14.00" fill="#666666">[BASE TABLE]</text>
<polygon fill="none" stroke="#000000" points="239,-1702.5 239,-1732.5 550,-1732.5 550,-1702.5 239,-1702.5"/>
<text text-anchor="start" x="246" y="-1713.9" font-family="Arial" font-size="14.00" fill="#000000">id </text>
<text text-anchor="start" x="260.7798" y="-1713.9" font-family="Arial" font-size="14.00" fill="#666666">[int(10) unsigned]</text>
<polygon fill="none" stroke="#000000" points="239,-1672.5 239,-1702.5 550,-1702.5 550,-1672.5 239,-1672.5"/>
<text text-anchor="start" x="246" y="-1683.9" font-family="Arial" font-size="14.00" fill="#000000">lead_id </text>
<text text-anchor="start" x="295.0168" y="-1683.9" font-family="Arial" font-size="14.00" fill="#666666">[bigint(20) unsigned]</text>
<polygon fill="none" stroke="#000000" points="239,-1642.5 239,-1672.5 550,-1672.5 550,-1642.5 239,-1642.5"/>
<text text-anchor="start" x="246" y="-1653.9" font-family="Arial" font-size="14.00" fill="#000000">stage_id </text>
<text text-anchor="start" x="302.8008" y="-1653.9" font-family="Arial" font-size="14.00" fill="#666666">[int(10) unsigned]</text>
<polygon fill="none" stroke="#000000" points="239,-1612.5 239,-1642.5 550,-1642.5 550,-1612.5 239,-1612.5"/>
<text text-anchor="start" x="246" y="-1623.9" font-family="Arial" font-size="14.00" fill="#000000">event_name </text>
<text text-anchor="start" x="326.92" y="-1623.9" font-family="Arial" font-size="14.00" fill="#666666">[varchar(191)]</text>
<polygon fill="none" stroke="#000000" points="239,-1582.5 239,-1612.5 550,-1612.5 550,-1582.5 239,-1582.5"/>
<text text-anchor="start" x="246" y="-1593.9" font-family="Arial" font-size="14.00" fill="#000000">action_name </text>
<text text-anchor="start" x="330.0266" y="-1593.9" font-family="Arial" font-size="14.00" fill="#666666">[varchar(191)]</text>
<polygon fill="none" stroke="#000000" points="239,-1552.5 239,-1582.5 550,-1582.5 550,-1552.5 239,-1552.5"/>
<text text-anchor="start" x="246" y="-1563.9" font-family="Arial" font-size="14.00" fill="#000000">date_added </text>
<text text-anchor="start" x="323.8246" y="-1563.9" font-family="Arial" font-size="14.00" fill="#666666">[datetime]</text>
<polygon fill="none" stroke="#000000" stroke-width="3" points="237,-1551.5 237,-1769.5 551,-1769.5 551,-1551.5 237,-1551.5"/>
</g>
<!-- leads -->
<g id="node2" class="node">
<title>leads</title>
<polygon fill="#efefef" stroke="transparent" points="93,-1392.5 93,-1427.5 346,-1427.5 346,-1392.5 93,-1392.5"/>
<polygon fill="none" stroke="#000000" points="93,-1392.5 93,-1427.5 346,-1427.5 346,-1392.5 93,-1392.5"/>
<text text-anchor="start" x="149.3667" y="-1405.3" font-family="Arial Bold" font-size="18.00" fill="#000000">leads</text>
<text text-anchor="start" x="192.3795" y="-1405.3" font-family="Arial" font-size="14.00" fill="#000000"> </text>
<text text-anchor="start" x="196.2701" y="-1405.3" font-family="Arial" font-size="14.00" fill="#666666">[BASE TABLE]</text>
<polygon fill="none" stroke="#000000" points="93,-1362.5 93,-1392.5 346,-1392.5 346,-1362.5 93,-1362.5"/>
<text text-anchor="start" x="100" y="-1373.9" font-family="Arial" font-size="14.00" fill="#000000">id </text>
<text text-anchor="start" x="114.7798" y="-1373.9" font-family="Arial" font-size="14.00" fill="#666666">[bigint(20) unsigned]</text>
<polygon fill="none" stroke="#000000" points="93,-1332.5 93,-1362.5 346,-1362.5 346,-1332.5 93,-1332.5"/>
<text text-anchor="start" x="100" y="-1343.9" font-family="Arial" font-size="14.00" fill="#000000">owner_id </text>
<text text-anchor="start" x="160.6774" y="-1343.9" font-family="Arial" font-size="14.00" fill="#666666">[int(10) unsigned]</text>
<polygon fill="none" stroke="#000000" points="93,-1302.5 93,-1332.5 346,-1332.5 346,-1302.5 93,-1302.5"/>
<text text-anchor="start" x="100" y="-1313.9" font-family="Arial" font-size="14.00" fill="#000000">stage_id </text>
<text text-anchor="start" x="156.8008" y="-1313.9" font-family="Arial" font-size="14.00" fill="#666666">[int(10) unsigned]</text>
<polygon fill="none" stroke="#000000" points="93,-1272.5 93,-1302.5 346,-1302.5 346,-1272.5 93,-1272.5"/>
<text text-anchor="start" x="100" y="-1283.9" font-family="Arial" font-size="14.00" fill="#000000">is_published </text>
<text text-anchor="start" x="181.6886" y="-1283.9" font-family="Arial" font-size="14.00" fill="#666666">[tinyint(1)]</text>
<polygon fill="none" stroke="#000000" points="93,-1242.5 93,-1272.5 346,-1272.5 346,-1242.5 93,-1242.5"/>
<text text-anchor="start" x="100" y="-1253.9" font-family="Arial" font-size="14.00" fill="#000000">date_added </text>
<text text-anchor="start" x="177.8246" y="-1253.9" font-family="Arial" font-size="14.00" fill="#666666">[datetime]</text>
<polygon fill="none" stroke="#000000" points="93,-1212.5 93,-1242.5 346,-1242.5 346,-1212.5 93,-1212.5"/>
<text text-anchor="start" x="100" y="-1223.9" font-family="Arial" font-size="14.00" fill="#000000">created_by </text>
<text text-anchor="start" x="173.1374" y="-1223.9" font-family="Arial" font-size="14.00" fill="#666666">[int(11)]</text>
<polygon fill="none" stroke="#000000" points="93,-1182.5 93,-1212.5 346,-1212.5 346,-1182.5 93,-1182.5"/>
<text text-anchor="start" x="100" y="-1193.9" font-family="Arial" font-size="14.00" fill="#000000">created_by_user </text>
<text text-anchor="start" x="208.1458" y="-1193.9" font-family="Arial" font-size="14.00" fill="#666666">[varchar(191)]</text>
<polygon fill="none" stroke="#000000" points="93,-1152.5 93,-1182.5 346,-1182.5 346,-1152.5 93,-1152.5"/>
<text text-anchor="start" x="100" y="-1163.9" font-family="Arial" font-size="14.00" fill="#000000">date_modified </text>
<text text-anchor="start" x="191.8064" y="-1163.9" font-family="Arial" font-size="14.00" fill="#666666">[datetime]</text>
<polygon fill="none" stroke="#000000" points="93,-1122.5 93,-1152.5 346,-1152.5 346,-1122.5 93,-1122.5"/>
<text text-anchor="start" x="100" y="-1133.9" font-family="Arial" font-size="14.00" fill="#000000">modified_by </text>
<text text-anchor="start" x="179.3506" y="-1133.9" font-family="Arial" font-size="14.00" fill="#666666">[int(11)]</text>
<polygon fill="none" stroke="#000000" points="93,-1092.5 93,-1122.5 346,-1122.5 346,-1092.5 93,-1092.5"/>
<text text-anchor="start" x="100" y="-1103.9" font-family="Arial" font-size="14.00" fill="#000000">modified_by_user </text>
<text text-anchor="start" x="214.359" y="-1103.9" font-family="Arial" font-size="14.00" fill="#666666">[varchar(191)]</text>
<polygon fill="none" stroke="#000000" points="93,-1062.5 93,-1092.5 346,-1092.5 346,-1062.5 93,-1062.5"/>
<text text-anchor="start" x="100" y="-1073.9" font-family="Arial" font-size="14.00" fill="#000000">checked_out </text>
<text text-anchor="start" x="183.2594" y="-1073.9" font-family="Arial" font-size="14.00" fill="#666666">[datetime]</text>
<polygon fill="none" stroke="#000000" points="93,-1032.5 93,-1062.5 346,-1062.5 346,-1032.5 93,-1032.5"/>
<text text-anchor="start" x="100" y="-1043.9" font-family="Arial" font-size="14.00" fill="#000000">checked_out_by </text>
<text text-anchor="start" x="205.8246" y="-1043.9" font-family="Arial" font-size="14.00" fill="#666666">[int(11)]</text>
<polygon fill="none" stroke="#000000" points="93,-1002.5 93,-1032.5 346,-1032.5 346,-1002.5 93,-1002.5"/>
<text text-anchor="start" x="100" y="-1013.9" font-family="Arial" font-size="14.00" fill="#000000">checked_out_by_user </text>
<text text-anchor="start" x="240.833" y="-1013.9" font-family="Arial" font-size="14.00" fill="#666666">[varchar(191)]</text>
<polygon fill="none" stroke="#000000" points="93,-972.5 93,-1002.5 346,-1002.5 346,-972.5 93,-972.5"/>
<text text-anchor="start" x="100" y="-983.9" font-family="Arial" font-size="14.00" fill="#000000">points </text>
<text text-anchor="start" x="141.2356" y="-983.9" font-family="Arial" font-size="14.00" fill="#666666">[int(11)]</text>
<polygon fill="none" stroke="#000000" points="93,-942.5 93,-972.5 346,-972.5 346,-942.5 93,-942.5"/>
<text text-anchor="start" x="100" y="-953.9" font-family="Arial" font-size="14.00" fill="#000000">last_active </text>
<text text-anchor="start" x="170.0154" y="-953.9" font-family="Arial" font-size="14.00" fill="#666666">[datetime]</text>
<polygon fill="none" stroke="#000000" points="93,-912.5 93,-942.5 346,-942.5 346,-912.5 93,-912.5"/>
<text text-anchor="start" x="100" y="-923.9" font-family="Arial" font-size="14.00" fill="#000000">internal </text>
<text text-anchor="start" x="149.7854" y="-923.9" font-family="Arial" font-size="14.00" fill="#666666">[longtext]</text>
<polygon fill="none" stroke="#000000" points="93,-882.5 93,-912.5 346,-912.5 346,-882.5 93,-882.5"/>
<text text-anchor="start" x="100" y="-893.9" font-family="Arial" font-size="14.00" fill="#000000">social_cache </text>
<text text-anchor="start" x="184.7994" y="-893.9" font-family="Arial" font-size="14.00" fill="#666666">[longtext]</text>
<polygon fill="none" stroke="#000000" points="93,-852.5 93,-882.5 346,-882.5 346,-852.5 93,-852.5"/>
<text text-anchor="start" x="100" y="-863.9" font-family="Arial" font-size="14.00" fill="#000000">date_identified </text>
<text text-anchor="start" x="194.9256" y="-863.9" font-family="Arial" font-size="14.00" fill="#666666">[datetime]</text>
<polygon fill="none" stroke="#000000" points="93,-822.5 93,-852.5 346,-852.5 346,-822.5 93,-822.5"/>
<text text-anchor="start" x="99.7062" y="-833.9" font-family="Arial" font-size="14.00" fill="#000000">preferred_profile_image </text>
<text text-anchor="start" x="252.1746" y="-833.9" font-family="Arial" font-size="14.00" fill="#666666">[varchar(191)]</text>
<polygon fill="none" stroke="#000000" points="93,-792.5 93,-822.5 346,-822.5 346,-792.5 93,-792.5"/>
<text text-anchor="start" x="100" y="-803.9" font-family="Arial" font-size="14.00" fill="#000000">title </text>
<text text-anchor="start" x="125.6676" y="-803.9" font-family="Arial" font-size="14.00" fill="#666666">[varchar(191)]</text>
<polygon fill="none" stroke="#000000" points="93,-762.5 93,-792.5 346,-792.5 346,-762.5 93,-762.5"/>
<text text-anchor="start" x="100" y="-773.9" font-family="Arial" font-size="14.00" fill="#000000">firstname </text>
<text text-anchor="start" x="161.4474" y="-773.9" font-family="Arial" font-size="14.00" fill="#666666">[varchar(191)]</text>
<polygon fill="none" stroke="#000000" points="93,-732.5 93,-762.5 346,-762.5 346,-732.5 93,-732.5"/>
<text text-anchor="start" x="100" y="-743.9" font-family="Arial" font-size="14.00" fill="#000000">lastname </text>
<text text-anchor="start" x="160.6788" y="-743.9" font-family="Arial" font-size="14.00" fill="#666666">[varchar(191)]</text>
<polygon fill="none" stroke="#000000" points="93,-702.5 93,-732.5 346,-732.5 346,-702.5 93,-702.5"/>
<text text-anchor="start" x="100" y="-713.9" font-family="Arial" font-size="14.00" fill="#000000">company </text>
<text text-anchor="start" x="160.6816" y="-713.9" font-family="Arial" font-size="14.00" fill="#666666">[varchar(191)]</text>
<polygon fill="none" stroke="#000000" points="93,-672.5 93,-702.5 346,-702.5 346,-672.5 93,-672.5"/>
<text text-anchor="start" x="100" y="-683.9" font-family="Arial" font-size="14.00" fill="#000000">position </text>
<text text-anchor="start" x="152.1248" y="-683.9" font-family="Arial" font-size="14.00" fill="#666666">[varchar(191)]</text>
<polygon fill="none" stroke="#000000" points="93,-642.5 93,-672.5 346,-672.5 346,-642.5 93,-642.5"/>
<text text-anchor="start" x="100" y="-653.9" font-family="Arial" font-size="14.00" fill="#000000">email </text>
<text text-anchor="start" x="137.3296" y="-653.9" font-family="Arial" font-size="14.00" fill="#666666">[varchar(191)]</text>
<polygon fill="none" stroke="#000000" points="93,-612.5 93,-642.5 346,-642.5 346,-612.5 93,-612.5"/>
<text text-anchor="start" x="100" y="-623.9" font-family="Arial" font-size="14.00" fill="#000000">phone </text>
<text text-anchor="start" x="142.8036" y="-623.9" font-family="Arial" font-size="14.00" fill="#666666">[varchar(191)]</text>
<polygon fill="none" stroke="#000000" points="93,-582.5 93,-612.5 346,-612.5 346,-582.5 93,-582.5"/>
<text text-anchor="start" x="100" y="-593.9" font-family="Arial" font-size="14.00" fill="#000000">mobile </text>
<text text-anchor="start" x="145.1122" y="-593.9" font-family="Arial" font-size="14.00" fill="#666666">[varchar(191)]</text>
<polygon fill="none" stroke="#000000" points="93,-552.5 93,-582.5 346,-582.5 346,-552.5 93,-552.5"/>
<text text-anchor="start" x="100" y="-563.9" font-family="Arial" font-size="14.00" fill="#000000">address1 </text>
<text text-anchor="start" x="161.4642" y="-563.9" font-family="Arial" font-size="14.00" fill="#666666">[varchar(191)]</text>
<polygon fill="none" stroke="#000000" points="93,-522.5 93,-552.5 346,-552.5 346,-522.5 93,-522.5"/>
<text text-anchor="start" x="100" y="-533.9" font-family="Arial" font-size="14.00" fill="#000000">address2 </text>
<text text-anchor="start" x="161.4642" y="-533.9" font-family="Arial" font-size="14.00" fill="#666666">[varchar(191)]</text>
<polygon fill="none" stroke="#000000" points="93,-492.5 93,-522.5 346,-522.5 346,-492.5 93,-492.5"/>
<text text-anchor="start" x="100" y="-503.9" font-family="Arial" font-size="14.00" fill="#000000">city </text>
<text text-anchor="start" x="124.8878" y="-503.9" font-family="Arial" font-size="14.00" fill="#666666">[varchar(191)]</text>
<polygon fill="none" stroke="#000000" points="93,-462.5 93,-492.5 346,-492.5 346,-462.5 93,-462.5"/>
<text text-anchor="start" x="100" y="-473.9" font-family="Arial" font-size="14.00" fill="#000000">state </text>
<text text-anchor="start" x="134.237" y="-473.9" font-family="Arial" font-size="14.00" fill="#666666">[varchar(191)]</text>
<polygon fill="none" stroke="#000000" points="93,-432.5 93,-462.5 346,-462.5 346,-432.5 93,-432.5"/>
<text text-anchor="start" x="100" y="-443.9" font-family="Arial" font-size="14.00" fill="#000000">zipcode </text>
<text text-anchor="start" x="152.1276" y="-443.9" font-family="Arial" font-size="14.00" fill="#666666">[varchar(191)]</text>
<polygon fill="none" stroke="#000000" points="93,-402.5 93,-432.5 346,-432.5 346,-402.5 93,-402.5"/>
<text text-anchor="start" x="100" y="-413.9" font-family="Arial" font-size="14.00" fill="#000000">timezone </text>
<text text-anchor="start" x="160.6788" y="-413.9" font-family="Arial" font-size="14.00" fill="#666666">[varchar(191)]</text>
<polygon fill="none" stroke="#000000" points="93,-372.5 93,-402.5 346,-402.5 346,-372.5 93,-372.5"/>
<text text-anchor="start" x="100" y="-383.9" font-family="Arial" font-size="14.00" fill="#000000">country </text>
<text text-anchor="start" x="149.7896" y="-383.9" font-family="Arial" font-size="14.00" fill="#666666">[varchar(191)]</text>
<polygon fill="none" stroke="#000000" points="93,-342.5 93,-372.5 346,-372.5 346,-342.5 93,-342.5"/>
<text text-anchor="start" x="100" y="-353.9" font-family="Arial" font-size="14.00" fill="#000000">fax </text>
<text text-anchor="start" x="122.5638" y="-353.9" font-family="Arial" font-size="14.00" fill="#666666">[varchar(255)]</text>
<polygon fill="none" stroke="#000000" points="93,-312.5 93,-342.5 346,-342.5 346,-312.5 93,-312.5"/>
<text text-anchor="start" x="100" y="-323.9" font-family="Arial" font-size="14.00" fill="#000000">preferred_locale </text>
<text text-anchor="start" x="205.0196" y="-323.9" font-family="Arial" font-size="14.00" fill="#666666">[varchar(255)]</text>
<polygon fill="none" stroke="#000000" points="93,-282.5 93,-312.5 346,-312.5 346,-282.5 93,-282.5"/>
<text text-anchor="start" x="100" y="-293.9" font-family="Arial" font-size="14.00" fill="#000000">attribution_date </text>
<text text-anchor="start" x="200.3702" y="-293.9" font-family="Arial" font-size="14.00" fill="#666666">[datetime]</text>
<polygon fill="none" stroke="#000000" points="93,-252.5 93,-282.5 346,-282.5 346,-252.5 93,-252.5"/>
<text text-anchor="start" x="100" y="-263.9" font-family="Arial" font-size="14.00" fill="#000000">attribution </text>
<text text-anchor="start" x="165.3492" y="-263.9" font-family="Arial" font-size="14.00" fill="#666666">[double]</text>
<polygon fill="none" stroke="#000000" points="93,-222.5 93,-252.5 346,-252.5 346,-222.5 93,-222.5"/>
<text text-anchor="start" x="100" y="-233.9" font-family="Arial" font-size="14.00" fill="#000000">website </text>
<text text-anchor="start" x="151.3422" y="-233.9" font-family="Arial" font-size="14.00" fill="#666666">[longtext]</text>
<polygon fill="none" stroke="#000000" points="93,-192.5 93,-222.5 346,-222.5 346,-192.5 93,-192.5"/>
<text text-anchor="start" x="100" y="-203.9" font-family="Arial" font-size="14.00" fill="#000000">facebook </text>
<text text-anchor="start" x="160.6942" y="-203.9" font-family="Arial" font-size="14.00" fill="#666666">[varchar(255)]</text>
<polygon fill="none" stroke="#000000" points="93,-162.5 93,-192.5 346,-192.5 346,-162.5 93,-162.5"/>
<text text-anchor="start" x="100" y="-173.9" font-family="Arial" font-size="14.00" fill="#000000">foursquare </text>
<text text-anchor="start" x="170.798" y="-173.9" font-family="Arial" font-size="14.00" fill="#666666">[varchar(255)]</text>
<polygon fill="none" stroke="#000000" points="93,-132.5 93,-162.5 346,-162.5 346,-132.5 93,-132.5"/>
<text text-anchor="start" x="100" y="-143.9" font-family="Arial" font-size="14.00" fill="#000000">instagram </text>
<text text-anchor="start" x="165.3394" y="-143.9" font-family="Arial" font-size="14.00" fill="#666666">[varchar(255)]</text>
<polygon fill="none" stroke="#000000" points="93,-102.5 93,-132.5 346,-132.5 346,-102.5 93,-102.5"/>
<text text-anchor="start" x="100" y="-113.9" font-family="Arial" font-size="14.00" fill="#000000">linkedin </text>
<text text-anchor="start" x="151.3408" y="-113.9" font-family="Arial" font-size="14.00" fill="#666666">[varchar(255)]</text>
<polygon fill="none" stroke="#000000" points="93,-72.5 93,-102.5 346,-102.5 346,-72.5 93,-72.5"/>
<text text-anchor="start" x="100" y="-83.9" font-family="Arial" font-size="14.00" fill="#000000">skype </text>
<text text-anchor="start" x="140.4558" y="-83.9" font-family="Arial" font-size="14.00" fill="#666666">[varchar(255)]</text>
<polygon fill="none" stroke="#000000" points="93,-42.5 93,-72.5 346,-72.5 346,-42.5 93,-42.5"/>
<text text-anchor="start" x="100" y="-53.9" font-family="Arial" font-size="14.00" fill="#000000">twitter </text>
<text text-anchor="start" x="141.2188" y="-53.9" font-family="Arial" font-size="14.00" fill="#666666">[varchar(255)]</text>
</g>
<!-- lead_stages_change_log&#45;&gt;leads -->
<g id="edge1" class="edge">
<title>lead_stages_change_log:lead_id&#45;&gt;leads:id</title>
<path fill="none" stroke="#000000" d="M228.8676,-1686.8167C161.8062,-1677.2374 194.2875,-1569.2188 239,-1507 268.2808,-1466.2549 316.7192,-1511.7451 346,-1471 370.2507,-1437.2544 387.5556,-1377.5 346,-1377.5"/>
<polygon fill="#000000" stroke="#000000" points="229.0227,-1686.827 238.6972,-1691.9898 234.0113,-1687.1635 239,-1687.5 239,-1687.5 239,-1687.5 234.0113,-1687.1635 239.3028,-1683.0102 229.0227,-1686.827 229.0227,-1686.827"/>
<text text-anchor="start" x="7.496" y="-1697.5" font-family="Arial" font-size="10.00" fill="#000000">FOREIGN KEY (lead_id) REFERENCES leads (id)</text>
</g>
<!-- stages -->
<g id="node3" class="node">
<title>stages</title>
<polygon fill="#efefef" stroke="transparent" points="450,-972.5 450,-1007.5 691,-1007.5 691,-972.5 450,-972.5"/>
<polygon fill="none" stroke="#000000" points="450,-972.5 450,-1007.5 691,-1007.5 691,-972.5 450,-972.5"/>
<text text-anchor="start" x="495.3627" y="-985.3" font-family="Arial Bold" font-size="18.00" fill="#000000">stages</text>
<text text-anchor="start" x="548.3835" y="-985.3" font-family="Arial" font-size="14.00" fill="#000000"> </text>
<text text-anchor="start" x="552.2741" y="-985.3" font-family="Arial" font-size="14.00" fill="#666666">[BASE TABLE]</text>
<polygon fill="none" stroke="#000000" points="450,-942.5 450,-972.5 691,-972.5 691,-942.5 450,-942.5"/>
<text text-anchor="start" x="457" y="-953.9" font-family="Arial" font-size="14.00" fill="#000000">id </text>
<text text-anchor="start" x="471.7798" y="-953.9" font-family="Arial" font-size="14.00" fill="#666666">[int(10) unsigned]</text>
<polygon fill="none" stroke="#000000" points="450,-912.5 450,-942.5 691,-942.5 691,-912.5 450,-912.5"/>
<text text-anchor="start" x="457" y="-923.9" font-family="Arial" font-size="14.00" fill="#000000">category_id </text>
<text text-anchor="start" x="533.244" y="-923.9" font-family="Arial" font-size="14.00" fill="#666666">[int(10) unsigned]</text>
<polygon fill="none" stroke="#000000" points="450,-882.5 450,-912.5 691,-912.5 691,-882.5 450,-882.5"/>
<text text-anchor="start" x="457" y="-893.9" font-family="Arial" font-size="14.00" fill="#000000">is_published </text>
<text text-anchor="start" x="538.6886" y="-893.9" font-family="Arial" font-size="14.00" fill="#666666">[tinyint(1)]</text>
<polygon fill="none" stroke="#000000" points="450,-852.5 450,-882.5 691,-882.5 691,-852.5 450,-852.5"/>
<text text-anchor="start" x="457" y="-863.9" font-family="Arial" font-size="14.00" fill="#000000">date_added </text>
<text text-anchor="start" x="534.8246" y="-863.9" font-family="Arial" font-size="14.00" fill="#666666">[datetime]</text>
<polygon fill="none" stroke="#000000" points="450,-822.5 450,-852.5 691,-852.5 691,-822.5 450,-822.5"/>
<text text-anchor="start" x="457" y="-833.9" font-family="Arial" font-size="14.00" fill="#000000">created_by </text>
<text text-anchor="start" x="530.1374" y="-833.9" font-family="Arial" font-size="14.00" fill="#666666">[int(11)]</text>
<polygon fill="none" stroke="#000000" points="450,-792.5 450,-822.5 691,-822.5 691,-792.5 450,-792.5"/>
<text text-anchor="start" x="457" y="-803.9" font-family="Arial" font-size="14.00" fill="#000000">created_by_user </text>
<text text-anchor="start" x="565.1458" y="-803.9" font-family="Arial" font-size="14.00" fill="#666666">[varchar(191)]</text>
<polygon fill="none" stroke="#000000" points="450,-762.5 450,-792.5 691,-792.5 691,-762.5 450,-762.5"/>
<text text-anchor="start" x="457" y="-773.9" font-family="Arial" font-size="14.00" fill="#000000">date_modified </text>
<text text-anchor="start" x="548.8064" y="-773.9" font-family="Arial" font-size="14.00" fill="#666666">[datetime]</text>
<polygon fill="none" stroke="#000000" points="450,-732.5 450,-762.5 691,-762.5 691,-732.5 450,-732.5"/>
<text text-anchor="start" x="457" y="-743.9" font-family="Arial" font-size="14.00" fill="#000000">modified_by </text>
<text text-anchor="start" x="536.3506" y="-743.9" font-family="Arial" font-size="14.00" fill="#666666">[int(11)]</text>
<polygon fill="none" stroke="#000000" points="450,-702.5 450,-732.5 691,-732.5 691,-702.5 450,-702.5"/>
<text text-anchor="start" x="457" y="-713.9" font-family="Arial" font-size="14.00" fill="#000000">modified_by_user </text>
<text text-anchor="start" x="571.359" y="-713.9" font-family="Arial" font-size="14.00" fill="#666666">[varchar(191)]</text>
<polygon fill="none" stroke="#000000" points="450,-672.5 450,-702.5 691,-702.5 691,-672.5 450,-672.5"/>
<text text-anchor="start" x="457" y="-683.9" font-family="Arial" font-size="14.00" fill="#000000">checked_out </text>
<text text-anchor="start" x="540.2594" y="-683.9" font-family="Arial" font-size="14.00" fill="#666666">[datetime]</text>
<polygon fill="none" stroke="#000000" points="450,-642.5 450,-672.5 691,-672.5 691,-642.5 450,-642.5"/>
<text text-anchor="start" x="457" y="-653.9" font-family="Arial" font-size="14.00" fill="#000000">checked_out_by </text>
<text text-anchor="start" x="562.8246" y="-653.9" font-family="Arial" font-size="14.00" fill="#666666">[int(11)]</text>
<polygon fill="none" stroke="#000000" points="450,-612.5 450,-642.5 691,-642.5 691,-612.5 450,-612.5"/>
<text text-anchor="start" x="456.5239" y="-623.9" font-family="Arial" font-size="14.00" fill="#000000">checked_out_by_user </text>
<text text-anchor="start" x="597.3569" y="-623.9" font-family="Arial" font-size="14.00" fill="#666666">[varchar(191)]</text>
<polygon fill="none" stroke="#000000" points="450,-582.5 450,-612.5 691,-612.5 691,-582.5 450,-582.5"/>
<text text-anchor="start" x="457" y="-593.9" font-family="Arial" font-size="14.00" fill="#000000">name </text>
<text text-anchor="start" x="495.899" y="-593.9" font-family="Arial" font-size="14.00" fill="#666666">[varchar(191)]</text>
<polygon fill="none" stroke="#000000" points="450,-552.5 450,-582.5 691,-582.5 691,-552.5 450,-552.5"/>
<text text-anchor="start" x="457" y="-563.9" font-family="Arial" font-size="14.00" fill="#000000">description </text>
<text text-anchor="start" x="528.568" y="-563.9" font-family="Arial" font-size="14.00" fill="#666666">[longtext]</text>
<polygon fill="none" stroke="#000000" points="450,-522.5 450,-552.5 691,-552.5 691,-522.5 450,-522.5"/>
<text text-anchor="start" x="457" y="-533.9" font-family="Arial" font-size="14.00" fill="#000000">weight </text>
<text text-anchor="start" x="501.3422" y="-533.9" font-family="Arial" font-size="14.00" fill="#666666">[int(11)]</text>
<polygon fill="none" stroke="#000000" points="450,-492.5 450,-522.5 691,-522.5 691,-492.5 450,-492.5"/>
<text text-anchor="start" x="457" y="-503.9" font-family="Arial" font-size="14.00" fill="#000000">publish_up </text>
<text text-anchor="start" x="528.582" y="-503.9" font-family="Arial" font-size="14.00" fill="#666666">[datetime]</text>
<polygon fill="none" stroke="#000000" points="450,-462.5 450,-492.5 691,-492.5 691,-462.5 450,-462.5"/>
<text text-anchor="start" x="457" y="-473.9" font-family="Arial" font-size="14.00" fill="#000000">publish_down </text>
<text text-anchor="start" x="546.4712" y="-473.9" font-family="Arial" font-size="14.00" fill="#666666">[datetime]</text>
</g>
<!-- lead_stages_change_log&#45;&gt;stages -->
<g id="edge2" class="edge">
<title>lead_stages_change_log:stage_id&#45;&gt;stages:id</title>
<path fill="none" stroke="#000000" d="M560.1216,-1656.3645C688.0298,-1625.072 296.548,-957.5 450,-957.5"/>
<polygon fill="#000000" stroke="#000000" points="559.9377,-1656.385 549.4983,-1653.0281 554.9688,-1656.9425 550,-1657.5 550,-1657.5 550,-1657.5 554.9688,-1656.9425 550.5017,-1661.9719 559.9377,-1656.385 559.9377,-1656.385"/>
<text text-anchor="start" x="556.936" y="-1667.5" font-family="Arial" font-size="10.00" fill="#000000">FOREIGN KEY (stage_id) REFERENCES stages (id)</text>
</g>
</g>
</svg>
