<?xml version="1.0" encoding="UTF-8" standalone="no"?>
<!DOCTYPE svg PUBLIC "-//W3C//DTD SVG 1.1//EN"
 "http://www.w3.org/Graphics/SVG/1.1/DTD/svg11.dtd">
<!-- Generated by graphviz version 2.40.1 (20161225.0304)
 -->
<!-- Title: lead_lists_leads Pages: 1 -->
<svg width="755pt" height="1792pt"
 viewBox="0.00 0.00 755.00 1792.00" xmlns="http://www.w3.org/2000/svg" xmlns:xlink="http://www.w3.org/1999/xlink">
<g id="graph0" class="graph" transform="scale(1 1) rotate(0) translate(4 1788)">
<title>lead_lists_leads</title>
<polygon fill="#ffffff" stroke="transparent" points="-4,4 -4,-1788 751,-1788 751,4 -4,4"/>
<!-- lead_lists_leads -->
<g id="node1" class="node">
<title>lead_lists_leads</title>
<polygon fill="#efefef" stroke="transparent" points="269,-1702.5 269,-1737.5 508,-1737.5 508,-1702.5 269,-1702.5"/>
<polygon fill="none" stroke="#000000" points="269,-1702.5 269,-1737.5 508,-1737.5 508,-1702.5 269,-1702.5"/>
<text text-anchor="start" x="275.8588" y="-1715.3" font-family="Arial Bold" font-size="18.00" fill="#000000">lead_lists_leads</text>
<text text-anchor="start" x="403.8874" y="-1715.3" font-family="Arial" font-size="14.00" fill="#000000"> </text>
<text text-anchor="start" x="407.778" y="-1715.3" font-family="Arial" font-size="14.00" fill="#666666">[BASE TABLE]</text>
<polygon fill="none" stroke="#000000" points="269,-1672.5 269,-1702.5 508,-1702.5 508,-1672.5 269,-1672.5"/>
<text text-anchor="start" x="276" y="-1683.9" font-family="Arial" font-size="14.00" fill="#000000">leadlist_id </text>
<text text-anchor="start" x="342.1206" y="-1683.9" font-family="Arial" font-size="14.00" fill="#666666">[int(10) unsigned]</text>
<polygon fill="none" stroke="#000000" points="269,-1642.5 269,-1672.5 508,-1672.5 508,-1642.5 269,-1642.5"/>
<text text-anchor="start" x="276" y="-1653.9" font-family="Arial" font-size="14.00" fill="#000000">lead_id </text>
<text text-anchor="start" x="325.0168" y="-1653.9" font-family="Arial" font-size="14.00" fill="#666666">[bigint(20) unsigned]</text>
<polygon fill="none" stroke="#000000" points="269,-1612.5 269,-1642.5 508,-1642.5 508,-1612.5 269,-1612.5"/>
<text text-anchor="start" x="276" y="-1623.9" font-family="Arial" font-size="14.00" fill="#000000">date_added </text>
<text text-anchor="start" x="353.8246" y="-1623.9" font-family="Arial" font-size="14.00" fill="#666666">[datetime]</text>
<polygon fill="none" stroke="#000000" points="269,-1582.5 269,-1612.5 508,-1612.5 508,-1582.5 269,-1582.5"/>
<text text-anchor="start" x="276" y="-1593.9" font-family="Arial" font-size="14.00" fill="#000000">manually_removed </text>
<text text-anchor="start" x="398.129" y="-1593.9" font-family="Arial" font-size="14.00" fill="#666666">[tinyint(1)]</text>
<polygon fill="none" stroke="#000000" points="269,-1552.5 269,-1582.5 508,-1582.5 508,-1552.5 269,-1552.5"/>
<text text-anchor="start" x="276" y="-1563.9" font-family="Arial" font-size="14.00" fill="#000000">manually_added </text>
<text text-anchor="start" x="382.5904" y="-1563.9" font-family="Arial" font-size="14.00" fill="#666666">[tinyint(1)]</text>
<polygon fill="none" stroke="#000000" stroke-width="3" points="267,-1551.5 267,-1739.5 509,-1739.5 509,-1551.5 267,-1551.5"/>
</g>
<!-- lead_lists -->
<g id="node2" class="node">
<title>lead_lists</title>
<polygon fill="#efefef" stroke="transparent" points="93,-1002.5 93,-1037.5 334,-1037.5 334,-1002.5 93,-1002.5"/>
<polygon fill="none" stroke="#000000" points="93,-1002.5 93,-1037.5 334,-1037.5 334,-1002.5 93,-1002.5"/>
<text text-anchor="start" x="127.3683" y="-1015.3" font-family="Arial Bold" font-size="18.00" fill="#000000">lead_lists</text>
<text text-anchor="start" x="202.3779" y="-1015.3" font-family="Arial" font-size="14.00" fill="#000000"> </text>
<text text-anchor="start" x="206.2685" y="-1015.3" font-family="Arial" font-size="14.00" fill="#666666">[BASE TABLE]</text>
<polygon fill="none" stroke="#000000" points="93,-972.5 93,-1002.5 334,-1002.5 334,-972.5 93,-972.5"/>
<text text-anchor="start" x="100" y="-983.9" font-family="Arial" font-size="14.00" fill="#000000">id </text>
<text text-anchor="start" x="114.7798" y="-983.9" font-family="Arial" font-size="14.00" fill="#666666">[int(10) unsigned]</text>
<polygon fill="none" stroke="#000000" points="93,-942.5 93,-972.5 334,-972.5 334,-942.5 93,-942.5"/>
<text text-anchor="start" x="100" y="-953.9" font-family="Arial" font-size="14.00" fill="#000000">category_id </text>
<text text-anchor="start" x="176.244" y="-953.9" font-family="Arial" font-size="14.00" fill="#666666">[int(10) unsigned]</text>
<polygon fill="none" stroke="#000000" points="93,-912.5 93,-942.5 334,-942.5 334,-912.5 93,-912.5"/>
<text text-anchor="start" x="100" y="-923.9" font-family="Arial" font-size="14.00" fill="#000000">is_published </text>
<text text-anchor="start" x="181.6886" y="-923.9" font-family="Arial" font-size="14.00" fill="#666666">[tinyint(1)]</text>
<polygon fill="none" stroke="#000000" points="93,-882.5 93,-912.5 334,-912.5 334,-882.5 93,-882.5"/>
<text text-anchor="start" x="100" y="-893.9" font-family="Arial" font-size="14.00" fill="#000000">date_added </text>
<text text-anchor="start" x="177.8246" y="-893.9" font-family="Arial" font-size="14.00" fill="#666666">[datetime]</text>
<polygon fill="none" stroke="#000000" points="93,-852.5 93,-882.5 334,-882.5 334,-852.5 93,-852.5"/>
<text text-anchor="start" x="100" y="-863.9" font-family="Arial" font-size="14.00" fill="#000000">created_by </text>
<text text-anchor="start" x="173.1374" y="-863.9" font-family="Arial" font-size="14.00" fill="#666666">[int(11)]</text>
<polygon fill="none" stroke="#000000" points="93,-822.5 93,-852.5 334,-852.5 334,-822.5 93,-822.5"/>
<text text-anchor="start" x="100" y="-833.9" font-family="Arial" font-size="14.00" fill="#000000">created_by_user </text>
<text text-anchor="start" x="208.1458" y="-833.9" font-family="Arial" font-size="14.00" fill="#666666">[varchar(191)]</text>
<polygon fill="none" stroke="#000000" points="93,-792.5 93,-822.5 334,-822.5 334,-792.5 93,-792.5"/>
<text text-anchor="start" x="100" y="-803.9" font-family="Arial" font-size="14.00" fill="#000000">date_modified </text>
<text text-anchor="start" x="191.8064" y="-803.9" font-family="Arial" font-size="14.00" fill="#666666">[datetime]</text>
<polygon fill="none" stroke="#000000" points="93,-762.5 93,-792.5 334,-792.5 334,-762.5 93,-762.5"/>
<text text-anchor="start" x="100" y="-773.9" font-family="Arial" font-size="14.00" fill="#000000">modified_by </text>
<text text-anchor="start" x="179.3506" y="-773.9" font-family="Arial" font-size="14.00" fill="#666666">[int(11)]</text>
<polygon fill="none" stroke="#000000" points="93,-732.5 93,-762.5 334,-762.5 334,-732.5 93,-732.5"/>
<text text-anchor="start" x="100" y="-743.9" font-family="Arial" font-size="14.00" fill="#000000">modified_by_user </text>
<text text-anchor="start" x="214.359" y="-743.9" font-family="Arial" font-size="14.00" fill="#666666">[varchar(191)]</text>
<polygon fill="none" stroke="#000000" points="93,-702.5 93,-732.5 334,-732.5 334,-702.5 93,-702.5"/>
<text text-anchor="start" x="100" y="-713.9" font-family="Arial" font-size="14.00" fill="#000000">checked_out </text>
<text text-anchor="start" x="183.2594" y="-713.9" font-family="Arial" font-size="14.00" fill="#666666">[datetime]</text>
<polygon fill="none" stroke="#000000" points="93,-672.5 93,-702.5 334,-702.5 334,-672.5 93,-672.5"/>
<text text-anchor="start" x="100" y="-683.9" font-family="Arial" font-size="14.00" fill="#000000">checked_out_by </text>
<text text-anchor="start" x="205.8246" y="-683.9" font-family="Arial" font-size="14.00" fill="#666666">[int(11)]</text>
<polygon fill="none" stroke="#000000" points="93,-642.5 93,-672.5 334,-672.5 334,-642.5 93,-642.5"/>
<text text-anchor="start" x="99.5239" y="-653.9" font-family="Arial" font-size="14.00" fill="#000000">checked_out_by_user </text>
<text text-anchor="start" x="240.3569" y="-653.9" font-family="Arial" font-size="14.00" fill="#666666">[varchar(191)]</text>
<polygon fill="none" stroke="#000000" points="93,-612.5 93,-642.5 334,-642.5 334,-612.5 93,-612.5"/>
<text text-anchor="start" x="100" y="-623.9" font-family="Arial" font-size="14.00" fill="#000000">name </text>
<text text-anchor="start" x="138.899" y="-623.9" font-family="Arial" font-size="14.00" fill="#666666">[varchar(191)]</text>
<polygon fill="none" stroke="#000000" points="93,-582.5 93,-612.5 334,-612.5 334,-582.5 93,-582.5"/>
<text text-anchor="start" x="100" y="-593.9" font-family="Arial" font-size="14.00" fill="#000000">description </text>
<text text-anchor="start" x="171.568" y="-593.9" font-family="Arial" font-size="14.00" fill="#666666">[longtext]</text>
<polygon fill="none" stroke="#000000" points="93,-552.5 93,-582.5 334,-582.5 334,-552.5 93,-552.5"/>
<text text-anchor="start" x="100" y="-563.9" font-family="Arial" font-size="14.00" fill="#000000">alias </text>
<text text-anchor="start" x="132.669" y="-563.9" font-family="Arial" font-size="14.00" fill="#666666">[varchar(191)]</text>
<polygon fill="none" stroke="#000000" points="93,-522.5 93,-552.5 334,-552.5 334,-522.5 93,-522.5"/>
<text text-anchor="start" x="100" y="-533.9" font-family="Arial" font-size="14.00" fill="#000000">public_name </text>
<text text-anchor="start" x="183.2426" y="-533.9" font-family="Arial" font-size="14.00" fill="#666666">[varchar(191)]</text>
<polygon fill="none" stroke="#000000" points="93,-492.5 93,-522.5 334,-522.5 334,-492.5 93,-492.5"/>
<text text-anchor="start" x="100" y="-503.9" font-family="Arial" font-size="14.00" fill="#000000">filters </text>
<text text-anchor="start" x="137.3282" y="-503.9" font-family="Arial" font-size="14.00" fill="#666666">[longtext]</text>
<polygon fill="none" stroke="#000000" points="93,-462.5 93,-492.5 334,-492.5 334,-462.5 93,-462.5"/>
<text text-anchor="start" x="100" y="-473.9" font-family="Arial" font-size="14.00" fill="#000000">is_global </text>
<text text-anchor="start" x="159.1234" y="-473.9" font-family="Arial" font-size="14.00" fill="#666666">[tinyint(1)]</text>
<polygon fill="none" stroke="#000000" points="93,-432.5 93,-462.5 334,-462.5 334,-432.5 93,-432.5"/>
<text text-anchor="start" x="100" y="-443.9" font-family="Arial" font-size="14.00" fill="#000000">is_preference_center </text>
<text text-anchor="start" x="235.3688" y="-443.9" font-family="Arial" font-size="14.00" fill="#666666">[tinyint(1)]</text>
</g>
<!-- lead_lists_leads&#45;&gt;lead_lists -->
<g id="edge1" class="edge">
<title>lead_lists_leads:leadlist_id&#45;&gt;lead_lists:id</title>
<path fill="none" stroke="#000000" d="M258.8812,-1686.3645C130.175,-1655.072 486.5632,-987.5 334,-987.5"/>
<polygon fill="#000000" stroke="#000000" points="259.0624,-1686.3847 268.4981,-1691.9719 264.0312,-1686.9424 269,-1687.5 269,-1687.5 269,-1687.5 264.0312,-1686.9424 269.5019,-1683.0281 259.0624,-1686.3847 259.0624,-1686.3847"/>
<text text-anchor="start" x="7.4995" y="-1697.5" font-family="Arial" font-size="10.00" fill="#000000">FOREIGN KEY (leadlist_id) REFERENCES lead_lists (id)</text>
</g>
<!-- leads -->
<g id="node3" class="node">
<title>leads</title>
<polygon fill="#efefef" stroke="transparent" points="438,-1392.5 438,-1427.5 691,-1427.5 691,-1392.5 438,-1392.5"/>
<polygon fill="none" stroke="#000000" points="438,-1392.5 438,-1427.5 691,-1427.5 691,-1392.5 438,-1392.5"/>
<text text-anchor="start" x="494.3667" y="-1405.3" font-family="Arial Bold" font-size="18.00" fill="#000000">leads</text>
<text text-anchor="start" x="537.3795" y="-1405.3" font-family="Arial" font-size="14.00" fill="#000000"> </text>
<text text-anchor="start" x="541.2701" y="-1405.3" font-family="Arial" font-size="14.00" fill="#666666">[BASE TABLE]</text>
<polygon fill="none" stroke="#000000" points="438,-1362.5 438,-1392.5 691,-1392.5 691,-1362.5 438,-1362.5"/>
<text text-anchor="start" x="445" y="-1373.9" font-family="Arial" font-size="14.00" fill="#000000">id </text>
<text text-anchor="start" x="459.7798" y="-1373.9" font-family="Arial" font-size="14.00" fill="#666666">[bigint(20) unsigned]</text>
<polygon fill="none" stroke="#000000" points="438,-1332.5 438,-1362.5 691,-1362.5 691,-1332.5 438,-1332.5"/>
<text text-anchor="start" x="445" y="-1343.9" font-family="Arial" font-size="14.00" fill="#000000">owner_id </text>
<text text-anchor="start" x="505.6774" y="-1343.9" font-family="Arial" font-size="14.00" fill="#666666">[int(10) unsigned]</text>
<polygon fill="none" stroke="#000000" points="438,-1302.5 438,-1332.5 691,-1332.5 691,-1302.5 438,-1302.5"/>
<text text-anchor="start" x="445" y="-1313.9" font-family="Arial" font-size="14.00" fill="#000000">stage_id </text>
<text text-anchor="start" x="501.8008" y="-1313.9" font-family="Arial" font-size="14.00" fill="#666666">[int(10) unsigned]</text>
<polygon fill="none" stroke="#000000" points="438,-1272.5 438,-1302.5 691,-1302.5 691,-1272.5 438,-1272.5"/>
<text text-anchor="start" x="445" y="-1283.9" font-family="Arial" font-size="14.00" fill="#000000">is_published </text>
<text text-anchor="start" x="526.6886" y="-1283.9" font-family="Arial" font-size="14.00" fill="#666666">[tinyint(1)]</text>
<polygon fill="none" stroke="#000000" points="438,-1242.5 438,-1272.5 691,-1272.5 691,-1242.5 438,-1242.5"/>
<text text-anchor="start" x="445" y="-1253.9" font-family="Arial" font-size="14.00" fill="#000000">date_added </text>
<text text-anchor="start" x="522.8246" y="-1253.9" font-family="Arial" font-size="14.00" fill="#666666">[datetime]</text>
<polygon fill="none" stroke="#000000" points="438,-1212.5 438,-1242.5 691,-1242.5 691,-1212.5 438,-1212.5"/>
<text text-anchor="start" x="445" y="-1223.9" font-family="Arial" font-size="14.00" fill="#000000">created_by </text>
<text text-anchor="start" x="518.1374" y="-1223.9" font-family="Arial" font-size="14.00" fill="#666666">[int(11)]</text>
<polygon fill="none" stroke="#000000" points="438,-1182.5 438,-1212.5 691,-1212.5 691,-1182.5 438,-1182.5"/>
<text text-anchor="start" x="445" y="-1193.9" font-family="Arial" font-size="14.00" fill="#000000">created_by_user </text>
<text text-anchor="start" x="553.1458" y="-1193.9" font-family="Arial" font-size="14.00" fill="#666666">[varchar(191)]</text>
<polygon fill="none" stroke="#000000" points="438,-1152.5 438,-1182.5 691,-1182.5 691,-1152.5 438,-1152.5"/>
<text text-anchor="start" x="445" y="-1163.9" font-family="Arial" font-size="14.00" fill="#000000">date_modified </text>
<text text-anchor="start" x="536.8064" y="-1163.9" font-family="Arial" font-size="14.00" fill="#666666">[datetime]</text>
<polygon fill="none" stroke="#000000" points="438,-1122.5 438,-1152.5 691,-1152.5 691,-1122.5 438,-1122.5"/>
<text text-anchor="start" x="445" y="-1133.9" font-family="Arial" font-size="14.00" fill="#000000">modified_by </text>
<text text-anchor="start" x="524.3506" y="-1133.9" font-family="Arial" font-size="14.00" fill="#666666">[int(11)]</text>
<polygon fill="none" stroke="#000000" points="438,-1092.5 438,-1122.5 691,-1122.5 691,-1092.5 438,-1092.5"/>
<text text-anchor="start" x="445" y="-1103.9" font-family="Arial" font-size="14.00" fill="#000000">modified_by_user </text>
<text text-anchor="start" x="559.359" y="-1103.9" font-family="Arial" font-size="14.00" fill="#666666">[varchar(191)]</text>
<polygon fill="none" stroke="#000000" points="438,-1062.5 438,-1092.5 691,-1092.5 691,-1062.5 438,-1062.5"/>
<text text-anchor="start" x="445" y="-1073.9" font-family="Arial" font-size="14.00" fill="#000000">checked_out </text>
<text text-anchor="start" x="528.2594" y="-1073.9" font-family="Arial" font-size="14.00" fill="#666666">[datetime]</text>
<polygon fill="none" stroke="#000000" points="438,-1032.5 438,-1062.5 691,-1062.5 691,-1032.5 438,-1032.5"/>
<text text-anchor="start" x="445" y="-1043.9" font-family="Arial" font-size="14.00" fill="#000000">checked_out_by </text>
<text text-anchor="start" x="550.8246" y="-1043.9" font-family="Arial" font-size="14.00" fill="#666666">[int(11)]</text>
<polygon fill="none" stroke="#000000" points="438,-1002.5 438,-1032.5 691,-1032.5 691,-1002.5 438,-1002.5"/>
<text text-anchor="start" x="445" y="-1013.9" font-family="Arial" font-size="14.00" fill="#000000">checked_out_by_user </text>
<text text-anchor="start" x="585.833" y="-1013.9" font-family="Arial" font-size="14.00" fill="#666666">[varchar(191)]</text>
<polygon fill="none" stroke="#000000" points="438,-972.5 438,-1002.5 691,-1002.5 691,-972.5 438,-972.5"/>
<text text-anchor="start" x="445" y="-983.9" font-family="Arial" font-size="14.00" fill="#000000">points </text>
<text text-anchor="start" x="486.2356" y="-983.9" font-family="Arial" font-size="14.00" fill="#666666">[int(11)]</text>
<polygon fill="none" stroke="#000000" points="438,-942.5 438,-972.5 691,-972.5 691,-942.5 438,-942.5"/>
<text text-anchor="start" x="445" y="-953.9" font-family="Arial" font-size="14.00" fill="#000000">last_active </text>
<text text-anchor="start" x="515.0154" y="-953.9" font-family="Arial" font-size="14.00" fill="#666666">[datetime]</text>
<polygon fill="none" stroke="#000000" points="438,-912.5 438,-942.5 691,-942.5 691,-912.5 438,-912.5"/>
<text text-anchor="start" x="445" y="-923.9" font-family="Arial" font-size="14.00" fill="#000000">internal </text>
<text text-anchor="start" x="494.7854" y="-923.9" font-family="Arial" font-size="14.00" fill="#666666">[longtext]</text>
<polygon fill="none" stroke="#000000" points="438,-882.5 438,-912.5 691,-912.5 691,-882.5 438,-882.5"/>
<text text-anchor="start" x="445" y="-893.9" font-family="Arial" font-size="14.00" fill="#000000">social_cache </text>
<text text-anchor="start" x="529.7994" y="-893.9" font-family="Arial" font-size="14.00" fill="#666666">[longtext]</text>
<polygon fill="none" stroke="#000000" points="438,-852.5 438,-882.5 691,-882.5 691,-852.5 438,-852.5"/>
<text text-anchor="start" x="445" y="-863.9" font-family="Arial" font-size="14.00" fill="#000000">date_identified </text>
<text text-anchor="start" x="539.9256" y="-863.9" font-family="Arial" font-size="14.00" fill="#666666">[datetime]</text>
<polygon fill="none" stroke="#000000" points="438,-822.5 438,-852.5 691,-852.5 691,-822.5 438,-822.5"/>
<text text-anchor="start" x="444.7062" y="-833.9" font-family="Arial" font-size="14.00" fill="#000000">preferred_profile_image </text>
<text text-anchor="start" x="597.1746" y="-833.9" font-family="Arial" font-size="14.00" fill="#666666">[varchar(191)]</text>
<polygon fill="none" stroke="#000000" points="438,-792.5 438,-822.5 691,-822.5 691,-792.5 438,-792.5"/>
<text text-anchor="start" x="445" y="-803.9" font-family="Arial" font-size="14.00" fill="#000000">title </text>
<text text-anchor="start" x="470.6676" y="-803.9" font-family="Arial" font-size="14.00" fill="#666666">[varchar(191)]</text>
<polygon fill="none" stroke="#000000" points="438,-762.5 438,-792.5 691,-792.5 691,-762.5 438,-762.5"/>
<text text-anchor="start" x="445" y="-773.9" font-family="Arial" font-size="14.00" fill="#000000">firstname </text>
<text text-anchor="start" x="506.4474" y="-773.9" font-family="Arial" font-size="14.00" fill="#666666">[varchar(191)]</text>
<polygon fill="none" stroke="#000000" points="438,-732.5 438,-762.5 691,-762.5 691,-732.5 438,-732.5"/>
<text text-anchor="start" x="445" y="-743.9" font-family="Arial" font-size="14.00" fill="#000000">lastname </text>
<text text-anchor="start" x="505.6788" y="-743.9" font-family="Arial" font-size="14.00" fill="#666666">[varchar(191)]</text>
<polygon fill="none" stroke="#000000" points="438,-702.5 438,-732.5 691,-732.5 691,-702.5 438,-702.5"/>
<text text-anchor="start" x="445" y="-713.9" font-family="Arial" font-size="14.00" fill="#000000">company </text>
<text text-anchor="start" x="505.6816" y="-713.9" font-family="Arial" font-size="14.00" fill="#666666">[varchar(191)]</text>
<polygon fill="none" stroke="#000000" points="438,-672.5 438,-702.5 691,-702.5 691,-672.5 438,-672.5"/>
<text text-anchor="start" x="445" y="-683.9" font-family="Arial" font-size="14.00" fill="#000000">position </text>
<text text-anchor="start" x="497.1248" y="-683.9" font-family="Arial" font-size="14.00" fill="#666666">[varchar(191)]</text>
<polygon fill="none" stroke="#000000" points="438,-642.5 438,-672.5 691,-672.5 691,-642.5 438,-642.5"/>
<text text-anchor="start" x="445" y="-653.9" font-family="Arial" font-size="14.00" fill="#000000">email </text>
<text text-anchor="start" x="482.3296" y="-653.9" font-family="Arial" font-size="14.00" fill="#666666">[varchar(191)]</text>
<polygon fill="none" stroke="#000000" points="438,-612.5 438,-642.5 691,-642.5 691,-612.5 438,-612.5"/>
<text text-anchor="start" x="445" y="-623.9" font-family="Arial" font-size="14.00" fill="#000000">phone </text>
<text text-anchor="start" x="487.8036" y="-623.9" font-family="Arial" font-size="14.00" fill="#666666">[varchar(191)]</text>
<polygon fill="none" stroke="#000000" points="438,-582.5 438,-612.5 691,-612.5 691,-582.5 438,-582.5"/>
<text text-anchor="start" x="445" y="-593.9" font-family="Arial" font-size="14.00" fill="#000000">mobile </text>
<text text-anchor="start" x="490.1122" y="-593.9" font-family="Arial" font-size="14.00" fill="#666666">[varchar(191)]</text>
<polygon fill="none" stroke="#000000" points="438,-552.5 438,-582.5 691,-582.5 691,-552.5 438,-552.5"/>
<text text-anchor="start" x="445" y="-563.9" font-family="Arial" font-size="14.00" fill="#000000">address1 </text>
<text text-anchor="start" x="506.4642" y="-563.9" font-family="Arial" font-size="14.00" fill="#666666">[varchar(191)]</text>
<polygon fill="none" stroke="#000000" points="438,-522.5 438,-552.5 691,-552.5 691,-522.5 438,-522.5"/>
<text text-anchor="start" x="445" y="-533.9" font-family="Arial" font-size="14.00" fill="#000000">address2 </text>
<text text-anchor="start" x="506.4642" y="-533.9" font-family="Arial" font-size="14.00" fill="#666666">[varchar(191)]</text>
<polygon fill="none" stroke="#000000" points="438,-492.5 438,-522.5 691,-522.5 691,-492.5 438,-492.5"/>
<text text-anchor="start" x="445" y="-503.9" font-family="Arial" font-size="14.00" fill="#000000">city </text>
<text text-anchor="start" x="469.8878" y="-503.9" font-family="Arial" font-size="14.00" fill="#666666">[varchar(191)]</text>
<polygon fill="none" stroke="#000000" points="438,-462.5 438,-492.5 691,-492.5 691,-462.5 438,-462.5"/>
<text text-anchor="start" x="445" y="-473.9" font-family="Arial" font-size="14.00" fill="#000000">state </text>
<text text-anchor="start" x="479.237" y="-473.9" font-family="Arial" font-size="14.00" fill="#666666">[varchar(191)]</text>
<polygon fill="none" stroke="#000000" points="438,-432.5 438,-462.5 691,-462.5 691,-432.5 438,-432.5"/>
<text text-anchor="start" x="445" y="-443.9" font-family="Arial" font-size="14.00" fill="#000000">zipcode </text>
<text text-anchor="start" x="497.1276" y="-443.9" font-family="Arial" font-size="14.00" fill="#666666">[varchar(191)]</text>
<polygon fill="none" stroke="#000000" points="438,-402.5 438,-432.5 691,-432.5 691,-402.5 438,-402.5"/>
<text text-anchor="start" x="445" y="-413.9" font-family="Arial" font-size="14.00" fill="#000000">timezone </text>
<text text-anchor="start" x="505.6788" y="-413.9" font-family="Arial" font-size="14.00" fill="#666666">[varchar(191)]</text>
<polygon fill="none" stroke="#000000" points="438,-372.5 438,-402.5 691,-402.5 691,-372.5 438,-372.5"/>
<text text-anchor="start" x="445" y="-383.9" font-family="Arial" font-size="14.00" fill="#000000">country </text>
<text text-anchor="start" x="494.7896" y="-383.9" font-family="Arial" font-size="14.00" fill="#666666">[varchar(191)]</text>
<polygon fill="none" stroke="#000000" points="438,-342.5 438,-372.5 691,-372.5 691,-342.5 438,-342.5"/>
<text text-anchor="start" x="445" y="-353.9" font-family="Arial" font-size="14.00" fill="#000000">fax </text>
<text text-anchor="start" x="467.5638" y="-353.9" font-family="Arial" font-size="14.00" fill="#666666">[varchar(255)]</text>
<polygon fill="none" stroke="#000000" points="438,-312.5 438,-342.5 691,-342.5 691,-312.5 438,-312.5"/>
<text text-anchor="start" x="445" y="-323.9" font-family="Arial" font-size="14.00" fill="#000000">preferred_locale </text>
<text text-anchor="start" x="550.0196" y="-323.9" font-family="Arial" font-size="14.00" fill="#666666">[varchar(255)]</text>
<polygon fill="none" stroke="#000000" points="438,-282.5 438,-312.5 691,-312.5 691,-282.5 438,-282.5"/>
<text text-anchor="start" x="445" y="-293.9" font-family="Arial" font-size="14.00" fill="#000000">attribution_date </text>
<text text-anchor="start" x="545.3702" y="-293.9" font-family="Arial" font-size="14.00" fill="#666666">[datetime]</text>
<polygon fill="none" stroke="#000000" points="438,-252.5 438,-282.5 691,-282.5 691,-252.5 438,-252.5"/>
<text text-anchor="start" x="445" y="-263.9" font-family="Arial" font-size="14.00" fill="#000000">attribution </text>
<text text-anchor="start" x="510.3492" y="-263.9" font-family="Arial" font-size="14.00" fill="#666666">[double]</text>
<polygon fill="none" stroke="#000000" points="438,-222.5 438,-252.5 691,-252.5 691,-222.5 438,-222.5"/>
<text text-anchor="start" x="445" y="-233.9" font-family="Arial" font-size="14.00" fill="#000000">website </text>
<text text-anchor="start" x="496.3422" y="-233.9" font-family="Arial" font-size="14.00" fill="#666666">[longtext]</text>
<polygon fill="none" stroke="#000000" points="438,-192.5 438,-222.5 691,-222.5 691,-192.5 438,-192.5"/>
<text text-anchor="start" x="445" y="-203.9" font-family="Arial" font-size="14.00" fill="#000000">facebook </text>
<text text-anchor="start" x="505.6942" y="-203.9" font-family="Arial" font-size="14.00" fill="#666666">[varchar(255)]</text>
<polygon fill="none" stroke="#000000" points="438,-162.5 438,-192.5 691,-192.5 691,-162.5 438,-162.5"/>
<text text-anchor="start" x="445" y="-173.9" font-family="Arial" font-size="14.00" fill="#000000">foursquare </text>
<text text-anchor="start" x="515.798" y="-173.9" font-family="Arial" font-size="14.00" fill="#666666">[varchar(255)]</text>
<polygon fill="none" stroke="#000000" points="438,-132.5 438,-162.5 691,-162.5 691,-132.5 438,-132.5"/>
<text text-anchor="start" x="445" y="-143.9" font-family="Arial" font-size="14.00" fill="#000000">instagram </text>
<text text-anchor="start" x="510.3394" y="-143.9" font-family="Arial" font-size="14.00" fill="#666666">[varchar(255)]</text>
<polygon fill="none" stroke="#000000" points="438,-102.5 438,-132.5 691,-132.5 691,-102.5 438,-102.5"/>
<text text-anchor="start" x="445" y="-113.9" font-family="Arial" font-size="14.00" fill="#000000">linkedin </text>
<text text-anchor="start" x="496.3408" y="-113.9" font-family="Arial" font-size="14.00" fill="#666666">[varchar(255)]</text>
<polygon fill="none" stroke="#000000" points="438,-72.5 438,-102.5 691,-102.5 691,-72.5 438,-72.5"/>
<text text-anchor="start" x="445" y="-83.9" font-family="Arial" font-size="14.00" fill="#000000">skype </text>
<text text-anchor="start" x="485.4558" y="-83.9" font-family="Arial" font-size="14.00" fill="#666666">[varchar(255)]</text>
<polygon fill="none" stroke="#000000" points="438,-42.5 438,-72.5 691,-72.5 691,-42.5 438,-42.5"/>
<text text-anchor="start" x="445" y="-53.9" font-family="Arial" font-size="14.00" fill="#000000">twitter </text>
<text text-anchor="start" x="486.2188" y="-53.9" font-family="Arial" font-size="14.00" fill="#666666">[varchar(255)]</text>
</g>
<!-- lead_lists_leads&#45;&gt;leads -->
<g id="edge2" class="edge">
<title>lead_lists_leads:lead_id&#45;&gt;leads:id</title>
<path fill="none" stroke="#000000" d="M518.102,-1656.6832C571.3754,-1647.3927 540.9363,-1560.9754 508,-1507 489.777,-1477.1366 456.223,-1500.8634 438,-1471 416.3541,-1435.5272 396.4444,-1377.5 438,-1377.5"/>
<polygon fill="#000000" stroke="#000000" points="517.9675,-1656.694 507.6373,-1653.0146 512.9837,-1657.097 508,-1657.5 508,-1657.5 508,-1657.5 512.9837,-1657.097 508.3627,-1661.9854 517.9675,-1656.694 517.9675,-1656.694"/>
<text text-anchor="start" x="515.496" y="-1667.5" font-family="Arial" font-size="10.00" fill="#000000">FOREIGN KEY (lead_id) REFERENCES leads (id)</text>
</g>
</g>
</svg>
