<?xml version="1.0" encoding="UTF-8" standalone="no"?>
<!DOCTYPE svg PUBLIC "-//W3C//DTD SVG 1.1//EN"
 "http://www.w3.org/Graphics/SVG/1.1/DTD/svg11.dtd">
<!-- Generated by graphviz version 2.40.1 (20161225.0304)
 -->
<!-- Title: lead_donotcontact Pages: 1 -->
<svg width="551pt" height="1852pt"
 viewBox="0.00 0.00 551.00 1852.00" xmlns="http://www.w3.org/2000/svg" xmlns:xlink="http://www.w3.org/1999/xlink">
<g id="graph0" class="graph" transform="scale(1 1) rotate(0) translate(4 1848)">
<title>lead_donotcontact</title>
<polygon fill="#ffffff" stroke="transparent" points="-4,4 -4,-1848 547,-1848 547,4 -4,4"/>
<!-- lead_donotcontact -->
<g id="node1" class="node">
<title>lead_donotcontact</title>
<polygon fill="#efefef" stroke="transparent" points="239,-1762.5 239,-1797.5 497,-1797.5 497,-1762.5 239,-1762.5"/>
<polygon fill="none" stroke="#000000" points="239,-1762.5 239,-1797.5 497,-1797.5 497,-1762.5 239,-1762.5"/>
<text text-anchor="start" x="245.8386" y="-1775.3" font-family="Arial Bold" font-size="18.00" fill="#000000">lead_donotcontact</text>
<text text-anchor="start" x="392.9076" y="-1775.3" font-family="Arial" font-size="14.00" fill="#000000"> </text>
<text text-anchor="start" x="396.7982" y="-1775.3" font-family="Arial" font-size="14.00" fill="#666666">[BASE TABLE]</text>
<polygon fill="none" stroke="#000000" points="239,-1732.5 239,-1762.5 497,-1762.5 497,-1732.5 239,-1732.5"/>
<text text-anchor="start" x="246" y="-1743.9" font-family="Arial" font-size="14.00" fill="#000000">id </text>
<text text-anchor="start" x="260.7798" y="-1743.9" font-family="Arial" font-size="14.00" fill="#666666">[int(10) unsigned]</text>
<polygon fill="none" stroke="#000000" points="239,-1702.5 239,-1732.5 497,-1732.5 497,-1702.5 239,-1702.5"/>
<text text-anchor="start" x="246" y="-1713.9" font-family="Arial" font-size="14.00" fill="#000000">lead_id </text>
<text text-anchor="start" x="295.0168" y="-1713.9" font-family="Arial" font-size="14.00" fill="#666666">[bigint(20) unsigned]</text>
<polygon fill="none" stroke="#000000" points="239,-1672.5 239,-1702.5 497,-1702.5 497,-1672.5 239,-1672.5"/>
<text text-anchor="start" x="246" y="-1683.9" font-family="Arial" font-size="14.00" fill="#000000">date_added </text>
<text text-anchor="start" x="323.8246" y="-1683.9" font-family="Arial" font-size="14.00" fill="#666666">[datetime]</text>
<polygon fill="none" stroke="#000000" points="239,-1642.5 239,-1672.5 497,-1672.5 497,-1642.5 239,-1642.5"/>
<text text-anchor="start" x="246" y="-1653.9" font-family="Arial" font-size="14.00" fill="#000000">reason </text>
<text text-anchor="start" x="292.6816" y="-1653.9" font-family="Arial" font-size="14.00" fill="#666666">[smallint(6)]</text>
<polygon fill="none" stroke="#000000" points="239,-1612.5 239,-1642.5 497,-1642.5 497,-1612.5 239,-1612.5"/>
<text text-anchor="start" x="246" y="-1623.9" font-family="Arial" font-size="14.00" fill="#000000">channel </text>
<text text-anchor="start" x="298.9102" y="-1623.9" font-family="Arial" font-size="14.00" fill="#666666">[varchar(191)]</text>
<polygon fill="none" stroke="#000000" points="239,-1582.5 239,-1612.5 497,-1612.5 497,-1582.5 239,-1582.5"/>
<text text-anchor="start" x="246" y="-1593.9" font-family="Arial" font-size="14.00" fill="#000000">channel_id </text>
<text text-anchor="start" x="317.582" y="-1593.9" font-family="Arial" font-size="14.00" fill="#666666">[int(11)]</text>
<polygon fill="none" stroke="#000000" points="239,-1552.5 239,-1582.5 497,-1582.5 497,-1552.5 239,-1552.5"/>
<text text-anchor="start" x="246" y="-1563.9" font-family="Arial" font-size="14.00" fill="#000000">comments </text>
<text text-anchor="start" x="314.4502" y="-1563.9" font-family="Arial" font-size="14.00" fill="#666666">[longtext]</text>
<polygon fill="none" stroke="#000000" stroke-width="3" points="237.5,-1551.5 237.5,-1799.5 498.5,-1799.5 498.5,-1551.5 237.5,-1551.5"/>
</g>
<!-- leads -->
<g id="node2" class="node">
<title>leads</title>
<polygon fill="#efefef" stroke="transparent" points="241,-1392.5 241,-1427.5 494,-1427.5 494,-1392.5 241,-1392.5"/>
<polygon fill="none" stroke="#000000" points="241,-1392.5 241,-1427.5 494,-1427.5 494,-1392.5 241,-1392.5"/>
<text text-anchor="start" x="297.3667" y="-1405.3" font-family="Arial Bold" font-size="18.00" fill="#000000">leads</text>
<text text-anchor="start" x="340.3795" y="-1405.3" font-family="Arial" font-size="14.00" fill="#000000"> </text>
<text text-anchor="start" x="344.2701" y="-1405.3" font-family="Arial" font-size="14.00" fill="#666666">[BASE TABLE]</text>
<polygon fill="none" stroke="#000000" points="241,-1362.5 241,-1392.5 494,-1392.5 494,-1362.5 241,-1362.5"/>
<text text-anchor="start" x="248" y="-1373.9" font-family="Arial" font-size="14.00" fill="#000000">id </text>
<text text-anchor="start" x="262.7798" y="-1373.9" font-family="Arial" font-size="14.00" fill="#666666">[bigint(20) unsigned]</text>
<polygon fill="none" stroke="#000000" points="241,-1332.5 241,-1362.5 494,-1362.5 494,-1332.5 241,-1332.5"/>
<text text-anchor="start" x="248" y="-1343.9" font-family="Arial" font-size="14.00" fill="#000000">owner_id </text>
<text text-anchor="start" x="308.6774" y="-1343.9" font-family="Arial" font-size="14.00" fill="#666666">[int(10) unsigned]</text>
<polygon fill="none" stroke="#000000" points="241,-1302.5 241,-1332.5 494,-1332.5 494,-1302.5 241,-1302.5"/>
<text text-anchor="start" x="248" y="-1313.9" font-family="Arial" font-size="14.00" fill="#000000">stage_id </text>
<text text-anchor="start" x="304.8008" y="-1313.9" font-family="Arial" font-size="14.00" fill="#666666">[int(10) unsigned]</text>
<polygon fill="none" stroke="#000000" points="241,-1272.5 241,-1302.5 494,-1302.5 494,-1272.5 241,-1272.5"/>
<text text-anchor="start" x="248" y="-1283.9" font-family="Arial" font-size="14.00" fill="#000000">is_published </text>
<text text-anchor="start" x="329.6886" y="-1283.9" font-family="Arial" font-size="14.00" fill="#666666">[tinyint(1)]</text>
<polygon fill="none" stroke="#000000" points="241,-1242.5 241,-1272.5 494,-1272.5 494,-1242.5 241,-1242.5"/>
<text text-anchor="start" x="248" y="-1253.9" font-family="Arial" font-size="14.00" fill="#000000">date_added </text>
<text text-anchor="start" x="325.8246" y="-1253.9" font-family="Arial" font-size="14.00" fill="#666666">[datetime]</text>
<polygon fill="none" stroke="#000000" points="241,-1212.5 241,-1242.5 494,-1242.5 494,-1212.5 241,-1212.5"/>
<text text-anchor="start" x="248" y="-1223.9" font-family="Arial" font-size="14.00" fill="#000000">created_by </text>
<text text-anchor="start" x="321.1374" y="-1223.9" font-family="Arial" font-size="14.00" fill="#666666">[int(11)]</text>
<polygon fill="none" stroke="#000000" points="241,-1182.5 241,-1212.5 494,-1212.5 494,-1182.5 241,-1182.5"/>
<text text-anchor="start" x="248" y="-1193.9" font-family="Arial" font-size="14.00" fill="#000000">created_by_user </text>
<text text-anchor="start" x="356.1458" y="-1193.9" font-family="Arial" font-size="14.00" fill="#666666">[varchar(191)]</text>
<polygon fill="none" stroke="#000000" points="241,-1152.5 241,-1182.5 494,-1182.5 494,-1152.5 241,-1152.5"/>
<text text-anchor="start" x="248" y="-1163.9" font-family="Arial" font-size="14.00" fill="#000000">date_modified </text>
<text text-anchor="start" x="339.8064" y="-1163.9" font-family="Arial" font-size="14.00" fill="#666666">[datetime]</text>
<polygon fill="none" stroke="#000000" points="241,-1122.5 241,-1152.5 494,-1152.5 494,-1122.5 241,-1122.5"/>
<text text-anchor="start" x="248" y="-1133.9" font-family="Arial" font-size="14.00" fill="#000000">modified_by </text>
<text text-anchor="start" x="327.3506" y="-1133.9" font-family="Arial" font-size="14.00" fill="#666666">[int(11)]</text>
<polygon fill="none" stroke="#000000" points="241,-1092.5 241,-1122.5 494,-1122.5 494,-1092.5 241,-1092.5"/>
<text text-anchor="start" x="248" y="-1103.9" font-family="Arial" font-size="14.00" fill="#000000">modified_by_user </text>
<text text-anchor="start" x="362.359" y="-1103.9" font-family="Arial" font-size="14.00" fill="#666666">[varchar(191)]</text>
<polygon fill="none" stroke="#000000" points="241,-1062.5 241,-1092.5 494,-1092.5 494,-1062.5 241,-1062.5"/>
<text text-anchor="start" x="248" y="-1073.9" font-family="Arial" font-size="14.00" fill="#000000">checked_out </text>
<text text-anchor="start" x="331.2594" y="-1073.9" font-family="Arial" font-size="14.00" fill="#666666">[datetime]</text>
<polygon fill="none" stroke="#000000" points="241,-1032.5 241,-1062.5 494,-1062.5 494,-1032.5 241,-1032.5"/>
<text text-anchor="start" x="248" y="-1043.9" font-family="Arial" font-size="14.00" fill="#000000">checked_out_by </text>
<text text-anchor="start" x="353.8246" y="-1043.9" font-family="Arial" font-size="14.00" fill="#666666">[int(11)]</text>
<polygon fill="none" stroke="#000000" points="241,-1002.5 241,-1032.5 494,-1032.5 494,-1002.5 241,-1002.5"/>
<text text-anchor="start" x="248" y="-1013.9" font-family="Arial" font-size="14.00" fill="#000000">checked_out_by_user </text>
<text text-anchor="start" x="388.833" y="-1013.9" font-family="Arial" font-size="14.00" fill="#666666">[varchar(191)]</text>
<polygon fill="none" stroke="#000000" points="241,-972.5 241,-1002.5 494,-1002.5 494,-972.5 241,-972.5"/>
<text text-anchor="start" x="248" y="-983.9" font-family="Arial" font-size="14.00" fill="#000000">points </text>
<text text-anchor="start" x="289.2356" y="-983.9" font-family="Arial" font-size="14.00" fill="#666666">[int(11)]</text>
<polygon fill="none" stroke="#000000" points="241,-942.5 241,-972.5 494,-972.5 494,-942.5 241,-942.5"/>
<text text-anchor="start" x="248" y="-953.9" font-family="Arial" font-size="14.00" fill="#000000">last_active </text>
<text text-anchor="start" x="318.0154" y="-953.9" font-family="Arial" font-size="14.00" fill="#666666">[datetime]</text>
<polygon fill="none" stroke="#000000" points="241,-912.5 241,-942.5 494,-942.5 494,-912.5 241,-912.5"/>
<text text-anchor="start" x="248" y="-923.9" font-family="Arial" font-size="14.00" fill="#000000">internal </text>
<text text-anchor="start" x="297.7854" y="-923.9" font-family="Arial" font-size="14.00" fill="#666666">[longtext]</text>
<polygon fill="none" stroke="#000000" points="241,-882.5 241,-912.5 494,-912.5 494,-882.5 241,-882.5"/>
<text text-anchor="start" x="248" y="-893.9" font-family="Arial" font-size="14.00" fill="#000000">social_cache </text>
<text text-anchor="start" x="332.7994" y="-893.9" font-family="Arial" font-size="14.00" fill="#666666">[longtext]</text>
<polygon fill="none" stroke="#000000" points="241,-852.5 241,-882.5 494,-882.5 494,-852.5 241,-852.5"/>
<text text-anchor="start" x="248" y="-863.9" font-family="Arial" font-size="14.00" fill="#000000">date_identified </text>
<text text-anchor="start" x="342.9256" y="-863.9" font-family="Arial" font-size="14.00" fill="#666666">[datetime]</text>
<polygon fill="none" stroke="#000000" points="241,-822.5 241,-852.5 494,-852.5 494,-822.5 241,-822.5"/>
<text text-anchor="start" x="247.7062" y="-833.9" font-family="Arial" font-size="14.00" fill="#000000">preferred_profile_image </text>
<text text-anchor="start" x="400.1746" y="-833.9" font-family="Arial" font-size="14.00" fill="#666666">[varchar(191)]</text>
<polygon fill="none" stroke="#000000" points="241,-792.5 241,-822.5 494,-822.5 494,-792.5 241,-792.5"/>
<text text-anchor="start" x="248" y="-803.9" font-family="Arial" font-size="14.00" fill="#000000">title </text>
<text text-anchor="start" x="273.6676" y="-803.9" font-family="Arial" font-size="14.00" fill="#666666">[varchar(191)]</text>
<polygon fill="none" stroke="#000000" points="241,-762.5 241,-792.5 494,-792.5 494,-762.5 241,-762.5"/>
<text text-anchor="start" x="248" y="-773.9" font-family="Arial" font-size="14.00" fill="#000000">firstname </text>
<text text-anchor="start" x="309.4474" y="-773.9" font-family="Arial" font-size="14.00" fill="#666666">[varchar(191)]</text>
<polygon fill="none" stroke="#000000" points="241,-732.5 241,-762.5 494,-762.5 494,-732.5 241,-732.5"/>
<text text-anchor="start" x="248" y="-743.9" font-family="Arial" font-size="14.00" fill="#000000">lastname </text>
<text text-anchor="start" x="308.6788" y="-743.9" font-family="Arial" font-size="14.00" fill="#666666">[varchar(191)]</text>
<polygon fill="none" stroke="#000000" points="241,-702.5 241,-732.5 494,-732.5 494,-702.5 241,-702.5"/>
<text text-anchor="start" x="248" y="-713.9" font-family="Arial" font-size="14.00" fill="#000000">company </text>
<text text-anchor="start" x="308.6816" y="-713.9" font-family="Arial" font-size="14.00" fill="#666666">[varchar(191)]</text>
<polygon fill="none" stroke="#000000" points="241,-672.5 241,-702.5 494,-702.5 494,-672.5 241,-672.5"/>
<text text-anchor="start" x="248" y="-683.9" font-family="Arial" font-size="14.00" fill="#000000">position </text>
<text text-anchor="start" x="300.1248" y="-683.9" font-family="Arial" font-size="14.00" fill="#666666">[varchar(191)]</text>
<polygon fill="none" stroke="#000000" points="241,-642.5 241,-672.5 494,-672.5 494,-642.5 241,-642.5"/>
<text text-anchor="start" x="248" y="-653.9" font-family="Arial" font-size="14.00" fill="#000000">email </text>
<text text-anchor="start" x="285.3296" y="-653.9" font-family="Arial" font-size="14.00" fill="#666666">[varchar(191)]</text>
<polygon fill="none" stroke="#000000" points="241,-612.5 241,-642.5 494,-642.5 494,-612.5 241,-612.5"/>
<text text-anchor="start" x="248" y="-623.9" font-family="Arial" font-size="14.00" fill="#000000">phone </text>
<text text-anchor="start" x="290.8036" y="-623.9" font-family="Arial" font-size="14.00" fill="#666666">[varchar(191)]</text>
<polygon fill="none" stroke="#000000" points="241,-582.5 241,-612.5 494,-612.5 494,-582.5 241,-582.5"/>
<text text-anchor="start" x="248" y="-593.9" font-family="Arial" font-size="14.00" fill="#000000">mobile </text>
<text text-anchor="start" x="293.1122" y="-593.9" font-family="Arial" font-size="14.00" fill="#666666">[varchar(191)]</text>
<polygon fill="none" stroke="#000000" points="241,-552.5 241,-582.5 494,-582.5 494,-552.5 241,-552.5"/>
<text text-anchor="start" x="248" y="-563.9" font-family="Arial" font-size="14.00" fill="#000000">address1 </text>
<text text-anchor="start" x="309.4642" y="-563.9" font-family="Arial" font-size="14.00" fill="#666666">[varchar(191)]</text>
<polygon fill="none" stroke="#000000" points="241,-522.5 241,-552.5 494,-552.5 494,-522.5 241,-522.5"/>
<text text-anchor="start" x="248" y="-533.9" font-family="Arial" font-size="14.00" fill="#000000">address2 </text>
<text text-anchor="start" x="309.4642" y="-533.9" font-family="Arial" font-size="14.00" fill="#666666">[varchar(191)]</text>
<polygon fill="none" stroke="#000000" points="241,-492.5 241,-522.5 494,-522.5 494,-492.5 241,-492.5"/>
<text text-anchor="start" x="248" y="-503.9" font-family="Arial" font-size="14.00" fill="#000000">city </text>
<text text-anchor="start" x="272.8878" y="-503.9" font-family="Arial" font-size="14.00" fill="#666666">[varchar(191)]</text>
<polygon fill="none" stroke="#000000" points="241,-462.5 241,-492.5 494,-492.5 494,-462.5 241,-462.5"/>
<text text-anchor="start" x="248" y="-473.9" font-family="Arial" font-size="14.00" fill="#000000">state </text>
<text text-anchor="start" x="282.237" y="-473.9" font-family="Arial" font-size="14.00" fill="#666666">[varchar(191)]</text>
<polygon fill="none" stroke="#000000" points="241,-432.5 241,-462.5 494,-462.5 494,-432.5 241,-432.5"/>
<text text-anchor="start" x="248" y="-443.9" font-family="Arial" font-size="14.00" fill="#000000">zipcode </text>
<text text-anchor="start" x="300.1276" y="-443.9" font-family="Arial" font-size="14.00" fill="#666666">[varchar(191)]</text>
<polygon fill="none" stroke="#000000" points="241,-402.5 241,-432.5 494,-432.5 494,-402.5 241,-402.5"/>
<text text-anchor="start" x="248" y="-413.9" font-family="Arial" font-size="14.00" fill="#000000">timezone </text>
<text text-anchor="start" x="308.6788" y="-413.9" font-family="Arial" font-size="14.00" fill="#666666">[varchar(191)]</text>
<polygon fill="none" stroke="#000000" points="241,-372.5 241,-402.5 494,-402.5 494,-372.5 241,-372.5"/>
<text text-anchor="start" x="248" y="-383.9" font-family="Arial" font-size="14.00" fill="#000000">country </text>
<text text-anchor="start" x="297.7896" y="-383.9" font-family="Arial" font-size="14.00" fill="#666666">[varchar(191)]</text>
<polygon fill="none" stroke="#000000" points="241,-342.5 241,-372.5 494,-372.5 494,-342.5 241,-342.5"/>
<text text-anchor="start" x="248" y="-353.9" font-family="Arial" font-size="14.00" fill="#000000">fax </text>
<text text-anchor="start" x="270.5638" y="-353.9" font-family="Arial" font-size="14.00" fill="#666666">[varchar(255)]</text>
<polygon fill="none" stroke="#000000" points="241,-312.5 241,-342.5 494,-342.5 494,-312.5 241,-312.5"/>
<text text-anchor="start" x="248" y="-323.9" font-family="Arial" font-size="14.00" fill="#000000">preferred_locale </text>
<text text-anchor="start" x="353.0196" y="-323.9" font-family="Arial" font-size="14.00" fill="#666666">[varchar(255)]</text>
<polygon fill="none" stroke="#000000" points="241,-282.5 241,-312.5 494,-312.5 494,-282.5 241,-282.5"/>
<text text-anchor="start" x="248" y="-293.9" font-family="Arial" font-size="14.00" fill="#000000">attribution_date </text>
<text text-anchor="start" x="348.3702" y="-293.9" font-family="Arial" font-size="14.00" fill="#666666">[datetime]</text>
<polygon fill="none" stroke="#000000" points="241,-252.5 241,-282.5 494,-282.5 494,-252.5 241,-252.5"/>
<text text-anchor="start" x="248" y="-263.9" font-family="Arial" font-size="14.00" fill="#000000">attribution </text>
<text text-anchor="start" x="313.3492" y="-263.9" font-family="Arial" font-size="14.00" fill="#666666">[double]</text>
<polygon fill="none" stroke="#000000" points="241,-222.5 241,-252.5 494,-252.5 494,-222.5 241,-222.5"/>
<text text-anchor="start" x="248" y="-233.9" font-family="Arial" font-size="14.00" fill="#000000">website </text>
<text text-anchor="start" x="299.3422" y="-233.9" font-family="Arial" font-size="14.00" fill="#666666">[longtext]</text>
<polygon fill="none" stroke="#000000" points="241,-192.5 241,-222.5 494,-222.5 494,-192.5 241,-192.5"/>
<text text-anchor="start" x="248" y="-203.9" font-family="Arial" font-size="14.00" fill="#000000">facebook </text>
<text text-anchor="start" x="308.6942" y="-203.9" font-family="Arial" font-size="14.00" fill="#666666">[varchar(255)]</text>
<polygon fill="none" stroke="#000000" points="241,-162.5 241,-192.5 494,-192.5 494,-162.5 241,-162.5"/>
<text text-anchor="start" x="248" y="-173.9" font-family="Arial" font-size="14.00" fill="#000000">foursquare </text>
<text text-anchor="start" x="318.798" y="-173.9" font-family="Arial" font-size="14.00" fill="#666666">[varchar(255)]</text>
<polygon fill="none" stroke="#000000" points="241,-132.5 241,-162.5 494,-162.5 494,-132.5 241,-132.5"/>
<text text-anchor="start" x="248" y="-143.9" font-family="Arial" font-size="14.00" fill="#000000">instagram </text>
<text text-anchor="start" x="313.3394" y="-143.9" font-family="Arial" font-size="14.00" fill="#666666">[varchar(255)]</text>
<polygon fill="none" stroke="#000000" points="241,-102.5 241,-132.5 494,-132.5 494,-102.5 241,-102.5"/>
<text text-anchor="start" x="248" y="-113.9" font-family="Arial" font-size="14.00" fill="#000000">linkedin </text>
<text text-anchor="start" x="299.3408" y="-113.9" font-family="Arial" font-size="14.00" fill="#666666">[varchar(255)]</text>
<polygon fill="none" stroke="#000000" points="241,-72.5 241,-102.5 494,-102.5 494,-72.5 241,-72.5"/>
<text text-anchor="start" x="248" y="-83.9" font-family="Arial" font-size="14.00" fill="#000000">skype </text>
<text text-anchor="start" x="288.4558" y="-83.9" font-family="Arial" font-size="14.00" fill="#666666">[varchar(255)]</text>
<polygon fill="none" stroke="#000000" points="241,-42.5 241,-72.5 494,-72.5 494,-42.5 241,-42.5"/>
<text text-anchor="start" x="248" y="-53.9" font-family="Arial" font-size="14.00" fill="#000000">twitter </text>
<text text-anchor="start" x="289.2188" y="-53.9" font-family="Arial" font-size="14.00" fill="#666666">[varchar(255)]</text>
</g>
<!-- lead_donotcontact&#45;&gt;leads -->
<g id="edge1" class="edge">
<title>lead_donotcontact:lead_id&#45;&gt;leads:id</title>
<path fill="none" stroke="#000000" d="M228.6064,-1716.8722C148.0045,-1706.678 180.0408,-1574.8676 239,-1507 314.0637,-1420.5947 418.9363,-1557.4053 494,-1471 521.2531,-1439.6291 535.5556,-1377.5 494,-1377.5"/>
<polygon fill="#000000" stroke="#000000" points="229.0182,-1716.897 238.7286,-1721.9918 234.0091,-1717.1985 239,-1717.5 239,-1717.5 239,-1717.5 234.0091,-1717.1985 239.2714,-1713.0082 229.0182,-1716.897 229.0182,-1716.897"/>
<text text-anchor="start" x="7.496" y="-1727.5" font-family="Arial" font-size="10.00" fill="#000000">FOREIGN KEY (lead_id) REFERENCES leads (id)</text>
</g>
</g>
</svg>
