<?xml version="1.0" encoding="UTF-8" standalone="no"?>
<!DOCTYPE svg PUBLIC "-//W3C//DTD SVG 1.1//EN"
 "http://www.w3.org/Graphics/SVG/1.1/DTD/svg11.dtd">
<!-- Generated by graphviz version 2.40.1 (20161225.0304)
 -->
<!-- Title: lead_frequencyrules Pages: 1 -->
<svg width="566pt" height="1912pt"
 viewBox="0.00 0.00 565.50 1912.00" xmlns="http://www.w3.org/2000/svg" xmlns:xlink="http://www.w3.org/1999/xlink">
<g id="graph0" class="graph" transform="scale(1 1) rotate(0) translate(4 1908)">
<title>lead_frequencyrules</title>
<polygon fill="#ffffff" stroke="transparent" points="-4,4 -4,-1908 561.5,-1908 561.5,4 -4,4"/>
<!-- lead_frequencyrules -->
<g id="node1" class="node">
<title>lead_frequencyrules</title>
<polygon fill="#efefef" stroke="transparent" points="239,-1822.5 239,-1857.5 512,-1857.5 512,-1822.5 239,-1822.5"/>
<polygon fill="none" stroke="#000000" points="239,-1822.5 239,-1857.5 512,-1857.5 512,-1822.5 239,-1822.5"/>
<text text-anchor="start" x="245.8515" y="-1835.3" font-family="Arial Bold" font-size="18.00" fill="#000000">lead_frequencyrules</text>
<text text-anchor="start" x="407.8947" y="-1835.3" font-family="Arial" font-size="14.00" fill="#000000"> </text>
<text text-anchor="start" x="411.7853" y="-1835.3" font-family="Arial" font-size="14.00" fill="#666666">[BASE TABLE]</text>
<polygon fill="none" stroke="#000000" points="239,-1792.5 239,-1822.5 512,-1822.5 512,-1792.5 239,-1792.5"/>
<text text-anchor="start" x="246" y="-1803.9" font-family="Arial" font-size="14.00" fill="#000000">id </text>
<text text-anchor="start" x="260.7798" y="-1803.9" font-family="Arial" font-size="14.00" fill="#666666">[int(10) unsigned]</text>
<polygon fill="none" stroke="#000000" points="239,-1762.5 239,-1792.5 512,-1792.5 512,-1762.5 239,-1762.5"/>
<text text-anchor="start" x="246" y="-1773.9" font-family="Arial" font-size="14.00" fill="#000000">lead_id </text>
<text text-anchor="start" x="295.0168" y="-1773.9" font-family="Arial" font-size="14.00" fill="#666666">[bigint(20) unsigned]</text>
<polygon fill="none" stroke="#000000" points="239,-1732.5 239,-1762.5 512,-1762.5 512,-1732.5 239,-1732.5"/>
<text text-anchor="start" x="246" y="-1743.9" font-family="Arial" font-size="14.00" fill="#000000">date_added </text>
<text text-anchor="start" x="323.8246" y="-1743.9" font-family="Arial" font-size="14.00" fill="#666666">[datetime]</text>
<polygon fill="none" stroke="#000000" points="239,-1702.5 239,-1732.5 512,-1732.5 512,-1702.5 239,-1702.5"/>
<text text-anchor="start" x="246" y="-1713.9" font-family="Arial" font-size="14.00" fill="#000000">frequency_number </text>
<text text-anchor="start" x="366.589" y="-1713.9" font-family="Arial" font-size="14.00" fill="#666666">[smallint(6)]</text>
<polygon fill="none" stroke="#000000" points="239,-1672.5 239,-1702.5 512,-1702.5 512,-1672.5 239,-1672.5"/>
<text text-anchor="start" x="246" y="-1683.9" font-family="Arial" font-size="14.00" fill="#000000">frequency_time </text>
<text text-anchor="start" x="345.5778" y="-1683.9" font-family="Arial" font-size="14.00" fill="#666666">[varchar(25)]</text>
<polygon fill="none" stroke="#000000" points="239,-1642.5 239,-1672.5 512,-1672.5 512,-1642.5 239,-1642.5"/>
<text text-anchor="start" x="246" y="-1653.9" font-family="Arial" font-size="14.00" fill="#000000">channel </text>
<text text-anchor="start" x="298.9102" y="-1653.9" font-family="Arial" font-size="14.00" fill="#666666">[varchar(191)]</text>
<polygon fill="none" stroke="#000000" points="239,-1612.5 239,-1642.5 512,-1642.5 512,-1612.5 239,-1612.5"/>
<text text-anchor="start" x="246" y="-1623.9" font-family="Arial" font-size="14.00" fill="#000000">preferred_channel </text>
<text text-anchor="start" x="363.4782" y="-1623.9" font-family="Arial" font-size="14.00" fill="#666666">[tinyint(1)]</text>
<polygon fill="none" stroke="#000000" points="239,-1582.5 239,-1612.5 512,-1612.5 512,-1582.5 239,-1582.5"/>
<text text-anchor="start" x="246" y="-1593.9" font-family="Arial" font-size="14.00" fill="#000000">pause_from_date </text>
<text text-anchor="start" x="358.819" y="-1593.9" font-family="Arial" font-size="14.00" fill="#666666">[datetime]</text>
<polygon fill="none" stroke="#000000" points="239,-1552.5 239,-1582.5 512,-1582.5 512,-1552.5 239,-1552.5"/>
<text text-anchor="start" x="246" y="-1563.9" font-family="Arial" font-size="14.00" fill="#000000">pause_to_date </text>
<text text-anchor="start" x="342.4978" y="-1563.9" font-family="Arial" font-size="14.00" fill="#666666">[datetime]</text>
<polygon fill="none" stroke="#000000" stroke-width="3" points="237,-1551.5 237,-1859.5 513,-1859.5 513,-1551.5 237,-1551.5"/>
</g>
<!-- leads -->
<g id="node2" class="node">
<title>leads</title>
<polygon fill="#efefef" stroke="transparent" points="249,-1392.5 249,-1427.5 502,-1427.5 502,-1392.5 249,-1392.5"/>
<polygon fill="none" stroke="#000000" points="249,-1392.5 249,-1427.5 502,-1427.5 502,-1392.5 249,-1392.5"/>
<text text-anchor="start" x="305.3667" y="-1405.3" font-family="Arial Bold" font-size="18.00" fill="#000000">leads</text>
<text text-anchor="start" x="348.3795" y="-1405.3" font-family="Arial" font-size="14.00" fill="#000000"> </text>
<text text-anchor="start" x="352.2701" y="-1405.3" font-family="Arial" font-size="14.00" fill="#666666">[BASE TABLE]</text>
<polygon fill="none" stroke="#000000" points="249,-1362.5 249,-1392.5 502,-1392.5 502,-1362.5 249,-1362.5"/>
<text text-anchor="start" x="256" y="-1373.9" font-family="Arial" font-size="14.00" fill="#000000">id </text>
<text text-anchor="start" x="270.7798" y="-1373.9" font-family="Arial" font-size="14.00" fill="#666666">[bigint(20) unsigned]</text>
<polygon fill="none" stroke="#000000" points="249,-1332.5 249,-1362.5 502,-1362.5 502,-1332.5 249,-1332.5"/>
<text text-anchor="start" x="256" y="-1343.9" font-family="Arial" font-size="14.00" fill="#000000">owner_id </text>
<text text-anchor="start" x="316.6774" y="-1343.9" font-family="Arial" font-size="14.00" fill="#666666">[int(10) unsigned]</text>
<polygon fill="none" stroke="#000000" points="249,-1302.5 249,-1332.5 502,-1332.5 502,-1302.5 249,-1302.5"/>
<text text-anchor="start" x="256" y="-1313.9" font-family="Arial" font-size="14.00" fill="#000000">stage_id </text>
<text text-anchor="start" x="312.8008" y="-1313.9" font-family="Arial" font-size="14.00" fill="#666666">[int(10) unsigned]</text>
<polygon fill="none" stroke="#000000" points="249,-1272.5 249,-1302.5 502,-1302.5 502,-1272.5 249,-1272.5"/>
<text text-anchor="start" x="256" y="-1283.9" font-family="Arial" font-size="14.00" fill="#000000">is_published </text>
<text text-anchor="start" x="337.6886" y="-1283.9" font-family="Arial" font-size="14.00" fill="#666666">[tinyint(1)]</text>
<polygon fill="none" stroke="#000000" points="249,-1242.5 249,-1272.5 502,-1272.5 502,-1242.5 249,-1242.5"/>
<text text-anchor="start" x="256" y="-1253.9" font-family="Arial" font-size="14.00" fill="#000000">date_added </text>
<text text-anchor="start" x="333.8246" y="-1253.9" font-family="Arial" font-size="14.00" fill="#666666">[datetime]</text>
<polygon fill="none" stroke="#000000" points="249,-1212.5 249,-1242.5 502,-1242.5 502,-1212.5 249,-1212.5"/>
<text text-anchor="start" x="256" y="-1223.9" font-family="Arial" font-size="14.00" fill="#000000">created_by </text>
<text text-anchor="start" x="329.1374" y="-1223.9" font-family="Arial" font-size="14.00" fill="#666666">[int(11)]</text>
<polygon fill="none" stroke="#000000" points="249,-1182.5 249,-1212.5 502,-1212.5 502,-1182.5 249,-1182.5"/>
<text text-anchor="start" x="256" y="-1193.9" font-family="Arial" font-size="14.00" fill="#000000">created_by_user </text>
<text text-anchor="start" x="364.1458" y="-1193.9" font-family="Arial" font-size="14.00" fill="#666666">[varchar(191)]</text>
<polygon fill="none" stroke="#000000" points="249,-1152.5 249,-1182.5 502,-1182.5 502,-1152.5 249,-1152.5"/>
<text text-anchor="start" x="256" y="-1163.9" font-family="Arial" font-size="14.00" fill="#000000">date_modified </text>
<text text-anchor="start" x="347.8064" y="-1163.9" font-family="Arial" font-size="14.00" fill="#666666">[datetime]</text>
<polygon fill="none" stroke="#000000" points="249,-1122.5 249,-1152.5 502,-1152.5 502,-1122.5 249,-1122.5"/>
<text text-anchor="start" x="256" y="-1133.9" font-family="Arial" font-size="14.00" fill="#000000">modified_by </text>
<text text-anchor="start" x="335.3506" y="-1133.9" font-family="Arial" font-size="14.00" fill="#666666">[int(11)]</text>
<polygon fill="none" stroke="#000000" points="249,-1092.5 249,-1122.5 502,-1122.5 502,-1092.5 249,-1092.5"/>
<text text-anchor="start" x="256" y="-1103.9" font-family="Arial" font-size="14.00" fill="#000000">modified_by_user </text>
<text text-anchor="start" x="370.359" y="-1103.9" font-family="Arial" font-size="14.00" fill="#666666">[varchar(191)]</text>
<polygon fill="none" stroke="#000000" points="249,-1062.5 249,-1092.5 502,-1092.5 502,-1062.5 249,-1062.5"/>
<text text-anchor="start" x="256" y="-1073.9" font-family="Arial" font-size="14.00" fill="#000000">checked_out </text>
<text text-anchor="start" x="339.2594" y="-1073.9" font-family="Arial" font-size="14.00" fill="#666666">[datetime]</text>
<polygon fill="none" stroke="#000000" points="249,-1032.5 249,-1062.5 502,-1062.5 502,-1032.5 249,-1032.5"/>
<text text-anchor="start" x="256" y="-1043.9" font-family="Arial" font-size="14.00" fill="#000000">checked_out_by </text>
<text text-anchor="start" x="361.8246" y="-1043.9" font-family="Arial" font-size="14.00" fill="#666666">[int(11)]</text>
<polygon fill="none" stroke="#000000" points="249,-1002.5 249,-1032.5 502,-1032.5 502,-1002.5 249,-1002.5"/>
<text text-anchor="start" x="256" y="-1013.9" font-family="Arial" font-size="14.00" fill="#000000">checked_out_by_user </text>
<text text-anchor="start" x="396.833" y="-1013.9" font-family="Arial" font-size="14.00" fill="#666666">[varchar(191)]</text>
<polygon fill="none" stroke="#000000" points="249,-972.5 249,-1002.5 502,-1002.5 502,-972.5 249,-972.5"/>
<text text-anchor="start" x="256" y="-983.9" font-family="Arial" font-size="14.00" fill="#000000">points </text>
<text text-anchor="start" x="297.2356" y="-983.9" font-family="Arial" font-size="14.00" fill="#666666">[int(11)]</text>
<polygon fill="none" stroke="#000000" points="249,-942.5 249,-972.5 502,-972.5 502,-942.5 249,-942.5"/>
<text text-anchor="start" x="256" y="-953.9" font-family="Arial" font-size="14.00" fill="#000000">last_active </text>
<text text-anchor="start" x="326.0154" y="-953.9" font-family="Arial" font-size="14.00" fill="#666666">[datetime]</text>
<polygon fill="none" stroke="#000000" points="249,-912.5 249,-942.5 502,-942.5 502,-912.5 249,-912.5"/>
<text text-anchor="start" x="256" y="-923.9" font-family="Arial" font-size="14.00" fill="#000000">internal </text>
<text text-anchor="start" x="305.7854" y="-923.9" font-family="Arial" font-size="14.00" fill="#666666">[longtext]</text>
<polygon fill="none" stroke="#000000" points="249,-882.5 249,-912.5 502,-912.5 502,-882.5 249,-882.5"/>
<text text-anchor="start" x="256" y="-893.9" font-family="Arial" font-size="14.00" fill="#000000">social_cache </text>
<text text-anchor="start" x="340.7994" y="-893.9" font-family="Arial" font-size="14.00" fill="#666666">[longtext]</text>
<polygon fill="none" stroke="#000000" points="249,-852.5 249,-882.5 502,-882.5 502,-852.5 249,-852.5"/>
<text text-anchor="start" x="256" y="-863.9" font-family="Arial" font-size="14.00" fill="#000000">date_identified </text>
<text text-anchor="start" x="350.9256" y="-863.9" font-family="Arial" font-size="14.00" fill="#666666">[datetime]</text>
<polygon fill="none" stroke="#000000" points="249,-822.5 249,-852.5 502,-852.5 502,-822.5 249,-822.5"/>
<text text-anchor="start" x="255.7062" y="-833.9" font-family="Arial" font-size="14.00" fill="#000000">preferred_profile_image </text>
<text text-anchor="start" x="408.1746" y="-833.9" font-family="Arial" font-size="14.00" fill="#666666">[varchar(191)]</text>
<polygon fill="none" stroke="#000000" points="249,-792.5 249,-822.5 502,-822.5 502,-792.5 249,-792.5"/>
<text text-anchor="start" x="256" y="-803.9" font-family="Arial" font-size="14.00" fill="#000000">title </text>
<text text-anchor="start" x="281.6676" y="-803.9" font-family="Arial" font-size="14.00" fill="#666666">[varchar(191)]</text>
<polygon fill="none" stroke="#000000" points="249,-762.5 249,-792.5 502,-792.5 502,-762.5 249,-762.5"/>
<text text-anchor="start" x="256" y="-773.9" font-family="Arial" font-size="14.00" fill="#000000">firstname </text>
<text text-anchor="start" x="317.4474" y="-773.9" font-family="Arial" font-size="14.00" fill="#666666">[varchar(191)]</text>
<polygon fill="none" stroke="#000000" points="249,-732.5 249,-762.5 502,-762.5 502,-732.5 249,-732.5"/>
<text text-anchor="start" x="256" y="-743.9" font-family="Arial" font-size="14.00" fill="#000000">lastname </text>
<text text-anchor="start" x="316.6788" y="-743.9" font-family="Arial" font-size="14.00" fill="#666666">[varchar(191)]</text>
<polygon fill="none" stroke="#000000" points="249,-702.5 249,-732.5 502,-732.5 502,-702.5 249,-702.5"/>
<text text-anchor="start" x="256" y="-713.9" font-family="Arial" font-size="14.00" fill="#000000">company </text>
<text text-anchor="start" x="316.6816" y="-713.9" font-family="Arial" font-size="14.00" fill="#666666">[varchar(191)]</text>
<polygon fill="none" stroke="#000000" points="249,-672.5 249,-702.5 502,-702.5 502,-672.5 249,-672.5"/>
<text text-anchor="start" x="256" y="-683.9" font-family="Arial" font-size="14.00" fill="#000000">position </text>
<text text-anchor="start" x="308.1248" y="-683.9" font-family="Arial" font-size="14.00" fill="#666666">[varchar(191)]</text>
<polygon fill="none" stroke="#000000" points="249,-642.5 249,-672.5 502,-672.5 502,-642.5 249,-642.5"/>
<text text-anchor="start" x="256" y="-653.9" font-family="Arial" font-size="14.00" fill="#000000">email </text>
<text text-anchor="start" x="293.3296" y="-653.9" font-family="Arial" font-size="14.00" fill="#666666">[varchar(191)]</text>
<polygon fill="none" stroke="#000000" points="249,-612.5 249,-642.5 502,-642.5 502,-612.5 249,-612.5"/>
<text text-anchor="start" x="256" y="-623.9" font-family="Arial" font-size="14.00" fill="#000000">phone </text>
<text text-anchor="start" x="298.8036" y="-623.9" font-family="Arial" font-size="14.00" fill="#666666">[varchar(191)]</text>
<polygon fill="none" stroke="#000000" points="249,-582.5 249,-612.5 502,-612.5 502,-582.5 249,-582.5"/>
<text text-anchor="start" x="256" y="-593.9" font-family="Arial" font-size="14.00" fill="#000000">mobile </text>
<text text-anchor="start" x="301.1122" y="-593.9" font-family="Arial" font-size="14.00" fill="#666666">[varchar(191)]</text>
<polygon fill="none" stroke="#000000" points="249,-552.5 249,-582.5 502,-582.5 502,-552.5 249,-552.5"/>
<text text-anchor="start" x="256" y="-563.9" font-family="Arial" font-size="14.00" fill="#000000">address1 </text>
<text text-anchor="start" x="317.4642" y="-563.9" font-family="Arial" font-size="14.00" fill="#666666">[varchar(191)]</text>
<polygon fill="none" stroke="#000000" points="249,-522.5 249,-552.5 502,-552.5 502,-522.5 249,-522.5"/>
<text text-anchor="start" x="256" y="-533.9" font-family="Arial" font-size="14.00" fill="#000000">address2 </text>
<text text-anchor="start" x="317.4642" y="-533.9" font-family="Arial" font-size="14.00" fill="#666666">[varchar(191)]</text>
<polygon fill="none" stroke="#000000" points="249,-492.5 249,-522.5 502,-522.5 502,-492.5 249,-492.5"/>
<text text-anchor="start" x="256" y="-503.9" font-family="Arial" font-size="14.00" fill="#000000">city </text>
<text text-anchor="start" x="280.8878" y="-503.9" font-family="Arial" font-size="14.00" fill="#666666">[varchar(191)]</text>
<polygon fill="none" stroke="#000000" points="249,-462.5 249,-492.5 502,-492.5 502,-462.5 249,-462.5"/>
<text text-anchor="start" x="256" y="-473.9" font-family="Arial" font-size="14.00" fill="#000000">state </text>
<text text-anchor="start" x="290.237" y="-473.9" font-family="Arial" font-size="14.00" fill="#666666">[varchar(191)]</text>
<polygon fill="none" stroke="#000000" points="249,-432.5 249,-462.5 502,-462.5 502,-432.5 249,-432.5"/>
<text text-anchor="start" x="256" y="-443.9" font-family="Arial" font-size="14.00" fill="#000000">zipcode </text>
<text text-anchor="start" x="308.1276" y="-443.9" font-family="Arial" font-size="14.00" fill="#666666">[varchar(191)]</text>
<polygon fill="none" stroke="#000000" points="249,-402.5 249,-432.5 502,-432.5 502,-402.5 249,-402.5"/>
<text text-anchor="start" x="256" y="-413.9" font-family="Arial" font-size="14.00" fill="#000000">timezone </text>
<text text-anchor="start" x="316.6788" y="-413.9" font-family="Arial" font-size="14.00" fill="#666666">[varchar(191)]</text>
<polygon fill="none" stroke="#000000" points="249,-372.5 249,-402.5 502,-402.5 502,-372.5 249,-372.5"/>
<text text-anchor="start" x="256" y="-383.9" font-family="Arial" font-size="14.00" fill="#000000">country </text>
<text text-anchor="start" x="305.7896" y="-383.9" font-family="Arial" font-size="14.00" fill="#666666">[varchar(191)]</text>
<polygon fill="none" stroke="#000000" points="249,-342.5 249,-372.5 502,-372.5 502,-342.5 249,-342.5"/>
<text text-anchor="start" x="256" y="-353.9" font-family="Arial" font-size="14.00" fill="#000000">fax </text>
<text text-anchor="start" x="278.5638" y="-353.9" font-family="Arial" font-size="14.00" fill="#666666">[varchar(255)]</text>
<polygon fill="none" stroke="#000000" points="249,-312.5 249,-342.5 502,-342.5 502,-312.5 249,-312.5"/>
<text text-anchor="start" x="256" y="-323.9" font-family="Arial" font-size="14.00" fill="#000000">preferred_locale </text>
<text text-anchor="start" x="361.0196" y="-323.9" font-family="Arial" font-size="14.00" fill="#666666">[varchar(255)]</text>
<polygon fill="none" stroke="#000000" points="249,-282.5 249,-312.5 502,-312.5 502,-282.5 249,-282.5"/>
<text text-anchor="start" x="256" y="-293.9" font-family="Arial" font-size="14.00" fill="#000000">attribution_date </text>
<text text-anchor="start" x="356.3702" y="-293.9" font-family="Arial" font-size="14.00" fill="#666666">[datetime]</text>
<polygon fill="none" stroke="#000000" points="249,-252.5 249,-282.5 502,-282.5 502,-252.5 249,-252.5"/>
<text text-anchor="start" x="256" y="-263.9" font-family="Arial" font-size="14.00" fill="#000000">attribution </text>
<text text-anchor="start" x="321.3492" y="-263.9" font-family="Arial" font-size="14.00" fill="#666666">[double]</text>
<polygon fill="none" stroke="#000000" points="249,-222.5 249,-252.5 502,-252.5 502,-222.5 249,-222.5"/>
<text text-anchor="start" x="256" y="-233.9" font-family="Arial" font-size="14.00" fill="#000000">website </text>
<text text-anchor="start" x="307.3422" y="-233.9" font-family="Arial" font-size="14.00" fill="#666666">[longtext]</text>
<polygon fill="none" stroke="#000000" points="249,-192.5 249,-222.5 502,-222.5 502,-192.5 249,-192.5"/>
<text text-anchor="start" x="256" y="-203.9" font-family="Arial" font-size="14.00" fill="#000000">facebook </text>
<text text-anchor="start" x="316.6942" y="-203.9" font-family="Arial" font-size="14.00" fill="#666666">[varchar(255)]</text>
<polygon fill="none" stroke="#000000" points="249,-162.5 249,-192.5 502,-192.5 502,-162.5 249,-162.5"/>
<text text-anchor="start" x="256" y="-173.9" font-family="Arial" font-size="14.00" fill="#000000">foursquare </text>
<text text-anchor="start" x="326.798" y="-173.9" font-family="Arial" font-size="14.00" fill="#666666">[varchar(255)]</text>
<polygon fill="none" stroke="#000000" points="249,-132.5 249,-162.5 502,-162.5 502,-132.5 249,-132.5"/>
<text text-anchor="start" x="256" y="-143.9" font-family="Arial" font-size="14.00" fill="#000000">instagram </text>
<text text-anchor="start" x="321.3394" y="-143.9" font-family="Arial" font-size="14.00" fill="#666666">[varchar(255)]</text>
<polygon fill="none" stroke="#000000" points="249,-102.5 249,-132.5 502,-132.5 502,-102.5 249,-102.5"/>
<text text-anchor="start" x="256" y="-113.9" font-family="Arial" font-size="14.00" fill="#000000">linkedin </text>
<text text-anchor="start" x="307.3408" y="-113.9" font-family="Arial" font-size="14.00" fill="#666666">[varchar(255)]</text>
<polygon fill="none" stroke="#000000" points="249,-72.5 249,-102.5 502,-102.5 502,-72.5 249,-72.5"/>
<text text-anchor="start" x="256" y="-83.9" font-family="Arial" font-size="14.00" fill="#000000">skype </text>
<text text-anchor="start" x="296.4558" y="-83.9" font-family="Arial" font-size="14.00" fill="#666666">[varchar(255)]</text>
<polygon fill="none" stroke="#000000" points="249,-42.5 249,-72.5 502,-72.5 502,-42.5 249,-42.5"/>
<text text-anchor="start" x="256" y="-53.9" font-family="Arial" font-size="14.00" fill="#000000">twitter </text>
<text text-anchor="start" x="297.2188" y="-53.9" font-family="Arial" font-size="14.00" fill="#666666">[varchar(255)]</text>
</g>
<!-- lead_frequencyrules&#45;&gt;leads -->
<g id="edge1" class="edge">
<title>lead_frequencyrules:lead_id&#45;&gt;leads:id</title>
<path fill="none" stroke="#000000" d="M229.0317,-1775.7166C150.985,-1746.8604 163.5566,-1377.5 249,-1377.5"/>
<polygon fill="#000000" stroke="#000000" points="229.1563,-1775.7388 238.2075,-1781.9297 234.0781,-1776.6194 239,-1777.5 239,-1777.5 239,-1777.5 234.0781,-1776.6194 239.7925,-1773.0703 229.1563,-1775.7388 229.1563,-1775.7388"/>
<text text-anchor="start" x="7.496" y="-1787.5" font-family="Arial" font-size="10.00" fill="#000000">FOREIGN KEY (lead_id) REFERENCES leads (id)</text>
</g>
</g>
</svg>
