<?xml version="1.0" encoding="UTF-8" standalone="no"?>
<!DOCTYPE svg PUBLIC "-//W3C//DTD SVG 1.1//EN"
 "http://www.w3.org/Graphics/SVG/1.1/DTD/svg11.dtd">
<!-- Generated by graphviz version 2.40.1 (20161225.0304)
 -->
<!-- Title: lead_ips_xref Pages: 1 -->
<svg width="728pt" height="1702pt"
 viewBox="0.00 0.00 728.00 1702.00" xmlns="http://www.w3.org/2000/svg" xmlns:xlink="http://www.w3.org/1999/xlink">
<g id="graph0" class="graph" transform="scale(1 1) rotate(0) translate(4 1698)">
<title>lead_ips_xref</title>
<polygon fill="#ffffff" stroke="transparent" points="-4,4 -4,-1698 724,-1698 724,4 -4,4"/>
<!-- lead_ips_xref -->
<g id="node1" class="node">
<title>lead_ips_xref</title>
<polygon fill="#efefef" stroke="transparent" points="239,-1612.5 239,-1647.5 457,-1647.5 457,-1612.5 239,-1612.5"/>
<polygon fill="none" stroke="#000000" points="239,-1612.5 239,-1647.5 457,-1647.5 457,-1612.5 239,-1612.5"/>
<text text-anchor="start" x="245.86" y="-1625.3" font-family="Arial Bold" font-size="18.00" fill="#000000">lead_ips_xref</text>
<text text-anchor="start" x="352.8862" y="-1625.3" font-family="Arial" font-size="14.00" fill="#000000"> </text>
<text text-anchor="start" x="356.7768" y="-1625.3" font-family="Arial" font-size="14.00" fill="#666666">[BASE TABLE]</text>
<polygon fill="none" stroke="#000000" points="239,-1582.5 239,-1612.5 457,-1612.5 457,-1582.5 239,-1582.5"/>
<text text-anchor="start" x="246" y="-1593.9" font-family="Arial" font-size="14.00" fill="#000000">lead_id </text>
<text text-anchor="start" x="295.0168" y="-1593.9" font-family="Arial" font-size="14.00" fill="#666666">[bigint(20) unsigned]</text>
<polygon fill="none" stroke="#000000" points="239,-1552.5 239,-1582.5 457,-1582.5 457,-1552.5 239,-1552.5"/>
<text text-anchor="start" x="246" y="-1563.9" font-family="Arial" font-size="14.00" fill="#000000">ip_id </text>
<text text-anchor="start" x="279.4516" y="-1563.9" font-family="Arial" font-size="14.00" fill="#666666">[int(10) unsigned]</text>
<polygon fill="none" stroke="#000000" stroke-width="3" points="237.5,-1551.5 237.5,-1649.5 458.5,-1649.5 458.5,-1551.5 237.5,-1551.5"/>
</g>
<!-- leads -->
<g id="node2" class="node">
<title>leads</title>
<polygon fill="#efefef" stroke="transparent" points="52,-1392.5 52,-1427.5 305,-1427.5 305,-1392.5 52,-1392.5"/>
<polygon fill="none" stroke="#000000" points="52,-1392.5 52,-1427.5 305,-1427.5 305,-1392.5 52,-1392.5"/>
<text text-anchor="start" x="108.3667" y="-1405.3" font-family="Arial Bold" font-size="18.00" fill="#000000">leads</text>
<text text-anchor="start" x="151.3795" y="-1405.3" font-family="Arial" font-size="14.00" fill="#000000"> </text>
<text text-anchor="start" x="155.2701" y="-1405.3" font-family="Arial" font-size="14.00" fill="#666666">[BASE TABLE]</text>
<polygon fill="none" stroke="#000000" points="52,-1362.5 52,-1392.5 305,-1392.5 305,-1362.5 52,-1362.5"/>
<text text-anchor="start" x="59" y="-1373.9" font-family="Arial" font-size="14.00" fill="#000000">id </text>
<text text-anchor="start" x="73.7798" y="-1373.9" font-family="Arial" font-size="14.00" fill="#666666">[bigint(20) unsigned]</text>
<polygon fill="none" stroke="#000000" points="52,-1332.5 52,-1362.5 305,-1362.5 305,-1332.5 52,-1332.5"/>
<text text-anchor="start" x="59" y="-1343.9" font-family="Arial" font-size="14.00" fill="#000000">owner_id </text>
<text text-anchor="start" x="119.6774" y="-1343.9" font-family="Arial" font-size="14.00" fill="#666666">[int(10) unsigned]</text>
<polygon fill="none" stroke="#000000" points="52,-1302.5 52,-1332.5 305,-1332.5 305,-1302.5 52,-1302.5"/>
<text text-anchor="start" x="59" y="-1313.9" font-family="Arial" font-size="14.00" fill="#000000">stage_id </text>
<text text-anchor="start" x="115.8008" y="-1313.9" font-family="Arial" font-size="14.00" fill="#666666">[int(10) unsigned]</text>
<polygon fill="none" stroke="#000000" points="52,-1272.5 52,-1302.5 305,-1302.5 305,-1272.5 52,-1272.5"/>
<text text-anchor="start" x="59" y="-1283.9" font-family="Arial" font-size="14.00" fill="#000000">is_published </text>
<text text-anchor="start" x="140.6886" y="-1283.9" font-family="Arial" font-size="14.00" fill="#666666">[tinyint(1)]</text>
<polygon fill="none" stroke="#000000" points="52,-1242.5 52,-1272.5 305,-1272.5 305,-1242.5 52,-1242.5"/>
<text text-anchor="start" x="59" y="-1253.9" font-family="Arial" font-size="14.00" fill="#000000">date_added </text>
<text text-anchor="start" x="136.8246" y="-1253.9" font-family="Arial" font-size="14.00" fill="#666666">[datetime]</text>
<polygon fill="none" stroke="#000000" points="52,-1212.5 52,-1242.5 305,-1242.5 305,-1212.5 52,-1212.5"/>
<text text-anchor="start" x="59" y="-1223.9" font-family="Arial" font-size="14.00" fill="#000000">created_by </text>
<text text-anchor="start" x="132.1374" y="-1223.9" font-family="Arial" font-size="14.00" fill="#666666">[int(11)]</text>
<polygon fill="none" stroke="#000000" points="52,-1182.5 52,-1212.5 305,-1212.5 305,-1182.5 52,-1182.5"/>
<text text-anchor="start" x="59" y="-1193.9" font-family="Arial" font-size="14.00" fill="#000000">created_by_user </text>
<text text-anchor="start" x="167.1458" y="-1193.9" font-family="Arial" font-size="14.00" fill="#666666">[varchar(191)]</text>
<polygon fill="none" stroke="#000000" points="52,-1152.5 52,-1182.5 305,-1182.5 305,-1152.5 52,-1152.5"/>
<text text-anchor="start" x="59" y="-1163.9" font-family="Arial" font-size="14.00" fill="#000000">date_modified </text>
<text text-anchor="start" x="150.8064" y="-1163.9" font-family="Arial" font-size="14.00" fill="#666666">[datetime]</text>
<polygon fill="none" stroke="#000000" points="52,-1122.5 52,-1152.5 305,-1152.5 305,-1122.5 52,-1122.5"/>
<text text-anchor="start" x="59" y="-1133.9" font-family="Arial" font-size="14.00" fill="#000000">modified_by </text>
<text text-anchor="start" x="138.3506" y="-1133.9" font-family="Arial" font-size="14.00" fill="#666666">[int(11)]</text>
<polygon fill="none" stroke="#000000" points="52,-1092.5 52,-1122.5 305,-1122.5 305,-1092.5 52,-1092.5"/>
<text text-anchor="start" x="59" y="-1103.9" font-family="Arial" font-size="14.00" fill="#000000">modified_by_user </text>
<text text-anchor="start" x="173.359" y="-1103.9" font-family="Arial" font-size="14.00" fill="#666666">[varchar(191)]</text>
<polygon fill="none" stroke="#000000" points="52,-1062.5 52,-1092.5 305,-1092.5 305,-1062.5 52,-1062.5"/>
<text text-anchor="start" x="59" y="-1073.9" font-family="Arial" font-size="14.00" fill="#000000">checked_out </text>
<text text-anchor="start" x="142.2594" y="-1073.9" font-family="Arial" font-size="14.00" fill="#666666">[datetime]</text>
<polygon fill="none" stroke="#000000" points="52,-1032.5 52,-1062.5 305,-1062.5 305,-1032.5 52,-1032.5"/>
<text text-anchor="start" x="59" y="-1043.9" font-family="Arial" font-size="14.00" fill="#000000">checked_out_by </text>
<text text-anchor="start" x="164.8246" y="-1043.9" font-family="Arial" font-size="14.00" fill="#666666">[int(11)]</text>
<polygon fill="none" stroke="#000000" points="52,-1002.5 52,-1032.5 305,-1032.5 305,-1002.5 52,-1002.5"/>
<text text-anchor="start" x="59" y="-1013.9" font-family="Arial" font-size="14.00" fill="#000000">checked_out_by_user </text>
<text text-anchor="start" x="199.833" y="-1013.9" font-family="Arial" font-size="14.00" fill="#666666">[varchar(191)]</text>
<polygon fill="none" stroke="#000000" points="52,-972.5 52,-1002.5 305,-1002.5 305,-972.5 52,-972.5"/>
<text text-anchor="start" x="59" y="-983.9" font-family="Arial" font-size="14.00" fill="#000000">points </text>
<text text-anchor="start" x="100.2356" y="-983.9" font-family="Arial" font-size="14.00" fill="#666666">[int(11)]</text>
<polygon fill="none" stroke="#000000" points="52,-942.5 52,-972.5 305,-972.5 305,-942.5 52,-942.5"/>
<text text-anchor="start" x="59" y="-953.9" font-family="Arial" font-size="14.00" fill="#000000">last_active </text>
<text text-anchor="start" x="129.0154" y="-953.9" font-family="Arial" font-size="14.00" fill="#666666">[datetime]</text>
<polygon fill="none" stroke="#000000" points="52,-912.5 52,-942.5 305,-942.5 305,-912.5 52,-912.5"/>
<text text-anchor="start" x="59" y="-923.9" font-family="Arial" font-size="14.00" fill="#000000">internal </text>
<text text-anchor="start" x="108.7854" y="-923.9" font-family="Arial" font-size="14.00" fill="#666666">[longtext]</text>
<polygon fill="none" stroke="#000000" points="52,-882.5 52,-912.5 305,-912.5 305,-882.5 52,-882.5"/>
<text text-anchor="start" x="59" y="-893.9" font-family="Arial" font-size="14.00" fill="#000000">social_cache </text>
<text text-anchor="start" x="143.7994" y="-893.9" font-family="Arial" font-size="14.00" fill="#666666">[longtext]</text>
<polygon fill="none" stroke="#000000" points="52,-852.5 52,-882.5 305,-882.5 305,-852.5 52,-852.5"/>
<text text-anchor="start" x="59" y="-863.9" font-family="Arial" font-size="14.00" fill="#000000">date_identified </text>
<text text-anchor="start" x="153.9256" y="-863.9" font-family="Arial" font-size="14.00" fill="#666666">[datetime]</text>
<polygon fill="none" stroke="#000000" points="52,-822.5 52,-852.5 305,-852.5 305,-822.5 52,-822.5"/>
<text text-anchor="start" x="58.7062" y="-833.9" font-family="Arial" font-size="14.00" fill="#000000">preferred_profile_image </text>
<text text-anchor="start" x="211.1746" y="-833.9" font-family="Arial" font-size="14.00" fill="#666666">[varchar(191)]</text>
<polygon fill="none" stroke="#000000" points="52,-792.5 52,-822.5 305,-822.5 305,-792.5 52,-792.5"/>
<text text-anchor="start" x="59" y="-803.9" font-family="Arial" font-size="14.00" fill="#000000">title </text>
<text text-anchor="start" x="84.6676" y="-803.9" font-family="Arial" font-size="14.00" fill="#666666">[varchar(191)]</text>
<polygon fill="none" stroke="#000000" points="52,-762.5 52,-792.5 305,-792.5 305,-762.5 52,-762.5"/>
<text text-anchor="start" x="59" y="-773.9" font-family="Arial" font-size="14.00" fill="#000000">firstname </text>
<text text-anchor="start" x="120.4474" y="-773.9" font-family="Arial" font-size="14.00" fill="#666666">[varchar(191)]</text>
<polygon fill="none" stroke="#000000" points="52,-732.5 52,-762.5 305,-762.5 305,-732.5 52,-732.5"/>
<text text-anchor="start" x="59" y="-743.9" font-family="Arial" font-size="14.00" fill="#000000">lastname </text>
<text text-anchor="start" x="119.6788" y="-743.9" font-family="Arial" font-size="14.00" fill="#666666">[varchar(191)]</text>
<polygon fill="none" stroke="#000000" points="52,-702.5 52,-732.5 305,-732.5 305,-702.5 52,-702.5"/>
<text text-anchor="start" x="59" y="-713.9" font-family="Arial" font-size="14.00" fill="#000000">company </text>
<text text-anchor="start" x="119.6816" y="-713.9" font-family="Arial" font-size="14.00" fill="#666666">[varchar(191)]</text>
<polygon fill="none" stroke="#000000" points="52,-672.5 52,-702.5 305,-702.5 305,-672.5 52,-672.5"/>
<text text-anchor="start" x="59" y="-683.9" font-family="Arial" font-size="14.00" fill="#000000">position </text>
<text text-anchor="start" x="111.1248" y="-683.9" font-family="Arial" font-size="14.00" fill="#666666">[varchar(191)]</text>
<polygon fill="none" stroke="#000000" points="52,-642.5 52,-672.5 305,-672.5 305,-642.5 52,-642.5"/>
<text text-anchor="start" x="59" y="-653.9" font-family="Arial" font-size="14.00" fill="#000000">email </text>
<text text-anchor="start" x="96.3296" y="-653.9" font-family="Arial" font-size="14.00" fill="#666666">[varchar(191)]</text>
<polygon fill="none" stroke="#000000" points="52,-612.5 52,-642.5 305,-642.5 305,-612.5 52,-612.5"/>
<text text-anchor="start" x="59" y="-623.9" font-family="Arial" font-size="14.00" fill="#000000">phone </text>
<text text-anchor="start" x="101.8036" y="-623.9" font-family="Arial" font-size="14.00" fill="#666666">[varchar(191)]</text>
<polygon fill="none" stroke="#000000" points="52,-582.5 52,-612.5 305,-612.5 305,-582.5 52,-582.5"/>
<text text-anchor="start" x="59" y="-593.9" font-family="Arial" font-size="14.00" fill="#000000">mobile </text>
<text text-anchor="start" x="104.1122" y="-593.9" font-family="Arial" font-size="14.00" fill="#666666">[varchar(191)]</text>
<polygon fill="none" stroke="#000000" points="52,-552.5 52,-582.5 305,-582.5 305,-552.5 52,-552.5"/>
<text text-anchor="start" x="59" y="-563.9" font-family="Arial" font-size="14.00" fill="#000000">address1 </text>
<text text-anchor="start" x="120.4642" y="-563.9" font-family="Arial" font-size="14.00" fill="#666666">[varchar(191)]</text>
<polygon fill="none" stroke="#000000" points="52,-522.5 52,-552.5 305,-552.5 305,-522.5 52,-522.5"/>
<text text-anchor="start" x="59" y="-533.9" font-family="Arial" font-size="14.00" fill="#000000">address2 </text>
<text text-anchor="start" x="120.4642" y="-533.9" font-family="Arial" font-size="14.00" fill="#666666">[varchar(191)]</text>
<polygon fill="none" stroke="#000000" points="52,-492.5 52,-522.5 305,-522.5 305,-492.5 52,-492.5"/>
<text text-anchor="start" x="59" y="-503.9" font-family="Arial" font-size="14.00" fill="#000000">city </text>
<text text-anchor="start" x="83.8878" y="-503.9" font-family="Arial" font-size="14.00" fill="#666666">[varchar(191)]</text>
<polygon fill="none" stroke="#000000" points="52,-462.5 52,-492.5 305,-492.5 305,-462.5 52,-462.5"/>
<text text-anchor="start" x="59" y="-473.9" font-family="Arial" font-size="14.00" fill="#000000">state </text>
<text text-anchor="start" x="93.237" y="-473.9" font-family="Arial" font-size="14.00" fill="#666666">[varchar(191)]</text>
<polygon fill="none" stroke="#000000" points="52,-432.5 52,-462.5 305,-462.5 305,-432.5 52,-432.5"/>
<text text-anchor="start" x="59" y="-443.9" font-family="Arial" font-size="14.00" fill="#000000">zipcode </text>
<text text-anchor="start" x="111.1276" y="-443.9" font-family="Arial" font-size="14.00" fill="#666666">[varchar(191)]</text>
<polygon fill="none" stroke="#000000" points="52,-402.5 52,-432.5 305,-432.5 305,-402.5 52,-402.5"/>
<text text-anchor="start" x="59" y="-413.9" font-family="Arial" font-size="14.00" fill="#000000">timezone </text>
<text text-anchor="start" x="119.6788" y="-413.9" font-family="Arial" font-size="14.00" fill="#666666">[varchar(191)]</text>
<polygon fill="none" stroke="#000000" points="52,-372.5 52,-402.5 305,-402.5 305,-372.5 52,-372.5"/>
<text text-anchor="start" x="59" y="-383.9" font-family="Arial" font-size="14.00" fill="#000000">country </text>
<text text-anchor="start" x="108.7896" y="-383.9" font-family="Arial" font-size="14.00" fill="#666666">[varchar(191)]</text>
<polygon fill="none" stroke="#000000" points="52,-342.5 52,-372.5 305,-372.5 305,-342.5 52,-342.5"/>
<text text-anchor="start" x="59" y="-353.9" font-family="Arial" font-size="14.00" fill="#000000">fax </text>
<text text-anchor="start" x="81.5638" y="-353.9" font-family="Arial" font-size="14.00" fill="#666666">[varchar(255)]</text>
<polygon fill="none" stroke="#000000" points="52,-312.5 52,-342.5 305,-342.5 305,-312.5 52,-312.5"/>
<text text-anchor="start" x="59" y="-323.9" font-family="Arial" font-size="14.00" fill="#000000">preferred_locale </text>
<text text-anchor="start" x="164.0196" y="-323.9" font-family="Arial" font-size="14.00" fill="#666666">[varchar(255)]</text>
<polygon fill="none" stroke="#000000" points="52,-282.5 52,-312.5 305,-312.5 305,-282.5 52,-282.5"/>
<text text-anchor="start" x="59" y="-293.9" font-family="Arial" font-size="14.00" fill="#000000">attribution_date </text>
<text text-anchor="start" x="159.3702" y="-293.9" font-family="Arial" font-size="14.00" fill="#666666">[datetime]</text>
<polygon fill="none" stroke="#000000" points="52,-252.5 52,-282.5 305,-282.5 305,-252.5 52,-252.5"/>
<text text-anchor="start" x="59" y="-263.9" font-family="Arial" font-size="14.00" fill="#000000">attribution </text>
<text text-anchor="start" x="124.3492" y="-263.9" font-family="Arial" font-size="14.00" fill="#666666">[double]</text>
<polygon fill="none" stroke="#000000" points="52,-222.5 52,-252.5 305,-252.5 305,-222.5 52,-222.5"/>
<text text-anchor="start" x="59" y="-233.9" font-family="Arial" font-size="14.00" fill="#000000">website </text>
<text text-anchor="start" x="110.3422" y="-233.9" font-family="Arial" font-size="14.00" fill="#666666">[longtext]</text>
<polygon fill="none" stroke="#000000" points="52,-192.5 52,-222.5 305,-222.5 305,-192.5 52,-192.5"/>
<text text-anchor="start" x="59" y="-203.9" font-family="Arial" font-size="14.00" fill="#000000">facebook </text>
<text text-anchor="start" x="119.6942" y="-203.9" font-family="Arial" font-size="14.00" fill="#666666">[varchar(255)]</text>
<polygon fill="none" stroke="#000000" points="52,-162.5 52,-192.5 305,-192.5 305,-162.5 52,-162.5"/>
<text text-anchor="start" x="59" y="-173.9" font-family="Arial" font-size="14.00" fill="#000000">foursquare </text>
<text text-anchor="start" x="129.798" y="-173.9" font-family="Arial" font-size="14.00" fill="#666666">[varchar(255)]</text>
<polygon fill="none" stroke="#000000" points="52,-132.5 52,-162.5 305,-162.5 305,-132.5 52,-132.5"/>
<text text-anchor="start" x="59" y="-143.9" font-family="Arial" font-size="14.00" fill="#000000">instagram </text>
<text text-anchor="start" x="124.3394" y="-143.9" font-family="Arial" font-size="14.00" fill="#666666">[varchar(255)]</text>
<polygon fill="none" stroke="#000000" points="52,-102.5 52,-132.5 305,-132.5 305,-102.5 52,-102.5"/>
<text text-anchor="start" x="59" y="-113.9" font-family="Arial" font-size="14.00" fill="#000000">linkedin </text>
<text text-anchor="start" x="110.3408" y="-113.9" font-family="Arial" font-size="14.00" fill="#666666">[varchar(255)]</text>
<polygon fill="none" stroke="#000000" points="52,-72.5 52,-102.5 305,-102.5 305,-72.5 52,-72.5"/>
<text text-anchor="start" x="59" y="-83.9" font-family="Arial" font-size="14.00" fill="#000000">skype </text>
<text text-anchor="start" x="99.4558" y="-83.9" font-family="Arial" font-size="14.00" fill="#666666">[varchar(255)]</text>
<polygon fill="none" stroke="#000000" points="52,-42.5 52,-72.5 305,-72.5 305,-42.5 52,-42.5"/>
<text text-anchor="start" x="59" y="-53.9" font-family="Arial" font-size="14.00" fill="#000000">twitter </text>
<text text-anchor="start" x="100.2188" y="-53.9" font-family="Arial" font-size="14.00" fill="#666666">[varchar(255)]</text>
</g>
<!-- lead_ips_xref&#45;&gt;leads -->
<g id="edge1" class="edge">
<title>lead_ips_xref:lead_id&#45;&gt;leads:id</title>
<path fill="none" stroke="#000000" d="M228.8752,-1595.9723C202.6315,-1586.7829 220.4731,-1538.2094 239,-1507 256.0563,-1478.268 287.9437,-1499.732 305,-1471 326.2126,-1435.2664 346.5556,-1377.5 305,-1377.5"/>
<polygon fill="#000000" stroke="#000000" points="229.1119,-1596.0079 238.3285,-1601.9496 234.056,-1596.7539 239,-1597.5 239,-1597.5 239,-1597.5 234.056,-1596.7539 239.6715,-1593.0504 229.1119,-1596.0079 229.1119,-1596.0079"/>
<text text-anchor="start" x="7.496" y="-1607.5" font-family="Arial" font-size="10.00" fill="#000000">FOREIGN KEY (lead_id) REFERENCES leads (id)</text>
</g>
<!-- ip_addresses -->
<g id="node3" class="node">
<title>ip_addresses</title>
<polygon fill="#efefef" stroke="transparent" points="409,-762.5 409,-797.5 627,-797.5 627,-762.5 409,-762.5"/>
<polygon fill="none" stroke="#000000" points="409,-762.5 409,-797.5 627,-797.5 627,-762.5 409,-762.5"/>
<text text-anchor="start" x="415.8582" y="-775.3" font-family="Arial Bold" font-size="18.00" fill="#000000">ip_addresses</text>
<text text-anchor="start" x="522.888" y="-775.3" font-family="Arial" font-size="14.00" fill="#000000"> </text>
<text text-anchor="start" x="526.7786" y="-775.3" font-family="Arial" font-size="14.00" fill="#666666">[BASE TABLE]</text>
<polygon fill="none" stroke="#000000" points="409,-732.5 409,-762.5 627,-762.5 627,-732.5 409,-732.5"/>
<text text-anchor="start" x="416" y="-743.9" font-family="Arial" font-size="14.00" fill="#000000">id </text>
<text text-anchor="start" x="430.7798" y="-743.9" font-family="Arial" font-size="14.00" fill="#666666">[int(10) unsigned]</text>
<polygon fill="none" stroke="#000000" points="409,-702.5 409,-732.5 627,-732.5 627,-702.5 409,-702.5"/>
<text text-anchor="start" x="416" y="-713.9" font-family="Arial" font-size="14.00" fill="#000000">ip_address </text>
<text text-anchor="start" x="488.3534" y="-713.9" font-family="Arial" font-size="14.00" fill="#666666">[varchar(45)]</text>
<polygon fill="none" stroke="#000000" points="409,-672.5 409,-702.5 627,-702.5 627,-672.5 409,-672.5"/>
<text text-anchor="start" x="416" y="-683.9" font-family="Arial" font-size="14.00" fill="#000000">ip_details </text>
<text text-anchor="start" x="479.014" y="-683.9" font-family="Arial" font-size="14.00" fill="#666666">[longtext]</text>
</g>
<!-- lead_ips_xref&#45;&gt;ip_addresses -->
<g id="edge2" class="edge">
<title>lead_ips_xref:ip_id&#45;&gt;ip_addresses:id</title>
<path fill="none" stroke="#000000" d="M467.0226,-1566.5738C623.6259,-1535.7816 230.031,-747.5 409,-747.5"/>
<polygon fill="#000000" stroke="#000000" points="466.9576,-1566.5797 456.5859,-1563.0191 461.9788,-1567.0399 457,-1567.5 457,-1567.5 457,-1567.5 461.9788,-1567.0399 457.4141,-1571.9809 466.9576,-1566.5797 466.9576,-1566.5797"/>
<text text-anchor="start" x="464.2725" y="-1577.5" font-family="Arial" font-size="10.00" fill="#000000">FOREIGN KEY (ip_id) REFERENCES ip_addresses (id)</text>
</g>
</g>
</svg>
