<?xml version="1.0" encoding="UTF-8" standalone="no"?>
<!DOCTYPE svg PUBLIC "-//W3C//DTD SVG 1.1//EN"
 "http://www.w3.org/Graphics/SVG/1.1/DTD/svg11.dtd">
<!-- Generated by graphviz version 2.40.1 (20161225.0304)
 -->
<!-- Title: lead_points_change_log Pages: 1 -->
<svg width="816pt" height="1882pt"
 viewBox="0.00 0.00 816.00 1882.00" xmlns="http://www.w3.org/2000/svg" xmlns:xlink="http://www.w3.org/1999/xlink">
<g id="graph0" class="graph" transform="scale(1 1) rotate(0) translate(4 1878)">
<title>lead_points_change_log</title>
<polygon fill="#ffffff" stroke="transparent" points="-4,4 -4,-1878 812,-1878 812,4 -4,4"/>
<!-- lead_points_change_log -->
<g id="node1" class="node">
<title>lead_points_change_log</title>
<polygon fill="#efefef" stroke="transparent" points="239,-1792.5 239,-1827.5 545,-1827.5 545,-1792.5 239,-1792.5"/>
<polygon fill="none" stroke="#000000" points="239,-1792.5 239,-1827.5 545,-1827.5 545,-1792.5 239,-1792.5"/>
<text text-anchor="start" x="245.8311" y="-1805.3" font-family="Arial Bold" font-size="18.00" fill="#000000">lead_points_change_log</text>
<text text-anchor="start" x="440.9151" y="-1805.3" font-family="Arial" font-size="14.00" fill="#000000"> </text>
<text text-anchor="start" x="444.8057" y="-1805.3" font-family="Arial" font-size="14.00" fill="#666666">[BASE TABLE]</text>
<polygon fill="none" stroke="#000000" points="239,-1762.5 239,-1792.5 545,-1792.5 545,-1762.5 239,-1762.5"/>
<text text-anchor="start" x="246" y="-1773.9" font-family="Arial" font-size="14.00" fill="#000000">id </text>
<text text-anchor="start" x="260.7798" y="-1773.9" font-family="Arial" font-size="14.00" fill="#666666">[bigint(20) unsigned]</text>
<polygon fill="none" stroke="#000000" points="239,-1732.5 239,-1762.5 545,-1762.5 545,-1732.5 239,-1732.5"/>
<text text-anchor="start" x="246" y="-1743.9" font-family="Arial" font-size="14.00" fill="#000000">lead_id </text>
<text text-anchor="start" x="295.0168" y="-1743.9" font-family="Arial" font-size="14.00" fill="#666666">[bigint(20) unsigned]</text>
<polygon fill="none" stroke="#000000" points="239,-1702.5 239,-1732.5 545,-1732.5 545,-1702.5 239,-1702.5"/>
<text text-anchor="start" x="246" y="-1713.9" font-family="Arial" font-size="14.00" fill="#000000">ip_id </text>
<text text-anchor="start" x="279.4516" y="-1713.9" font-family="Arial" font-size="14.00" fill="#666666">[int(10) unsigned]</text>
<polygon fill="none" stroke="#000000" points="239,-1672.5 239,-1702.5 545,-1702.5 545,-1672.5 239,-1672.5"/>
<text text-anchor="start" x="246" y="-1683.9" font-family="Arial" font-size="14.00" fill="#000000">type </text>
<text text-anchor="start" x="276.3464" y="-1683.9" font-family="Arial" font-size="14.00" fill="#666666">[tinytext]</text>
<polygon fill="none" stroke="#000000" points="239,-1642.5 239,-1672.5 545,-1672.5 545,-1642.5 239,-1642.5"/>
<text text-anchor="start" x="246" y="-1653.9" font-family="Arial" font-size="14.00" fill="#000000">event_name </text>
<text text-anchor="start" x="326.92" y="-1653.9" font-family="Arial" font-size="14.00" fill="#666666">[varchar(191)]</text>
<polygon fill="none" stroke="#000000" points="239,-1612.5 239,-1642.5 545,-1642.5 545,-1612.5 239,-1612.5"/>
<text text-anchor="start" x="246" y="-1623.9" font-family="Arial" font-size="14.00" fill="#000000">action_name </text>
<text text-anchor="start" x="330.0266" y="-1623.9" font-family="Arial" font-size="14.00" fill="#666666">[varchar(191)]</text>
<polygon fill="none" stroke="#000000" points="239,-1582.5 239,-1612.5 545,-1612.5 545,-1582.5 239,-1582.5"/>
<text text-anchor="start" x="246" y="-1593.9" font-family="Arial" font-size="14.00" fill="#000000">delta </text>
<text text-anchor="start" x="280.2356" y="-1593.9" font-family="Arial" font-size="14.00" fill="#666666">[int(11)]</text>
<polygon fill="none" stroke="#000000" points="239,-1552.5 239,-1582.5 545,-1582.5 545,-1552.5 239,-1552.5"/>
<text text-anchor="start" x="246" y="-1563.9" font-family="Arial" font-size="14.00" fill="#000000">date_added </text>
<text text-anchor="start" x="323.8246" y="-1563.9" font-family="Arial" font-size="14.00" fill="#666666">[datetime]</text>
<polygon fill="none" stroke="#000000" stroke-width="3" points="237.5,-1551.5 237.5,-1829.5 546.5,-1829.5 546.5,-1551.5 237.5,-1551.5"/>
</g>
<!-- leads -->
<g id="node2" class="node">
<title>leads</title>
<polygon fill="#efefef" stroke="transparent" points="96,-1392.5 96,-1427.5 349,-1427.5 349,-1392.5 96,-1392.5"/>
<polygon fill="none" stroke="#000000" points="96,-1392.5 96,-1427.5 349,-1427.5 349,-1392.5 96,-1392.5"/>
<text text-anchor="start" x="152.3667" y="-1405.3" font-family="Arial Bold" font-size="18.00" fill="#000000">leads</text>
<text text-anchor="start" x="195.3795" y="-1405.3" font-family="Arial" font-size="14.00" fill="#000000"> </text>
<text text-anchor="start" x="199.2701" y="-1405.3" font-family="Arial" font-size="14.00" fill="#666666">[BASE TABLE]</text>
<polygon fill="none" stroke="#000000" points="96,-1362.5 96,-1392.5 349,-1392.5 349,-1362.5 96,-1362.5"/>
<text text-anchor="start" x="103" y="-1373.9" font-family="Arial" font-size="14.00" fill="#000000">id </text>
<text text-anchor="start" x="117.7798" y="-1373.9" font-family="Arial" font-size="14.00" fill="#666666">[bigint(20) unsigned]</text>
<polygon fill="none" stroke="#000000" points="96,-1332.5 96,-1362.5 349,-1362.5 349,-1332.5 96,-1332.5"/>
<text text-anchor="start" x="103" y="-1343.9" font-family="Arial" font-size="14.00" fill="#000000">owner_id </text>
<text text-anchor="start" x="163.6774" y="-1343.9" font-family="Arial" font-size="14.00" fill="#666666">[int(10) unsigned]</text>
<polygon fill="none" stroke="#000000" points="96,-1302.5 96,-1332.5 349,-1332.5 349,-1302.5 96,-1302.5"/>
<text text-anchor="start" x="103" y="-1313.9" font-family="Arial" font-size="14.00" fill="#000000">stage_id </text>
<text text-anchor="start" x="159.8008" y="-1313.9" font-family="Arial" font-size="14.00" fill="#666666">[int(10) unsigned]</text>
<polygon fill="none" stroke="#000000" points="96,-1272.5 96,-1302.5 349,-1302.5 349,-1272.5 96,-1272.5"/>
<text text-anchor="start" x="103" y="-1283.9" font-family="Arial" font-size="14.00" fill="#000000">is_published </text>
<text text-anchor="start" x="184.6886" y="-1283.9" font-family="Arial" font-size="14.00" fill="#666666">[tinyint(1)]</text>
<polygon fill="none" stroke="#000000" points="96,-1242.5 96,-1272.5 349,-1272.5 349,-1242.5 96,-1242.5"/>
<text text-anchor="start" x="103" y="-1253.9" font-family="Arial" font-size="14.00" fill="#000000">date_added </text>
<text text-anchor="start" x="180.8246" y="-1253.9" font-family="Arial" font-size="14.00" fill="#666666">[datetime]</text>
<polygon fill="none" stroke="#000000" points="96,-1212.5 96,-1242.5 349,-1242.5 349,-1212.5 96,-1212.5"/>
<text text-anchor="start" x="103" y="-1223.9" font-family="Arial" font-size="14.00" fill="#000000">created_by </text>
<text text-anchor="start" x="176.1374" y="-1223.9" font-family="Arial" font-size="14.00" fill="#666666">[int(11)]</text>
<polygon fill="none" stroke="#000000" points="96,-1182.5 96,-1212.5 349,-1212.5 349,-1182.5 96,-1182.5"/>
<text text-anchor="start" x="103" y="-1193.9" font-family="Arial" font-size="14.00" fill="#000000">created_by_user </text>
<text text-anchor="start" x="211.1458" y="-1193.9" font-family="Arial" font-size="14.00" fill="#666666">[varchar(191)]</text>
<polygon fill="none" stroke="#000000" points="96,-1152.5 96,-1182.5 349,-1182.5 349,-1152.5 96,-1152.5"/>
<text text-anchor="start" x="103" y="-1163.9" font-family="Arial" font-size="14.00" fill="#000000">date_modified </text>
<text text-anchor="start" x="194.8064" y="-1163.9" font-family="Arial" font-size="14.00" fill="#666666">[datetime]</text>
<polygon fill="none" stroke="#000000" points="96,-1122.5 96,-1152.5 349,-1152.5 349,-1122.5 96,-1122.5"/>
<text text-anchor="start" x="103" y="-1133.9" font-family="Arial" font-size="14.00" fill="#000000">modified_by </text>
<text text-anchor="start" x="182.3506" y="-1133.9" font-family="Arial" font-size="14.00" fill="#666666">[int(11)]</text>
<polygon fill="none" stroke="#000000" points="96,-1092.5 96,-1122.5 349,-1122.5 349,-1092.5 96,-1092.5"/>
<text text-anchor="start" x="103" y="-1103.9" font-family="Arial" font-size="14.00" fill="#000000">modified_by_user </text>
<text text-anchor="start" x="217.359" y="-1103.9" font-family="Arial" font-size="14.00" fill="#666666">[varchar(191)]</text>
<polygon fill="none" stroke="#000000" points="96,-1062.5 96,-1092.5 349,-1092.5 349,-1062.5 96,-1062.5"/>
<text text-anchor="start" x="103" y="-1073.9" font-family="Arial" font-size="14.00" fill="#000000">checked_out </text>
<text text-anchor="start" x="186.2594" y="-1073.9" font-family="Arial" font-size="14.00" fill="#666666">[datetime]</text>
<polygon fill="none" stroke="#000000" points="96,-1032.5 96,-1062.5 349,-1062.5 349,-1032.5 96,-1032.5"/>
<text text-anchor="start" x="103" y="-1043.9" font-family="Arial" font-size="14.00" fill="#000000">checked_out_by </text>
<text text-anchor="start" x="208.8246" y="-1043.9" font-family="Arial" font-size="14.00" fill="#666666">[int(11)]</text>
<polygon fill="none" stroke="#000000" points="96,-1002.5 96,-1032.5 349,-1032.5 349,-1002.5 96,-1002.5"/>
<text text-anchor="start" x="103" y="-1013.9" font-family="Arial" font-size="14.00" fill="#000000">checked_out_by_user </text>
<text text-anchor="start" x="243.833" y="-1013.9" font-family="Arial" font-size="14.00" fill="#666666">[varchar(191)]</text>
<polygon fill="none" stroke="#000000" points="96,-972.5 96,-1002.5 349,-1002.5 349,-972.5 96,-972.5"/>
<text text-anchor="start" x="103" y="-983.9" font-family="Arial" font-size="14.00" fill="#000000">points </text>
<text text-anchor="start" x="144.2356" y="-983.9" font-family="Arial" font-size="14.00" fill="#666666">[int(11)]</text>
<polygon fill="none" stroke="#000000" points="96,-942.5 96,-972.5 349,-972.5 349,-942.5 96,-942.5"/>
<text text-anchor="start" x="103" y="-953.9" font-family="Arial" font-size="14.00" fill="#000000">last_active </text>
<text text-anchor="start" x="173.0154" y="-953.9" font-family="Arial" font-size="14.00" fill="#666666">[datetime]</text>
<polygon fill="none" stroke="#000000" points="96,-912.5 96,-942.5 349,-942.5 349,-912.5 96,-912.5"/>
<text text-anchor="start" x="103" y="-923.9" font-family="Arial" font-size="14.00" fill="#000000">internal </text>
<text text-anchor="start" x="152.7854" y="-923.9" font-family="Arial" font-size="14.00" fill="#666666">[longtext]</text>
<polygon fill="none" stroke="#000000" points="96,-882.5 96,-912.5 349,-912.5 349,-882.5 96,-882.5"/>
<text text-anchor="start" x="103" y="-893.9" font-family="Arial" font-size="14.00" fill="#000000">social_cache </text>
<text text-anchor="start" x="187.7994" y="-893.9" font-family="Arial" font-size="14.00" fill="#666666">[longtext]</text>
<polygon fill="none" stroke="#000000" points="96,-852.5 96,-882.5 349,-882.5 349,-852.5 96,-852.5"/>
<text text-anchor="start" x="103" y="-863.9" font-family="Arial" font-size="14.00" fill="#000000">date_identified </text>
<text text-anchor="start" x="197.9256" y="-863.9" font-family="Arial" font-size="14.00" fill="#666666">[datetime]</text>
<polygon fill="none" stroke="#000000" points="96,-822.5 96,-852.5 349,-852.5 349,-822.5 96,-822.5"/>
<text text-anchor="start" x="102.7062" y="-833.9" font-family="Arial" font-size="14.00" fill="#000000">preferred_profile_image </text>
<text text-anchor="start" x="255.1746" y="-833.9" font-family="Arial" font-size="14.00" fill="#666666">[varchar(191)]</text>
<polygon fill="none" stroke="#000000" points="96,-792.5 96,-822.5 349,-822.5 349,-792.5 96,-792.5"/>
<text text-anchor="start" x="103" y="-803.9" font-family="Arial" font-size="14.00" fill="#000000">title </text>
<text text-anchor="start" x="128.6676" y="-803.9" font-family="Arial" font-size="14.00" fill="#666666">[varchar(191)]</text>
<polygon fill="none" stroke="#000000" points="96,-762.5 96,-792.5 349,-792.5 349,-762.5 96,-762.5"/>
<text text-anchor="start" x="103" y="-773.9" font-family="Arial" font-size="14.00" fill="#000000">firstname </text>
<text text-anchor="start" x="164.4474" y="-773.9" font-family="Arial" font-size="14.00" fill="#666666">[varchar(191)]</text>
<polygon fill="none" stroke="#000000" points="96,-732.5 96,-762.5 349,-762.5 349,-732.5 96,-732.5"/>
<text text-anchor="start" x="103" y="-743.9" font-family="Arial" font-size="14.00" fill="#000000">lastname </text>
<text text-anchor="start" x="163.6788" y="-743.9" font-family="Arial" font-size="14.00" fill="#666666">[varchar(191)]</text>
<polygon fill="none" stroke="#000000" points="96,-702.5 96,-732.5 349,-732.5 349,-702.5 96,-702.5"/>
<text text-anchor="start" x="103" y="-713.9" font-family="Arial" font-size="14.00" fill="#000000">company </text>
<text text-anchor="start" x="163.6816" y="-713.9" font-family="Arial" font-size="14.00" fill="#666666">[varchar(191)]</text>
<polygon fill="none" stroke="#000000" points="96,-672.5 96,-702.5 349,-702.5 349,-672.5 96,-672.5"/>
<text text-anchor="start" x="103" y="-683.9" font-family="Arial" font-size="14.00" fill="#000000">position </text>
<text text-anchor="start" x="155.1248" y="-683.9" font-family="Arial" font-size="14.00" fill="#666666">[varchar(191)]</text>
<polygon fill="none" stroke="#000000" points="96,-642.5 96,-672.5 349,-672.5 349,-642.5 96,-642.5"/>
<text text-anchor="start" x="103" y="-653.9" font-family="Arial" font-size="14.00" fill="#000000">email </text>
<text text-anchor="start" x="140.3296" y="-653.9" font-family="Arial" font-size="14.00" fill="#666666">[varchar(191)]</text>
<polygon fill="none" stroke="#000000" points="96,-612.5 96,-642.5 349,-642.5 349,-612.5 96,-612.5"/>
<text text-anchor="start" x="103" y="-623.9" font-family="Arial" font-size="14.00" fill="#000000">phone </text>
<text text-anchor="start" x="145.8036" y="-623.9" font-family="Arial" font-size="14.00" fill="#666666">[varchar(191)]</text>
<polygon fill="none" stroke="#000000" points="96,-582.5 96,-612.5 349,-612.5 349,-582.5 96,-582.5"/>
<text text-anchor="start" x="103" y="-593.9" font-family="Arial" font-size="14.00" fill="#000000">mobile </text>
<text text-anchor="start" x="148.1122" y="-593.9" font-family="Arial" font-size="14.00" fill="#666666">[varchar(191)]</text>
<polygon fill="none" stroke="#000000" points="96,-552.5 96,-582.5 349,-582.5 349,-552.5 96,-552.5"/>
<text text-anchor="start" x="103" y="-563.9" font-family="Arial" font-size="14.00" fill="#000000">address1 </text>
<text text-anchor="start" x="164.4642" y="-563.9" font-family="Arial" font-size="14.00" fill="#666666">[varchar(191)]</text>
<polygon fill="none" stroke="#000000" points="96,-522.5 96,-552.5 349,-552.5 349,-522.5 96,-522.5"/>
<text text-anchor="start" x="103" y="-533.9" font-family="Arial" font-size="14.00" fill="#000000">address2 </text>
<text text-anchor="start" x="164.4642" y="-533.9" font-family="Arial" font-size="14.00" fill="#666666">[varchar(191)]</text>
<polygon fill="none" stroke="#000000" points="96,-492.5 96,-522.5 349,-522.5 349,-492.5 96,-492.5"/>
<text text-anchor="start" x="103" y="-503.9" font-family="Arial" font-size="14.00" fill="#000000">city </text>
<text text-anchor="start" x="127.8878" y="-503.9" font-family="Arial" font-size="14.00" fill="#666666">[varchar(191)]</text>
<polygon fill="none" stroke="#000000" points="96,-462.5 96,-492.5 349,-492.5 349,-462.5 96,-462.5"/>
<text text-anchor="start" x="103" y="-473.9" font-family="Arial" font-size="14.00" fill="#000000">state </text>
<text text-anchor="start" x="137.237" y="-473.9" font-family="Arial" font-size="14.00" fill="#666666">[varchar(191)]</text>
<polygon fill="none" stroke="#000000" points="96,-432.5 96,-462.5 349,-462.5 349,-432.5 96,-432.5"/>
<text text-anchor="start" x="103" y="-443.9" font-family="Arial" font-size="14.00" fill="#000000">zipcode </text>
<text text-anchor="start" x="155.1276" y="-443.9" font-family="Arial" font-size="14.00" fill="#666666">[varchar(191)]</text>
<polygon fill="none" stroke="#000000" points="96,-402.5 96,-432.5 349,-432.5 349,-402.5 96,-402.5"/>
<text text-anchor="start" x="103" y="-413.9" font-family="Arial" font-size="14.00" fill="#000000">timezone </text>
<text text-anchor="start" x="163.6788" y="-413.9" font-family="Arial" font-size="14.00" fill="#666666">[varchar(191)]</text>
<polygon fill="none" stroke="#000000" points="96,-372.5 96,-402.5 349,-402.5 349,-372.5 96,-372.5"/>
<text text-anchor="start" x="103" y="-383.9" font-family="Arial" font-size="14.00" fill="#000000">country </text>
<text text-anchor="start" x="152.7896" y="-383.9" font-family="Arial" font-size="14.00" fill="#666666">[varchar(191)]</text>
<polygon fill="none" stroke="#000000" points="96,-342.5 96,-372.5 349,-372.5 349,-342.5 96,-342.5"/>
<text text-anchor="start" x="103" y="-353.9" font-family="Arial" font-size="14.00" fill="#000000">fax </text>
<text text-anchor="start" x="125.5638" y="-353.9" font-family="Arial" font-size="14.00" fill="#666666">[varchar(255)]</text>
<polygon fill="none" stroke="#000000" points="96,-312.5 96,-342.5 349,-342.5 349,-312.5 96,-312.5"/>
<text text-anchor="start" x="103" y="-323.9" font-family="Arial" font-size="14.00" fill="#000000">preferred_locale </text>
<text text-anchor="start" x="208.0196" y="-323.9" font-family="Arial" font-size="14.00" fill="#666666">[varchar(255)]</text>
<polygon fill="none" stroke="#000000" points="96,-282.5 96,-312.5 349,-312.5 349,-282.5 96,-282.5"/>
<text text-anchor="start" x="103" y="-293.9" font-family="Arial" font-size="14.00" fill="#000000">attribution_date </text>
<text text-anchor="start" x="203.3702" y="-293.9" font-family="Arial" font-size="14.00" fill="#666666">[datetime]</text>
<polygon fill="none" stroke="#000000" points="96,-252.5 96,-282.5 349,-282.5 349,-252.5 96,-252.5"/>
<text text-anchor="start" x="103" y="-263.9" font-family="Arial" font-size="14.00" fill="#000000">attribution </text>
<text text-anchor="start" x="168.3492" y="-263.9" font-family="Arial" font-size="14.00" fill="#666666">[double]</text>
<polygon fill="none" stroke="#000000" points="96,-222.5 96,-252.5 349,-252.5 349,-222.5 96,-222.5"/>
<text text-anchor="start" x="103" y="-233.9" font-family="Arial" font-size="14.00" fill="#000000">website </text>
<text text-anchor="start" x="154.3422" y="-233.9" font-family="Arial" font-size="14.00" fill="#666666">[longtext]</text>
<polygon fill="none" stroke="#000000" points="96,-192.5 96,-222.5 349,-222.5 349,-192.5 96,-192.5"/>
<text text-anchor="start" x="103" y="-203.9" font-family="Arial" font-size="14.00" fill="#000000">facebook </text>
<text text-anchor="start" x="163.6942" y="-203.9" font-family="Arial" font-size="14.00" fill="#666666">[varchar(255)]</text>
<polygon fill="none" stroke="#000000" points="96,-162.5 96,-192.5 349,-192.5 349,-162.5 96,-162.5"/>
<text text-anchor="start" x="103" y="-173.9" font-family="Arial" font-size="14.00" fill="#000000">foursquare </text>
<text text-anchor="start" x="173.798" y="-173.9" font-family="Arial" font-size="14.00" fill="#666666">[varchar(255)]</text>
<polygon fill="none" stroke="#000000" points="96,-132.5 96,-162.5 349,-162.5 349,-132.5 96,-132.5"/>
<text text-anchor="start" x="103" y="-143.9" font-family="Arial" font-size="14.00" fill="#000000">instagram </text>
<text text-anchor="start" x="168.3394" y="-143.9" font-family="Arial" font-size="14.00" fill="#666666">[varchar(255)]</text>
<polygon fill="none" stroke="#000000" points="96,-102.5 96,-132.5 349,-132.5 349,-102.5 96,-102.5"/>
<text text-anchor="start" x="103" y="-113.9" font-family="Arial" font-size="14.00" fill="#000000">linkedin </text>
<text text-anchor="start" x="154.3408" y="-113.9" font-family="Arial" font-size="14.00" fill="#666666">[varchar(255)]</text>
<polygon fill="none" stroke="#000000" points="96,-72.5 96,-102.5 349,-102.5 349,-72.5 96,-72.5"/>
<text text-anchor="start" x="103" y="-83.9" font-family="Arial" font-size="14.00" fill="#000000">skype </text>
<text text-anchor="start" x="143.4558" y="-83.9" font-family="Arial" font-size="14.00" fill="#666666">[varchar(255)]</text>
<polygon fill="none" stroke="#000000" points="96,-42.5 96,-72.5 349,-72.5 349,-42.5 96,-42.5"/>
<text text-anchor="start" x="103" y="-53.9" font-family="Arial" font-size="14.00" fill="#000000">twitter </text>
<text text-anchor="start" x="144.2188" y="-53.9" font-family="Arial" font-size="14.00" fill="#666666">[varchar(255)]</text>
</g>
<!-- lead_points_change_log&#45;&gt;leads -->
<g id="edge1" class="edge">
<title>lead_points_change_log:lead_id&#45;&gt;leads:id</title>
<path fill="none" stroke="#000000" d="M228.8476,-1746.9989C135.0636,-1737.3505 178.3473,-1590.6682 239,-1507 269.1917,-1465.3516 318.8083,-1512.6484 349,-1471 373.39,-1437.3549 390.5556,-1377.5 349,-1377.5"/>
<polygon fill="#000000" stroke="#000000" points="229.0122,-1747.0069 238.7781,-1751.9945 234.0061,-1747.2535 239,-1747.5 239,-1747.5 239,-1747.5 234.0061,-1747.2535 239.2219,-1743.0055 229.0122,-1747.0069 229.0122,-1747.0069"/>
<text text-anchor="start" x="7.496" y="-1757.5" font-family="Arial" font-size="10.00" fill="#000000">FOREIGN KEY (lead_id) REFERENCES leads (id)</text>
</g>
<!-- ip_addresses -->
<g id="node3" class="node">
<title>ip_addresses</title>
<polygon fill="#efefef" stroke="transparent" points="453,-762.5 453,-797.5 671,-797.5 671,-762.5 453,-762.5"/>
<polygon fill="none" stroke="#000000" points="453,-762.5 453,-797.5 671,-797.5 671,-762.5 453,-762.5"/>
<text text-anchor="start" x="459.8582" y="-775.3" font-family="Arial Bold" font-size="18.00" fill="#000000">ip_addresses</text>
<text text-anchor="start" x="566.888" y="-775.3" font-family="Arial" font-size="14.00" fill="#000000"> </text>
<text text-anchor="start" x="570.7786" y="-775.3" font-family="Arial" font-size="14.00" fill="#666666">[BASE TABLE]</text>
<polygon fill="none" stroke="#000000" points="453,-732.5 453,-762.5 671,-762.5 671,-732.5 453,-732.5"/>
<text text-anchor="start" x="460" y="-743.9" font-family="Arial" font-size="14.00" fill="#000000">id </text>
<text text-anchor="start" x="474.7798" y="-743.9" font-family="Arial" font-size="14.00" fill="#666666">[int(10) unsigned]</text>
<polygon fill="none" stroke="#000000" points="453,-702.5 453,-732.5 671,-732.5 671,-702.5 453,-702.5"/>
<text text-anchor="start" x="460" y="-713.9" font-family="Arial" font-size="14.00" fill="#000000">ip_address </text>
<text text-anchor="start" x="532.3534" y="-713.9" font-family="Arial" font-size="14.00" fill="#666666">[varchar(45)]</text>
<polygon fill="none" stroke="#000000" points="453,-672.5 453,-702.5 671,-702.5 671,-672.5 453,-672.5"/>
<text text-anchor="start" x="460" y="-683.9" font-family="Arial" font-size="14.00" fill="#000000">ip_details </text>
<text text-anchor="start" x="523.014" y="-683.9" font-family="Arial" font-size="14.00" fill="#666666">[longtext]</text>
</g>
<!-- lead_points_change_log&#45;&gt;ip_addresses -->
<g id="edge2" class="edge">
<title>lead_points_change_log:ip_id&#45;&gt;ip_addresses:id</title>
<path fill="none" stroke="#000000" d="M554.909,-1713.9876C632.0836,-1650.4958 348.5446,-747.5 453,-747.5"/>
<polygon fill="#000000" stroke="#000000" points="554.4254,-1714.159 543.4966,-1713.2586 549.7127,-1715.8295 545,-1717.5 545,-1717.5 545,-1717.5 549.7127,-1715.8295 546.5034,-1721.7414 554.4254,-1714.159 554.4254,-1714.159"/>
<text text-anchor="start" x="552.2725" y="-1727.5" font-family="Arial" font-size="10.00" fill="#000000">FOREIGN KEY (ip_id) REFERENCES ip_addresses (id)</text>
</g>
</g>
</svg>
