<?xml version="1.0" encoding="UTF-8" standalone="no"?>
<!DOCTYPE svg PUBLIC "-//W3C//DTD SVG 1.1//EN"
 "http://www.w3.org/Graphics/SVG/1.1/DTD/svg11.dtd">
<!-- Generated by graphviz version 2.40.1 (20161225.0304)
 -->
<!-- Title: lead_utmtags Pages: 1 -->
<svg width="526pt" height="2032pt"
 viewBox="0.00 0.00 525.50 2032.00" xmlns="http://www.w3.org/2000/svg" xmlns:xlink="http://www.w3.org/1999/xlink">
<g id="graph0" class="graph" transform="scale(1 1) rotate(0) translate(4 2028)">
<title>lead_utmtags</title>
<polygon fill="#ffffff" stroke="transparent" points="-4,4 -4,-2028 521.5,-2028 521.5,4 -4,4"/>
<!-- lead_utmtags -->
<g id="node1" class="node">
<title>lead_utmtags</title>
<polygon fill="#efefef" stroke="transparent" points="239,-1942.5 239,-1977.5 458,-1977.5 458,-1942.5 239,-1942.5"/>
<polygon fill="none" stroke="#000000" points="239,-1942.5 239,-1977.5 458,-1977.5 458,-1942.5 239,-1942.5"/>
<text text-anchor="start" x="245.856" y="-1955.3" font-family="Arial Bold" font-size="18.00" fill="#000000">lead_utmtags</text>
<text text-anchor="start" x="353.8902" y="-1955.3" font-family="Arial" font-size="14.00" fill="#000000"> </text>
<text text-anchor="start" x="357.7808" y="-1955.3" font-family="Arial" font-size="14.00" fill="#666666">[BASE TABLE]</text>
<polygon fill="none" stroke="#000000" points="239,-1912.5 239,-1942.5 458,-1942.5 458,-1912.5 239,-1912.5"/>
<text text-anchor="start" x="246" y="-1923.9" font-family="Arial" font-size="14.00" fill="#000000">id </text>
<text text-anchor="start" x="260.7798" y="-1923.9" font-family="Arial" font-size="14.00" fill="#666666">[int(10) unsigned]</text>
<polygon fill="none" stroke="#000000" points="239,-1882.5 239,-1912.5 458,-1912.5 458,-1882.5 239,-1882.5"/>
<text text-anchor="start" x="246" y="-1893.9" font-family="Arial" font-size="14.00" fill="#000000">lead_id </text>
<text text-anchor="start" x="295.0168" y="-1893.9" font-family="Arial" font-size="14.00" fill="#666666">[bigint(20) unsigned]</text>
<polygon fill="none" stroke="#000000" points="239,-1852.5 239,-1882.5 458,-1882.5 458,-1852.5 239,-1852.5"/>
<text text-anchor="start" x="246" y="-1863.9" font-family="Arial" font-size="14.00" fill="#000000">date_added </text>
<text text-anchor="start" x="323.8246" y="-1863.9" font-family="Arial" font-size="14.00" fill="#666666">[datetime]</text>
<polygon fill="none" stroke="#000000" points="239,-1822.5 239,-1852.5 458,-1852.5 458,-1822.5 239,-1822.5"/>
<text text-anchor="start" x="246" y="-1833.9" font-family="Arial" font-size="14.00" fill="#000000">query </text>
<text text-anchor="start" x="284.899" y="-1833.9" font-family="Arial" font-size="14.00" fill="#666666">[longtext]</text>
<polygon fill="none" stroke="#000000" points="239,-1792.5 239,-1822.5 458,-1822.5 458,-1792.5 239,-1792.5"/>
<text text-anchor="start" x="246" y="-1803.9" font-family="Arial" font-size="14.00" fill="#000000">referer </text>
<text text-anchor="start" x="291.1108" y="-1803.9" font-family="Arial" font-size="14.00" fill="#666666">[longtext]</text>
<polygon fill="none" stroke="#000000" points="239,-1762.5 239,-1792.5 458,-1792.5 458,-1762.5 239,-1762.5"/>
<text text-anchor="start" x="246" y="-1773.9" font-family="Arial" font-size="14.00" fill="#000000">remote_host </text>
<text text-anchor="start" x="327.6886" y="-1773.9" font-family="Arial" font-size="14.00" fill="#666666">[varchar(191)]</text>
<polygon fill="none" stroke="#000000" points="239,-1732.5 239,-1762.5 458,-1762.5 458,-1732.5 239,-1732.5"/>
<text text-anchor="start" x="246" y="-1743.9" font-family="Arial" font-size="14.00" fill="#000000">url </text>
<text text-anchor="start" x="265.4404" y="-1743.9" font-family="Arial" font-size="14.00" fill="#666666">[longtext]</text>
<polygon fill="none" stroke="#000000" points="239,-1702.5 239,-1732.5 458,-1732.5 458,-1702.5 239,-1702.5"/>
<text text-anchor="start" x="246" y="-1713.9" font-family="Arial" font-size="14.00" fill="#000000">user_agent </text>
<text text-anchor="start" x="319.92" y="-1713.9" font-family="Arial" font-size="14.00" fill="#666666">[longtext]</text>
<polygon fill="none" stroke="#000000" points="239,-1672.5 239,-1702.5 458,-1702.5 458,-1672.5 239,-1672.5"/>
<text text-anchor="start" x="246" y="-1683.9" font-family="Arial" font-size="14.00" fill="#000000">utm_campaign </text>
<text text-anchor="start" x="341.6872" y="-1683.9" font-family="Arial" font-size="14.00" fill="#666666">[varchar(191)]</text>
<polygon fill="none" stroke="#000000" points="239,-1642.5 239,-1672.5 458,-1672.5 458,-1642.5 239,-1642.5"/>
<text text-anchor="start" x="246" y="-1653.9" font-family="Arial" font-size="14.00" fill="#000000">utm_content </text>
<text text-anchor="start" x="326.9186" y="-1653.9" font-family="Arial" font-size="14.00" fill="#666666">[varchar(191)]</text>
<polygon fill="none" stroke="#000000" points="239,-1612.5 239,-1642.5 458,-1642.5 458,-1612.5 239,-1612.5"/>
<text text-anchor="start" x="246" y="-1623.9" font-family="Arial" font-size="14.00" fill="#000000">utm_medium </text>
<text text-anchor="start" x="330.7826" y="-1623.9" font-family="Arial" font-size="14.00" fill="#666666">[varchar(191)]</text>
<polygon fill="none" stroke="#000000" points="239,-1582.5 239,-1612.5 458,-1612.5 458,-1582.5 239,-1582.5"/>
<text text-anchor="start" x="246" y="-1593.9" font-family="Arial" font-size="14.00" fill="#000000">utm_source </text>
<text text-anchor="start" x="323.0154" y="-1593.9" font-family="Arial" font-size="14.00" fill="#666666">[varchar(191)]</text>
<polygon fill="none" stroke="#000000" points="239,-1552.5 239,-1582.5 458,-1582.5 458,-1552.5 239,-1552.5"/>
<text text-anchor="start" x="246" y="-1563.9" font-family="Arial" font-size="14.00" fill="#000000">utm_term </text>
<text text-anchor="start" x="309.0014" y="-1563.9" font-family="Arial" font-size="14.00" fill="#666666">[varchar(191)]</text>
<polygon fill="none" stroke="#000000" stroke-width="3" points="237,-1551.5 237,-1979.5 459,-1979.5 459,-1551.5 237,-1551.5"/>
</g>
<!-- leads -->
<g id="node2" class="node">
<title>leads</title>
<polygon fill="#efefef" stroke="transparent" points="222,-1392.5 222,-1427.5 475,-1427.5 475,-1392.5 222,-1392.5"/>
<polygon fill="none" stroke="#000000" points="222,-1392.5 222,-1427.5 475,-1427.5 475,-1392.5 222,-1392.5"/>
<text text-anchor="start" x="278.3667" y="-1405.3" font-family="Arial Bold" font-size="18.00" fill="#000000">leads</text>
<text text-anchor="start" x="321.3795" y="-1405.3" font-family="Arial" font-size="14.00" fill="#000000"> </text>
<text text-anchor="start" x="325.2701" y="-1405.3" font-family="Arial" font-size="14.00" fill="#666666">[BASE TABLE]</text>
<polygon fill="none" stroke="#000000" points="222,-1362.5 222,-1392.5 475,-1392.5 475,-1362.5 222,-1362.5"/>
<text text-anchor="start" x="229" y="-1373.9" font-family="Arial" font-size="14.00" fill="#000000">id </text>
<text text-anchor="start" x="243.7798" y="-1373.9" font-family="Arial" font-size="14.00" fill="#666666">[bigint(20) unsigned]</text>
<polygon fill="none" stroke="#000000" points="222,-1332.5 222,-1362.5 475,-1362.5 475,-1332.5 222,-1332.5"/>
<text text-anchor="start" x="229" y="-1343.9" font-family="Arial" font-size="14.00" fill="#000000">owner_id </text>
<text text-anchor="start" x="289.6774" y="-1343.9" font-family="Arial" font-size="14.00" fill="#666666">[int(10) unsigned]</text>
<polygon fill="none" stroke="#000000" points="222,-1302.5 222,-1332.5 475,-1332.5 475,-1302.5 222,-1302.5"/>
<text text-anchor="start" x="229" y="-1313.9" font-family="Arial" font-size="14.00" fill="#000000">stage_id </text>
<text text-anchor="start" x="285.8008" y="-1313.9" font-family="Arial" font-size="14.00" fill="#666666">[int(10) unsigned]</text>
<polygon fill="none" stroke="#000000" points="222,-1272.5 222,-1302.5 475,-1302.5 475,-1272.5 222,-1272.5"/>
<text text-anchor="start" x="229" y="-1283.9" font-family="Arial" font-size="14.00" fill="#000000">is_published </text>
<text text-anchor="start" x="310.6886" y="-1283.9" font-family="Arial" font-size="14.00" fill="#666666">[tinyint(1)]</text>
<polygon fill="none" stroke="#000000" points="222,-1242.5 222,-1272.5 475,-1272.5 475,-1242.5 222,-1242.5"/>
<text text-anchor="start" x="229" y="-1253.9" font-family="Arial" font-size="14.00" fill="#000000">date_added </text>
<text text-anchor="start" x="306.8246" y="-1253.9" font-family="Arial" font-size="14.00" fill="#666666">[datetime]</text>
<polygon fill="none" stroke="#000000" points="222,-1212.5 222,-1242.5 475,-1242.5 475,-1212.5 222,-1212.5"/>
<text text-anchor="start" x="229" y="-1223.9" font-family="Arial" font-size="14.00" fill="#000000">created_by </text>
<text text-anchor="start" x="302.1374" y="-1223.9" font-family="Arial" font-size="14.00" fill="#666666">[int(11)]</text>
<polygon fill="none" stroke="#000000" points="222,-1182.5 222,-1212.5 475,-1212.5 475,-1182.5 222,-1182.5"/>
<text text-anchor="start" x="229" y="-1193.9" font-family="Arial" font-size="14.00" fill="#000000">created_by_user </text>
<text text-anchor="start" x="337.1458" y="-1193.9" font-family="Arial" font-size="14.00" fill="#666666">[varchar(191)]</text>
<polygon fill="none" stroke="#000000" points="222,-1152.5 222,-1182.5 475,-1182.5 475,-1152.5 222,-1152.5"/>
<text text-anchor="start" x="229" y="-1163.9" font-family="Arial" font-size="14.00" fill="#000000">date_modified </text>
<text text-anchor="start" x="320.8064" y="-1163.9" font-family="Arial" font-size="14.00" fill="#666666">[datetime]</text>
<polygon fill="none" stroke="#000000" points="222,-1122.5 222,-1152.5 475,-1152.5 475,-1122.5 222,-1122.5"/>
<text text-anchor="start" x="229" y="-1133.9" font-family="Arial" font-size="14.00" fill="#000000">modified_by </text>
<text text-anchor="start" x="308.3506" y="-1133.9" font-family="Arial" font-size="14.00" fill="#666666">[int(11)]</text>
<polygon fill="none" stroke="#000000" points="222,-1092.5 222,-1122.5 475,-1122.5 475,-1092.5 222,-1092.5"/>
<text text-anchor="start" x="229" y="-1103.9" font-family="Arial" font-size="14.00" fill="#000000">modified_by_user </text>
<text text-anchor="start" x="343.359" y="-1103.9" font-family="Arial" font-size="14.00" fill="#666666">[varchar(191)]</text>
<polygon fill="none" stroke="#000000" points="222,-1062.5 222,-1092.5 475,-1092.5 475,-1062.5 222,-1062.5"/>
<text text-anchor="start" x="229" y="-1073.9" font-family="Arial" font-size="14.00" fill="#000000">checked_out </text>
<text text-anchor="start" x="312.2594" y="-1073.9" font-family="Arial" font-size="14.00" fill="#666666">[datetime]</text>
<polygon fill="none" stroke="#000000" points="222,-1032.5 222,-1062.5 475,-1062.5 475,-1032.5 222,-1032.5"/>
<text text-anchor="start" x="229" y="-1043.9" font-family="Arial" font-size="14.00" fill="#000000">checked_out_by </text>
<text text-anchor="start" x="334.8246" y="-1043.9" font-family="Arial" font-size="14.00" fill="#666666">[int(11)]</text>
<polygon fill="none" stroke="#000000" points="222,-1002.5 222,-1032.5 475,-1032.5 475,-1002.5 222,-1002.5"/>
<text text-anchor="start" x="229" y="-1013.9" font-family="Arial" font-size="14.00" fill="#000000">checked_out_by_user </text>
<text text-anchor="start" x="369.833" y="-1013.9" font-family="Arial" font-size="14.00" fill="#666666">[varchar(191)]</text>
<polygon fill="none" stroke="#000000" points="222,-972.5 222,-1002.5 475,-1002.5 475,-972.5 222,-972.5"/>
<text text-anchor="start" x="229" y="-983.9" font-family="Arial" font-size="14.00" fill="#000000">points </text>
<text text-anchor="start" x="270.2356" y="-983.9" font-family="Arial" font-size="14.00" fill="#666666">[int(11)]</text>
<polygon fill="none" stroke="#000000" points="222,-942.5 222,-972.5 475,-972.5 475,-942.5 222,-942.5"/>
<text text-anchor="start" x="229" y="-953.9" font-family="Arial" font-size="14.00" fill="#000000">last_active </text>
<text text-anchor="start" x="299.0154" y="-953.9" font-family="Arial" font-size="14.00" fill="#666666">[datetime]</text>
<polygon fill="none" stroke="#000000" points="222,-912.5 222,-942.5 475,-942.5 475,-912.5 222,-912.5"/>
<text text-anchor="start" x="229" y="-923.9" font-family="Arial" font-size="14.00" fill="#000000">internal </text>
<text text-anchor="start" x="278.7854" y="-923.9" font-family="Arial" font-size="14.00" fill="#666666">[longtext]</text>
<polygon fill="none" stroke="#000000" points="222,-882.5 222,-912.5 475,-912.5 475,-882.5 222,-882.5"/>
<text text-anchor="start" x="229" y="-893.9" font-family="Arial" font-size="14.00" fill="#000000">social_cache </text>
<text text-anchor="start" x="313.7994" y="-893.9" font-family="Arial" font-size="14.00" fill="#666666">[longtext]</text>
<polygon fill="none" stroke="#000000" points="222,-852.5 222,-882.5 475,-882.5 475,-852.5 222,-852.5"/>
<text text-anchor="start" x="229" y="-863.9" font-family="Arial" font-size="14.00" fill="#000000">date_identified </text>
<text text-anchor="start" x="323.9256" y="-863.9" font-family="Arial" font-size="14.00" fill="#666666">[datetime]</text>
<polygon fill="none" stroke="#000000" points="222,-822.5 222,-852.5 475,-852.5 475,-822.5 222,-822.5"/>
<text text-anchor="start" x="228.7062" y="-833.9" font-family="Arial" font-size="14.00" fill="#000000">preferred_profile_image </text>
<text text-anchor="start" x="381.1746" y="-833.9" font-family="Arial" font-size="14.00" fill="#666666">[varchar(191)]</text>
<polygon fill="none" stroke="#000000" points="222,-792.5 222,-822.5 475,-822.5 475,-792.5 222,-792.5"/>
<text text-anchor="start" x="229" y="-803.9" font-family="Arial" font-size="14.00" fill="#000000">title </text>
<text text-anchor="start" x="254.6676" y="-803.9" font-family="Arial" font-size="14.00" fill="#666666">[varchar(191)]</text>
<polygon fill="none" stroke="#000000" points="222,-762.5 222,-792.5 475,-792.5 475,-762.5 222,-762.5"/>
<text text-anchor="start" x="229" y="-773.9" font-family="Arial" font-size="14.00" fill="#000000">firstname </text>
<text text-anchor="start" x="290.4474" y="-773.9" font-family="Arial" font-size="14.00" fill="#666666">[varchar(191)]</text>
<polygon fill="none" stroke="#000000" points="222,-732.5 222,-762.5 475,-762.5 475,-732.5 222,-732.5"/>
<text text-anchor="start" x="229" y="-743.9" font-family="Arial" font-size="14.00" fill="#000000">lastname </text>
<text text-anchor="start" x="289.6788" y="-743.9" font-family="Arial" font-size="14.00" fill="#666666">[varchar(191)]</text>
<polygon fill="none" stroke="#000000" points="222,-702.5 222,-732.5 475,-732.5 475,-702.5 222,-702.5"/>
<text text-anchor="start" x="229" y="-713.9" font-family="Arial" font-size="14.00" fill="#000000">company </text>
<text text-anchor="start" x="289.6816" y="-713.9" font-family="Arial" font-size="14.00" fill="#666666">[varchar(191)]</text>
<polygon fill="none" stroke="#000000" points="222,-672.5 222,-702.5 475,-702.5 475,-672.5 222,-672.5"/>
<text text-anchor="start" x="229" y="-683.9" font-family="Arial" font-size="14.00" fill="#000000">position </text>
<text text-anchor="start" x="281.1248" y="-683.9" font-family="Arial" font-size="14.00" fill="#666666">[varchar(191)]</text>
<polygon fill="none" stroke="#000000" points="222,-642.5 222,-672.5 475,-672.5 475,-642.5 222,-642.5"/>
<text text-anchor="start" x="229" y="-653.9" font-family="Arial" font-size="14.00" fill="#000000">email </text>
<text text-anchor="start" x="266.3296" y="-653.9" font-family="Arial" font-size="14.00" fill="#666666">[varchar(191)]</text>
<polygon fill="none" stroke="#000000" points="222,-612.5 222,-642.5 475,-642.5 475,-612.5 222,-612.5"/>
<text text-anchor="start" x="229" y="-623.9" font-family="Arial" font-size="14.00" fill="#000000">phone </text>
<text text-anchor="start" x="271.8036" y="-623.9" font-family="Arial" font-size="14.00" fill="#666666">[varchar(191)]</text>
<polygon fill="none" stroke="#000000" points="222,-582.5 222,-612.5 475,-612.5 475,-582.5 222,-582.5"/>
<text text-anchor="start" x="229" y="-593.9" font-family="Arial" font-size="14.00" fill="#000000">mobile </text>
<text text-anchor="start" x="274.1122" y="-593.9" font-family="Arial" font-size="14.00" fill="#666666">[varchar(191)]</text>
<polygon fill="none" stroke="#000000" points="222,-552.5 222,-582.5 475,-582.5 475,-552.5 222,-552.5"/>
<text text-anchor="start" x="229" y="-563.9" font-family="Arial" font-size="14.00" fill="#000000">address1 </text>
<text text-anchor="start" x="290.4642" y="-563.9" font-family="Arial" font-size="14.00" fill="#666666">[varchar(191)]</text>
<polygon fill="none" stroke="#000000" points="222,-522.5 222,-552.5 475,-552.5 475,-522.5 222,-522.5"/>
<text text-anchor="start" x="229" y="-533.9" font-family="Arial" font-size="14.00" fill="#000000">address2 </text>
<text text-anchor="start" x="290.4642" y="-533.9" font-family="Arial" font-size="14.00" fill="#666666">[varchar(191)]</text>
<polygon fill="none" stroke="#000000" points="222,-492.5 222,-522.5 475,-522.5 475,-492.5 222,-492.5"/>
<text text-anchor="start" x="229" y="-503.9" font-family="Arial" font-size="14.00" fill="#000000">city </text>
<text text-anchor="start" x="253.8878" y="-503.9" font-family="Arial" font-size="14.00" fill="#666666">[varchar(191)]</text>
<polygon fill="none" stroke="#000000" points="222,-462.5 222,-492.5 475,-492.5 475,-462.5 222,-462.5"/>
<text text-anchor="start" x="229" y="-473.9" font-family="Arial" font-size="14.00" fill="#000000">state </text>
<text text-anchor="start" x="263.237" y="-473.9" font-family="Arial" font-size="14.00" fill="#666666">[varchar(191)]</text>
<polygon fill="none" stroke="#000000" points="222,-432.5 222,-462.5 475,-462.5 475,-432.5 222,-432.5"/>
<text text-anchor="start" x="229" y="-443.9" font-family="Arial" font-size="14.00" fill="#000000">zipcode </text>
<text text-anchor="start" x="281.1276" y="-443.9" font-family="Arial" font-size="14.00" fill="#666666">[varchar(191)]</text>
<polygon fill="none" stroke="#000000" points="222,-402.5 222,-432.5 475,-432.5 475,-402.5 222,-402.5"/>
<text text-anchor="start" x="229" y="-413.9" font-family="Arial" font-size="14.00" fill="#000000">timezone </text>
<text text-anchor="start" x="289.6788" y="-413.9" font-family="Arial" font-size="14.00" fill="#666666">[varchar(191)]</text>
<polygon fill="none" stroke="#000000" points="222,-372.5 222,-402.5 475,-402.5 475,-372.5 222,-372.5"/>
<text text-anchor="start" x="229" y="-383.9" font-family="Arial" font-size="14.00" fill="#000000">country </text>
<text text-anchor="start" x="278.7896" y="-383.9" font-family="Arial" font-size="14.00" fill="#666666">[varchar(191)]</text>
<polygon fill="none" stroke="#000000" points="222,-342.5 222,-372.5 475,-372.5 475,-342.5 222,-342.5"/>
<text text-anchor="start" x="229" y="-353.9" font-family="Arial" font-size="14.00" fill="#000000">fax </text>
<text text-anchor="start" x="251.5638" y="-353.9" font-family="Arial" font-size="14.00" fill="#666666">[varchar(255)]</text>
<polygon fill="none" stroke="#000000" points="222,-312.5 222,-342.5 475,-342.5 475,-312.5 222,-312.5"/>
<text text-anchor="start" x="229" y="-323.9" font-family="Arial" font-size="14.00" fill="#000000">preferred_locale </text>
<text text-anchor="start" x="334.0196" y="-323.9" font-family="Arial" font-size="14.00" fill="#666666">[varchar(255)]</text>
<polygon fill="none" stroke="#000000" points="222,-282.5 222,-312.5 475,-312.5 475,-282.5 222,-282.5"/>
<text text-anchor="start" x="229" y="-293.9" font-family="Arial" font-size="14.00" fill="#000000">attribution_date </text>
<text text-anchor="start" x="329.3702" y="-293.9" font-family="Arial" font-size="14.00" fill="#666666">[datetime]</text>
<polygon fill="none" stroke="#000000" points="222,-252.5 222,-282.5 475,-282.5 475,-252.5 222,-252.5"/>
<text text-anchor="start" x="229" y="-263.9" font-family="Arial" font-size="14.00" fill="#000000">attribution </text>
<text text-anchor="start" x="294.3492" y="-263.9" font-family="Arial" font-size="14.00" fill="#666666">[double]</text>
<polygon fill="none" stroke="#000000" points="222,-222.5 222,-252.5 475,-252.5 475,-222.5 222,-222.5"/>
<text text-anchor="start" x="229" y="-233.9" font-family="Arial" font-size="14.00" fill="#000000">website </text>
<text text-anchor="start" x="280.3422" y="-233.9" font-family="Arial" font-size="14.00" fill="#666666">[longtext]</text>
<polygon fill="none" stroke="#000000" points="222,-192.5 222,-222.5 475,-222.5 475,-192.5 222,-192.5"/>
<text text-anchor="start" x="229" y="-203.9" font-family="Arial" font-size="14.00" fill="#000000">facebook </text>
<text text-anchor="start" x="289.6942" y="-203.9" font-family="Arial" font-size="14.00" fill="#666666">[varchar(255)]</text>
<polygon fill="none" stroke="#000000" points="222,-162.5 222,-192.5 475,-192.5 475,-162.5 222,-162.5"/>
<text text-anchor="start" x="229" y="-173.9" font-family="Arial" font-size="14.00" fill="#000000">foursquare </text>
<text text-anchor="start" x="299.798" y="-173.9" font-family="Arial" font-size="14.00" fill="#666666">[varchar(255)]</text>
<polygon fill="none" stroke="#000000" points="222,-132.5 222,-162.5 475,-162.5 475,-132.5 222,-132.5"/>
<text text-anchor="start" x="229" y="-143.9" font-family="Arial" font-size="14.00" fill="#000000">instagram </text>
<text text-anchor="start" x="294.3394" y="-143.9" font-family="Arial" font-size="14.00" fill="#666666">[varchar(255)]</text>
<polygon fill="none" stroke="#000000" points="222,-102.5 222,-132.5 475,-132.5 475,-102.5 222,-102.5"/>
<text text-anchor="start" x="229" y="-113.9" font-family="Arial" font-size="14.00" fill="#000000">linkedin </text>
<text text-anchor="start" x="280.3408" y="-113.9" font-family="Arial" font-size="14.00" fill="#666666">[varchar(255)]</text>
<polygon fill="none" stroke="#000000" points="222,-72.5 222,-102.5 475,-102.5 475,-72.5 222,-72.5"/>
<text text-anchor="start" x="229" y="-83.9" font-family="Arial" font-size="14.00" fill="#000000">skype </text>
<text text-anchor="start" x="269.4558" y="-83.9" font-family="Arial" font-size="14.00" fill="#666666">[varchar(255)]</text>
<polygon fill="none" stroke="#000000" points="222,-42.5 222,-72.5 475,-72.5 475,-42.5 222,-42.5"/>
<text text-anchor="start" x="229" y="-53.9" font-family="Arial" font-size="14.00" fill="#000000">twitter </text>
<text text-anchor="start" x="270.2188" y="-53.9" font-family="Arial" font-size="14.00" fill="#666666">[varchar(255)]</text>
</g>
<!-- lead_utmtags&#45;&gt;leads -->
<g id="edge1" class="edge">
<title>lead_utmtags:lead_id&#45;&gt;leads:id</title>
<path fill="none" stroke="#000000" d="M229.8875,-1893.0046C179.5557,-1842.1802 167.3528,-1377.5 222,-1377.5"/>
<polygon fill="#000000" stroke="#000000" points="230.0319,-1893.0758 237.0091,-1901.5356 234.5159,-1895.2879 239,-1897.5 239,-1897.5 239,-1897.5 234.5159,-1895.2879 240.9909,-1893.4644 230.0319,-1893.0758 230.0319,-1893.0758"/>
<text text-anchor="start" x="7.496" y="-1907.5" font-family="Arial" font-size="10.00" fill="#000000">FOREIGN KEY (lead_id) REFERENCES leads (id)</text>
</g>
</g>
</svg>
