<?xml version="1.0" encoding="UTF-8" standalone="no"?>
<!DOCTYPE svg PUBLIC "-//W3C//DTD SVG 1.1//EN"
 "http://www.w3.org/Graphics/SVG/1.1/DTD/svg11.dtd">
<!-- Generated by graphviz version 2.40.1 (20161225.0304)
 -->
<!-- Title: lead_event_log Pages: 1 -->
<svg width="533pt" height="1942pt"
 viewBox="0.00 0.00 532.50 1942.00" xmlns="http://www.w3.org/2000/svg" xmlns:xlink="http://www.w3.org/1999/xlink">
<g id="graph0" class="graph" transform="scale(1 1) rotate(0) translate(4 1938)">
<title>lead_event_log</title>
<polygon fill="#ffffff" stroke="transparent" points="-4,4 -4,-1938 528.5,-1938 528.5,4 -4,4"/>
<!-- lead_event_log -->
<g id="node1" class="node">
<title>lead_event_log</title>
<polygon fill="#efefef" stroke="transparent" points="239,-1852.5 239,-1887.5 472,-1887.5 472,-1852.5 239,-1852.5"/>
<polygon fill="none" stroke="#000000" points="239,-1852.5 239,-1887.5 472,-1887.5 472,-1852.5 239,-1852.5"/>
<text text-anchor="start" x="245.8468" y="-1865.3" font-family="Arial Bold" font-size="18.00" fill="#000000">lead_event_log</text>
<text text-anchor="start" x="367.8994" y="-1865.3" font-family="Arial" font-size="14.00" fill="#000000"> </text>
<text text-anchor="start" x="371.79" y="-1865.3" font-family="Arial" font-size="14.00" fill="#666666">[BASE TABLE]</text>
<polygon fill="none" stroke="#000000" points="239,-1822.5 239,-1852.5 472,-1852.5 472,-1822.5 239,-1822.5"/>
<text text-anchor="start" x="246" y="-1833.9" font-family="Arial" font-size="14.00" fill="#000000">id </text>
<text text-anchor="start" x="260.7798" y="-1833.9" font-family="Arial" font-size="14.00" fill="#666666">[bigint(20) unsigned]</text>
<polygon fill="none" stroke="#000000" points="239,-1792.5 239,-1822.5 472,-1822.5 472,-1792.5 239,-1792.5"/>
<text text-anchor="start" x="246" y="-1803.9" font-family="Arial" font-size="14.00" fill="#000000">lead_id </text>
<text text-anchor="start" x="295.0168" y="-1803.9" font-family="Arial" font-size="14.00" fill="#666666">[bigint(20) unsigned]</text>
<polygon fill="none" stroke="#000000" points="239,-1762.5 239,-1792.5 472,-1792.5 472,-1762.5 239,-1762.5"/>
<text text-anchor="start" x="246" y="-1773.9" font-family="Arial" font-size="14.00" fill="#000000">user_id </text>
<text text-anchor="start" x="295.7882" y="-1773.9" font-family="Arial" font-size="14.00" fill="#666666">[int(11)]</text>
<polygon fill="none" stroke="#000000" points="239,-1732.5 239,-1762.5 472,-1762.5 472,-1732.5 239,-1732.5"/>
<text text-anchor="start" x="246" y="-1743.9" font-family="Arial" font-size="14.00" fill="#000000">user_name </text>
<text text-anchor="start" x="319.9074" y="-1743.9" font-family="Arial" font-size="14.00" fill="#666666">[varchar(191)]</text>
<polygon fill="none" stroke="#000000" points="239,-1702.5 239,-1732.5 472,-1732.5 472,-1702.5 239,-1702.5"/>
<text text-anchor="start" x="246" y="-1713.9" font-family="Arial" font-size="14.00" fill="#000000">bundle </text>
<text text-anchor="start" x="291.9102" y="-1713.9" font-family="Arial" font-size="14.00" fill="#666666">[varchar(191)]</text>
<polygon fill="none" stroke="#000000" points="239,-1672.5 239,-1702.5 472,-1702.5 472,-1672.5 239,-1672.5"/>
<text text-anchor="start" x="246" y="-1683.9" font-family="Arial" font-size="14.00" fill="#000000">object </text>
<text text-anchor="start" x="287.2356" y="-1683.9" font-family="Arial" font-size="14.00" fill="#666666">[varchar(191)]</text>
<polygon fill="none" stroke="#000000" points="239,-1642.5 239,-1672.5 472,-1672.5 472,-1642.5 239,-1642.5"/>
<text text-anchor="start" x="246" y="-1653.9" font-family="Arial" font-size="14.00" fill="#000000">action </text>
<text text-anchor="start" x="287.2356" y="-1653.9" font-family="Arial" font-size="14.00" fill="#666666">[varchar(191)]</text>
<polygon fill="none" stroke="#000000" points="239,-1612.5 239,-1642.5 472,-1642.5 472,-1612.5 239,-1612.5"/>
<text text-anchor="start" x="246" y="-1623.9" font-family="Arial" font-size="14.00" fill="#000000">object_id </text>
<text text-anchor="start" x="305.9074" y="-1623.9" font-family="Arial" font-size="14.00" fill="#666666">[int(11)]</text>
<polygon fill="none" stroke="#000000" points="239,-1582.5 239,-1612.5 472,-1612.5 472,-1582.5 239,-1582.5"/>
<text text-anchor="start" x="246" y="-1593.9" font-family="Arial" font-size="14.00" fill="#000000">date_added </text>
<text text-anchor="start" x="323.8246" y="-1593.9" font-family="Arial" font-size="14.00" fill="#666666">[datetime]</text>
<polygon fill="none" stroke="#000000" points="239,-1552.5 239,-1582.5 472,-1582.5 472,-1552.5 239,-1552.5"/>
<text text-anchor="start" x="246" y="-1563.9" font-family="Arial" font-size="14.00" fill="#000000">properties </text>
<text text-anchor="start" x="312.122" y="-1563.9" font-family="Arial" font-size="14.00" fill="#666666">[longtext]</text>
<polygon fill="none" stroke="#000000" stroke-width="3" points="237,-1551.5 237,-1889.5 473,-1889.5 473,-1551.5 237,-1551.5"/>
</g>
<!-- leads -->
<g id="node2" class="node">
<title>leads</title>
<polygon fill="#efefef" stroke="transparent" points="229,-1392.5 229,-1427.5 482,-1427.5 482,-1392.5 229,-1392.5"/>
<polygon fill="none" stroke="#000000" points="229,-1392.5 229,-1427.5 482,-1427.5 482,-1392.5 229,-1392.5"/>
<text text-anchor="start" x="285.3667" y="-1405.3" font-family="Arial Bold" font-size="18.00" fill="#000000">leads</text>
<text text-anchor="start" x="328.3795" y="-1405.3" font-family="Arial" font-size="14.00" fill="#000000"> </text>
<text text-anchor="start" x="332.2701" y="-1405.3" font-family="Arial" font-size="14.00" fill="#666666">[BASE TABLE]</text>
<polygon fill="none" stroke="#000000" points="229,-1362.5 229,-1392.5 482,-1392.5 482,-1362.5 229,-1362.5"/>
<text text-anchor="start" x="236" y="-1373.9" font-family="Arial" font-size="14.00" fill="#000000">id </text>
<text text-anchor="start" x="250.7798" y="-1373.9" font-family="Arial" font-size="14.00" fill="#666666">[bigint(20) unsigned]</text>
<polygon fill="none" stroke="#000000" points="229,-1332.5 229,-1362.5 482,-1362.5 482,-1332.5 229,-1332.5"/>
<text text-anchor="start" x="236" y="-1343.9" font-family="Arial" font-size="14.00" fill="#000000">owner_id </text>
<text text-anchor="start" x="296.6774" y="-1343.9" font-family="Arial" font-size="14.00" fill="#666666">[int(10) unsigned]</text>
<polygon fill="none" stroke="#000000" points="229,-1302.5 229,-1332.5 482,-1332.5 482,-1302.5 229,-1302.5"/>
<text text-anchor="start" x="236" y="-1313.9" font-family="Arial" font-size="14.00" fill="#000000">stage_id </text>
<text text-anchor="start" x="292.8008" y="-1313.9" font-family="Arial" font-size="14.00" fill="#666666">[int(10) unsigned]</text>
<polygon fill="none" stroke="#000000" points="229,-1272.5 229,-1302.5 482,-1302.5 482,-1272.5 229,-1272.5"/>
<text text-anchor="start" x="236" y="-1283.9" font-family="Arial" font-size="14.00" fill="#000000">is_published </text>
<text text-anchor="start" x="317.6886" y="-1283.9" font-family="Arial" font-size="14.00" fill="#666666">[tinyint(1)]</text>
<polygon fill="none" stroke="#000000" points="229,-1242.5 229,-1272.5 482,-1272.5 482,-1242.5 229,-1242.5"/>
<text text-anchor="start" x="236" y="-1253.9" font-family="Arial" font-size="14.00" fill="#000000">date_added </text>
<text text-anchor="start" x="313.8246" y="-1253.9" font-family="Arial" font-size="14.00" fill="#666666">[datetime]</text>
<polygon fill="none" stroke="#000000" points="229,-1212.5 229,-1242.5 482,-1242.5 482,-1212.5 229,-1212.5"/>
<text text-anchor="start" x="236" y="-1223.9" font-family="Arial" font-size="14.00" fill="#000000">created_by </text>
<text text-anchor="start" x="309.1374" y="-1223.9" font-family="Arial" font-size="14.00" fill="#666666">[int(11)]</text>
<polygon fill="none" stroke="#000000" points="229,-1182.5 229,-1212.5 482,-1212.5 482,-1182.5 229,-1182.5"/>
<text text-anchor="start" x="236" y="-1193.9" font-family="Arial" font-size="14.00" fill="#000000">created_by_user </text>
<text text-anchor="start" x="344.1458" y="-1193.9" font-family="Arial" font-size="14.00" fill="#666666">[varchar(191)]</text>
<polygon fill="none" stroke="#000000" points="229,-1152.5 229,-1182.5 482,-1182.5 482,-1152.5 229,-1152.5"/>
<text text-anchor="start" x="236" y="-1163.9" font-family="Arial" font-size="14.00" fill="#000000">date_modified </text>
<text text-anchor="start" x="327.8064" y="-1163.9" font-family="Arial" font-size="14.00" fill="#666666">[datetime]</text>
<polygon fill="none" stroke="#000000" points="229,-1122.5 229,-1152.5 482,-1152.5 482,-1122.5 229,-1122.5"/>
<text text-anchor="start" x="236" y="-1133.9" font-family="Arial" font-size="14.00" fill="#000000">modified_by </text>
<text text-anchor="start" x="315.3506" y="-1133.9" font-family="Arial" font-size="14.00" fill="#666666">[int(11)]</text>
<polygon fill="none" stroke="#000000" points="229,-1092.5 229,-1122.5 482,-1122.5 482,-1092.5 229,-1092.5"/>
<text text-anchor="start" x="236" y="-1103.9" font-family="Arial" font-size="14.00" fill="#000000">modified_by_user </text>
<text text-anchor="start" x="350.359" y="-1103.9" font-family="Arial" font-size="14.00" fill="#666666">[varchar(191)]</text>
<polygon fill="none" stroke="#000000" points="229,-1062.5 229,-1092.5 482,-1092.5 482,-1062.5 229,-1062.5"/>
<text text-anchor="start" x="236" y="-1073.9" font-family="Arial" font-size="14.00" fill="#000000">checked_out </text>
<text text-anchor="start" x="319.2594" y="-1073.9" font-family="Arial" font-size="14.00" fill="#666666">[datetime]</text>
<polygon fill="none" stroke="#000000" points="229,-1032.5 229,-1062.5 482,-1062.5 482,-1032.5 229,-1032.5"/>
<text text-anchor="start" x="236" y="-1043.9" font-family="Arial" font-size="14.00" fill="#000000">checked_out_by </text>
<text text-anchor="start" x="341.8246" y="-1043.9" font-family="Arial" font-size="14.00" fill="#666666">[int(11)]</text>
<polygon fill="none" stroke="#000000" points="229,-1002.5 229,-1032.5 482,-1032.5 482,-1002.5 229,-1002.5"/>
<text text-anchor="start" x="236" y="-1013.9" font-family="Arial" font-size="14.00" fill="#000000">checked_out_by_user </text>
<text text-anchor="start" x="376.833" y="-1013.9" font-family="Arial" font-size="14.00" fill="#666666">[varchar(191)]</text>
<polygon fill="none" stroke="#000000" points="229,-972.5 229,-1002.5 482,-1002.5 482,-972.5 229,-972.5"/>
<text text-anchor="start" x="236" y="-983.9" font-family="Arial" font-size="14.00" fill="#000000">points </text>
<text text-anchor="start" x="277.2356" y="-983.9" font-family="Arial" font-size="14.00" fill="#666666">[int(11)]</text>
<polygon fill="none" stroke="#000000" points="229,-942.5 229,-972.5 482,-972.5 482,-942.5 229,-942.5"/>
<text text-anchor="start" x="236" y="-953.9" font-family="Arial" font-size="14.00" fill="#000000">last_active </text>
<text text-anchor="start" x="306.0154" y="-953.9" font-family="Arial" font-size="14.00" fill="#666666">[datetime]</text>
<polygon fill="none" stroke="#000000" points="229,-912.5 229,-942.5 482,-942.5 482,-912.5 229,-912.5"/>
<text text-anchor="start" x="236" y="-923.9" font-family="Arial" font-size="14.00" fill="#000000">internal </text>
<text text-anchor="start" x="285.7854" y="-923.9" font-family="Arial" font-size="14.00" fill="#666666">[longtext]</text>
<polygon fill="none" stroke="#000000" points="229,-882.5 229,-912.5 482,-912.5 482,-882.5 229,-882.5"/>
<text text-anchor="start" x="236" y="-893.9" font-family="Arial" font-size="14.00" fill="#000000">social_cache </text>
<text text-anchor="start" x="320.7994" y="-893.9" font-family="Arial" font-size="14.00" fill="#666666">[longtext]</text>
<polygon fill="none" stroke="#000000" points="229,-852.5 229,-882.5 482,-882.5 482,-852.5 229,-852.5"/>
<text text-anchor="start" x="236" y="-863.9" font-family="Arial" font-size="14.00" fill="#000000">date_identified </text>
<text text-anchor="start" x="330.9256" y="-863.9" font-family="Arial" font-size="14.00" fill="#666666">[datetime]</text>
<polygon fill="none" stroke="#000000" points="229,-822.5 229,-852.5 482,-852.5 482,-822.5 229,-822.5"/>
<text text-anchor="start" x="235.7062" y="-833.9" font-family="Arial" font-size="14.00" fill="#000000">preferred_profile_image </text>
<text text-anchor="start" x="388.1746" y="-833.9" font-family="Arial" font-size="14.00" fill="#666666">[varchar(191)]</text>
<polygon fill="none" stroke="#000000" points="229,-792.5 229,-822.5 482,-822.5 482,-792.5 229,-792.5"/>
<text text-anchor="start" x="236" y="-803.9" font-family="Arial" font-size="14.00" fill="#000000">title </text>
<text text-anchor="start" x="261.6676" y="-803.9" font-family="Arial" font-size="14.00" fill="#666666">[varchar(191)]</text>
<polygon fill="none" stroke="#000000" points="229,-762.5 229,-792.5 482,-792.5 482,-762.5 229,-762.5"/>
<text text-anchor="start" x="236" y="-773.9" font-family="Arial" font-size="14.00" fill="#000000">firstname </text>
<text text-anchor="start" x="297.4474" y="-773.9" font-family="Arial" font-size="14.00" fill="#666666">[varchar(191)]</text>
<polygon fill="none" stroke="#000000" points="229,-732.5 229,-762.5 482,-762.5 482,-732.5 229,-732.5"/>
<text text-anchor="start" x="236" y="-743.9" font-family="Arial" font-size="14.00" fill="#000000">lastname </text>
<text text-anchor="start" x="296.6788" y="-743.9" font-family="Arial" font-size="14.00" fill="#666666">[varchar(191)]</text>
<polygon fill="none" stroke="#000000" points="229,-702.5 229,-732.5 482,-732.5 482,-702.5 229,-702.5"/>
<text text-anchor="start" x="236" y="-713.9" font-family="Arial" font-size="14.00" fill="#000000">company </text>
<text text-anchor="start" x="296.6816" y="-713.9" font-family="Arial" font-size="14.00" fill="#666666">[varchar(191)]</text>
<polygon fill="none" stroke="#000000" points="229,-672.5 229,-702.5 482,-702.5 482,-672.5 229,-672.5"/>
<text text-anchor="start" x="236" y="-683.9" font-family="Arial" font-size="14.00" fill="#000000">position </text>
<text text-anchor="start" x="288.1248" y="-683.9" font-family="Arial" font-size="14.00" fill="#666666">[varchar(191)]</text>
<polygon fill="none" stroke="#000000" points="229,-642.5 229,-672.5 482,-672.5 482,-642.5 229,-642.5"/>
<text text-anchor="start" x="236" y="-653.9" font-family="Arial" font-size="14.00" fill="#000000">email </text>
<text text-anchor="start" x="273.3296" y="-653.9" font-family="Arial" font-size="14.00" fill="#666666">[varchar(191)]</text>
<polygon fill="none" stroke="#000000" points="229,-612.5 229,-642.5 482,-642.5 482,-612.5 229,-612.5"/>
<text text-anchor="start" x="236" y="-623.9" font-family="Arial" font-size="14.00" fill="#000000">phone </text>
<text text-anchor="start" x="278.8036" y="-623.9" font-family="Arial" font-size="14.00" fill="#666666">[varchar(191)]</text>
<polygon fill="none" stroke="#000000" points="229,-582.5 229,-612.5 482,-612.5 482,-582.5 229,-582.5"/>
<text text-anchor="start" x="236" y="-593.9" font-family="Arial" font-size="14.00" fill="#000000">mobile </text>
<text text-anchor="start" x="281.1122" y="-593.9" font-family="Arial" font-size="14.00" fill="#666666">[varchar(191)]</text>
<polygon fill="none" stroke="#000000" points="229,-552.5 229,-582.5 482,-582.5 482,-552.5 229,-552.5"/>
<text text-anchor="start" x="236" y="-563.9" font-family="Arial" font-size="14.00" fill="#000000">address1 </text>
<text text-anchor="start" x="297.4642" y="-563.9" font-family="Arial" font-size="14.00" fill="#666666">[varchar(191)]</text>
<polygon fill="none" stroke="#000000" points="229,-522.5 229,-552.5 482,-552.5 482,-522.5 229,-522.5"/>
<text text-anchor="start" x="236" y="-533.9" font-family="Arial" font-size="14.00" fill="#000000">address2 </text>
<text text-anchor="start" x="297.4642" y="-533.9" font-family="Arial" font-size="14.00" fill="#666666">[varchar(191)]</text>
<polygon fill="none" stroke="#000000" points="229,-492.5 229,-522.5 482,-522.5 482,-492.5 229,-492.5"/>
<text text-anchor="start" x="236" y="-503.9" font-family="Arial" font-size="14.00" fill="#000000">city </text>
<text text-anchor="start" x="260.8878" y="-503.9" font-family="Arial" font-size="14.00" fill="#666666">[varchar(191)]</text>
<polygon fill="none" stroke="#000000" points="229,-462.5 229,-492.5 482,-492.5 482,-462.5 229,-462.5"/>
<text text-anchor="start" x="236" y="-473.9" font-family="Arial" font-size="14.00" fill="#000000">state </text>
<text text-anchor="start" x="270.237" y="-473.9" font-family="Arial" font-size="14.00" fill="#666666">[varchar(191)]</text>
<polygon fill="none" stroke="#000000" points="229,-432.5 229,-462.5 482,-462.5 482,-432.5 229,-432.5"/>
<text text-anchor="start" x="236" y="-443.9" font-family="Arial" font-size="14.00" fill="#000000">zipcode </text>
<text text-anchor="start" x="288.1276" y="-443.9" font-family="Arial" font-size="14.00" fill="#666666">[varchar(191)]</text>
<polygon fill="none" stroke="#000000" points="229,-402.5 229,-432.5 482,-432.5 482,-402.5 229,-402.5"/>
<text text-anchor="start" x="236" y="-413.9" font-family="Arial" font-size="14.00" fill="#000000">timezone </text>
<text text-anchor="start" x="296.6788" y="-413.9" font-family="Arial" font-size="14.00" fill="#666666">[varchar(191)]</text>
<polygon fill="none" stroke="#000000" points="229,-372.5 229,-402.5 482,-402.5 482,-372.5 229,-372.5"/>
<text text-anchor="start" x="236" y="-383.9" font-family="Arial" font-size="14.00" fill="#000000">country </text>
<text text-anchor="start" x="285.7896" y="-383.9" font-family="Arial" font-size="14.00" fill="#666666">[varchar(191)]</text>
<polygon fill="none" stroke="#000000" points="229,-342.5 229,-372.5 482,-372.5 482,-342.5 229,-342.5"/>
<text text-anchor="start" x="236" y="-353.9" font-family="Arial" font-size="14.00" fill="#000000">fax </text>
<text text-anchor="start" x="258.5638" y="-353.9" font-family="Arial" font-size="14.00" fill="#666666">[varchar(255)]</text>
<polygon fill="none" stroke="#000000" points="229,-312.5 229,-342.5 482,-342.5 482,-312.5 229,-312.5"/>
<text text-anchor="start" x="236" y="-323.9" font-family="Arial" font-size="14.00" fill="#000000">preferred_locale </text>
<text text-anchor="start" x="341.0196" y="-323.9" font-family="Arial" font-size="14.00" fill="#666666">[varchar(255)]</text>
<polygon fill="none" stroke="#000000" points="229,-282.5 229,-312.5 482,-312.5 482,-282.5 229,-282.5"/>
<text text-anchor="start" x="236" y="-293.9" font-family="Arial" font-size="14.00" fill="#000000">attribution_date </text>
<text text-anchor="start" x="336.3702" y="-293.9" font-family="Arial" font-size="14.00" fill="#666666">[datetime]</text>
<polygon fill="none" stroke="#000000" points="229,-252.5 229,-282.5 482,-282.5 482,-252.5 229,-252.5"/>
<text text-anchor="start" x="236" y="-263.9" font-family="Arial" font-size="14.00" fill="#000000">attribution </text>
<text text-anchor="start" x="301.3492" y="-263.9" font-family="Arial" font-size="14.00" fill="#666666">[double]</text>
<polygon fill="none" stroke="#000000" points="229,-222.5 229,-252.5 482,-252.5 482,-222.5 229,-222.5"/>
<text text-anchor="start" x="236" y="-233.9" font-family="Arial" font-size="14.00" fill="#000000">website </text>
<text text-anchor="start" x="287.3422" y="-233.9" font-family="Arial" font-size="14.00" fill="#666666">[longtext]</text>
<polygon fill="none" stroke="#000000" points="229,-192.5 229,-222.5 482,-222.5 482,-192.5 229,-192.5"/>
<text text-anchor="start" x="236" y="-203.9" font-family="Arial" font-size="14.00" fill="#000000">facebook </text>
<text text-anchor="start" x="296.6942" y="-203.9" font-family="Arial" font-size="14.00" fill="#666666">[varchar(255)]</text>
<polygon fill="none" stroke="#000000" points="229,-162.5 229,-192.5 482,-192.5 482,-162.5 229,-162.5"/>
<text text-anchor="start" x="236" y="-173.9" font-family="Arial" font-size="14.00" fill="#000000">foursquare </text>
<text text-anchor="start" x="306.798" y="-173.9" font-family="Arial" font-size="14.00" fill="#666666">[varchar(255)]</text>
<polygon fill="none" stroke="#000000" points="229,-132.5 229,-162.5 482,-162.5 482,-132.5 229,-132.5"/>
<text text-anchor="start" x="236" y="-143.9" font-family="Arial" font-size="14.00" fill="#000000">instagram </text>
<text text-anchor="start" x="301.3394" y="-143.9" font-family="Arial" font-size="14.00" fill="#666666">[varchar(255)]</text>
<polygon fill="none" stroke="#000000" points="229,-102.5 229,-132.5 482,-132.5 482,-102.5 229,-102.5"/>
<text text-anchor="start" x="236" y="-113.9" font-family="Arial" font-size="14.00" fill="#000000">linkedin </text>
<text text-anchor="start" x="287.3408" y="-113.9" font-family="Arial" font-size="14.00" fill="#666666">[varchar(255)]</text>
<polygon fill="none" stroke="#000000" points="229,-72.5 229,-102.5 482,-102.5 482,-72.5 229,-72.5"/>
<text text-anchor="start" x="236" y="-83.9" font-family="Arial" font-size="14.00" fill="#000000">skype </text>
<text text-anchor="start" x="276.4558" y="-83.9" font-family="Arial" font-size="14.00" fill="#666666">[varchar(255)]</text>
<polygon fill="none" stroke="#000000" points="229,-42.5 229,-72.5 482,-72.5 482,-42.5 229,-42.5"/>
<text text-anchor="start" x="236" y="-53.9" font-family="Arial" font-size="14.00" fill="#000000">twitter </text>
<text text-anchor="start" x="277.2188" y="-53.9" font-family="Arial" font-size="14.00" fill="#666666">[varchar(255)]</text>
</g>
<!-- lead_event_log&#45;&gt;leads -->
<g id="edge1" class="edge">
<title>lead_event_log:lead_id&#45;&gt;leads:id</title>
<path fill="none" stroke="#000000" d="M228.9753,-1805.8564C142.8338,-1776.9872 136.8722,-1377.5 229,-1377.5"/>
<polygon fill="#000000" stroke="#000000" points="229.1318,-1805.8819 238.2719,-1811.9407 234.0659,-1806.691 239,-1807.5 239,-1807.5 239,-1807.5 234.0659,-1806.691 239.7281,-1803.0593 229.1318,-1805.8819 229.1318,-1805.8819"/>
<text text-anchor="start" x="7.496" y="-1817.5" font-family="Arial" font-size="10.00" fill="#000000">FOREIGN KEY (lead_id) REFERENCES leads (id)</text>
</g>
</g>
</svg>
