<?xml version="1.0" encoding="UTF-8" standalone="no"?>
<!DOCTYPE svg PUBLIC "-//W3C//DTD SVG 1.1//EN"
 "http://www.w3.org/Graphics/SVG/1.1/DTD/svg11.dtd">
<!-- Generated by graphviz version 2.40.1 (20161225.0304)
 -->
<!-- Title: lead_notes Pages: 1 -->
<svg width="537pt" height="2092pt"
 viewBox="0.00 0.00 536.50 2092.00" xmlns="http://www.w3.org/2000/svg" xmlns:xlink="http://www.w3.org/1999/xlink">
<g id="graph0" class="graph" transform="scale(1 1) rotate(0) translate(4 2088)">
<title>lead_notes</title>
<polygon fill="#ffffff" stroke="transparent" points="-4,4 -4,-2088 532.5,-2088 532.5,4 -4,4"/>
<!-- lead_notes -->
<g id="node1" class="node">
<title>lead_notes</title>
<polygon fill="#efefef" stroke="transparent" points="239,-2002.5 239,-2037.5 480,-2037.5 480,-2002.5 239,-2002.5"/>
<polygon fill="none" stroke="#000000" points="239,-2002.5 239,-2037.5 480,-2037.5 480,-2002.5 239,-2002.5"/>
<text text-anchor="start" x="266.8532" y="-2015.3" font-family="Arial Bold" font-size="18.00" fill="#000000">lead_notes</text>
<text text-anchor="start" x="354.893" y="-2015.3" font-family="Arial" font-size="14.00" fill="#000000"> </text>
<text text-anchor="start" x="358.7836" y="-2015.3" font-family="Arial" font-size="14.00" fill="#666666">[BASE TABLE]</text>
<polygon fill="none" stroke="#000000" points="239,-1972.5 239,-2002.5 480,-2002.5 480,-1972.5 239,-1972.5"/>
<text text-anchor="start" x="246" y="-1983.9" font-family="Arial" font-size="14.00" fill="#000000">id </text>
<text text-anchor="start" x="260.7798" y="-1983.9" font-family="Arial" font-size="14.00" fill="#666666">[int(10) unsigned]</text>
<polygon fill="none" stroke="#000000" points="239,-1942.5 239,-1972.5 480,-1972.5 480,-1942.5 239,-1942.5"/>
<text text-anchor="start" x="246" y="-1953.9" font-family="Arial" font-size="14.00" fill="#000000">lead_id </text>
<text text-anchor="start" x="295.0168" y="-1953.9" font-family="Arial" font-size="14.00" fill="#666666">[bigint(20) unsigned]</text>
<polygon fill="none" stroke="#000000" points="239,-1912.5 239,-1942.5 480,-1942.5 480,-1912.5 239,-1912.5"/>
<text text-anchor="start" x="246" y="-1923.9" font-family="Arial" font-size="14.00" fill="#000000">is_published </text>
<text text-anchor="start" x="327.6886" y="-1923.9" font-family="Arial" font-size="14.00" fill="#666666">[tinyint(1)]</text>
<polygon fill="none" stroke="#000000" points="239,-1882.5 239,-1912.5 480,-1912.5 480,-1882.5 239,-1882.5"/>
<text text-anchor="start" x="246" y="-1893.9" font-family="Arial" font-size="14.00" fill="#000000">date_added </text>
<text text-anchor="start" x="323.8246" y="-1893.9" font-family="Arial" font-size="14.00" fill="#666666">[datetime]</text>
<polygon fill="none" stroke="#000000" points="239,-1852.5 239,-1882.5 480,-1882.5 480,-1852.5 239,-1852.5"/>
<text text-anchor="start" x="246" y="-1863.9" font-family="Arial" font-size="14.00" fill="#000000">created_by </text>
<text text-anchor="start" x="319.1374" y="-1863.9" font-family="Arial" font-size="14.00" fill="#666666">[int(11)]</text>
<polygon fill="none" stroke="#000000" points="239,-1822.5 239,-1852.5 480,-1852.5 480,-1822.5 239,-1822.5"/>
<text text-anchor="start" x="246" y="-1833.9" font-family="Arial" font-size="14.00" fill="#000000">created_by_user </text>
<text text-anchor="start" x="354.1458" y="-1833.9" font-family="Arial" font-size="14.00" fill="#666666">[varchar(191)]</text>
<polygon fill="none" stroke="#000000" points="239,-1792.5 239,-1822.5 480,-1822.5 480,-1792.5 239,-1792.5"/>
<text text-anchor="start" x="246" y="-1803.9" font-family="Arial" font-size="14.00" fill="#000000">date_modified </text>
<text text-anchor="start" x="337.8064" y="-1803.9" font-family="Arial" font-size="14.00" fill="#666666">[datetime]</text>
<polygon fill="none" stroke="#000000" points="239,-1762.5 239,-1792.5 480,-1792.5 480,-1762.5 239,-1762.5"/>
<text text-anchor="start" x="246" y="-1773.9" font-family="Arial" font-size="14.00" fill="#000000">modified_by </text>
<text text-anchor="start" x="325.3506" y="-1773.9" font-family="Arial" font-size="14.00" fill="#666666">[int(11)]</text>
<polygon fill="none" stroke="#000000" points="239,-1732.5 239,-1762.5 480,-1762.5 480,-1732.5 239,-1732.5"/>
<text text-anchor="start" x="246" y="-1743.9" font-family="Arial" font-size="14.00" fill="#000000">modified_by_user </text>
<text text-anchor="start" x="360.359" y="-1743.9" font-family="Arial" font-size="14.00" fill="#666666">[varchar(191)]</text>
<polygon fill="none" stroke="#000000" points="239,-1702.5 239,-1732.5 480,-1732.5 480,-1702.5 239,-1702.5"/>
<text text-anchor="start" x="246" y="-1713.9" font-family="Arial" font-size="14.00" fill="#000000">checked_out </text>
<text text-anchor="start" x="329.2594" y="-1713.9" font-family="Arial" font-size="14.00" fill="#666666">[datetime]</text>
<polygon fill="none" stroke="#000000" points="239,-1672.5 239,-1702.5 480,-1702.5 480,-1672.5 239,-1672.5"/>
<text text-anchor="start" x="246" y="-1683.9" font-family="Arial" font-size="14.00" fill="#000000">checked_out_by </text>
<text text-anchor="start" x="351.8246" y="-1683.9" font-family="Arial" font-size="14.00" fill="#666666">[int(11)]</text>
<polygon fill="none" stroke="#000000" points="239,-1642.5 239,-1672.5 480,-1672.5 480,-1642.5 239,-1642.5"/>
<text text-anchor="start" x="245.5239" y="-1653.9" font-family="Arial" font-size="14.00" fill="#000000">checked_out_by_user </text>
<text text-anchor="start" x="386.3569" y="-1653.9" font-family="Arial" font-size="14.00" fill="#666666">[varchar(191)]</text>
<polygon fill="none" stroke="#000000" points="239,-1612.5 239,-1642.5 480,-1642.5 480,-1612.5 239,-1612.5"/>
<text text-anchor="start" x="246" y="-1623.9" font-family="Arial" font-size="14.00" fill="#000000">text </text>
<text text-anchor="start" x="272.4544" y="-1623.9" font-family="Arial" font-size="14.00" fill="#666666">[longtext]</text>
<polygon fill="none" stroke="#000000" points="239,-1582.5 239,-1612.5 480,-1612.5 480,-1582.5 239,-1582.5"/>
<text text-anchor="start" x="246" y="-1593.9" font-family="Arial" font-size="14.00" fill="#000000">type </text>
<text text-anchor="start" x="276.3464" y="-1593.9" font-family="Arial" font-size="14.00" fill="#666666">[varchar(50)]</text>
<polygon fill="none" stroke="#000000" points="239,-1552.5 239,-1582.5 480,-1582.5 480,-1552.5 239,-1552.5"/>
<text text-anchor="start" x="246" y="-1563.9" font-family="Arial" font-size="14.00" fill="#000000">date_time </text>
<text text-anchor="start" x="311.352" y="-1563.9" font-family="Arial" font-size="14.00" fill="#666666">[datetime]</text>
<polygon fill="none" stroke="#000000" stroke-width="3" points="237,-1551.5 237,-2039.5 481,-2039.5 481,-1551.5 237,-1551.5"/>
</g>
<!-- leads -->
<g id="node2" class="node">
<title>leads</title>
<polygon fill="#efefef" stroke="transparent" points="233,-1392.5 233,-1427.5 486,-1427.5 486,-1392.5 233,-1392.5"/>
<polygon fill="none" stroke="#000000" points="233,-1392.5 233,-1427.5 486,-1427.5 486,-1392.5 233,-1392.5"/>
<text text-anchor="start" x="289.3667" y="-1405.3" font-family="Arial Bold" font-size="18.00" fill="#000000">leads</text>
<text text-anchor="start" x="332.3795" y="-1405.3" font-family="Arial" font-size="14.00" fill="#000000"> </text>
<text text-anchor="start" x="336.2701" y="-1405.3" font-family="Arial" font-size="14.00" fill="#666666">[BASE TABLE]</text>
<polygon fill="none" stroke="#000000" points="233,-1362.5 233,-1392.5 486,-1392.5 486,-1362.5 233,-1362.5"/>
<text text-anchor="start" x="240" y="-1373.9" font-family="Arial" font-size="14.00" fill="#000000">id </text>
<text text-anchor="start" x="254.7798" y="-1373.9" font-family="Arial" font-size="14.00" fill="#666666">[bigint(20) unsigned]</text>
<polygon fill="none" stroke="#000000" points="233,-1332.5 233,-1362.5 486,-1362.5 486,-1332.5 233,-1332.5"/>
<text text-anchor="start" x="240" y="-1343.9" font-family="Arial" font-size="14.00" fill="#000000">owner_id </text>
<text text-anchor="start" x="300.6774" y="-1343.9" font-family="Arial" font-size="14.00" fill="#666666">[int(10) unsigned]</text>
<polygon fill="none" stroke="#000000" points="233,-1302.5 233,-1332.5 486,-1332.5 486,-1302.5 233,-1302.5"/>
<text text-anchor="start" x="240" y="-1313.9" font-family="Arial" font-size="14.00" fill="#000000">stage_id </text>
<text text-anchor="start" x="296.8008" y="-1313.9" font-family="Arial" font-size="14.00" fill="#666666">[int(10) unsigned]</text>
<polygon fill="none" stroke="#000000" points="233,-1272.5 233,-1302.5 486,-1302.5 486,-1272.5 233,-1272.5"/>
<text text-anchor="start" x="240" y="-1283.9" font-family="Arial" font-size="14.00" fill="#000000">is_published </text>
<text text-anchor="start" x="321.6886" y="-1283.9" font-family="Arial" font-size="14.00" fill="#666666">[tinyint(1)]</text>
<polygon fill="none" stroke="#000000" points="233,-1242.5 233,-1272.5 486,-1272.5 486,-1242.5 233,-1242.5"/>
<text text-anchor="start" x="240" y="-1253.9" font-family="Arial" font-size="14.00" fill="#000000">date_added </text>
<text text-anchor="start" x="317.8246" y="-1253.9" font-family="Arial" font-size="14.00" fill="#666666">[datetime]</text>
<polygon fill="none" stroke="#000000" points="233,-1212.5 233,-1242.5 486,-1242.5 486,-1212.5 233,-1212.5"/>
<text text-anchor="start" x="240" y="-1223.9" font-family="Arial" font-size="14.00" fill="#000000">created_by </text>
<text text-anchor="start" x="313.1374" y="-1223.9" font-family="Arial" font-size="14.00" fill="#666666">[int(11)]</text>
<polygon fill="none" stroke="#000000" points="233,-1182.5 233,-1212.5 486,-1212.5 486,-1182.5 233,-1182.5"/>
<text text-anchor="start" x="240" y="-1193.9" font-family="Arial" font-size="14.00" fill="#000000">created_by_user </text>
<text text-anchor="start" x="348.1458" y="-1193.9" font-family="Arial" font-size="14.00" fill="#666666">[varchar(191)]</text>
<polygon fill="none" stroke="#000000" points="233,-1152.5 233,-1182.5 486,-1182.5 486,-1152.5 233,-1152.5"/>
<text text-anchor="start" x="240" y="-1163.9" font-family="Arial" font-size="14.00" fill="#000000">date_modified </text>
<text text-anchor="start" x="331.8064" y="-1163.9" font-family="Arial" font-size="14.00" fill="#666666">[datetime]</text>
<polygon fill="none" stroke="#000000" points="233,-1122.5 233,-1152.5 486,-1152.5 486,-1122.5 233,-1122.5"/>
<text text-anchor="start" x="240" y="-1133.9" font-family="Arial" font-size="14.00" fill="#000000">modified_by </text>
<text text-anchor="start" x="319.3506" y="-1133.9" font-family="Arial" font-size="14.00" fill="#666666">[int(11)]</text>
<polygon fill="none" stroke="#000000" points="233,-1092.5 233,-1122.5 486,-1122.5 486,-1092.5 233,-1092.5"/>
<text text-anchor="start" x="240" y="-1103.9" font-family="Arial" font-size="14.00" fill="#000000">modified_by_user </text>
<text text-anchor="start" x="354.359" y="-1103.9" font-family="Arial" font-size="14.00" fill="#666666">[varchar(191)]</text>
<polygon fill="none" stroke="#000000" points="233,-1062.5 233,-1092.5 486,-1092.5 486,-1062.5 233,-1062.5"/>
<text text-anchor="start" x="240" y="-1073.9" font-family="Arial" font-size="14.00" fill="#000000">checked_out </text>
<text text-anchor="start" x="323.2594" y="-1073.9" font-family="Arial" font-size="14.00" fill="#666666">[datetime]</text>
<polygon fill="none" stroke="#000000" points="233,-1032.5 233,-1062.5 486,-1062.5 486,-1032.5 233,-1032.5"/>
<text text-anchor="start" x="240" y="-1043.9" font-family="Arial" font-size="14.00" fill="#000000">checked_out_by </text>
<text text-anchor="start" x="345.8246" y="-1043.9" font-family="Arial" font-size="14.00" fill="#666666">[int(11)]</text>
<polygon fill="none" stroke="#000000" points="233,-1002.5 233,-1032.5 486,-1032.5 486,-1002.5 233,-1002.5"/>
<text text-anchor="start" x="240" y="-1013.9" font-family="Arial" font-size="14.00" fill="#000000">checked_out_by_user </text>
<text text-anchor="start" x="380.833" y="-1013.9" font-family="Arial" font-size="14.00" fill="#666666">[varchar(191)]</text>
<polygon fill="none" stroke="#000000" points="233,-972.5 233,-1002.5 486,-1002.5 486,-972.5 233,-972.5"/>
<text text-anchor="start" x="240" y="-983.9" font-family="Arial" font-size="14.00" fill="#000000">points </text>
<text text-anchor="start" x="281.2356" y="-983.9" font-family="Arial" font-size="14.00" fill="#666666">[int(11)]</text>
<polygon fill="none" stroke="#000000" points="233,-942.5 233,-972.5 486,-972.5 486,-942.5 233,-942.5"/>
<text text-anchor="start" x="240" y="-953.9" font-family="Arial" font-size="14.00" fill="#000000">last_active </text>
<text text-anchor="start" x="310.0154" y="-953.9" font-family="Arial" font-size="14.00" fill="#666666">[datetime]</text>
<polygon fill="none" stroke="#000000" points="233,-912.5 233,-942.5 486,-942.5 486,-912.5 233,-912.5"/>
<text text-anchor="start" x="240" y="-923.9" font-family="Arial" font-size="14.00" fill="#000000">internal </text>
<text text-anchor="start" x="289.7854" y="-923.9" font-family="Arial" font-size="14.00" fill="#666666">[longtext]</text>
<polygon fill="none" stroke="#000000" points="233,-882.5 233,-912.5 486,-912.5 486,-882.5 233,-882.5"/>
<text text-anchor="start" x="240" y="-893.9" font-family="Arial" font-size="14.00" fill="#000000">social_cache </text>
<text text-anchor="start" x="324.7994" y="-893.9" font-family="Arial" font-size="14.00" fill="#666666">[longtext]</text>
<polygon fill="none" stroke="#000000" points="233,-852.5 233,-882.5 486,-882.5 486,-852.5 233,-852.5"/>
<text text-anchor="start" x="240" y="-863.9" font-family="Arial" font-size="14.00" fill="#000000">date_identified </text>
<text text-anchor="start" x="334.9256" y="-863.9" font-family="Arial" font-size="14.00" fill="#666666">[datetime]</text>
<polygon fill="none" stroke="#000000" points="233,-822.5 233,-852.5 486,-852.5 486,-822.5 233,-822.5"/>
<text text-anchor="start" x="239.7062" y="-833.9" font-family="Arial" font-size="14.00" fill="#000000">preferred_profile_image </text>
<text text-anchor="start" x="392.1746" y="-833.9" font-family="Arial" font-size="14.00" fill="#666666">[varchar(191)]</text>
<polygon fill="none" stroke="#000000" points="233,-792.5 233,-822.5 486,-822.5 486,-792.5 233,-792.5"/>
<text text-anchor="start" x="240" y="-803.9" font-family="Arial" font-size="14.00" fill="#000000">title </text>
<text text-anchor="start" x="265.6676" y="-803.9" font-family="Arial" font-size="14.00" fill="#666666">[varchar(191)]</text>
<polygon fill="none" stroke="#000000" points="233,-762.5 233,-792.5 486,-792.5 486,-762.5 233,-762.5"/>
<text text-anchor="start" x="240" y="-773.9" font-family="Arial" font-size="14.00" fill="#000000">firstname </text>
<text text-anchor="start" x="301.4474" y="-773.9" font-family="Arial" font-size="14.00" fill="#666666">[varchar(191)]</text>
<polygon fill="none" stroke="#000000" points="233,-732.5 233,-762.5 486,-762.5 486,-732.5 233,-732.5"/>
<text text-anchor="start" x="240" y="-743.9" font-family="Arial" font-size="14.00" fill="#000000">lastname </text>
<text text-anchor="start" x="300.6788" y="-743.9" font-family="Arial" font-size="14.00" fill="#666666">[varchar(191)]</text>
<polygon fill="none" stroke="#000000" points="233,-702.5 233,-732.5 486,-732.5 486,-702.5 233,-702.5"/>
<text text-anchor="start" x="240" y="-713.9" font-family="Arial" font-size="14.00" fill="#000000">company </text>
<text text-anchor="start" x="300.6816" y="-713.9" font-family="Arial" font-size="14.00" fill="#666666">[varchar(191)]</text>
<polygon fill="none" stroke="#000000" points="233,-672.5 233,-702.5 486,-702.5 486,-672.5 233,-672.5"/>
<text text-anchor="start" x="240" y="-683.9" font-family="Arial" font-size="14.00" fill="#000000">position </text>
<text text-anchor="start" x="292.1248" y="-683.9" font-family="Arial" font-size="14.00" fill="#666666">[varchar(191)]</text>
<polygon fill="none" stroke="#000000" points="233,-642.5 233,-672.5 486,-672.5 486,-642.5 233,-642.5"/>
<text text-anchor="start" x="240" y="-653.9" font-family="Arial" font-size="14.00" fill="#000000">email </text>
<text text-anchor="start" x="277.3296" y="-653.9" font-family="Arial" font-size="14.00" fill="#666666">[varchar(191)]</text>
<polygon fill="none" stroke="#000000" points="233,-612.5 233,-642.5 486,-642.5 486,-612.5 233,-612.5"/>
<text text-anchor="start" x="240" y="-623.9" font-family="Arial" font-size="14.00" fill="#000000">phone </text>
<text text-anchor="start" x="282.8036" y="-623.9" font-family="Arial" font-size="14.00" fill="#666666">[varchar(191)]</text>
<polygon fill="none" stroke="#000000" points="233,-582.5 233,-612.5 486,-612.5 486,-582.5 233,-582.5"/>
<text text-anchor="start" x="240" y="-593.9" font-family="Arial" font-size="14.00" fill="#000000">mobile </text>
<text text-anchor="start" x="285.1122" y="-593.9" font-family="Arial" font-size="14.00" fill="#666666">[varchar(191)]</text>
<polygon fill="none" stroke="#000000" points="233,-552.5 233,-582.5 486,-582.5 486,-552.5 233,-552.5"/>
<text text-anchor="start" x="240" y="-563.9" font-family="Arial" font-size="14.00" fill="#000000">address1 </text>
<text text-anchor="start" x="301.4642" y="-563.9" font-family="Arial" font-size="14.00" fill="#666666">[varchar(191)]</text>
<polygon fill="none" stroke="#000000" points="233,-522.5 233,-552.5 486,-552.5 486,-522.5 233,-522.5"/>
<text text-anchor="start" x="240" y="-533.9" font-family="Arial" font-size="14.00" fill="#000000">address2 </text>
<text text-anchor="start" x="301.4642" y="-533.9" font-family="Arial" font-size="14.00" fill="#666666">[varchar(191)]</text>
<polygon fill="none" stroke="#000000" points="233,-492.5 233,-522.5 486,-522.5 486,-492.5 233,-492.5"/>
<text text-anchor="start" x="240" y="-503.9" font-family="Arial" font-size="14.00" fill="#000000">city </text>
<text text-anchor="start" x="264.8878" y="-503.9" font-family="Arial" font-size="14.00" fill="#666666">[varchar(191)]</text>
<polygon fill="none" stroke="#000000" points="233,-462.5 233,-492.5 486,-492.5 486,-462.5 233,-462.5"/>
<text text-anchor="start" x="240" y="-473.9" font-family="Arial" font-size="14.00" fill="#000000">state </text>
<text text-anchor="start" x="274.237" y="-473.9" font-family="Arial" font-size="14.00" fill="#666666">[varchar(191)]</text>
<polygon fill="none" stroke="#000000" points="233,-432.5 233,-462.5 486,-462.5 486,-432.5 233,-432.5"/>
<text text-anchor="start" x="240" y="-443.9" font-family="Arial" font-size="14.00" fill="#000000">zipcode </text>
<text text-anchor="start" x="292.1276" y="-443.9" font-family="Arial" font-size="14.00" fill="#666666">[varchar(191)]</text>
<polygon fill="none" stroke="#000000" points="233,-402.5 233,-432.5 486,-432.5 486,-402.5 233,-402.5"/>
<text text-anchor="start" x="240" y="-413.9" font-family="Arial" font-size="14.00" fill="#000000">timezone </text>
<text text-anchor="start" x="300.6788" y="-413.9" font-family="Arial" font-size="14.00" fill="#666666">[varchar(191)]</text>
<polygon fill="none" stroke="#000000" points="233,-372.5 233,-402.5 486,-402.5 486,-372.5 233,-372.5"/>
<text text-anchor="start" x="240" y="-383.9" font-family="Arial" font-size="14.00" fill="#000000">country </text>
<text text-anchor="start" x="289.7896" y="-383.9" font-family="Arial" font-size="14.00" fill="#666666">[varchar(191)]</text>
<polygon fill="none" stroke="#000000" points="233,-342.5 233,-372.5 486,-372.5 486,-342.5 233,-342.5"/>
<text text-anchor="start" x="240" y="-353.9" font-family="Arial" font-size="14.00" fill="#000000">fax </text>
<text text-anchor="start" x="262.5638" y="-353.9" font-family="Arial" font-size="14.00" fill="#666666">[varchar(255)]</text>
<polygon fill="none" stroke="#000000" points="233,-312.5 233,-342.5 486,-342.5 486,-312.5 233,-312.5"/>
<text text-anchor="start" x="240" y="-323.9" font-family="Arial" font-size="14.00" fill="#000000">preferred_locale </text>
<text text-anchor="start" x="345.0196" y="-323.9" font-family="Arial" font-size="14.00" fill="#666666">[varchar(255)]</text>
<polygon fill="none" stroke="#000000" points="233,-282.5 233,-312.5 486,-312.5 486,-282.5 233,-282.5"/>
<text text-anchor="start" x="240" y="-293.9" font-family="Arial" font-size="14.00" fill="#000000">attribution_date </text>
<text text-anchor="start" x="340.3702" y="-293.9" font-family="Arial" font-size="14.00" fill="#666666">[datetime]</text>
<polygon fill="none" stroke="#000000" points="233,-252.5 233,-282.5 486,-282.5 486,-252.5 233,-252.5"/>
<text text-anchor="start" x="240" y="-263.9" font-family="Arial" font-size="14.00" fill="#000000">attribution </text>
<text text-anchor="start" x="305.3492" y="-263.9" font-family="Arial" font-size="14.00" fill="#666666">[double]</text>
<polygon fill="none" stroke="#000000" points="233,-222.5 233,-252.5 486,-252.5 486,-222.5 233,-222.5"/>
<text text-anchor="start" x="240" y="-233.9" font-family="Arial" font-size="14.00" fill="#000000">website </text>
<text text-anchor="start" x="291.3422" y="-233.9" font-family="Arial" font-size="14.00" fill="#666666">[longtext]</text>
<polygon fill="none" stroke="#000000" points="233,-192.5 233,-222.5 486,-222.5 486,-192.5 233,-192.5"/>
<text text-anchor="start" x="240" y="-203.9" font-family="Arial" font-size="14.00" fill="#000000">facebook </text>
<text text-anchor="start" x="300.6942" y="-203.9" font-family="Arial" font-size="14.00" fill="#666666">[varchar(255)]</text>
<polygon fill="none" stroke="#000000" points="233,-162.5 233,-192.5 486,-192.5 486,-162.5 233,-162.5"/>
<text text-anchor="start" x="240" y="-173.9" font-family="Arial" font-size="14.00" fill="#000000">foursquare </text>
<text text-anchor="start" x="310.798" y="-173.9" font-family="Arial" font-size="14.00" fill="#666666">[varchar(255)]</text>
<polygon fill="none" stroke="#000000" points="233,-132.5 233,-162.5 486,-162.5 486,-132.5 233,-132.5"/>
<text text-anchor="start" x="240" y="-143.9" font-family="Arial" font-size="14.00" fill="#000000">instagram </text>
<text text-anchor="start" x="305.3394" y="-143.9" font-family="Arial" font-size="14.00" fill="#666666">[varchar(255)]</text>
<polygon fill="none" stroke="#000000" points="233,-102.5 233,-132.5 486,-132.5 486,-102.5 233,-102.5"/>
<text text-anchor="start" x="240" y="-113.9" font-family="Arial" font-size="14.00" fill="#000000">linkedin </text>
<text text-anchor="start" x="291.3408" y="-113.9" font-family="Arial" font-size="14.00" fill="#666666">[varchar(255)]</text>
<polygon fill="none" stroke="#000000" points="233,-72.5 233,-102.5 486,-102.5 486,-72.5 233,-72.5"/>
<text text-anchor="start" x="240" y="-83.9" font-family="Arial" font-size="14.00" fill="#000000">skype </text>
<text text-anchor="start" x="280.4558" y="-83.9" font-family="Arial" font-size="14.00" fill="#666666">[varchar(255)]</text>
<polygon fill="none" stroke="#000000" points="233,-42.5 233,-72.5 486,-72.5 486,-42.5 233,-42.5"/>
<text text-anchor="start" x="240" y="-53.9" font-family="Arial" font-size="14.00" fill="#000000">twitter </text>
<text text-anchor="start" x="281.2188" y="-53.9" font-family="Arial" font-size="14.00" fill="#666666">[varchar(255)]</text>
</g>
<!-- lead_notes&#45;&gt;leads -->
<g id="edge1" class="edge">
<title>lead_notes:lead_id&#45;&gt;leads:id</title>
<path fill="none" stroke="#000000" d="M229.6355,-1953.1649C174.1244,-1900.0894 171.8249,-1377.5 233,-1377.5"/>
<polygon fill="#000000" stroke="#000000" points="229.9252,-1953.299 237.1095,-1961.5837 234.4626,-1955.3995 239,-1957.5 239,-1957.5 239,-1957.5 234.4626,-1955.3995 240.8905,-1953.4163 229.9252,-1953.299 229.9252,-1953.299"/>
<text text-anchor="start" x="7.496" y="-1967.5" font-family="Arial" font-size="10.00" fill="#000000">FOREIGN KEY (lead_id) REFERENCES leads (id)</text>
</g>
</g>
</svg>
