<?xml version="1.0" encoding="UTF-8" standalone="no"?>
<!DOCTYPE svg PUBLIC "-//W3C//DTD SVG 1.1//EN"
 "http://www.w3.org/Graphics/SVG/1.1/DTD/svg11.dtd">
<!-- Generated by graphviz version 2.40.1 (20161225.0304)
 -->
<!-- Title: lead_companies_change_log Pages: 1 -->
<svg width="638pt" height="1852pt"
 viewBox="0.00 0.00 637.50 1852.00" xmlns="http://www.w3.org/2000/svg" xmlns:xlink="http://www.w3.org/1999/xlink">
<g id="graph0" class="graph" transform="scale(1 1) rotate(0) translate(4 1848)">
<title>lead_companies_change_log</title>
<polygon fill="#ffffff" stroke="transparent" points="-4,4 -4,-1848 633.5,-1848 633.5,4 -4,4"/>
<!-- lead_companies_change_log -->
<g id="node1" class="node">
<title>lead_companies_change_log</title>
<polygon fill="#efefef" stroke="transparent" points="239,-1762.5 239,-1797.5 584,-1797.5 584,-1762.5 239,-1762.5"/>
<polygon fill="none" stroke="#000000" points="239,-1762.5 239,-1797.5 584,-1797.5 584,-1762.5 239,-1762.5"/>
<text text-anchor="start" x="245.8299" y="-1775.3" font-family="Arial Bold" font-size="18.00" fill="#000000">lead_companies_change_log</text>
<text text-anchor="start" x="479.9163" y="-1775.3" font-family="Arial" font-size="14.00" fill="#000000"> </text>
<text text-anchor="start" x="483.8069" y="-1775.3" font-family="Arial" font-size="14.00" fill="#666666">[BASE TABLE]</text>
<polygon fill="none" stroke="#000000" points="239,-1732.5 239,-1762.5 584,-1762.5 584,-1732.5 239,-1732.5"/>
<text text-anchor="start" x="246" y="-1743.9" font-family="Arial" font-size="14.00" fill="#000000">id </text>
<text text-anchor="start" x="260.7798" y="-1743.9" font-family="Arial" font-size="14.00" fill="#666666">[int(10) unsigned]</text>
<polygon fill="none" stroke="#000000" points="239,-1702.5 239,-1732.5 584,-1732.5 584,-1702.5 239,-1702.5"/>
<text text-anchor="start" x="246" y="-1713.9" font-family="Arial" font-size="14.00" fill="#000000">lead_id </text>
<text text-anchor="start" x="295.0168" y="-1713.9" font-family="Arial" font-size="14.00" fill="#666666">[bigint(20) unsigned]</text>
<polygon fill="none" stroke="#000000" points="239,-1672.5 239,-1702.5 584,-1702.5 584,-1672.5 239,-1672.5"/>
<text text-anchor="start" x="246" y="-1683.9" font-family="Arial" font-size="14.00" fill="#000000">type </text>
<text text-anchor="start" x="276.3464" y="-1683.9" font-family="Arial" font-size="14.00" fill="#666666">[tinytext]</text>
<polygon fill="none" stroke="#000000" points="239,-1642.5 239,-1672.5 584,-1672.5 584,-1642.5 239,-1642.5"/>
<text text-anchor="start" x="246" y="-1653.9" font-family="Arial" font-size="14.00" fill="#000000">event_name </text>
<text text-anchor="start" x="326.92" y="-1653.9" font-family="Arial" font-size="14.00" fill="#666666">[varchar(191)]</text>
<polygon fill="none" stroke="#000000" points="239,-1612.5 239,-1642.5 584,-1642.5 584,-1612.5 239,-1612.5"/>
<text text-anchor="start" x="246" y="-1623.9" font-family="Arial" font-size="14.00" fill="#000000">action_name </text>
<text text-anchor="start" x="330.0266" y="-1623.9" font-family="Arial" font-size="14.00" fill="#666666">[varchar(191)]</text>
<polygon fill="none" stroke="#000000" points="239,-1582.5 239,-1612.5 584,-1612.5 584,-1582.5 239,-1582.5"/>
<text text-anchor="start" x="246" y="-1593.9" font-family="Arial" font-size="14.00" fill="#000000">company_id </text>
<text text-anchor="start" x="325.3534" y="-1593.9" font-family="Arial" font-size="14.00" fill="#666666">[int(11)]</text>
<polygon fill="none" stroke="#000000" points="239,-1552.5 239,-1582.5 584,-1582.5 584,-1552.5 239,-1552.5"/>
<text text-anchor="start" x="246" y="-1563.9" font-family="Arial" font-size="14.00" fill="#000000">date_added </text>
<text text-anchor="start" x="323.8246" y="-1563.9" font-family="Arial" font-size="14.00" fill="#666666">[datetime]</text>
<polygon fill="none" stroke="#000000" stroke-width="3" points="237,-1551.5 237,-1799.5 585,-1799.5 585,-1551.5 237,-1551.5"/>
</g>
<!-- leads -->
<g id="node2" class="node">
<title>leads</title>
<polygon fill="#efefef" stroke="transparent" points="285,-1392.5 285,-1427.5 538,-1427.5 538,-1392.5 285,-1392.5"/>
<polygon fill="none" stroke="#000000" points="285,-1392.5 285,-1427.5 538,-1427.5 538,-1392.5 285,-1392.5"/>
<text text-anchor="start" x="341.3667" y="-1405.3" font-family="Arial Bold" font-size="18.00" fill="#000000">leads</text>
<text text-anchor="start" x="384.3795" y="-1405.3" font-family="Arial" font-size="14.00" fill="#000000"> </text>
<text text-anchor="start" x="388.2701" y="-1405.3" font-family="Arial" font-size="14.00" fill="#666666">[BASE TABLE]</text>
<polygon fill="none" stroke="#000000" points="285,-1362.5 285,-1392.5 538,-1392.5 538,-1362.5 285,-1362.5"/>
<text text-anchor="start" x="292" y="-1373.9" font-family="Arial" font-size="14.00" fill="#000000">id </text>
<text text-anchor="start" x="306.7798" y="-1373.9" font-family="Arial" font-size="14.00" fill="#666666">[bigint(20) unsigned]</text>
<polygon fill="none" stroke="#000000" points="285,-1332.5 285,-1362.5 538,-1362.5 538,-1332.5 285,-1332.5"/>
<text text-anchor="start" x="292" y="-1343.9" font-family="Arial" font-size="14.00" fill="#000000">owner_id </text>
<text text-anchor="start" x="352.6774" y="-1343.9" font-family="Arial" font-size="14.00" fill="#666666">[int(10) unsigned]</text>
<polygon fill="none" stroke="#000000" points="285,-1302.5 285,-1332.5 538,-1332.5 538,-1302.5 285,-1302.5"/>
<text text-anchor="start" x="292" y="-1313.9" font-family="Arial" font-size="14.00" fill="#000000">stage_id </text>
<text text-anchor="start" x="348.8008" y="-1313.9" font-family="Arial" font-size="14.00" fill="#666666">[int(10) unsigned]</text>
<polygon fill="none" stroke="#000000" points="285,-1272.5 285,-1302.5 538,-1302.5 538,-1272.5 285,-1272.5"/>
<text text-anchor="start" x="292" y="-1283.9" font-family="Arial" font-size="14.00" fill="#000000">is_published </text>
<text text-anchor="start" x="373.6886" y="-1283.9" font-family="Arial" font-size="14.00" fill="#666666">[tinyint(1)]</text>
<polygon fill="none" stroke="#000000" points="285,-1242.5 285,-1272.5 538,-1272.5 538,-1242.5 285,-1242.5"/>
<text text-anchor="start" x="292" y="-1253.9" font-family="Arial" font-size="14.00" fill="#000000">date_added </text>
<text text-anchor="start" x="369.8246" y="-1253.9" font-family="Arial" font-size="14.00" fill="#666666">[datetime]</text>
<polygon fill="none" stroke="#000000" points="285,-1212.5 285,-1242.5 538,-1242.5 538,-1212.5 285,-1212.5"/>
<text text-anchor="start" x="292" y="-1223.9" font-family="Arial" font-size="14.00" fill="#000000">created_by </text>
<text text-anchor="start" x="365.1374" y="-1223.9" font-family="Arial" font-size="14.00" fill="#666666">[int(11)]</text>
<polygon fill="none" stroke="#000000" points="285,-1182.5 285,-1212.5 538,-1212.5 538,-1182.5 285,-1182.5"/>
<text text-anchor="start" x="292" y="-1193.9" font-family="Arial" font-size="14.00" fill="#000000">created_by_user </text>
<text text-anchor="start" x="400.1458" y="-1193.9" font-family="Arial" font-size="14.00" fill="#666666">[varchar(191)]</text>
<polygon fill="none" stroke="#000000" points="285,-1152.5 285,-1182.5 538,-1182.5 538,-1152.5 285,-1152.5"/>
<text text-anchor="start" x="292" y="-1163.9" font-family="Arial" font-size="14.00" fill="#000000">date_modified </text>
<text text-anchor="start" x="383.8064" y="-1163.9" font-family="Arial" font-size="14.00" fill="#666666">[datetime]</text>
<polygon fill="none" stroke="#000000" points="285,-1122.5 285,-1152.5 538,-1152.5 538,-1122.5 285,-1122.5"/>
<text text-anchor="start" x="292" y="-1133.9" font-family="Arial" font-size="14.00" fill="#000000">modified_by </text>
<text text-anchor="start" x="371.3506" y="-1133.9" font-family="Arial" font-size="14.00" fill="#666666">[int(11)]</text>
<polygon fill="none" stroke="#000000" points="285,-1092.5 285,-1122.5 538,-1122.5 538,-1092.5 285,-1092.5"/>
<text text-anchor="start" x="292" y="-1103.9" font-family="Arial" font-size="14.00" fill="#000000">modified_by_user </text>
<text text-anchor="start" x="406.359" y="-1103.9" font-family="Arial" font-size="14.00" fill="#666666">[varchar(191)]</text>
<polygon fill="none" stroke="#000000" points="285,-1062.5 285,-1092.5 538,-1092.5 538,-1062.5 285,-1062.5"/>
<text text-anchor="start" x="292" y="-1073.9" font-family="Arial" font-size="14.00" fill="#000000">checked_out </text>
<text text-anchor="start" x="375.2594" y="-1073.9" font-family="Arial" font-size="14.00" fill="#666666">[datetime]</text>
<polygon fill="none" stroke="#000000" points="285,-1032.5 285,-1062.5 538,-1062.5 538,-1032.5 285,-1032.5"/>
<text text-anchor="start" x="292" y="-1043.9" font-family="Arial" font-size="14.00" fill="#000000">checked_out_by </text>
<text text-anchor="start" x="397.8246" y="-1043.9" font-family="Arial" font-size="14.00" fill="#666666">[int(11)]</text>
<polygon fill="none" stroke="#000000" points="285,-1002.5 285,-1032.5 538,-1032.5 538,-1002.5 285,-1002.5"/>
<text text-anchor="start" x="292" y="-1013.9" font-family="Arial" font-size="14.00" fill="#000000">checked_out_by_user </text>
<text text-anchor="start" x="432.833" y="-1013.9" font-family="Arial" font-size="14.00" fill="#666666">[varchar(191)]</text>
<polygon fill="none" stroke="#000000" points="285,-972.5 285,-1002.5 538,-1002.5 538,-972.5 285,-972.5"/>
<text text-anchor="start" x="292" y="-983.9" font-family="Arial" font-size="14.00" fill="#000000">points </text>
<text text-anchor="start" x="333.2356" y="-983.9" font-family="Arial" font-size="14.00" fill="#666666">[int(11)]</text>
<polygon fill="none" stroke="#000000" points="285,-942.5 285,-972.5 538,-972.5 538,-942.5 285,-942.5"/>
<text text-anchor="start" x="292" y="-953.9" font-family="Arial" font-size="14.00" fill="#000000">last_active </text>
<text text-anchor="start" x="362.0154" y="-953.9" font-family="Arial" font-size="14.00" fill="#666666">[datetime]</text>
<polygon fill="none" stroke="#000000" points="285,-912.5 285,-942.5 538,-942.5 538,-912.5 285,-912.5"/>
<text text-anchor="start" x="292" y="-923.9" font-family="Arial" font-size="14.00" fill="#000000">internal </text>
<text text-anchor="start" x="341.7854" y="-923.9" font-family="Arial" font-size="14.00" fill="#666666">[longtext]</text>
<polygon fill="none" stroke="#000000" points="285,-882.5 285,-912.5 538,-912.5 538,-882.5 285,-882.5"/>
<text text-anchor="start" x="292" y="-893.9" font-family="Arial" font-size="14.00" fill="#000000">social_cache </text>
<text text-anchor="start" x="376.7994" y="-893.9" font-family="Arial" font-size="14.00" fill="#666666">[longtext]</text>
<polygon fill="none" stroke="#000000" points="285,-852.5 285,-882.5 538,-882.5 538,-852.5 285,-852.5"/>
<text text-anchor="start" x="292" y="-863.9" font-family="Arial" font-size="14.00" fill="#000000">date_identified </text>
<text text-anchor="start" x="386.9256" y="-863.9" font-family="Arial" font-size="14.00" fill="#666666">[datetime]</text>
<polygon fill="none" stroke="#000000" points="285,-822.5 285,-852.5 538,-852.5 538,-822.5 285,-822.5"/>
<text text-anchor="start" x="291.7062" y="-833.9" font-family="Arial" font-size="14.00" fill="#000000">preferred_profile_image </text>
<text text-anchor="start" x="444.1746" y="-833.9" font-family="Arial" font-size="14.00" fill="#666666">[varchar(191)]</text>
<polygon fill="none" stroke="#000000" points="285,-792.5 285,-822.5 538,-822.5 538,-792.5 285,-792.5"/>
<text text-anchor="start" x="292" y="-803.9" font-family="Arial" font-size="14.00" fill="#000000">title </text>
<text text-anchor="start" x="317.6676" y="-803.9" font-family="Arial" font-size="14.00" fill="#666666">[varchar(191)]</text>
<polygon fill="none" stroke="#000000" points="285,-762.5 285,-792.5 538,-792.5 538,-762.5 285,-762.5"/>
<text text-anchor="start" x="292" y="-773.9" font-family="Arial" font-size="14.00" fill="#000000">firstname </text>
<text text-anchor="start" x="353.4474" y="-773.9" font-family="Arial" font-size="14.00" fill="#666666">[varchar(191)]</text>
<polygon fill="none" stroke="#000000" points="285,-732.5 285,-762.5 538,-762.5 538,-732.5 285,-732.5"/>
<text text-anchor="start" x="292" y="-743.9" font-family="Arial" font-size="14.00" fill="#000000">lastname </text>
<text text-anchor="start" x="352.6788" y="-743.9" font-family="Arial" font-size="14.00" fill="#666666">[varchar(191)]</text>
<polygon fill="none" stroke="#000000" points="285,-702.5 285,-732.5 538,-732.5 538,-702.5 285,-702.5"/>
<text text-anchor="start" x="292" y="-713.9" font-family="Arial" font-size="14.00" fill="#000000">company </text>
<text text-anchor="start" x="352.6816" y="-713.9" font-family="Arial" font-size="14.00" fill="#666666">[varchar(191)]</text>
<polygon fill="none" stroke="#000000" points="285,-672.5 285,-702.5 538,-702.5 538,-672.5 285,-672.5"/>
<text text-anchor="start" x="292" y="-683.9" font-family="Arial" font-size="14.00" fill="#000000">position </text>
<text text-anchor="start" x="344.1248" y="-683.9" font-family="Arial" font-size="14.00" fill="#666666">[varchar(191)]</text>
<polygon fill="none" stroke="#000000" points="285,-642.5 285,-672.5 538,-672.5 538,-642.5 285,-642.5"/>
<text text-anchor="start" x="292" y="-653.9" font-family="Arial" font-size="14.00" fill="#000000">email </text>
<text text-anchor="start" x="329.3296" y="-653.9" font-family="Arial" font-size="14.00" fill="#666666">[varchar(191)]</text>
<polygon fill="none" stroke="#000000" points="285,-612.5 285,-642.5 538,-642.5 538,-612.5 285,-612.5"/>
<text text-anchor="start" x="292" y="-623.9" font-family="Arial" font-size="14.00" fill="#000000">phone </text>
<text text-anchor="start" x="334.8036" y="-623.9" font-family="Arial" font-size="14.00" fill="#666666">[varchar(191)]</text>
<polygon fill="none" stroke="#000000" points="285,-582.5 285,-612.5 538,-612.5 538,-582.5 285,-582.5"/>
<text text-anchor="start" x="292" y="-593.9" font-family="Arial" font-size="14.00" fill="#000000">mobile </text>
<text text-anchor="start" x="337.1122" y="-593.9" font-family="Arial" font-size="14.00" fill="#666666">[varchar(191)]</text>
<polygon fill="none" stroke="#000000" points="285,-552.5 285,-582.5 538,-582.5 538,-552.5 285,-552.5"/>
<text text-anchor="start" x="292" y="-563.9" font-family="Arial" font-size="14.00" fill="#000000">address1 </text>
<text text-anchor="start" x="353.4642" y="-563.9" font-family="Arial" font-size="14.00" fill="#666666">[varchar(191)]</text>
<polygon fill="none" stroke="#000000" points="285,-522.5 285,-552.5 538,-552.5 538,-522.5 285,-522.5"/>
<text text-anchor="start" x="292" y="-533.9" font-family="Arial" font-size="14.00" fill="#000000">address2 </text>
<text text-anchor="start" x="353.4642" y="-533.9" font-family="Arial" font-size="14.00" fill="#666666">[varchar(191)]</text>
<polygon fill="none" stroke="#000000" points="285,-492.5 285,-522.5 538,-522.5 538,-492.5 285,-492.5"/>
<text text-anchor="start" x="292" y="-503.9" font-family="Arial" font-size="14.00" fill="#000000">city </text>
<text text-anchor="start" x="316.8878" y="-503.9" font-family="Arial" font-size="14.00" fill="#666666">[varchar(191)]</text>
<polygon fill="none" stroke="#000000" points="285,-462.5 285,-492.5 538,-492.5 538,-462.5 285,-462.5"/>
<text text-anchor="start" x="292" y="-473.9" font-family="Arial" font-size="14.00" fill="#000000">state </text>
<text text-anchor="start" x="326.237" y="-473.9" font-family="Arial" font-size="14.00" fill="#666666">[varchar(191)]</text>
<polygon fill="none" stroke="#000000" points="285,-432.5 285,-462.5 538,-462.5 538,-432.5 285,-432.5"/>
<text text-anchor="start" x="292" y="-443.9" font-family="Arial" font-size="14.00" fill="#000000">zipcode </text>
<text text-anchor="start" x="344.1276" y="-443.9" font-family="Arial" font-size="14.00" fill="#666666">[varchar(191)]</text>
<polygon fill="none" stroke="#000000" points="285,-402.5 285,-432.5 538,-432.5 538,-402.5 285,-402.5"/>
<text text-anchor="start" x="292" y="-413.9" font-family="Arial" font-size="14.00" fill="#000000">timezone </text>
<text text-anchor="start" x="352.6788" y="-413.9" font-family="Arial" font-size="14.00" fill="#666666">[varchar(191)]</text>
<polygon fill="none" stroke="#000000" points="285,-372.5 285,-402.5 538,-402.5 538,-372.5 285,-372.5"/>
<text text-anchor="start" x="292" y="-383.9" font-family="Arial" font-size="14.00" fill="#000000">country </text>
<text text-anchor="start" x="341.7896" y="-383.9" font-family="Arial" font-size="14.00" fill="#666666">[varchar(191)]</text>
<polygon fill="none" stroke="#000000" points="285,-342.5 285,-372.5 538,-372.5 538,-342.5 285,-342.5"/>
<text text-anchor="start" x="292" y="-353.9" font-family="Arial" font-size="14.00" fill="#000000">fax </text>
<text text-anchor="start" x="314.5638" y="-353.9" font-family="Arial" font-size="14.00" fill="#666666">[varchar(255)]</text>
<polygon fill="none" stroke="#000000" points="285,-312.5 285,-342.5 538,-342.5 538,-312.5 285,-312.5"/>
<text text-anchor="start" x="292" y="-323.9" font-family="Arial" font-size="14.00" fill="#000000">preferred_locale </text>
<text text-anchor="start" x="397.0196" y="-323.9" font-family="Arial" font-size="14.00" fill="#666666">[varchar(255)]</text>
<polygon fill="none" stroke="#000000" points="285,-282.5 285,-312.5 538,-312.5 538,-282.5 285,-282.5"/>
<text text-anchor="start" x="292" y="-293.9" font-family="Arial" font-size="14.00" fill="#000000">attribution_date </text>
<text text-anchor="start" x="392.3702" y="-293.9" font-family="Arial" font-size="14.00" fill="#666666">[datetime]</text>
<polygon fill="none" stroke="#000000" points="285,-252.5 285,-282.5 538,-282.5 538,-252.5 285,-252.5"/>
<text text-anchor="start" x="292" y="-263.9" font-family="Arial" font-size="14.00" fill="#000000">attribution </text>
<text text-anchor="start" x="357.3492" y="-263.9" font-family="Arial" font-size="14.00" fill="#666666">[double]</text>
<polygon fill="none" stroke="#000000" points="285,-222.5 285,-252.5 538,-252.5 538,-222.5 285,-222.5"/>
<text text-anchor="start" x="292" y="-233.9" font-family="Arial" font-size="14.00" fill="#000000">website </text>
<text text-anchor="start" x="343.3422" y="-233.9" font-family="Arial" font-size="14.00" fill="#666666">[longtext]</text>
<polygon fill="none" stroke="#000000" points="285,-192.5 285,-222.5 538,-222.5 538,-192.5 285,-192.5"/>
<text text-anchor="start" x="292" y="-203.9" font-family="Arial" font-size="14.00" fill="#000000">facebook </text>
<text text-anchor="start" x="352.6942" y="-203.9" font-family="Arial" font-size="14.00" fill="#666666">[varchar(255)]</text>
<polygon fill="none" stroke="#000000" points="285,-162.5 285,-192.5 538,-192.5 538,-162.5 285,-162.5"/>
<text text-anchor="start" x="292" y="-173.9" font-family="Arial" font-size="14.00" fill="#000000">foursquare </text>
<text text-anchor="start" x="362.798" y="-173.9" font-family="Arial" font-size="14.00" fill="#666666">[varchar(255)]</text>
<polygon fill="none" stroke="#000000" points="285,-132.5 285,-162.5 538,-162.5 538,-132.5 285,-132.5"/>
<text text-anchor="start" x="292" y="-143.9" font-family="Arial" font-size="14.00" fill="#000000">instagram </text>
<text text-anchor="start" x="357.3394" y="-143.9" font-family="Arial" font-size="14.00" fill="#666666">[varchar(255)]</text>
<polygon fill="none" stroke="#000000" points="285,-102.5 285,-132.5 538,-132.5 538,-102.5 285,-102.5"/>
<text text-anchor="start" x="292" y="-113.9" font-family="Arial" font-size="14.00" fill="#000000">linkedin </text>
<text text-anchor="start" x="343.3408" y="-113.9" font-family="Arial" font-size="14.00" fill="#666666">[varchar(255)]</text>
<polygon fill="none" stroke="#000000" points="285,-72.5 285,-102.5 538,-102.5 538,-72.5 285,-72.5"/>
<text text-anchor="start" x="292" y="-83.9" font-family="Arial" font-size="14.00" fill="#000000">skype </text>
<text text-anchor="start" x="332.4558" y="-83.9" font-family="Arial" font-size="14.00" fill="#666666">[varchar(255)]</text>
<polygon fill="none" stroke="#000000" points="285,-42.5 285,-72.5 538,-72.5 538,-42.5 285,-42.5"/>
<text text-anchor="start" x="292" y="-53.9" font-family="Arial" font-size="14.00" fill="#000000">twitter </text>
<text text-anchor="start" x="333.2188" y="-53.9" font-family="Arial" font-size="14.00" fill="#666666">[varchar(255)]</text>
</g>
<!-- lead_companies_change_log&#45;&gt;leads -->
<g id="edge1" class="edge">
<title>lead_companies_change_log:lead_id&#45;&gt;leads:id</title>
<path fill="none" stroke="#000000" d="M229.0745,-1715.3288C167.135,-1686.3721 212.33,-1377.5 285,-1377.5"/>
<polygon fill="#000000" stroke="#000000" points="229.231,-1715.363 238.0383,-1721.8961 234.1155,-1716.4315 239,-1717.5 239,-1717.5 239,-1717.5 234.1155,-1716.4315 239.9617,-1713.1039 229.231,-1715.363 229.231,-1715.363"/>
<text text-anchor="start" x="7.496" y="-1727.5" font-family="Arial" font-size="10.00" fill="#000000">FOREIGN KEY (lead_id) REFERENCES leads (id)</text>
</g>
</g>
</svg>
