<?xml version="1.0" encoding="UTF-8" standalone="no"?>
<!DOCTYPE svg PUBLIC "-//W3C//DTD SVG 1.1//EN"
 "http://www.w3.org/Graphics/SVG/1.1/DTD/svg11.dtd">
<!-- Generated by graphviz version 2.40.1 (20161225.0304)
 -->
<!-- Title: lead_categories Pages: 1 -->
<svg width="765pt" height="1822pt"
 viewBox="0.00 0.00 765.00 1822.00" xmlns="http://www.w3.org/2000/svg" xmlns:xlink="http://www.w3.org/1999/xlink">
<g id="graph0" class="graph" transform="scale(1 1) rotate(0) translate(4 1818)">
<title>lead_categories</title>
<polygon fill="#ffffff" stroke="transparent" points="-4,4 -4,-1818 761,-1818 761,4 -4,4"/>
<!-- lead_categories -->
<g id="node1" class="node">
<title>lead_categories</title>
<polygon fill="#efefef" stroke="transparent" points="280,-1732.5 280,-1767.5 518,-1767.5 518,-1732.5 280,-1732.5"/>
<polygon fill="none" stroke="#000000" points="280,-1732.5 280,-1767.5 518,-1767.5 518,-1732.5 280,-1732.5"/>
<text text-anchor="start" x="286.8538" y="-1745.3" font-family="Arial Bold" font-size="18.00" fill="#000000">lead_categories</text>
<text text-anchor="start" x="413.8924" y="-1745.3" font-family="Arial" font-size="14.00" fill="#000000"> </text>
<text text-anchor="start" x="417.783" y="-1745.3" font-family="Arial" font-size="14.00" fill="#666666">[BASE TABLE]</text>
<polygon fill="none" stroke="#000000" points="280,-1702.5 280,-1732.5 518,-1732.5 518,-1702.5 280,-1702.5"/>
<text text-anchor="start" x="287" y="-1713.9" font-family="Arial" font-size="14.00" fill="#000000">id </text>
<text text-anchor="start" x="301.7798" y="-1713.9" font-family="Arial" font-size="14.00" fill="#666666">[int(10) unsigned]</text>
<polygon fill="none" stroke="#000000" points="280,-1672.5 280,-1702.5 518,-1702.5 518,-1672.5 280,-1672.5"/>
<text text-anchor="start" x="287" y="-1683.9" font-family="Arial" font-size="14.00" fill="#000000">category_id </text>
<text text-anchor="start" x="363.244" y="-1683.9" font-family="Arial" font-size="14.00" fill="#666666">[int(10) unsigned]</text>
<polygon fill="none" stroke="#000000" points="280,-1642.5 280,-1672.5 518,-1672.5 518,-1642.5 280,-1642.5"/>
<text text-anchor="start" x="287" y="-1653.9" font-family="Arial" font-size="14.00" fill="#000000">lead_id </text>
<text text-anchor="start" x="336.0168" y="-1653.9" font-family="Arial" font-size="14.00" fill="#666666">[bigint(20) unsigned]</text>
<polygon fill="none" stroke="#000000" points="280,-1612.5 280,-1642.5 518,-1642.5 518,-1612.5 280,-1612.5"/>
<text text-anchor="start" x="287" y="-1623.9" font-family="Arial" font-size="14.00" fill="#000000">date_added </text>
<text text-anchor="start" x="364.8246" y="-1623.9" font-family="Arial" font-size="14.00" fill="#666666">[datetime]</text>
<polygon fill="none" stroke="#000000" points="280,-1582.5 280,-1612.5 518,-1612.5 518,-1582.5 280,-1582.5"/>
<text text-anchor="start" x="287" y="-1593.9" font-family="Arial" font-size="14.00" fill="#000000">manually_removed </text>
<text text-anchor="start" x="409.129" y="-1593.9" font-family="Arial" font-size="14.00" fill="#666666">[tinyint(1)]</text>
<polygon fill="none" stroke="#000000" points="280,-1552.5 280,-1582.5 518,-1582.5 518,-1552.5 280,-1552.5"/>
<text text-anchor="start" x="287" y="-1563.9" font-family="Arial" font-size="14.00" fill="#000000">manually_added </text>
<text text-anchor="start" x="393.5904" y="-1563.9" font-family="Arial" font-size="14.00" fill="#666666">[tinyint(1)]</text>
<polygon fill="none" stroke="#000000" stroke-width="3" points="278.5,-1551.5 278.5,-1769.5 519.5,-1769.5 519.5,-1551.5 278.5,-1551.5"/>
</g>
<!-- categories -->
<g id="node2" class="node">
<title>categories</title>
<polygon fill="#efefef" stroke="transparent" points="103,-957.5 103,-992.5 344,-992.5 344,-957.5 103,-957.5"/>
<polygon fill="none" stroke="#000000" points="103,-957.5 103,-992.5 344,-992.5 344,-957.5 103,-957.5"/>
<text text-anchor="start" x="133.3633" y="-970.3" font-family="Arial Bold" font-size="18.00" fill="#000000">categories</text>
<text text-anchor="start" x="216.3829" y="-970.3" font-family="Arial" font-size="14.00" fill="#000000"> </text>
<text text-anchor="start" x="220.2735" y="-970.3" font-family="Arial" font-size="14.00" fill="#666666">[BASE TABLE]</text>
<polygon fill="none" stroke="#000000" points="103,-927.5 103,-957.5 344,-957.5 344,-927.5 103,-927.5"/>
<text text-anchor="start" x="110" y="-938.9" font-family="Arial" font-size="14.00" fill="#000000">id </text>
<text text-anchor="start" x="124.7798" y="-938.9" font-family="Arial" font-size="14.00" fill="#666666">[int(10) unsigned]</text>
<polygon fill="none" stroke="#000000" points="103,-897.5 103,-927.5 344,-927.5 344,-897.5 103,-897.5"/>
<text text-anchor="start" x="110" y="-908.9" font-family="Arial" font-size="14.00" fill="#000000">is_published </text>
<text text-anchor="start" x="191.6886" y="-908.9" font-family="Arial" font-size="14.00" fill="#666666">[tinyint(1)]</text>
<polygon fill="none" stroke="#000000" points="103,-867.5 103,-897.5 344,-897.5 344,-867.5 103,-867.5"/>
<text text-anchor="start" x="110" y="-878.9" font-family="Arial" font-size="14.00" fill="#000000">date_added </text>
<text text-anchor="start" x="187.8246" y="-878.9" font-family="Arial" font-size="14.00" fill="#666666">[datetime]</text>
<polygon fill="none" stroke="#000000" points="103,-837.5 103,-867.5 344,-867.5 344,-837.5 103,-837.5"/>
<text text-anchor="start" x="110" y="-848.9" font-family="Arial" font-size="14.00" fill="#000000">created_by </text>
<text text-anchor="start" x="183.1374" y="-848.9" font-family="Arial" font-size="14.00" fill="#666666">[int(11)]</text>
<polygon fill="none" stroke="#000000" points="103,-807.5 103,-837.5 344,-837.5 344,-807.5 103,-807.5"/>
<text text-anchor="start" x="110" y="-818.9" font-family="Arial" font-size="14.00" fill="#000000">created_by_user </text>
<text text-anchor="start" x="218.1458" y="-818.9" font-family="Arial" font-size="14.00" fill="#666666">[varchar(191)]</text>
<polygon fill="none" stroke="#000000" points="103,-777.5 103,-807.5 344,-807.5 344,-777.5 103,-777.5"/>
<text text-anchor="start" x="110" y="-788.9" font-family="Arial" font-size="14.00" fill="#000000">date_modified </text>
<text text-anchor="start" x="201.8064" y="-788.9" font-family="Arial" font-size="14.00" fill="#666666">[datetime]</text>
<polygon fill="none" stroke="#000000" points="103,-747.5 103,-777.5 344,-777.5 344,-747.5 103,-747.5"/>
<text text-anchor="start" x="110" y="-758.9" font-family="Arial" font-size="14.00" fill="#000000">modified_by </text>
<text text-anchor="start" x="189.3506" y="-758.9" font-family="Arial" font-size="14.00" fill="#666666">[int(11)]</text>
<polygon fill="none" stroke="#000000" points="103,-717.5 103,-747.5 344,-747.5 344,-717.5 103,-717.5"/>
<text text-anchor="start" x="110" y="-728.9" font-family="Arial" font-size="14.00" fill="#000000">modified_by_user </text>
<text text-anchor="start" x="224.359" y="-728.9" font-family="Arial" font-size="14.00" fill="#666666">[varchar(191)]</text>
<polygon fill="none" stroke="#000000" points="103,-687.5 103,-717.5 344,-717.5 344,-687.5 103,-687.5"/>
<text text-anchor="start" x="110" y="-698.9" font-family="Arial" font-size="14.00" fill="#000000">checked_out </text>
<text text-anchor="start" x="193.2594" y="-698.9" font-family="Arial" font-size="14.00" fill="#666666">[datetime]</text>
<polygon fill="none" stroke="#000000" points="103,-657.5 103,-687.5 344,-687.5 344,-657.5 103,-657.5"/>
<text text-anchor="start" x="110" y="-668.9" font-family="Arial" font-size="14.00" fill="#000000">checked_out_by </text>
<text text-anchor="start" x="215.8246" y="-668.9" font-family="Arial" font-size="14.00" fill="#666666">[int(11)]</text>
<polygon fill="none" stroke="#000000" points="103,-627.5 103,-657.5 344,-657.5 344,-627.5 103,-627.5"/>
<text text-anchor="start" x="109.5239" y="-638.9" font-family="Arial" font-size="14.00" fill="#000000">checked_out_by_user </text>
<text text-anchor="start" x="250.3569" y="-638.9" font-family="Arial" font-size="14.00" fill="#666666">[varchar(191)]</text>
<polygon fill="none" stroke="#000000" points="103,-597.5 103,-627.5 344,-627.5 344,-597.5 103,-597.5"/>
<text text-anchor="start" x="110" y="-608.9" font-family="Arial" font-size="14.00" fill="#000000">title </text>
<text text-anchor="start" x="135.6676" y="-608.9" font-family="Arial" font-size="14.00" fill="#666666">[varchar(191)]</text>
<polygon fill="none" stroke="#000000" points="103,-567.5 103,-597.5 344,-597.5 344,-567.5 103,-567.5"/>
<text text-anchor="start" x="110" y="-578.9" font-family="Arial" font-size="14.00" fill="#000000">description </text>
<text text-anchor="start" x="181.568" y="-578.9" font-family="Arial" font-size="14.00" fill="#666666">[longtext]</text>
<polygon fill="none" stroke="#000000" points="103,-537.5 103,-567.5 344,-567.5 344,-537.5 103,-537.5"/>
<text text-anchor="start" x="110" y="-548.9" font-family="Arial" font-size="14.00" fill="#000000">alias </text>
<text text-anchor="start" x="142.669" y="-548.9" font-family="Arial" font-size="14.00" fill="#666666">[varchar(191)]</text>
<polygon fill="none" stroke="#000000" points="103,-507.5 103,-537.5 344,-537.5 344,-507.5 103,-507.5"/>
<text text-anchor="start" x="110" y="-518.9" font-family="Arial" font-size="14.00" fill="#000000">color </text>
<text text-anchor="start" x="144.223" y="-518.9" font-family="Arial" font-size="14.00" fill="#666666">[varchar(7)]</text>
<polygon fill="none" stroke="#000000" points="103,-477.5 103,-507.5 344,-507.5 344,-477.5 103,-477.5"/>
<text text-anchor="start" x="110" y="-488.9" font-family="Arial" font-size="14.00" fill="#000000">bundle </text>
<text text-anchor="start" x="155.9102" y="-488.9" font-family="Arial" font-size="14.00" fill="#666666">[varchar(50)]</text>
</g>
<!-- lead_categories&#45;&gt;categories -->
<g id="edge1" class="edge">
<title>lead_categories:category_id&#45;&gt;categories:id</title>
<path fill="none" stroke="#000000" d="M269.6419,-1686.3893C131.3548,-1654.4091 506.4331,-942.5 344,-942.5"/>
<polygon fill="#000000" stroke="#000000" points="270.057,-1686.4338 279.5202,-1691.9744 275.0285,-1686.9669 280,-1687.5 280,-1687.5 280,-1687.5 275.0285,-1686.9669 280.4798,-1683.0256 270.057,-1686.4338 270.057,-1686.4338"/>
<text text-anchor="start" x="6.659" y="-1697.5" font-family="Arial" font-size="10.00" fill="#000000">FOREIGN KEY (category_id) REFERENCES categories (id)</text>
</g>
<!-- leads -->
<g id="node3" class="node">
<title>leads</title>
<polygon fill="#efefef" stroke="transparent" points="448,-1392.5 448,-1427.5 701,-1427.5 701,-1392.5 448,-1392.5"/>
<polygon fill="none" stroke="#000000" points="448,-1392.5 448,-1427.5 701,-1427.5 701,-1392.5 448,-1392.5"/>
<text text-anchor="start" x="504.3667" y="-1405.3" font-family="Arial Bold" font-size="18.00" fill="#000000">leads</text>
<text text-anchor="start" x="547.3795" y="-1405.3" font-family="Arial" font-size="14.00" fill="#000000"> </text>
<text text-anchor="start" x="551.2701" y="-1405.3" font-family="Arial" font-size="14.00" fill="#666666">[BASE TABLE]</text>
<polygon fill="none" stroke="#000000" points="448,-1362.5 448,-1392.5 701,-1392.5 701,-1362.5 448,-1362.5"/>
<text text-anchor="start" x="455" y="-1373.9" font-family="Arial" font-size="14.00" fill="#000000">id </text>
<text text-anchor="start" x="469.7798" y="-1373.9" font-family="Arial" font-size="14.00" fill="#666666">[bigint(20) unsigned]</text>
<polygon fill="none" stroke="#000000" points="448,-1332.5 448,-1362.5 701,-1362.5 701,-1332.5 448,-1332.5"/>
<text text-anchor="start" x="455" y="-1343.9" font-family="Arial" font-size="14.00" fill="#000000">owner_id </text>
<text text-anchor="start" x="515.6774" y="-1343.9" font-family="Arial" font-size="14.00" fill="#666666">[int(10) unsigned]</text>
<polygon fill="none" stroke="#000000" points="448,-1302.5 448,-1332.5 701,-1332.5 701,-1302.5 448,-1302.5"/>
<text text-anchor="start" x="455" y="-1313.9" font-family="Arial" font-size="14.00" fill="#000000">stage_id </text>
<text text-anchor="start" x="511.8008" y="-1313.9" font-family="Arial" font-size="14.00" fill="#666666">[int(10) unsigned]</text>
<polygon fill="none" stroke="#000000" points="448,-1272.5 448,-1302.5 701,-1302.5 701,-1272.5 448,-1272.5"/>
<text text-anchor="start" x="455" y="-1283.9" font-family="Arial" font-size="14.00" fill="#000000">is_published </text>
<text text-anchor="start" x="536.6886" y="-1283.9" font-family="Arial" font-size="14.00" fill="#666666">[tinyint(1)]</text>
<polygon fill="none" stroke="#000000" points="448,-1242.5 448,-1272.5 701,-1272.5 701,-1242.5 448,-1242.5"/>
<text text-anchor="start" x="455" y="-1253.9" font-family="Arial" font-size="14.00" fill="#000000">date_added </text>
<text text-anchor="start" x="532.8246" y="-1253.9" font-family="Arial" font-size="14.00" fill="#666666">[datetime]</text>
<polygon fill="none" stroke="#000000" points="448,-1212.5 448,-1242.5 701,-1242.5 701,-1212.5 448,-1212.5"/>
<text text-anchor="start" x="455" y="-1223.9" font-family="Arial" font-size="14.00" fill="#000000">created_by </text>
<text text-anchor="start" x="528.1374" y="-1223.9" font-family="Arial" font-size="14.00" fill="#666666">[int(11)]</text>
<polygon fill="none" stroke="#000000" points="448,-1182.5 448,-1212.5 701,-1212.5 701,-1182.5 448,-1182.5"/>
<text text-anchor="start" x="455" y="-1193.9" font-family="Arial" font-size="14.00" fill="#000000">created_by_user </text>
<text text-anchor="start" x="563.1458" y="-1193.9" font-family="Arial" font-size="14.00" fill="#666666">[varchar(191)]</text>
<polygon fill="none" stroke="#000000" points="448,-1152.5 448,-1182.5 701,-1182.5 701,-1152.5 448,-1152.5"/>
<text text-anchor="start" x="455" y="-1163.9" font-family="Arial" font-size="14.00" fill="#000000">date_modified </text>
<text text-anchor="start" x="546.8064" y="-1163.9" font-family="Arial" font-size="14.00" fill="#666666">[datetime]</text>
<polygon fill="none" stroke="#000000" points="448,-1122.5 448,-1152.5 701,-1152.5 701,-1122.5 448,-1122.5"/>
<text text-anchor="start" x="455" y="-1133.9" font-family="Arial" font-size="14.00" fill="#000000">modified_by </text>
<text text-anchor="start" x="534.3506" y="-1133.9" font-family="Arial" font-size="14.00" fill="#666666">[int(11)]</text>
<polygon fill="none" stroke="#000000" points="448,-1092.5 448,-1122.5 701,-1122.5 701,-1092.5 448,-1092.5"/>
<text text-anchor="start" x="455" y="-1103.9" font-family="Arial" font-size="14.00" fill="#000000">modified_by_user </text>
<text text-anchor="start" x="569.359" y="-1103.9" font-family="Arial" font-size="14.00" fill="#666666">[varchar(191)]</text>
<polygon fill="none" stroke="#000000" points="448,-1062.5 448,-1092.5 701,-1092.5 701,-1062.5 448,-1062.5"/>
<text text-anchor="start" x="455" y="-1073.9" font-family="Arial" font-size="14.00" fill="#000000">checked_out </text>
<text text-anchor="start" x="538.2594" y="-1073.9" font-family="Arial" font-size="14.00" fill="#666666">[datetime]</text>
<polygon fill="none" stroke="#000000" points="448,-1032.5 448,-1062.5 701,-1062.5 701,-1032.5 448,-1032.5"/>
<text text-anchor="start" x="455" y="-1043.9" font-family="Arial" font-size="14.00" fill="#000000">checked_out_by </text>
<text text-anchor="start" x="560.8246" y="-1043.9" font-family="Arial" font-size="14.00" fill="#666666">[int(11)]</text>
<polygon fill="none" stroke="#000000" points="448,-1002.5 448,-1032.5 701,-1032.5 701,-1002.5 448,-1002.5"/>
<text text-anchor="start" x="455" y="-1013.9" font-family="Arial" font-size="14.00" fill="#000000">checked_out_by_user </text>
<text text-anchor="start" x="595.833" y="-1013.9" font-family="Arial" font-size="14.00" fill="#666666">[varchar(191)]</text>
<polygon fill="none" stroke="#000000" points="448,-972.5 448,-1002.5 701,-1002.5 701,-972.5 448,-972.5"/>
<text text-anchor="start" x="455" y="-983.9" font-family="Arial" font-size="14.00" fill="#000000">points </text>
<text text-anchor="start" x="496.2356" y="-983.9" font-family="Arial" font-size="14.00" fill="#666666">[int(11)]</text>
<polygon fill="none" stroke="#000000" points="448,-942.5 448,-972.5 701,-972.5 701,-942.5 448,-942.5"/>
<text text-anchor="start" x="455" y="-953.9" font-family="Arial" font-size="14.00" fill="#000000">last_active </text>
<text text-anchor="start" x="525.0154" y="-953.9" font-family="Arial" font-size="14.00" fill="#666666">[datetime]</text>
<polygon fill="none" stroke="#000000" points="448,-912.5 448,-942.5 701,-942.5 701,-912.5 448,-912.5"/>
<text text-anchor="start" x="455" y="-923.9" font-family="Arial" font-size="14.00" fill="#000000">internal </text>
<text text-anchor="start" x="504.7854" y="-923.9" font-family="Arial" font-size="14.00" fill="#666666">[longtext]</text>
<polygon fill="none" stroke="#000000" points="448,-882.5 448,-912.5 701,-912.5 701,-882.5 448,-882.5"/>
<text text-anchor="start" x="455" y="-893.9" font-family="Arial" font-size="14.00" fill="#000000">social_cache </text>
<text text-anchor="start" x="539.7994" y="-893.9" font-family="Arial" font-size="14.00" fill="#666666">[longtext]</text>
<polygon fill="none" stroke="#000000" points="448,-852.5 448,-882.5 701,-882.5 701,-852.5 448,-852.5"/>
<text text-anchor="start" x="455" y="-863.9" font-family="Arial" font-size="14.00" fill="#000000">date_identified </text>
<text text-anchor="start" x="549.9256" y="-863.9" font-family="Arial" font-size="14.00" fill="#666666">[datetime]</text>
<polygon fill="none" stroke="#000000" points="448,-822.5 448,-852.5 701,-852.5 701,-822.5 448,-822.5"/>
<text text-anchor="start" x="454.7062" y="-833.9" font-family="Arial" font-size="14.00" fill="#000000">preferred_profile_image </text>
<text text-anchor="start" x="607.1746" y="-833.9" font-family="Arial" font-size="14.00" fill="#666666">[varchar(191)]</text>
<polygon fill="none" stroke="#000000" points="448,-792.5 448,-822.5 701,-822.5 701,-792.5 448,-792.5"/>
<text text-anchor="start" x="455" y="-803.9" font-family="Arial" font-size="14.00" fill="#000000">title </text>
<text text-anchor="start" x="480.6676" y="-803.9" font-family="Arial" font-size="14.00" fill="#666666">[varchar(191)]</text>
<polygon fill="none" stroke="#000000" points="448,-762.5 448,-792.5 701,-792.5 701,-762.5 448,-762.5"/>
<text text-anchor="start" x="455" y="-773.9" font-family="Arial" font-size="14.00" fill="#000000">firstname </text>
<text text-anchor="start" x="516.4474" y="-773.9" font-family="Arial" font-size="14.00" fill="#666666">[varchar(191)]</text>
<polygon fill="none" stroke="#000000" points="448,-732.5 448,-762.5 701,-762.5 701,-732.5 448,-732.5"/>
<text text-anchor="start" x="455" y="-743.9" font-family="Arial" font-size="14.00" fill="#000000">lastname </text>
<text text-anchor="start" x="515.6788" y="-743.9" font-family="Arial" font-size="14.00" fill="#666666">[varchar(191)]</text>
<polygon fill="none" stroke="#000000" points="448,-702.5 448,-732.5 701,-732.5 701,-702.5 448,-702.5"/>
<text text-anchor="start" x="455" y="-713.9" font-family="Arial" font-size="14.00" fill="#000000">company </text>
<text text-anchor="start" x="515.6816" y="-713.9" font-family="Arial" font-size="14.00" fill="#666666">[varchar(191)]</text>
<polygon fill="none" stroke="#000000" points="448,-672.5 448,-702.5 701,-702.5 701,-672.5 448,-672.5"/>
<text text-anchor="start" x="455" y="-683.9" font-family="Arial" font-size="14.00" fill="#000000">position </text>
<text text-anchor="start" x="507.1248" y="-683.9" font-family="Arial" font-size="14.00" fill="#666666">[varchar(191)]</text>
<polygon fill="none" stroke="#000000" points="448,-642.5 448,-672.5 701,-672.5 701,-642.5 448,-642.5"/>
<text text-anchor="start" x="455" y="-653.9" font-family="Arial" font-size="14.00" fill="#000000">email </text>
<text text-anchor="start" x="492.3296" y="-653.9" font-family="Arial" font-size="14.00" fill="#666666">[varchar(191)]</text>
<polygon fill="none" stroke="#000000" points="448,-612.5 448,-642.5 701,-642.5 701,-612.5 448,-612.5"/>
<text text-anchor="start" x="455" y="-623.9" font-family="Arial" font-size="14.00" fill="#000000">phone </text>
<text text-anchor="start" x="497.8036" y="-623.9" font-family="Arial" font-size="14.00" fill="#666666">[varchar(191)]</text>
<polygon fill="none" stroke="#000000" points="448,-582.5 448,-612.5 701,-612.5 701,-582.5 448,-582.5"/>
<text text-anchor="start" x="455" y="-593.9" font-family="Arial" font-size="14.00" fill="#000000">mobile </text>
<text text-anchor="start" x="500.1122" y="-593.9" font-family="Arial" font-size="14.00" fill="#666666">[varchar(191)]</text>
<polygon fill="none" stroke="#000000" points="448,-552.5 448,-582.5 701,-582.5 701,-552.5 448,-552.5"/>
<text text-anchor="start" x="455" y="-563.9" font-family="Arial" font-size="14.00" fill="#000000">address1 </text>
<text text-anchor="start" x="516.4642" y="-563.9" font-family="Arial" font-size="14.00" fill="#666666">[varchar(191)]</text>
<polygon fill="none" stroke="#000000" points="448,-522.5 448,-552.5 701,-552.5 701,-522.5 448,-522.5"/>
<text text-anchor="start" x="455" y="-533.9" font-family="Arial" font-size="14.00" fill="#000000">address2 </text>
<text text-anchor="start" x="516.4642" y="-533.9" font-family="Arial" font-size="14.00" fill="#666666">[varchar(191)]</text>
<polygon fill="none" stroke="#000000" points="448,-492.5 448,-522.5 701,-522.5 701,-492.5 448,-492.5"/>
<text text-anchor="start" x="455" y="-503.9" font-family="Arial" font-size="14.00" fill="#000000">city </text>
<text text-anchor="start" x="479.8878" y="-503.9" font-family="Arial" font-size="14.00" fill="#666666">[varchar(191)]</text>
<polygon fill="none" stroke="#000000" points="448,-462.5 448,-492.5 701,-492.5 701,-462.5 448,-462.5"/>
<text text-anchor="start" x="455" y="-473.9" font-family="Arial" font-size="14.00" fill="#000000">state </text>
<text text-anchor="start" x="489.237" y="-473.9" font-family="Arial" font-size="14.00" fill="#666666">[varchar(191)]</text>
<polygon fill="none" stroke="#000000" points="448,-432.5 448,-462.5 701,-462.5 701,-432.5 448,-432.5"/>
<text text-anchor="start" x="455" y="-443.9" font-family="Arial" font-size="14.00" fill="#000000">zipcode </text>
<text text-anchor="start" x="507.1276" y="-443.9" font-family="Arial" font-size="14.00" fill="#666666">[varchar(191)]</text>
<polygon fill="none" stroke="#000000" points="448,-402.5 448,-432.5 701,-432.5 701,-402.5 448,-402.5"/>
<text text-anchor="start" x="455" y="-413.9" font-family="Arial" font-size="14.00" fill="#000000">timezone </text>
<text text-anchor="start" x="515.6788" y="-413.9" font-family="Arial" font-size="14.00" fill="#666666">[varchar(191)]</text>
<polygon fill="none" stroke="#000000" points="448,-372.5 448,-402.5 701,-402.5 701,-372.5 448,-372.5"/>
<text text-anchor="start" x="455" y="-383.9" font-family="Arial" font-size="14.00" fill="#000000">country </text>
<text text-anchor="start" x="504.7896" y="-383.9" font-family="Arial" font-size="14.00" fill="#666666">[varchar(191)]</text>
<polygon fill="none" stroke="#000000" points="448,-342.5 448,-372.5 701,-372.5 701,-342.5 448,-342.5"/>
<text text-anchor="start" x="455" y="-353.9" font-family="Arial" font-size="14.00" fill="#000000">fax </text>
<text text-anchor="start" x="477.5638" y="-353.9" font-family="Arial" font-size="14.00" fill="#666666">[varchar(255)]</text>
<polygon fill="none" stroke="#000000" points="448,-312.5 448,-342.5 701,-342.5 701,-312.5 448,-312.5"/>
<text text-anchor="start" x="455" y="-323.9" font-family="Arial" font-size="14.00" fill="#000000">preferred_locale </text>
<text text-anchor="start" x="560.0196" y="-323.9" font-family="Arial" font-size="14.00" fill="#666666">[varchar(255)]</text>
<polygon fill="none" stroke="#000000" points="448,-282.5 448,-312.5 701,-312.5 701,-282.5 448,-282.5"/>
<text text-anchor="start" x="455" y="-293.9" font-family="Arial" font-size="14.00" fill="#000000">attribution_date </text>
<text text-anchor="start" x="555.3702" y="-293.9" font-family="Arial" font-size="14.00" fill="#666666">[datetime]</text>
<polygon fill="none" stroke="#000000" points="448,-252.5 448,-282.5 701,-282.5 701,-252.5 448,-252.5"/>
<text text-anchor="start" x="455" y="-263.9" font-family="Arial" font-size="14.00" fill="#000000">attribution </text>
<text text-anchor="start" x="520.3492" y="-263.9" font-family="Arial" font-size="14.00" fill="#666666">[double]</text>
<polygon fill="none" stroke="#000000" points="448,-222.5 448,-252.5 701,-252.5 701,-222.5 448,-222.5"/>
<text text-anchor="start" x="455" y="-233.9" font-family="Arial" font-size="14.00" fill="#000000">website </text>
<text text-anchor="start" x="506.3422" y="-233.9" font-family="Arial" font-size="14.00" fill="#666666">[longtext]</text>
<polygon fill="none" stroke="#000000" points="448,-192.5 448,-222.5 701,-222.5 701,-192.5 448,-192.5"/>
<text text-anchor="start" x="455" y="-203.9" font-family="Arial" font-size="14.00" fill="#000000">facebook </text>
<text text-anchor="start" x="515.6942" y="-203.9" font-family="Arial" font-size="14.00" fill="#666666">[varchar(255)]</text>
<polygon fill="none" stroke="#000000" points="448,-162.5 448,-192.5 701,-192.5 701,-162.5 448,-162.5"/>
<text text-anchor="start" x="455" y="-173.9" font-family="Arial" font-size="14.00" fill="#000000">foursquare </text>
<text text-anchor="start" x="525.798" y="-173.9" font-family="Arial" font-size="14.00" fill="#666666">[varchar(255)]</text>
<polygon fill="none" stroke="#000000" points="448,-132.5 448,-162.5 701,-162.5 701,-132.5 448,-132.5"/>
<text text-anchor="start" x="455" y="-143.9" font-family="Arial" font-size="14.00" fill="#000000">instagram </text>
<text text-anchor="start" x="520.3394" y="-143.9" font-family="Arial" font-size="14.00" fill="#666666">[varchar(255)]</text>
<polygon fill="none" stroke="#000000" points="448,-102.5 448,-132.5 701,-132.5 701,-102.5 448,-102.5"/>
<text text-anchor="start" x="455" y="-113.9" font-family="Arial" font-size="14.00" fill="#000000">linkedin </text>
<text text-anchor="start" x="506.3408" y="-113.9" font-family="Arial" font-size="14.00" fill="#666666">[varchar(255)]</text>
<polygon fill="none" stroke="#000000" points="448,-72.5 448,-102.5 701,-102.5 701,-72.5 448,-72.5"/>
<text text-anchor="start" x="455" y="-83.9" font-family="Arial" font-size="14.00" fill="#000000">skype </text>
<text text-anchor="start" x="495.4558" y="-83.9" font-family="Arial" font-size="14.00" fill="#666666">[varchar(255)]</text>
<polygon fill="none" stroke="#000000" points="448,-42.5 448,-72.5 701,-72.5 701,-42.5 448,-42.5"/>
<text text-anchor="start" x="455" y="-53.9" font-family="Arial" font-size="14.00" fill="#000000">twitter </text>
<text text-anchor="start" x="496.2188" y="-53.9" font-family="Arial" font-size="14.00" fill="#666666">[varchar(255)]</text>
</g>
<!-- lead_categories&#45;&gt;leads -->
<g id="edge2" class="edge">
<title>lead_categories:lead_id&#45;&gt;leads:id</title>
<path fill="none" stroke="#000000" d="M528.102,-1656.6832C581.3754,-1647.3927 550.9363,-1560.9754 518,-1507 499.777,-1477.1366 466.223,-1500.8634 448,-1471 426.3541,-1435.5272 406.4444,-1377.5 448,-1377.5"/>
<polygon fill="#000000" stroke="#000000" points="527.9675,-1656.694 517.6373,-1653.0146 522.9837,-1657.097 518,-1657.5 518,-1657.5 518,-1657.5 522.9837,-1657.097 518.3627,-1661.9854 527.9675,-1656.694 527.9675,-1656.694"/>
<text text-anchor="start" x="525.496" y="-1667.5" font-family="Arial" font-size="10.00" fill="#000000">FOREIGN KEY (lead_id) REFERENCES leads (id)</text>
</g>
</g>
</svg>
