<?xml version="1.0" encoding="UTF-8" standalone="no"?>
<!DOCTYPE svg PUBLIC "-//W3C//DTD SVG 1.1//EN"
 "http://www.w3.org/Graphics/SVG/1.1/DTD/svg11.dtd">
<!-- Generated by graphviz version 2.40.1 (20161225.0304)
 -->
<!-- Title: lead_tags_xref Pages: 1 -->
<svg width="662pt" height="1702pt"
 viewBox="0.00 0.00 661.50 1702.00" xmlns="http://www.w3.org/2000/svg" xmlns:xlink="http://www.w3.org/1999/xlink">
<g id="graph0" class="graph" transform="scale(1 1) rotate(0) translate(4 1698)">
<title>lead_tags_xref</title>
<polygon fill="#ffffff" stroke="transparent" points="-4,4 -4,-1698 657.5,-1698 657.5,4 -4,4"/>
<!-- lead_tags_xref -->
<g id="node1" class="node">
<title>lead_tags_xref</title>
<polygon fill="#efefef" stroke="transparent" points="239,-1612.5 239,-1647.5 468,-1647.5 468,-1612.5 239,-1612.5"/>
<polygon fill="none" stroke="#000000" points="239,-1612.5 239,-1647.5 468,-1647.5 468,-1612.5 239,-1612.5"/>
<text text-anchor="start" x="245.8529" y="-1625.3" font-family="Arial Bold" font-size="18.00" fill="#000000">lead_tags_xref</text>
<text text-anchor="start" x="363.8933" y="-1625.3" font-family="Arial" font-size="14.00" fill="#000000"> </text>
<text text-anchor="start" x="367.7839" y="-1625.3" font-family="Arial" font-size="14.00" fill="#666666">[BASE TABLE]</text>
<polygon fill="none" stroke="#000000" points="239,-1582.5 239,-1612.5 468,-1612.5 468,-1582.5 239,-1582.5"/>
<text text-anchor="start" x="246" y="-1593.9" font-family="Arial" font-size="14.00" fill="#000000">lead_id </text>
<text text-anchor="start" x="295.0168" y="-1593.9" font-family="Arial" font-size="14.00" fill="#666666">[bigint(20) unsigned]</text>
<polygon fill="none" stroke="#000000" points="239,-1552.5 239,-1582.5 468,-1582.5 468,-1552.5 239,-1552.5"/>
<text text-anchor="start" x="246" y="-1563.9" font-family="Arial" font-size="14.00" fill="#000000">tag_id </text>
<text text-anchor="start" x="288.0182" y="-1563.9" font-family="Arial" font-size="14.00" fill="#666666">[int(10) unsigned]</text>
<polygon fill="none" stroke="#000000" stroke-width="3" points="237,-1551.5 237,-1649.5 469,-1649.5 469,-1551.5 237,-1551.5"/>
</g>
<!-- leads -->
<g id="node2" class="node">
<title>leads</title>
<polygon fill="#efefef" stroke="transparent" points="65,-1392.5 65,-1427.5 318,-1427.5 318,-1392.5 65,-1392.5"/>
<polygon fill="none" stroke="#000000" points="65,-1392.5 65,-1427.5 318,-1427.5 318,-1392.5 65,-1392.5"/>
<text text-anchor="start" x="121.3667" y="-1405.3" font-family="Arial Bold" font-size="18.00" fill="#000000">leads</text>
<text text-anchor="start" x="164.3795" y="-1405.3" font-family="Arial" font-size="14.00" fill="#000000"> </text>
<text text-anchor="start" x="168.2701" y="-1405.3" font-family="Arial" font-size="14.00" fill="#666666">[BASE TABLE]</text>
<polygon fill="none" stroke="#000000" points="65,-1362.5 65,-1392.5 318,-1392.5 318,-1362.5 65,-1362.5"/>
<text text-anchor="start" x="72" y="-1373.9" font-family="Arial" font-size="14.00" fill="#000000">id </text>
<text text-anchor="start" x="86.7798" y="-1373.9" font-family="Arial" font-size="14.00" fill="#666666">[bigint(20) unsigned]</text>
<polygon fill="none" stroke="#000000" points="65,-1332.5 65,-1362.5 318,-1362.5 318,-1332.5 65,-1332.5"/>
<text text-anchor="start" x="72" y="-1343.9" font-family="Arial" font-size="14.00" fill="#000000">owner_id </text>
<text text-anchor="start" x="132.6774" y="-1343.9" font-family="Arial" font-size="14.00" fill="#666666">[int(10) unsigned]</text>
<polygon fill="none" stroke="#000000" points="65,-1302.5 65,-1332.5 318,-1332.5 318,-1302.5 65,-1302.5"/>
<text text-anchor="start" x="72" y="-1313.9" font-family="Arial" font-size="14.00" fill="#000000">stage_id </text>
<text text-anchor="start" x="128.8008" y="-1313.9" font-family="Arial" font-size="14.00" fill="#666666">[int(10) unsigned]</text>
<polygon fill="none" stroke="#000000" points="65,-1272.5 65,-1302.5 318,-1302.5 318,-1272.5 65,-1272.5"/>
<text text-anchor="start" x="72" y="-1283.9" font-family="Arial" font-size="14.00" fill="#000000">is_published </text>
<text text-anchor="start" x="153.6886" y="-1283.9" font-family="Arial" font-size="14.00" fill="#666666">[tinyint(1)]</text>
<polygon fill="none" stroke="#000000" points="65,-1242.5 65,-1272.5 318,-1272.5 318,-1242.5 65,-1242.5"/>
<text text-anchor="start" x="72" y="-1253.9" font-family="Arial" font-size="14.00" fill="#000000">date_added </text>
<text text-anchor="start" x="149.8246" y="-1253.9" font-family="Arial" font-size="14.00" fill="#666666">[datetime]</text>
<polygon fill="none" stroke="#000000" points="65,-1212.5 65,-1242.5 318,-1242.5 318,-1212.5 65,-1212.5"/>
<text text-anchor="start" x="72" y="-1223.9" font-family="Arial" font-size="14.00" fill="#000000">created_by </text>
<text text-anchor="start" x="145.1374" y="-1223.9" font-family="Arial" font-size="14.00" fill="#666666">[int(11)]</text>
<polygon fill="none" stroke="#000000" points="65,-1182.5 65,-1212.5 318,-1212.5 318,-1182.5 65,-1182.5"/>
<text text-anchor="start" x="72" y="-1193.9" font-family="Arial" font-size="14.00" fill="#000000">created_by_user </text>
<text text-anchor="start" x="180.1458" y="-1193.9" font-family="Arial" font-size="14.00" fill="#666666">[varchar(191)]</text>
<polygon fill="none" stroke="#000000" points="65,-1152.5 65,-1182.5 318,-1182.5 318,-1152.5 65,-1152.5"/>
<text text-anchor="start" x="72" y="-1163.9" font-family="Arial" font-size="14.00" fill="#000000">date_modified </text>
<text text-anchor="start" x="163.8064" y="-1163.9" font-family="Arial" font-size="14.00" fill="#666666">[datetime]</text>
<polygon fill="none" stroke="#000000" points="65,-1122.5 65,-1152.5 318,-1152.5 318,-1122.5 65,-1122.5"/>
<text text-anchor="start" x="72" y="-1133.9" font-family="Arial" font-size="14.00" fill="#000000">modified_by </text>
<text text-anchor="start" x="151.3506" y="-1133.9" font-family="Arial" font-size="14.00" fill="#666666">[int(11)]</text>
<polygon fill="none" stroke="#000000" points="65,-1092.5 65,-1122.5 318,-1122.5 318,-1092.5 65,-1092.5"/>
<text text-anchor="start" x="72" y="-1103.9" font-family="Arial" font-size="14.00" fill="#000000">modified_by_user </text>
<text text-anchor="start" x="186.359" y="-1103.9" font-family="Arial" font-size="14.00" fill="#666666">[varchar(191)]</text>
<polygon fill="none" stroke="#000000" points="65,-1062.5 65,-1092.5 318,-1092.5 318,-1062.5 65,-1062.5"/>
<text text-anchor="start" x="72" y="-1073.9" font-family="Arial" font-size="14.00" fill="#000000">checked_out </text>
<text text-anchor="start" x="155.2594" y="-1073.9" font-family="Arial" font-size="14.00" fill="#666666">[datetime]</text>
<polygon fill="none" stroke="#000000" points="65,-1032.5 65,-1062.5 318,-1062.5 318,-1032.5 65,-1032.5"/>
<text text-anchor="start" x="72" y="-1043.9" font-family="Arial" font-size="14.00" fill="#000000">checked_out_by </text>
<text text-anchor="start" x="177.8246" y="-1043.9" font-family="Arial" font-size="14.00" fill="#666666">[int(11)]</text>
<polygon fill="none" stroke="#000000" points="65,-1002.5 65,-1032.5 318,-1032.5 318,-1002.5 65,-1002.5"/>
<text text-anchor="start" x="72" y="-1013.9" font-family="Arial" font-size="14.00" fill="#000000">checked_out_by_user </text>
<text text-anchor="start" x="212.833" y="-1013.9" font-family="Arial" font-size="14.00" fill="#666666">[varchar(191)]</text>
<polygon fill="none" stroke="#000000" points="65,-972.5 65,-1002.5 318,-1002.5 318,-972.5 65,-972.5"/>
<text text-anchor="start" x="72" y="-983.9" font-family="Arial" font-size="14.00" fill="#000000">points </text>
<text text-anchor="start" x="113.2356" y="-983.9" font-family="Arial" font-size="14.00" fill="#666666">[int(11)]</text>
<polygon fill="none" stroke="#000000" points="65,-942.5 65,-972.5 318,-972.5 318,-942.5 65,-942.5"/>
<text text-anchor="start" x="72" y="-953.9" font-family="Arial" font-size="14.00" fill="#000000">last_active </text>
<text text-anchor="start" x="142.0154" y="-953.9" font-family="Arial" font-size="14.00" fill="#666666">[datetime]</text>
<polygon fill="none" stroke="#000000" points="65,-912.5 65,-942.5 318,-942.5 318,-912.5 65,-912.5"/>
<text text-anchor="start" x="72" y="-923.9" font-family="Arial" font-size="14.00" fill="#000000">internal </text>
<text text-anchor="start" x="121.7854" y="-923.9" font-family="Arial" font-size="14.00" fill="#666666">[longtext]</text>
<polygon fill="none" stroke="#000000" points="65,-882.5 65,-912.5 318,-912.5 318,-882.5 65,-882.5"/>
<text text-anchor="start" x="72" y="-893.9" font-family="Arial" font-size="14.00" fill="#000000">social_cache </text>
<text text-anchor="start" x="156.7994" y="-893.9" font-family="Arial" font-size="14.00" fill="#666666">[longtext]</text>
<polygon fill="none" stroke="#000000" points="65,-852.5 65,-882.5 318,-882.5 318,-852.5 65,-852.5"/>
<text text-anchor="start" x="72" y="-863.9" font-family="Arial" font-size="14.00" fill="#000000">date_identified </text>
<text text-anchor="start" x="166.9256" y="-863.9" font-family="Arial" font-size="14.00" fill="#666666">[datetime]</text>
<polygon fill="none" stroke="#000000" points="65,-822.5 65,-852.5 318,-852.5 318,-822.5 65,-822.5"/>
<text text-anchor="start" x="71.7062" y="-833.9" font-family="Arial" font-size="14.00" fill="#000000">preferred_profile_image </text>
<text text-anchor="start" x="224.1746" y="-833.9" font-family="Arial" font-size="14.00" fill="#666666">[varchar(191)]</text>
<polygon fill="none" stroke="#000000" points="65,-792.5 65,-822.5 318,-822.5 318,-792.5 65,-792.5"/>
<text text-anchor="start" x="72" y="-803.9" font-family="Arial" font-size="14.00" fill="#000000">title </text>
<text text-anchor="start" x="97.6676" y="-803.9" font-family="Arial" font-size="14.00" fill="#666666">[varchar(191)]</text>
<polygon fill="none" stroke="#000000" points="65,-762.5 65,-792.5 318,-792.5 318,-762.5 65,-762.5"/>
<text text-anchor="start" x="72" y="-773.9" font-family="Arial" font-size="14.00" fill="#000000">firstname </text>
<text text-anchor="start" x="133.4474" y="-773.9" font-family="Arial" font-size="14.00" fill="#666666">[varchar(191)]</text>
<polygon fill="none" stroke="#000000" points="65,-732.5 65,-762.5 318,-762.5 318,-732.5 65,-732.5"/>
<text text-anchor="start" x="72" y="-743.9" font-family="Arial" font-size="14.00" fill="#000000">lastname </text>
<text text-anchor="start" x="132.6788" y="-743.9" font-family="Arial" font-size="14.00" fill="#666666">[varchar(191)]</text>
<polygon fill="none" stroke="#000000" points="65,-702.5 65,-732.5 318,-732.5 318,-702.5 65,-702.5"/>
<text text-anchor="start" x="72" y="-713.9" font-family="Arial" font-size="14.00" fill="#000000">company </text>
<text text-anchor="start" x="132.6816" y="-713.9" font-family="Arial" font-size="14.00" fill="#666666">[varchar(191)]</text>
<polygon fill="none" stroke="#000000" points="65,-672.5 65,-702.5 318,-702.5 318,-672.5 65,-672.5"/>
<text text-anchor="start" x="72" y="-683.9" font-family="Arial" font-size="14.00" fill="#000000">position </text>
<text text-anchor="start" x="124.1248" y="-683.9" font-family="Arial" font-size="14.00" fill="#666666">[varchar(191)]</text>
<polygon fill="none" stroke="#000000" points="65,-642.5 65,-672.5 318,-672.5 318,-642.5 65,-642.5"/>
<text text-anchor="start" x="72" y="-653.9" font-family="Arial" font-size="14.00" fill="#000000">email </text>
<text text-anchor="start" x="109.3296" y="-653.9" font-family="Arial" font-size="14.00" fill="#666666">[varchar(191)]</text>
<polygon fill="none" stroke="#000000" points="65,-612.5 65,-642.5 318,-642.5 318,-612.5 65,-612.5"/>
<text text-anchor="start" x="72" y="-623.9" font-family="Arial" font-size="14.00" fill="#000000">phone </text>
<text text-anchor="start" x="114.8036" y="-623.9" font-family="Arial" font-size="14.00" fill="#666666">[varchar(191)]</text>
<polygon fill="none" stroke="#000000" points="65,-582.5 65,-612.5 318,-612.5 318,-582.5 65,-582.5"/>
<text text-anchor="start" x="72" y="-593.9" font-family="Arial" font-size="14.00" fill="#000000">mobile </text>
<text text-anchor="start" x="117.1122" y="-593.9" font-family="Arial" font-size="14.00" fill="#666666">[varchar(191)]</text>
<polygon fill="none" stroke="#000000" points="65,-552.5 65,-582.5 318,-582.5 318,-552.5 65,-552.5"/>
<text text-anchor="start" x="72" y="-563.9" font-family="Arial" font-size="14.00" fill="#000000">address1 </text>
<text text-anchor="start" x="133.4642" y="-563.9" font-family="Arial" font-size="14.00" fill="#666666">[varchar(191)]</text>
<polygon fill="none" stroke="#000000" points="65,-522.5 65,-552.5 318,-552.5 318,-522.5 65,-522.5"/>
<text text-anchor="start" x="72" y="-533.9" font-family="Arial" font-size="14.00" fill="#000000">address2 </text>
<text text-anchor="start" x="133.4642" y="-533.9" font-family="Arial" font-size="14.00" fill="#666666">[varchar(191)]</text>
<polygon fill="none" stroke="#000000" points="65,-492.5 65,-522.5 318,-522.5 318,-492.5 65,-492.5"/>
<text text-anchor="start" x="72" y="-503.9" font-family="Arial" font-size="14.00" fill="#000000">city </text>
<text text-anchor="start" x="96.8878" y="-503.9" font-family="Arial" font-size="14.00" fill="#666666">[varchar(191)]</text>
<polygon fill="none" stroke="#000000" points="65,-462.5 65,-492.5 318,-492.5 318,-462.5 65,-462.5"/>
<text text-anchor="start" x="72" y="-473.9" font-family="Arial" font-size="14.00" fill="#000000">state </text>
<text text-anchor="start" x="106.237" y="-473.9" font-family="Arial" font-size="14.00" fill="#666666">[varchar(191)]</text>
<polygon fill="none" stroke="#000000" points="65,-432.5 65,-462.5 318,-462.5 318,-432.5 65,-432.5"/>
<text text-anchor="start" x="72" y="-443.9" font-family="Arial" font-size="14.00" fill="#000000">zipcode </text>
<text text-anchor="start" x="124.1276" y="-443.9" font-family="Arial" font-size="14.00" fill="#666666">[varchar(191)]</text>
<polygon fill="none" stroke="#000000" points="65,-402.5 65,-432.5 318,-432.5 318,-402.5 65,-402.5"/>
<text text-anchor="start" x="72" y="-413.9" font-family="Arial" font-size="14.00" fill="#000000">timezone </text>
<text text-anchor="start" x="132.6788" y="-413.9" font-family="Arial" font-size="14.00" fill="#666666">[varchar(191)]</text>
<polygon fill="none" stroke="#000000" points="65,-372.5 65,-402.5 318,-402.5 318,-372.5 65,-372.5"/>
<text text-anchor="start" x="72" y="-383.9" font-family="Arial" font-size="14.00" fill="#000000">country </text>
<text text-anchor="start" x="121.7896" y="-383.9" font-family="Arial" font-size="14.00" fill="#666666">[varchar(191)]</text>
<polygon fill="none" stroke="#000000" points="65,-342.5 65,-372.5 318,-372.5 318,-342.5 65,-342.5"/>
<text text-anchor="start" x="72" y="-353.9" font-family="Arial" font-size="14.00" fill="#000000">fax </text>
<text text-anchor="start" x="94.5638" y="-353.9" font-family="Arial" font-size="14.00" fill="#666666">[varchar(255)]</text>
<polygon fill="none" stroke="#000000" points="65,-312.5 65,-342.5 318,-342.5 318,-312.5 65,-312.5"/>
<text text-anchor="start" x="72" y="-323.9" font-family="Arial" font-size="14.00" fill="#000000">preferred_locale </text>
<text text-anchor="start" x="177.0196" y="-323.9" font-family="Arial" font-size="14.00" fill="#666666">[varchar(255)]</text>
<polygon fill="none" stroke="#000000" points="65,-282.5 65,-312.5 318,-312.5 318,-282.5 65,-282.5"/>
<text text-anchor="start" x="72" y="-293.9" font-family="Arial" font-size="14.00" fill="#000000">attribution_date </text>
<text text-anchor="start" x="172.3702" y="-293.9" font-family="Arial" font-size="14.00" fill="#666666">[datetime]</text>
<polygon fill="none" stroke="#000000" points="65,-252.5 65,-282.5 318,-282.5 318,-252.5 65,-252.5"/>
<text text-anchor="start" x="72" y="-263.9" font-family="Arial" font-size="14.00" fill="#000000">attribution </text>
<text text-anchor="start" x="137.3492" y="-263.9" font-family="Arial" font-size="14.00" fill="#666666">[double]</text>
<polygon fill="none" stroke="#000000" points="65,-222.5 65,-252.5 318,-252.5 318,-222.5 65,-222.5"/>
<text text-anchor="start" x="72" y="-233.9" font-family="Arial" font-size="14.00" fill="#000000">website </text>
<text text-anchor="start" x="123.3422" y="-233.9" font-family="Arial" font-size="14.00" fill="#666666">[longtext]</text>
<polygon fill="none" stroke="#000000" points="65,-192.5 65,-222.5 318,-222.5 318,-192.5 65,-192.5"/>
<text text-anchor="start" x="72" y="-203.9" font-family="Arial" font-size="14.00" fill="#000000">facebook </text>
<text text-anchor="start" x="132.6942" y="-203.9" font-family="Arial" font-size="14.00" fill="#666666">[varchar(255)]</text>
<polygon fill="none" stroke="#000000" points="65,-162.5 65,-192.5 318,-192.5 318,-162.5 65,-162.5"/>
<text text-anchor="start" x="72" y="-173.9" font-family="Arial" font-size="14.00" fill="#000000">foursquare </text>
<text text-anchor="start" x="142.798" y="-173.9" font-family="Arial" font-size="14.00" fill="#666666">[varchar(255)]</text>
<polygon fill="none" stroke="#000000" points="65,-132.5 65,-162.5 318,-162.5 318,-132.5 65,-132.5"/>
<text text-anchor="start" x="72" y="-143.9" font-family="Arial" font-size="14.00" fill="#000000">instagram </text>
<text text-anchor="start" x="137.3394" y="-143.9" font-family="Arial" font-size="14.00" fill="#666666">[varchar(255)]</text>
<polygon fill="none" stroke="#000000" points="65,-102.5 65,-132.5 318,-132.5 318,-102.5 65,-102.5"/>
<text text-anchor="start" x="72" y="-113.9" font-family="Arial" font-size="14.00" fill="#000000">linkedin </text>
<text text-anchor="start" x="123.3408" y="-113.9" font-family="Arial" font-size="14.00" fill="#666666">[varchar(255)]</text>
<polygon fill="none" stroke="#000000" points="65,-72.5 65,-102.5 318,-102.5 318,-72.5 65,-72.5"/>
<text text-anchor="start" x="72" y="-83.9" font-family="Arial" font-size="14.00" fill="#000000">skype </text>
<text text-anchor="start" x="112.4558" y="-83.9" font-family="Arial" font-size="14.00" fill="#666666">[varchar(255)]</text>
<polygon fill="none" stroke="#000000" points="65,-42.5 65,-72.5 318,-72.5 318,-42.5 65,-42.5"/>
<text text-anchor="start" x="72" y="-53.9" font-family="Arial" font-size="14.00" fill="#000000">twitter </text>
<text text-anchor="start" x="113.2188" y="-53.9" font-family="Arial" font-size="14.00" fill="#666666">[varchar(255)]</text>
</g>
<!-- lead_tags_xref&#45;&gt;leads -->
<g id="edge1" class="edge">
<title>lead_tags_xref:lead_id&#45;&gt;leads:id</title>
<path fill="none" stroke="#000000" d="M228.8435,-1595.9527C202.4152,-1586.6491 219.3653,-1537.5247 239,-1507 259.8738,-1474.5489 297.1262,-1503.4511 318,-1471 340.4809,-1436.0504 359.5556,-1377.5 318,-1377.5"/>
<polygon fill="#000000" stroke="#000000" points="229.1141,-1595.9938 238.3222,-1601.9487 234.057,-1596.7469 239,-1597.5 239,-1597.5 239,-1597.5 234.057,-1596.7469 239.6778,-1593.0513 229.1141,-1595.9938 229.1141,-1595.9938"/>
<text text-anchor="start" x="7.496" y="-1607.5" font-family="Arial" font-size="10.00" fill="#000000">FOREIGN KEY (lead_id) REFERENCES leads (id)</text>
</g>
<!-- lead_tags -->
<g id="node3" class="node">
<title>lead_tags</title>
<polygon fill="#efefef" stroke="transparent" points="422,-747.5 422,-782.5 611,-782.5 611,-747.5 422,-747.5"/>
<polygon fill="none" stroke="#000000" points="422,-747.5 422,-782.5 611,-782.5 611,-747.5 422,-747.5"/>
<text text-anchor="start" x="428.8563" y="-760.3" font-family="Arial Bold" font-size="18.00" fill="#000000">lead_tags</text>
<text text-anchor="start" x="506.8899" y="-760.3" font-family="Arial" font-size="14.00" fill="#000000"> </text>
<text text-anchor="start" x="510.7805" y="-760.3" font-family="Arial" font-size="14.00" fill="#666666">[BASE TABLE]</text>
<polygon fill="none" stroke="#000000" points="422,-717.5 422,-747.5 611,-747.5 611,-717.5 422,-717.5"/>
<text text-anchor="start" x="429" y="-728.9" font-family="Arial" font-size="14.00" fill="#000000">id </text>
<text text-anchor="start" x="443.7798" y="-728.9" font-family="Arial" font-size="14.00" fill="#666666">[int(10) unsigned]</text>
<polygon fill="none" stroke="#000000" points="422,-687.5 422,-717.5 611,-717.5 611,-687.5 422,-687.5"/>
<text text-anchor="start" x="429" y="-698.9" font-family="Arial" font-size="14.00" fill="#000000">tag </text>
<text text-anchor="start" x="452.3464" y="-698.9" font-family="Arial" font-size="14.00" fill="#666666">[varchar(191)]</text>
</g>
<!-- lead_tags_xref&#45;&gt;lead_tags -->
<g id="edge2" class="edge">
<title>lead_tags_xref:tag_id&#45;&gt;lead_tags:id</title>
<path fill="none" stroke="#000000" d="M354.3025,-1542.4593C356.1157,-1513.7523 365.6135,-1504.0187 370,-1471 375.4164,-1430.2288 380.8706,-732.5 422,-732.5"/>
<polygon fill="#000000" stroke="#000000" points="354.3012,-1542.5045 349.502,-1552.3645 354.1506,-1547.5023 354,-1552.5 354,-1552.5 354,-1552.5 354.1506,-1547.5023 358.498,-1552.6355 354.3012,-1542.5045 354.3012,-1542.5045"/>
<text text-anchor="start" x="361.2675" y="-1562.5" font-family="Arial" font-size="10.00" fill="#000000">FOREIGN KEY (tag_id) REFERENCES lead_tags (id)</text>
</g>
</g>
</svg>
