<?xml version="1.0" encoding="UTF-8" standalone="no"?>
<!DOCTYPE svg PUBLIC "-//W3C//DTD SVG 1.1//EN"
 "http://www.w3.org/Graphics/SVG/1.1/DTD/svg11.dtd">
<!-- Generated by graphviz version 2.40.1 (20161225.0304)
 -->
<!-- Title: lead_devices Pages: 1 -->
<svg width="689pt" height="2939pt"
 viewBox="0.00 0.00 689.00 2939.00" xmlns="http://www.w3.org/2000/svg" xmlns:xlink="http://www.w3.org/1999/xlink">
<g id="graph0" class="graph" transform="scale(1 1) rotate(0) translate(4 2935)">
<title>lead_devices</title>
<polygon fill="#ffffff" stroke="transparent" points="-4,4 -4,-2935 685,-2935 685,4 -4,4"/>
<!-- lead_devices -->
<g id="node1" class="node">
<title>lead_devices</title>
<polygon fill="#efefef" stroke="transparent" points="239,-1912.5 239,-1947.5 480,-1947.5 480,-1912.5 239,-1912.5"/>
<polygon fill="none" stroke="#000000" points="239,-1912.5 239,-1947.5 480,-1947.5 480,-1912.5 239,-1912.5"/>
<text text-anchor="start" x="258.3572" y="-1925.3" font-family="Arial Bold" font-size="18.00" fill="#000000">lead_devices</text>
<text text-anchor="start" x="363.389" y="-1925.3" font-family="Arial" font-size="14.00" fill="#000000"> </text>
<text text-anchor="start" x="367.2796" y="-1925.3" font-family="Arial" font-size="14.00" fill="#666666">[BASE TABLE]</text>
<polygon fill="none" stroke="#000000" points="239,-1882.5 239,-1912.5 480,-1912.5 480,-1882.5 239,-1882.5"/>
<text text-anchor="start" x="246" y="-1893.9" font-family="Arial" font-size="14.00" fill="#000000">id </text>
<text text-anchor="start" x="260.7798" y="-1893.9" font-family="Arial" font-size="14.00" fill="#666666">[bigint(20) unsigned]</text>
<polygon fill="none" stroke="#000000" points="239,-1852.5 239,-1882.5 480,-1882.5 480,-1852.5 239,-1852.5"/>
<text text-anchor="start" x="246" y="-1863.9" font-family="Arial" font-size="14.00" fill="#000000">lead_id </text>
<text text-anchor="start" x="295.0168" y="-1863.9" font-family="Arial" font-size="14.00" fill="#666666">[bigint(20) unsigned]</text>
<polygon fill="none" stroke="#000000" points="239,-1822.5 239,-1852.5 480,-1852.5 480,-1822.5 239,-1822.5"/>
<text text-anchor="start" x="246" y="-1833.9" font-family="Arial" font-size="14.00" fill="#000000">date_added </text>
<text text-anchor="start" x="323.8246" y="-1833.9" font-family="Arial" font-size="14.00" fill="#666666">[datetime]</text>
<polygon fill="none" stroke="#000000" points="239,-1792.5 239,-1822.5 480,-1822.5 480,-1792.5 239,-1792.5"/>
<text text-anchor="start" x="246" y="-1803.9" font-family="Arial" font-size="14.00" fill="#000000">client_info </text>
<text text-anchor="start" x="312.9046" y="-1803.9" font-family="Arial" font-size="14.00" fill="#666666">[longtext]</text>
<polygon fill="none" stroke="#000000" points="239,-1762.5 239,-1792.5 480,-1792.5 480,-1762.5 239,-1762.5"/>
<text text-anchor="start" x="246" y="-1773.9" font-family="Arial" font-size="14.00" fill="#000000">device </text>
<text text-anchor="start" x="290.345" y="-1773.9" font-family="Arial" font-size="14.00" fill="#666666">[varchar(191)]</text>
<polygon fill="none" stroke="#000000" points="239,-1732.5 239,-1762.5 480,-1762.5 480,-1732.5 239,-1732.5"/>
<text text-anchor="start" x="246" y="-1743.9" font-family="Arial" font-size="14.00" fill="#000000">device_os_name </text>
<text text-anchor="start" x="355.7012" y="-1743.9" font-family="Arial" font-size="14.00" fill="#666666">[varchar(191)]</text>
<polygon fill="none" stroke="#000000" points="239,-1702.5 239,-1732.5 480,-1732.5 480,-1702.5 239,-1702.5"/>
<text text-anchor="start" x="245.5316" y="-1713.9" font-family="Arial" font-size="14.00" fill="#000000">device_os_shortname </text>
<text text-anchor="start" x="386.3492" y="-1713.9" font-family="Arial" font-size="14.00" fill="#666666">[varchar(191)]</text>
<polygon fill="none" stroke="#000000" points="239,-1672.5 239,-1702.5 480,-1702.5 480,-1672.5 239,-1672.5"/>
<text text-anchor="start" x="246" y="-1683.9" font-family="Arial" font-size="14.00" fill="#000000">device_os_version </text>
<text text-anchor="start" x="365.8078" y="-1683.9" font-family="Arial" font-size="14.00" fill="#666666">[varchar(191)]</text>
<polygon fill="none" stroke="#000000" points="239,-1642.5 239,-1672.5 480,-1672.5 480,-1642.5 239,-1642.5"/>
<text text-anchor="start" x="246" y="-1653.9" font-family="Arial" font-size="14.00" fill="#000000">device_os_platform </text>
<text text-anchor="start" x="371.2496" y="-1653.9" font-family="Arial" font-size="14.00" fill="#666666">[varchar(191)]</text>
<polygon fill="none" stroke="#000000" points="239,-1612.5 239,-1642.5 480,-1642.5 480,-1612.5 239,-1612.5"/>
<text text-anchor="start" x="246" y="-1623.9" font-family="Arial" font-size="14.00" fill="#000000">device_brand </text>
<text text-anchor="start" x="333.9186" y="-1623.9" font-family="Arial" font-size="14.00" fill="#666666">[varchar(191)]</text>
<polygon fill="none" stroke="#000000" points="239,-1582.5 239,-1612.5 480,-1612.5 480,-1582.5 239,-1582.5"/>
<text text-anchor="start" x="246" y="-1593.9" font-family="Arial" font-size="14.00" fill="#000000">device_model </text>
<text text-anchor="start" x="336.2426" y="-1593.9" font-family="Arial" font-size="14.00" fill="#666666">[varchar(191)]</text>
<polygon fill="none" stroke="#000000" points="239,-1552.5 239,-1582.5 480,-1582.5 480,-1552.5 239,-1552.5"/>
<text text-anchor="start" x="246" y="-1563.9" font-family="Arial" font-size="14.00" fill="#000000">tracking_id </text>
<text text-anchor="start" x="317.568" y="-1563.9" font-family="Arial" font-size="14.00" fill="#666666">[varchar(191)]</text>
<polygon fill="none" stroke="#000000" stroke-width="3" points="237,-1551.5 237,-1949.5 481,-1949.5 481,-1551.5 237,-1551.5"/>
</g>
<!-- leads -->
<g id="node4" class="node">
<title>leads</title>
<polygon fill="#efefef" stroke="transparent" points="233,-1392.5 233,-1427.5 486,-1427.5 486,-1392.5 233,-1392.5"/>
<polygon fill="none" stroke="#000000" points="233,-1392.5 233,-1427.5 486,-1427.5 486,-1392.5 233,-1392.5"/>
<text text-anchor="start" x="289.3667" y="-1405.3" font-family="Arial Bold" font-size="18.00" fill="#000000">leads</text>
<text text-anchor="start" x="332.3795" y="-1405.3" font-family="Arial" font-size="14.00" fill="#000000"> </text>
<text text-anchor="start" x="336.2701" y="-1405.3" font-family="Arial" font-size="14.00" fill="#666666">[BASE TABLE]</text>
<polygon fill="none" stroke="#000000" points="233,-1362.5 233,-1392.5 486,-1392.5 486,-1362.5 233,-1362.5"/>
<text text-anchor="start" x="240" y="-1373.9" font-family="Arial" font-size="14.00" fill="#000000">id </text>
<text text-anchor="start" x="254.7798" y="-1373.9" font-family="Arial" font-size="14.00" fill="#666666">[bigint(20) unsigned]</text>
<polygon fill="none" stroke="#000000" points="233,-1332.5 233,-1362.5 486,-1362.5 486,-1332.5 233,-1332.5"/>
<text text-anchor="start" x="240" y="-1343.9" font-family="Arial" font-size="14.00" fill="#000000">owner_id </text>
<text text-anchor="start" x="300.6774" y="-1343.9" font-family="Arial" font-size="14.00" fill="#666666">[int(10) unsigned]</text>
<polygon fill="none" stroke="#000000" points="233,-1302.5 233,-1332.5 486,-1332.5 486,-1302.5 233,-1302.5"/>
<text text-anchor="start" x="240" y="-1313.9" font-family="Arial" font-size="14.00" fill="#000000">stage_id </text>
<text text-anchor="start" x="296.8008" y="-1313.9" font-family="Arial" font-size="14.00" fill="#666666">[int(10) unsigned]</text>
<polygon fill="none" stroke="#000000" points="233,-1272.5 233,-1302.5 486,-1302.5 486,-1272.5 233,-1272.5"/>
<text text-anchor="start" x="240" y="-1283.9" font-family="Arial" font-size="14.00" fill="#000000">is_published </text>
<text text-anchor="start" x="321.6886" y="-1283.9" font-family="Arial" font-size="14.00" fill="#666666">[tinyint(1)]</text>
<polygon fill="none" stroke="#000000" points="233,-1242.5 233,-1272.5 486,-1272.5 486,-1242.5 233,-1242.5"/>
<text text-anchor="start" x="240" y="-1253.9" font-family="Arial" font-size="14.00" fill="#000000">date_added </text>
<text text-anchor="start" x="317.8246" y="-1253.9" font-family="Arial" font-size="14.00" fill="#666666">[datetime]</text>
<polygon fill="none" stroke="#000000" points="233,-1212.5 233,-1242.5 486,-1242.5 486,-1212.5 233,-1212.5"/>
<text text-anchor="start" x="240" y="-1223.9" font-family="Arial" font-size="14.00" fill="#000000">created_by </text>
<text text-anchor="start" x="313.1374" y="-1223.9" font-family="Arial" font-size="14.00" fill="#666666">[int(11)]</text>
<polygon fill="none" stroke="#000000" points="233,-1182.5 233,-1212.5 486,-1212.5 486,-1182.5 233,-1182.5"/>
<text text-anchor="start" x="240" y="-1193.9" font-family="Arial" font-size="14.00" fill="#000000">created_by_user </text>
<text text-anchor="start" x="348.1458" y="-1193.9" font-family="Arial" font-size="14.00" fill="#666666">[varchar(191)]</text>
<polygon fill="none" stroke="#000000" points="233,-1152.5 233,-1182.5 486,-1182.5 486,-1152.5 233,-1152.5"/>
<text text-anchor="start" x="240" y="-1163.9" font-family="Arial" font-size="14.00" fill="#000000">date_modified </text>
<text text-anchor="start" x="331.8064" y="-1163.9" font-family="Arial" font-size="14.00" fill="#666666">[datetime]</text>
<polygon fill="none" stroke="#000000" points="233,-1122.5 233,-1152.5 486,-1152.5 486,-1122.5 233,-1122.5"/>
<text text-anchor="start" x="240" y="-1133.9" font-family="Arial" font-size="14.00" fill="#000000">modified_by </text>
<text text-anchor="start" x="319.3506" y="-1133.9" font-family="Arial" font-size="14.00" fill="#666666">[int(11)]</text>
<polygon fill="none" stroke="#000000" points="233,-1092.5 233,-1122.5 486,-1122.5 486,-1092.5 233,-1092.5"/>
<text text-anchor="start" x="240" y="-1103.9" font-family="Arial" font-size="14.00" fill="#000000">modified_by_user </text>
<text text-anchor="start" x="354.359" y="-1103.9" font-family="Arial" font-size="14.00" fill="#666666">[varchar(191)]</text>
<polygon fill="none" stroke="#000000" points="233,-1062.5 233,-1092.5 486,-1092.5 486,-1062.5 233,-1062.5"/>
<text text-anchor="start" x="240" y="-1073.9" font-family="Arial" font-size="14.00" fill="#000000">checked_out </text>
<text text-anchor="start" x="323.2594" y="-1073.9" font-family="Arial" font-size="14.00" fill="#666666">[datetime]</text>
<polygon fill="none" stroke="#000000" points="233,-1032.5 233,-1062.5 486,-1062.5 486,-1032.5 233,-1032.5"/>
<text text-anchor="start" x="240" y="-1043.9" font-family="Arial" font-size="14.00" fill="#000000">checked_out_by </text>
<text text-anchor="start" x="345.8246" y="-1043.9" font-family="Arial" font-size="14.00" fill="#666666">[int(11)]</text>
<polygon fill="none" stroke="#000000" points="233,-1002.5 233,-1032.5 486,-1032.5 486,-1002.5 233,-1002.5"/>
<text text-anchor="start" x="240" y="-1013.9" font-family="Arial" font-size="14.00" fill="#000000">checked_out_by_user </text>
<text text-anchor="start" x="380.833" y="-1013.9" font-family="Arial" font-size="14.00" fill="#666666">[varchar(191)]</text>
<polygon fill="none" stroke="#000000" points="233,-972.5 233,-1002.5 486,-1002.5 486,-972.5 233,-972.5"/>
<text text-anchor="start" x="240" y="-983.9" font-family="Arial" font-size="14.00" fill="#000000">points </text>
<text text-anchor="start" x="281.2356" y="-983.9" font-family="Arial" font-size="14.00" fill="#666666">[int(11)]</text>
<polygon fill="none" stroke="#000000" points="233,-942.5 233,-972.5 486,-972.5 486,-942.5 233,-942.5"/>
<text text-anchor="start" x="240" y="-953.9" font-family="Arial" font-size="14.00" fill="#000000">last_active </text>
<text text-anchor="start" x="310.0154" y="-953.9" font-family="Arial" font-size="14.00" fill="#666666">[datetime]</text>
<polygon fill="none" stroke="#000000" points="233,-912.5 233,-942.5 486,-942.5 486,-912.5 233,-912.5"/>
<text text-anchor="start" x="240" y="-923.9" font-family="Arial" font-size="14.00" fill="#000000">internal </text>
<text text-anchor="start" x="289.7854" y="-923.9" font-family="Arial" font-size="14.00" fill="#666666">[longtext]</text>
<polygon fill="none" stroke="#000000" points="233,-882.5 233,-912.5 486,-912.5 486,-882.5 233,-882.5"/>
<text text-anchor="start" x="240" y="-893.9" font-family="Arial" font-size="14.00" fill="#000000">social_cache </text>
<text text-anchor="start" x="324.7994" y="-893.9" font-family="Arial" font-size="14.00" fill="#666666">[longtext]</text>
<polygon fill="none" stroke="#000000" points="233,-852.5 233,-882.5 486,-882.5 486,-852.5 233,-852.5"/>
<text text-anchor="start" x="240" y="-863.9" font-family="Arial" font-size="14.00" fill="#000000">date_identified </text>
<text text-anchor="start" x="334.9256" y="-863.9" font-family="Arial" font-size="14.00" fill="#666666">[datetime]</text>
<polygon fill="none" stroke="#000000" points="233,-822.5 233,-852.5 486,-852.5 486,-822.5 233,-822.5"/>
<text text-anchor="start" x="239.7062" y="-833.9" font-family="Arial" font-size="14.00" fill="#000000">preferred_profile_image </text>
<text text-anchor="start" x="392.1746" y="-833.9" font-family="Arial" font-size="14.00" fill="#666666">[varchar(191)]</text>
<polygon fill="none" stroke="#000000" points="233,-792.5 233,-822.5 486,-822.5 486,-792.5 233,-792.5"/>
<text text-anchor="start" x="240" y="-803.9" font-family="Arial" font-size="14.00" fill="#000000">title </text>
<text text-anchor="start" x="265.6676" y="-803.9" font-family="Arial" font-size="14.00" fill="#666666">[varchar(191)]</text>
<polygon fill="none" stroke="#000000" points="233,-762.5 233,-792.5 486,-792.5 486,-762.5 233,-762.5"/>
<text text-anchor="start" x="240" y="-773.9" font-family="Arial" font-size="14.00" fill="#000000">firstname </text>
<text text-anchor="start" x="301.4474" y="-773.9" font-family="Arial" font-size="14.00" fill="#666666">[varchar(191)]</text>
<polygon fill="none" stroke="#000000" points="233,-732.5 233,-762.5 486,-762.5 486,-732.5 233,-732.5"/>
<text text-anchor="start" x="240" y="-743.9" font-family="Arial" font-size="14.00" fill="#000000">lastname </text>
<text text-anchor="start" x="300.6788" y="-743.9" font-family="Arial" font-size="14.00" fill="#666666">[varchar(191)]</text>
<polygon fill="none" stroke="#000000" points="233,-702.5 233,-732.5 486,-732.5 486,-702.5 233,-702.5"/>
<text text-anchor="start" x="240" y="-713.9" font-family="Arial" font-size="14.00" fill="#000000">company </text>
<text text-anchor="start" x="300.6816" y="-713.9" font-family="Arial" font-size="14.00" fill="#666666">[varchar(191)]</text>
<polygon fill="none" stroke="#000000" points="233,-672.5 233,-702.5 486,-702.5 486,-672.5 233,-672.5"/>
<text text-anchor="start" x="240" y="-683.9" font-family="Arial" font-size="14.00" fill="#000000">position </text>
<text text-anchor="start" x="292.1248" y="-683.9" font-family="Arial" font-size="14.00" fill="#666666">[varchar(191)]</text>
<polygon fill="none" stroke="#000000" points="233,-642.5 233,-672.5 486,-672.5 486,-642.5 233,-642.5"/>
<text text-anchor="start" x="240" y="-653.9" font-family="Arial" font-size="14.00" fill="#000000">email </text>
<text text-anchor="start" x="277.3296" y="-653.9" font-family="Arial" font-size="14.00" fill="#666666">[varchar(191)]</text>
<polygon fill="none" stroke="#000000" points="233,-612.5 233,-642.5 486,-642.5 486,-612.5 233,-612.5"/>
<text text-anchor="start" x="240" y="-623.9" font-family="Arial" font-size="14.00" fill="#000000">phone </text>
<text text-anchor="start" x="282.8036" y="-623.9" font-family="Arial" font-size="14.00" fill="#666666">[varchar(191)]</text>
<polygon fill="none" stroke="#000000" points="233,-582.5 233,-612.5 486,-612.5 486,-582.5 233,-582.5"/>
<text text-anchor="start" x="240" y="-593.9" font-family="Arial" font-size="14.00" fill="#000000">mobile </text>
<text text-anchor="start" x="285.1122" y="-593.9" font-family="Arial" font-size="14.00" fill="#666666">[varchar(191)]</text>
<polygon fill="none" stroke="#000000" points="233,-552.5 233,-582.5 486,-582.5 486,-552.5 233,-552.5"/>
<text text-anchor="start" x="240" y="-563.9" font-family="Arial" font-size="14.00" fill="#000000">address1 </text>
<text text-anchor="start" x="301.4642" y="-563.9" font-family="Arial" font-size="14.00" fill="#666666">[varchar(191)]</text>
<polygon fill="none" stroke="#000000" points="233,-522.5 233,-552.5 486,-552.5 486,-522.5 233,-522.5"/>
<text text-anchor="start" x="240" y="-533.9" font-family="Arial" font-size="14.00" fill="#000000">address2 </text>
<text text-anchor="start" x="301.4642" y="-533.9" font-family="Arial" font-size="14.00" fill="#666666">[varchar(191)]</text>
<polygon fill="none" stroke="#000000" points="233,-492.5 233,-522.5 486,-522.5 486,-492.5 233,-492.5"/>
<text text-anchor="start" x="240" y="-503.9" font-family="Arial" font-size="14.00" fill="#000000">city </text>
<text text-anchor="start" x="264.8878" y="-503.9" font-family="Arial" font-size="14.00" fill="#666666">[varchar(191)]</text>
<polygon fill="none" stroke="#000000" points="233,-462.5 233,-492.5 486,-492.5 486,-462.5 233,-462.5"/>
<text text-anchor="start" x="240" y="-473.9" font-family="Arial" font-size="14.00" fill="#000000">state </text>
<text text-anchor="start" x="274.237" y="-473.9" font-family="Arial" font-size="14.00" fill="#666666">[varchar(191)]</text>
<polygon fill="none" stroke="#000000" points="233,-432.5 233,-462.5 486,-462.5 486,-432.5 233,-432.5"/>
<text text-anchor="start" x="240" y="-443.9" font-family="Arial" font-size="14.00" fill="#000000">zipcode </text>
<text text-anchor="start" x="292.1276" y="-443.9" font-family="Arial" font-size="14.00" fill="#666666">[varchar(191)]</text>
<polygon fill="none" stroke="#000000" points="233,-402.5 233,-432.5 486,-432.5 486,-402.5 233,-402.5"/>
<text text-anchor="start" x="240" y="-413.9" font-family="Arial" font-size="14.00" fill="#000000">timezone </text>
<text text-anchor="start" x="300.6788" y="-413.9" font-family="Arial" font-size="14.00" fill="#666666">[varchar(191)]</text>
<polygon fill="none" stroke="#000000" points="233,-372.5 233,-402.5 486,-402.5 486,-372.5 233,-372.5"/>
<text text-anchor="start" x="240" y="-383.9" font-family="Arial" font-size="14.00" fill="#000000">country </text>
<text text-anchor="start" x="289.7896" y="-383.9" font-family="Arial" font-size="14.00" fill="#666666">[varchar(191)]</text>
<polygon fill="none" stroke="#000000" points="233,-342.5 233,-372.5 486,-372.5 486,-342.5 233,-342.5"/>
<text text-anchor="start" x="240" y="-353.9" font-family="Arial" font-size="14.00" fill="#000000">fax </text>
<text text-anchor="start" x="262.5638" y="-353.9" font-family="Arial" font-size="14.00" fill="#666666">[varchar(255)]</text>
<polygon fill="none" stroke="#000000" points="233,-312.5 233,-342.5 486,-342.5 486,-312.5 233,-312.5"/>
<text text-anchor="start" x="240" y="-323.9" font-family="Arial" font-size="14.00" fill="#000000">preferred_locale </text>
<text text-anchor="start" x="345.0196" y="-323.9" font-family="Arial" font-size="14.00" fill="#666666">[varchar(255)]</text>
<polygon fill="none" stroke="#000000" points="233,-282.5 233,-312.5 486,-312.5 486,-282.5 233,-282.5"/>
<text text-anchor="start" x="240" y="-293.9" font-family="Arial" font-size="14.00" fill="#000000">attribution_date </text>
<text text-anchor="start" x="340.3702" y="-293.9" font-family="Arial" font-size="14.00" fill="#666666">[datetime]</text>
<polygon fill="none" stroke="#000000" points="233,-252.5 233,-282.5 486,-282.5 486,-252.5 233,-252.5"/>
<text text-anchor="start" x="240" y="-263.9" font-family="Arial" font-size="14.00" fill="#000000">attribution </text>
<text text-anchor="start" x="305.3492" y="-263.9" font-family="Arial" font-size="14.00" fill="#666666">[double]</text>
<polygon fill="none" stroke="#000000" points="233,-222.5 233,-252.5 486,-252.5 486,-222.5 233,-222.5"/>
<text text-anchor="start" x="240" y="-233.9" font-family="Arial" font-size="14.00" fill="#000000">website </text>
<text text-anchor="start" x="291.3422" y="-233.9" font-family="Arial" font-size="14.00" fill="#666666">[longtext]</text>
<polygon fill="none" stroke="#000000" points="233,-192.5 233,-222.5 486,-222.5 486,-192.5 233,-192.5"/>
<text text-anchor="start" x="240" y="-203.9" font-family="Arial" font-size="14.00" fill="#000000">facebook </text>
<text text-anchor="start" x="300.6942" y="-203.9" font-family="Arial" font-size="14.00" fill="#666666">[varchar(255)]</text>
<polygon fill="none" stroke="#000000" points="233,-162.5 233,-192.5 486,-192.5 486,-162.5 233,-162.5"/>
<text text-anchor="start" x="240" y="-173.9" font-family="Arial" font-size="14.00" fill="#000000">foursquare </text>
<text text-anchor="start" x="310.798" y="-173.9" font-family="Arial" font-size="14.00" fill="#666666">[varchar(255)]</text>
<polygon fill="none" stroke="#000000" points="233,-132.5 233,-162.5 486,-162.5 486,-132.5 233,-132.5"/>
<text text-anchor="start" x="240" y="-143.9" font-family="Arial" font-size="14.00" fill="#000000">instagram </text>
<text text-anchor="start" x="305.3394" y="-143.9" font-family="Arial" font-size="14.00" fill="#666666">[varchar(255)]</text>
<polygon fill="none" stroke="#000000" points="233,-102.5 233,-132.5 486,-132.5 486,-102.5 233,-102.5"/>
<text text-anchor="start" x="240" y="-113.9" font-family="Arial" font-size="14.00" fill="#000000">linkedin </text>
<text text-anchor="start" x="291.3408" y="-113.9" font-family="Arial" font-size="14.00" fill="#666666">[varchar(255)]</text>
<polygon fill="none" stroke="#000000" points="233,-72.5 233,-102.5 486,-102.5 486,-72.5 233,-72.5"/>
<text text-anchor="start" x="240" y="-83.9" font-family="Arial" font-size="14.00" fill="#000000">skype </text>
<text text-anchor="start" x="280.4558" y="-83.9" font-family="Arial" font-size="14.00" fill="#666666">[varchar(255)]</text>
<polygon fill="none" stroke="#000000" points="233,-42.5 233,-72.5 486,-72.5 486,-42.5 233,-42.5"/>
<text text-anchor="start" x="240" y="-53.9" font-family="Arial" font-size="14.00" fill="#000000">twitter </text>
<text text-anchor="start" x="281.2188" y="-53.9" font-family="Arial" font-size="14.00" fill="#666666">[varchar(255)]</text>
</g>
<!-- lead_devices&#45;&gt;leads -->
<g id="edge3" class="edge">
<title>lead_devices:lead_id&#45;&gt;leads:id</title>
<path fill="none" stroke="#000000" d="M228.9461,-1867.1449C21.073,-1852.3071 18.6089,-1377.5 233,-1377.5"/>
<polygon fill="#000000" stroke="#000000" points="229.0062,-1867.1469 238.8411,-1871.9972 234.0031,-1867.3234 239,-1867.5 239,-1867.5 239,-1867.5 234.0031,-1867.3234 239.1589,-1863.0028 229.0062,-1867.1469 229.0062,-1867.1469"/>
<text text-anchor="start" x="7.496" y="-1877.5" font-family="Arial" font-size="10.00" fill="#000000">FOREIGN KEY (lead_id) REFERENCES leads (id)</text>
</g>
<!-- email_stats_devices -->
<g id="node2" class="node">
<title>email_stats_devices</title>
<polygon fill="#efefef" stroke="transparent" points="51,-2537.5 51,-2572.5 324,-2572.5 324,-2537.5 51,-2537.5"/>
<polygon fill="none" stroke="#000000" points="51,-2537.5 51,-2572.5 324,-2572.5 324,-2537.5 51,-2537.5"/>
<text text-anchor="start" x="57.8587" y="-2550.3" font-family="Arial Bold" font-size="18.00" fill="#000000">email_stats_devices</text>
<text text-anchor="start" x="219.8875" y="-2550.3" font-family="Arial" font-size="14.00" fill="#000000"> </text>
<text text-anchor="start" x="223.7781" y="-2550.3" font-family="Arial" font-size="14.00" fill="#666666">[BASE TABLE]</text>
<polygon fill="none" stroke="#000000" points="51,-2507.5 51,-2537.5 324,-2537.5 324,-2507.5 51,-2507.5"/>
<text text-anchor="start" x="58" y="-2518.9" font-family="Arial" font-size="14.00" fill="#000000">id </text>
<text text-anchor="start" x="72.7798" y="-2518.9" font-family="Arial" font-size="14.00" fill="#666666">[bigint(20) unsigned]</text>
<polygon fill="none" stroke="#000000" points="51,-2477.5 51,-2507.5 324,-2507.5 324,-2477.5 51,-2477.5"/>
<text text-anchor="start" x="58" y="-2488.9" font-family="Arial" font-size="14.00" fill="#000000">device_id </text>
<text text-anchor="start" x="121.0168" y="-2488.9" font-family="Arial" font-size="14.00" fill="#666666">[bigint(20) unsigned]</text>
<polygon fill="none" stroke="#000000" points="51,-2447.5 51,-2477.5 324,-2477.5 324,-2447.5 51,-2447.5"/>
<text text-anchor="start" x="58" y="-2458.9" font-family="Arial" font-size="14.00" fill="#000000">stat_id </text>
<text text-anchor="start" x="103.1262" y="-2458.9" font-family="Arial" font-size="14.00" fill="#666666">[bigint(20) unsigned]</text>
<polygon fill="none" stroke="#000000" points="51,-2417.5 51,-2447.5 324,-2447.5 324,-2417.5 51,-2417.5"/>
<text text-anchor="start" x="58" y="-2428.9" font-family="Arial" font-size="14.00" fill="#000000">ip_id </text>
<text text-anchor="start" x="91.4516" y="-2428.9" font-family="Arial" font-size="14.00" fill="#666666">[int(10) unsigned]</text>
<polygon fill="none" stroke="#000000" points="51,-2387.5 51,-2417.5 324,-2417.5 324,-2387.5 51,-2387.5"/>
<text text-anchor="start" x="58" y="-2398.9" font-family="Arial" font-size="14.00" fill="#000000">date_opened </text>
<text text-anchor="start" x="143.6072" y="-2398.9" font-family="Arial" font-size="14.00" fill="#666666">[datetime]</text>
</g>
<!-- email_stats_devices&#45;&gt;lead_devices -->
<g id="edge1" class="edge">
<title>email_stats_devices:device_id&#45;&gt;lead_devices:id</title>
<path fill="none" stroke="#000000" d="M334.2012,-2491.0954C438.0093,-2459.276 109.218,-1897.5 239,-1897.5"/>
<polygon fill="#000000" stroke="#000000" points="333.9065,-2491.1359 323.3861,-2488.0421 328.9533,-2491.8179 324,-2492.5 324,-2492.5 324,-2492.5 328.9533,-2491.8179 324.6139,-2496.9579 333.9065,-2491.1359 333.9065,-2491.1359"/>
<text text-anchor="start" x="331.2685" y="-2502.5" font-family="Arial" font-size="10.00" fill="#000000">FOREIGN KEY (device_id) REFERENCES lead_devices (id)</text>
</g>
<!-- page_hits -->
<g id="node3" class="node">
<title>page_hits</title>
<polygon fill="#efefef" stroke="transparent" points="428,-2852.5 428,-2887.5 638,-2887.5 638,-2852.5 428,-2852.5"/>
<polygon fill="none" stroke="#000000" points="428,-2852.5 428,-2887.5 638,-2887.5 638,-2852.5 428,-2852.5"/>
<text text-anchor="start" x="445.3563" y="-2865.3" font-family="Arial Bold" font-size="18.00" fill="#000000">page_hits</text>
<text text-anchor="start" x="523.3899" y="-2865.3" font-family="Arial" font-size="14.00" fill="#000000"> </text>
<text text-anchor="start" x="527.2805" y="-2865.3" font-family="Arial" font-size="14.00" fill="#666666">[BASE TABLE]</text>
<polygon fill="none" stroke="#000000" points="428,-2822.5 428,-2852.5 638,-2852.5 638,-2822.5 428,-2822.5"/>
<text text-anchor="start" x="435" y="-2833.9" font-family="Arial" font-size="14.00" fill="#000000">id </text>
<text text-anchor="start" x="449.7798" y="-2833.9" font-family="Arial" font-size="14.00" fill="#666666">[bigint(20) unsigned]</text>
<polygon fill="none" stroke="#000000" points="428,-2792.5 428,-2822.5 638,-2822.5 638,-2792.5 428,-2792.5"/>
<text text-anchor="start" x="435" y="-2803.9" font-family="Arial" font-size="14.00" fill="#000000">page_id </text>
<text text-anchor="start" x="488.6928" y="-2803.9" font-family="Arial" font-size="14.00" fill="#666666">[int(10) unsigned]</text>
<polygon fill="none" stroke="#000000" points="428,-2762.5 428,-2792.5 638,-2792.5 638,-2762.5 428,-2762.5"/>
<text text-anchor="start" x="434.9797" y="-2773.9" font-family="Arial" font-size="14.00" fill="#000000">redirect_id </text>
<text text-anchor="start" x="504.2083" y="-2773.9" font-family="Arial" font-size="14.00" fill="#666666">[bigint(20) unsigned]</text>
<polygon fill="none" stroke="#000000" points="428,-2732.5 428,-2762.5 638,-2762.5 638,-2732.5 428,-2732.5"/>
<text text-anchor="start" x="435" y="-2743.9" font-family="Arial" font-size="14.00" fill="#000000">email_id </text>
<text text-anchor="start" x="491.0014" y="-2743.9" font-family="Arial" font-size="14.00" fill="#666666">[int(10) unsigned]</text>
<polygon fill="none" stroke="#000000" points="428,-2702.5 428,-2732.5 638,-2732.5 638,-2702.5 428,-2702.5"/>
<text text-anchor="start" x="435" y="-2713.9" font-family="Arial" font-size="14.00" fill="#000000">lead_id </text>
<text text-anchor="start" x="484.0168" y="-2713.9" font-family="Arial" font-size="14.00" fill="#666666">[bigint(20) unsigned]</text>
<polygon fill="none" stroke="#000000" points="428,-2672.5 428,-2702.5 638,-2702.5 638,-2672.5 428,-2672.5"/>
<text text-anchor="start" x="435" y="-2683.9" font-family="Arial" font-size="14.00" fill="#000000">ip_id </text>
<text text-anchor="start" x="468.4516" y="-2683.9" font-family="Arial" font-size="14.00" fill="#666666">[int(10) unsigned]</text>
<polygon fill="none" stroke="#000000" points="428,-2642.5 428,-2672.5 638,-2672.5 638,-2642.5 428,-2642.5"/>
<text text-anchor="start" x="435" y="-2653.9" font-family="Arial" font-size="14.00" fill="#000000">device_id </text>
<text text-anchor="start" x="498.0168" y="-2653.9" font-family="Arial" font-size="14.00" fill="#666666">[bigint(20) unsigned]</text>
<polygon fill="none" stroke="#000000" points="428,-2612.5 428,-2642.5 638,-2642.5 638,-2612.5 428,-2612.5"/>
<text text-anchor="start" x="435" y="-2623.9" font-family="Arial" font-size="14.00" fill="#000000">date_hit </text>
<text text-anchor="start" x="488.6914" y="-2623.9" font-family="Arial" font-size="14.00" fill="#666666">[datetime]</text>
<polygon fill="none" stroke="#000000" points="428,-2582.5 428,-2612.5 638,-2612.5 638,-2582.5 428,-2582.5"/>
<text text-anchor="start" x="435" y="-2593.9" font-family="Arial" font-size="14.00" fill="#000000">date_left </text>
<text text-anchor="start" x="492.582" y="-2593.9" font-family="Arial" font-size="14.00" fill="#666666">[datetime]</text>
<polygon fill="none" stroke="#000000" points="428,-2552.5 428,-2582.5 638,-2582.5 638,-2552.5 428,-2552.5"/>
<text text-anchor="start" x="435" y="-2563.9" font-family="Arial" font-size="14.00" fill="#000000">country </text>
<text text-anchor="start" x="484.7896" y="-2563.9" font-family="Arial" font-size="14.00" fill="#666666">[varchar(191)]</text>
<polygon fill="none" stroke="#000000" points="428,-2522.5 428,-2552.5 638,-2552.5 638,-2522.5 428,-2522.5"/>
<text text-anchor="start" x="435" y="-2533.9" font-family="Arial" font-size="14.00" fill="#000000">region </text>
<text text-anchor="start" x="477.7882" y="-2533.9" font-family="Arial" font-size="14.00" fill="#666666">[varchar(191)]</text>
<polygon fill="none" stroke="#000000" points="428,-2492.5 428,-2522.5 638,-2522.5 638,-2492.5 428,-2492.5"/>
<text text-anchor="start" x="435" y="-2503.9" font-family="Arial" font-size="14.00" fill="#000000">city </text>
<text text-anchor="start" x="459.8878" y="-2503.9" font-family="Arial" font-size="14.00" fill="#666666">[varchar(191)]</text>
<polygon fill="none" stroke="#000000" points="428,-2462.5 428,-2492.5 638,-2492.5 638,-2462.5 428,-2462.5"/>
<text text-anchor="start" x="435" y="-2473.9" font-family="Arial" font-size="14.00" fill="#000000">isp </text>
<text text-anchor="start" x="456.7798" y="-2473.9" font-family="Arial" font-size="14.00" fill="#666666">[varchar(191)]</text>
<polygon fill="none" stroke="#000000" points="428,-2432.5 428,-2462.5 638,-2462.5 638,-2432.5 428,-2432.5"/>
<text text-anchor="start" x="435" y="-2443.9" font-family="Arial" font-size="14.00" fill="#000000">organization </text>
<text text-anchor="start" x="515.1332" y="-2443.9" font-family="Arial" font-size="14.00" fill="#666666">[varchar(191)]</text>
<polygon fill="none" stroke="#000000" points="428,-2402.5 428,-2432.5 638,-2432.5 638,-2402.5 428,-2402.5"/>
<text text-anchor="start" x="435" y="-2413.9" font-family="Arial" font-size="14.00" fill="#000000">code </text>
<text text-anchor="start" x="469.2384" y="-2413.9" font-family="Arial" font-size="14.00" fill="#666666">[int(11)]</text>
<polygon fill="none" stroke="#000000" points="428,-2372.5 428,-2402.5 638,-2402.5 638,-2372.5 428,-2372.5"/>
<text text-anchor="start" x="435" y="-2383.9" font-family="Arial" font-size="14.00" fill="#000000">referer </text>
<text text-anchor="start" x="480.1108" y="-2383.9" font-family="Arial" font-size="14.00" fill="#666666">[longtext]</text>
<polygon fill="none" stroke="#000000" points="428,-2342.5 428,-2372.5 638,-2372.5 638,-2342.5 428,-2342.5"/>
<text text-anchor="start" x="435" y="-2353.9" font-family="Arial" font-size="14.00" fill="#000000">url </text>
<text text-anchor="start" x="454.4404" y="-2353.9" font-family="Arial" font-size="14.00" fill="#666666">[longtext]</text>
<polygon fill="none" stroke="#000000" points="428,-2312.5 428,-2342.5 638,-2342.5 638,-2312.5 428,-2312.5"/>
<text text-anchor="start" x="435" y="-2323.9" font-family="Arial" font-size="14.00" fill="#000000">url_title </text>
<text text-anchor="start" x="484" y="-2323.9" font-family="Arial" font-size="14.00" fill="#666666">[varchar(191)]</text>
<polygon fill="none" stroke="#000000" points="428,-2282.5 428,-2312.5 638,-2312.5 638,-2282.5 428,-2282.5"/>
<text text-anchor="start" x="435" y="-2293.9" font-family="Arial" font-size="14.00" fill="#000000">user_agent </text>
<text text-anchor="start" x="508.92" y="-2293.9" font-family="Arial" font-size="14.00" fill="#666666">[longtext]</text>
<polygon fill="none" stroke="#000000" points="428,-2252.5 428,-2282.5 638,-2282.5 638,-2252.5 428,-2252.5"/>
<text text-anchor="start" x="435" y="-2263.9" font-family="Arial" font-size="14.00" fill="#000000">remote_host </text>
<text text-anchor="start" x="516.6886" y="-2263.9" font-family="Arial" font-size="14.00" fill="#666666">[varchar(191)]</text>
<polygon fill="none" stroke="#000000" points="428,-2222.5 428,-2252.5 638,-2252.5 638,-2222.5 428,-2222.5"/>
<text text-anchor="start" x="435" y="-2233.9" font-family="Arial" font-size="14.00" fill="#000000">page_language </text>
<text text-anchor="start" x="535.3884" y="-2233.9" font-family="Arial" font-size="14.00" fill="#666666">[varchar(191)]</text>
<polygon fill="none" stroke="#000000" points="428,-2192.5 428,-2222.5 638,-2222.5 638,-2192.5 428,-2192.5"/>
<text text-anchor="start" x="435" y="-2203.9" font-family="Arial" font-size="14.00" fill="#000000">browser_languages </text>
<text text-anchor="start" x="561.0336" y="-2203.9" font-family="Arial" font-size="14.00" fill="#666666">[longtext]</text>
<polygon fill="none" stroke="#000000" points="428,-2162.5 428,-2192.5 638,-2192.5 638,-2162.5 428,-2162.5"/>
<text text-anchor="start" x="435" y="-2173.9" font-family="Arial" font-size="14.00" fill="#000000">tracking_id </text>
<text text-anchor="start" x="506.568" y="-2173.9" font-family="Arial" font-size="14.00" fill="#666666">[varchar(191)]</text>
<polygon fill="none" stroke="#000000" points="428,-2132.5 428,-2162.5 638,-2162.5 638,-2132.5 428,-2132.5"/>
<text text-anchor="start" x="435" y="-2143.9" font-family="Arial" font-size="14.00" fill="#000000">source </text>
<text text-anchor="start" x="480.899" y="-2143.9" font-family="Arial" font-size="14.00" fill="#666666">[varchar(191)]</text>
<polygon fill="none" stroke="#000000" points="428,-2102.5 428,-2132.5 638,-2132.5 638,-2102.5 428,-2102.5"/>
<text text-anchor="start" x="435" y="-2113.9" font-family="Arial" font-size="14.00" fill="#000000">source_id </text>
<text text-anchor="start" x="499.5708" y="-2113.9" font-family="Arial" font-size="14.00" fill="#666666">[int(11)]</text>
<polygon fill="none" stroke="#000000" points="428,-2072.5 428,-2102.5 638,-2102.5 638,-2072.5 428,-2072.5"/>
<text text-anchor="start" x="435" y="-2083.9" font-family="Arial" font-size="14.00" fill="#000000">query </text>
<text text-anchor="start" x="473.899" y="-2083.9" font-family="Arial" font-size="14.00" fill="#666666">[longtext]</text>
</g>
<!-- page_hits&#45;&gt;lead_devices -->
<g id="edge2" class="edge">
<title>page_hits:device_id&#45;&gt;lead_devices:id</title>
<path fill="none" stroke="#000000" d="M418.5397,-2653.578C361.9146,-2603.4534 397.2215,-2088.743 428,-2030 441.0456,-2005.1015 466.9544,-2018.8985 480,-1994 499.905,-1956.0099 522.8889,-1897.5 480,-1897.5"/>
<polygon fill="#000000" stroke="#000000" points="418.7624,-2653.6703 426.2766,-2661.6569 423.3812,-2655.5851 428,-2657.5 428,-2657.5 428,-2657.5 423.3812,-2655.5851 429.7234,-2653.3431 418.7624,-2653.6703 418.7624,-2653.6703"/>
<text text-anchor="start" x="152.2685" y="-2667.5" font-family="Arial" font-size="10.00" fill="#000000">FOREIGN KEY (device_id) REFERENCES lead_devices (id)</text>
</g>
</g>
</svg>
