<?xml version="1.0" encoding="UTF-8" standalone="no"?>
<!DOCTYPE svg PUBLIC "-//W3C//DTD SVG 1.1//EN"
 "http://www.w3.org/Graphics/SVG/1.1/DTD/svg11.dtd">
<!-- Generated by graphviz version 2.40.1 (20161225.0304)
 -->
<!-- Title: lead_tags Pages: 1 -->
<svg width="420pt" height="412pt"
 viewBox="0.00 0.00 419.50 412.00" xmlns="http://www.w3.org/2000/svg" xmlns:xlink="http://www.w3.org/1999/xlink">
<g id="graph0" class="graph" transform="scale(1 1) rotate(0) translate(4 408)">
<title>lead_tags</title>
<polygon fill="#ffffff" stroke="transparent" points="-4,4 -4,-408 415.5,-408 415.5,4 -4,4"/>
<!-- lead_tags -->
<g id="node1" class="node">
<title>lead_tags</title>
<polygon fill="#efefef" stroke="transparent" points="63.5,-105.5 63.5,-140.5 252.5,-140.5 252.5,-105.5 63.5,-105.5"/>
<polygon fill="none" stroke="#000000" points="63.5,-105.5 63.5,-140.5 252.5,-140.5 252.5,-105.5 63.5,-105.5"/>
<text text-anchor="start" x="70.3563" y="-118.3" font-family="Arial Bold" font-size="18.00" fill="#000000">lead_tags</text>
<text text-anchor="start" x="148.3899" y="-118.3" font-family="Arial" font-size="14.00" fill="#000000"> </text>
<text text-anchor="start" x="152.2805" y="-118.3" font-family="Arial" font-size="14.00" fill="#666666">[BASE TABLE]</text>
<polygon fill="none" stroke="#000000" points="63.5,-75.5 63.5,-105.5 252.5,-105.5 252.5,-75.5 63.5,-75.5"/>
<text text-anchor="start" x="70.5" y="-86.9" font-family="Arial" font-size="14.00" fill="#000000">id </text>
<text text-anchor="start" x="85.2798" y="-86.9" font-family="Arial" font-size="14.00" fill="#666666">[int(10) unsigned]</text>
<polygon fill="none" stroke="#000000" points="63.5,-45.5 63.5,-75.5 252.5,-75.5 252.5,-45.5 63.5,-45.5"/>
<text text-anchor="start" x="70.5" y="-56.9" font-family="Arial" font-size="14.00" fill="#000000">tag </text>
<text text-anchor="start" x="93.8464" y="-56.9" font-family="Arial" font-size="14.00" fill="#666666">[varchar(191)]</text>
<polygon fill="none" stroke="#000000" stroke-width="3" points="61.5,-44.5 61.5,-142.5 253.5,-142.5 253.5,-44.5 61.5,-44.5"/>
</g>
<!-- lead_tags_xref -->
<g id="node2" class="node">
<title>lead_tags_xref</title>
<polygon fill="#efefef" stroke="transparent" points="43.5,-325.5 43.5,-360.5 272.5,-360.5 272.5,-325.5 43.5,-325.5"/>
<polygon fill="none" stroke="#000000" points="43.5,-325.5 43.5,-360.5 272.5,-360.5 272.5,-325.5 43.5,-325.5"/>
<text text-anchor="start" x="50.3529" y="-338.3" font-family="Arial Bold" font-size="18.00" fill="#000000">lead_tags_xref</text>
<text text-anchor="start" x="168.3933" y="-338.3" font-family="Arial" font-size="14.00" fill="#000000"> </text>
<text text-anchor="start" x="172.2839" y="-338.3" font-family="Arial" font-size="14.00" fill="#666666">[BASE TABLE]</text>
<polygon fill="none" stroke="#000000" points="43.5,-295.5 43.5,-325.5 272.5,-325.5 272.5,-295.5 43.5,-295.5"/>
<text text-anchor="start" x="50.5" y="-306.9" font-family="Arial" font-size="14.00" fill="#000000">lead_id </text>
<text text-anchor="start" x="99.5168" y="-306.9" font-family="Arial" font-size="14.00" fill="#666666">[bigint(20) unsigned]</text>
<polygon fill="none" stroke="#000000" points="43.5,-265.5 43.5,-295.5 272.5,-295.5 272.5,-265.5 43.5,-265.5"/>
<text text-anchor="start" x="50.5" y="-276.9" font-family="Arial" font-size="14.00" fill="#000000">tag_id </text>
<text text-anchor="start" x="92.5182" y="-276.9" font-family="Arial" font-size="14.00" fill="#666666">[int(10) unsigned]</text>
</g>
<!-- lead_tags_xref&#45;&gt;lead_tags -->
<g id="edge1" class="edge">
<title>lead_tags_xref:tag_id&#45;&gt;lead_tags:id</title>
<path fill="none" stroke="#000000" d="M157.5337,-255.3476C148.9279,-213.9066 85.2396,-233.165 63.5,-187 45.2278,-148.1982 20.6111,-90.5 63.5,-90.5"/>
<polygon fill="#000000" stroke="#000000" points="157.5524,-255.545 154.0202,-265.9264 158.0262,-260.5225 158.5,-265.5 158.5,-265.5 158.5,-265.5 158.0262,-260.5225 162.9798,-265.0736 157.5524,-255.545 157.5524,-255.545"/>
<text text-anchor="start" x="165.7675" y="-275.5" font-family="Arial" font-size="10.00" fill="#000000">FOREIGN KEY (tag_id) REFERENCES lead_tags (id)</text>
</g>
</g>
</svg>
