<?xml version="1.0" encoding="UTF-8" standalone="no"?>
<!DOCTYPE svg PUBLIC "-//W3C//DTD SVG 1.1//EN"
 "http://www.w3.org/Graphics/SVG/1.1/DTD/svg11.dtd">
<!-- Generated by graphviz version 2.40.1 (20161225.0304)
 -->
<!-- Title: message_channels Pages: 1 -->
<svg width="602pt" height="952pt"
 viewBox="0.00 0.00 602.00 952.00" xmlns="http://www.w3.org/2000/svg" xmlns:xlink="http://www.w3.org/1999/xlink">
<g id="graph0" class="graph" transform="scale(1 1) rotate(0) translate(4 948)">
<title>message_channels</title>
<polygon fill="#ffffff" stroke="transparent" points="-4,4 -4,-948 598,-948 598,4 -4,4"/>
<!-- message_channels -->
<g id="node1" class="node">
<title>message_channels</title>
<polygon fill="#efefef" stroke="transparent" points="282,-862.5 282,-897.5 548,-897.5 548,-862.5 282,-862.5"/>
<polygon fill="none" stroke="#000000" points="282,-862.5 282,-897.5 548,-897.5 548,-862.5 282,-862.5"/>
<text text-anchor="start" x="288.8489" y="-875.3" font-family="Arial Bold" font-size="18.00" fill="#000000">message_channels</text>
<text text-anchor="start" x="443.8973" y="-875.3" font-family="Arial" font-size="14.00" fill="#000000"> </text>
<text text-anchor="start" x="447.7879" y="-875.3" font-family="Arial" font-size="14.00" fill="#666666">[BASE TABLE]</text>
<polygon fill="none" stroke="#000000" points="282,-832.5 282,-862.5 548,-862.5 548,-832.5 282,-832.5"/>
<text text-anchor="start" x="289" y="-843.9" font-family="Arial" font-size="14.00" fill="#000000">id </text>
<text text-anchor="start" x="303.7798" y="-843.9" font-family="Arial" font-size="14.00" fill="#666666">[int(10) unsigned]</text>
<polygon fill="none" stroke="#000000" points="282,-802.5 282,-832.5 548,-832.5 548,-802.5 282,-802.5"/>
<text text-anchor="start" x="289" y="-813.9" font-family="Arial" font-size="14.00" fill="#000000">message_id </text>
<text text-anchor="start" x="368.3534" y="-813.9" font-family="Arial" font-size="14.00" fill="#666666">[int(10) unsigned]</text>
<polygon fill="none" stroke="#000000" points="282,-772.5 282,-802.5 548,-802.5 548,-772.5 282,-772.5"/>
<text text-anchor="start" x="289" y="-783.9" font-family="Arial" font-size="14.00" fill="#000000">channel </text>
<text text-anchor="start" x="341.9102" y="-783.9" font-family="Arial" font-size="14.00" fill="#666666">[varchar(191)]</text>
<polygon fill="none" stroke="#000000" points="282,-742.5 282,-772.5 548,-772.5 548,-742.5 282,-742.5"/>
<text text-anchor="start" x="289" y="-753.9" font-family="Arial" font-size="14.00" fill="#000000">channel_id </text>
<text text-anchor="start" x="360.582" y="-753.9" font-family="Arial" font-size="14.00" fill="#666666">[int(11)]</text>
<polygon fill="none" stroke="#000000" points="282,-712.5 282,-742.5 548,-742.5 548,-712.5 282,-712.5"/>
<text text-anchor="start" x="289" y="-723.9" font-family="Arial" font-size="14.00" fill="#000000">properties </text>
<text text-anchor="start" x="355.122" y="-723.9" font-family="Arial" font-size="14.00" fill="#666666">[longtext]</text>
<polygon fill="none" stroke="#000000" points="282,-682.5 282,-712.5 548,-712.5 548,-682.5 282,-682.5"/>
<text text-anchor="start" x="289" y="-693.9" font-family="Arial" font-size="14.00" fill="#000000">is_enabled </text>
<text text-anchor="start" x="360.582" y="-693.9" font-family="Arial" font-size="14.00" fill="#666666">[tinyint(1)]</text>
<polygon fill="none" stroke="#000000" stroke-width="3" points="280.5,-681.5 280.5,-899.5 549.5,-899.5 549.5,-681.5 280.5,-681.5"/>
</g>
<!-- messages -->
<g id="node2" class="node">
<title>messages</title>
<polygon fill="#efefef" stroke="transparent" points="294,-522.5 294,-557.5 535,-557.5 535,-522.5 294,-522.5"/>
<polygon fill="none" stroke="#000000" points="294,-522.5 294,-557.5 535,-557.5 535,-522.5 294,-522.5"/>
<text text-anchor="start" x="324.8646" y="-535.3" font-family="Arial Bold" font-size="18.00" fill="#000000">messages</text>
<text text-anchor="start" x="406.8816" y="-535.3" font-family="Arial" font-size="14.00" fill="#000000"> </text>
<text text-anchor="start" x="410.7722" y="-535.3" font-family="Arial" font-size="14.00" fill="#666666">[BASE TABLE]</text>
<polygon fill="none" stroke="#000000" points="294,-492.5 294,-522.5 535,-522.5 535,-492.5 294,-492.5"/>
<text text-anchor="start" x="301" y="-503.9" font-family="Arial" font-size="14.00" fill="#000000">id </text>
<text text-anchor="start" x="315.7798" y="-503.9" font-family="Arial" font-size="14.00" fill="#666666">[int(10) unsigned]</text>
<polygon fill="none" stroke="#000000" points="294,-462.5 294,-492.5 535,-492.5 535,-462.5 294,-462.5"/>
<text text-anchor="start" x="301" y="-473.9" font-family="Arial" font-size="14.00" fill="#000000">category_id </text>
<text text-anchor="start" x="377.244" y="-473.9" font-family="Arial" font-size="14.00" fill="#666666">[int(10) unsigned]</text>
<polygon fill="none" stroke="#000000" points="294,-432.5 294,-462.5 535,-462.5 535,-432.5 294,-432.5"/>
<text text-anchor="start" x="301" y="-443.9" font-family="Arial" font-size="14.00" fill="#000000">is_published </text>
<text text-anchor="start" x="382.6886" y="-443.9" font-family="Arial" font-size="14.00" fill="#666666">[tinyint(1)]</text>
<polygon fill="none" stroke="#000000" points="294,-402.5 294,-432.5 535,-432.5 535,-402.5 294,-402.5"/>
<text text-anchor="start" x="301" y="-413.9" font-family="Arial" font-size="14.00" fill="#000000">date_added </text>
<text text-anchor="start" x="378.8246" y="-413.9" font-family="Arial" font-size="14.00" fill="#666666">[datetime]</text>
<polygon fill="none" stroke="#000000" points="294,-372.5 294,-402.5 535,-402.5 535,-372.5 294,-372.5"/>
<text text-anchor="start" x="301" y="-383.9" font-family="Arial" font-size="14.00" fill="#000000">created_by </text>
<text text-anchor="start" x="374.1374" y="-383.9" font-family="Arial" font-size="14.00" fill="#666666">[int(11)]</text>
<polygon fill="none" stroke="#000000" points="294,-342.5 294,-372.5 535,-372.5 535,-342.5 294,-342.5"/>
<text text-anchor="start" x="301" y="-353.9" font-family="Arial" font-size="14.00" fill="#000000">created_by_user </text>
<text text-anchor="start" x="409.1458" y="-353.9" font-family="Arial" font-size="14.00" fill="#666666">[varchar(191)]</text>
<polygon fill="none" stroke="#000000" points="294,-312.5 294,-342.5 535,-342.5 535,-312.5 294,-312.5"/>
<text text-anchor="start" x="301" y="-323.9" font-family="Arial" font-size="14.00" fill="#000000">date_modified </text>
<text text-anchor="start" x="392.8064" y="-323.9" font-family="Arial" font-size="14.00" fill="#666666">[datetime]</text>
<polygon fill="none" stroke="#000000" points="294,-282.5 294,-312.5 535,-312.5 535,-282.5 294,-282.5"/>
<text text-anchor="start" x="301" y="-293.9" font-family="Arial" font-size="14.00" fill="#000000">modified_by </text>
<text text-anchor="start" x="380.3506" y="-293.9" font-family="Arial" font-size="14.00" fill="#666666">[int(11)]</text>
<polygon fill="none" stroke="#000000" points="294,-252.5 294,-282.5 535,-282.5 535,-252.5 294,-252.5"/>
<text text-anchor="start" x="301" y="-263.9" font-family="Arial" font-size="14.00" fill="#000000">modified_by_user </text>
<text text-anchor="start" x="415.359" y="-263.9" font-family="Arial" font-size="14.00" fill="#666666">[varchar(191)]</text>
<polygon fill="none" stroke="#000000" points="294,-222.5 294,-252.5 535,-252.5 535,-222.5 294,-222.5"/>
<text text-anchor="start" x="301" y="-233.9" font-family="Arial" font-size="14.00" fill="#000000">checked_out </text>
<text text-anchor="start" x="384.2594" y="-233.9" font-family="Arial" font-size="14.00" fill="#666666">[datetime]</text>
<polygon fill="none" stroke="#000000" points="294,-192.5 294,-222.5 535,-222.5 535,-192.5 294,-192.5"/>
<text text-anchor="start" x="301" y="-203.9" font-family="Arial" font-size="14.00" fill="#000000">checked_out_by </text>
<text text-anchor="start" x="406.8246" y="-203.9" font-family="Arial" font-size="14.00" fill="#666666">[int(11)]</text>
<polygon fill="none" stroke="#000000" points="294,-162.5 294,-192.5 535,-192.5 535,-162.5 294,-162.5"/>
<text text-anchor="start" x="300.5239" y="-173.9" font-family="Arial" font-size="14.00" fill="#000000">checked_out_by_user </text>
<text text-anchor="start" x="441.3569" y="-173.9" font-family="Arial" font-size="14.00" fill="#666666">[varchar(191)]</text>
<polygon fill="none" stroke="#000000" points="294,-132.5 294,-162.5 535,-162.5 535,-132.5 294,-132.5"/>
<text text-anchor="start" x="301" y="-143.9" font-family="Arial" font-size="14.00" fill="#000000">name </text>
<text text-anchor="start" x="339.899" y="-143.9" font-family="Arial" font-size="14.00" fill="#666666">[varchar(191)]</text>
<polygon fill="none" stroke="#000000" points="294,-102.5 294,-132.5 535,-132.5 535,-102.5 294,-102.5"/>
<text text-anchor="start" x="301" y="-113.9" font-family="Arial" font-size="14.00" fill="#000000">description </text>
<text text-anchor="start" x="372.568" y="-113.9" font-family="Arial" font-size="14.00" fill="#666666">[longtext]</text>
<polygon fill="none" stroke="#000000" points="294,-72.5 294,-102.5 535,-102.5 535,-72.5 294,-72.5"/>
<text text-anchor="start" x="301" y="-83.9" font-family="Arial" font-size="14.00" fill="#000000">publish_up </text>
<text text-anchor="start" x="372.582" y="-83.9" font-family="Arial" font-size="14.00" fill="#666666">[datetime]</text>
<polygon fill="none" stroke="#000000" points="294,-42.5 294,-72.5 535,-72.5 535,-42.5 294,-42.5"/>
<text text-anchor="start" x="301" y="-53.9" font-family="Arial" font-size="14.00" fill="#000000">publish_down </text>
<text text-anchor="start" x="390.4712" y="-53.9" font-family="Arial" font-size="14.00" fill="#666666">[datetime]</text>
</g>
<!-- message_channels&#45;&gt;messages -->
<g id="edge1" class="edge">
<title>message_channels:message_id&#45;&gt;messages:id</title>
<path fill="none" stroke="#000000" d="M271.8343,-816.7903C204.3117,-806.8465 231.7834,-694.8678 282,-637 356.4396,-551.2183 460.5604,-686.7817 535,-601 562.236,-569.6142 576.5556,-507.5 535,-507.5"/>
<polygon fill="#000000" stroke="#000000" points="272.0243,-816.8035 281.6866,-821.9891 277.0121,-817.1517 282,-817.5 282,-817.5 282,-817.5 277.0121,-817.1517 282.3134,-813.0109 272.0243,-816.8035 272.0243,-816.8035"/>
<text text-anchor="start" x="6.827" y="-827.5" font-family="Arial" font-size="10.00" fill="#000000">FOREIGN KEY (message_id) REFERENCES messages (id)</text>
</g>
</g>
</svg>
