<?xml version="1.0" encoding="UTF-8" standalone="no"?>
<!DOCTYPE svg PUBLIC "-//W3C//DTD SVG 1.1//EN"
 "http://www.w3.org/Graphics/SVG/1.1/DTD/svg11.dtd">
<!-- Generated by graphviz version 2.40.1 (20161225.0304)
 -->
<!-- Title: messages Pages: 1 -->
<svg width="599pt" height="1589pt"
 viewBox="0.00 0.00 599.00 1589.00" xmlns="http://www.w3.org/2000/svg" xmlns:xlink="http://www.w3.org/1999/xlink">
<g id="graph0" class="graph" transform="scale(1 1) rotate(0) translate(4 1585)">
<title>messages</title>
<polygon fill="#ffffff" stroke="transparent" points="-4,4 -4,-1585 595,-1585 595,4 -4,4"/>
<!-- messages -->
<g id="node1" class="node">
<title>messages</title>
<polygon fill="#efefef" stroke="transparent" points="294,-1162.5 294,-1197.5 535,-1197.5 535,-1162.5 294,-1162.5"/>
<polygon fill="none" stroke="#000000" points="294,-1162.5 294,-1197.5 535,-1197.5 535,-1162.5 294,-1162.5"/>
<text text-anchor="start" x="324.8646" y="-1175.3" font-family="Arial Bold" font-size="18.00" fill="#000000">messages</text>
<text text-anchor="start" x="406.8816" y="-1175.3" font-family="Arial" font-size="14.00" fill="#000000"> </text>
<text text-anchor="start" x="410.7722" y="-1175.3" font-family="Arial" font-size="14.00" fill="#666666">[BASE TABLE]</text>
<polygon fill="none" stroke="#000000" points="294,-1132.5 294,-1162.5 535,-1162.5 535,-1132.5 294,-1132.5"/>
<text text-anchor="start" x="301" y="-1143.9" font-family="Arial" font-size="14.00" fill="#000000">id </text>
<text text-anchor="start" x="315.7798" y="-1143.9" font-family="Arial" font-size="14.00" fill="#666666">[int(10) unsigned]</text>
<polygon fill="none" stroke="#000000" points="294,-1102.5 294,-1132.5 535,-1132.5 535,-1102.5 294,-1102.5"/>
<text text-anchor="start" x="301" y="-1113.9" font-family="Arial" font-size="14.00" fill="#000000">category_id </text>
<text text-anchor="start" x="377.244" y="-1113.9" font-family="Arial" font-size="14.00" fill="#666666">[int(10) unsigned]</text>
<polygon fill="none" stroke="#000000" points="294,-1072.5 294,-1102.5 535,-1102.5 535,-1072.5 294,-1072.5"/>
<text text-anchor="start" x="301" y="-1083.9" font-family="Arial" font-size="14.00" fill="#000000">is_published </text>
<text text-anchor="start" x="382.6886" y="-1083.9" font-family="Arial" font-size="14.00" fill="#666666">[tinyint(1)]</text>
<polygon fill="none" stroke="#000000" points="294,-1042.5 294,-1072.5 535,-1072.5 535,-1042.5 294,-1042.5"/>
<text text-anchor="start" x="301" y="-1053.9" font-family="Arial" font-size="14.00" fill="#000000">date_added </text>
<text text-anchor="start" x="378.8246" y="-1053.9" font-family="Arial" font-size="14.00" fill="#666666">[datetime]</text>
<polygon fill="none" stroke="#000000" points="294,-1012.5 294,-1042.5 535,-1042.5 535,-1012.5 294,-1012.5"/>
<text text-anchor="start" x="301" y="-1023.9" font-family="Arial" font-size="14.00" fill="#000000">created_by </text>
<text text-anchor="start" x="374.1374" y="-1023.9" font-family="Arial" font-size="14.00" fill="#666666">[int(11)]</text>
<polygon fill="none" stroke="#000000" points="294,-982.5 294,-1012.5 535,-1012.5 535,-982.5 294,-982.5"/>
<text text-anchor="start" x="301" y="-993.9" font-family="Arial" font-size="14.00" fill="#000000">created_by_user </text>
<text text-anchor="start" x="409.1458" y="-993.9" font-family="Arial" font-size="14.00" fill="#666666">[varchar(191)]</text>
<polygon fill="none" stroke="#000000" points="294,-952.5 294,-982.5 535,-982.5 535,-952.5 294,-952.5"/>
<text text-anchor="start" x="301" y="-963.9" font-family="Arial" font-size="14.00" fill="#000000">date_modified </text>
<text text-anchor="start" x="392.8064" y="-963.9" font-family="Arial" font-size="14.00" fill="#666666">[datetime]</text>
<polygon fill="none" stroke="#000000" points="294,-922.5 294,-952.5 535,-952.5 535,-922.5 294,-922.5"/>
<text text-anchor="start" x="301" y="-933.9" font-family="Arial" font-size="14.00" fill="#000000">modified_by </text>
<text text-anchor="start" x="380.3506" y="-933.9" font-family="Arial" font-size="14.00" fill="#666666">[int(11)]</text>
<polygon fill="none" stroke="#000000" points="294,-892.5 294,-922.5 535,-922.5 535,-892.5 294,-892.5"/>
<text text-anchor="start" x="301" y="-903.9" font-family="Arial" font-size="14.00" fill="#000000">modified_by_user </text>
<text text-anchor="start" x="415.359" y="-903.9" font-family="Arial" font-size="14.00" fill="#666666">[varchar(191)]</text>
<polygon fill="none" stroke="#000000" points="294,-862.5 294,-892.5 535,-892.5 535,-862.5 294,-862.5"/>
<text text-anchor="start" x="301" y="-873.9" font-family="Arial" font-size="14.00" fill="#000000">checked_out </text>
<text text-anchor="start" x="384.2594" y="-873.9" font-family="Arial" font-size="14.00" fill="#666666">[datetime]</text>
<polygon fill="none" stroke="#000000" points="294,-832.5 294,-862.5 535,-862.5 535,-832.5 294,-832.5"/>
<text text-anchor="start" x="301" y="-843.9" font-family="Arial" font-size="14.00" fill="#000000">checked_out_by </text>
<text text-anchor="start" x="406.8246" y="-843.9" font-family="Arial" font-size="14.00" fill="#666666">[int(11)]</text>
<polygon fill="none" stroke="#000000" points="294,-802.5 294,-832.5 535,-832.5 535,-802.5 294,-802.5"/>
<text text-anchor="start" x="300.5239" y="-813.9" font-family="Arial" font-size="14.00" fill="#000000">checked_out_by_user </text>
<text text-anchor="start" x="441.3569" y="-813.9" font-family="Arial" font-size="14.00" fill="#666666">[varchar(191)]</text>
<polygon fill="none" stroke="#000000" points="294,-772.5 294,-802.5 535,-802.5 535,-772.5 294,-772.5"/>
<text text-anchor="start" x="301" y="-783.9" font-family="Arial" font-size="14.00" fill="#000000">name </text>
<text text-anchor="start" x="339.899" y="-783.9" font-family="Arial" font-size="14.00" fill="#666666">[varchar(191)]</text>
<polygon fill="none" stroke="#000000" points="294,-742.5 294,-772.5 535,-772.5 535,-742.5 294,-742.5"/>
<text text-anchor="start" x="301" y="-753.9" font-family="Arial" font-size="14.00" fill="#000000">description </text>
<text text-anchor="start" x="372.568" y="-753.9" font-family="Arial" font-size="14.00" fill="#666666">[longtext]</text>
<polygon fill="none" stroke="#000000" points="294,-712.5 294,-742.5 535,-742.5 535,-712.5 294,-712.5"/>
<text text-anchor="start" x="301" y="-723.9" font-family="Arial" font-size="14.00" fill="#000000">publish_up </text>
<text text-anchor="start" x="372.582" y="-723.9" font-family="Arial" font-size="14.00" fill="#666666">[datetime]</text>
<polygon fill="none" stroke="#000000" points="294,-682.5 294,-712.5 535,-712.5 535,-682.5 294,-682.5"/>
<text text-anchor="start" x="301" y="-693.9" font-family="Arial" font-size="14.00" fill="#000000">publish_down </text>
<text text-anchor="start" x="390.4712" y="-693.9" font-family="Arial" font-size="14.00" fill="#666666">[datetime]</text>
<polygon fill="none" stroke="#000000" stroke-width="3" points="292,-681.5 292,-1199.5 536,-1199.5 536,-681.5 292,-681.5"/>
</g>
<!-- categories -->
<g id="node3" class="node">
<title>categories</title>
<polygon fill="#efefef" stroke="transparent" points="294,-522.5 294,-557.5 535,-557.5 535,-522.5 294,-522.5"/>
<polygon fill="none" stroke="#000000" points="294,-522.5 294,-557.5 535,-557.5 535,-522.5 294,-522.5"/>
<text text-anchor="start" x="324.3633" y="-535.3" font-family="Arial Bold" font-size="18.00" fill="#000000">categories</text>
<text text-anchor="start" x="407.3829" y="-535.3" font-family="Arial" font-size="14.00" fill="#000000"> </text>
<text text-anchor="start" x="411.2735" y="-535.3" font-family="Arial" font-size="14.00" fill="#666666">[BASE TABLE]</text>
<polygon fill="none" stroke="#000000" points="294,-492.5 294,-522.5 535,-522.5 535,-492.5 294,-492.5"/>
<text text-anchor="start" x="301" y="-503.9" font-family="Arial" font-size="14.00" fill="#000000">id </text>
<text text-anchor="start" x="315.7798" y="-503.9" font-family="Arial" font-size="14.00" fill="#666666">[int(10) unsigned]</text>
<polygon fill="none" stroke="#000000" points="294,-462.5 294,-492.5 535,-492.5 535,-462.5 294,-462.5"/>
<text text-anchor="start" x="301" y="-473.9" font-family="Arial" font-size="14.00" fill="#000000">is_published </text>
<text text-anchor="start" x="382.6886" y="-473.9" font-family="Arial" font-size="14.00" fill="#666666">[tinyint(1)]</text>
<polygon fill="none" stroke="#000000" points="294,-432.5 294,-462.5 535,-462.5 535,-432.5 294,-432.5"/>
<text text-anchor="start" x="301" y="-443.9" font-family="Arial" font-size="14.00" fill="#000000">date_added </text>
<text text-anchor="start" x="378.8246" y="-443.9" font-family="Arial" font-size="14.00" fill="#666666">[datetime]</text>
<polygon fill="none" stroke="#000000" points="294,-402.5 294,-432.5 535,-432.5 535,-402.5 294,-402.5"/>
<text text-anchor="start" x="301" y="-413.9" font-family="Arial" font-size="14.00" fill="#000000">created_by </text>
<text text-anchor="start" x="374.1374" y="-413.9" font-family="Arial" font-size="14.00" fill="#666666">[int(11)]</text>
<polygon fill="none" stroke="#000000" points="294,-372.5 294,-402.5 535,-402.5 535,-372.5 294,-372.5"/>
<text text-anchor="start" x="301" y="-383.9" font-family="Arial" font-size="14.00" fill="#000000">created_by_user </text>
<text text-anchor="start" x="409.1458" y="-383.9" font-family="Arial" font-size="14.00" fill="#666666">[varchar(191)]</text>
<polygon fill="none" stroke="#000000" points="294,-342.5 294,-372.5 535,-372.5 535,-342.5 294,-342.5"/>
<text text-anchor="start" x="301" y="-353.9" font-family="Arial" font-size="14.00" fill="#000000">date_modified </text>
<text text-anchor="start" x="392.8064" y="-353.9" font-family="Arial" font-size="14.00" fill="#666666">[datetime]</text>
<polygon fill="none" stroke="#000000" points="294,-312.5 294,-342.5 535,-342.5 535,-312.5 294,-312.5"/>
<text text-anchor="start" x="301" y="-323.9" font-family="Arial" font-size="14.00" fill="#000000">modified_by </text>
<text text-anchor="start" x="380.3506" y="-323.9" font-family="Arial" font-size="14.00" fill="#666666">[int(11)]</text>
<polygon fill="none" stroke="#000000" points="294,-282.5 294,-312.5 535,-312.5 535,-282.5 294,-282.5"/>
<text text-anchor="start" x="301" y="-293.9" font-family="Arial" font-size="14.00" fill="#000000">modified_by_user </text>
<text text-anchor="start" x="415.359" y="-293.9" font-family="Arial" font-size="14.00" fill="#666666">[varchar(191)]</text>
<polygon fill="none" stroke="#000000" points="294,-252.5 294,-282.5 535,-282.5 535,-252.5 294,-252.5"/>
<text text-anchor="start" x="301" y="-263.9" font-family="Arial" font-size="14.00" fill="#000000">checked_out </text>
<text text-anchor="start" x="384.2594" y="-263.9" font-family="Arial" font-size="14.00" fill="#666666">[datetime]</text>
<polygon fill="none" stroke="#000000" points="294,-222.5 294,-252.5 535,-252.5 535,-222.5 294,-222.5"/>
<text text-anchor="start" x="301" y="-233.9" font-family="Arial" font-size="14.00" fill="#000000">checked_out_by </text>
<text text-anchor="start" x="406.8246" y="-233.9" font-family="Arial" font-size="14.00" fill="#666666">[int(11)]</text>
<polygon fill="none" stroke="#000000" points="294,-192.5 294,-222.5 535,-222.5 535,-192.5 294,-192.5"/>
<text text-anchor="start" x="300.5239" y="-203.9" font-family="Arial" font-size="14.00" fill="#000000">checked_out_by_user </text>
<text text-anchor="start" x="441.3569" y="-203.9" font-family="Arial" font-size="14.00" fill="#666666">[varchar(191)]</text>
<polygon fill="none" stroke="#000000" points="294,-162.5 294,-192.5 535,-192.5 535,-162.5 294,-162.5"/>
<text text-anchor="start" x="301" y="-173.9" font-family="Arial" font-size="14.00" fill="#000000">title </text>
<text text-anchor="start" x="326.6676" y="-173.9" font-family="Arial" font-size="14.00" fill="#666666">[varchar(191)]</text>
<polygon fill="none" stroke="#000000" points="294,-132.5 294,-162.5 535,-162.5 535,-132.5 294,-132.5"/>
<text text-anchor="start" x="301" y="-143.9" font-family="Arial" font-size="14.00" fill="#000000">description </text>
<text text-anchor="start" x="372.568" y="-143.9" font-family="Arial" font-size="14.00" fill="#666666">[longtext]</text>
<polygon fill="none" stroke="#000000" points="294,-102.5 294,-132.5 535,-132.5 535,-102.5 294,-102.5"/>
<text text-anchor="start" x="301" y="-113.9" font-family="Arial" font-size="14.00" fill="#000000">alias </text>
<text text-anchor="start" x="333.669" y="-113.9" font-family="Arial" font-size="14.00" fill="#666666">[varchar(191)]</text>
<polygon fill="none" stroke="#000000" points="294,-72.5 294,-102.5 535,-102.5 535,-72.5 294,-72.5"/>
<text text-anchor="start" x="301" y="-83.9" font-family="Arial" font-size="14.00" fill="#000000">color </text>
<text text-anchor="start" x="335.223" y="-83.9" font-family="Arial" font-size="14.00" fill="#666666">[varchar(7)]</text>
<polygon fill="none" stroke="#000000" points="294,-42.5 294,-72.5 535,-72.5 535,-42.5 294,-42.5"/>
<text text-anchor="start" x="301" y="-53.9" font-family="Arial" font-size="14.00" fill="#000000">bundle </text>
<text text-anchor="start" x="346.9102" y="-53.9" font-family="Arial" font-size="14.00" fill="#666666">[varchar(50)]</text>
</g>
<!-- messages&#45;&gt;categories -->
<g id="edge2" class="edge">
<title>messages:category_id&#45;&gt;categories:id</title>
<path fill="none" stroke="#000000" d="M283.9367,-1116.3402C158.5318,-1086.9167 161.8863,-507.5 294,-507.5"/>
<polygon fill="#000000" stroke="#000000" points="284.0658,-1116.355 293.4847,-1121.9704 289.0329,-1116.9275 294,-1117.5 294,-1117.5 294,-1117.5 289.0329,-1116.9275 294.5153,-1113.0296 284.0658,-1116.355 284.0658,-1116.355"/>
<text text-anchor="start" x="20.659" y="-1127.5" font-family="Arial" font-size="10.00" fill="#000000">FOREIGN KEY (category_id) REFERENCES categories (id)</text>
</g>
<!-- message_channels -->
<g id="node2" class="node">
<title>message_channels</title>
<polygon fill="#efefef" stroke="transparent" points="282,-1502.5 282,-1537.5 548,-1537.5 548,-1502.5 282,-1502.5"/>
<polygon fill="none" stroke="#000000" points="282,-1502.5 282,-1537.5 548,-1537.5 548,-1502.5 282,-1502.5"/>
<text text-anchor="start" x="288.8489" y="-1515.3" font-family="Arial Bold" font-size="18.00" fill="#000000">message_channels</text>
<text text-anchor="start" x="443.8973" y="-1515.3" font-family="Arial" font-size="14.00" fill="#000000"> </text>
<text text-anchor="start" x="447.7879" y="-1515.3" font-family="Arial" font-size="14.00" fill="#666666">[BASE TABLE]</text>
<polygon fill="none" stroke="#000000" points="282,-1472.5 282,-1502.5 548,-1502.5 548,-1472.5 282,-1472.5"/>
<text text-anchor="start" x="289" y="-1483.9" font-family="Arial" font-size="14.00" fill="#000000">id </text>
<text text-anchor="start" x="303.7798" y="-1483.9" font-family="Arial" font-size="14.00" fill="#666666">[int(10) unsigned]</text>
<polygon fill="none" stroke="#000000" points="282,-1442.5 282,-1472.5 548,-1472.5 548,-1442.5 282,-1442.5"/>
<text text-anchor="start" x="289" y="-1453.9" font-family="Arial" font-size="14.00" fill="#000000">message_id </text>
<text text-anchor="start" x="368.3534" y="-1453.9" font-family="Arial" font-size="14.00" fill="#666666">[int(10) unsigned]</text>
<polygon fill="none" stroke="#000000" points="282,-1412.5 282,-1442.5 548,-1442.5 548,-1412.5 282,-1412.5"/>
<text text-anchor="start" x="289" y="-1423.9" font-family="Arial" font-size="14.00" fill="#000000">channel </text>
<text text-anchor="start" x="341.9102" y="-1423.9" font-family="Arial" font-size="14.00" fill="#666666">[varchar(191)]</text>
<polygon fill="none" stroke="#000000" points="282,-1382.5 282,-1412.5 548,-1412.5 548,-1382.5 282,-1382.5"/>
<text text-anchor="start" x="289" y="-1393.9" font-family="Arial" font-size="14.00" fill="#000000">channel_id </text>
<text text-anchor="start" x="360.582" y="-1393.9" font-family="Arial" font-size="14.00" fill="#666666">[int(11)]</text>
<polygon fill="none" stroke="#000000" points="282,-1352.5 282,-1382.5 548,-1382.5 548,-1352.5 282,-1352.5"/>
<text text-anchor="start" x="289" y="-1363.9" font-family="Arial" font-size="14.00" fill="#000000">properties </text>
<text text-anchor="start" x="355.122" y="-1363.9" font-family="Arial" font-size="14.00" fill="#666666">[longtext]</text>
<polygon fill="none" stroke="#000000" points="282,-1322.5 282,-1352.5 548,-1352.5 548,-1322.5 282,-1322.5"/>
<text text-anchor="start" x="289" y="-1333.9" font-family="Arial" font-size="14.00" fill="#000000">is_enabled </text>
<text text-anchor="start" x="360.582" y="-1333.9" font-family="Arial" font-size="14.00" fill="#666666">[tinyint(1)]</text>
</g>
<!-- message_channels&#45;&gt;messages -->
<g id="edge1" class="edge">
<title>message_channels:message_id&#45;&gt;messages:id</title>
<path fill="none" stroke="#000000" d="M272.0033,-1456.8021C205.6029,-1447.0236 232.618,-1336.9061 282,-1280 356.4396,-1194.2183 460.5604,-1329.7817 535,-1244 563.1098,-1211.6072 577.8889,-1147.5 535,-1147.5"/>
<polygon fill="#000000" stroke="#000000" points="272.0243,-1456.8035 281.6866,-1461.9891 277.0121,-1457.1517 282,-1457.5 282,-1457.5 282,-1457.5 277.0121,-1457.1517 282.3134,-1453.0109 272.0243,-1456.8035 272.0243,-1456.8035"/>
<text text-anchor="start" x="6.827" y="-1467.5" font-family="Arial" font-size="10.00" fill="#000000">FOREIGN KEY (message_id) REFERENCES messages (id)</text>
</g>
</g>
</svg>
