<?xml version="1.0" encoding="UTF-8" standalone="no"?>
<!DOCTYPE svg PUBLIC "-//W3C//DTD SVG 1.1//EN"
 "http://www.w3.org/Graphics/SVG/1.1/DTD/svg11.dtd">
<!-- Generated by graphviz version 2.40.1 (20161225.0304)
 -->
<!-- Title: message_queue Pages: 1 -->
<svg width="790pt" height="2092pt"
 viewBox="0.00 0.00 790.00 2092.00" xmlns="http://www.w3.org/2000/svg" xmlns:xlink="http://www.w3.org/1999/xlink">
<g id="graph0" class="graph" transform="scale(1 1) rotate(0) translate(4 2088)">
<title>message_queue</title>
<polygon fill="#ffffff" stroke="transparent" points="-4,4 -4,-2088 786,-2088 786,4 -4,4"/>
<!-- message_queue -->
<g id="node1" class="node">
<title>message_queue</title>
<polygon fill="#efefef" stroke="transparent" points="299,-2002.5 299,-2037.5 543,-2037.5 543,-2002.5 299,-2002.5"/>
<polygon fill="none" stroke="#000000" points="299,-2002.5 299,-2037.5 543,-2037.5 543,-2002.5 299,-2002.5"/>
<text text-anchor="start" x="305.846" y="-2015.3" font-family="Arial Bold" font-size="18.00" fill="#000000">message_queue</text>
<text text-anchor="start" x="438.9002" y="-2015.3" font-family="Arial" font-size="14.00" fill="#000000"> </text>
<text text-anchor="start" x="442.7908" y="-2015.3" font-family="Arial" font-size="14.00" fill="#666666">[BASE TABLE]</text>
<polygon fill="none" stroke="#000000" points="299,-1972.5 299,-2002.5 543,-2002.5 543,-1972.5 299,-1972.5"/>
<text text-anchor="start" x="306" y="-1983.9" font-family="Arial" font-size="14.00" fill="#000000">id </text>
<text text-anchor="start" x="320.7798" y="-1983.9" font-family="Arial" font-size="14.00" fill="#666666">[bigint(20) unsigned]</text>
<polygon fill="none" stroke="#000000" points="299,-1942.5 299,-1972.5 543,-1972.5 543,-1942.5 299,-1942.5"/>
<text text-anchor="start" x="306" y="-1953.9" font-family="Arial" font-size="14.00" fill="#000000">event_id </text>
<text text-anchor="start" x="362.8008" y="-1953.9" font-family="Arial" font-size="14.00" fill="#666666">[int(10) unsigned]</text>
<polygon fill="none" stroke="#000000" points="299,-1912.5 299,-1942.5 543,-1942.5 543,-1912.5 299,-1912.5"/>
<text text-anchor="start" x="306" y="-1923.9" font-family="Arial" font-size="14.00" fill="#000000">lead_id </text>
<text text-anchor="start" x="355.0168" y="-1923.9" font-family="Arial" font-size="14.00" fill="#666666">[bigint(20) unsigned]</text>
<polygon fill="none" stroke="#000000" points="299,-1882.5 299,-1912.5 543,-1912.5 543,-1882.5 299,-1882.5"/>
<text text-anchor="start" x="306" y="-1893.9" font-family="Arial" font-size="14.00" fill="#000000">channel </text>
<text text-anchor="start" x="358.9102" y="-1893.9" font-family="Arial" font-size="14.00" fill="#666666">[varchar(191)]</text>
<polygon fill="none" stroke="#000000" points="299,-1852.5 299,-1882.5 543,-1882.5 543,-1852.5 299,-1852.5"/>
<text text-anchor="start" x="306" y="-1863.9" font-family="Arial" font-size="14.00" fill="#000000">channel_id </text>
<text text-anchor="start" x="377.582" y="-1863.9" font-family="Arial" font-size="14.00" fill="#666666">[int(11)]</text>
<polygon fill="none" stroke="#000000" points="299,-1822.5 299,-1852.5 543,-1852.5 543,-1822.5 299,-1822.5"/>
<text text-anchor="start" x="306" y="-1833.9" font-family="Arial" font-size="14.00" fill="#000000">priority </text>
<text text-anchor="start" x="351.8808" y="-1833.9" font-family="Arial" font-size="14.00" fill="#666666">[smallint(6)]</text>
<polygon fill="none" stroke="#000000" points="299,-1792.5 299,-1822.5 543,-1822.5 543,-1792.5 299,-1792.5"/>
<text text-anchor="start" x="306" y="-1803.9" font-family="Arial" font-size="14.00" fill="#000000">max_attempts </text>
<text text-anchor="start" x="397.7966" y="-1803.9" font-family="Arial" font-size="14.00" fill="#666666">[smallint(6)]</text>
<polygon fill="none" stroke="#000000" points="299,-1762.5 299,-1792.5 543,-1792.5 543,-1762.5 299,-1762.5"/>
<text text-anchor="start" x="306" y="-1773.9" font-family="Arial" font-size="14.00" fill="#000000">attempts </text>
<text text-anchor="start" x="363.5708" y="-1773.9" font-family="Arial" font-size="14.00" fill="#666666">[smallint(6)]</text>
<polygon fill="none" stroke="#000000" points="299,-1732.5 299,-1762.5 543,-1762.5 543,-1732.5 299,-1732.5"/>
<text text-anchor="start" x="306" y="-1743.9" font-family="Arial" font-size="14.00" fill="#000000">success </text>
<text text-anchor="start" x="360.4558" y="-1743.9" font-family="Arial" font-size="14.00" fill="#666666">[tinyint(1)]</text>
<polygon fill="none" stroke="#000000" points="299,-1702.5 299,-1732.5 543,-1732.5 543,-1702.5 299,-1702.5"/>
<text text-anchor="start" x="306" y="-1713.9" font-family="Arial" font-size="14.00" fill="#000000">status </text>
<text text-anchor="start" x="347.237" y="-1713.9" font-family="Arial" font-size="14.00" fill="#666666">[varchar(191)]</text>
<polygon fill="none" stroke="#000000" points="299,-1672.5 299,-1702.5 543,-1702.5 543,-1672.5 299,-1672.5"/>
<text text-anchor="start" x="306" y="-1683.9" font-family="Arial" font-size="14.00" fill="#000000">date_published </text>
<text text-anchor="start" x="404.8204" y="-1683.9" font-family="Arial" font-size="14.00" fill="#666666">[datetime]</text>
<polygon fill="none" stroke="#000000" points="299,-1642.5 299,-1672.5 543,-1672.5 543,-1642.5 299,-1642.5"/>
<text text-anchor="start" x="306" y="-1653.9" font-family="Arial" font-size="14.00" fill="#000000">scheduled_date </text>
<text text-anchor="start" x="408.7138" y="-1653.9" font-family="Arial" font-size="14.00" fill="#666666">[datetime]</text>
<polygon fill="none" stroke="#000000" points="299,-1612.5 299,-1642.5 543,-1642.5 543,-1612.5 299,-1612.5"/>
<text text-anchor="start" x="306" y="-1623.9" font-family="Arial" font-size="14.00" fill="#000000">last_attempt </text>
<text text-anchor="start" x="386.1332" y="-1623.9" font-family="Arial" font-size="14.00" fill="#666666">[datetime]</text>
<polygon fill="none" stroke="#000000" points="299,-1582.5 299,-1612.5 543,-1612.5 543,-1582.5 299,-1582.5"/>
<text text-anchor="start" x="306" y="-1593.9" font-family="Arial" font-size="14.00" fill="#000000">date_sent </text>
<text text-anchor="start" x="371.3674" y="-1593.9" font-family="Arial" font-size="14.00" fill="#666666">[datetime]</text>
<polygon fill="none" stroke="#000000" points="299,-1552.5 299,-1582.5 543,-1582.5 543,-1552.5 299,-1552.5"/>
<text text-anchor="start" x="306" y="-1563.9" font-family="Arial" font-size="14.00" fill="#000000">options </text>
<text text-anchor="start" x="355.0182" y="-1563.9" font-family="Arial" font-size="14.00" fill="#666666">[longtext]</text>
<polygon fill="none" stroke="#000000" stroke-width="3" points="297.5,-1551.5 297.5,-2039.5 544.5,-2039.5 544.5,-1551.5 297.5,-1551.5"/>
</g>
<!-- campaign_events -->
<g id="node2" class="node">
<title>campaign_events</title>
<polygon fill="#efefef" stroke="transparent" points="116,-1032.5 116,-1067.5 368,-1067.5 368,-1032.5 116,-1032.5"/>
<polygon fill="none" stroke="#000000" points="116,-1032.5 116,-1067.5 368,-1067.5 368,-1032.5 116,-1032.5"/>
<text text-anchor="start" x="122.8509" y="-1045.3" font-family="Arial Bold" font-size="18.00" fill="#000000">campaign_events</text>
<text text-anchor="start" x="263.8953" y="-1045.3" font-family="Arial" font-size="14.00" fill="#000000"> </text>
<text text-anchor="start" x="267.7859" y="-1045.3" font-family="Arial" font-size="14.00" fill="#666666">[BASE TABLE]</text>
<polygon fill="none" stroke="#000000" points="116,-1002.5 116,-1032.5 368,-1032.5 368,-1002.5 116,-1002.5"/>
<text text-anchor="start" x="123" y="-1013.9" font-family="Arial" font-size="14.00" fill="#000000">id </text>
<text text-anchor="start" x="137.7798" y="-1013.9" font-family="Arial" font-size="14.00" fill="#666666">[int(10) unsigned]</text>
<polygon fill="none" stroke="#000000" points="116,-972.5 116,-1002.5 368,-1002.5 368,-972.5 116,-972.5"/>
<text text-anchor="start" x="123" y="-983.9" font-family="Arial" font-size="14.00" fill="#000000">campaign_id </text>
<text text-anchor="start" x="206.2426" y="-983.9" font-family="Arial" font-size="14.00" fill="#666666">[int(10) unsigned]</text>
<polygon fill="none" stroke="#000000" points="116,-942.5 116,-972.5 368,-972.5 368,-942.5 116,-942.5"/>
<text text-anchor="start" x="123" y="-953.9" font-family="Arial" font-size="14.00" fill="#000000">parent_id </text>
<text text-anchor="start" x="185.244" y="-953.9" font-family="Arial" font-size="14.00" fill="#666666">[int(10) unsigned]</text>
<polygon fill="none" stroke="#000000" points="116,-912.5 116,-942.5 368,-942.5 368,-912.5 116,-912.5"/>
<text text-anchor="start" x="123" y="-923.9" font-family="Arial" font-size="14.00" fill="#000000">name </text>
<text text-anchor="start" x="161.899" y="-923.9" font-family="Arial" font-size="14.00" fill="#666666">[varchar(191)]</text>
<polygon fill="none" stroke="#000000" points="116,-882.5 116,-912.5 368,-912.5 368,-882.5 116,-882.5"/>
<text text-anchor="start" x="123" y="-893.9" font-family="Arial" font-size="14.00" fill="#000000">description </text>
<text text-anchor="start" x="194.568" y="-893.9" font-family="Arial" font-size="14.00" fill="#666666">[longtext]</text>
<polygon fill="none" stroke="#000000" points="116,-852.5 116,-882.5 368,-882.5 368,-852.5 116,-852.5"/>
<text text-anchor="start" x="123" y="-863.9" font-family="Arial" font-size="14.00" fill="#000000">type </text>
<text text-anchor="start" x="153.3464" y="-863.9" font-family="Arial" font-size="14.00" fill="#666666">[varchar(50)]</text>
<polygon fill="none" stroke="#000000" points="116,-822.5 116,-852.5 368,-852.5 368,-822.5 116,-822.5"/>
<text text-anchor="start" x="123" y="-833.9" font-family="Arial" font-size="14.00" fill="#000000">event_type </text>
<text text-anchor="start" x="195.3674" y="-833.9" font-family="Arial" font-size="14.00" fill="#666666">[varchar(50)]</text>
<polygon fill="none" stroke="#000000" points="116,-792.5 116,-822.5 368,-822.5 368,-792.5 116,-792.5"/>
<text text-anchor="start" x="123" y="-803.9" font-family="Arial" font-size="14.00" fill="#000000">event_order </text>
<text text-anchor="start" x="201.5806" y="-803.9" font-family="Arial" font-size="14.00" fill="#666666">[int(11)]</text>
<polygon fill="none" stroke="#000000" points="116,-762.5 116,-792.5 368,-792.5 368,-762.5 116,-762.5"/>
<text text-anchor="start" x="123" y="-773.9" font-family="Arial" font-size="14.00" fill="#000000">properties </text>
<text text-anchor="start" x="189.122" y="-773.9" font-family="Arial" font-size="14.00" fill="#666666">[longtext]</text>
<polygon fill="none" stroke="#000000" points="116,-732.5 116,-762.5 368,-762.5 368,-732.5 116,-732.5"/>
<text text-anchor="start" x="123" y="-743.9" font-family="Arial" font-size="14.00" fill="#000000">trigger_date </text>
<text text-anchor="start" x="201.5778" y="-743.9" font-family="Arial" font-size="14.00" fill="#666666">[datetime]</text>
<polygon fill="none" stroke="#000000" points="116,-702.5 116,-732.5 368,-732.5 368,-702.5 116,-702.5"/>
<text text-anchor="start" x="123" y="-713.9" font-family="Arial" font-size="14.00" fill="#000000">trigger_interval </text>
<text text-anchor="start" x="219.4516" y="-713.9" font-family="Arial" font-size="14.00" fill="#666666">[int(11)]</text>
<polygon fill="none" stroke="#000000" points="116,-672.5 116,-702.5 368,-702.5 368,-672.5 116,-672.5"/>
<text text-anchor="start" x="123" y="-683.9" font-family="Arial" font-size="14.00" fill="#000000">trigger_interval_unit </text>
<text text-anchor="start" x="249.7966" y="-683.9" font-family="Arial" font-size="14.00" fill="#666666">[varchar(1)]</text>
<polygon fill="none" stroke="#000000" points="116,-642.5 116,-672.5 368,-672.5 368,-642.5 116,-642.5"/>
<text text-anchor="start" x="123" y="-653.9" font-family="Arial" font-size="14.00" fill="#000000">trigger_hour </text>
<text text-anchor="start" x="202.3478" y="-653.9" font-family="Arial" font-size="14.00" fill="#666666">[time]</text>
<polygon fill="none" stroke="#000000" points="116,-612.5 116,-642.5 368,-642.5 368,-612.5 116,-612.5"/>
<text text-anchor="start" x="123" y="-623.9" font-family="Arial" font-size="14.00" fill="#000000">trigger_restricted_start_hour </text>
<text text-anchor="start" x="302.6942" y="-623.9" font-family="Arial" font-size="14.00" fill="#666666">[time]</text>
<polygon fill="none" stroke="#000000" points="116,-582.5 116,-612.5 368,-612.5 368,-582.5 116,-582.5"/>
<text text-anchor="start" x="123" y="-593.9" font-family="Arial" font-size="14.00" fill="#000000">trigger_restricted_stop_hour </text>
<text text-anchor="start" x="301.9256" y="-593.9" font-family="Arial" font-size="14.00" fill="#666666">[time]</text>
<polygon fill="none" stroke="#000000" points="116,-552.5 116,-582.5 368,-582.5 368,-552.5 116,-552.5"/>
<text text-anchor="start" x="123" y="-563.9" font-family="Arial" font-size="14.00" fill="#000000">trigger_restricted_dow </text>
<text text-anchor="start" x="265.3506" y="-563.9" font-family="Arial" font-size="14.00" fill="#666666">[longtext]</text>
<polygon fill="none" stroke="#000000" points="116,-522.5 116,-552.5 368,-552.5 368,-522.5 116,-522.5"/>
<text text-anchor="start" x="123" y="-533.9" font-family="Arial" font-size="14.00" fill="#000000">trigger_mode </text>
<text text-anchor="start" x="209.3478" y="-533.9" font-family="Arial" font-size="14.00" fill="#666666">[varchar(10)]</text>
<polygon fill="none" stroke="#000000" points="116,-492.5 116,-522.5 368,-522.5 368,-492.5 116,-492.5"/>
<text text-anchor="start" x="123" y="-503.9" font-family="Arial" font-size="14.00" fill="#000000">decision_path </text>
<text text-anchor="start" x="213.2552" y="-503.9" font-family="Arial" font-size="14.00" fill="#666666">[varchar(191)]</text>
<polygon fill="none" stroke="#000000" points="116,-462.5 116,-492.5 368,-492.5 368,-462.5 116,-462.5"/>
<text text-anchor="start" x="123" y="-473.9" font-family="Arial" font-size="14.00" fill="#000000">temp_id </text>
<text text-anchor="start" x="176.6788" y="-473.9" font-family="Arial" font-size="14.00" fill="#666666">[varchar(191)]</text>
<polygon fill="none" stroke="#000000" points="116,-432.5 116,-462.5 368,-462.5 368,-432.5 116,-432.5"/>
<text text-anchor="start" x="123" y="-443.9" font-family="Arial" font-size="14.00" fill="#000000">channel </text>
<text text-anchor="start" x="175.9102" y="-443.9" font-family="Arial" font-size="14.00" fill="#666666">[varchar(191)]</text>
<polygon fill="none" stroke="#000000" points="116,-402.5 116,-432.5 368,-432.5 368,-402.5 116,-402.5"/>
<text text-anchor="start" x="123" y="-413.9" font-family="Arial" font-size="14.00" fill="#000000">channel_id </text>
<text text-anchor="start" x="194.582" y="-413.9" font-family="Arial" font-size="14.00" fill="#666666">[int(11)]</text>
</g>
<!-- message_queue&#45;&gt;campaign_events -->
<g id="edge1" class="edge">
<title>message_queue:event_id&#45;&gt;campaign_events:id</title>
<path fill="none" stroke="#000000" d="M288.9636,-1957.3853C-71.0225,-1949.0087 335.7753,-1483.6696 368,-1111 371.5799,-1069.5989 409.5556,-1017.5 368,-1017.5"/>
<polygon fill="#000000" stroke="#000000" points="289.0007,-1957.3856 298.9485,-1961.9997 294.0003,-1957.4428 299,-1957.5 299,-1957.5 299,-1957.5 294.0003,-1957.4428 299.0515,-1953.0003 289.0007,-1957.3856 289.0007,-1957.3856"/>
<text text-anchor="start" x="7.485" y="-1967.5" font-family="Arial" font-size="10.00" fill="#000000">FOREIGN KEY (event_id) REFERENCES campaign_events (id)</text>
</g>
<!-- leads -->
<g id="node3" class="node">
<title>leads</title>
<polygon fill="#efefef" stroke="transparent" points="473,-1392.5 473,-1427.5 726,-1427.5 726,-1392.5 473,-1392.5"/>
<polygon fill="none" stroke="#000000" points="473,-1392.5 473,-1427.5 726,-1427.5 726,-1392.5 473,-1392.5"/>
<text text-anchor="start" x="529.3667" y="-1405.3" font-family="Arial Bold" font-size="18.00" fill="#000000">leads</text>
<text text-anchor="start" x="572.3795" y="-1405.3" font-family="Arial" font-size="14.00" fill="#000000"> </text>
<text text-anchor="start" x="576.2701" y="-1405.3" font-family="Arial" font-size="14.00" fill="#666666">[BASE TABLE]</text>
<polygon fill="none" stroke="#000000" points="473,-1362.5 473,-1392.5 726,-1392.5 726,-1362.5 473,-1362.5"/>
<text text-anchor="start" x="480" y="-1373.9" font-family="Arial" font-size="14.00" fill="#000000">id </text>
<text text-anchor="start" x="494.7798" y="-1373.9" font-family="Arial" font-size="14.00" fill="#666666">[bigint(20) unsigned]</text>
<polygon fill="none" stroke="#000000" points="473,-1332.5 473,-1362.5 726,-1362.5 726,-1332.5 473,-1332.5"/>
<text text-anchor="start" x="480" y="-1343.9" font-family="Arial" font-size="14.00" fill="#000000">owner_id </text>
<text text-anchor="start" x="540.6774" y="-1343.9" font-family="Arial" font-size="14.00" fill="#666666">[int(10) unsigned]</text>
<polygon fill="none" stroke="#000000" points="473,-1302.5 473,-1332.5 726,-1332.5 726,-1302.5 473,-1302.5"/>
<text text-anchor="start" x="480" y="-1313.9" font-family="Arial" font-size="14.00" fill="#000000">stage_id </text>
<text text-anchor="start" x="536.8008" y="-1313.9" font-family="Arial" font-size="14.00" fill="#666666">[int(10) unsigned]</text>
<polygon fill="none" stroke="#000000" points="473,-1272.5 473,-1302.5 726,-1302.5 726,-1272.5 473,-1272.5"/>
<text text-anchor="start" x="480" y="-1283.9" font-family="Arial" font-size="14.00" fill="#000000">is_published </text>
<text text-anchor="start" x="561.6886" y="-1283.9" font-family="Arial" font-size="14.00" fill="#666666">[tinyint(1)]</text>
<polygon fill="none" stroke="#000000" points="473,-1242.5 473,-1272.5 726,-1272.5 726,-1242.5 473,-1242.5"/>
<text text-anchor="start" x="480" y="-1253.9" font-family="Arial" font-size="14.00" fill="#000000">date_added </text>
<text text-anchor="start" x="557.8246" y="-1253.9" font-family="Arial" font-size="14.00" fill="#666666">[datetime]</text>
<polygon fill="none" stroke="#000000" points="473,-1212.5 473,-1242.5 726,-1242.5 726,-1212.5 473,-1212.5"/>
<text text-anchor="start" x="480" y="-1223.9" font-family="Arial" font-size="14.00" fill="#000000">created_by </text>
<text text-anchor="start" x="553.1374" y="-1223.9" font-family="Arial" font-size="14.00" fill="#666666">[int(11)]</text>
<polygon fill="none" stroke="#000000" points="473,-1182.5 473,-1212.5 726,-1212.5 726,-1182.5 473,-1182.5"/>
<text text-anchor="start" x="480" y="-1193.9" font-family="Arial" font-size="14.00" fill="#000000">created_by_user </text>
<text text-anchor="start" x="588.1458" y="-1193.9" font-family="Arial" font-size="14.00" fill="#666666">[varchar(191)]</text>
<polygon fill="none" stroke="#000000" points="473,-1152.5 473,-1182.5 726,-1182.5 726,-1152.5 473,-1152.5"/>
<text text-anchor="start" x="480" y="-1163.9" font-family="Arial" font-size="14.00" fill="#000000">date_modified </text>
<text text-anchor="start" x="571.8064" y="-1163.9" font-family="Arial" font-size="14.00" fill="#666666">[datetime]</text>
<polygon fill="none" stroke="#000000" points="473,-1122.5 473,-1152.5 726,-1152.5 726,-1122.5 473,-1122.5"/>
<text text-anchor="start" x="480" y="-1133.9" font-family="Arial" font-size="14.00" fill="#000000">modified_by </text>
<text text-anchor="start" x="559.3506" y="-1133.9" font-family="Arial" font-size="14.00" fill="#666666">[int(11)]</text>
<polygon fill="none" stroke="#000000" points="473,-1092.5 473,-1122.5 726,-1122.5 726,-1092.5 473,-1092.5"/>
<text text-anchor="start" x="480" y="-1103.9" font-family="Arial" font-size="14.00" fill="#000000">modified_by_user </text>
<text text-anchor="start" x="594.359" y="-1103.9" font-family="Arial" font-size="14.00" fill="#666666">[varchar(191)]</text>
<polygon fill="none" stroke="#000000" points="473,-1062.5 473,-1092.5 726,-1092.5 726,-1062.5 473,-1062.5"/>
<text text-anchor="start" x="480" y="-1073.9" font-family="Arial" font-size="14.00" fill="#000000">checked_out </text>
<text text-anchor="start" x="563.2594" y="-1073.9" font-family="Arial" font-size="14.00" fill="#666666">[datetime]</text>
<polygon fill="none" stroke="#000000" points="473,-1032.5 473,-1062.5 726,-1062.5 726,-1032.5 473,-1032.5"/>
<text text-anchor="start" x="480" y="-1043.9" font-family="Arial" font-size="14.00" fill="#000000">checked_out_by </text>
<text text-anchor="start" x="585.8246" y="-1043.9" font-family="Arial" font-size="14.00" fill="#666666">[int(11)]</text>
<polygon fill="none" stroke="#000000" points="473,-1002.5 473,-1032.5 726,-1032.5 726,-1002.5 473,-1002.5"/>
<text text-anchor="start" x="480" y="-1013.9" font-family="Arial" font-size="14.00" fill="#000000">checked_out_by_user </text>
<text text-anchor="start" x="620.833" y="-1013.9" font-family="Arial" font-size="14.00" fill="#666666">[varchar(191)]</text>
<polygon fill="none" stroke="#000000" points="473,-972.5 473,-1002.5 726,-1002.5 726,-972.5 473,-972.5"/>
<text text-anchor="start" x="480" y="-983.9" font-family="Arial" font-size="14.00" fill="#000000">points </text>
<text text-anchor="start" x="521.2356" y="-983.9" font-family="Arial" font-size="14.00" fill="#666666">[int(11)]</text>
<polygon fill="none" stroke="#000000" points="473,-942.5 473,-972.5 726,-972.5 726,-942.5 473,-942.5"/>
<text text-anchor="start" x="480" y="-953.9" font-family="Arial" font-size="14.00" fill="#000000">last_active </text>
<text text-anchor="start" x="550.0154" y="-953.9" font-family="Arial" font-size="14.00" fill="#666666">[datetime]</text>
<polygon fill="none" stroke="#000000" points="473,-912.5 473,-942.5 726,-942.5 726,-912.5 473,-912.5"/>
<text text-anchor="start" x="480" y="-923.9" font-family="Arial" font-size="14.00" fill="#000000">internal </text>
<text text-anchor="start" x="529.7854" y="-923.9" font-family="Arial" font-size="14.00" fill="#666666">[longtext]</text>
<polygon fill="none" stroke="#000000" points="473,-882.5 473,-912.5 726,-912.5 726,-882.5 473,-882.5"/>
<text text-anchor="start" x="480" y="-893.9" font-family="Arial" font-size="14.00" fill="#000000">social_cache </text>
<text text-anchor="start" x="564.7994" y="-893.9" font-family="Arial" font-size="14.00" fill="#666666">[longtext]</text>
<polygon fill="none" stroke="#000000" points="473,-852.5 473,-882.5 726,-882.5 726,-852.5 473,-852.5"/>
<text text-anchor="start" x="480" y="-863.9" font-family="Arial" font-size="14.00" fill="#000000">date_identified </text>
<text text-anchor="start" x="574.9256" y="-863.9" font-family="Arial" font-size="14.00" fill="#666666">[datetime]</text>
<polygon fill="none" stroke="#000000" points="473,-822.5 473,-852.5 726,-852.5 726,-822.5 473,-822.5"/>
<text text-anchor="start" x="479.7062" y="-833.9" font-family="Arial" font-size="14.00" fill="#000000">preferred_profile_image </text>
<text text-anchor="start" x="632.1746" y="-833.9" font-family="Arial" font-size="14.00" fill="#666666">[varchar(191)]</text>
<polygon fill="none" stroke="#000000" points="473,-792.5 473,-822.5 726,-822.5 726,-792.5 473,-792.5"/>
<text text-anchor="start" x="480" y="-803.9" font-family="Arial" font-size="14.00" fill="#000000">title </text>
<text text-anchor="start" x="505.6676" y="-803.9" font-family="Arial" font-size="14.00" fill="#666666">[varchar(191)]</text>
<polygon fill="none" stroke="#000000" points="473,-762.5 473,-792.5 726,-792.5 726,-762.5 473,-762.5"/>
<text text-anchor="start" x="480" y="-773.9" font-family="Arial" font-size="14.00" fill="#000000">firstname </text>
<text text-anchor="start" x="541.4474" y="-773.9" font-family="Arial" font-size="14.00" fill="#666666">[varchar(191)]</text>
<polygon fill="none" stroke="#000000" points="473,-732.5 473,-762.5 726,-762.5 726,-732.5 473,-732.5"/>
<text text-anchor="start" x="480" y="-743.9" font-family="Arial" font-size="14.00" fill="#000000">lastname </text>
<text text-anchor="start" x="540.6788" y="-743.9" font-family="Arial" font-size="14.00" fill="#666666">[varchar(191)]</text>
<polygon fill="none" stroke="#000000" points="473,-702.5 473,-732.5 726,-732.5 726,-702.5 473,-702.5"/>
<text text-anchor="start" x="480" y="-713.9" font-family="Arial" font-size="14.00" fill="#000000">company </text>
<text text-anchor="start" x="540.6816" y="-713.9" font-family="Arial" font-size="14.00" fill="#666666">[varchar(191)]</text>
<polygon fill="none" stroke="#000000" points="473,-672.5 473,-702.5 726,-702.5 726,-672.5 473,-672.5"/>
<text text-anchor="start" x="480" y="-683.9" font-family="Arial" font-size="14.00" fill="#000000">position </text>
<text text-anchor="start" x="532.1248" y="-683.9" font-family="Arial" font-size="14.00" fill="#666666">[varchar(191)]</text>
<polygon fill="none" stroke="#000000" points="473,-642.5 473,-672.5 726,-672.5 726,-642.5 473,-642.5"/>
<text text-anchor="start" x="480" y="-653.9" font-family="Arial" font-size="14.00" fill="#000000">email </text>
<text text-anchor="start" x="517.3296" y="-653.9" font-family="Arial" font-size="14.00" fill="#666666">[varchar(191)]</text>
<polygon fill="none" stroke="#000000" points="473,-612.5 473,-642.5 726,-642.5 726,-612.5 473,-612.5"/>
<text text-anchor="start" x="480" y="-623.9" font-family="Arial" font-size="14.00" fill="#000000">phone </text>
<text text-anchor="start" x="522.8036" y="-623.9" font-family="Arial" font-size="14.00" fill="#666666">[varchar(191)]</text>
<polygon fill="none" stroke="#000000" points="473,-582.5 473,-612.5 726,-612.5 726,-582.5 473,-582.5"/>
<text text-anchor="start" x="480" y="-593.9" font-family="Arial" font-size="14.00" fill="#000000">mobile </text>
<text text-anchor="start" x="525.1122" y="-593.9" font-family="Arial" font-size="14.00" fill="#666666">[varchar(191)]</text>
<polygon fill="none" stroke="#000000" points="473,-552.5 473,-582.5 726,-582.5 726,-552.5 473,-552.5"/>
<text text-anchor="start" x="480" y="-563.9" font-family="Arial" font-size="14.00" fill="#000000">address1 </text>
<text text-anchor="start" x="541.4642" y="-563.9" font-family="Arial" font-size="14.00" fill="#666666">[varchar(191)]</text>
<polygon fill="none" stroke="#000000" points="473,-522.5 473,-552.5 726,-552.5 726,-522.5 473,-522.5"/>
<text text-anchor="start" x="480" y="-533.9" font-family="Arial" font-size="14.00" fill="#000000">address2 </text>
<text text-anchor="start" x="541.4642" y="-533.9" font-family="Arial" font-size="14.00" fill="#666666">[varchar(191)]</text>
<polygon fill="none" stroke="#000000" points="473,-492.5 473,-522.5 726,-522.5 726,-492.5 473,-492.5"/>
<text text-anchor="start" x="480" y="-503.9" font-family="Arial" font-size="14.00" fill="#000000">city </text>
<text text-anchor="start" x="504.8878" y="-503.9" font-family="Arial" font-size="14.00" fill="#666666">[varchar(191)]</text>
<polygon fill="none" stroke="#000000" points="473,-462.5 473,-492.5 726,-492.5 726,-462.5 473,-462.5"/>
<text text-anchor="start" x="480" y="-473.9" font-family="Arial" font-size="14.00" fill="#000000">state </text>
<text text-anchor="start" x="514.237" y="-473.9" font-family="Arial" font-size="14.00" fill="#666666">[varchar(191)]</text>
<polygon fill="none" stroke="#000000" points="473,-432.5 473,-462.5 726,-462.5 726,-432.5 473,-432.5"/>
<text text-anchor="start" x="480" y="-443.9" font-family="Arial" font-size="14.00" fill="#000000">zipcode </text>
<text text-anchor="start" x="532.1276" y="-443.9" font-family="Arial" font-size="14.00" fill="#666666">[varchar(191)]</text>
<polygon fill="none" stroke="#000000" points="473,-402.5 473,-432.5 726,-432.5 726,-402.5 473,-402.5"/>
<text text-anchor="start" x="480" y="-413.9" font-family="Arial" font-size="14.00" fill="#000000">timezone </text>
<text text-anchor="start" x="540.6788" y="-413.9" font-family="Arial" font-size="14.00" fill="#666666">[varchar(191)]</text>
<polygon fill="none" stroke="#000000" points="473,-372.5 473,-402.5 726,-402.5 726,-372.5 473,-372.5"/>
<text text-anchor="start" x="480" y="-383.9" font-family="Arial" font-size="14.00" fill="#000000">country </text>
<text text-anchor="start" x="529.7896" y="-383.9" font-family="Arial" font-size="14.00" fill="#666666">[varchar(191)]</text>
<polygon fill="none" stroke="#000000" points="473,-342.5 473,-372.5 726,-372.5 726,-342.5 473,-342.5"/>
<text text-anchor="start" x="480" y="-353.9" font-family="Arial" font-size="14.00" fill="#000000">fax </text>
<text text-anchor="start" x="502.5638" y="-353.9" font-family="Arial" font-size="14.00" fill="#666666">[varchar(255)]</text>
<polygon fill="none" stroke="#000000" points="473,-312.5 473,-342.5 726,-342.5 726,-312.5 473,-312.5"/>
<text text-anchor="start" x="480" y="-323.9" font-family="Arial" font-size="14.00" fill="#000000">preferred_locale </text>
<text text-anchor="start" x="585.0196" y="-323.9" font-family="Arial" font-size="14.00" fill="#666666">[varchar(255)]</text>
<polygon fill="none" stroke="#000000" points="473,-282.5 473,-312.5 726,-312.5 726,-282.5 473,-282.5"/>
<text text-anchor="start" x="480" y="-293.9" font-family="Arial" font-size="14.00" fill="#000000">attribution_date </text>
<text text-anchor="start" x="580.3702" y="-293.9" font-family="Arial" font-size="14.00" fill="#666666">[datetime]</text>
<polygon fill="none" stroke="#000000" points="473,-252.5 473,-282.5 726,-282.5 726,-252.5 473,-252.5"/>
<text text-anchor="start" x="480" y="-263.9" font-family="Arial" font-size="14.00" fill="#000000">attribution </text>
<text text-anchor="start" x="545.3492" y="-263.9" font-family="Arial" font-size="14.00" fill="#666666">[double]</text>
<polygon fill="none" stroke="#000000" points="473,-222.5 473,-252.5 726,-252.5 726,-222.5 473,-222.5"/>
<text text-anchor="start" x="480" y="-233.9" font-family="Arial" font-size="14.00" fill="#000000">website </text>
<text text-anchor="start" x="531.3422" y="-233.9" font-family="Arial" font-size="14.00" fill="#666666">[longtext]</text>
<polygon fill="none" stroke="#000000" points="473,-192.5 473,-222.5 726,-222.5 726,-192.5 473,-192.5"/>
<text text-anchor="start" x="480" y="-203.9" font-family="Arial" font-size="14.00" fill="#000000">facebook </text>
<text text-anchor="start" x="540.6942" y="-203.9" font-family="Arial" font-size="14.00" fill="#666666">[varchar(255)]</text>
<polygon fill="none" stroke="#000000" points="473,-162.5 473,-192.5 726,-192.5 726,-162.5 473,-162.5"/>
<text text-anchor="start" x="480" y="-173.9" font-family="Arial" font-size="14.00" fill="#000000">foursquare </text>
<text text-anchor="start" x="550.798" y="-173.9" font-family="Arial" font-size="14.00" fill="#666666">[varchar(255)]</text>
<polygon fill="none" stroke="#000000" points="473,-132.5 473,-162.5 726,-162.5 726,-132.5 473,-132.5"/>
<text text-anchor="start" x="480" y="-143.9" font-family="Arial" font-size="14.00" fill="#000000">instagram </text>
<text text-anchor="start" x="545.3394" y="-143.9" font-family="Arial" font-size="14.00" fill="#666666">[varchar(255)]</text>
<polygon fill="none" stroke="#000000" points="473,-102.5 473,-132.5 726,-132.5 726,-102.5 473,-102.5"/>
<text text-anchor="start" x="480" y="-113.9" font-family="Arial" font-size="14.00" fill="#000000">linkedin </text>
<text text-anchor="start" x="531.3408" y="-113.9" font-family="Arial" font-size="14.00" fill="#666666">[varchar(255)]</text>
<polygon fill="none" stroke="#000000" points="473,-72.5 473,-102.5 726,-102.5 726,-72.5 473,-72.5"/>
<text text-anchor="start" x="480" y="-83.9" font-family="Arial" font-size="14.00" fill="#000000">skype </text>
<text text-anchor="start" x="520.4558" y="-83.9" font-family="Arial" font-size="14.00" fill="#666666">[varchar(255)]</text>
<polygon fill="none" stroke="#000000" points="473,-42.5 473,-72.5 726,-72.5 726,-42.5 473,-42.5"/>
<text text-anchor="start" x="480" y="-53.9" font-family="Arial" font-size="14.00" fill="#000000">twitter </text>
<text text-anchor="start" x="521.2188" y="-53.9" font-family="Arial" font-size="14.00" fill="#666666">[varchar(255)]</text>
</g>
<!-- message_queue&#45;&gt;leads -->
<g id="edge2" class="edge">
<title>message_queue:lead_id&#45;&gt;leads:id</title>
<path fill="none" stroke="#000000" d="M553.1192,-1927.2328C726.5634,-1917.8506 638.5422,-1663.5728 543,-1507 524.777,-1477.1366 491.223,-1500.8634 473,-1471 451.3541,-1435.5272 431.4444,-1377.5 473,-1377.5"/>
<polygon fill="#000000" stroke="#000000" points="552.9965,-1927.2359 542.8812,-1923.0016 547.9983,-1927.368 543,-1927.5 543,-1927.5 543,-1927.5 547.9983,-1927.368 543.1188,-1931.9984 552.9965,-1927.2359 552.9965,-1927.2359"/>
<text text-anchor="start" x="550.496" y="-1937.5" font-family="Arial" font-size="10.00" fill="#000000">FOREIGN KEY (lead_id) REFERENCES leads (id)</text>
</g>
</g>
</svg>
