<?xml version="1.0" encoding="UTF-8" standalone="no"?>
<!DOCTYPE svg PUBLIC "-//W3C//DTD SVG 1.1//EN"
 "http://www.w3.org/Graphics/SVG/1.1/DTD/svg11.dtd">
<!-- Generated by graphviz version 2.40.1 (20161225.0304)
 -->
<!-- Title: monitor_post_count Pages: 1 -->
<svg width="599pt" height="1042pt"
 viewBox="0.00 0.00 598.50 1042.00" xmlns="http://www.w3.org/2000/svg" xmlns:xlink="http://www.w3.org/1999/xlink">
<g id="graph0" class="graph" transform="scale(1 1) rotate(0) translate(4 1038)">
<title>monitor_post_count</title>
<polygon fill="#ffffff" stroke="transparent" points="-4,4 -4,-1038 594.5,-1038 594.5,4 -4,4"/>
<!-- monitor_post_count -->
<g id="node1" class="node">
<title>monitor_post_count</title>
<polygon fill="#efefef" stroke="transparent" points="276,-952.5 276,-987.5 545,-987.5 545,-952.5 276,-952.5"/>
<polygon fill="none" stroke="#000000" points="276,-952.5 276,-987.5 545,-987.5 545,-952.5 276,-952.5"/>
<text text-anchor="start" x="282.8495" y="-965.3" font-family="Arial Bold" font-size="18.00" fill="#000000">monitor_post_count</text>
<text text-anchor="start" x="440.8967" y="-965.3" font-family="Arial" font-size="14.00" fill="#000000"> </text>
<text text-anchor="start" x="444.7873" y="-965.3" font-family="Arial" font-size="14.00" fill="#666666">[BASE TABLE]</text>
<polygon fill="none" stroke="#000000" points="276,-922.5 276,-952.5 545,-952.5 545,-922.5 276,-922.5"/>
<text text-anchor="start" x="283" y="-933.9" font-family="Arial" font-size="14.00" fill="#000000">id </text>
<text text-anchor="start" x="297.7798" y="-933.9" font-family="Arial" font-size="14.00" fill="#666666">[int(10) unsigned]</text>
<polygon fill="none" stroke="#000000" points="276,-892.5 276,-922.5 545,-922.5 545,-892.5 276,-892.5"/>
<text text-anchor="start" x="283" y="-903.9" font-family="Arial" font-size="14.00" fill="#000000">monitor_id </text>
<text text-anchor="start" x="352.2286" y="-903.9" font-family="Arial" font-size="14.00" fill="#666666">[int(10) unsigned]</text>
<polygon fill="none" stroke="#000000" points="276,-862.5 276,-892.5 545,-892.5 545,-862.5 276,-862.5"/>
<text text-anchor="start" x="283" y="-873.9" font-family="Arial" font-size="14.00" fill="#000000">post_date </text>
<text text-anchor="start" x="348.3674" y="-873.9" font-family="Arial" font-size="14.00" fill="#666666">[date]</text>
<polygon fill="none" stroke="#000000" points="276,-832.5 276,-862.5 545,-862.5 545,-832.5 276,-832.5"/>
<text text-anchor="start" x="283" y="-843.9" font-family="Arial" font-size="14.00" fill="#000000">post_count </text>
<text text-anchor="start" x="355.3674" y="-843.9" font-family="Arial" font-size="14.00" fill="#666666">[int(11)]</text>
<polygon fill="none" stroke="#000000" stroke-width="3" points="274,-831.5 274,-989.5 546,-989.5 546,-831.5 274,-831.5"/>
</g>
<!-- monitoring -->
<g id="node2" class="node">
<title>monitoring</title>
<polygon fill="#efefef" stroke="transparent" points="290,-672.5 290,-707.5 531,-707.5 531,-672.5 290,-672.5"/>
<polygon fill="none" stroke="#000000" points="290,-672.5 290,-707.5 531,-707.5 531,-672.5 290,-672.5"/>
<text text-anchor="start" x="319.8701" y="-685.3" font-family="Arial Bold" font-size="18.00" fill="#000000">monitoring</text>
<text text-anchor="start" x="403.8761" y="-685.3" font-family="Arial" font-size="14.00" fill="#000000"> </text>
<text text-anchor="start" x="407.7667" y="-685.3" font-family="Arial" font-size="14.00" fill="#666666">[BASE TABLE]</text>
<polygon fill="none" stroke="#000000" points="290,-642.5 290,-672.5 531,-672.5 531,-642.5 290,-642.5"/>
<text text-anchor="start" x="297" y="-653.9" font-family="Arial" font-size="14.00" fill="#000000">id </text>
<text text-anchor="start" x="311.7798" y="-653.9" font-family="Arial" font-size="14.00" fill="#666666">[int(10) unsigned]</text>
<polygon fill="none" stroke="#000000" points="290,-612.5 290,-642.5 531,-642.5 531,-612.5 290,-612.5"/>
<text text-anchor="start" x="297" y="-623.9" font-family="Arial" font-size="14.00" fill="#000000">category_id </text>
<text text-anchor="start" x="373.244" y="-623.9" font-family="Arial" font-size="14.00" fill="#666666">[int(10) unsigned]</text>
<polygon fill="none" stroke="#000000" points="290,-582.5 290,-612.5 531,-612.5 531,-582.5 290,-582.5"/>
<text text-anchor="start" x="297" y="-593.9" font-family="Arial" font-size="14.00" fill="#000000">is_published </text>
<text text-anchor="start" x="378.6886" y="-593.9" font-family="Arial" font-size="14.00" fill="#666666">[tinyint(1)]</text>
<polygon fill="none" stroke="#000000" points="290,-552.5 290,-582.5 531,-582.5 531,-552.5 290,-552.5"/>
<text text-anchor="start" x="297" y="-563.9" font-family="Arial" font-size="14.00" fill="#000000">date_added </text>
<text text-anchor="start" x="374.8246" y="-563.9" font-family="Arial" font-size="14.00" fill="#666666">[datetime]</text>
<polygon fill="none" stroke="#000000" points="290,-522.5 290,-552.5 531,-552.5 531,-522.5 290,-522.5"/>
<text text-anchor="start" x="297" y="-533.9" font-family="Arial" font-size="14.00" fill="#000000">created_by </text>
<text text-anchor="start" x="370.1374" y="-533.9" font-family="Arial" font-size="14.00" fill="#666666">[int(11)]</text>
<polygon fill="none" stroke="#000000" points="290,-492.5 290,-522.5 531,-522.5 531,-492.5 290,-492.5"/>
<text text-anchor="start" x="297" y="-503.9" font-family="Arial" font-size="14.00" fill="#000000">created_by_user </text>
<text text-anchor="start" x="405.1458" y="-503.9" font-family="Arial" font-size="14.00" fill="#666666">[varchar(191)]</text>
<polygon fill="none" stroke="#000000" points="290,-462.5 290,-492.5 531,-492.5 531,-462.5 290,-462.5"/>
<text text-anchor="start" x="297" y="-473.9" font-family="Arial" font-size="14.00" fill="#000000">date_modified </text>
<text text-anchor="start" x="388.8064" y="-473.9" font-family="Arial" font-size="14.00" fill="#666666">[datetime]</text>
<polygon fill="none" stroke="#000000" points="290,-432.5 290,-462.5 531,-462.5 531,-432.5 290,-432.5"/>
<text text-anchor="start" x="297" y="-443.9" font-family="Arial" font-size="14.00" fill="#000000">modified_by </text>
<text text-anchor="start" x="376.3506" y="-443.9" font-family="Arial" font-size="14.00" fill="#666666">[int(11)]</text>
<polygon fill="none" stroke="#000000" points="290,-402.5 290,-432.5 531,-432.5 531,-402.5 290,-402.5"/>
<text text-anchor="start" x="297" y="-413.9" font-family="Arial" font-size="14.00" fill="#000000">modified_by_user </text>
<text text-anchor="start" x="411.359" y="-413.9" font-family="Arial" font-size="14.00" fill="#666666">[varchar(191)]</text>
<polygon fill="none" stroke="#000000" points="290,-372.5 290,-402.5 531,-402.5 531,-372.5 290,-372.5"/>
<text text-anchor="start" x="297" y="-383.9" font-family="Arial" font-size="14.00" fill="#000000">checked_out </text>
<text text-anchor="start" x="380.2594" y="-383.9" font-family="Arial" font-size="14.00" fill="#666666">[datetime]</text>
<polygon fill="none" stroke="#000000" points="290,-342.5 290,-372.5 531,-372.5 531,-342.5 290,-342.5"/>
<text text-anchor="start" x="297" y="-353.9" font-family="Arial" font-size="14.00" fill="#000000">checked_out_by </text>
<text text-anchor="start" x="402.8246" y="-353.9" font-family="Arial" font-size="14.00" fill="#666666">[int(11)]</text>
<polygon fill="none" stroke="#000000" points="290,-312.5 290,-342.5 531,-342.5 531,-312.5 290,-312.5"/>
<text text-anchor="start" x="296.5239" y="-323.9" font-family="Arial" font-size="14.00" fill="#000000">checked_out_by_user </text>
<text text-anchor="start" x="437.3569" y="-323.9" font-family="Arial" font-size="14.00" fill="#666666">[varchar(191)]</text>
<polygon fill="none" stroke="#000000" points="290,-282.5 290,-312.5 531,-312.5 531,-282.5 290,-282.5"/>
<text text-anchor="start" x="297" y="-293.9" font-family="Arial" font-size="14.00" fill="#000000">title </text>
<text text-anchor="start" x="322.6676" y="-293.9" font-family="Arial" font-size="14.00" fill="#666666">[varchar(191)]</text>
<polygon fill="none" stroke="#000000" points="290,-252.5 290,-282.5 531,-282.5 531,-252.5 290,-252.5"/>
<text text-anchor="start" x="297" y="-263.9" font-family="Arial" font-size="14.00" fill="#000000">description </text>
<text text-anchor="start" x="368.568" y="-263.9" font-family="Arial" font-size="14.00" fill="#666666">[longtext]</text>
<polygon fill="none" stroke="#000000" points="290,-222.5 290,-252.5 531,-252.5 531,-222.5 290,-222.5"/>
<text text-anchor="start" x="297" y="-233.9" font-family="Arial" font-size="14.00" fill="#000000">lists </text>
<text text-anchor="start" x="324.9944" y="-233.9" font-family="Arial" font-size="14.00" fill="#666666">[longtext]</text>
<polygon fill="none" stroke="#000000" points="290,-192.5 290,-222.5 531,-222.5 531,-192.5 290,-192.5"/>
<text text-anchor="start" x="297" y="-203.9" font-family="Arial" font-size="14.00" fill="#000000">network_type </text>
<text text-anchor="start" x="384.1346" y="-203.9" font-family="Arial" font-size="14.00" fill="#666666">[varchar(191)]</text>
<polygon fill="none" stroke="#000000" points="290,-162.5 290,-192.5 531,-192.5 531,-162.5 290,-162.5"/>
<text text-anchor="start" x="297" y="-173.9" font-family="Arial" font-size="14.00" fill="#000000">revision </text>
<text text-anchor="start" x="349.1122" y="-173.9" font-family="Arial" font-size="14.00" fill="#666666">[int(11)]</text>
<polygon fill="none" stroke="#000000" points="290,-132.5 290,-162.5 531,-162.5 531,-132.5 290,-132.5"/>
<text text-anchor="start" x="297" y="-143.9" font-family="Arial" font-size="14.00" fill="#000000">stats </text>
<text text-anchor="start" x="330.4544" y="-143.9" font-family="Arial" font-size="14.00" fill="#666666">[longtext]</text>
<polygon fill="none" stroke="#000000" points="290,-102.5 290,-132.5 531,-132.5 531,-102.5 290,-102.5"/>
<text text-anchor="start" x="297" y="-113.9" font-family="Arial" font-size="14.00" fill="#000000">properties </text>
<text text-anchor="start" x="363.122" y="-113.9" font-family="Arial" font-size="14.00" fill="#666666">[longtext]</text>
<polygon fill="none" stroke="#000000" points="290,-72.5 290,-102.5 531,-102.5 531,-72.5 290,-72.5"/>
<text text-anchor="start" x="297" y="-83.9" font-family="Arial" font-size="14.00" fill="#000000">publish_up </text>
<text text-anchor="start" x="368.582" y="-83.9" font-family="Arial" font-size="14.00" fill="#666666">[datetime]</text>
<polygon fill="none" stroke="#000000" points="290,-42.5 290,-72.5 531,-72.5 531,-42.5 290,-42.5"/>
<text text-anchor="start" x="297" y="-53.9" font-family="Arial" font-size="14.00" fill="#000000">publish_down </text>
<text text-anchor="start" x="386.4712" y="-53.9" font-family="Arial" font-size="14.00" fill="#666666">[datetime]</text>
</g>
<!-- monitor_post_count&#45;&gt;monitoring -->
<g id="edge1" class="edge">
<title>monitor_post_count:monitor_id&#45;&gt;monitoring:id</title>
<path fill="none" stroke="#000000" d="M265.9332,-906.7828C165.6848,-892.1191 182.1925,-657.5 290,-657.5"/>
<polygon fill="#000000" stroke="#000000" points="266.0253,-906.7893 275.6802,-911.9886 271.0126,-907.1447 276,-907.5 276,-907.5 276,-907.5 271.0126,-907.1447 276.3198,-903.0114 266.0253,-906.7893 266.0253,-906.7893"/>
<text text-anchor="start" x="6.8905" y="-917.5" font-family="Arial" font-size="10.00" fill="#000000">FOREIGN KEY (monitor_id) REFERENCES monitoring (id)</text>
</g>
</g>
</svg>
