<?xml version="1.0" encoding="UTF-8" standalone="no"?>
<!DOCTYPE svg PUBLIC "-//W3C//DTD SVG 1.1//EN"
 "http://www.w3.org/Graphics/SVG/1.1/DTD/svg11.dtd">
<!-- Generated by graphviz version 2.40.1 (20161225.0304)
 -->
<!-- Title: monitoring_leads Pages: 1 -->
<svg width="771pt" height="1732pt"
 viewBox="0.00 0.00 771.00 1732.00" xmlns="http://www.w3.org/2000/svg" xmlns:xlink="http://www.w3.org/1999/xlink">
<g id="graph0" class="graph" transform="scale(1 1) rotate(0) translate(4 1728)">
<title>monitoring_leads</title>
<polygon fill="#ffffff" stroke="transparent" points="-4,4 -4,-1728 767,-1728 767,4 -4,4"/>
<!-- monitoring_leads -->
<g id="node1" class="node">
<title>monitoring_leads</title>
<polygon fill="#efefef" stroke="transparent" points="276,-1642.5 276,-1677.5 524,-1677.5 524,-1642.5 276,-1642.5"/>
<polygon fill="none" stroke="#000000" points="276,-1642.5 276,-1677.5 524,-1677.5 524,-1642.5 276,-1642.5"/>
<text text-anchor="start" x="282.8606" y="-1655.3" font-family="Arial Bold" font-size="18.00" fill="#000000">monitoring_leads</text>
<text text-anchor="start" x="419.8856" y="-1655.3" font-family="Arial" font-size="14.00" fill="#000000"> </text>
<text text-anchor="start" x="423.7762" y="-1655.3" font-family="Arial" font-size="14.00" fill="#666666">[BASE TABLE]</text>
<polygon fill="none" stroke="#000000" points="276,-1612.5 276,-1642.5 524,-1642.5 524,-1612.5 276,-1612.5"/>
<text text-anchor="start" x="283" y="-1623.9" font-family="Arial" font-size="14.00" fill="#000000">monitor_id </text>
<text text-anchor="start" x="352.2286" y="-1623.9" font-family="Arial" font-size="14.00" fill="#666666">[int(10) unsigned]</text>
<polygon fill="none" stroke="#000000" points="276,-1582.5 276,-1612.5 524,-1612.5 524,-1582.5 276,-1582.5"/>
<text text-anchor="start" x="283" y="-1593.9" font-family="Arial" font-size="14.00" fill="#000000">lead_id </text>
<text text-anchor="start" x="332.0168" y="-1593.9" font-family="Arial" font-size="14.00" fill="#666666">[bigint(20) unsigned]</text>
<polygon fill="none" stroke="#000000" points="276,-1552.5 276,-1582.5 524,-1582.5 524,-1552.5 276,-1552.5"/>
<text text-anchor="start" x="283" y="-1563.9" font-family="Arial" font-size="14.00" fill="#000000">date_added </text>
<text text-anchor="start" x="360.8246" y="-1563.9" font-family="Arial" font-size="14.00" fill="#666666">[datetime]</text>
<polygon fill="none" stroke="#000000" stroke-width="3" points="274.5,-1551.5 274.5,-1679.5 525.5,-1679.5 525.5,-1551.5 274.5,-1551.5"/>
</g>
<!-- monitoring -->
<g id="node2" class="node">
<title>monitoring</title>
<polygon fill="#efefef" stroke="transparent" points="104,-1032.5 104,-1067.5 345,-1067.5 345,-1032.5 104,-1032.5"/>
<polygon fill="none" stroke="#000000" points="104,-1032.5 104,-1067.5 345,-1067.5 345,-1032.5 104,-1032.5"/>
<text text-anchor="start" x="133.8701" y="-1045.3" font-family="Arial Bold" font-size="18.00" fill="#000000">monitoring</text>
<text text-anchor="start" x="217.8761" y="-1045.3" font-family="Arial" font-size="14.00" fill="#000000"> </text>
<text text-anchor="start" x="221.7667" y="-1045.3" font-family="Arial" font-size="14.00" fill="#666666">[BASE TABLE]</text>
<polygon fill="none" stroke="#000000" points="104,-1002.5 104,-1032.5 345,-1032.5 345,-1002.5 104,-1002.5"/>
<text text-anchor="start" x="111" y="-1013.9" font-family="Arial" font-size="14.00" fill="#000000">id </text>
<text text-anchor="start" x="125.7798" y="-1013.9" font-family="Arial" font-size="14.00" fill="#666666">[int(10) unsigned]</text>
<polygon fill="none" stroke="#000000" points="104,-972.5 104,-1002.5 345,-1002.5 345,-972.5 104,-972.5"/>
<text text-anchor="start" x="111" y="-983.9" font-family="Arial" font-size="14.00" fill="#000000">category_id </text>
<text text-anchor="start" x="187.244" y="-983.9" font-family="Arial" font-size="14.00" fill="#666666">[int(10) unsigned]</text>
<polygon fill="none" stroke="#000000" points="104,-942.5 104,-972.5 345,-972.5 345,-942.5 104,-942.5"/>
<text text-anchor="start" x="111" y="-953.9" font-family="Arial" font-size="14.00" fill="#000000">is_published </text>
<text text-anchor="start" x="192.6886" y="-953.9" font-family="Arial" font-size="14.00" fill="#666666">[tinyint(1)]</text>
<polygon fill="none" stroke="#000000" points="104,-912.5 104,-942.5 345,-942.5 345,-912.5 104,-912.5"/>
<text text-anchor="start" x="111" y="-923.9" font-family="Arial" font-size="14.00" fill="#000000">date_added </text>
<text text-anchor="start" x="188.8246" y="-923.9" font-family="Arial" font-size="14.00" fill="#666666">[datetime]</text>
<polygon fill="none" stroke="#000000" points="104,-882.5 104,-912.5 345,-912.5 345,-882.5 104,-882.5"/>
<text text-anchor="start" x="111" y="-893.9" font-family="Arial" font-size="14.00" fill="#000000">created_by </text>
<text text-anchor="start" x="184.1374" y="-893.9" font-family="Arial" font-size="14.00" fill="#666666">[int(11)]</text>
<polygon fill="none" stroke="#000000" points="104,-852.5 104,-882.5 345,-882.5 345,-852.5 104,-852.5"/>
<text text-anchor="start" x="111" y="-863.9" font-family="Arial" font-size="14.00" fill="#000000">created_by_user </text>
<text text-anchor="start" x="219.1458" y="-863.9" font-family="Arial" font-size="14.00" fill="#666666">[varchar(191)]</text>
<polygon fill="none" stroke="#000000" points="104,-822.5 104,-852.5 345,-852.5 345,-822.5 104,-822.5"/>
<text text-anchor="start" x="111" y="-833.9" font-family="Arial" font-size="14.00" fill="#000000">date_modified </text>
<text text-anchor="start" x="202.8064" y="-833.9" font-family="Arial" font-size="14.00" fill="#666666">[datetime]</text>
<polygon fill="none" stroke="#000000" points="104,-792.5 104,-822.5 345,-822.5 345,-792.5 104,-792.5"/>
<text text-anchor="start" x="111" y="-803.9" font-family="Arial" font-size="14.00" fill="#000000">modified_by </text>
<text text-anchor="start" x="190.3506" y="-803.9" font-family="Arial" font-size="14.00" fill="#666666">[int(11)]</text>
<polygon fill="none" stroke="#000000" points="104,-762.5 104,-792.5 345,-792.5 345,-762.5 104,-762.5"/>
<text text-anchor="start" x="111" y="-773.9" font-family="Arial" font-size="14.00" fill="#000000">modified_by_user </text>
<text text-anchor="start" x="225.359" y="-773.9" font-family="Arial" font-size="14.00" fill="#666666">[varchar(191)]</text>
<polygon fill="none" stroke="#000000" points="104,-732.5 104,-762.5 345,-762.5 345,-732.5 104,-732.5"/>
<text text-anchor="start" x="111" y="-743.9" font-family="Arial" font-size="14.00" fill="#000000">checked_out </text>
<text text-anchor="start" x="194.2594" y="-743.9" font-family="Arial" font-size="14.00" fill="#666666">[datetime]</text>
<polygon fill="none" stroke="#000000" points="104,-702.5 104,-732.5 345,-732.5 345,-702.5 104,-702.5"/>
<text text-anchor="start" x="111" y="-713.9" font-family="Arial" font-size="14.00" fill="#000000">checked_out_by </text>
<text text-anchor="start" x="216.8246" y="-713.9" font-family="Arial" font-size="14.00" fill="#666666">[int(11)]</text>
<polygon fill="none" stroke="#000000" points="104,-672.5 104,-702.5 345,-702.5 345,-672.5 104,-672.5"/>
<text text-anchor="start" x="110.5239" y="-683.9" font-family="Arial" font-size="14.00" fill="#000000">checked_out_by_user </text>
<text text-anchor="start" x="251.3569" y="-683.9" font-family="Arial" font-size="14.00" fill="#666666">[varchar(191)]</text>
<polygon fill="none" stroke="#000000" points="104,-642.5 104,-672.5 345,-672.5 345,-642.5 104,-642.5"/>
<text text-anchor="start" x="111" y="-653.9" font-family="Arial" font-size="14.00" fill="#000000">title </text>
<text text-anchor="start" x="136.6676" y="-653.9" font-family="Arial" font-size="14.00" fill="#666666">[varchar(191)]</text>
<polygon fill="none" stroke="#000000" points="104,-612.5 104,-642.5 345,-642.5 345,-612.5 104,-612.5"/>
<text text-anchor="start" x="111" y="-623.9" font-family="Arial" font-size="14.00" fill="#000000">description </text>
<text text-anchor="start" x="182.568" y="-623.9" font-family="Arial" font-size="14.00" fill="#666666">[longtext]</text>
<polygon fill="none" stroke="#000000" points="104,-582.5 104,-612.5 345,-612.5 345,-582.5 104,-582.5"/>
<text text-anchor="start" x="111" y="-593.9" font-family="Arial" font-size="14.00" fill="#000000">lists </text>
<text text-anchor="start" x="138.9944" y="-593.9" font-family="Arial" font-size="14.00" fill="#666666">[longtext]</text>
<polygon fill="none" stroke="#000000" points="104,-552.5 104,-582.5 345,-582.5 345,-552.5 104,-552.5"/>
<text text-anchor="start" x="111" y="-563.9" font-family="Arial" font-size="14.00" fill="#000000">network_type </text>
<text text-anchor="start" x="198.1346" y="-563.9" font-family="Arial" font-size="14.00" fill="#666666">[varchar(191)]</text>
<polygon fill="none" stroke="#000000" points="104,-522.5 104,-552.5 345,-552.5 345,-522.5 104,-522.5"/>
<text text-anchor="start" x="111" y="-533.9" font-family="Arial" font-size="14.00" fill="#000000">revision </text>
<text text-anchor="start" x="163.1122" y="-533.9" font-family="Arial" font-size="14.00" fill="#666666">[int(11)]</text>
<polygon fill="none" stroke="#000000" points="104,-492.5 104,-522.5 345,-522.5 345,-492.5 104,-492.5"/>
<text text-anchor="start" x="111" y="-503.9" font-family="Arial" font-size="14.00" fill="#000000">stats </text>
<text text-anchor="start" x="144.4544" y="-503.9" font-family="Arial" font-size="14.00" fill="#666666">[longtext]</text>
<polygon fill="none" stroke="#000000" points="104,-462.5 104,-492.5 345,-492.5 345,-462.5 104,-462.5"/>
<text text-anchor="start" x="111" y="-473.9" font-family="Arial" font-size="14.00" fill="#000000">properties </text>
<text text-anchor="start" x="177.122" y="-473.9" font-family="Arial" font-size="14.00" fill="#666666">[longtext]</text>
<polygon fill="none" stroke="#000000" points="104,-432.5 104,-462.5 345,-462.5 345,-432.5 104,-432.5"/>
<text text-anchor="start" x="111" y="-443.9" font-family="Arial" font-size="14.00" fill="#000000">publish_up </text>
<text text-anchor="start" x="182.582" y="-443.9" font-family="Arial" font-size="14.00" fill="#666666">[datetime]</text>
<polygon fill="none" stroke="#000000" points="104,-402.5 104,-432.5 345,-432.5 345,-402.5 104,-402.5"/>
<text text-anchor="start" x="111" y="-413.9" font-family="Arial" font-size="14.00" fill="#000000">publish_down </text>
<text text-anchor="start" x="200.4712" y="-413.9" font-family="Arial" font-size="14.00" fill="#666666">[datetime]</text>
</g>
<!-- monitoring_leads&#45;&gt;monitoring -->
<g id="edge1" class="edge">
<title>monitoring_leads:monitor_id&#45;&gt;monitoring:id</title>
<path fill="none" stroke="#000000" d="M265.8625,-1626.1567C157.9168,-1594.5967 477.6898,-1017.5 345,-1017.5"/>
<polygon fill="#000000" stroke="#000000" points="266.0867,-1626.1863 275.4088,-1631.961 271.0433,-1626.8432 276,-1627.5 276,-1627.5 276,-1627.5 271.0433,-1626.8432 276.5912,-1623.039 266.0867,-1626.1863 266.0867,-1626.1863"/>
<text text-anchor="start" x="6.8905" y="-1637.5" font-family="Arial" font-size="10.00" fill="#000000">FOREIGN KEY (monitor_id) REFERENCES monitoring (id)</text>
</g>
<!-- leads -->
<g id="node3" class="node">
<title>leads</title>
<polygon fill="#efefef" stroke="transparent" points="449,-1392.5 449,-1427.5 702,-1427.5 702,-1392.5 449,-1392.5"/>
<polygon fill="none" stroke="#000000" points="449,-1392.5 449,-1427.5 702,-1427.5 702,-1392.5 449,-1392.5"/>
<text text-anchor="start" x="505.3667" y="-1405.3" font-family="Arial Bold" font-size="18.00" fill="#000000">leads</text>
<text text-anchor="start" x="548.3795" y="-1405.3" font-family="Arial" font-size="14.00" fill="#000000"> </text>
<text text-anchor="start" x="552.2701" y="-1405.3" font-family="Arial" font-size="14.00" fill="#666666">[BASE TABLE]</text>
<polygon fill="none" stroke="#000000" points="449,-1362.5 449,-1392.5 702,-1392.5 702,-1362.5 449,-1362.5"/>
<text text-anchor="start" x="456" y="-1373.9" font-family="Arial" font-size="14.00" fill="#000000">id </text>
<text text-anchor="start" x="470.7798" y="-1373.9" font-family="Arial" font-size="14.00" fill="#666666">[bigint(20) unsigned]</text>
<polygon fill="none" stroke="#000000" points="449,-1332.5 449,-1362.5 702,-1362.5 702,-1332.5 449,-1332.5"/>
<text text-anchor="start" x="456" y="-1343.9" font-family="Arial" font-size="14.00" fill="#000000">owner_id </text>
<text text-anchor="start" x="516.6774" y="-1343.9" font-family="Arial" font-size="14.00" fill="#666666">[int(10) unsigned]</text>
<polygon fill="none" stroke="#000000" points="449,-1302.5 449,-1332.5 702,-1332.5 702,-1302.5 449,-1302.5"/>
<text text-anchor="start" x="456" y="-1313.9" font-family="Arial" font-size="14.00" fill="#000000">stage_id </text>
<text text-anchor="start" x="512.8008" y="-1313.9" font-family="Arial" font-size="14.00" fill="#666666">[int(10) unsigned]</text>
<polygon fill="none" stroke="#000000" points="449,-1272.5 449,-1302.5 702,-1302.5 702,-1272.5 449,-1272.5"/>
<text text-anchor="start" x="456" y="-1283.9" font-family="Arial" font-size="14.00" fill="#000000">is_published </text>
<text text-anchor="start" x="537.6886" y="-1283.9" font-family="Arial" font-size="14.00" fill="#666666">[tinyint(1)]</text>
<polygon fill="none" stroke="#000000" points="449,-1242.5 449,-1272.5 702,-1272.5 702,-1242.5 449,-1242.5"/>
<text text-anchor="start" x="456" y="-1253.9" font-family="Arial" font-size="14.00" fill="#000000">date_added </text>
<text text-anchor="start" x="533.8246" y="-1253.9" font-family="Arial" font-size="14.00" fill="#666666">[datetime]</text>
<polygon fill="none" stroke="#000000" points="449,-1212.5 449,-1242.5 702,-1242.5 702,-1212.5 449,-1212.5"/>
<text text-anchor="start" x="456" y="-1223.9" font-family="Arial" font-size="14.00" fill="#000000">created_by </text>
<text text-anchor="start" x="529.1374" y="-1223.9" font-family="Arial" font-size="14.00" fill="#666666">[int(11)]</text>
<polygon fill="none" stroke="#000000" points="449,-1182.5 449,-1212.5 702,-1212.5 702,-1182.5 449,-1182.5"/>
<text text-anchor="start" x="456" y="-1193.9" font-family="Arial" font-size="14.00" fill="#000000">created_by_user </text>
<text text-anchor="start" x="564.1458" y="-1193.9" font-family="Arial" font-size="14.00" fill="#666666">[varchar(191)]</text>
<polygon fill="none" stroke="#000000" points="449,-1152.5 449,-1182.5 702,-1182.5 702,-1152.5 449,-1152.5"/>
<text text-anchor="start" x="456" y="-1163.9" font-family="Arial" font-size="14.00" fill="#000000">date_modified </text>
<text text-anchor="start" x="547.8064" y="-1163.9" font-family="Arial" font-size="14.00" fill="#666666">[datetime]</text>
<polygon fill="none" stroke="#000000" points="449,-1122.5 449,-1152.5 702,-1152.5 702,-1122.5 449,-1122.5"/>
<text text-anchor="start" x="456" y="-1133.9" font-family="Arial" font-size="14.00" fill="#000000">modified_by </text>
<text text-anchor="start" x="535.3506" y="-1133.9" font-family="Arial" font-size="14.00" fill="#666666">[int(11)]</text>
<polygon fill="none" stroke="#000000" points="449,-1092.5 449,-1122.5 702,-1122.5 702,-1092.5 449,-1092.5"/>
<text text-anchor="start" x="456" y="-1103.9" font-family="Arial" font-size="14.00" fill="#000000">modified_by_user </text>
<text text-anchor="start" x="570.359" y="-1103.9" font-family="Arial" font-size="14.00" fill="#666666">[varchar(191)]</text>
<polygon fill="none" stroke="#000000" points="449,-1062.5 449,-1092.5 702,-1092.5 702,-1062.5 449,-1062.5"/>
<text text-anchor="start" x="456" y="-1073.9" font-family="Arial" font-size="14.00" fill="#000000">checked_out </text>
<text text-anchor="start" x="539.2594" y="-1073.9" font-family="Arial" font-size="14.00" fill="#666666">[datetime]</text>
<polygon fill="none" stroke="#000000" points="449,-1032.5 449,-1062.5 702,-1062.5 702,-1032.5 449,-1032.5"/>
<text text-anchor="start" x="456" y="-1043.9" font-family="Arial" font-size="14.00" fill="#000000">checked_out_by </text>
<text text-anchor="start" x="561.8246" y="-1043.9" font-family="Arial" font-size="14.00" fill="#666666">[int(11)]</text>
<polygon fill="none" stroke="#000000" points="449,-1002.5 449,-1032.5 702,-1032.5 702,-1002.5 449,-1002.5"/>
<text text-anchor="start" x="456" y="-1013.9" font-family="Arial" font-size="14.00" fill="#000000">checked_out_by_user </text>
<text text-anchor="start" x="596.833" y="-1013.9" font-family="Arial" font-size="14.00" fill="#666666">[varchar(191)]</text>
<polygon fill="none" stroke="#000000" points="449,-972.5 449,-1002.5 702,-1002.5 702,-972.5 449,-972.5"/>
<text text-anchor="start" x="456" y="-983.9" font-family="Arial" font-size="14.00" fill="#000000">points </text>
<text text-anchor="start" x="497.2356" y="-983.9" font-family="Arial" font-size="14.00" fill="#666666">[int(11)]</text>
<polygon fill="none" stroke="#000000" points="449,-942.5 449,-972.5 702,-972.5 702,-942.5 449,-942.5"/>
<text text-anchor="start" x="456" y="-953.9" font-family="Arial" font-size="14.00" fill="#000000">last_active </text>
<text text-anchor="start" x="526.0154" y="-953.9" font-family="Arial" font-size="14.00" fill="#666666">[datetime]</text>
<polygon fill="none" stroke="#000000" points="449,-912.5 449,-942.5 702,-942.5 702,-912.5 449,-912.5"/>
<text text-anchor="start" x="456" y="-923.9" font-family="Arial" font-size="14.00" fill="#000000">internal </text>
<text text-anchor="start" x="505.7854" y="-923.9" font-family="Arial" font-size="14.00" fill="#666666">[longtext]</text>
<polygon fill="none" stroke="#000000" points="449,-882.5 449,-912.5 702,-912.5 702,-882.5 449,-882.5"/>
<text text-anchor="start" x="456" y="-893.9" font-family="Arial" font-size="14.00" fill="#000000">social_cache </text>
<text text-anchor="start" x="540.7994" y="-893.9" font-family="Arial" font-size="14.00" fill="#666666">[longtext]</text>
<polygon fill="none" stroke="#000000" points="449,-852.5 449,-882.5 702,-882.5 702,-852.5 449,-852.5"/>
<text text-anchor="start" x="456" y="-863.9" font-family="Arial" font-size="14.00" fill="#000000">date_identified </text>
<text text-anchor="start" x="550.9256" y="-863.9" font-family="Arial" font-size="14.00" fill="#666666">[datetime]</text>
<polygon fill="none" stroke="#000000" points="449,-822.5 449,-852.5 702,-852.5 702,-822.5 449,-822.5"/>
<text text-anchor="start" x="455.7062" y="-833.9" font-family="Arial" font-size="14.00" fill="#000000">preferred_profile_image </text>
<text text-anchor="start" x="608.1746" y="-833.9" font-family="Arial" font-size="14.00" fill="#666666">[varchar(191)]</text>
<polygon fill="none" stroke="#000000" points="449,-792.5 449,-822.5 702,-822.5 702,-792.5 449,-792.5"/>
<text text-anchor="start" x="456" y="-803.9" font-family="Arial" font-size="14.00" fill="#000000">title </text>
<text text-anchor="start" x="481.6676" y="-803.9" font-family="Arial" font-size="14.00" fill="#666666">[varchar(191)]</text>
<polygon fill="none" stroke="#000000" points="449,-762.5 449,-792.5 702,-792.5 702,-762.5 449,-762.5"/>
<text text-anchor="start" x="456" y="-773.9" font-family="Arial" font-size="14.00" fill="#000000">firstname </text>
<text text-anchor="start" x="517.4474" y="-773.9" font-family="Arial" font-size="14.00" fill="#666666">[varchar(191)]</text>
<polygon fill="none" stroke="#000000" points="449,-732.5 449,-762.5 702,-762.5 702,-732.5 449,-732.5"/>
<text text-anchor="start" x="456" y="-743.9" font-family="Arial" font-size="14.00" fill="#000000">lastname </text>
<text text-anchor="start" x="516.6788" y="-743.9" font-family="Arial" font-size="14.00" fill="#666666">[varchar(191)]</text>
<polygon fill="none" stroke="#000000" points="449,-702.5 449,-732.5 702,-732.5 702,-702.5 449,-702.5"/>
<text text-anchor="start" x="456" y="-713.9" font-family="Arial" font-size="14.00" fill="#000000">company </text>
<text text-anchor="start" x="516.6816" y="-713.9" font-family="Arial" font-size="14.00" fill="#666666">[varchar(191)]</text>
<polygon fill="none" stroke="#000000" points="449,-672.5 449,-702.5 702,-702.5 702,-672.5 449,-672.5"/>
<text text-anchor="start" x="456" y="-683.9" font-family="Arial" font-size="14.00" fill="#000000">position </text>
<text text-anchor="start" x="508.1248" y="-683.9" font-family="Arial" font-size="14.00" fill="#666666">[varchar(191)]</text>
<polygon fill="none" stroke="#000000" points="449,-642.5 449,-672.5 702,-672.5 702,-642.5 449,-642.5"/>
<text text-anchor="start" x="456" y="-653.9" font-family="Arial" font-size="14.00" fill="#000000">email </text>
<text text-anchor="start" x="493.3296" y="-653.9" font-family="Arial" font-size="14.00" fill="#666666">[varchar(191)]</text>
<polygon fill="none" stroke="#000000" points="449,-612.5 449,-642.5 702,-642.5 702,-612.5 449,-612.5"/>
<text text-anchor="start" x="456" y="-623.9" font-family="Arial" font-size="14.00" fill="#000000">phone </text>
<text text-anchor="start" x="498.8036" y="-623.9" font-family="Arial" font-size="14.00" fill="#666666">[varchar(191)]</text>
<polygon fill="none" stroke="#000000" points="449,-582.5 449,-612.5 702,-612.5 702,-582.5 449,-582.5"/>
<text text-anchor="start" x="456" y="-593.9" font-family="Arial" font-size="14.00" fill="#000000">mobile </text>
<text text-anchor="start" x="501.1122" y="-593.9" font-family="Arial" font-size="14.00" fill="#666666">[varchar(191)]</text>
<polygon fill="none" stroke="#000000" points="449,-552.5 449,-582.5 702,-582.5 702,-552.5 449,-552.5"/>
<text text-anchor="start" x="456" y="-563.9" font-family="Arial" font-size="14.00" fill="#000000">address1 </text>
<text text-anchor="start" x="517.4642" y="-563.9" font-family="Arial" font-size="14.00" fill="#666666">[varchar(191)]</text>
<polygon fill="none" stroke="#000000" points="449,-522.5 449,-552.5 702,-552.5 702,-522.5 449,-522.5"/>
<text text-anchor="start" x="456" y="-533.9" font-family="Arial" font-size="14.00" fill="#000000">address2 </text>
<text text-anchor="start" x="517.4642" y="-533.9" font-family="Arial" font-size="14.00" fill="#666666">[varchar(191)]</text>
<polygon fill="none" stroke="#000000" points="449,-492.5 449,-522.5 702,-522.5 702,-492.5 449,-492.5"/>
<text text-anchor="start" x="456" y="-503.9" font-family="Arial" font-size="14.00" fill="#000000">city </text>
<text text-anchor="start" x="480.8878" y="-503.9" font-family="Arial" font-size="14.00" fill="#666666">[varchar(191)]</text>
<polygon fill="none" stroke="#000000" points="449,-462.5 449,-492.5 702,-492.5 702,-462.5 449,-462.5"/>
<text text-anchor="start" x="456" y="-473.9" font-family="Arial" font-size="14.00" fill="#000000">state </text>
<text text-anchor="start" x="490.237" y="-473.9" font-family="Arial" font-size="14.00" fill="#666666">[varchar(191)]</text>
<polygon fill="none" stroke="#000000" points="449,-432.5 449,-462.5 702,-462.5 702,-432.5 449,-432.5"/>
<text text-anchor="start" x="456" y="-443.9" font-family="Arial" font-size="14.00" fill="#000000">zipcode </text>
<text text-anchor="start" x="508.1276" y="-443.9" font-family="Arial" font-size="14.00" fill="#666666">[varchar(191)]</text>
<polygon fill="none" stroke="#000000" points="449,-402.5 449,-432.5 702,-432.5 702,-402.5 449,-402.5"/>
<text text-anchor="start" x="456" y="-413.9" font-family="Arial" font-size="14.00" fill="#000000">timezone </text>
<text text-anchor="start" x="516.6788" y="-413.9" font-family="Arial" font-size="14.00" fill="#666666">[varchar(191)]</text>
<polygon fill="none" stroke="#000000" points="449,-372.5 449,-402.5 702,-402.5 702,-372.5 449,-372.5"/>
<text text-anchor="start" x="456" y="-383.9" font-family="Arial" font-size="14.00" fill="#000000">country </text>
<text text-anchor="start" x="505.7896" y="-383.9" font-family="Arial" font-size="14.00" fill="#666666">[varchar(191)]</text>
<polygon fill="none" stroke="#000000" points="449,-342.5 449,-372.5 702,-372.5 702,-342.5 449,-342.5"/>
<text text-anchor="start" x="456" y="-353.9" font-family="Arial" font-size="14.00" fill="#000000">fax </text>
<text text-anchor="start" x="478.5638" y="-353.9" font-family="Arial" font-size="14.00" fill="#666666">[varchar(255)]</text>
<polygon fill="none" stroke="#000000" points="449,-312.5 449,-342.5 702,-342.5 702,-312.5 449,-312.5"/>
<text text-anchor="start" x="456" y="-323.9" font-family="Arial" font-size="14.00" fill="#000000">preferred_locale </text>
<text text-anchor="start" x="561.0196" y="-323.9" font-family="Arial" font-size="14.00" fill="#666666">[varchar(255)]</text>
<polygon fill="none" stroke="#000000" points="449,-282.5 449,-312.5 702,-312.5 702,-282.5 449,-282.5"/>
<text text-anchor="start" x="456" y="-293.9" font-family="Arial" font-size="14.00" fill="#000000">attribution_date </text>
<text text-anchor="start" x="556.3702" y="-293.9" font-family="Arial" font-size="14.00" fill="#666666">[datetime]</text>
<polygon fill="none" stroke="#000000" points="449,-252.5 449,-282.5 702,-282.5 702,-252.5 449,-252.5"/>
<text text-anchor="start" x="456" y="-263.9" font-family="Arial" font-size="14.00" fill="#000000">attribution </text>
<text text-anchor="start" x="521.3492" y="-263.9" font-family="Arial" font-size="14.00" fill="#666666">[double]</text>
<polygon fill="none" stroke="#000000" points="449,-222.5 449,-252.5 702,-252.5 702,-222.5 449,-222.5"/>
<text text-anchor="start" x="456" y="-233.9" font-family="Arial" font-size="14.00" fill="#000000">website </text>
<text text-anchor="start" x="507.3422" y="-233.9" font-family="Arial" font-size="14.00" fill="#666666">[longtext]</text>
<polygon fill="none" stroke="#000000" points="449,-192.5 449,-222.5 702,-222.5 702,-192.5 449,-192.5"/>
<text text-anchor="start" x="456" y="-203.9" font-family="Arial" font-size="14.00" fill="#000000">facebook </text>
<text text-anchor="start" x="516.6942" y="-203.9" font-family="Arial" font-size="14.00" fill="#666666">[varchar(255)]</text>
<polygon fill="none" stroke="#000000" points="449,-162.5 449,-192.5 702,-192.5 702,-162.5 449,-162.5"/>
<text text-anchor="start" x="456" y="-173.9" font-family="Arial" font-size="14.00" fill="#000000">foursquare </text>
<text text-anchor="start" x="526.798" y="-173.9" font-family="Arial" font-size="14.00" fill="#666666">[varchar(255)]</text>
<polygon fill="none" stroke="#000000" points="449,-132.5 449,-162.5 702,-162.5 702,-132.5 449,-132.5"/>
<text text-anchor="start" x="456" y="-143.9" font-family="Arial" font-size="14.00" fill="#000000">instagram </text>
<text text-anchor="start" x="521.3394" y="-143.9" font-family="Arial" font-size="14.00" fill="#666666">[varchar(255)]</text>
<polygon fill="none" stroke="#000000" points="449,-102.5 449,-132.5 702,-132.5 702,-102.5 449,-102.5"/>
<text text-anchor="start" x="456" y="-113.9" font-family="Arial" font-size="14.00" fill="#000000">linkedin </text>
<text text-anchor="start" x="507.3408" y="-113.9" font-family="Arial" font-size="14.00" fill="#666666">[varchar(255)]</text>
<polygon fill="none" stroke="#000000" points="449,-72.5 449,-102.5 702,-102.5 702,-72.5 449,-72.5"/>
<text text-anchor="start" x="456" y="-83.9" font-family="Arial" font-size="14.00" fill="#000000">skype </text>
<text text-anchor="start" x="496.4558" y="-83.9" font-family="Arial" font-size="14.00" fill="#666666">[varchar(255)]</text>
<polygon fill="none" stroke="#000000" points="449,-42.5 449,-72.5 702,-72.5 702,-42.5 449,-42.5"/>
<text text-anchor="start" x="456" y="-53.9" font-family="Arial" font-size="14.00" fill="#000000">twitter </text>
<text text-anchor="start" x="497.2188" y="-53.9" font-family="Arial" font-size="14.00" fill="#666666">[varchar(255)]</text>
</g>
<!-- monitoring_leads&#45;&gt;leads -->
<g id="edge2" class="edge">
<title>monitoring_leads:lead_id&#45;&gt;leads:id</title>
<path fill="none" stroke="#000000" d="M534.1477,-1595.9582C560.5252,-1586.6871 543.3294,-1537.7189 524,-1507 504.3084,-1475.7054 468.6916,-1502.2946 449,-1471 426.8686,-1435.8281 407.4444,-1377.5 449,-1377.5"/>
<polygon fill="#000000" stroke="#000000" points="533.8865,-1595.9978 523.324,-1593.0511 528.9433,-1596.7489 524,-1597.5 524,-1597.5 524,-1597.5 528.9433,-1596.7489 524.676,-1601.9489 533.8865,-1595.9978 533.8865,-1595.9978"/>
<text text-anchor="start" x="531.496" y="-1607.5" font-family="Arial" font-size="10.00" fill="#000000">FOREIGN KEY (lead_id) REFERENCES leads (id)</text>
</g>
</g>
</svg>
