<?xml version="1.0" encoding="UTF-8" standalone="no"?>
<!DOCTYPE svg PUBLIC "-//W3C//DTD SVG 1.1//EN"
 "http://www.w3.org/Graphics/SVG/1.1/DTD/svg11.dtd">
<!-- Generated by graphviz version 2.40.1 (20161225.0304)
 -->
<!-- Title: monitoring Pages: 1 -->
<svg width="768pt" height="1679pt"
 viewBox="0.00 0.00 767.50 1679.00" xmlns="http://www.w3.org/2000/svg" xmlns:xlink="http://www.w3.org/1999/xlink">
<g id="graph0" class="graph" transform="scale(1 1) rotate(0) translate(4 1675)">
<title>monitoring</title>
<polygon fill="#ffffff" stroke="transparent" points="-4,4 -4,-1675 763.5,-1675 763.5,4 -4,4"/>
<!-- monitoring -->
<g id="node1" class="node">
<title>monitoring</title>
<polygon fill="#efefef" stroke="transparent" points="280,-1312.5 280,-1347.5 521,-1347.5 521,-1312.5 280,-1312.5"/>
<polygon fill="none" stroke="#000000" points="280,-1312.5 280,-1347.5 521,-1347.5 521,-1312.5 280,-1312.5"/>
<text text-anchor="start" x="309.8701" y="-1325.3" font-family="Arial Bold" font-size="18.00" fill="#000000">monitoring</text>
<text text-anchor="start" x="393.8761" y="-1325.3" font-family="Arial" font-size="14.00" fill="#000000"> </text>
<text text-anchor="start" x="397.7667" y="-1325.3" font-family="Arial" font-size="14.00" fill="#666666">[BASE TABLE]</text>
<polygon fill="none" stroke="#000000" points="280,-1282.5 280,-1312.5 521,-1312.5 521,-1282.5 280,-1282.5"/>
<text text-anchor="start" x="287" y="-1293.9" font-family="Arial" font-size="14.00" fill="#000000">id </text>
<text text-anchor="start" x="301.7798" y="-1293.9" font-family="Arial" font-size="14.00" fill="#666666">[int(10) unsigned]</text>
<polygon fill="none" stroke="#000000" points="280,-1252.5 280,-1282.5 521,-1282.5 521,-1252.5 280,-1252.5"/>
<text text-anchor="start" x="287" y="-1263.9" font-family="Arial" font-size="14.00" fill="#000000">category_id </text>
<text text-anchor="start" x="363.244" y="-1263.9" font-family="Arial" font-size="14.00" fill="#666666">[int(10) unsigned]</text>
<polygon fill="none" stroke="#000000" points="280,-1222.5 280,-1252.5 521,-1252.5 521,-1222.5 280,-1222.5"/>
<text text-anchor="start" x="287" y="-1233.9" font-family="Arial" font-size="14.00" fill="#000000">is_published </text>
<text text-anchor="start" x="368.6886" y="-1233.9" font-family="Arial" font-size="14.00" fill="#666666">[tinyint(1)]</text>
<polygon fill="none" stroke="#000000" points="280,-1192.5 280,-1222.5 521,-1222.5 521,-1192.5 280,-1192.5"/>
<text text-anchor="start" x="287" y="-1203.9" font-family="Arial" font-size="14.00" fill="#000000">date_added </text>
<text text-anchor="start" x="364.8246" y="-1203.9" font-family="Arial" font-size="14.00" fill="#666666">[datetime]</text>
<polygon fill="none" stroke="#000000" points="280,-1162.5 280,-1192.5 521,-1192.5 521,-1162.5 280,-1162.5"/>
<text text-anchor="start" x="287" y="-1173.9" font-family="Arial" font-size="14.00" fill="#000000">created_by </text>
<text text-anchor="start" x="360.1374" y="-1173.9" font-family="Arial" font-size="14.00" fill="#666666">[int(11)]</text>
<polygon fill="none" stroke="#000000" points="280,-1132.5 280,-1162.5 521,-1162.5 521,-1132.5 280,-1132.5"/>
<text text-anchor="start" x="287" y="-1143.9" font-family="Arial" font-size="14.00" fill="#000000">created_by_user </text>
<text text-anchor="start" x="395.1458" y="-1143.9" font-family="Arial" font-size="14.00" fill="#666666">[varchar(191)]</text>
<polygon fill="none" stroke="#000000" points="280,-1102.5 280,-1132.5 521,-1132.5 521,-1102.5 280,-1102.5"/>
<text text-anchor="start" x="287" y="-1113.9" font-family="Arial" font-size="14.00" fill="#000000">date_modified </text>
<text text-anchor="start" x="378.8064" y="-1113.9" font-family="Arial" font-size="14.00" fill="#666666">[datetime]</text>
<polygon fill="none" stroke="#000000" points="280,-1072.5 280,-1102.5 521,-1102.5 521,-1072.5 280,-1072.5"/>
<text text-anchor="start" x="287" y="-1083.9" font-family="Arial" font-size="14.00" fill="#000000">modified_by </text>
<text text-anchor="start" x="366.3506" y="-1083.9" font-family="Arial" font-size="14.00" fill="#666666">[int(11)]</text>
<polygon fill="none" stroke="#000000" points="280,-1042.5 280,-1072.5 521,-1072.5 521,-1042.5 280,-1042.5"/>
<text text-anchor="start" x="287" y="-1053.9" font-family="Arial" font-size="14.00" fill="#000000">modified_by_user </text>
<text text-anchor="start" x="401.359" y="-1053.9" font-family="Arial" font-size="14.00" fill="#666666">[varchar(191)]</text>
<polygon fill="none" stroke="#000000" points="280,-1012.5 280,-1042.5 521,-1042.5 521,-1012.5 280,-1012.5"/>
<text text-anchor="start" x="287" y="-1023.9" font-family="Arial" font-size="14.00" fill="#000000">checked_out </text>
<text text-anchor="start" x="370.2594" y="-1023.9" font-family="Arial" font-size="14.00" fill="#666666">[datetime]</text>
<polygon fill="none" stroke="#000000" points="280,-982.5 280,-1012.5 521,-1012.5 521,-982.5 280,-982.5"/>
<text text-anchor="start" x="287" y="-993.9" font-family="Arial" font-size="14.00" fill="#000000">checked_out_by </text>
<text text-anchor="start" x="392.8246" y="-993.9" font-family="Arial" font-size="14.00" fill="#666666">[int(11)]</text>
<polygon fill="none" stroke="#000000" points="280,-952.5 280,-982.5 521,-982.5 521,-952.5 280,-952.5"/>
<text text-anchor="start" x="286.5239" y="-963.9" font-family="Arial" font-size="14.00" fill="#000000">checked_out_by_user </text>
<text text-anchor="start" x="427.3569" y="-963.9" font-family="Arial" font-size="14.00" fill="#666666">[varchar(191)]</text>
<polygon fill="none" stroke="#000000" points="280,-922.5 280,-952.5 521,-952.5 521,-922.5 280,-922.5"/>
<text text-anchor="start" x="287" y="-933.9" font-family="Arial" font-size="14.00" fill="#000000">title </text>
<text text-anchor="start" x="312.6676" y="-933.9" font-family="Arial" font-size="14.00" fill="#666666">[varchar(191)]</text>
<polygon fill="none" stroke="#000000" points="280,-892.5 280,-922.5 521,-922.5 521,-892.5 280,-892.5"/>
<text text-anchor="start" x="287" y="-903.9" font-family="Arial" font-size="14.00" fill="#000000">description </text>
<text text-anchor="start" x="358.568" y="-903.9" font-family="Arial" font-size="14.00" fill="#666666">[longtext]</text>
<polygon fill="none" stroke="#000000" points="280,-862.5 280,-892.5 521,-892.5 521,-862.5 280,-862.5"/>
<text text-anchor="start" x="287" y="-873.9" font-family="Arial" font-size="14.00" fill="#000000">lists </text>
<text text-anchor="start" x="314.9944" y="-873.9" font-family="Arial" font-size="14.00" fill="#666666">[longtext]</text>
<polygon fill="none" stroke="#000000" points="280,-832.5 280,-862.5 521,-862.5 521,-832.5 280,-832.5"/>
<text text-anchor="start" x="287" y="-843.9" font-family="Arial" font-size="14.00" fill="#000000">network_type </text>
<text text-anchor="start" x="374.1346" y="-843.9" font-family="Arial" font-size="14.00" fill="#666666">[varchar(191)]</text>
<polygon fill="none" stroke="#000000" points="280,-802.5 280,-832.5 521,-832.5 521,-802.5 280,-802.5"/>
<text text-anchor="start" x="287" y="-813.9" font-family="Arial" font-size="14.00" fill="#000000">revision </text>
<text text-anchor="start" x="339.1122" y="-813.9" font-family="Arial" font-size="14.00" fill="#666666">[int(11)]</text>
<polygon fill="none" stroke="#000000" points="280,-772.5 280,-802.5 521,-802.5 521,-772.5 280,-772.5"/>
<text text-anchor="start" x="287" y="-783.9" font-family="Arial" font-size="14.00" fill="#000000">stats </text>
<text text-anchor="start" x="320.4544" y="-783.9" font-family="Arial" font-size="14.00" fill="#666666">[longtext]</text>
<polygon fill="none" stroke="#000000" points="280,-742.5 280,-772.5 521,-772.5 521,-742.5 280,-742.5"/>
<text text-anchor="start" x="287" y="-753.9" font-family="Arial" font-size="14.00" fill="#000000">properties </text>
<text text-anchor="start" x="353.122" y="-753.9" font-family="Arial" font-size="14.00" fill="#666666">[longtext]</text>
<polygon fill="none" stroke="#000000" points="280,-712.5 280,-742.5 521,-742.5 521,-712.5 280,-712.5"/>
<text text-anchor="start" x="287" y="-723.9" font-family="Arial" font-size="14.00" fill="#000000">publish_up </text>
<text text-anchor="start" x="358.582" y="-723.9" font-family="Arial" font-size="14.00" fill="#666666">[datetime]</text>
<polygon fill="none" stroke="#000000" points="280,-682.5 280,-712.5 521,-712.5 521,-682.5 280,-682.5"/>
<text text-anchor="start" x="287" y="-693.9" font-family="Arial" font-size="14.00" fill="#000000">publish_down </text>
<text text-anchor="start" x="376.4712" y="-693.9" font-family="Arial" font-size="14.00" fill="#666666">[datetime]</text>
<polygon fill="none" stroke="#000000" stroke-width="3" points="278,-681.5 278,-1349.5 522,-1349.5 522,-681.5 278,-681.5"/>
</g>
<!-- categories -->
<g id="node4" class="node">
<title>categories</title>
<polygon fill="#efefef" stroke="transparent" points="280,-522.5 280,-557.5 521,-557.5 521,-522.5 280,-522.5"/>
<polygon fill="none" stroke="#000000" points="280,-522.5 280,-557.5 521,-557.5 521,-522.5 280,-522.5"/>
<text text-anchor="start" x="310.3633" y="-535.3" font-family="Arial Bold" font-size="18.00" fill="#000000">categories</text>
<text text-anchor="start" x="393.3829" y="-535.3" font-family="Arial" font-size="14.00" fill="#000000"> </text>
<text text-anchor="start" x="397.2735" y="-535.3" font-family="Arial" font-size="14.00" fill="#666666">[BASE TABLE]</text>
<polygon fill="none" stroke="#000000" points="280,-492.5 280,-522.5 521,-522.5 521,-492.5 280,-492.5"/>
<text text-anchor="start" x="287" y="-503.9" font-family="Arial" font-size="14.00" fill="#000000">id </text>
<text text-anchor="start" x="301.7798" y="-503.9" font-family="Arial" font-size="14.00" fill="#666666">[int(10) unsigned]</text>
<polygon fill="none" stroke="#000000" points="280,-462.5 280,-492.5 521,-492.5 521,-462.5 280,-462.5"/>
<text text-anchor="start" x="287" y="-473.9" font-family="Arial" font-size="14.00" fill="#000000">is_published </text>
<text text-anchor="start" x="368.6886" y="-473.9" font-family="Arial" font-size="14.00" fill="#666666">[tinyint(1)]</text>
<polygon fill="none" stroke="#000000" points="280,-432.5 280,-462.5 521,-462.5 521,-432.5 280,-432.5"/>
<text text-anchor="start" x="287" y="-443.9" font-family="Arial" font-size="14.00" fill="#000000">date_added </text>
<text text-anchor="start" x="364.8246" y="-443.9" font-family="Arial" font-size="14.00" fill="#666666">[datetime]</text>
<polygon fill="none" stroke="#000000" points="280,-402.5 280,-432.5 521,-432.5 521,-402.5 280,-402.5"/>
<text text-anchor="start" x="287" y="-413.9" font-family="Arial" font-size="14.00" fill="#000000">created_by </text>
<text text-anchor="start" x="360.1374" y="-413.9" font-family="Arial" font-size="14.00" fill="#666666">[int(11)]</text>
<polygon fill="none" stroke="#000000" points="280,-372.5 280,-402.5 521,-402.5 521,-372.5 280,-372.5"/>
<text text-anchor="start" x="287" y="-383.9" font-family="Arial" font-size="14.00" fill="#000000">created_by_user </text>
<text text-anchor="start" x="395.1458" y="-383.9" font-family="Arial" font-size="14.00" fill="#666666">[varchar(191)]</text>
<polygon fill="none" stroke="#000000" points="280,-342.5 280,-372.5 521,-372.5 521,-342.5 280,-342.5"/>
<text text-anchor="start" x="287" y="-353.9" font-family="Arial" font-size="14.00" fill="#000000">date_modified </text>
<text text-anchor="start" x="378.8064" y="-353.9" font-family="Arial" font-size="14.00" fill="#666666">[datetime]</text>
<polygon fill="none" stroke="#000000" points="280,-312.5 280,-342.5 521,-342.5 521,-312.5 280,-312.5"/>
<text text-anchor="start" x="287" y="-323.9" font-family="Arial" font-size="14.00" fill="#000000">modified_by </text>
<text text-anchor="start" x="366.3506" y="-323.9" font-family="Arial" font-size="14.00" fill="#666666">[int(11)]</text>
<polygon fill="none" stroke="#000000" points="280,-282.5 280,-312.5 521,-312.5 521,-282.5 280,-282.5"/>
<text text-anchor="start" x="287" y="-293.9" font-family="Arial" font-size="14.00" fill="#000000">modified_by_user </text>
<text text-anchor="start" x="401.359" y="-293.9" font-family="Arial" font-size="14.00" fill="#666666">[varchar(191)]</text>
<polygon fill="none" stroke="#000000" points="280,-252.5 280,-282.5 521,-282.5 521,-252.5 280,-252.5"/>
<text text-anchor="start" x="287" y="-263.9" font-family="Arial" font-size="14.00" fill="#000000">checked_out </text>
<text text-anchor="start" x="370.2594" y="-263.9" font-family="Arial" font-size="14.00" fill="#666666">[datetime]</text>
<polygon fill="none" stroke="#000000" points="280,-222.5 280,-252.5 521,-252.5 521,-222.5 280,-222.5"/>
<text text-anchor="start" x="287" y="-233.9" font-family="Arial" font-size="14.00" fill="#000000">checked_out_by </text>
<text text-anchor="start" x="392.8246" y="-233.9" font-family="Arial" font-size="14.00" fill="#666666">[int(11)]</text>
<polygon fill="none" stroke="#000000" points="280,-192.5 280,-222.5 521,-222.5 521,-192.5 280,-192.5"/>
<text text-anchor="start" x="286.5239" y="-203.9" font-family="Arial" font-size="14.00" fill="#000000">checked_out_by_user </text>
<text text-anchor="start" x="427.3569" y="-203.9" font-family="Arial" font-size="14.00" fill="#666666">[varchar(191)]</text>
<polygon fill="none" stroke="#000000" points="280,-162.5 280,-192.5 521,-192.5 521,-162.5 280,-162.5"/>
<text text-anchor="start" x="287" y="-173.9" font-family="Arial" font-size="14.00" fill="#000000">title </text>
<text text-anchor="start" x="312.6676" y="-173.9" font-family="Arial" font-size="14.00" fill="#666666">[varchar(191)]</text>
<polygon fill="none" stroke="#000000" points="280,-132.5 280,-162.5 521,-162.5 521,-132.5 280,-132.5"/>
<text text-anchor="start" x="287" y="-143.9" font-family="Arial" font-size="14.00" fill="#000000">description </text>
<text text-anchor="start" x="358.568" y="-143.9" font-family="Arial" font-size="14.00" fill="#666666">[longtext]</text>
<polygon fill="none" stroke="#000000" points="280,-102.5 280,-132.5 521,-132.5 521,-102.5 280,-102.5"/>
<text text-anchor="start" x="287" y="-113.9" font-family="Arial" font-size="14.00" fill="#000000">alias </text>
<text text-anchor="start" x="319.669" y="-113.9" font-family="Arial" font-size="14.00" fill="#666666">[varchar(191)]</text>
<polygon fill="none" stroke="#000000" points="280,-72.5 280,-102.5 521,-102.5 521,-72.5 280,-72.5"/>
<text text-anchor="start" x="287" y="-83.9" font-family="Arial" font-size="14.00" fill="#000000">color </text>
<text text-anchor="start" x="321.223" y="-83.9" font-family="Arial" font-size="14.00" fill="#666666">[varchar(7)]</text>
<polygon fill="none" stroke="#000000" points="280,-42.5 280,-72.5 521,-72.5 521,-42.5 280,-42.5"/>
<text text-anchor="start" x="287" y="-53.9" font-family="Arial" font-size="14.00" fill="#000000">bundle </text>
<text text-anchor="start" x="332.9102" y="-53.9" font-family="Arial" font-size="14.00" fill="#666666">[varchar(50)]</text>
</g>
<!-- monitoring&#45;&gt;categories -->
<g id="edge3" class="edge">
<title>monitoring:category_id&#45;&gt;categories:id</title>
<path fill="none" stroke="#000000" d="M269.7159,-1267.2619C-57.7423,-1251.994 -54.3142,-507.5 280,-507.5"/>
<polygon fill="#000000" stroke="#000000" points="270.0027,-1267.2685 279.8958,-1271.9988 275.0013,-1267.3842 280,-1267.5 280,-1267.5 280,-1267.5 275.0013,-1267.3842 280.1042,-1263.0012 270.0027,-1267.2685 270.0027,-1267.2685"/>
<text text-anchor="start" x="6.659" y="-1277.5" font-family="Arial" font-size="10.00" fill="#000000">FOREIGN KEY (category_id) REFERENCES categories (id)</text>
</g>
<!-- monitoring_leads -->
<g id="node2" class="node">
<title>monitoring_leads</title>
<polygon fill="#efefef" stroke="transparent" points="95,-1577.5 95,-1612.5 343,-1612.5 343,-1577.5 95,-1577.5"/>
<polygon fill="none" stroke="#000000" points="95,-1577.5 95,-1612.5 343,-1612.5 343,-1577.5 95,-1577.5"/>
<text text-anchor="start" x="101.8606" y="-1590.3" font-family="Arial Bold" font-size="18.00" fill="#000000">monitoring_leads</text>
<text text-anchor="start" x="238.8856" y="-1590.3" font-family="Arial" font-size="14.00" fill="#000000"> </text>
<text text-anchor="start" x="242.7762" y="-1590.3" font-family="Arial" font-size="14.00" fill="#666666">[BASE TABLE]</text>
<polygon fill="none" stroke="#000000" points="95,-1547.5 95,-1577.5 343,-1577.5 343,-1547.5 95,-1547.5"/>
<text text-anchor="start" x="102" y="-1558.9" font-family="Arial" font-size="14.00" fill="#000000">monitor_id </text>
<text text-anchor="start" x="171.2286" y="-1558.9" font-family="Arial" font-size="14.00" fill="#666666">[int(10) unsigned]</text>
<polygon fill="none" stroke="#000000" points="95,-1517.5 95,-1547.5 343,-1547.5 343,-1517.5 95,-1517.5"/>
<text text-anchor="start" x="102" y="-1528.9" font-family="Arial" font-size="14.00" fill="#000000">lead_id </text>
<text text-anchor="start" x="151.0168" y="-1528.9" font-family="Arial" font-size="14.00" fill="#666666">[bigint(20) unsigned]</text>
<polygon fill="none" stroke="#000000" points="95,-1487.5 95,-1517.5 343,-1517.5 343,-1487.5 95,-1487.5"/>
<text text-anchor="start" x="102" y="-1498.9" font-family="Arial" font-size="14.00" fill="#000000">date_added </text>
<text text-anchor="start" x="179.8246" y="-1498.9" font-family="Arial" font-size="14.00" fill="#666666">[datetime]</text>
</g>
<!-- monitoring_leads&#45;&gt;monitoring -->
<g id="edge1" class="edge">
<title>monitoring_leads:monitor_id&#45;&gt;monitoring:id</title>
<path fill="none" stroke="#000000" d="M353.3097,-1561.3754C390.8482,-1552.1829 363.8171,-1488.6351 343,-1445 327.4884,-1412.4859 295.5116,-1426.5141 280,-1394 261.5328,-1355.2906 237.1111,-1297.5 280,-1297.5"/>
<polygon fill="#000000" stroke="#000000" points="352.941,-1561.4156 342.512,-1558.0265 347.9705,-1561.9578 343,-1562.5 343,-1562.5 343,-1562.5 347.9705,-1561.9578 343.488,-1566.9735 352.941,-1561.4156 352.941,-1561.4156"/>
<text text-anchor="start" x="349.8905" y="-1572.5" font-family="Arial" font-size="10.00" fill="#000000">FOREIGN KEY (monitor_id) REFERENCES monitoring (id)</text>
</g>
<!-- monitor_post_count -->
<g id="node3" class="node">
<title>monitor_post_count</title>
<polygon fill="#efefef" stroke="transparent" points="448,-1592.5 448,-1627.5 717,-1627.5 717,-1592.5 448,-1592.5"/>
<polygon fill="none" stroke="#000000" points="448,-1592.5 448,-1627.5 717,-1627.5 717,-1592.5 448,-1592.5"/>
<text text-anchor="start" x="454.8495" y="-1605.3" font-family="Arial Bold" font-size="18.00" fill="#000000">monitor_post_count</text>
<text text-anchor="start" x="612.8967" y="-1605.3" font-family="Arial" font-size="14.00" fill="#000000"> </text>
<text text-anchor="start" x="616.7873" y="-1605.3" font-family="Arial" font-size="14.00" fill="#666666">[BASE TABLE]</text>
<polygon fill="none" stroke="#000000" points="448,-1562.5 448,-1592.5 717,-1592.5 717,-1562.5 448,-1562.5"/>
<text text-anchor="start" x="455" y="-1573.9" font-family="Arial" font-size="14.00" fill="#000000">id </text>
<text text-anchor="start" x="469.7798" y="-1573.9" font-family="Arial" font-size="14.00" fill="#666666">[int(10) unsigned]</text>
<polygon fill="none" stroke="#000000" points="448,-1532.5 448,-1562.5 717,-1562.5 717,-1532.5 448,-1532.5"/>
<text text-anchor="start" x="455" y="-1543.9" font-family="Arial" font-size="14.00" fill="#000000">monitor_id </text>
<text text-anchor="start" x="524.2286" y="-1543.9" font-family="Arial" font-size="14.00" fill="#666666">[int(10) unsigned]</text>
<polygon fill="none" stroke="#000000" points="448,-1502.5 448,-1532.5 717,-1532.5 717,-1502.5 448,-1502.5"/>
<text text-anchor="start" x="455" y="-1513.9" font-family="Arial" font-size="14.00" fill="#000000">post_date </text>
<text text-anchor="start" x="520.3674" y="-1513.9" font-family="Arial" font-size="14.00" fill="#666666">[date]</text>
<polygon fill="none" stroke="#000000" points="448,-1472.5 448,-1502.5 717,-1502.5 717,-1472.5 448,-1472.5"/>
<text text-anchor="start" x="455" y="-1483.9" font-family="Arial" font-size="14.00" fill="#000000">post_count </text>
<text text-anchor="start" x="527.3674" y="-1483.9" font-family="Arial" font-size="14.00" fill="#666666">[int(11)]</text>
</g>
<!-- monitor_post_count&#45;&gt;monitoring -->
<g id="edge2" class="edge">
<title>monitor_post_count:monitor_id&#45;&gt;monitoring:id</title>
<path fill="none" stroke="#000000" d="M437.6124,-1546.3328C399.4522,-1536.8001 422.4699,-1471.0559 448,-1430 467.1029,-1399.2799 501.8971,-1424.7201 521,-1394 543.6482,-1357.5786 563.8889,-1297.5 521,-1297.5"/>
<polygon fill="#000000" stroke="#000000" points="438.0625,-1546.3833 447.4975,-1551.9719 443.0313,-1546.9417 448,-1547.5 448,-1547.5 448,-1547.5 443.0313,-1546.9417 448.5025,-1543.0281 438.0625,-1546.3833 438.0625,-1546.3833"/>
<text text-anchor="start" x="454.8905" y="-1531.5" font-family="Arial" font-size="10.00" fill="#000000">FOREIGN KEY (monitor_id) REFERENCES monitoring (id)</text>
</g>
</g>
</svg>
