<?xml version="1.0" encoding="UTF-8" standalone="no"?>
<!DOCTYPE svg PUBLIC "-//W3C//DTD SVG 1.1//EN"
 "http://www.w3.org/Graphics/SVG/1.1/DTD/svg11.dtd">
<!-- Generated by graphviz version 2.40.1 (20161225.0304)
 -->
<!-- Title: notifications Pages: 1 -->
<svg width="514pt" height="1252pt"
 viewBox="0.00 0.00 513.50 1252.00" xmlns="http://www.w3.org/2000/svg" xmlns:xlink="http://www.w3.org/1999/xlink">
<g id="graph0" class="graph" transform="scale(1 1) rotate(0) translate(4 1248)">
<title>notifications</title>
<polygon fill="#ffffff" stroke="transparent" points="-4,4 -4,-1248 509.5,-1248 509.5,4 -4,4"/>
<!-- notifications -->
<g id="node1" class="node">
<title>notifications</title>
<polygon fill="#efefef" stroke="transparent" points="240,-1162.5 240,-1197.5 446,-1197.5 446,-1162.5 240,-1162.5"/>
<polygon fill="none" stroke="#000000" points="240,-1162.5 240,-1197.5 446,-1197.5 446,-1162.5 240,-1162.5"/>
<text text-anchor="start" x="246.863" y="-1175.3" font-family="Arial Bold" font-size="18.00" fill="#000000">notifications</text>
<text text-anchor="start" x="341.8832" y="-1175.3" font-family="Arial" font-size="14.00" fill="#000000"> </text>
<text text-anchor="start" x="345.7738" y="-1175.3" font-family="Arial" font-size="14.00" fill="#666666">[BASE TABLE]</text>
<polygon fill="none" stroke="#000000" points="240,-1132.5 240,-1162.5 446,-1162.5 446,-1132.5 240,-1132.5"/>
<text text-anchor="start" x="247" y="-1143.9" font-family="Arial" font-size="14.00" fill="#000000">id </text>
<text text-anchor="start" x="261.7798" y="-1143.9" font-family="Arial" font-size="14.00" fill="#666666">[int(10) unsigned]</text>
<polygon fill="none" stroke="#000000" points="240,-1102.5 240,-1132.5 446,-1132.5 446,-1102.5 240,-1102.5"/>
<text text-anchor="start" x="247" y="-1113.9" font-family="Arial" font-size="14.00" fill="#000000">user_id </text>
<text text-anchor="start" x="296.7882" y="-1113.9" font-family="Arial" font-size="14.00" fill="#666666">[int(10) unsigned]</text>
<polygon fill="none" stroke="#000000" points="240,-1072.5 240,-1102.5 446,-1102.5 446,-1072.5 240,-1072.5"/>
<text text-anchor="start" x="247" y="-1083.9" font-family="Arial" font-size="14.00" fill="#000000">type </text>
<text text-anchor="start" x="277.3464" y="-1083.9" font-family="Arial" font-size="14.00" fill="#666666">[varchar(25)]</text>
<polygon fill="none" stroke="#000000" points="240,-1042.5 240,-1072.5 446,-1072.5 446,-1042.5 240,-1042.5"/>
<text text-anchor="start" x="247" y="-1053.9" font-family="Arial" font-size="14.00" fill="#000000">header </text>
<text text-anchor="start" x="294.4642" y="-1053.9" font-family="Arial" font-size="14.00" fill="#666666">[varchar(512)]</text>
<polygon fill="none" stroke="#000000" points="240,-1012.5 240,-1042.5 446,-1042.5 446,-1012.5 240,-1012.5"/>
<text text-anchor="start" x="247" y="-1023.9" font-family="Arial" font-size="14.00" fill="#000000">message </text>
<text text-anchor="start" x="307.6816" y="-1023.9" font-family="Arial" font-size="14.00" fill="#666666">[longtext]</text>
<polygon fill="none" stroke="#000000" points="240,-982.5 240,-1012.5 446,-1012.5 446,-982.5 240,-982.5"/>
<text text-anchor="start" x="247" y="-993.9" font-family="Arial" font-size="14.00" fill="#000000">date_added </text>
<text text-anchor="start" x="324.8246" y="-993.9" font-family="Arial" font-size="14.00" fill="#666666">[datetime]</text>
<polygon fill="none" stroke="#000000" points="240,-952.5 240,-982.5 446,-982.5 446,-952.5 240,-952.5"/>
<text text-anchor="start" x="247" y="-963.9" font-family="Arial" font-size="14.00" fill="#000000">icon_class </text>
<text text-anchor="start" x="316.2342" y="-963.9" font-family="Arial" font-size="14.00" fill="#666666">[varchar(191)]</text>
<polygon fill="none" stroke="#000000" points="240,-922.5 240,-952.5 446,-952.5 446,-922.5 240,-922.5"/>
<text text-anchor="start" x="247" y="-933.9" font-family="Arial" font-size="14.00" fill="#000000">is_read </text>
<text text-anchor="start" x="296.7882" y="-933.9" font-family="Arial" font-size="14.00" fill="#666666">[tinyint(1)]</text>
<polygon fill="none" stroke="#000000" stroke-width="3" points="238.5,-921.5 238.5,-1199.5 447.5,-1199.5 447.5,-921.5 238.5,-921.5"/>
</g>
<!-- users -->
<g id="node2" class="node">
<title>users</title>
<polygon fill="#efefef" stroke="transparent" points="222,-762.5 222,-797.5 463,-797.5 463,-762.5 222,-762.5"/>
<polygon fill="none" stroke="#000000" points="222,-762.5 222,-797.5 463,-797.5 463,-762.5 222,-762.5"/>
<text text-anchor="start" x="271.8708" y="-775.3" font-family="Arial Bold" font-size="18.00" fill="#000000">users</text>
<text text-anchor="start" x="315.8754" y="-775.3" font-family="Arial" font-size="14.00" fill="#000000"> </text>
<text text-anchor="start" x="319.766" y="-775.3" font-family="Arial" font-size="14.00" fill="#666666">[BASE TABLE]</text>
<polygon fill="none" stroke="#000000" points="222,-732.5 222,-762.5 463,-762.5 463,-732.5 222,-732.5"/>
<text text-anchor="start" x="229" y="-743.9" font-family="Arial" font-size="14.00" fill="#000000">id </text>
<text text-anchor="start" x="243.7798" y="-743.9" font-family="Arial" font-size="14.00" fill="#666666">[int(10) unsigned]</text>
<polygon fill="none" stroke="#000000" points="222,-702.5 222,-732.5 463,-732.5 463,-702.5 222,-702.5"/>
<text text-anchor="start" x="229" y="-713.9" font-family="Arial" font-size="14.00" fill="#000000">role_id </text>
<text text-anchor="start" x="274.8948" y="-713.9" font-family="Arial" font-size="14.00" fill="#666666">[int(10) unsigned]</text>
<polygon fill="none" stroke="#000000" points="222,-672.5 222,-702.5 463,-702.5 463,-672.5 222,-672.5"/>
<text text-anchor="start" x="229" y="-683.9" font-family="Arial" font-size="14.00" fill="#000000">is_published </text>
<text text-anchor="start" x="310.6886" y="-683.9" font-family="Arial" font-size="14.00" fill="#666666">[tinyint(1)]</text>
<polygon fill="none" stroke="#000000" points="222,-642.5 222,-672.5 463,-672.5 463,-642.5 222,-642.5"/>
<text text-anchor="start" x="229" y="-653.9" font-family="Arial" font-size="14.00" fill="#000000">date_added </text>
<text text-anchor="start" x="306.8246" y="-653.9" font-family="Arial" font-size="14.00" fill="#666666">[datetime]</text>
<polygon fill="none" stroke="#000000" points="222,-612.5 222,-642.5 463,-642.5 463,-612.5 222,-612.5"/>
<text text-anchor="start" x="229" y="-623.9" font-family="Arial" font-size="14.00" fill="#000000">created_by </text>
<text text-anchor="start" x="302.1374" y="-623.9" font-family="Arial" font-size="14.00" fill="#666666">[int(11)]</text>
<polygon fill="none" stroke="#000000" points="222,-582.5 222,-612.5 463,-612.5 463,-582.5 222,-582.5"/>
<text text-anchor="start" x="229" y="-593.9" font-family="Arial" font-size="14.00" fill="#000000">created_by_user </text>
<text text-anchor="start" x="337.1458" y="-593.9" font-family="Arial" font-size="14.00" fill="#666666">[varchar(191)]</text>
<polygon fill="none" stroke="#000000" points="222,-552.5 222,-582.5 463,-582.5 463,-552.5 222,-552.5"/>
<text text-anchor="start" x="229" y="-563.9" font-family="Arial" font-size="14.00" fill="#000000">date_modified </text>
<text text-anchor="start" x="320.8064" y="-563.9" font-family="Arial" font-size="14.00" fill="#666666">[datetime]</text>
<polygon fill="none" stroke="#000000" points="222,-522.5 222,-552.5 463,-552.5 463,-522.5 222,-522.5"/>
<text text-anchor="start" x="229" y="-533.9" font-family="Arial" font-size="14.00" fill="#000000">modified_by </text>
<text text-anchor="start" x="308.3506" y="-533.9" font-family="Arial" font-size="14.00" fill="#666666">[int(11)]</text>
<polygon fill="none" stroke="#000000" points="222,-492.5 222,-522.5 463,-522.5 463,-492.5 222,-492.5"/>
<text text-anchor="start" x="229" y="-503.9" font-family="Arial" font-size="14.00" fill="#000000">modified_by_user </text>
<text text-anchor="start" x="343.359" y="-503.9" font-family="Arial" font-size="14.00" fill="#666666">[varchar(191)]</text>
<polygon fill="none" stroke="#000000" points="222,-462.5 222,-492.5 463,-492.5 463,-462.5 222,-462.5"/>
<text text-anchor="start" x="229" y="-473.9" font-family="Arial" font-size="14.00" fill="#000000">checked_out </text>
<text text-anchor="start" x="312.2594" y="-473.9" font-family="Arial" font-size="14.00" fill="#666666">[datetime]</text>
<polygon fill="none" stroke="#000000" points="222,-432.5 222,-462.5 463,-462.5 463,-432.5 222,-432.5"/>
<text text-anchor="start" x="229" y="-443.9" font-family="Arial" font-size="14.00" fill="#000000">checked_out_by </text>
<text text-anchor="start" x="334.8246" y="-443.9" font-family="Arial" font-size="14.00" fill="#666666">[int(11)]</text>
<polygon fill="none" stroke="#000000" points="222,-402.5 222,-432.5 463,-432.5 463,-402.5 222,-402.5"/>
<text text-anchor="start" x="228.5239" y="-413.9" font-family="Arial" font-size="14.00" fill="#000000">checked_out_by_user </text>
<text text-anchor="start" x="369.3569" y="-413.9" font-family="Arial" font-size="14.00" fill="#666666">[varchar(191)]</text>
<polygon fill="none" stroke="#000000" points="222,-372.5 222,-402.5 463,-402.5 463,-372.5 222,-372.5"/>
<text text-anchor="start" x="229" y="-383.9" font-family="Arial" font-size="14.00" fill="#000000">username </text>
<text text-anchor="start" x="295.1248" y="-383.9" font-family="Arial" font-size="14.00" fill="#666666">[varchar(191)]</text>
<polygon fill="none" stroke="#000000" points="222,-342.5 222,-372.5 463,-372.5 463,-342.5 222,-342.5"/>
<text text-anchor="start" x="229" y="-353.9" font-family="Arial" font-size="14.00" fill="#000000">password </text>
<text text-anchor="start" x="292.7882" y="-353.9" font-family="Arial" font-size="14.00" fill="#666666">[varchar(64)]</text>
<polygon fill="none" stroke="#000000" points="222,-312.5 222,-342.5 463,-342.5 463,-312.5 222,-312.5"/>
<text text-anchor="start" x="229" y="-323.9" font-family="Arial" font-size="14.00" fill="#000000">first_name </text>
<text text-anchor="start" x="298.23" y="-323.9" font-family="Arial" font-size="14.00" fill="#666666">[varchar(191)]</text>
<polygon fill="none" stroke="#000000" points="222,-282.5 222,-312.5 463,-312.5 463,-282.5 222,-282.5"/>
<text text-anchor="start" x="229" y="-293.9" font-family="Arial" font-size="14.00" fill="#000000">last_name </text>
<text text-anchor="start" x="297.4614" y="-293.9" font-family="Arial" font-size="14.00" fill="#666666">[varchar(191)]</text>
<polygon fill="none" stroke="#000000" points="222,-252.5 222,-282.5 463,-282.5 463,-252.5 222,-252.5"/>
<text text-anchor="start" x="229" y="-263.9" font-family="Arial" font-size="14.00" fill="#000000">email </text>
<text text-anchor="start" x="266.3296" y="-263.9" font-family="Arial" font-size="14.00" fill="#666666">[varchar(191)]</text>
<polygon fill="none" stroke="#000000" points="222,-222.5 222,-252.5 463,-252.5 463,-222.5 222,-222.5"/>
<text text-anchor="start" x="229" y="-233.9" font-family="Arial" font-size="14.00" fill="#000000">position </text>
<text text-anchor="start" x="281.1248" y="-233.9" font-family="Arial" font-size="14.00" fill="#666666">[varchar(191)]</text>
<polygon fill="none" stroke="#000000" points="222,-192.5 222,-222.5 463,-222.5 463,-192.5 222,-192.5"/>
<text text-anchor="start" x="229" y="-203.9" font-family="Arial" font-size="14.00" fill="#000000">timezone </text>
<text text-anchor="start" x="289.6788" y="-203.9" font-family="Arial" font-size="14.00" fill="#666666">[varchar(191)]</text>
<polygon fill="none" stroke="#000000" points="222,-162.5 222,-192.5 463,-192.5 463,-162.5 222,-162.5"/>
<text text-anchor="start" x="229" y="-173.9" font-family="Arial" font-size="14.00" fill="#000000">locale </text>
<text text-anchor="start" x="269.4516" y="-173.9" font-family="Arial" font-size="14.00" fill="#666666">[varchar(191)]</text>
<polygon fill="none" stroke="#000000" points="222,-132.5 222,-162.5 463,-162.5 463,-132.5 222,-132.5"/>
<text text-anchor="start" x="229" y="-143.9" font-family="Arial" font-size="14.00" fill="#000000">last_login </text>
<text text-anchor="start" x="292.014" y="-143.9" font-family="Arial" font-size="14.00" fill="#666666">[datetime]</text>
<polygon fill="none" stroke="#000000" points="222,-102.5 222,-132.5 463,-132.5 463,-102.5 222,-102.5"/>
<text text-anchor="start" x="229" y="-113.9" font-family="Arial" font-size="14.00" fill="#000000">last_active </text>
<text text-anchor="start" x="299.0154" y="-113.9" font-family="Arial" font-size="14.00" fill="#666666">[datetime]</text>
<polygon fill="none" stroke="#000000" points="222,-72.5 222,-102.5 463,-102.5 463,-72.5 222,-72.5"/>
<text text-anchor="start" x="229" y="-83.9" font-family="Arial" font-size="14.00" fill="#000000">preferences </text>
<text text-anchor="start" x="306.798" y="-83.9" font-family="Arial" font-size="14.00" fill="#666666">[longtext]</text>
<polygon fill="none" stroke="#000000" points="222,-42.5 222,-72.5 463,-72.5 463,-42.5 222,-42.5"/>
<text text-anchor="start" x="229" y="-53.9" font-family="Arial" font-size="14.00" fill="#000000">signature </text>
<text text-anchor="start" x="290.4614" y="-53.9" font-family="Arial" font-size="14.00" fill="#666666">[longtext]</text>
</g>
<!-- notifications&#45;&gt;users -->
<g id="edge1" class="edge">
<title>notifications:user_id&#45;&gt;users:id</title>
<path fill="none" stroke="#000000" d="M229.8266,-1116.9824C135.6423,-1107.0193 173.0031,-955.68 240,-877 305.0873,-800.5627 397.9127,-917.4373 463,-841 489.9411,-809.3608 504.5556,-747.5 463,-747.5"/>
<polygon fill="#000000" stroke="#000000" points="230.0129,-1116.9918 239.7713,-1121.9942 235.0065,-1117.2459 240,-1117.5 240,-1117.5 240,-1117.5 235.0065,-1117.2459 240.2287,-1113.0058 230.0129,-1116.9918 230.0129,-1116.9918"/>
<text text-anchor="start" x="6.945" y="-1127.5" font-family="Arial" font-size="10.00" fill="#000000">FOREIGN KEY (user_id) REFERENCES users (id)</text>
</g>
</g>
</svg>
