<?xml version="1.0" encoding="UTF-8" standalone="no"?>
<!DOCTYPE svg PUBLIC "-//W3C//DTD SVG 1.1//EN"
 "http://www.w3.org/Graphics/SVG/1.1/DTD/svg11.dtd">
<!-- Generated by graphviz version 2.40.1 (20161225.0304)
 -->
<!-- Title: oauth2_refreshtokens Pages: 1 -->
<svg width="817pt" height="1192pt"
 viewBox="0.00 0.00 817.00 1192.00" xmlns="http://www.w3.org/2000/svg" xmlns:xlink="http://www.w3.org/1999/xlink">
<g id="graph0" class="graph" transform="scale(1 1) rotate(0) translate(4 1188)">
<title>oauth2_refreshtokens</title>
<polygon fill="#ffffff" stroke="transparent" points="-4,4 -4,-1188 813,-1188 813,4 -4,4"/>
<!-- oauth2_refreshtokens -->
<g id="node1" class="node">
<title>oauth2_refreshtokens</title>
<polygon fill="#efefef" stroke="transparent" points="284,-1102.5 284,-1137.5 569,-1137.5 569,-1102.5 284,-1102.5"/>
<polygon fill="none" stroke="#000000" points="284,-1102.5 284,-1137.5 569,-1137.5 569,-1102.5 284,-1102.5"/>
<text text-anchor="start" x="290.8404" y="-1115.3" font-family="Arial Bold" font-size="18.00" fill="#000000">oauth2_refreshtokens</text>
<text text-anchor="start" x="464.9058" y="-1115.3" font-family="Arial" font-size="14.00" fill="#000000"> </text>
<text text-anchor="start" x="468.7964" y="-1115.3" font-family="Arial" font-size="14.00" fill="#666666">[BASE TABLE]</text>
<polygon fill="none" stroke="#000000" points="284,-1072.5 284,-1102.5 569,-1102.5 569,-1072.5 284,-1072.5"/>
<text text-anchor="start" x="291" y="-1083.9" font-family="Arial" font-size="14.00" fill="#000000">id </text>
<text text-anchor="start" x="305.7798" y="-1083.9" font-family="Arial" font-size="14.00" fill="#666666">[int(11)]</text>
<polygon fill="none" stroke="#000000" points="284,-1042.5 284,-1072.5 569,-1072.5 569,-1042.5 284,-1042.5"/>
<text text-anchor="start" x="291" y="-1053.9" font-family="Arial" font-size="14.00" fill="#000000">client_id </text>
<text text-anchor="start" x="346.2314" y="-1053.9" font-family="Arial" font-size="14.00" fill="#666666">[int(10) unsigned]</text>
<polygon fill="none" stroke="#000000" points="284,-1012.5 284,-1042.5 569,-1042.5 569,-1012.5 284,-1012.5"/>
<text text-anchor="start" x="291" y="-1023.9" font-family="Arial" font-size="14.00" fill="#000000">user_id </text>
<text text-anchor="start" x="340.7882" y="-1023.9" font-family="Arial" font-size="14.00" fill="#666666">[int(10) unsigned]</text>
<polygon fill="none" stroke="#000000" points="284,-982.5 284,-1012.5 569,-1012.5 569,-982.5 284,-982.5"/>
<text text-anchor="start" x="291" y="-993.9" font-family="Arial" font-size="14.00" fill="#000000">token </text>
<text text-anchor="start" x="329.129" y="-993.9" font-family="Arial" font-size="14.00" fill="#666666">[varchar(191)]</text>
<polygon fill="none" stroke="#000000" points="284,-952.5 284,-982.5 569,-982.5 569,-952.5 284,-952.5"/>
<text text-anchor="start" x="291" y="-963.9" font-family="Arial" font-size="14.00" fill="#000000">expires_at </text>
<text text-anchor="start" x="359.4614" y="-963.9" font-family="Arial" font-size="14.00" fill="#666666">[bigint(20)]</text>
<polygon fill="none" stroke="#000000" points="284,-922.5 284,-952.5 569,-952.5 569,-922.5 284,-922.5"/>
<text text-anchor="start" x="291" y="-933.9" font-family="Arial" font-size="14.00" fill="#000000">scope </text>
<text text-anchor="start" x="332.2384" y="-933.9" font-family="Arial" font-size="14.00" fill="#666666">[varchar(191)]</text>
<polygon fill="none" stroke="#000000" stroke-width="3" points="282,-921.5 282,-1139.5 570,-1139.5 570,-921.5 282,-921.5"/>
</g>
<!-- oauth2_clients -->
<g id="node2" class="node">
<title>oauth2_clients</title>
<polygon fill="#efefef" stroke="transparent" points="144,-507.5 144,-542.5 371,-542.5 371,-507.5 144,-507.5"/>
<polygon fill="none" stroke="#000000" points="144,-507.5 144,-542.5 371,-542.5 371,-507.5 144,-507.5"/>
<text text-anchor="start" x="150.8519" y="-520.3" font-family="Arial Bold" font-size="18.00" fill="#000000">oauth2_clients</text>
<text text-anchor="start" x="266.8943" y="-520.3" font-family="Arial" font-size="14.00" fill="#000000"> </text>
<text text-anchor="start" x="270.7849" y="-520.3" font-family="Arial" font-size="14.00" fill="#666666">[BASE TABLE]</text>
<polygon fill="none" stroke="#000000" points="144,-477.5 144,-507.5 371,-507.5 371,-477.5 144,-477.5"/>
<text text-anchor="start" x="151" y="-488.9" font-family="Arial" font-size="14.00" fill="#000000">id </text>
<text text-anchor="start" x="165.7798" y="-488.9" font-family="Arial" font-size="14.00" fill="#666666">[int(10) unsigned]</text>
<polygon fill="none" stroke="#000000" points="144,-447.5 144,-477.5 371,-477.5 371,-447.5 144,-447.5"/>
<text text-anchor="start" x="151" y="-458.9" font-family="Arial" font-size="14.00" fill="#000000">role_id </text>
<text text-anchor="start" x="196.8948" y="-458.9" font-family="Arial" font-size="14.00" fill="#666666">[int(10) unsigned]</text>
<polygon fill="none" stroke="#000000" points="144,-417.5 144,-447.5 371,-447.5 371,-417.5 144,-417.5"/>
<text text-anchor="start" x="151" y="-428.9" font-family="Arial" font-size="14.00" fill="#000000">name </text>
<text text-anchor="start" x="189.899" y="-428.9" font-family="Arial" font-size="14.00" fill="#666666">[varchar(191)]</text>
<polygon fill="none" stroke="#000000" points="144,-387.5 144,-417.5 371,-417.5 371,-387.5 144,-387.5"/>
<text text-anchor="start" x="151" y="-398.9" font-family="Arial" font-size="14.00" fill="#000000">random_id </text>
<text text-anchor="start" x="221.014" y="-398.9" font-family="Arial" font-size="14.00" fill="#666666">[varchar(191)]</text>
<polygon fill="none" stroke="#000000" points="144,-357.5 144,-387.5 371,-387.5 371,-357.5 144,-357.5"/>
<text text-anchor="start" x="151" y="-368.9" font-family="Arial" font-size="14.00" fill="#000000">secret </text>
<text text-anchor="start" x="193.007" y="-368.9" font-family="Arial" font-size="14.00" fill="#666666">[varchar(191)]</text>
<polygon fill="none" stroke="#000000" points="144,-327.5 144,-357.5 371,-357.5 371,-327.5 144,-327.5"/>
<text text-anchor="start" x="151" y="-338.9" font-family="Arial" font-size="14.00" fill="#000000">redirect_uris </text>
<text text-anchor="start" x="231.8892" y="-338.9" font-family="Arial" font-size="14.00" fill="#666666">[longtext]</text>
<polygon fill="none" stroke="#000000" points="144,-297.5 144,-327.5 371,-327.5 371,-297.5 144,-297.5"/>
<text text-anchor="start" x="151" y="-308.9" font-family="Arial" font-size="14.00" fill="#000000">allowed_grant_types </text>
<text text-anchor="start" x="283.2608" y="-308.9" font-family="Arial" font-size="14.00" fill="#666666">[longtext]</text>
</g>
<!-- oauth2_refreshtokens&#45;&gt;oauth2_clients -->
<g id="edge1" class="edge">
<title>oauth2_refreshtokens:client_id&#45;&gt;oauth2_clients:id</title>
<path fill="none" stroke="#000000" d="M273.6786,-1056.8461C210.0848,-1048.0675 272.9325,-952.6566 284,-877 303.5391,-743.4319 351.4609,-719.5681 371,-586 377.015,-544.8821 412.5556,-492.5 371,-492.5"/>
<polygon fill="#000000" stroke="#000000" points="274.02,-1056.8676 283.7154,-1061.991 279.01,-1057.1838 284,-1057.5 284,-1057.5 284,-1057.5 279.01,-1057.1838 284.2846,-1053.009 274.02,-1056.8676 274.02,-1056.8676"/>
<text text-anchor="start" x="6.9905" y="-1067.5" font-family="Arial" font-size="10.00" fill="#000000">FOREIGN KEY (client_id) REFERENCES oauth2_clients (id)</text>
</g>
<!-- users -->
<g id="node3" class="node">
<title>users</title>
<polygon fill="#efefef" stroke="transparent" points="475,-762.5 475,-797.5 716,-797.5 716,-762.5 475,-762.5"/>
<polygon fill="none" stroke="#000000" points="475,-762.5 475,-797.5 716,-797.5 716,-762.5 475,-762.5"/>
<text text-anchor="start" x="524.8708" y="-775.3" font-family="Arial Bold" font-size="18.00" fill="#000000">users</text>
<text text-anchor="start" x="568.8754" y="-775.3" font-family="Arial" font-size="14.00" fill="#000000"> </text>
<text text-anchor="start" x="572.766" y="-775.3" font-family="Arial" font-size="14.00" fill="#666666">[BASE TABLE]</text>
<polygon fill="none" stroke="#000000" points="475,-732.5 475,-762.5 716,-762.5 716,-732.5 475,-732.5"/>
<text text-anchor="start" x="482" y="-743.9" font-family="Arial" font-size="14.00" fill="#000000">id </text>
<text text-anchor="start" x="496.7798" y="-743.9" font-family="Arial" font-size="14.00" fill="#666666">[int(10) unsigned]</text>
<polygon fill="none" stroke="#000000" points="475,-702.5 475,-732.5 716,-732.5 716,-702.5 475,-702.5"/>
<text text-anchor="start" x="482" y="-713.9" font-family="Arial" font-size="14.00" fill="#000000">role_id </text>
<text text-anchor="start" x="527.8948" y="-713.9" font-family="Arial" font-size="14.00" fill="#666666">[int(10) unsigned]</text>
<polygon fill="none" stroke="#000000" points="475,-672.5 475,-702.5 716,-702.5 716,-672.5 475,-672.5"/>
<text text-anchor="start" x="482" y="-683.9" font-family="Arial" font-size="14.00" fill="#000000">is_published </text>
<text text-anchor="start" x="563.6886" y="-683.9" font-family="Arial" font-size="14.00" fill="#666666">[tinyint(1)]</text>
<polygon fill="none" stroke="#000000" points="475,-642.5 475,-672.5 716,-672.5 716,-642.5 475,-642.5"/>
<text text-anchor="start" x="482" y="-653.9" font-family="Arial" font-size="14.00" fill="#000000">date_added </text>
<text text-anchor="start" x="559.8246" y="-653.9" font-family="Arial" font-size="14.00" fill="#666666">[datetime]</text>
<polygon fill="none" stroke="#000000" points="475,-612.5 475,-642.5 716,-642.5 716,-612.5 475,-612.5"/>
<text text-anchor="start" x="482" y="-623.9" font-family="Arial" font-size="14.00" fill="#000000">created_by </text>
<text text-anchor="start" x="555.1374" y="-623.9" font-family="Arial" font-size="14.00" fill="#666666">[int(11)]</text>
<polygon fill="none" stroke="#000000" points="475,-582.5 475,-612.5 716,-612.5 716,-582.5 475,-582.5"/>
<text text-anchor="start" x="482" y="-593.9" font-family="Arial" font-size="14.00" fill="#000000">created_by_user </text>
<text text-anchor="start" x="590.1458" y="-593.9" font-family="Arial" font-size="14.00" fill="#666666">[varchar(191)]</text>
<polygon fill="none" stroke="#000000" points="475,-552.5 475,-582.5 716,-582.5 716,-552.5 475,-552.5"/>
<text text-anchor="start" x="482" y="-563.9" font-family="Arial" font-size="14.00" fill="#000000">date_modified </text>
<text text-anchor="start" x="573.8064" y="-563.9" font-family="Arial" font-size="14.00" fill="#666666">[datetime]</text>
<polygon fill="none" stroke="#000000" points="475,-522.5 475,-552.5 716,-552.5 716,-522.5 475,-522.5"/>
<text text-anchor="start" x="482" y="-533.9" font-family="Arial" font-size="14.00" fill="#000000">modified_by </text>
<text text-anchor="start" x="561.3506" y="-533.9" font-family="Arial" font-size="14.00" fill="#666666">[int(11)]</text>
<polygon fill="none" stroke="#000000" points="475,-492.5 475,-522.5 716,-522.5 716,-492.5 475,-492.5"/>
<text text-anchor="start" x="482" y="-503.9" font-family="Arial" font-size="14.00" fill="#000000">modified_by_user </text>
<text text-anchor="start" x="596.359" y="-503.9" font-family="Arial" font-size="14.00" fill="#666666">[varchar(191)]</text>
<polygon fill="none" stroke="#000000" points="475,-462.5 475,-492.5 716,-492.5 716,-462.5 475,-462.5"/>
<text text-anchor="start" x="482" y="-473.9" font-family="Arial" font-size="14.00" fill="#000000">checked_out </text>
<text text-anchor="start" x="565.2594" y="-473.9" font-family="Arial" font-size="14.00" fill="#666666">[datetime]</text>
<polygon fill="none" stroke="#000000" points="475,-432.5 475,-462.5 716,-462.5 716,-432.5 475,-432.5"/>
<text text-anchor="start" x="482" y="-443.9" font-family="Arial" font-size="14.00" fill="#000000">checked_out_by </text>
<text text-anchor="start" x="587.8246" y="-443.9" font-family="Arial" font-size="14.00" fill="#666666">[int(11)]</text>
<polygon fill="none" stroke="#000000" points="475,-402.5 475,-432.5 716,-432.5 716,-402.5 475,-402.5"/>
<text text-anchor="start" x="481.5239" y="-413.9" font-family="Arial" font-size="14.00" fill="#000000">checked_out_by_user </text>
<text text-anchor="start" x="622.3569" y="-413.9" font-family="Arial" font-size="14.00" fill="#666666">[varchar(191)]</text>
<polygon fill="none" stroke="#000000" points="475,-372.5 475,-402.5 716,-402.5 716,-372.5 475,-372.5"/>
<text text-anchor="start" x="482" y="-383.9" font-family="Arial" font-size="14.00" fill="#000000">username </text>
<text text-anchor="start" x="548.1248" y="-383.9" font-family="Arial" font-size="14.00" fill="#666666">[varchar(191)]</text>
<polygon fill="none" stroke="#000000" points="475,-342.5 475,-372.5 716,-372.5 716,-342.5 475,-342.5"/>
<text text-anchor="start" x="482" y="-353.9" font-family="Arial" font-size="14.00" fill="#000000">password </text>
<text text-anchor="start" x="545.7882" y="-353.9" font-family="Arial" font-size="14.00" fill="#666666">[varchar(64)]</text>
<polygon fill="none" stroke="#000000" points="475,-312.5 475,-342.5 716,-342.5 716,-312.5 475,-312.5"/>
<text text-anchor="start" x="482" y="-323.9" font-family="Arial" font-size="14.00" fill="#000000">first_name </text>
<text text-anchor="start" x="551.23" y="-323.9" font-family="Arial" font-size="14.00" fill="#666666">[varchar(191)]</text>
<polygon fill="none" stroke="#000000" points="475,-282.5 475,-312.5 716,-312.5 716,-282.5 475,-282.5"/>
<text text-anchor="start" x="482" y="-293.9" font-family="Arial" font-size="14.00" fill="#000000">last_name </text>
<text text-anchor="start" x="550.4614" y="-293.9" font-family="Arial" font-size="14.00" fill="#666666">[varchar(191)]</text>
<polygon fill="none" stroke="#000000" points="475,-252.5 475,-282.5 716,-282.5 716,-252.5 475,-252.5"/>
<text text-anchor="start" x="482" y="-263.9" font-family="Arial" font-size="14.00" fill="#000000">email </text>
<text text-anchor="start" x="519.3296" y="-263.9" font-family="Arial" font-size="14.00" fill="#666666">[varchar(191)]</text>
<polygon fill="none" stroke="#000000" points="475,-222.5 475,-252.5 716,-252.5 716,-222.5 475,-222.5"/>
<text text-anchor="start" x="482" y="-233.9" font-family="Arial" font-size="14.00" fill="#000000">position </text>
<text text-anchor="start" x="534.1248" y="-233.9" font-family="Arial" font-size="14.00" fill="#666666">[varchar(191)]</text>
<polygon fill="none" stroke="#000000" points="475,-192.5 475,-222.5 716,-222.5 716,-192.5 475,-192.5"/>
<text text-anchor="start" x="482" y="-203.9" font-family="Arial" font-size="14.00" fill="#000000">timezone </text>
<text text-anchor="start" x="542.6788" y="-203.9" font-family="Arial" font-size="14.00" fill="#666666">[varchar(191)]</text>
<polygon fill="none" stroke="#000000" points="475,-162.5 475,-192.5 716,-192.5 716,-162.5 475,-162.5"/>
<text text-anchor="start" x="482" y="-173.9" font-family="Arial" font-size="14.00" fill="#000000">locale </text>
<text text-anchor="start" x="522.4516" y="-173.9" font-family="Arial" font-size="14.00" fill="#666666">[varchar(191)]</text>
<polygon fill="none" stroke="#000000" points="475,-132.5 475,-162.5 716,-162.5 716,-132.5 475,-132.5"/>
<text text-anchor="start" x="482" y="-143.9" font-family="Arial" font-size="14.00" fill="#000000">last_login </text>
<text text-anchor="start" x="545.014" y="-143.9" font-family="Arial" font-size="14.00" fill="#666666">[datetime]</text>
<polygon fill="none" stroke="#000000" points="475,-102.5 475,-132.5 716,-132.5 716,-102.5 475,-102.5"/>
<text text-anchor="start" x="482" y="-113.9" font-family="Arial" font-size="14.00" fill="#000000">last_active </text>
<text text-anchor="start" x="552.0154" y="-113.9" font-family="Arial" font-size="14.00" fill="#666666">[datetime]</text>
<polygon fill="none" stroke="#000000" points="475,-72.5 475,-102.5 716,-102.5 716,-72.5 475,-72.5"/>
<text text-anchor="start" x="482" y="-83.9" font-family="Arial" font-size="14.00" fill="#000000">preferences </text>
<text text-anchor="start" x="559.798" y="-83.9" font-family="Arial" font-size="14.00" fill="#666666">[longtext]</text>
<polygon fill="none" stroke="#000000" points="475,-42.5 475,-72.5 716,-72.5 716,-42.5 475,-42.5"/>
<text text-anchor="start" x="482" y="-53.9" font-family="Arial" font-size="14.00" fill="#000000">signature </text>
<text text-anchor="start" x="543.4614" y="-53.9" font-family="Arial" font-size="14.00" fill="#666666">[longtext]</text>
</g>
<!-- oauth2_refreshtokens&#45;&gt;users -->
<g id="edge2" class="edge">
<title>oauth2_refreshtokens:user_id&#45;&gt;users:id</title>
<path fill="none" stroke="#000000" d="M579.128,-1026.6663C632.6924,-1017.1872 604.8345,-929.0964 569,-877 543.6466,-840.141 500.3534,-877.859 475,-841 451.4495,-806.7621 433.4444,-747.5 475,-747.5"/>
<polygon fill="#000000" stroke="#000000" points="578.9663,-1026.6796 568.6308,-1023.0152 573.9831,-1027.0898 569,-1027.5 569,-1027.5 569,-1027.5 573.9831,-1027.0898 569.3692,-1031.9848 578.9663,-1026.6796 578.9663,-1026.6796"/>
<text text-anchor="start" x="575.945" y="-1037.5" font-family="Arial" font-size="10.00" fill="#000000">FOREIGN KEY (user_id) REFERENCES users (id)</text>
</g>
</g>
</svg>
