<?xml version="1.0" encoding="UTF-8" standalone="no"?>
<!DOCTYPE svg PUBLIC "-//W3C//DTD SVG 1.1//EN"
 "http://www.w3.org/Graphics/SVG/1.1/DTD/svg11.dtd">
<!-- Generated by graphviz version 2.40.1 (20161225.0304)
 -->
<!-- Title: oauth2_clients Pages: 1 -->
<svg width="1538pt" height="1319pt"
 viewBox="0.00 0.00 1538.00 1319.00" xmlns="http://www.w3.org/2000/svg" xmlns:xlink="http://www.w3.org/1999/xlink">
<g id="graph0" class="graph" transform="scale(1 1) rotate(0) translate(4 1315)">
<title>oauth2_clients</title>
<polygon fill="#ffffff" stroke="transparent" points="-4,4 -4,-1315 1534,-1315 1534,4 -4,4"/>
<!-- oauth2_clients -->
<g id="node1" class="node">
<title>oauth2_clients</title>
<polygon fill="#efefef" stroke="transparent" points="636.5,-862.5 636.5,-897.5 863.5,-897.5 863.5,-862.5 636.5,-862.5"/>
<polygon fill="none" stroke="#000000" points="636.5,-862.5 636.5,-897.5 863.5,-897.5 863.5,-862.5 636.5,-862.5"/>
<text text-anchor="start" x="643.3519" y="-875.3" font-family="Arial Bold" font-size="18.00" fill="#000000">oauth2_clients</text>
<text text-anchor="start" x="759.3943" y="-875.3" font-family="Arial" font-size="14.00" fill="#000000"> </text>
<text text-anchor="start" x="763.2849" y="-875.3" font-family="Arial" font-size="14.00" fill="#666666">[BASE TABLE]</text>
<polygon fill="none" stroke="#000000" points="636.5,-832.5 636.5,-862.5 863.5,-862.5 863.5,-832.5 636.5,-832.5"/>
<text text-anchor="start" x="643.5" y="-843.9" font-family="Arial" font-size="14.00" fill="#000000">id </text>
<text text-anchor="start" x="658.2798" y="-843.9" font-family="Arial" font-size="14.00" fill="#666666">[int(10) unsigned]</text>
<polygon fill="none" stroke="#000000" points="636.5,-802.5 636.5,-832.5 863.5,-832.5 863.5,-802.5 636.5,-802.5"/>
<text text-anchor="start" x="643.5" y="-813.9" font-family="Arial" font-size="14.00" fill="#000000">role_id </text>
<text text-anchor="start" x="689.3948" y="-813.9" font-family="Arial" font-size="14.00" fill="#666666">[int(10) unsigned]</text>
<polygon fill="none" stroke="#000000" points="636.5,-772.5 636.5,-802.5 863.5,-802.5 863.5,-772.5 636.5,-772.5"/>
<text text-anchor="start" x="643.5" y="-783.9" font-family="Arial" font-size="14.00" fill="#000000">name </text>
<text text-anchor="start" x="682.399" y="-783.9" font-family="Arial" font-size="14.00" fill="#666666">[varchar(191)]</text>
<polygon fill="none" stroke="#000000" points="636.5,-742.5 636.5,-772.5 863.5,-772.5 863.5,-742.5 636.5,-742.5"/>
<text text-anchor="start" x="643.5" y="-753.9" font-family="Arial" font-size="14.00" fill="#000000">random_id </text>
<text text-anchor="start" x="713.514" y="-753.9" font-family="Arial" font-size="14.00" fill="#666666">[varchar(191)]</text>
<polygon fill="none" stroke="#000000" points="636.5,-712.5 636.5,-742.5 863.5,-742.5 863.5,-712.5 636.5,-712.5"/>
<text text-anchor="start" x="643.5" y="-723.9" font-family="Arial" font-size="14.00" fill="#000000">secret </text>
<text text-anchor="start" x="685.507" y="-723.9" font-family="Arial" font-size="14.00" fill="#666666">[varchar(191)]</text>
<polygon fill="none" stroke="#000000" points="636.5,-682.5 636.5,-712.5 863.5,-712.5 863.5,-682.5 636.5,-682.5"/>
<text text-anchor="start" x="643.5" y="-693.9" font-family="Arial" font-size="14.00" fill="#000000">redirect_uris </text>
<text text-anchor="start" x="724.3892" y="-693.9" font-family="Arial" font-size="14.00" fill="#666666">[longtext]</text>
<polygon fill="none" stroke="#000000" points="636.5,-652.5 636.5,-682.5 863.5,-682.5 863.5,-652.5 636.5,-652.5"/>
<text text-anchor="start" x="643.5" y="-663.9" font-family="Arial" font-size="14.00" fill="#000000">allowed_grant_types </text>
<text text-anchor="start" x="775.7608" y="-663.9" font-family="Arial" font-size="14.00" fill="#666666">[longtext]</text>
<polygon fill="none" stroke="#000000" stroke-width="3" points="634.5,-651.5 634.5,-899.5 864.5,-899.5 864.5,-651.5 634.5,-651.5"/>
</g>
<!-- roles -->
<g id="node6" class="node">
<title>roles</title>
<polygon fill="#efefef" stroke="transparent" points="629.5,-492.5 629.5,-527.5 870.5,-527.5 870.5,-492.5 629.5,-492.5"/>
<polygon fill="none" stroke="#000000" points="629.5,-492.5 629.5,-527.5 870.5,-527.5 870.5,-492.5 629.5,-492.5"/>
<text text-anchor="start" x="681.8737" y="-505.3" font-family="Arial Bold" font-size="18.00" fill="#000000">roles</text>
<text text-anchor="start" x="720.8725" y="-505.3" font-family="Arial" font-size="14.00" fill="#000000"> </text>
<text text-anchor="start" x="724.7631" y="-505.3" font-family="Arial" font-size="14.00" fill="#666666">[BASE TABLE]</text>
<polygon fill="none" stroke="#000000" points="629.5,-462.5 629.5,-492.5 870.5,-492.5 870.5,-462.5 629.5,-462.5"/>
<text text-anchor="start" x="636.5" y="-473.9" font-family="Arial" font-size="14.00" fill="#000000">id </text>
<text text-anchor="start" x="651.2798" y="-473.9" font-family="Arial" font-size="14.00" fill="#666666">[int(10) unsigned]</text>
<polygon fill="none" stroke="#000000" points="629.5,-432.5 629.5,-462.5 870.5,-462.5 870.5,-432.5 629.5,-432.5"/>
<text text-anchor="start" x="636.5" y="-443.9" font-family="Arial" font-size="14.00" fill="#000000">is_published </text>
<text text-anchor="start" x="718.1886" y="-443.9" font-family="Arial" font-size="14.00" fill="#666666">[tinyint(1)]</text>
<polygon fill="none" stroke="#000000" points="629.5,-402.5 629.5,-432.5 870.5,-432.5 870.5,-402.5 629.5,-402.5"/>
<text text-anchor="start" x="636.5" y="-413.9" font-family="Arial" font-size="14.00" fill="#000000">date_added </text>
<text text-anchor="start" x="714.3246" y="-413.9" font-family="Arial" font-size="14.00" fill="#666666">[datetime]</text>
<polygon fill="none" stroke="#000000" points="629.5,-372.5 629.5,-402.5 870.5,-402.5 870.5,-372.5 629.5,-372.5"/>
<text text-anchor="start" x="636.5" y="-383.9" font-family="Arial" font-size="14.00" fill="#000000">created_by </text>
<text text-anchor="start" x="709.6374" y="-383.9" font-family="Arial" font-size="14.00" fill="#666666">[int(11)]</text>
<polygon fill="none" stroke="#000000" points="629.5,-342.5 629.5,-372.5 870.5,-372.5 870.5,-342.5 629.5,-342.5"/>
<text text-anchor="start" x="636.5" y="-353.9" font-family="Arial" font-size="14.00" fill="#000000">created_by_user </text>
<text text-anchor="start" x="744.6458" y="-353.9" font-family="Arial" font-size="14.00" fill="#666666">[varchar(191)]</text>
<polygon fill="none" stroke="#000000" points="629.5,-312.5 629.5,-342.5 870.5,-342.5 870.5,-312.5 629.5,-312.5"/>
<text text-anchor="start" x="636.5" y="-323.9" font-family="Arial" font-size="14.00" fill="#000000">date_modified </text>
<text text-anchor="start" x="728.3064" y="-323.9" font-family="Arial" font-size="14.00" fill="#666666">[datetime]</text>
<polygon fill="none" stroke="#000000" points="629.5,-282.5 629.5,-312.5 870.5,-312.5 870.5,-282.5 629.5,-282.5"/>
<text text-anchor="start" x="636.5" y="-293.9" font-family="Arial" font-size="14.00" fill="#000000">modified_by </text>
<text text-anchor="start" x="715.8506" y="-293.9" font-family="Arial" font-size="14.00" fill="#666666">[int(11)]</text>
<polygon fill="none" stroke="#000000" points="629.5,-252.5 629.5,-282.5 870.5,-282.5 870.5,-252.5 629.5,-252.5"/>
<text text-anchor="start" x="636.5" y="-263.9" font-family="Arial" font-size="14.00" fill="#000000">modified_by_user </text>
<text text-anchor="start" x="750.859" y="-263.9" font-family="Arial" font-size="14.00" fill="#666666">[varchar(191)]</text>
<polygon fill="none" stroke="#000000" points="629.5,-222.5 629.5,-252.5 870.5,-252.5 870.5,-222.5 629.5,-222.5"/>
<text text-anchor="start" x="636.5" y="-233.9" font-family="Arial" font-size="14.00" fill="#000000">checked_out </text>
<text text-anchor="start" x="719.7594" y="-233.9" font-family="Arial" font-size="14.00" fill="#666666">[datetime]</text>
<polygon fill="none" stroke="#000000" points="629.5,-192.5 629.5,-222.5 870.5,-222.5 870.5,-192.5 629.5,-192.5"/>
<text text-anchor="start" x="636.5" y="-203.9" font-family="Arial" font-size="14.00" fill="#000000">checked_out_by </text>
<text text-anchor="start" x="742.3246" y="-203.9" font-family="Arial" font-size="14.00" fill="#666666">[int(11)]</text>
<polygon fill="none" stroke="#000000" points="629.5,-162.5 629.5,-192.5 870.5,-192.5 870.5,-162.5 629.5,-162.5"/>
<text text-anchor="start" x="636.0239" y="-173.9" font-family="Arial" font-size="14.00" fill="#000000">checked_out_by_user </text>
<text text-anchor="start" x="776.8569" y="-173.9" font-family="Arial" font-size="14.00" fill="#666666">[varchar(191)]</text>
<polygon fill="none" stroke="#000000" points="629.5,-132.5 629.5,-162.5 870.5,-162.5 870.5,-132.5 629.5,-132.5"/>
<text text-anchor="start" x="636.5" y="-143.9" font-family="Arial" font-size="14.00" fill="#000000">name </text>
<text text-anchor="start" x="675.399" y="-143.9" font-family="Arial" font-size="14.00" fill="#666666">[varchar(191)]</text>
<polygon fill="none" stroke="#000000" points="629.5,-102.5 629.5,-132.5 870.5,-132.5 870.5,-102.5 629.5,-102.5"/>
<text text-anchor="start" x="636.5" y="-113.9" font-family="Arial" font-size="14.00" fill="#000000">description </text>
<text text-anchor="start" x="708.068" y="-113.9" font-family="Arial" font-size="14.00" fill="#666666">[longtext]</text>
<polygon fill="none" stroke="#000000" points="629.5,-72.5 629.5,-102.5 870.5,-102.5 870.5,-72.5 629.5,-72.5"/>
<text text-anchor="start" x="636.5" y="-83.9" font-family="Arial" font-size="14.00" fill="#000000">is_admin </text>
<text text-anchor="start" x="696.3948" y="-83.9" font-family="Arial" font-size="14.00" fill="#666666">[tinyint(1)]</text>
<polygon fill="none" stroke="#000000" points="629.5,-42.5 629.5,-72.5 870.5,-72.5 870.5,-42.5 629.5,-42.5"/>
<text text-anchor="start" x="636.5" y="-53.9" font-family="Arial" font-size="14.00" fill="#000000">readable_permissions </text>
<text text-anchor="start" x="777.3008" y="-53.9" font-family="Arial" font-size="14.00" fill="#666666">[longtext]</text>
</g>
<!-- oauth2_clients&#45;&gt;roles -->
<g id="edge5" class="edge">
<title>oauth2_clients:role_id&#45;&gt;roles:id</title>
<path fill="none" stroke="#000000" d="M626.1105,-816.9485C485.1156,-801.7493 481.8993,-477.5 629.5,-477.5"/>
<polygon fill="#000000" stroke="#000000" points="626.5141,-816.9698 636.2614,-821.9937 631.507,-817.2349 636.5,-817.5 636.5,-817.5 636.5,-817.5 631.507,-817.2349 636.7386,-813.0063 626.5141,-816.9698 626.5141,-816.9698"/>
<text text-anchor="start" x="409.226" y="-827.5" font-family="Arial" font-size="10.00" fill="#000000">FOREIGN KEY (role_id) REFERENCES roles (id)</text>
</g>
<!-- oauth2_accesstokens -->
<g id="node2" class="node">
<title>oauth2_accesstokens</title>
<polygon fill="#efefef" stroke="transparent" points="43.5,-1217.5 43.5,-1252.5 328.5,-1252.5 328.5,-1217.5 43.5,-1217.5"/>
<polygon fill="none" stroke="#000000" points="43.5,-1217.5 43.5,-1252.5 328.5,-1252.5 328.5,-1217.5 43.5,-1217.5"/>
<text text-anchor="start" x="50.3368" y="-1230.3" font-family="Arial Bold" font-size="18.00" fill="#000000">oauth2_accesstokens</text>
<text text-anchor="start" x="224.4094" y="-1230.3" font-family="Arial" font-size="14.00" fill="#000000"> </text>
<text text-anchor="start" x="228.3" y="-1230.3" font-family="Arial" font-size="14.00" fill="#666666">[BASE TABLE]</text>
<polygon fill="none" stroke="#000000" points="43.5,-1187.5 43.5,-1217.5 328.5,-1217.5 328.5,-1187.5 43.5,-1187.5"/>
<text text-anchor="start" x="50.5" y="-1198.9" font-family="Arial" font-size="14.00" fill="#000000">id </text>
<text text-anchor="start" x="65.2798" y="-1198.9" font-family="Arial" font-size="14.00" fill="#666666">[int(11)]</text>
<polygon fill="none" stroke="#000000" points="43.5,-1157.5 43.5,-1187.5 328.5,-1187.5 328.5,-1157.5 43.5,-1157.5"/>
<text text-anchor="start" x="50.5" y="-1168.9" font-family="Arial" font-size="14.00" fill="#000000">client_id </text>
<text text-anchor="start" x="105.7314" y="-1168.9" font-family="Arial" font-size="14.00" fill="#666666">[int(10) unsigned]</text>
<polygon fill="none" stroke="#000000" points="43.5,-1127.5 43.5,-1157.5 328.5,-1157.5 328.5,-1127.5 43.5,-1127.5"/>
<text text-anchor="start" x="50.5" y="-1138.9" font-family="Arial" font-size="14.00" fill="#000000">user_id </text>
<text text-anchor="start" x="100.2882" y="-1138.9" font-family="Arial" font-size="14.00" fill="#666666">[int(10) unsigned]</text>
<polygon fill="none" stroke="#000000" points="43.5,-1097.5 43.5,-1127.5 328.5,-1127.5 328.5,-1097.5 43.5,-1097.5"/>
<text text-anchor="start" x="50.5" y="-1108.9" font-family="Arial" font-size="14.00" fill="#000000">token </text>
<text text-anchor="start" x="88.629" y="-1108.9" font-family="Arial" font-size="14.00" fill="#666666">[varchar(191)]</text>
<polygon fill="none" stroke="#000000" points="43.5,-1067.5 43.5,-1097.5 328.5,-1097.5 328.5,-1067.5 43.5,-1067.5"/>
<text text-anchor="start" x="50.5" y="-1078.9" font-family="Arial" font-size="14.00" fill="#000000">expires_at </text>
<text text-anchor="start" x="118.9614" y="-1078.9" font-family="Arial" font-size="14.00" fill="#666666">[bigint(20)]</text>
<polygon fill="none" stroke="#000000" points="43.5,-1037.5 43.5,-1067.5 328.5,-1067.5 328.5,-1037.5 43.5,-1037.5"/>
<text text-anchor="start" x="50.5" y="-1048.9" font-family="Arial" font-size="14.00" fill="#000000">scope </text>
<text text-anchor="start" x="91.7384" y="-1048.9" font-family="Arial" font-size="14.00" fill="#666666">[varchar(191)]</text>
</g>
<!-- oauth2_accesstokens&#45;&gt;oauth2_clients -->
<g id="edge1" class="edge">
<title>oauth2_accesstokens:client_id&#45;&gt;oauth2_clients:id</title>
<path fill="none" stroke="#000000" d="M338.4975,-1171.889C409.6325,-1162.4604 326.3361,-1046.1643 379.5,-980 459.9935,-879.8231 507.9908,-847.5 636.5,-847.5"/>
<polygon fill="#000000" stroke="#000000" points="338.4814,-1171.8899 328.2254,-1168.0084 333.4907,-1172.1949 328.5,-1172.5 328.5,-1172.5 328.5,-1172.5 333.4907,-1172.1949 328.7746,-1176.9916 338.4814,-1171.8899 338.4814,-1171.8899"/>
<text text-anchor="start" x="193.4905" y="-1156.5" font-family="Arial" font-size="10.00" fill="#000000">FOREIGN KEY (client_id) REFERENCES oauth2_clients (id)</text>
</g>
<!-- oauth2_authcodes -->
<g id="node3" class="node">
<title>oauth2_authcodes</title>
<polygon fill="#efefef" stroke="transparent" points="432.5,-1232.5 432.5,-1267.5 691.5,-1267.5 691.5,-1232.5 432.5,-1232.5"/>
<polygon fill="none" stroke="#000000" points="432.5,-1232.5 432.5,-1267.5 691.5,-1267.5 691.5,-1232.5 432.5,-1232.5"/>
<text text-anchor="start" x="439.3337" y="-1245.3" font-family="Arial Bold" font-size="18.00" fill="#000000">oauth2_authcodes</text>
<text text-anchor="start" x="587.4125" y="-1245.3" font-family="Arial" font-size="14.00" fill="#000000"> </text>
<text text-anchor="start" x="591.3031" y="-1245.3" font-family="Arial" font-size="14.00" fill="#666666">[BASE TABLE]</text>
<polygon fill="none" stroke="#000000" points="432.5,-1202.5 432.5,-1232.5 691.5,-1232.5 691.5,-1202.5 432.5,-1202.5"/>
<text text-anchor="start" x="439.5" y="-1213.9" font-family="Arial" font-size="14.00" fill="#000000">id </text>
<text text-anchor="start" x="454.2798" y="-1213.9" font-family="Arial" font-size="14.00" fill="#666666">[int(11)]</text>
<polygon fill="none" stroke="#000000" points="432.5,-1172.5 432.5,-1202.5 691.5,-1202.5 691.5,-1172.5 432.5,-1172.5"/>
<text text-anchor="start" x="439.5" y="-1183.9" font-family="Arial" font-size="14.00" fill="#000000">client_id </text>
<text text-anchor="start" x="494.7314" y="-1183.9" font-family="Arial" font-size="14.00" fill="#666666">[int(10) unsigned]</text>
<polygon fill="none" stroke="#000000" points="432.5,-1142.5 432.5,-1172.5 691.5,-1172.5 691.5,-1142.5 432.5,-1142.5"/>
<text text-anchor="start" x="439.5" y="-1153.9" font-family="Arial" font-size="14.00" fill="#000000">user_id </text>
<text text-anchor="start" x="489.2882" y="-1153.9" font-family="Arial" font-size="14.00" fill="#666666">[int(10) unsigned]</text>
<polygon fill="none" stroke="#000000" points="432.5,-1112.5 432.5,-1142.5 691.5,-1142.5 691.5,-1112.5 432.5,-1112.5"/>
<text text-anchor="start" x="439.5" y="-1123.9" font-family="Arial" font-size="14.00" fill="#000000">token </text>
<text text-anchor="start" x="477.629" y="-1123.9" font-family="Arial" font-size="14.00" fill="#666666">[varchar(191)]</text>
<polygon fill="none" stroke="#000000" points="432.5,-1082.5 432.5,-1112.5 691.5,-1112.5 691.5,-1082.5 432.5,-1082.5"/>
<text text-anchor="start" x="439.5" y="-1093.9" font-family="Arial" font-size="14.00" fill="#000000">expires_at </text>
<text text-anchor="start" x="507.9614" y="-1093.9" font-family="Arial" font-size="14.00" fill="#666666">[bigint(20)]</text>
<polygon fill="none" stroke="#000000" points="432.5,-1052.5 432.5,-1082.5 691.5,-1082.5 691.5,-1052.5 432.5,-1052.5"/>
<text text-anchor="start" x="439.5" y="-1063.9" font-family="Arial" font-size="14.00" fill="#000000">scope </text>
<text text-anchor="start" x="480.7384" y="-1063.9" font-family="Arial" font-size="14.00" fill="#666666">[varchar(191)]</text>
<polygon fill="none" stroke="#000000" points="432.5,-1022.5 432.5,-1052.5 691.5,-1052.5 691.5,-1022.5 432.5,-1022.5"/>
<text text-anchor="start" x="439.5" y="-1033.9" font-family="Arial" font-size="14.00" fill="#000000">redirect_uri </text>
<text text-anchor="start" x="513.3892" y="-1033.9" font-family="Arial" font-size="14.00" fill="#666666">[longtext]</text>
</g>
<!-- oauth2_authcodes&#45;&gt;oauth2_clients -->
<g id="edge2" class="edge">
<title>oauth2_authcodes:client_id&#45;&gt;oauth2_clients:id</title>
<path fill="none" stroke="#000000" d="M701.4687,-1184.2919C733.6589,-1160.9623 711.6304,-1017.2354 691.5,-980 677.606,-954.3 650.394,-969.7 636.5,-944 616.1032,-906.2717 593.6111,-847.5 636.5,-847.5"/>
<polygon fill="#000000" stroke="#000000" points="701.0192,-1184.4365 690.1214,-1183.2164 696.2596,-1185.9682 691.5,-1187.5 691.5,-1187.5 691.5,-1187.5 696.2596,-1185.9682 692.8786,-1191.7836 701.0192,-1184.4365 701.0192,-1184.4365"/>
<text text-anchor="start" x="698.4905" y="-1197.5" font-family="Arial" font-size="10.00" fill="#000000">FOREIGN KEY (client_id) REFERENCES oauth2_clients (id)</text>
</g>
<!-- oauth2_refreshtokens -->
<g id="node4" class="node">
<title>oauth2_refreshtokens</title>
<polygon fill="#efefef" stroke="transparent" points="795.5,-1217.5 795.5,-1252.5 1080.5,-1252.5 1080.5,-1217.5 795.5,-1217.5"/>
<polygon fill="none" stroke="#000000" points="795.5,-1217.5 795.5,-1252.5 1080.5,-1252.5 1080.5,-1217.5 795.5,-1217.5"/>
<text text-anchor="start" x="802.3404" y="-1230.3" font-family="Arial Bold" font-size="18.00" fill="#000000">oauth2_refreshtokens</text>
<text text-anchor="start" x="976.4058" y="-1230.3" font-family="Arial" font-size="14.00" fill="#000000"> </text>
<text text-anchor="start" x="980.2964" y="-1230.3" font-family="Arial" font-size="14.00" fill="#666666">[BASE TABLE]</text>
<polygon fill="none" stroke="#000000" points="795.5,-1187.5 795.5,-1217.5 1080.5,-1217.5 1080.5,-1187.5 795.5,-1187.5"/>
<text text-anchor="start" x="802.5" y="-1198.9" font-family="Arial" font-size="14.00" fill="#000000">id </text>
<text text-anchor="start" x="817.2798" y="-1198.9" font-family="Arial" font-size="14.00" fill="#666666">[int(11)]</text>
<polygon fill="none" stroke="#000000" points="795.5,-1157.5 795.5,-1187.5 1080.5,-1187.5 1080.5,-1157.5 795.5,-1157.5"/>
<text text-anchor="start" x="802.5" y="-1168.9" font-family="Arial" font-size="14.00" fill="#000000">client_id </text>
<text text-anchor="start" x="857.7314" y="-1168.9" font-family="Arial" font-size="14.00" fill="#666666">[int(10) unsigned]</text>
<polygon fill="none" stroke="#000000" points="795.5,-1127.5 795.5,-1157.5 1080.5,-1157.5 1080.5,-1127.5 795.5,-1127.5"/>
<text text-anchor="start" x="802.5" y="-1138.9" font-family="Arial" font-size="14.00" fill="#000000">user_id </text>
<text text-anchor="start" x="852.2882" y="-1138.9" font-family="Arial" font-size="14.00" fill="#666666">[int(10) unsigned]</text>
<polygon fill="none" stroke="#000000" points="795.5,-1097.5 795.5,-1127.5 1080.5,-1127.5 1080.5,-1097.5 795.5,-1097.5"/>
<text text-anchor="start" x="802.5" y="-1108.9" font-family="Arial" font-size="14.00" fill="#000000">token </text>
<text text-anchor="start" x="840.629" y="-1108.9" font-family="Arial" font-size="14.00" fill="#666666">[varchar(191)]</text>
<polygon fill="none" stroke="#000000" points="795.5,-1067.5 795.5,-1097.5 1080.5,-1097.5 1080.5,-1067.5 795.5,-1067.5"/>
<text text-anchor="start" x="802.5" y="-1078.9" font-family="Arial" font-size="14.00" fill="#000000">expires_at </text>
<text text-anchor="start" x="870.9614" y="-1078.9" font-family="Arial" font-size="14.00" fill="#666666">[bigint(20)]</text>
<polygon fill="none" stroke="#000000" points="795.5,-1037.5 795.5,-1067.5 1080.5,-1067.5 1080.5,-1037.5 795.5,-1037.5"/>
<text text-anchor="start" x="802.5" y="-1048.9" font-family="Arial" font-size="14.00" fill="#000000">scope </text>
<text text-anchor="start" x="843.7384" y="-1048.9" font-family="Arial" font-size="14.00" fill="#666666">[varchar(191)]</text>
</g>
<!-- oauth2_refreshtokens&#45;&gt;oauth2_clients -->
<g id="edge3" class="edge">
<title>oauth2_refreshtokens:client_id&#45;&gt;oauth2_clients:id</title>
<path fill="none" stroke="#000000" d="M785.2003,-1171.8098C720.6811,-1162.5543 761.8736,-1062.2529 795.5,-995 812.3947,-961.2105 846.6053,-977.7895 863.5,-944 882.6805,-905.639 906.3889,-847.5 863.5,-847.5"/>
<polygon fill="#000000" stroke="#000000" points="785.5224,-1171.8313 795.1991,-1176.9899 790.5112,-1172.1657 795.5,-1172.5 795.5,-1172.5 795.5,-1172.5 790.5112,-1172.1657 795.8009,-1168.0101 785.5224,-1171.8313 785.5224,-1171.8313"/>
<text text-anchor="start" x="802.4905" y="-1156.5" font-family="Arial" font-size="10.00" fill="#000000">FOREIGN KEY (client_id) REFERENCES oauth2_clients (id)</text>
</g>
<!-- oauth2_user_client_xref -->
<g id="node5" class="node">
<title>oauth2_user_client_xref</title>
<polygon fill="#efefef" stroke="transparent" points="1184.5,-1157.5 1184.5,-1192.5 1487.5,-1192.5 1487.5,-1157.5 1184.5,-1157.5"/>
<polygon fill="none" stroke="#000000" points="1184.5,-1157.5 1184.5,-1192.5 1487.5,-1192.5 1487.5,-1157.5 1184.5,-1157.5"/>
<text text-anchor="start" x="1191.3431" y="-1170.3" font-family="Arial Bold" font-size="18.00" fill="#000000">oauth2_user_client_xref</text>
<text text-anchor="start" x="1383.4031" y="-1170.3" font-family="Arial" font-size="14.00" fill="#000000"> </text>
<text text-anchor="start" x="1387.2937" y="-1170.3" font-family="Arial" font-size="14.00" fill="#666666">[BASE TABLE]</text>
<polygon fill="none" stroke="#000000" points="1184.5,-1127.5 1184.5,-1157.5 1487.5,-1157.5 1487.5,-1127.5 1184.5,-1127.5"/>
<text text-anchor="start" x="1191.5" y="-1138.9" font-family="Arial" font-size="14.00" fill="#000000">client_id </text>
<text text-anchor="start" x="1246.7314" y="-1138.9" font-family="Arial" font-size="14.00" fill="#666666">[int(10) unsigned]</text>
<polygon fill="none" stroke="#000000" points="1184.5,-1097.5 1184.5,-1127.5 1487.5,-1127.5 1487.5,-1097.5 1184.5,-1097.5"/>
<text text-anchor="start" x="1191.5" y="-1108.9" font-family="Arial" font-size="14.00" fill="#000000">user_id </text>
<text text-anchor="start" x="1241.2882" y="-1108.9" font-family="Arial" font-size="14.00" fill="#666666">[int(10) unsigned]</text>
</g>
<!-- oauth2_user_client_xref&#45;&gt;oauth2_clients -->
<g id="edge4" class="edge">
<title>oauth2_user_client_xref:client_id&#45;&gt;oauth2_clients:id</title>
<path fill="none" stroke="#000000" d="M1174.4274,-1141.7663C1115.5393,-1132.3535 1179.592,-1034.6323 1132.5,-980 1045.4865,-879.054 996.772,-847.5 863.5,-847.5"/>
<polygon fill="#000000" stroke="#000000" points="1174.5264,-1141.7734 1184.173,-1146.9881 1179.5132,-1142.1367 1184.5,-1142.5 1184.5,-1142.5 1184.5,-1142.5 1179.5132,-1142.1367 1184.827,-1138.0119 1174.5264,-1141.7734 1174.5264,-1141.7734"/>
<text text-anchor="start" x="978.4905" y="-1126.5" font-family="Arial" font-size="10.00" fill="#000000">FOREIGN KEY (client_id) REFERENCES oauth2_clients (id)</text>
</g>
</g>
</svg>
