<?xml version="1.0" encoding="UTF-8" standalone="no"?>
<!DOCTYPE svg PUBLIC "-//W3C//DTD SVG 1.1//EN"
 "http://www.w3.org/Graphics/SVG/1.1/DTD/svg11.dtd">
<!-- Generated by graphviz version 2.40.1 (20161225.0304)
 -->
<!-- Title: oauth2_authcodes Pages: 1 -->
<svg width="791pt" height="1222pt"
 viewBox="0.00 0.00 791.00 1222.00" xmlns="http://www.w3.org/2000/svg" xmlns:xlink="http://www.w3.org/1999/xlink">
<g id="graph0" class="graph" transform="scale(1 1) rotate(0) translate(4 1218)">
<title>oauth2_authcodes</title>
<polygon fill="#ffffff" stroke="transparent" points="-4,4 -4,-1218 787,-1218 787,4 -4,4"/>
<!-- oauth2_authcodes -->
<g id="node1" class="node">
<title>oauth2_authcodes</title>
<polygon fill="#efefef" stroke="transparent" points="284,-1132.5 284,-1167.5 543,-1167.5 543,-1132.5 284,-1132.5"/>
<polygon fill="none" stroke="#000000" points="284,-1132.5 284,-1167.5 543,-1167.5 543,-1132.5 284,-1132.5"/>
<text text-anchor="start" x="290.8337" y="-1145.3" font-family="Arial Bold" font-size="18.00" fill="#000000">oauth2_authcodes</text>
<text text-anchor="start" x="438.9125" y="-1145.3" font-family="Arial" font-size="14.00" fill="#000000"> </text>
<text text-anchor="start" x="442.8031" y="-1145.3" font-family="Arial" font-size="14.00" fill="#666666">[BASE TABLE]</text>
<polygon fill="none" stroke="#000000" points="284,-1102.5 284,-1132.5 543,-1132.5 543,-1102.5 284,-1102.5"/>
<text text-anchor="start" x="291" y="-1113.9" font-family="Arial" font-size="14.00" fill="#000000">id </text>
<text text-anchor="start" x="305.7798" y="-1113.9" font-family="Arial" font-size="14.00" fill="#666666">[int(11)]</text>
<polygon fill="none" stroke="#000000" points="284,-1072.5 284,-1102.5 543,-1102.5 543,-1072.5 284,-1072.5"/>
<text text-anchor="start" x="291" y="-1083.9" font-family="Arial" font-size="14.00" fill="#000000">client_id </text>
<text text-anchor="start" x="346.2314" y="-1083.9" font-family="Arial" font-size="14.00" fill="#666666">[int(10) unsigned]</text>
<polygon fill="none" stroke="#000000" points="284,-1042.5 284,-1072.5 543,-1072.5 543,-1042.5 284,-1042.5"/>
<text text-anchor="start" x="291" y="-1053.9" font-family="Arial" font-size="14.00" fill="#000000">user_id </text>
<text text-anchor="start" x="340.7882" y="-1053.9" font-family="Arial" font-size="14.00" fill="#666666">[int(10) unsigned]</text>
<polygon fill="none" stroke="#000000" points="284,-1012.5 284,-1042.5 543,-1042.5 543,-1012.5 284,-1012.5"/>
<text text-anchor="start" x="291" y="-1023.9" font-family="Arial" font-size="14.00" fill="#000000">token </text>
<text text-anchor="start" x="329.129" y="-1023.9" font-family="Arial" font-size="14.00" fill="#666666">[varchar(191)]</text>
<polygon fill="none" stroke="#000000" points="284,-982.5 284,-1012.5 543,-1012.5 543,-982.5 284,-982.5"/>
<text text-anchor="start" x="291" y="-993.9" font-family="Arial" font-size="14.00" fill="#000000">expires_at </text>
<text text-anchor="start" x="359.4614" y="-993.9" font-family="Arial" font-size="14.00" fill="#666666">[bigint(20)]</text>
<polygon fill="none" stroke="#000000" points="284,-952.5 284,-982.5 543,-982.5 543,-952.5 284,-952.5"/>
<text text-anchor="start" x="291" y="-963.9" font-family="Arial" font-size="14.00" fill="#000000">scope </text>
<text text-anchor="start" x="332.2384" y="-963.9" font-family="Arial" font-size="14.00" fill="#666666">[varchar(191)]</text>
<polygon fill="none" stroke="#000000" points="284,-922.5 284,-952.5 543,-952.5 543,-922.5 284,-922.5"/>
<text text-anchor="start" x="291" y="-933.9" font-family="Arial" font-size="14.00" fill="#000000">redirect_uri </text>
<text text-anchor="start" x="364.8892" y="-933.9" font-family="Arial" font-size="14.00" fill="#666666">[longtext]</text>
<polygon fill="none" stroke="#000000" stroke-width="3" points="282,-921.5 282,-1169.5 544,-1169.5 544,-921.5 282,-921.5"/>
</g>
<!-- oauth2_clients -->
<g id="node2" class="node">
<title>oauth2_clients</title>
<polygon fill="#efefef" stroke="transparent" points="131,-507.5 131,-542.5 358,-542.5 358,-507.5 131,-507.5"/>
<polygon fill="none" stroke="#000000" points="131,-507.5 131,-542.5 358,-542.5 358,-507.5 131,-507.5"/>
<text text-anchor="start" x="137.8519" y="-520.3" font-family="Arial Bold" font-size="18.00" fill="#000000">oauth2_clients</text>
<text text-anchor="start" x="253.8943" y="-520.3" font-family="Arial" font-size="14.00" fill="#000000"> </text>
<text text-anchor="start" x="257.7849" y="-520.3" font-family="Arial" font-size="14.00" fill="#666666">[BASE TABLE]</text>
<polygon fill="none" stroke="#000000" points="131,-477.5 131,-507.5 358,-507.5 358,-477.5 131,-477.5"/>
<text text-anchor="start" x="138" y="-488.9" font-family="Arial" font-size="14.00" fill="#000000">id </text>
<text text-anchor="start" x="152.7798" y="-488.9" font-family="Arial" font-size="14.00" fill="#666666">[int(10) unsigned]</text>
<polygon fill="none" stroke="#000000" points="131,-447.5 131,-477.5 358,-477.5 358,-447.5 131,-447.5"/>
<text text-anchor="start" x="138" y="-458.9" font-family="Arial" font-size="14.00" fill="#000000">role_id </text>
<text text-anchor="start" x="183.8948" y="-458.9" font-family="Arial" font-size="14.00" fill="#666666">[int(10) unsigned]</text>
<polygon fill="none" stroke="#000000" points="131,-417.5 131,-447.5 358,-447.5 358,-417.5 131,-417.5"/>
<text text-anchor="start" x="138" y="-428.9" font-family="Arial" font-size="14.00" fill="#000000">name </text>
<text text-anchor="start" x="176.899" y="-428.9" font-family="Arial" font-size="14.00" fill="#666666">[varchar(191)]</text>
<polygon fill="none" stroke="#000000" points="131,-387.5 131,-417.5 358,-417.5 358,-387.5 131,-387.5"/>
<text text-anchor="start" x="138" y="-398.9" font-family="Arial" font-size="14.00" fill="#000000">random_id </text>
<text text-anchor="start" x="208.014" y="-398.9" font-family="Arial" font-size="14.00" fill="#666666">[varchar(191)]</text>
<polygon fill="none" stroke="#000000" points="131,-357.5 131,-387.5 358,-387.5 358,-357.5 131,-357.5"/>
<text text-anchor="start" x="138" y="-368.9" font-family="Arial" font-size="14.00" fill="#000000">secret </text>
<text text-anchor="start" x="180.007" y="-368.9" font-family="Arial" font-size="14.00" fill="#666666">[varchar(191)]</text>
<polygon fill="none" stroke="#000000" points="131,-327.5 131,-357.5 358,-357.5 358,-327.5 131,-327.5"/>
<text text-anchor="start" x="138" y="-338.9" font-family="Arial" font-size="14.00" fill="#000000">redirect_uris </text>
<text text-anchor="start" x="218.8892" y="-338.9" font-family="Arial" font-size="14.00" fill="#666666">[longtext]</text>
<polygon fill="none" stroke="#000000" points="131,-297.5 131,-327.5 358,-327.5 358,-297.5 131,-297.5"/>
<text text-anchor="start" x="138" y="-308.9" font-family="Arial" font-size="14.00" fill="#000000">allowed_grant_types </text>
<text text-anchor="start" x="270.2608" y="-308.9" font-family="Arial" font-size="14.00" fill="#666666">[longtext]</text>
</g>
<!-- oauth2_authcodes&#45;&gt;oauth2_clients -->
<g id="edge1" class="edge">
<title>oauth2_authcodes:client_id&#45;&gt;oauth2_clients:id</title>
<path fill="none" stroke="#000000" d="M273.9703,-1085.7569C200.7402,-1057.4963 344.526,-693.6578 358,-586 363.1607,-544.7661 399.5556,-492.5 358,-492.5"/>
<polygon fill="#000000" stroke="#000000" points="274.1477,-1085.7877 283.2294,-1091.9335 279.0738,-1086.6438 284,-1087.5 284,-1087.5 284,-1087.5 279.0738,-1086.6438 284.7706,-1083.0665 274.1477,-1085.7877 274.1477,-1085.7877"/>
<text text-anchor="start" x="6.9905" y="-1097.5" font-family="Arial" font-size="10.00" fill="#000000">FOREIGN KEY (client_id) REFERENCES oauth2_clients (id)</text>
</g>
<!-- users -->
<g id="node3" class="node">
<title>users</title>
<polygon fill="#efefef" stroke="transparent" points="462,-762.5 462,-797.5 703,-797.5 703,-762.5 462,-762.5"/>
<polygon fill="none" stroke="#000000" points="462,-762.5 462,-797.5 703,-797.5 703,-762.5 462,-762.5"/>
<text text-anchor="start" x="511.8708" y="-775.3" font-family="Arial Bold" font-size="18.00" fill="#000000">users</text>
<text text-anchor="start" x="555.8754" y="-775.3" font-family="Arial" font-size="14.00" fill="#000000"> </text>
<text text-anchor="start" x="559.766" y="-775.3" font-family="Arial" font-size="14.00" fill="#666666">[BASE TABLE]</text>
<polygon fill="none" stroke="#000000" points="462,-732.5 462,-762.5 703,-762.5 703,-732.5 462,-732.5"/>
<text text-anchor="start" x="469" y="-743.9" font-family="Arial" font-size="14.00" fill="#000000">id </text>
<text text-anchor="start" x="483.7798" y="-743.9" font-family="Arial" font-size="14.00" fill="#666666">[int(10) unsigned]</text>
<polygon fill="none" stroke="#000000" points="462,-702.5 462,-732.5 703,-732.5 703,-702.5 462,-702.5"/>
<text text-anchor="start" x="469" y="-713.9" font-family="Arial" font-size="14.00" fill="#000000">role_id </text>
<text text-anchor="start" x="514.8948" y="-713.9" font-family="Arial" font-size="14.00" fill="#666666">[int(10) unsigned]</text>
<polygon fill="none" stroke="#000000" points="462,-672.5 462,-702.5 703,-702.5 703,-672.5 462,-672.5"/>
<text text-anchor="start" x="469" y="-683.9" font-family="Arial" font-size="14.00" fill="#000000">is_published </text>
<text text-anchor="start" x="550.6886" y="-683.9" font-family="Arial" font-size="14.00" fill="#666666">[tinyint(1)]</text>
<polygon fill="none" stroke="#000000" points="462,-642.5 462,-672.5 703,-672.5 703,-642.5 462,-642.5"/>
<text text-anchor="start" x="469" y="-653.9" font-family="Arial" font-size="14.00" fill="#000000">date_added </text>
<text text-anchor="start" x="546.8246" y="-653.9" font-family="Arial" font-size="14.00" fill="#666666">[datetime]</text>
<polygon fill="none" stroke="#000000" points="462,-612.5 462,-642.5 703,-642.5 703,-612.5 462,-612.5"/>
<text text-anchor="start" x="469" y="-623.9" font-family="Arial" font-size="14.00" fill="#000000">created_by </text>
<text text-anchor="start" x="542.1374" y="-623.9" font-family="Arial" font-size="14.00" fill="#666666">[int(11)]</text>
<polygon fill="none" stroke="#000000" points="462,-582.5 462,-612.5 703,-612.5 703,-582.5 462,-582.5"/>
<text text-anchor="start" x="469" y="-593.9" font-family="Arial" font-size="14.00" fill="#000000">created_by_user </text>
<text text-anchor="start" x="577.1458" y="-593.9" font-family="Arial" font-size="14.00" fill="#666666">[varchar(191)]</text>
<polygon fill="none" stroke="#000000" points="462,-552.5 462,-582.5 703,-582.5 703,-552.5 462,-552.5"/>
<text text-anchor="start" x="469" y="-563.9" font-family="Arial" font-size="14.00" fill="#000000">date_modified </text>
<text text-anchor="start" x="560.8064" y="-563.9" font-family="Arial" font-size="14.00" fill="#666666">[datetime]</text>
<polygon fill="none" stroke="#000000" points="462,-522.5 462,-552.5 703,-552.5 703,-522.5 462,-522.5"/>
<text text-anchor="start" x="469" y="-533.9" font-family="Arial" font-size="14.00" fill="#000000">modified_by </text>
<text text-anchor="start" x="548.3506" y="-533.9" font-family="Arial" font-size="14.00" fill="#666666">[int(11)]</text>
<polygon fill="none" stroke="#000000" points="462,-492.5 462,-522.5 703,-522.5 703,-492.5 462,-492.5"/>
<text text-anchor="start" x="469" y="-503.9" font-family="Arial" font-size="14.00" fill="#000000">modified_by_user </text>
<text text-anchor="start" x="583.359" y="-503.9" font-family="Arial" font-size="14.00" fill="#666666">[varchar(191)]</text>
<polygon fill="none" stroke="#000000" points="462,-462.5 462,-492.5 703,-492.5 703,-462.5 462,-462.5"/>
<text text-anchor="start" x="469" y="-473.9" font-family="Arial" font-size="14.00" fill="#000000">checked_out </text>
<text text-anchor="start" x="552.2594" y="-473.9" font-family="Arial" font-size="14.00" fill="#666666">[datetime]</text>
<polygon fill="none" stroke="#000000" points="462,-432.5 462,-462.5 703,-462.5 703,-432.5 462,-432.5"/>
<text text-anchor="start" x="469" y="-443.9" font-family="Arial" font-size="14.00" fill="#000000">checked_out_by </text>
<text text-anchor="start" x="574.8246" y="-443.9" font-family="Arial" font-size="14.00" fill="#666666">[int(11)]</text>
<polygon fill="none" stroke="#000000" points="462,-402.5 462,-432.5 703,-432.5 703,-402.5 462,-402.5"/>
<text text-anchor="start" x="468.5239" y="-413.9" font-family="Arial" font-size="14.00" fill="#000000">checked_out_by_user </text>
<text text-anchor="start" x="609.3569" y="-413.9" font-family="Arial" font-size="14.00" fill="#666666">[varchar(191)]</text>
<polygon fill="none" stroke="#000000" points="462,-372.5 462,-402.5 703,-402.5 703,-372.5 462,-372.5"/>
<text text-anchor="start" x="469" y="-383.9" font-family="Arial" font-size="14.00" fill="#000000">username </text>
<text text-anchor="start" x="535.1248" y="-383.9" font-family="Arial" font-size="14.00" fill="#666666">[varchar(191)]</text>
<polygon fill="none" stroke="#000000" points="462,-342.5 462,-372.5 703,-372.5 703,-342.5 462,-342.5"/>
<text text-anchor="start" x="469" y="-353.9" font-family="Arial" font-size="14.00" fill="#000000">password </text>
<text text-anchor="start" x="532.7882" y="-353.9" font-family="Arial" font-size="14.00" fill="#666666">[varchar(64)]</text>
<polygon fill="none" stroke="#000000" points="462,-312.5 462,-342.5 703,-342.5 703,-312.5 462,-312.5"/>
<text text-anchor="start" x="469" y="-323.9" font-family="Arial" font-size="14.00" fill="#000000">first_name </text>
<text text-anchor="start" x="538.23" y="-323.9" font-family="Arial" font-size="14.00" fill="#666666">[varchar(191)]</text>
<polygon fill="none" stroke="#000000" points="462,-282.5 462,-312.5 703,-312.5 703,-282.5 462,-282.5"/>
<text text-anchor="start" x="469" y="-293.9" font-family="Arial" font-size="14.00" fill="#000000">last_name </text>
<text text-anchor="start" x="537.4614" y="-293.9" font-family="Arial" font-size="14.00" fill="#666666">[varchar(191)]</text>
<polygon fill="none" stroke="#000000" points="462,-252.5 462,-282.5 703,-282.5 703,-252.5 462,-252.5"/>
<text text-anchor="start" x="469" y="-263.9" font-family="Arial" font-size="14.00" fill="#000000">email </text>
<text text-anchor="start" x="506.3296" y="-263.9" font-family="Arial" font-size="14.00" fill="#666666">[varchar(191)]</text>
<polygon fill="none" stroke="#000000" points="462,-222.5 462,-252.5 703,-252.5 703,-222.5 462,-222.5"/>
<text text-anchor="start" x="469" y="-233.9" font-family="Arial" font-size="14.00" fill="#000000">position </text>
<text text-anchor="start" x="521.1248" y="-233.9" font-family="Arial" font-size="14.00" fill="#666666">[varchar(191)]</text>
<polygon fill="none" stroke="#000000" points="462,-192.5 462,-222.5 703,-222.5 703,-192.5 462,-192.5"/>
<text text-anchor="start" x="469" y="-203.9" font-family="Arial" font-size="14.00" fill="#000000">timezone </text>
<text text-anchor="start" x="529.6788" y="-203.9" font-family="Arial" font-size="14.00" fill="#666666">[varchar(191)]</text>
<polygon fill="none" stroke="#000000" points="462,-162.5 462,-192.5 703,-192.5 703,-162.5 462,-162.5"/>
<text text-anchor="start" x="469" y="-173.9" font-family="Arial" font-size="14.00" fill="#000000">locale </text>
<text text-anchor="start" x="509.4516" y="-173.9" font-family="Arial" font-size="14.00" fill="#666666">[varchar(191)]</text>
<polygon fill="none" stroke="#000000" points="462,-132.5 462,-162.5 703,-162.5 703,-132.5 462,-132.5"/>
<text text-anchor="start" x="469" y="-143.9" font-family="Arial" font-size="14.00" fill="#000000">last_login </text>
<text text-anchor="start" x="532.014" y="-143.9" font-family="Arial" font-size="14.00" fill="#666666">[datetime]</text>
<polygon fill="none" stroke="#000000" points="462,-102.5 462,-132.5 703,-132.5 703,-102.5 462,-102.5"/>
<text text-anchor="start" x="469" y="-113.9" font-family="Arial" font-size="14.00" fill="#000000">last_active </text>
<text text-anchor="start" x="539.0154" y="-113.9" font-family="Arial" font-size="14.00" fill="#666666">[datetime]</text>
<polygon fill="none" stroke="#000000" points="462,-72.5 462,-102.5 703,-102.5 703,-72.5 462,-72.5"/>
<text text-anchor="start" x="469" y="-83.9" font-family="Arial" font-size="14.00" fill="#000000">preferences </text>
<text text-anchor="start" x="546.798" y="-83.9" font-family="Arial" font-size="14.00" fill="#666666">[longtext]</text>
<polygon fill="none" stroke="#000000" points="462,-42.5 462,-72.5 703,-72.5 703,-42.5 462,-42.5"/>
<text text-anchor="start" x="469" y="-53.9" font-family="Arial" font-size="14.00" fill="#000000">signature </text>
<text text-anchor="start" x="530.4614" y="-53.9" font-family="Arial" font-size="14.00" fill="#666666">[longtext]</text>
</g>
<!-- oauth2_authcodes&#45;&gt;users -->
<g id="edge2" class="edge">
<title>oauth2_authcodes:user_id&#45;&gt;users:id</title>
<path fill="none" stroke="#000000" d="M553.1145,-1056.8289C619.9277,-1047.4194 584.7505,-941.244 543,-877 521.5329,-843.9672 483.4671,-874.0328 462,-841 439.3558,-806.156 420.4444,-747.5 462,-747.5"/>
<polygon fill="#000000" stroke="#000000" points="552.9781,-1056.8379 542.702,-1053.0099 547.989,-1057.1689 543,-1057.5 543,-1057.5 543,-1057.5 547.989,-1057.1689 543.298,-1061.9901 552.9781,-1056.8379 552.9781,-1056.8379"/>
<text text-anchor="start" x="549.945" y="-1067.5" font-family="Arial" font-size="10.00" fill="#000000">FOREIGN KEY (user_id) REFERENCES users (id)</text>
</g>
</g>
</svg>
