<?xml version="1.0" encoding="UTF-8" standalone="no"?>
<!DOCTYPE svg PUBLIC "-//W3C//DTD SVG 1.1//EN"
 "http://www.w3.org/Graphics/SVG/1.1/DTD/svg11.dtd">
<!-- Generated by graphviz version 2.40.1 (20161225.0304)
 -->
<!-- Title: oauth2_user_client_xref Pages: 1 -->
<svg width="835pt" height="1072pt"
 viewBox="0.00 0.00 835.00 1072.00" xmlns="http://www.w3.org/2000/svg" xmlns:xlink="http://www.w3.org/1999/xlink">
<g id="graph0" class="graph" transform="scale(1 1) rotate(0) translate(4 1068)">
<title>oauth2_user_client_xref</title>
<polygon fill="#ffffff" stroke="transparent" points="-4,4 -4,-1068 831,-1068 831,4 -4,4"/>
<!-- oauth2_user_client_xref -->
<g id="node1" class="node">
<title>oauth2_user_client_xref</title>
<polygon fill="#efefef" stroke="transparent" points="284,-982.5 284,-1017.5 587,-1017.5 587,-982.5 284,-982.5"/>
<polygon fill="none" stroke="#000000" points="284,-982.5 284,-1017.5 587,-1017.5 587,-982.5 284,-982.5"/>
<text text-anchor="start" x="290.8431" y="-995.3" font-family="Arial Bold" font-size="18.00" fill="#000000">oauth2_user_client_xref</text>
<text text-anchor="start" x="482.9031" y="-995.3" font-family="Arial" font-size="14.00" fill="#000000"> </text>
<text text-anchor="start" x="486.7937" y="-995.3" font-family="Arial" font-size="14.00" fill="#666666">[BASE TABLE]</text>
<polygon fill="none" stroke="#000000" points="284,-952.5 284,-982.5 587,-982.5 587,-952.5 284,-952.5"/>
<text text-anchor="start" x="291" y="-963.9" font-family="Arial" font-size="14.00" fill="#000000">client_id </text>
<text text-anchor="start" x="346.2314" y="-963.9" font-family="Arial" font-size="14.00" fill="#666666">[int(10) unsigned]</text>
<polygon fill="none" stroke="#000000" points="284,-922.5 284,-952.5 587,-952.5 587,-922.5 284,-922.5"/>
<text text-anchor="start" x="291" y="-933.9" font-family="Arial" font-size="14.00" fill="#000000">user_id </text>
<text text-anchor="start" x="340.7882" y="-933.9" font-family="Arial" font-size="14.00" fill="#666666">[int(10) unsigned]</text>
<polygon fill="none" stroke="#000000" stroke-width="3" points="282,-921.5 282,-1019.5 588,-1019.5 588,-921.5 282,-921.5"/>
</g>
<!-- oauth2_clients -->
<g id="node2" class="node">
<title>oauth2_clients</title>
<polygon fill="#efefef" stroke="transparent" points="153,-507.5 153,-542.5 380,-542.5 380,-507.5 153,-507.5"/>
<polygon fill="none" stroke="#000000" points="153,-507.5 153,-542.5 380,-542.5 380,-507.5 153,-507.5"/>
<text text-anchor="start" x="159.8519" y="-520.3" font-family="Arial Bold" font-size="18.00" fill="#000000">oauth2_clients</text>
<text text-anchor="start" x="275.8943" y="-520.3" font-family="Arial" font-size="14.00" fill="#000000"> </text>
<text text-anchor="start" x="279.7849" y="-520.3" font-family="Arial" font-size="14.00" fill="#666666">[BASE TABLE]</text>
<polygon fill="none" stroke="#000000" points="153,-477.5 153,-507.5 380,-507.5 380,-477.5 153,-477.5"/>
<text text-anchor="start" x="160" y="-488.9" font-family="Arial" font-size="14.00" fill="#000000">id </text>
<text text-anchor="start" x="174.7798" y="-488.9" font-family="Arial" font-size="14.00" fill="#666666">[int(10) unsigned]</text>
<polygon fill="none" stroke="#000000" points="153,-447.5 153,-477.5 380,-477.5 380,-447.5 153,-447.5"/>
<text text-anchor="start" x="160" y="-458.9" font-family="Arial" font-size="14.00" fill="#000000">role_id </text>
<text text-anchor="start" x="205.8948" y="-458.9" font-family="Arial" font-size="14.00" fill="#666666">[int(10) unsigned]</text>
<polygon fill="none" stroke="#000000" points="153,-417.5 153,-447.5 380,-447.5 380,-417.5 153,-417.5"/>
<text text-anchor="start" x="160" y="-428.9" font-family="Arial" font-size="14.00" fill="#000000">name </text>
<text text-anchor="start" x="198.899" y="-428.9" font-family="Arial" font-size="14.00" fill="#666666">[varchar(191)]</text>
<polygon fill="none" stroke="#000000" points="153,-387.5 153,-417.5 380,-417.5 380,-387.5 153,-387.5"/>
<text text-anchor="start" x="160" y="-398.9" font-family="Arial" font-size="14.00" fill="#000000">random_id </text>
<text text-anchor="start" x="230.014" y="-398.9" font-family="Arial" font-size="14.00" fill="#666666">[varchar(191)]</text>
<polygon fill="none" stroke="#000000" points="153,-357.5 153,-387.5 380,-387.5 380,-357.5 153,-357.5"/>
<text text-anchor="start" x="160" y="-368.9" font-family="Arial" font-size="14.00" fill="#000000">secret </text>
<text text-anchor="start" x="202.007" y="-368.9" font-family="Arial" font-size="14.00" fill="#666666">[varchar(191)]</text>
<polygon fill="none" stroke="#000000" points="153,-327.5 153,-357.5 380,-357.5 380,-327.5 153,-327.5"/>
<text text-anchor="start" x="160" y="-338.9" font-family="Arial" font-size="14.00" fill="#000000">redirect_uris </text>
<text text-anchor="start" x="240.8892" y="-338.9" font-family="Arial" font-size="14.00" fill="#666666">[longtext]</text>
<polygon fill="none" stroke="#000000" points="153,-297.5 153,-327.5 380,-327.5 380,-297.5 153,-297.5"/>
<text text-anchor="start" x="160" y="-308.9" font-family="Arial" font-size="14.00" fill="#000000">allowed_grant_types </text>
<text text-anchor="start" x="292.2608" y="-308.9" font-family="Arial" font-size="14.00" fill="#666666">[longtext]</text>
</g>
<!-- oauth2_user_client_xref&#45;&gt;oauth2_clients -->
<g id="edge1" class="edge">
<title>oauth2_user_client_xref:client_id&#45;&gt;oauth2_clients:id</title>
<path fill="none" stroke="#000000" d="M273.6996,-965.5862C198.8433,-932.9002 483.6935,-492.5 380,-492.5"/>
<polygon fill="#000000" stroke="#000000" points="274.1683,-965.6732 283.1779,-971.9243 279.0841,-966.5866 284,-967.5 284,-967.5 284,-967.5 279.0841,-966.5866 284.8221,-963.0757 274.1683,-965.6732 274.1683,-965.6732"/>
<text text-anchor="start" x="6.9905" y="-977.5" font-family="Arial" font-size="10.00" fill="#000000">FOREIGN KEY (client_id) REFERENCES oauth2_clients (id)</text>
</g>
<!-- users -->
<g id="node3" class="node">
<title>users</title>
<polygon fill="#efefef" stroke="transparent" points="484,-762.5 484,-797.5 725,-797.5 725,-762.5 484,-762.5"/>
<polygon fill="none" stroke="#000000" points="484,-762.5 484,-797.5 725,-797.5 725,-762.5 484,-762.5"/>
<text text-anchor="start" x="533.8708" y="-775.3" font-family="Arial Bold" font-size="18.00" fill="#000000">users</text>
<text text-anchor="start" x="577.8754" y="-775.3" font-family="Arial" font-size="14.00" fill="#000000"> </text>
<text text-anchor="start" x="581.766" y="-775.3" font-family="Arial" font-size="14.00" fill="#666666">[BASE TABLE]</text>
<polygon fill="none" stroke="#000000" points="484,-732.5 484,-762.5 725,-762.5 725,-732.5 484,-732.5"/>
<text text-anchor="start" x="491" y="-743.9" font-family="Arial" font-size="14.00" fill="#000000">id </text>
<text text-anchor="start" x="505.7798" y="-743.9" font-family="Arial" font-size="14.00" fill="#666666">[int(10) unsigned]</text>
<polygon fill="none" stroke="#000000" points="484,-702.5 484,-732.5 725,-732.5 725,-702.5 484,-702.5"/>
<text text-anchor="start" x="491" y="-713.9" font-family="Arial" font-size="14.00" fill="#000000">role_id </text>
<text text-anchor="start" x="536.8948" y="-713.9" font-family="Arial" font-size="14.00" fill="#666666">[int(10) unsigned]</text>
<polygon fill="none" stroke="#000000" points="484,-672.5 484,-702.5 725,-702.5 725,-672.5 484,-672.5"/>
<text text-anchor="start" x="491" y="-683.9" font-family="Arial" font-size="14.00" fill="#000000">is_published </text>
<text text-anchor="start" x="572.6886" y="-683.9" font-family="Arial" font-size="14.00" fill="#666666">[tinyint(1)]</text>
<polygon fill="none" stroke="#000000" points="484,-642.5 484,-672.5 725,-672.5 725,-642.5 484,-642.5"/>
<text text-anchor="start" x="491" y="-653.9" font-family="Arial" font-size="14.00" fill="#000000">date_added </text>
<text text-anchor="start" x="568.8246" y="-653.9" font-family="Arial" font-size="14.00" fill="#666666">[datetime]</text>
<polygon fill="none" stroke="#000000" points="484,-612.5 484,-642.5 725,-642.5 725,-612.5 484,-612.5"/>
<text text-anchor="start" x="491" y="-623.9" font-family="Arial" font-size="14.00" fill="#000000">created_by </text>
<text text-anchor="start" x="564.1374" y="-623.9" font-family="Arial" font-size="14.00" fill="#666666">[int(11)]</text>
<polygon fill="none" stroke="#000000" points="484,-582.5 484,-612.5 725,-612.5 725,-582.5 484,-582.5"/>
<text text-anchor="start" x="491" y="-593.9" font-family="Arial" font-size="14.00" fill="#000000">created_by_user </text>
<text text-anchor="start" x="599.1458" y="-593.9" font-family="Arial" font-size="14.00" fill="#666666">[varchar(191)]</text>
<polygon fill="none" stroke="#000000" points="484,-552.5 484,-582.5 725,-582.5 725,-552.5 484,-552.5"/>
<text text-anchor="start" x="491" y="-563.9" font-family="Arial" font-size="14.00" fill="#000000">date_modified </text>
<text text-anchor="start" x="582.8064" y="-563.9" font-family="Arial" font-size="14.00" fill="#666666">[datetime]</text>
<polygon fill="none" stroke="#000000" points="484,-522.5 484,-552.5 725,-552.5 725,-522.5 484,-522.5"/>
<text text-anchor="start" x="491" y="-533.9" font-family="Arial" font-size="14.00" fill="#000000">modified_by </text>
<text text-anchor="start" x="570.3506" y="-533.9" font-family="Arial" font-size="14.00" fill="#666666">[int(11)]</text>
<polygon fill="none" stroke="#000000" points="484,-492.5 484,-522.5 725,-522.5 725,-492.5 484,-492.5"/>
<text text-anchor="start" x="491" y="-503.9" font-family="Arial" font-size="14.00" fill="#000000">modified_by_user </text>
<text text-anchor="start" x="605.359" y="-503.9" font-family="Arial" font-size="14.00" fill="#666666">[varchar(191)]</text>
<polygon fill="none" stroke="#000000" points="484,-462.5 484,-492.5 725,-492.5 725,-462.5 484,-462.5"/>
<text text-anchor="start" x="491" y="-473.9" font-family="Arial" font-size="14.00" fill="#000000">checked_out </text>
<text text-anchor="start" x="574.2594" y="-473.9" font-family="Arial" font-size="14.00" fill="#666666">[datetime]</text>
<polygon fill="none" stroke="#000000" points="484,-432.5 484,-462.5 725,-462.5 725,-432.5 484,-432.5"/>
<text text-anchor="start" x="491" y="-443.9" font-family="Arial" font-size="14.00" fill="#000000">checked_out_by </text>
<text text-anchor="start" x="596.8246" y="-443.9" font-family="Arial" font-size="14.00" fill="#666666">[int(11)]</text>
<polygon fill="none" stroke="#000000" points="484,-402.5 484,-432.5 725,-432.5 725,-402.5 484,-402.5"/>
<text text-anchor="start" x="490.5239" y="-413.9" font-family="Arial" font-size="14.00" fill="#000000">checked_out_by_user </text>
<text text-anchor="start" x="631.3569" y="-413.9" font-family="Arial" font-size="14.00" fill="#666666">[varchar(191)]</text>
<polygon fill="none" stroke="#000000" points="484,-372.5 484,-402.5 725,-402.5 725,-372.5 484,-372.5"/>
<text text-anchor="start" x="491" y="-383.9" font-family="Arial" font-size="14.00" fill="#000000">username </text>
<text text-anchor="start" x="557.1248" y="-383.9" font-family="Arial" font-size="14.00" fill="#666666">[varchar(191)]</text>
<polygon fill="none" stroke="#000000" points="484,-342.5 484,-372.5 725,-372.5 725,-342.5 484,-342.5"/>
<text text-anchor="start" x="491" y="-353.9" font-family="Arial" font-size="14.00" fill="#000000">password </text>
<text text-anchor="start" x="554.7882" y="-353.9" font-family="Arial" font-size="14.00" fill="#666666">[varchar(64)]</text>
<polygon fill="none" stroke="#000000" points="484,-312.5 484,-342.5 725,-342.5 725,-312.5 484,-312.5"/>
<text text-anchor="start" x="491" y="-323.9" font-family="Arial" font-size="14.00" fill="#000000">first_name </text>
<text text-anchor="start" x="560.23" y="-323.9" font-family="Arial" font-size="14.00" fill="#666666">[varchar(191)]</text>
<polygon fill="none" stroke="#000000" points="484,-282.5 484,-312.5 725,-312.5 725,-282.5 484,-282.5"/>
<text text-anchor="start" x="491" y="-293.9" font-family="Arial" font-size="14.00" fill="#000000">last_name </text>
<text text-anchor="start" x="559.4614" y="-293.9" font-family="Arial" font-size="14.00" fill="#666666">[varchar(191)]</text>
<polygon fill="none" stroke="#000000" points="484,-252.5 484,-282.5 725,-282.5 725,-252.5 484,-252.5"/>
<text text-anchor="start" x="491" y="-263.9" font-family="Arial" font-size="14.00" fill="#000000">email </text>
<text text-anchor="start" x="528.3296" y="-263.9" font-family="Arial" font-size="14.00" fill="#666666">[varchar(191)]</text>
<polygon fill="none" stroke="#000000" points="484,-222.5 484,-252.5 725,-252.5 725,-222.5 484,-222.5"/>
<text text-anchor="start" x="491" y="-233.9" font-family="Arial" font-size="14.00" fill="#000000">position </text>
<text text-anchor="start" x="543.1248" y="-233.9" font-family="Arial" font-size="14.00" fill="#666666">[varchar(191)]</text>
<polygon fill="none" stroke="#000000" points="484,-192.5 484,-222.5 725,-222.5 725,-192.5 484,-192.5"/>
<text text-anchor="start" x="491" y="-203.9" font-family="Arial" font-size="14.00" fill="#000000">timezone </text>
<text text-anchor="start" x="551.6788" y="-203.9" font-family="Arial" font-size="14.00" fill="#666666">[varchar(191)]</text>
<polygon fill="none" stroke="#000000" points="484,-162.5 484,-192.5 725,-192.5 725,-162.5 484,-162.5"/>
<text text-anchor="start" x="491" y="-173.9" font-family="Arial" font-size="14.00" fill="#000000">locale </text>
<text text-anchor="start" x="531.4516" y="-173.9" font-family="Arial" font-size="14.00" fill="#666666">[varchar(191)]</text>
<polygon fill="none" stroke="#000000" points="484,-132.5 484,-162.5 725,-162.5 725,-132.5 484,-132.5"/>
<text text-anchor="start" x="491" y="-143.9" font-family="Arial" font-size="14.00" fill="#000000">last_login </text>
<text text-anchor="start" x="554.014" y="-143.9" font-family="Arial" font-size="14.00" fill="#666666">[datetime]</text>
<polygon fill="none" stroke="#000000" points="484,-102.5 484,-132.5 725,-132.5 725,-102.5 484,-102.5"/>
<text text-anchor="start" x="491" y="-113.9" font-family="Arial" font-size="14.00" fill="#000000">last_active </text>
<text text-anchor="start" x="561.0154" y="-113.9" font-family="Arial" font-size="14.00" fill="#666666">[datetime]</text>
<polygon fill="none" stroke="#000000" points="484,-72.5 484,-102.5 725,-102.5 725,-72.5 484,-72.5"/>
<text text-anchor="start" x="491" y="-83.9" font-family="Arial" font-size="14.00" fill="#000000">preferences </text>
<text text-anchor="start" x="568.798" y="-83.9" font-family="Arial" font-size="14.00" fill="#666666">[longtext]</text>
<polygon fill="none" stroke="#000000" points="484,-42.5 484,-72.5 725,-72.5 725,-42.5 484,-42.5"/>
<text text-anchor="start" x="491" y="-53.9" font-family="Arial" font-size="14.00" fill="#000000">signature </text>
<text text-anchor="start" x="552.4614" y="-53.9" font-family="Arial" font-size="14.00" fill="#666666">[longtext]</text>
</g>
<!-- oauth2_user_client_xref&#45;&gt;users -->
<g id="edge2" class="edge">
<title>oauth2_user_client_xref:user_id&#45;&gt;users:id</title>
<path fill="none" stroke="#000000" d="M596.9349,-934.8855C610.2463,-925.8523 600.1319,-895.5007 587,-877 558.9312,-837.4557 512.0688,-880.5443 484,-841 459.9469,-807.1132 442.4444,-747.5 484,-747.5"/>
<polygon fill="#000000" stroke="#000000" points="596.6707,-934.9549 585.8547,-933.1482 591.8354,-936.2275 587,-937.5 587,-937.5 587,-937.5 591.8354,-936.2275 588.1453,-941.8518 596.6707,-934.9549 596.6707,-934.9549"/>
<text text-anchor="start" x="593.945" y="-947.5" font-family="Arial" font-size="10.00" fill="#000000">FOREIGN KEY (user_id) REFERENCES users (id)</text>
</g>
</g>
</svg>
