<?xml version="1.0" encoding="UTF-8" standalone="no"?>
<!DOCTYPE svg PUBLIC "-//W3C//DTD SVG 1.1//EN"
 "http://www.w3.org/Graphics/SVG/1.1/DTD/svg11.dtd">
<!-- Generated by graphviz version 2.40.1 (20161225.0304)
 -->
<!-- Title: page_redirects Pages: 1 -->
<svg width="704pt" height="1522pt"
 viewBox="0.00 0.00 704.00 1522.00" xmlns="http://www.w3.org/2000/svg" xmlns:xlink="http://www.w3.org/1999/xlink">
<g id="graph0" class="graph" transform="scale(1 1) rotate(0) translate(4 1518)">
<title>page_redirects</title>
<polygon fill="#ffffff" stroke="transparent" points="-4,4 -4,-1518 700,-1518 700,4 -4,4"/>
<!-- page_redirects -->
<g id="node1" class="node">
<title>page_redirects</title>
<polygon fill="#efefef" stroke="transparent" points="248,-495.5 248,-530.5 489,-530.5 489,-495.5 248,-495.5"/>
<polygon fill="none" stroke="#000000" points="248,-495.5 248,-530.5 489,-530.5 489,-495.5 248,-495.5"/>
<text text-anchor="start" x="260.3579" y="-508.3" font-family="Arial Bold" font-size="18.00" fill="#000000">page_redirects</text>
<text text-anchor="start" x="379.3883" y="-508.3" font-family="Arial" font-size="14.00" fill="#000000"> </text>
<text text-anchor="start" x="383.2789" y="-508.3" font-family="Arial" font-size="14.00" fill="#666666">[BASE TABLE]</text>
<polygon fill="none" stroke="#000000" points="248,-465.5 248,-495.5 489,-495.5 489,-465.5 248,-465.5"/>
<text text-anchor="start" x="255" y="-476.9" font-family="Arial" font-size="14.00" fill="#000000">id </text>
<text text-anchor="start" x="269.7798" y="-476.9" font-family="Arial" font-size="14.00" fill="#666666">[bigint(20) unsigned]</text>
<polygon fill="none" stroke="#000000" points="248,-435.5 248,-465.5 489,-465.5 489,-435.5 248,-435.5"/>
<text text-anchor="start" x="255" y="-446.9" font-family="Arial" font-size="14.00" fill="#000000">is_published </text>
<text text-anchor="start" x="336.6886" y="-446.9" font-family="Arial" font-size="14.00" fill="#666666">[tinyint(1)]</text>
<polygon fill="none" stroke="#000000" points="248,-405.5 248,-435.5 489,-435.5 489,-405.5 248,-405.5"/>
<text text-anchor="start" x="255" y="-416.9" font-family="Arial" font-size="14.00" fill="#000000">date_added </text>
<text text-anchor="start" x="332.8246" y="-416.9" font-family="Arial" font-size="14.00" fill="#666666">[datetime]</text>
<polygon fill="none" stroke="#000000" points="248,-375.5 248,-405.5 489,-405.5 489,-375.5 248,-375.5"/>
<text text-anchor="start" x="255" y="-386.9" font-family="Arial" font-size="14.00" fill="#000000">created_by </text>
<text text-anchor="start" x="328.1374" y="-386.9" font-family="Arial" font-size="14.00" fill="#666666">[int(11)]</text>
<polygon fill="none" stroke="#000000" points="248,-345.5 248,-375.5 489,-375.5 489,-345.5 248,-345.5"/>
<text text-anchor="start" x="255" y="-356.9" font-family="Arial" font-size="14.00" fill="#000000">created_by_user </text>
<text text-anchor="start" x="363.1458" y="-356.9" font-family="Arial" font-size="14.00" fill="#666666">[varchar(191)]</text>
<polygon fill="none" stroke="#000000" points="248,-315.5 248,-345.5 489,-345.5 489,-315.5 248,-315.5"/>
<text text-anchor="start" x="255" y="-326.9" font-family="Arial" font-size="14.00" fill="#000000">date_modified </text>
<text text-anchor="start" x="346.8064" y="-326.9" font-family="Arial" font-size="14.00" fill="#666666">[datetime]</text>
<polygon fill="none" stroke="#000000" points="248,-285.5 248,-315.5 489,-315.5 489,-285.5 248,-285.5"/>
<text text-anchor="start" x="255" y="-296.9" font-family="Arial" font-size="14.00" fill="#000000">modified_by </text>
<text text-anchor="start" x="334.3506" y="-296.9" font-family="Arial" font-size="14.00" fill="#666666">[int(11)]</text>
<polygon fill="none" stroke="#000000" points="248,-255.5 248,-285.5 489,-285.5 489,-255.5 248,-255.5"/>
<text text-anchor="start" x="255" y="-266.9" font-family="Arial" font-size="14.00" fill="#000000">modified_by_user </text>
<text text-anchor="start" x="369.359" y="-266.9" font-family="Arial" font-size="14.00" fill="#666666">[varchar(191)]</text>
<polygon fill="none" stroke="#000000" points="248,-225.5 248,-255.5 489,-255.5 489,-225.5 248,-225.5"/>
<text text-anchor="start" x="255" y="-236.9" font-family="Arial" font-size="14.00" fill="#000000">checked_out </text>
<text text-anchor="start" x="338.2594" y="-236.9" font-family="Arial" font-size="14.00" fill="#666666">[datetime]</text>
<polygon fill="none" stroke="#000000" points="248,-195.5 248,-225.5 489,-225.5 489,-195.5 248,-195.5"/>
<text text-anchor="start" x="255" y="-206.9" font-family="Arial" font-size="14.00" fill="#000000">checked_out_by </text>
<text text-anchor="start" x="360.8246" y="-206.9" font-family="Arial" font-size="14.00" fill="#666666">[int(11)]</text>
<polygon fill="none" stroke="#000000" points="248,-165.5 248,-195.5 489,-195.5 489,-165.5 248,-165.5"/>
<text text-anchor="start" x="254.5239" y="-176.9" font-family="Arial" font-size="14.00" fill="#000000">checked_out_by_user </text>
<text text-anchor="start" x="395.3569" y="-176.9" font-family="Arial" font-size="14.00" fill="#666666">[varchar(191)]</text>
<polygon fill="none" stroke="#000000" points="248,-135.5 248,-165.5 489,-165.5 489,-135.5 248,-135.5"/>
<text text-anchor="start" x="255" y="-146.9" font-family="Arial" font-size="14.00" fill="#000000">redirect_id </text>
<text text-anchor="start" x="324.2286" y="-146.9" font-family="Arial" font-size="14.00" fill="#666666">[varchar(25)]</text>
<polygon fill="none" stroke="#000000" points="248,-105.5 248,-135.5 489,-135.5 489,-105.5 248,-105.5"/>
<text text-anchor="start" x="255" y="-116.9" font-family="Arial" font-size="14.00" fill="#000000">url </text>
<text text-anchor="start" x="274.4404" y="-116.9" font-family="Arial" font-size="14.00" fill="#666666">[longtext]</text>
<polygon fill="none" stroke="#000000" points="248,-75.5 248,-105.5 489,-105.5 489,-75.5 248,-75.5"/>
<text text-anchor="start" x="255" y="-86.9" font-family="Arial" font-size="14.00" fill="#000000">hits </text>
<text text-anchor="start" x="280.6704" y="-86.9" font-family="Arial" font-size="14.00" fill="#666666">[int(11)]</text>
<polygon fill="none" stroke="#000000" points="248,-45.5 248,-75.5 489,-75.5 489,-45.5 248,-45.5"/>
<text text-anchor="start" x="255" y="-56.9" font-family="Arial" font-size="14.00" fill="#000000">unique_hits </text>
<text text-anchor="start" x="330.4726" y="-56.9" font-family="Arial" font-size="14.00" fill="#666666">[int(11)]</text>
<polygon fill="none" stroke="#000000" stroke-width="3" points="246,-44.5 246,-532.5 490,-532.5 490,-44.5 246,-44.5"/>
</g>
<!-- channel_url_trackables -->
<g id="node2" class="node">
<title>channel_url_trackables</title>
<polygon fill="#efefef" stroke="transparent" points="43,-1120.5 43,-1155.5 339,-1155.5 339,-1120.5 43,-1120.5"/>
<polygon fill="none" stroke="#000000" points="43,-1120.5 43,-1155.5 339,-1155.5 339,-1120.5 43,-1120.5"/>
<text text-anchor="start" x="49.8513" y="-1133.3" font-family="Arial Bold" font-size="18.00" fill="#000000">channel_url_trackables</text>
<text text-anchor="start" x="234.8949" y="-1133.3" font-family="Arial" font-size="14.00" fill="#000000"> </text>
<text text-anchor="start" x="238.7855" y="-1133.3" font-family="Arial" font-size="14.00" fill="#666666">[BASE TABLE]</text>
<polygon fill="none" stroke="#000000" points="43,-1090.5 43,-1120.5 339,-1120.5 339,-1090.5 43,-1090.5"/>
<text text-anchor="start" x="50" y="-1101.9" font-family="Arial" font-size="14.00" fill="#000000">channel_id </text>
<text text-anchor="start" x="121.582" y="-1101.9" font-family="Arial" font-size="14.00" fill="#666666">[int(11)]</text>
<polygon fill="none" stroke="#000000" points="43,-1060.5 43,-1090.5 339,-1090.5 339,-1060.5 43,-1060.5"/>
<text text-anchor="start" x="50" y="-1071.9" font-family="Arial" font-size="14.00" fill="#000000">redirect_id </text>
<text text-anchor="start" x="119.2286" y="-1071.9" font-family="Arial" font-size="14.00" fill="#666666">[bigint(20) unsigned]</text>
<polygon fill="none" stroke="#000000" points="43,-1030.5 43,-1060.5 339,-1060.5 339,-1030.5 43,-1030.5"/>
<text text-anchor="start" x="50" y="-1041.9" font-family="Arial" font-size="14.00" fill="#000000">channel </text>
<text text-anchor="start" x="102.9102" y="-1041.9" font-family="Arial" font-size="14.00" fill="#666666">[varchar(191)]</text>
<polygon fill="none" stroke="#000000" points="43,-1000.5 43,-1030.5 339,-1030.5 339,-1000.5 43,-1000.5"/>
<text text-anchor="start" x="50" y="-1011.9" font-family="Arial" font-size="14.00" fill="#000000">hits </text>
<text text-anchor="start" x="75.6704" y="-1011.9" font-family="Arial" font-size="14.00" fill="#666666">[int(11)]</text>
<polygon fill="none" stroke="#000000" points="43,-970.5 43,-1000.5 339,-1000.5 339,-970.5 43,-970.5"/>
<text text-anchor="start" x="50" y="-981.9" font-family="Arial" font-size="14.00" fill="#000000">unique_hits </text>
<text text-anchor="start" x="125.4726" y="-981.9" font-family="Arial" font-size="14.00" fill="#666666">[int(11)]</text>
</g>
<!-- channel_url_trackables&#45;&gt;page_redirects -->
<g id="edge1" class="edge">
<title>channel_url_trackables:redirect_id&#45;&gt;page_redirects:id</title>
<path fill="none" stroke="#000000" d="M349.2022,-1074.0954C452.8478,-1042.276 118.0284,-480.5 248,-480.5"/>
<polygon fill="#000000" stroke="#000000" points="348.9066,-1074.136 338.3862,-1071.0421 343.9533,-1074.818 339,-1075.5 339,-1075.5 339,-1075.5 343.9533,-1074.818 339.6138,-1079.9579 348.9066,-1074.136 348.9066,-1074.136"/>
<text text-anchor="start" x="346.1615" y="-1085.5" font-family="Arial" font-size="10.00" fill="#000000">FOREIGN KEY (redirect_id) REFERENCES page_redirects (id)</text>
</g>
<!-- page_hits -->
<g id="node3" class="node">
<title>page_hits</title>
<polygon fill="#efefef" stroke="transparent" points="443,-1435.5 443,-1470.5 653,-1470.5 653,-1435.5 443,-1435.5"/>
<polygon fill="none" stroke="#000000" points="443,-1435.5 443,-1470.5 653,-1470.5 653,-1435.5 443,-1435.5"/>
<text text-anchor="start" x="460.3563" y="-1448.3" font-family="Arial Bold" font-size="18.00" fill="#000000">page_hits</text>
<text text-anchor="start" x="538.3899" y="-1448.3" font-family="Arial" font-size="14.00" fill="#000000"> </text>
<text text-anchor="start" x="542.2805" y="-1448.3" font-family="Arial" font-size="14.00" fill="#666666">[BASE TABLE]</text>
<polygon fill="none" stroke="#000000" points="443,-1405.5 443,-1435.5 653,-1435.5 653,-1405.5 443,-1405.5"/>
<text text-anchor="start" x="450" y="-1416.9" font-family="Arial" font-size="14.00" fill="#000000">id </text>
<text text-anchor="start" x="464.7798" y="-1416.9" font-family="Arial" font-size="14.00" fill="#666666">[bigint(20) unsigned]</text>
<polygon fill="none" stroke="#000000" points="443,-1375.5 443,-1405.5 653,-1405.5 653,-1375.5 443,-1375.5"/>
<text text-anchor="start" x="450" y="-1386.9" font-family="Arial" font-size="14.00" fill="#000000">page_id </text>
<text text-anchor="start" x="503.6928" y="-1386.9" font-family="Arial" font-size="14.00" fill="#666666">[int(10) unsigned]</text>
<polygon fill="none" stroke="#000000" points="443,-1345.5 443,-1375.5 653,-1375.5 653,-1345.5 443,-1345.5"/>
<text text-anchor="start" x="449.9797" y="-1356.9" font-family="Arial" font-size="14.00" fill="#000000">redirect_id </text>
<text text-anchor="start" x="519.2083" y="-1356.9" font-family="Arial" font-size="14.00" fill="#666666">[bigint(20) unsigned]</text>
<polygon fill="none" stroke="#000000" points="443,-1315.5 443,-1345.5 653,-1345.5 653,-1315.5 443,-1315.5"/>
<text text-anchor="start" x="450" y="-1326.9" font-family="Arial" font-size="14.00" fill="#000000">email_id </text>
<text text-anchor="start" x="506.0014" y="-1326.9" font-family="Arial" font-size="14.00" fill="#666666">[int(10) unsigned]</text>
<polygon fill="none" stroke="#000000" points="443,-1285.5 443,-1315.5 653,-1315.5 653,-1285.5 443,-1285.5"/>
<text text-anchor="start" x="450" y="-1296.9" font-family="Arial" font-size="14.00" fill="#000000">lead_id </text>
<text text-anchor="start" x="499.0168" y="-1296.9" font-family="Arial" font-size="14.00" fill="#666666">[bigint(20) unsigned]</text>
<polygon fill="none" stroke="#000000" points="443,-1255.5 443,-1285.5 653,-1285.5 653,-1255.5 443,-1255.5"/>
<text text-anchor="start" x="450" y="-1266.9" font-family="Arial" font-size="14.00" fill="#000000">ip_id </text>
<text text-anchor="start" x="483.4516" y="-1266.9" font-family="Arial" font-size="14.00" fill="#666666">[int(10) unsigned]</text>
<polygon fill="none" stroke="#000000" points="443,-1225.5 443,-1255.5 653,-1255.5 653,-1225.5 443,-1225.5"/>
<text text-anchor="start" x="450" y="-1236.9" font-family="Arial" font-size="14.00" fill="#000000">device_id </text>
<text text-anchor="start" x="513.0168" y="-1236.9" font-family="Arial" font-size="14.00" fill="#666666">[bigint(20) unsigned]</text>
<polygon fill="none" stroke="#000000" points="443,-1195.5 443,-1225.5 653,-1225.5 653,-1195.5 443,-1195.5"/>
<text text-anchor="start" x="450" y="-1206.9" font-family="Arial" font-size="14.00" fill="#000000">date_hit </text>
<text text-anchor="start" x="503.6914" y="-1206.9" font-family="Arial" font-size="14.00" fill="#666666">[datetime]</text>
<polygon fill="none" stroke="#000000" points="443,-1165.5 443,-1195.5 653,-1195.5 653,-1165.5 443,-1165.5"/>
<text text-anchor="start" x="450" y="-1176.9" font-family="Arial" font-size="14.00" fill="#000000">date_left </text>
<text text-anchor="start" x="507.582" y="-1176.9" font-family="Arial" font-size="14.00" fill="#666666">[datetime]</text>
<polygon fill="none" stroke="#000000" points="443,-1135.5 443,-1165.5 653,-1165.5 653,-1135.5 443,-1135.5"/>
<text text-anchor="start" x="450" y="-1146.9" font-family="Arial" font-size="14.00" fill="#000000">country </text>
<text text-anchor="start" x="499.7896" y="-1146.9" font-family="Arial" font-size="14.00" fill="#666666">[varchar(191)]</text>
<polygon fill="none" stroke="#000000" points="443,-1105.5 443,-1135.5 653,-1135.5 653,-1105.5 443,-1105.5"/>
<text text-anchor="start" x="450" y="-1116.9" font-family="Arial" font-size="14.00" fill="#000000">region </text>
<text text-anchor="start" x="492.7882" y="-1116.9" font-family="Arial" font-size="14.00" fill="#666666">[varchar(191)]</text>
<polygon fill="none" stroke="#000000" points="443,-1075.5 443,-1105.5 653,-1105.5 653,-1075.5 443,-1075.5"/>
<text text-anchor="start" x="450" y="-1086.9" font-family="Arial" font-size="14.00" fill="#000000">city </text>
<text text-anchor="start" x="474.8878" y="-1086.9" font-family="Arial" font-size="14.00" fill="#666666">[varchar(191)]</text>
<polygon fill="none" stroke="#000000" points="443,-1045.5 443,-1075.5 653,-1075.5 653,-1045.5 443,-1045.5"/>
<text text-anchor="start" x="450" y="-1056.9" font-family="Arial" font-size="14.00" fill="#000000">isp </text>
<text text-anchor="start" x="471.7798" y="-1056.9" font-family="Arial" font-size="14.00" fill="#666666">[varchar(191)]</text>
<polygon fill="none" stroke="#000000" points="443,-1015.5 443,-1045.5 653,-1045.5 653,-1015.5 443,-1015.5"/>
<text text-anchor="start" x="450" y="-1026.9" font-family="Arial" font-size="14.00" fill="#000000">organization </text>
<text text-anchor="start" x="530.1332" y="-1026.9" font-family="Arial" font-size="14.00" fill="#666666">[varchar(191)]</text>
<polygon fill="none" stroke="#000000" points="443,-985.5 443,-1015.5 653,-1015.5 653,-985.5 443,-985.5"/>
<text text-anchor="start" x="450" y="-996.9" font-family="Arial" font-size="14.00" fill="#000000">code </text>
<text text-anchor="start" x="484.2384" y="-996.9" font-family="Arial" font-size="14.00" fill="#666666">[int(11)]</text>
<polygon fill="none" stroke="#000000" points="443,-955.5 443,-985.5 653,-985.5 653,-955.5 443,-955.5"/>
<text text-anchor="start" x="450" y="-966.9" font-family="Arial" font-size="14.00" fill="#000000">referer </text>
<text text-anchor="start" x="495.1108" y="-966.9" font-family="Arial" font-size="14.00" fill="#666666">[longtext]</text>
<polygon fill="none" stroke="#000000" points="443,-925.5 443,-955.5 653,-955.5 653,-925.5 443,-925.5"/>
<text text-anchor="start" x="450" y="-936.9" font-family="Arial" font-size="14.00" fill="#000000">url </text>
<text text-anchor="start" x="469.4404" y="-936.9" font-family="Arial" font-size="14.00" fill="#666666">[longtext]</text>
<polygon fill="none" stroke="#000000" points="443,-895.5 443,-925.5 653,-925.5 653,-895.5 443,-895.5"/>
<text text-anchor="start" x="450" y="-906.9" font-family="Arial" font-size="14.00" fill="#000000">url_title </text>
<text text-anchor="start" x="499" y="-906.9" font-family="Arial" font-size="14.00" fill="#666666">[varchar(191)]</text>
<polygon fill="none" stroke="#000000" points="443,-865.5 443,-895.5 653,-895.5 653,-865.5 443,-865.5"/>
<text text-anchor="start" x="450" y="-876.9" font-family="Arial" font-size="14.00" fill="#000000">user_agent </text>
<text text-anchor="start" x="523.92" y="-876.9" font-family="Arial" font-size="14.00" fill="#666666">[longtext]</text>
<polygon fill="none" stroke="#000000" points="443,-835.5 443,-865.5 653,-865.5 653,-835.5 443,-835.5"/>
<text text-anchor="start" x="450" y="-846.9" font-family="Arial" font-size="14.00" fill="#000000">remote_host </text>
<text text-anchor="start" x="531.6886" y="-846.9" font-family="Arial" font-size="14.00" fill="#666666">[varchar(191)]</text>
<polygon fill="none" stroke="#000000" points="443,-805.5 443,-835.5 653,-835.5 653,-805.5 443,-805.5"/>
<text text-anchor="start" x="450" y="-816.9" font-family="Arial" font-size="14.00" fill="#000000">page_language </text>
<text text-anchor="start" x="550.3884" y="-816.9" font-family="Arial" font-size="14.00" fill="#666666">[varchar(191)]</text>
<polygon fill="none" stroke="#000000" points="443,-775.5 443,-805.5 653,-805.5 653,-775.5 443,-775.5"/>
<text text-anchor="start" x="450" y="-786.9" font-family="Arial" font-size="14.00" fill="#000000">browser_languages </text>
<text text-anchor="start" x="576.0336" y="-786.9" font-family="Arial" font-size="14.00" fill="#666666">[longtext]</text>
<polygon fill="none" stroke="#000000" points="443,-745.5 443,-775.5 653,-775.5 653,-745.5 443,-745.5"/>
<text text-anchor="start" x="450" y="-756.9" font-family="Arial" font-size="14.00" fill="#000000">tracking_id </text>
<text text-anchor="start" x="521.568" y="-756.9" font-family="Arial" font-size="14.00" fill="#666666">[varchar(191)]</text>
<polygon fill="none" stroke="#000000" points="443,-715.5 443,-745.5 653,-745.5 653,-715.5 443,-715.5"/>
<text text-anchor="start" x="450" y="-726.9" font-family="Arial" font-size="14.00" fill="#000000">source </text>
<text text-anchor="start" x="495.899" y="-726.9" font-family="Arial" font-size="14.00" fill="#666666">[varchar(191)]</text>
<polygon fill="none" stroke="#000000" points="443,-685.5 443,-715.5 653,-715.5 653,-685.5 443,-685.5"/>
<text text-anchor="start" x="450" y="-696.9" font-family="Arial" font-size="14.00" fill="#000000">source_id </text>
<text text-anchor="start" x="514.5708" y="-696.9" font-family="Arial" font-size="14.00" fill="#666666">[int(11)]</text>
<polygon fill="none" stroke="#000000" points="443,-655.5 443,-685.5 653,-685.5 653,-655.5 443,-655.5"/>
<text text-anchor="start" x="450" y="-666.9" font-family="Arial" font-size="14.00" fill="#000000">query </text>
<text text-anchor="start" x="488.899" y="-666.9" font-family="Arial" font-size="14.00" fill="#666666">[longtext]</text>
</g>
<!-- page_hits&#45;&gt;page_redirects -->
<g id="edge2" class="edge">
<title>page_hits:redirect_id&#45;&gt;page_redirects:id</title>
<path fill="none" stroke="#000000" d="M433.4254,-1357.192C363.7561,-1306.3128 408.1136,-684.6024 443,-613 454.371,-589.6617 477.629,-600.3383 489,-577 507.7854,-538.444 531.8889,-480.5 489,-480.5"/>
<polygon fill="#000000" stroke="#000000" points="433.5482,-1357.2344 441.5305,-1364.7533 438.2741,-1358.8672 443,-1360.5 443,-1360.5 443,-1360.5 438.2741,-1358.8672 444.4695,-1356.2467 433.5482,-1357.2344 433.5482,-1357.2344"/>
<text text-anchor="start" x="155.1615" y="-1370.5" font-family="Arial" font-size="10.00" fill="#000000">FOREIGN KEY (redirect_id) REFERENCES page_redirects (id)</text>
</g>
</g>
</svg>
