<?xml version="1.0" encoding="UTF-8" standalone="no"?>
<!DOCTYPE svg PUBLIC "-//W3C//DTD SVG 1.1//EN"
 "http://www.w3.org/Graphics/SVG/1.1/DTD/svg11.dtd">
<!-- Generated by graphviz version 2.40.1 (20161225.0304)
 -->
<!-- Title: permissions Pages: 1 -->
<svg width="509pt" height="892pt"
 viewBox="0.00 0.00 508.50 892.00" xmlns="http://www.w3.org/2000/svg" xmlns:xlink="http://www.w3.org/1999/xlink">
<g id="graph0" class="graph" transform="scale(1 1) rotate(0) translate(4 888)">
<title>permissions</title>
<polygon fill="#ffffff" stroke="transparent" points="-4,4 -4,-888 504.5,-888 504.5,4 -4,4"/>
<!-- permissions -->
<g id="node1" class="node">
<title>permissions</title>
<polygon fill="#efefef" stroke="transparent" points="234,-802.5 234,-837.5 441,-837.5 441,-802.5 234,-802.5"/>
<polygon fill="none" stroke="#000000" points="234,-802.5 234,-837.5 441,-837.5 441,-802.5 234,-802.5"/>
<text text-anchor="start" x="240.8743" y="-815.3" font-family="Arial Bold" font-size="18.00" fill="#000000">permissions</text>
<text text-anchor="start" x="336.8719" y="-815.3" font-family="Arial" font-size="14.00" fill="#000000"> </text>
<text text-anchor="start" x="340.7625" y="-815.3" font-family="Arial" font-size="14.00" fill="#666666">[BASE TABLE]</text>
<polygon fill="none" stroke="#000000" points="234,-772.5 234,-802.5 441,-802.5 441,-772.5 234,-772.5"/>
<text text-anchor="start" x="241" y="-783.9" font-family="Arial" font-size="14.00" fill="#000000">id </text>
<text text-anchor="start" x="255.7798" y="-783.9" font-family="Arial" font-size="14.00" fill="#666666">[int(10) unsigned]</text>
<polygon fill="none" stroke="#000000" points="234,-742.5 234,-772.5 441,-772.5 441,-742.5 234,-742.5"/>
<text text-anchor="start" x="241" y="-753.9" font-family="Arial" font-size="14.00" fill="#000000">role_id </text>
<text text-anchor="start" x="286.8948" y="-753.9" font-family="Arial" font-size="14.00" fill="#666666">[int(10) unsigned]</text>
<polygon fill="none" stroke="#000000" points="234,-712.5 234,-742.5 441,-742.5 441,-712.5 234,-712.5"/>
<text text-anchor="start" x="241" y="-723.9" font-family="Arial" font-size="14.00" fill="#000000">bundle </text>
<text text-anchor="start" x="286.9102" y="-723.9" font-family="Arial" font-size="14.00" fill="#666666">[varchar(50)]</text>
<polygon fill="none" stroke="#000000" points="234,-682.5 234,-712.5 441,-712.5 441,-682.5 234,-682.5"/>
<text text-anchor="start" x="241" y="-693.9" font-family="Arial" font-size="14.00" fill="#000000">name </text>
<text text-anchor="start" x="279.899" y="-693.9" font-family="Arial" font-size="14.00" fill="#666666">[varchar(50)]</text>
<polygon fill="none" stroke="#000000" points="234,-652.5 234,-682.5 441,-682.5 441,-652.5 234,-652.5"/>
<text text-anchor="start" x="241" y="-663.9" font-family="Arial" font-size="14.00" fill="#000000">bitwise </text>
<text text-anchor="start" x="287.6662" y="-663.9" font-family="Arial" font-size="14.00" fill="#666666">[int(11)]</text>
<polygon fill="none" stroke="#000000" stroke-width="3" points="232,-651.5 232,-839.5 442,-839.5 442,-651.5 232,-651.5"/>
</g>
<!-- roles -->
<g id="node2" class="node">
<title>roles</title>
<polygon fill="#efefef" stroke="transparent" points="217,-492.5 217,-527.5 458,-527.5 458,-492.5 217,-492.5"/>
<polygon fill="none" stroke="#000000" points="217,-492.5 217,-527.5 458,-527.5 458,-492.5 217,-492.5"/>
<text text-anchor="start" x="269.3737" y="-505.3" font-family="Arial Bold" font-size="18.00" fill="#000000">roles</text>
<text text-anchor="start" x="308.3725" y="-505.3" font-family="Arial" font-size="14.00" fill="#000000"> </text>
<text text-anchor="start" x="312.2631" y="-505.3" font-family="Arial" font-size="14.00" fill="#666666">[BASE TABLE]</text>
<polygon fill="none" stroke="#000000" points="217,-462.5 217,-492.5 458,-492.5 458,-462.5 217,-462.5"/>
<text text-anchor="start" x="224" y="-473.9" font-family="Arial" font-size="14.00" fill="#000000">id </text>
<text text-anchor="start" x="238.7798" y="-473.9" font-family="Arial" font-size="14.00" fill="#666666">[int(10) unsigned]</text>
<polygon fill="none" stroke="#000000" points="217,-432.5 217,-462.5 458,-462.5 458,-432.5 217,-432.5"/>
<text text-anchor="start" x="224" y="-443.9" font-family="Arial" font-size="14.00" fill="#000000">is_published </text>
<text text-anchor="start" x="305.6886" y="-443.9" font-family="Arial" font-size="14.00" fill="#666666">[tinyint(1)]</text>
<polygon fill="none" stroke="#000000" points="217,-402.5 217,-432.5 458,-432.5 458,-402.5 217,-402.5"/>
<text text-anchor="start" x="224" y="-413.9" font-family="Arial" font-size="14.00" fill="#000000">date_added </text>
<text text-anchor="start" x="301.8246" y="-413.9" font-family="Arial" font-size="14.00" fill="#666666">[datetime]</text>
<polygon fill="none" stroke="#000000" points="217,-372.5 217,-402.5 458,-402.5 458,-372.5 217,-372.5"/>
<text text-anchor="start" x="224" y="-383.9" font-family="Arial" font-size="14.00" fill="#000000">created_by </text>
<text text-anchor="start" x="297.1374" y="-383.9" font-family="Arial" font-size="14.00" fill="#666666">[int(11)]</text>
<polygon fill="none" stroke="#000000" points="217,-342.5 217,-372.5 458,-372.5 458,-342.5 217,-342.5"/>
<text text-anchor="start" x="224" y="-353.9" font-family="Arial" font-size="14.00" fill="#000000">created_by_user </text>
<text text-anchor="start" x="332.1458" y="-353.9" font-family="Arial" font-size="14.00" fill="#666666">[varchar(191)]</text>
<polygon fill="none" stroke="#000000" points="217,-312.5 217,-342.5 458,-342.5 458,-312.5 217,-312.5"/>
<text text-anchor="start" x="224" y="-323.9" font-family="Arial" font-size="14.00" fill="#000000">date_modified </text>
<text text-anchor="start" x="315.8064" y="-323.9" font-family="Arial" font-size="14.00" fill="#666666">[datetime]</text>
<polygon fill="none" stroke="#000000" points="217,-282.5 217,-312.5 458,-312.5 458,-282.5 217,-282.5"/>
<text text-anchor="start" x="224" y="-293.9" font-family="Arial" font-size="14.00" fill="#000000">modified_by </text>
<text text-anchor="start" x="303.3506" y="-293.9" font-family="Arial" font-size="14.00" fill="#666666">[int(11)]</text>
<polygon fill="none" stroke="#000000" points="217,-252.5 217,-282.5 458,-282.5 458,-252.5 217,-252.5"/>
<text text-anchor="start" x="224" y="-263.9" font-family="Arial" font-size="14.00" fill="#000000">modified_by_user </text>
<text text-anchor="start" x="338.359" y="-263.9" font-family="Arial" font-size="14.00" fill="#666666">[varchar(191)]</text>
<polygon fill="none" stroke="#000000" points="217,-222.5 217,-252.5 458,-252.5 458,-222.5 217,-222.5"/>
<text text-anchor="start" x="224" y="-233.9" font-family="Arial" font-size="14.00" fill="#000000">checked_out </text>
<text text-anchor="start" x="307.2594" y="-233.9" font-family="Arial" font-size="14.00" fill="#666666">[datetime]</text>
<polygon fill="none" stroke="#000000" points="217,-192.5 217,-222.5 458,-222.5 458,-192.5 217,-192.5"/>
<text text-anchor="start" x="224" y="-203.9" font-family="Arial" font-size="14.00" fill="#000000">checked_out_by </text>
<text text-anchor="start" x="329.8246" y="-203.9" font-family="Arial" font-size="14.00" fill="#666666">[int(11)]</text>
<polygon fill="none" stroke="#000000" points="217,-162.5 217,-192.5 458,-192.5 458,-162.5 217,-162.5"/>
<text text-anchor="start" x="223.5239" y="-173.9" font-family="Arial" font-size="14.00" fill="#000000">checked_out_by_user </text>
<text text-anchor="start" x="364.3569" y="-173.9" font-family="Arial" font-size="14.00" fill="#666666">[varchar(191)]</text>
<polygon fill="none" stroke="#000000" points="217,-132.5 217,-162.5 458,-162.5 458,-132.5 217,-132.5"/>
<text text-anchor="start" x="224" y="-143.9" font-family="Arial" font-size="14.00" fill="#000000">name </text>
<text text-anchor="start" x="262.899" y="-143.9" font-family="Arial" font-size="14.00" fill="#666666">[varchar(191)]</text>
<polygon fill="none" stroke="#000000" points="217,-102.5 217,-132.5 458,-132.5 458,-102.5 217,-102.5"/>
<text text-anchor="start" x="224" y="-113.9" font-family="Arial" font-size="14.00" fill="#000000">description </text>
<text text-anchor="start" x="295.568" y="-113.9" font-family="Arial" font-size="14.00" fill="#666666">[longtext]</text>
<polygon fill="none" stroke="#000000" points="217,-72.5 217,-102.5 458,-102.5 458,-72.5 217,-72.5"/>
<text text-anchor="start" x="224" y="-83.9" font-family="Arial" font-size="14.00" fill="#000000">is_admin </text>
<text text-anchor="start" x="283.8948" y="-83.9" font-family="Arial" font-size="14.00" fill="#666666">[tinyint(1)]</text>
<polygon fill="none" stroke="#000000" points="217,-42.5 217,-72.5 458,-72.5 458,-42.5 217,-42.5"/>
<text text-anchor="start" x="224" y="-53.9" font-family="Arial" font-size="14.00" fill="#000000">readable_permissions </text>
<text text-anchor="start" x="364.8008" y="-53.9" font-family="Arial" font-size="14.00" fill="#666666">[longtext]</text>
</g>
<!-- permissions&#45;&gt;roles -->
<g id="edge1" class="edge">
<title>permissions:role_id&#45;&gt;roles:id</title>
<path fill="none" stroke="#000000" d="M224.1852,-755.0794C170.0411,-727.7124 158.0722,-477.5 217,-477.5"/>
<polygon fill="#000000" stroke="#000000" points="224.2909,-755.1054 232.9224,-761.8691 229.1455,-756.3027 234,-757.5 234,-757.5 234,-757.5 229.1455,-756.3027 235.0776,-753.1309 224.2909,-755.1054 224.2909,-755.1054"/>
<text text-anchor="start" x="6.726" y="-767.5" font-family="Arial" font-size="10.00" fill="#000000">FOREIGN KEY (role_id) REFERENCES roles (id)</text>
</g>
</g>
</svg>
