<?xml version="1.0" encoding="UTF-8" standalone="no"?>
<!DOCTYPE svg PUBLIC "-//W3C//DTD SVG 1.1//EN"
 "http://www.w3.org/Graphics/SVG/1.1/DTD/svg11.dtd">
<!-- Generated by graphviz version 2.40.1 (20161225.0304)
 -->
<!-- Title: plugin_integration_settings Pages: 1 -->
<svg width="634pt" height="712pt"
 viewBox="0.00 0.00 633.50 712.00" xmlns="http://www.w3.org/2000/svg" xmlns:xlink="http://www.w3.org/1999/xlink">
<g id="graph0" class="graph" transform="scale(1 1) rotate(0) translate(4 708)">
<title>plugin_integration_settings</title>
<polygon fill="#ffffff" stroke="transparent" points="-4,4 -4,-708 629.5,-708 629.5,4 -4,4"/>
<!-- plugin_integration_settings -->
<g id="node1" class="node">
<title>plugin_integration_settings</title>
<polygon fill="#efefef" stroke="transparent" points="46.5,-622.5 46.5,-657.5 371.5,-657.5 371.5,-622.5 46.5,-622.5"/>
<polygon fill="none" stroke="#000000" points="46.5,-622.5 46.5,-657.5 371.5,-657.5 371.5,-622.5 46.5,-622.5"/>
<text text-anchor="start" x="53.3406" y="-635.3" font-family="Arial Bold" font-size="18.00" fill="#000000">plugin_integration_settings</text>
<text text-anchor="start" x="267.4056" y="-635.3" font-family="Arial" font-size="14.00" fill="#000000"> </text>
<text text-anchor="start" x="271.2962" y="-635.3" font-family="Arial" font-size="14.00" fill="#666666">[BASE TABLE]</text>
<polygon fill="none" stroke="#000000" points="46.5,-592.5 46.5,-622.5 371.5,-622.5 371.5,-592.5 46.5,-592.5"/>
<text text-anchor="start" x="53.5" y="-603.9" font-family="Arial" font-size="14.00" fill="#000000">id </text>
<text text-anchor="start" x="68.2798" y="-603.9" font-family="Arial" font-size="14.00" fill="#666666">[int(11)]</text>
<polygon fill="none" stroke="#000000" points="46.5,-562.5 46.5,-592.5 371.5,-592.5 371.5,-562.5 46.5,-562.5"/>
<text text-anchor="start" x="53.5" y="-573.9" font-family="Arial" font-size="14.00" fill="#000000">plugin_id </text>
<text text-anchor="start" x="113.406" y="-573.9" font-family="Arial" font-size="14.00" fill="#666666">[int(10) unsigned]</text>
<polygon fill="none" stroke="#000000" points="46.5,-532.5 46.5,-562.5 371.5,-562.5 371.5,-532.5 46.5,-532.5"/>
<text text-anchor="start" x="53.5" y="-543.9" font-family="Arial" font-size="14.00" fill="#000000">name </text>
<text text-anchor="start" x="92.399" y="-543.9" font-family="Arial" font-size="14.00" fill="#666666">[varchar(191)]</text>
<polygon fill="none" stroke="#000000" points="46.5,-502.5 46.5,-532.5 371.5,-532.5 371.5,-502.5 46.5,-502.5"/>
<text text-anchor="start" x="53.5" y="-513.9" font-family="Arial" font-size="14.00" fill="#000000">is_published </text>
<text text-anchor="start" x="135.1886" y="-513.9" font-family="Arial" font-size="14.00" fill="#666666">[tinyint(1)]</text>
<polygon fill="none" stroke="#000000" points="46.5,-472.5 46.5,-502.5 371.5,-502.5 371.5,-472.5 46.5,-472.5"/>
<text text-anchor="start" x="53.5" y="-483.9" font-family="Arial" font-size="14.00" fill="#000000">supported_features </text>
<text text-anchor="start" x="177.9922" y="-483.9" font-family="Arial" font-size="14.00" fill="#666666">[longtext]</text>
<polygon fill="none" stroke="#000000" points="46.5,-442.5 46.5,-472.5 371.5,-472.5 371.5,-442.5 46.5,-442.5"/>
<text text-anchor="start" x="53.5" y="-453.9" font-family="Arial" font-size="14.00" fill="#000000">api_keys </text>
<text text-anchor="start" x="112.6276" y="-453.9" font-family="Arial" font-size="14.00" fill="#666666">[longtext]</text>
<polygon fill="none" stroke="#000000" points="46.5,-412.5 46.5,-442.5 371.5,-442.5 371.5,-412.5 46.5,-412.5"/>
<text text-anchor="start" x="53.5" y="-423.9" font-family="Arial" font-size="14.00" fill="#000000">feature_settings </text>
<text text-anchor="start" x="156.981" y="-423.9" font-family="Arial" font-size="14.00" fill="#666666">[longtext]</text>
<polygon fill="none" stroke="#000000" stroke-width="3" points="44.5,-411.5 44.5,-659.5 372.5,-659.5 372.5,-411.5 44.5,-411.5"/>
</g>
<!-- plugins -->
<g id="node2" class="node">
<title>plugins</title>
<polygon fill="#efefef" stroke="transparent" points="125.5,-252.5 125.5,-287.5 293.5,-287.5 293.5,-252.5 125.5,-252.5"/>
<polygon fill="none" stroke="#000000" points="125.5,-252.5 125.5,-287.5 293.5,-287.5 293.5,-252.5 125.5,-252.5"/>
<text text-anchor="start" x="132.3665" y="-265.3" font-family="Arial Bold" font-size="18.00" fill="#000000">plugins</text>
<text text-anchor="start" x="189.3797" y="-265.3" font-family="Arial" font-size="14.00" fill="#000000"> </text>
<text text-anchor="start" x="193.2703" y="-265.3" font-family="Arial" font-size="14.00" fill="#666666">[BASE TABLE]</text>
<polygon fill="none" stroke="#000000" points="125.5,-222.5 125.5,-252.5 293.5,-252.5 293.5,-222.5 125.5,-222.5"/>
<text text-anchor="start" x="132.5" y="-233.9" font-family="Arial" font-size="14.00" fill="#000000">id </text>
<text text-anchor="start" x="147.2798" y="-233.9" font-family="Arial" font-size="14.00" fill="#666666">[int(10) unsigned]</text>
<polygon fill="none" stroke="#000000" points="125.5,-192.5 125.5,-222.5 293.5,-222.5 293.5,-192.5 125.5,-192.5"/>
<text text-anchor="start" x="132.5" y="-203.9" font-family="Arial" font-size="14.00" fill="#000000">name </text>
<text text-anchor="start" x="171.399" y="-203.9" font-family="Arial" font-size="14.00" fill="#666666">[varchar(191)]</text>
<polygon fill="none" stroke="#000000" points="125.5,-162.5 125.5,-192.5 293.5,-192.5 293.5,-162.5 125.5,-162.5"/>
<text text-anchor="start" x="132.5" y="-173.9" font-family="Arial" font-size="14.00" fill="#000000">description </text>
<text text-anchor="start" x="204.068" y="-173.9" font-family="Arial" font-size="14.00" fill="#666666">[longtext]</text>
<polygon fill="none" stroke="#000000" points="125.5,-132.5 125.5,-162.5 293.5,-162.5 293.5,-132.5 125.5,-132.5"/>
<text text-anchor="start" x="132.5" y="-143.9" font-family="Arial" font-size="14.00" fill="#000000">is_missing </text>
<text text-anchor="start" x="201.7188" y="-143.9" font-family="Arial" font-size="14.00" fill="#666666">[tinyint(1)]</text>
<polygon fill="none" stroke="#000000" points="125.5,-102.5 125.5,-132.5 293.5,-132.5 293.5,-102.5 125.5,-102.5"/>
<text text-anchor="start" x="132.5" y="-113.9" font-family="Arial" font-size="14.00" fill="#000000">bundle </text>
<text text-anchor="start" x="178.4102" y="-113.9" font-family="Arial" font-size="14.00" fill="#666666">[varchar(50)]</text>
<polygon fill="none" stroke="#000000" points="125.5,-72.5 125.5,-102.5 293.5,-102.5 293.5,-72.5 125.5,-72.5"/>
<text text-anchor="start" x="132.5" y="-83.9" font-family="Arial" font-size="14.00" fill="#000000">version </text>
<text text-anchor="start" x="181.5056" y="-83.9" font-family="Arial" font-size="14.00" fill="#666666">[varchar(191)]</text>
<polygon fill="none" stroke="#000000" points="125.5,-42.5 125.5,-72.5 293.5,-72.5 293.5,-42.5 125.5,-42.5"/>
<text text-anchor="start" x="132.5" y="-53.9" font-family="Arial" font-size="14.00" fill="#000000">author </text>
<text text-anchor="start" x="176.0722" y="-53.9" font-family="Arial" font-size="14.00" fill="#666666">[varchar(191)]</text>
</g>
<!-- plugin_integration_settings&#45;&gt;plugins -->
<g id="edge1" class="edge">
<title>plugin_integration_settings:plugin_id&#45;&gt;plugins:id</title>
<path fill="none" stroke="#000000" d="M381.8929,-576.8729C462.482,-566.6897 430.2873,-435.0165 371.5,-367 299.2442,-283.4005 197.7558,-414.5995 125.5,-331 98.3263,-299.5603 83.9444,-237.5 125.5,-237.5"/>
<polygon fill="#000000" stroke="#000000" points="381.4818,-576.8976 371.2289,-573.0082 376.4909,-577.1988 371.5,-577.5 371.5,-577.5 371.5,-577.5 376.4909,-577.1988 371.7711,-581.9918 381.4818,-576.8976 381.4818,-576.8976"/>
<text text-anchor="start" x="378.218" y="-587.5" font-family="Arial" font-size="10.00" fill="#000000">FOREIGN KEY (plugin_id) REFERENCES plugins (id)</text>
</g>
</g>
</svg>
