<?xml version="1.0" encoding="UTF-8" standalone="no"?>
<!DOCTYPE svg PUBLIC "-//W3C//DTD SVG 1.1//EN"
 "http://www.w3.org/Graphics/SVG/1.1/DTD/svg11.dtd">
<!-- Generated by graphviz version 2.40.1 (20161225.0304)
 -->
<!-- Title: plugins Pages: 1 -->
<svg width="631pt" height="712pt"
 viewBox="0.00 0.00 630.50 712.00" xmlns="http://www.w3.org/2000/svg" xmlns:xlink="http://www.w3.org/1999/xlink">
<g id="graph0" class="graph" transform="scale(1 1) rotate(0) translate(4 708)">
<title>plugins</title>
<polygon fill="#ffffff" stroke="transparent" points="-4,4 -4,-708 626.5,-708 626.5,4 -4,4"/>
<!-- plugins -->
<g id="node1" class="node">
<title>plugins</title>
<polygon fill="#efefef" stroke="transparent" points="122.5,-255.5 122.5,-290.5 290.5,-290.5 290.5,-255.5 122.5,-255.5"/>
<polygon fill="none" stroke="#000000" points="122.5,-255.5 122.5,-290.5 290.5,-290.5 290.5,-255.5 122.5,-255.5"/>
<text text-anchor="start" x="129.3665" y="-268.3" font-family="Arial Bold" font-size="18.00" fill="#000000">plugins</text>
<text text-anchor="start" x="186.3797" y="-268.3" font-family="Arial" font-size="14.00" fill="#000000"> </text>
<text text-anchor="start" x="190.2703" y="-268.3" font-family="Arial" font-size="14.00" fill="#666666">[BASE TABLE]</text>
<polygon fill="none" stroke="#000000" points="122.5,-225.5 122.5,-255.5 290.5,-255.5 290.5,-225.5 122.5,-225.5"/>
<text text-anchor="start" x="129.5" y="-236.9" font-family="Arial" font-size="14.00" fill="#000000">id </text>
<text text-anchor="start" x="144.2798" y="-236.9" font-family="Arial" font-size="14.00" fill="#666666">[int(10) unsigned]</text>
<polygon fill="none" stroke="#000000" points="122.5,-195.5 122.5,-225.5 290.5,-225.5 290.5,-195.5 122.5,-195.5"/>
<text text-anchor="start" x="129.5" y="-206.9" font-family="Arial" font-size="14.00" fill="#000000">name </text>
<text text-anchor="start" x="168.399" y="-206.9" font-family="Arial" font-size="14.00" fill="#666666">[varchar(191)]</text>
<polygon fill="none" stroke="#000000" points="122.5,-165.5 122.5,-195.5 290.5,-195.5 290.5,-165.5 122.5,-165.5"/>
<text text-anchor="start" x="129.5" y="-176.9" font-family="Arial" font-size="14.00" fill="#000000">description </text>
<text text-anchor="start" x="201.068" y="-176.9" font-family="Arial" font-size="14.00" fill="#666666">[longtext]</text>
<polygon fill="none" stroke="#000000" points="122.5,-135.5 122.5,-165.5 290.5,-165.5 290.5,-135.5 122.5,-135.5"/>
<text text-anchor="start" x="129.5" y="-146.9" font-family="Arial" font-size="14.00" fill="#000000">is_missing </text>
<text text-anchor="start" x="198.7188" y="-146.9" font-family="Arial" font-size="14.00" fill="#666666">[tinyint(1)]</text>
<polygon fill="none" stroke="#000000" points="122.5,-105.5 122.5,-135.5 290.5,-135.5 290.5,-105.5 122.5,-105.5"/>
<text text-anchor="start" x="129.5" y="-116.9" font-family="Arial" font-size="14.00" fill="#000000">bundle </text>
<text text-anchor="start" x="175.4102" y="-116.9" font-family="Arial" font-size="14.00" fill="#666666">[varchar(50)]</text>
<polygon fill="none" stroke="#000000" points="122.5,-75.5 122.5,-105.5 290.5,-105.5 290.5,-75.5 122.5,-75.5"/>
<text text-anchor="start" x="129.5" y="-86.9" font-family="Arial" font-size="14.00" fill="#000000">version </text>
<text text-anchor="start" x="178.5056" y="-86.9" font-family="Arial" font-size="14.00" fill="#666666">[varchar(191)]</text>
<polygon fill="none" stroke="#000000" points="122.5,-45.5 122.5,-75.5 290.5,-75.5 290.5,-45.5 122.5,-45.5"/>
<text text-anchor="start" x="129.5" y="-56.9" font-family="Arial" font-size="14.00" fill="#000000">author </text>
<text text-anchor="start" x="173.0722" y="-56.9" font-family="Arial" font-size="14.00" fill="#666666">[varchar(191)]</text>
<polygon fill="none" stroke="#000000" stroke-width="3" points="121,-44.5 121,-292.5 292,-292.5 292,-44.5 121,-44.5"/>
</g>
<!-- plugin_integration_settings -->
<g id="node2" class="node">
<title>plugin_integration_settings</title>
<polygon fill="#efefef" stroke="transparent" points="43.5,-625.5 43.5,-660.5 368.5,-660.5 368.5,-625.5 43.5,-625.5"/>
<polygon fill="none" stroke="#000000" points="43.5,-625.5 43.5,-660.5 368.5,-660.5 368.5,-625.5 43.5,-625.5"/>
<text text-anchor="start" x="50.3406" y="-638.3" font-family="Arial Bold" font-size="18.00" fill="#000000">plugin_integration_settings</text>
<text text-anchor="start" x="264.4056" y="-638.3" font-family="Arial" font-size="14.00" fill="#000000"> </text>
<text text-anchor="start" x="268.2962" y="-638.3" font-family="Arial" font-size="14.00" fill="#666666">[BASE TABLE]</text>
<polygon fill="none" stroke="#000000" points="43.5,-595.5 43.5,-625.5 368.5,-625.5 368.5,-595.5 43.5,-595.5"/>
<text text-anchor="start" x="50.5" y="-606.9" font-family="Arial" font-size="14.00" fill="#000000">id </text>
<text text-anchor="start" x="65.2798" y="-606.9" font-family="Arial" font-size="14.00" fill="#666666">[int(11)]</text>
<polygon fill="none" stroke="#000000" points="43.5,-565.5 43.5,-595.5 368.5,-595.5 368.5,-565.5 43.5,-565.5"/>
<text text-anchor="start" x="50.5" y="-576.9" font-family="Arial" font-size="14.00" fill="#000000">plugin_id </text>
<text text-anchor="start" x="110.406" y="-576.9" font-family="Arial" font-size="14.00" fill="#666666">[int(10) unsigned]</text>
<polygon fill="none" stroke="#000000" points="43.5,-535.5 43.5,-565.5 368.5,-565.5 368.5,-535.5 43.5,-535.5"/>
<text text-anchor="start" x="50.5" y="-546.9" font-family="Arial" font-size="14.00" fill="#000000">name </text>
<text text-anchor="start" x="89.399" y="-546.9" font-family="Arial" font-size="14.00" fill="#666666">[varchar(191)]</text>
<polygon fill="none" stroke="#000000" points="43.5,-505.5 43.5,-535.5 368.5,-535.5 368.5,-505.5 43.5,-505.5"/>
<text text-anchor="start" x="50.5" y="-516.9" font-family="Arial" font-size="14.00" fill="#000000">is_published </text>
<text text-anchor="start" x="132.1886" y="-516.9" font-family="Arial" font-size="14.00" fill="#666666">[tinyint(1)]</text>
<polygon fill="none" stroke="#000000" points="43.5,-475.5 43.5,-505.5 368.5,-505.5 368.5,-475.5 43.5,-475.5"/>
<text text-anchor="start" x="50.5" y="-486.9" font-family="Arial" font-size="14.00" fill="#000000">supported_features </text>
<text text-anchor="start" x="174.9922" y="-486.9" font-family="Arial" font-size="14.00" fill="#666666">[longtext]</text>
<polygon fill="none" stroke="#000000" points="43.5,-445.5 43.5,-475.5 368.5,-475.5 368.5,-445.5 43.5,-445.5"/>
<text text-anchor="start" x="50.5" y="-456.9" font-family="Arial" font-size="14.00" fill="#000000">api_keys </text>
<text text-anchor="start" x="109.6276" y="-456.9" font-family="Arial" font-size="14.00" fill="#666666">[longtext]</text>
<polygon fill="none" stroke="#000000" points="43.5,-415.5 43.5,-445.5 368.5,-445.5 368.5,-415.5 43.5,-415.5"/>
<text text-anchor="start" x="50.5" y="-426.9" font-family="Arial" font-size="14.00" fill="#000000">feature_settings </text>
<text text-anchor="start" x="153.981" y="-426.9" font-family="Arial" font-size="14.00" fill="#666666">[longtext]</text>
</g>
<!-- plugin_integration_settings&#45;&gt;plugins -->
<g id="edge1" class="edge">
<title>plugin_integration_settings:plugin_id&#45;&gt;plugins:id</title>
<path fill="none" stroke="#000000" d="M378.7447,-579.8818C458.1854,-569.8437 426.4495,-440.0472 368.5,-373 296.2442,-289.4005 194.7558,-420.5995 122.5,-337 94.4545,-304.5515 79.6111,-240.5 122.5,-240.5"/>
<polygon fill="#000000" stroke="#000000" points="378.4818,-579.8976 368.2289,-576.0082 373.4909,-580.1988 368.5,-580.5 368.5,-580.5 368.5,-580.5 373.4909,-580.1988 368.7711,-584.9918 378.4818,-579.8976 378.4818,-579.8976"/>
<text text-anchor="start" x="375.218" y="-590.5" font-family="Arial" font-size="10.00" fill="#000000">FOREIGN KEY (plugin_id) REFERENCES plugins (id)</text>
</g>
</g>
</svg>
