<?xml version="1.0" encoding="UTF-8" standalone="no"?>
<!DOCTYPE svg PUBLIC "-//W3C//DTD SVG 1.1//EN"
 "http://www.w3.org/Graphics/SVG/1.1/DTD/svg11.dtd">
<!-- Generated by graphviz version 2.40.1 (20161225.0304)
 -->
<!-- Title: plugin_citrix_events Pages: 1 -->
<svg width="562pt" height="1882pt"
 viewBox="0.00 0.00 561.50 1882.00" xmlns="http://www.w3.org/2000/svg" xmlns:xlink="http://www.w3.org/1999/xlink">
<g id="graph0" class="graph" transform="scale(1 1) rotate(0) translate(4 1878)">
<title>plugin_citrix_events</title>
<polygon fill="#ffffff" stroke="transparent" points="-4,4 -4,-1878 557.5,-1878 557.5,4 -4,4"/>
<!-- plugin_citrix_events -->
<g id="node1" class="node">
<title>plugin_citrix_events</title>
<polygon fill="#efefef" stroke="transparent" points="239,-1792.5 239,-1827.5 508,-1827.5 508,-1792.5 239,-1792.5"/>
<polygon fill="none" stroke="#000000" points="239,-1792.5 239,-1827.5 508,-1827.5 508,-1792.5 239,-1792.5"/>
<text text-anchor="start" x="245.8585" y="-1805.3" font-family="Arial Bold" font-size="18.00" fill="#000000">plugin_citrix_events</text>
<text text-anchor="start" x="403.8877" y="-1805.3" font-family="Arial" font-size="14.00" fill="#000000"> </text>
<text text-anchor="start" x="407.7783" y="-1805.3" font-family="Arial" font-size="14.00" fill="#666666">[BASE TABLE]</text>
<polygon fill="none" stroke="#000000" points="239,-1762.5 239,-1792.5 508,-1792.5 508,-1762.5 239,-1762.5"/>
<text text-anchor="start" x="246" y="-1773.9" font-family="Arial" font-size="14.00" fill="#000000">id </text>
<text text-anchor="start" x="260.7798" y="-1773.9" font-family="Arial" font-size="14.00" fill="#666666">[int(10) unsigned]</text>
<polygon fill="none" stroke="#000000" points="239,-1732.5 239,-1762.5 508,-1762.5 508,-1732.5 239,-1732.5"/>
<text text-anchor="start" x="246" y="-1743.9" font-family="Arial" font-size="14.00" fill="#000000">lead_id </text>
<text text-anchor="start" x="295.0168" y="-1743.9" font-family="Arial" font-size="14.00" fill="#666666">[bigint(20) unsigned]</text>
<polygon fill="none" stroke="#000000" points="239,-1702.5 239,-1732.5 508,-1732.5 508,-1702.5 239,-1702.5"/>
<text text-anchor="start" x="246" y="-1713.9" font-family="Arial" font-size="14.00" fill="#000000">product </text>
<text text-anchor="start" x="296.5722" y="-1713.9" font-family="Arial" font-size="14.00" fill="#666666">[varchar(191)]</text>
<polygon fill="none" stroke="#000000" points="239,-1672.5 239,-1702.5 508,-1702.5 508,-1672.5 239,-1672.5"/>
<text text-anchor="start" x="246" y="-1683.9" font-family="Arial" font-size="14.00" fill="#000000">email </text>
<text text-anchor="start" x="283.3296" y="-1683.9" font-family="Arial" font-size="14.00" fill="#666666">[varchar(191)]</text>
<polygon fill="none" stroke="#000000" points="239,-1642.5 239,-1672.5 508,-1672.5 508,-1642.5 239,-1642.5"/>
<text text-anchor="start" x="246" y="-1653.9" font-family="Arial" font-size="14.00" fill="#000000">event_name </text>
<text text-anchor="start" x="326.92" y="-1653.9" font-family="Arial" font-size="14.00" fill="#666666">[varchar(191)]</text>
<polygon fill="none" stroke="#000000" points="239,-1612.5 239,-1642.5 508,-1642.5 508,-1612.5 239,-1612.5"/>
<text text-anchor="start" x="246" y="-1623.9" font-family="Arial" font-size="14.00" fill="#000000">event_desc </text>
<text text-anchor="start" x="321.4768" y="-1623.9" font-family="Arial" font-size="14.00" fill="#666666">[varchar(191)]</text>
<polygon fill="none" stroke="#000000" points="239,-1582.5 239,-1612.5 508,-1612.5 508,-1582.5 239,-1582.5"/>
<text text-anchor="start" x="246" y="-1593.9" font-family="Arial" font-size="14.00" fill="#000000">event_type </text>
<text text-anchor="start" x="318.3674" y="-1593.9" font-family="Arial" font-size="14.00" fill="#666666">[varchar(50)]</text>
<polygon fill="none" stroke="#000000" points="239,-1552.5 239,-1582.5 508,-1582.5 508,-1552.5 239,-1552.5"/>
<text text-anchor="start" x="246" y="-1563.9" font-family="Arial" font-size="14.00" fill="#000000">event_date </text>
<text text-anchor="start" x="319.15" y="-1563.9" font-family="Arial" font-size="14.00" fill="#666666">[datetime]</text>
<polygon fill="none" stroke="#000000" stroke-width="3" points="237,-1551.5 237,-1829.5 509,-1829.5 509,-1551.5 237,-1551.5"/>
</g>
<!-- leads -->
<g id="node2" class="node">
<title>leads</title>
<polygon fill="#efefef" stroke="transparent" points="247,-1392.5 247,-1427.5 500,-1427.5 500,-1392.5 247,-1392.5"/>
<polygon fill="none" stroke="#000000" points="247,-1392.5 247,-1427.5 500,-1427.5 500,-1392.5 247,-1392.5"/>
<text text-anchor="start" x="303.3667" y="-1405.3" font-family="Arial Bold" font-size="18.00" fill="#000000">leads</text>
<text text-anchor="start" x="346.3795" y="-1405.3" font-family="Arial" font-size="14.00" fill="#000000"> </text>
<text text-anchor="start" x="350.2701" y="-1405.3" font-family="Arial" font-size="14.00" fill="#666666">[BASE TABLE]</text>
<polygon fill="none" stroke="#000000" points="247,-1362.5 247,-1392.5 500,-1392.5 500,-1362.5 247,-1362.5"/>
<text text-anchor="start" x="254" y="-1373.9" font-family="Arial" font-size="14.00" fill="#000000">id </text>
<text text-anchor="start" x="268.7798" y="-1373.9" font-family="Arial" font-size="14.00" fill="#666666">[bigint(20) unsigned]</text>
<polygon fill="none" stroke="#000000" points="247,-1332.5 247,-1362.5 500,-1362.5 500,-1332.5 247,-1332.5"/>
<text text-anchor="start" x="254" y="-1343.9" font-family="Arial" font-size="14.00" fill="#000000">owner_id </text>
<text text-anchor="start" x="314.6774" y="-1343.9" font-family="Arial" font-size="14.00" fill="#666666">[int(10) unsigned]</text>
<polygon fill="none" stroke="#000000" points="247,-1302.5 247,-1332.5 500,-1332.5 500,-1302.5 247,-1302.5"/>
<text text-anchor="start" x="254" y="-1313.9" font-family="Arial" font-size="14.00" fill="#000000">stage_id </text>
<text text-anchor="start" x="310.8008" y="-1313.9" font-family="Arial" font-size="14.00" fill="#666666">[int(10) unsigned]</text>
<polygon fill="none" stroke="#000000" points="247,-1272.5 247,-1302.5 500,-1302.5 500,-1272.5 247,-1272.5"/>
<text text-anchor="start" x="254" y="-1283.9" font-family="Arial" font-size="14.00" fill="#000000">is_published </text>
<text text-anchor="start" x="335.6886" y="-1283.9" font-family="Arial" font-size="14.00" fill="#666666">[tinyint(1)]</text>
<polygon fill="none" stroke="#000000" points="247,-1242.5 247,-1272.5 500,-1272.5 500,-1242.5 247,-1242.5"/>
<text text-anchor="start" x="254" y="-1253.9" font-family="Arial" font-size="14.00" fill="#000000">date_added </text>
<text text-anchor="start" x="331.8246" y="-1253.9" font-family="Arial" font-size="14.00" fill="#666666">[datetime]</text>
<polygon fill="none" stroke="#000000" points="247,-1212.5 247,-1242.5 500,-1242.5 500,-1212.5 247,-1212.5"/>
<text text-anchor="start" x="254" y="-1223.9" font-family="Arial" font-size="14.00" fill="#000000">created_by </text>
<text text-anchor="start" x="327.1374" y="-1223.9" font-family="Arial" font-size="14.00" fill="#666666">[int(11)]</text>
<polygon fill="none" stroke="#000000" points="247,-1182.5 247,-1212.5 500,-1212.5 500,-1182.5 247,-1182.5"/>
<text text-anchor="start" x="254" y="-1193.9" font-family="Arial" font-size="14.00" fill="#000000">created_by_user </text>
<text text-anchor="start" x="362.1458" y="-1193.9" font-family="Arial" font-size="14.00" fill="#666666">[varchar(191)]</text>
<polygon fill="none" stroke="#000000" points="247,-1152.5 247,-1182.5 500,-1182.5 500,-1152.5 247,-1152.5"/>
<text text-anchor="start" x="254" y="-1163.9" font-family="Arial" font-size="14.00" fill="#000000">date_modified </text>
<text text-anchor="start" x="345.8064" y="-1163.9" font-family="Arial" font-size="14.00" fill="#666666">[datetime]</text>
<polygon fill="none" stroke="#000000" points="247,-1122.5 247,-1152.5 500,-1152.5 500,-1122.5 247,-1122.5"/>
<text text-anchor="start" x="254" y="-1133.9" font-family="Arial" font-size="14.00" fill="#000000">modified_by </text>
<text text-anchor="start" x="333.3506" y="-1133.9" font-family="Arial" font-size="14.00" fill="#666666">[int(11)]</text>
<polygon fill="none" stroke="#000000" points="247,-1092.5 247,-1122.5 500,-1122.5 500,-1092.5 247,-1092.5"/>
<text text-anchor="start" x="254" y="-1103.9" font-family="Arial" font-size="14.00" fill="#000000">modified_by_user </text>
<text text-anchor="start" x="368.359" y="-1103.9" font-family="Arial" font-size="14.00" fill="#666666">[varchar(191)]</text>
<polygon fill="none" stroke="#000000" points="247,-1062.5 247,-1092.5 500,-1092.5 500,-1062.5 247,-1062.5"/>
<text text-anchor="start" x="254" y="-1073.9" font-family="Arial" font-size="14.00" fill="#000000">checked_out </text>
<text text-anchor="start" x="337.2594" y="-1073.9" font-family="Arial" font-size="14.00" fill="#666666">[datetime]</text>
<polygon fill="none" stroke="#000000" points="247,-1032.5 247,-1062.5 500,-1062.5 500,-1032.5 247,-1032.5"/>
<text text-anchor="start" x="254" y="-1043.9" font-family="Arial" font-size="14.00" fill="#000000">checked_out_by </text>
<text text-anchor="start" x="359.8246" y="-1043.9" font-family="Arial" font-size="14.00" fill="#666666">[int(11)]</text>
<polygon fill="none" stroke="#000000" points="247,-1002.5 247,-1032.5 500,-1032.5 500,-1002.5 247,-1002.5"/>
<text text-anchor="start" x="254" y="-1013.9" font-family="Arial" font-size="14.00" fill="#000000">checked_out_by_user </text>
<text text-anchor="start" x="394.833" y="-1013.9" font-family="Arial" font-size="14.00" fill="#666666">[varchar(191)]</text>
<polygon fill="none" stroke="#000000" points="247,-972.5 247,-1002.5 500,-1002.5 500,-972.5 247,-972.5"/>
<text text-anchor="start" x="254" y="-983.9" font-family="Arial" font-size="14.00" fill="#000000">points </text>
<text text-anchor="start" x="295.2356" y="-983.9" font-family="Arial" font-size="14.00" fill="#666666">[int(11)]</text>
<polygon fill="none" stroke="#000000" points="247,-942.5 247,-972.5 500,-972.5 500,-942.5 247,-942.5"/>
<text text-anchor="start" x="254" y="-953.9" font-family="Arial" font-size="14.00" fill="#000000">last_active </text>
<text text-anchor="start" x="324.0154" y="-953.9" font-family="Arial" font-size="14.00" fill="#666666">[datetime]</text>
<polygon fill="none" stroke="#000000" points="247,-912.5 247,-942.5 500,-942.5 500,-912.5 247,-912.5"/>
<text text-anchor="start" x="254" y="-923.9" font-family="Arial" font-size="14.00" fill="#000000">internal </text>
<text text-anchor="start" x="303.7854" y="-923.9" font-family="Arial" font-size="14.00" fill="#666666">[longtext]</text>
<polygon fill="none" stroke="#000000" points="247,-882.5 247,-912.5 500,-912.5 500,-882.5 247,-882.5"/>
<text text-anchor="start" x="254" y="-893.9" font-family="Arial" font-size="14.00" fill="#000000">social_cache </text>
<text text-anchor="start" x="338.7994" y="-893.9" font-family="Arial" font-size="14.00" fill="#666666">[longtext]</text>
<polygon fill="none" stroke="#000000" points="247,-852.5 247,-882.5 500,-882.5 500,-852.5 247,-852.5"/>
<text text-anchor="start" x="254" y="-863.9" font-family="Arial" font-size="14.00" fill="#000000">date_identified </text>
<text text-anchor="start" x="348.9256" y="-863.9" font-family="Arial" font-size="14.00" fill="#666666">[datetime]</text>
<polygon fill="none" stroke="#000000" points="247,-822.5 247,-852.5 500,-852.5 500,-822.5 247,-822.5"/>
<text text-anchor="start" x="253.7062" y="-833.9" font-family="Arial" font-size="14.00" fill="#000000">preferred_profile_image </text>
<text text-anchor="start" x="406.1746" y="-833.9" font-family="Arial" font-size="14.00" fill="#666666">[varchar(191)]</text>
<polygon fill="none" stroke="#000000" points="247,-792.5 247,-822.5 500,-822.5 500,-792.5 247,-792.5"/>
<text text-anchor="start" x="254" y="-803.9" font-family="Arial" font-size="14.00" fill="#000000">title </text>
<text text-anchor="start" x="279.6676" y="-803.9" font-family="Arial" font-size="14.00" fill="#666666">[varchar(191)]</text>
<polygon fill="none" stroke="#000000" points="247,-762.5 247,-792.5 500,-792.5 500,-762.5 247,-762.5"/>
<text text-anchor="start" x="254" y="-773.9" font-family="Arial" font-size="14.00" fill="#000000">firstname </text>
<text text-anchor="start" x="315.4474" y="-773.9" font-family="Arial" font-size="14.00" fill="#666666">[varchar(191)]</text>
<polygon fill="none" stroke="#000000" points="247,-732.5 247,-762.5 500,-762.5 500,-732.5 247,-732.5"/>
<text text-anchor="start" x="254" y="-743.9" font-family="Arial" font-size="14.00" fill="#000000">lastname </text>
<text text-anchor="start" x="314.6788" y="-743.9" font-family="Arial" font-size="14.00" fill="#666666">[varchar(191)]</text>
<polygon fill="none" stroke="#000000" points="247,-702.5 247,-732.5 500,-732.5 500,-702.5 247,-702.5"/>
<text text-anchor="start" x="254" y="-713.9" font-family="Arial" font-size="14.00" fill="#000000">company </text>
<text text-anchor="start" x="314.6816" y="-713.9" font-family="Arial" font-size="14.00" fill="#666666">[varchar(191)]</text>
<polygon fill="none" stroke="#000000" points="247,-672.5 247,-702.5 500,-702.5 500,-672.5 247,-672.5"/>
<text text-anchor="start" x="254" y="-683.9" font-family="Arial" font-size="14.00" fill="#000000">position </text>
<text text-anchor="start" x="306.1248" y="-683.9" font-family="Arial" font-size="14.00" fill="#666666">[varchar(191)]</text>
<polygon fill="none" stroke="#000000" points="247,-642.5 247,-672.5 500,-672.5 500,-642.5 247,-642.5"/>
<text text-anchor="start" x="254" y="-653.9" font-family="Arial" font-size="14.00" fill="#000000">email </text>
<text text-anchor="start" x="291.3296" y="-653.9" font-family="Arial" font-size="14.00" fill="#666666">[varchar(191)]</text>
<polygon fill="none" stroke="#000000" points="247,-612.5 247,-642.5 500,-642.5 500,-612.5 247,-612.5"/>
<text text-anchor="start" x="254" y="-623.9" font-family="Arial" font-size="14.00" fill="#000000">phone </text>
<text text-anchor="start" x="296.8036" y="-623.9" font-family="Arial" font-size="14.00" fill="#666666">[varchar(191)]</text>
<polygon fill="none" stroke="#000000" points="247,-582.5 247,-612.5 500,-612.5 500,-582.5 247,-582.5"/>
<text text-anchor="start" x="254" y="-593.9" font-family="Arial" font-size="14.00" fill="#000000">mobile </text>
<text text-anchor="start" x="299.1122" y="-593.9" font-family="Arial" font-size="14.00" fill="#666666">[varchar(191)]</text>
<polygon fill="none" stroke="#000000" points="247,-552.5 247,-582.5 500,-582.5 500,-552.5 247,-552.5"/>
<text text-anchor="start" x="254" y="-563.9" font-family="Arial" font-size="14.00" fill="#000000">address1 </text>
<text text-anchor="start" x="315.4642" y="-563.9" font-family="Arial" font-size="14.00" fill="#666666">[varchar(191)]</text>
<polygon fill="none" stroke="#000000" points="247,-522.5 247,-552.5 500,-552.5 500,-522.5 247,-522.5"/>
<text text-anchor="start" x="254" y="-533.9" font-family="Arial" font-size="14.00" fill="#000000">address2 </text>
<text text-anchor="start" x="315.4642" y="-533.9" font-family="Arial" font-size="14.00" fill="#666666">[varchar(191)]</text>
<polygon fill="none" stroke="#000000" points="247,-492.5 247,-522.5 500,-522.5 500,-492.5 247,-492.5"/>
<text text-anchor="start" x="254" y="-503.9" font-family="Arial" font-size="14.00" fill="#000000">city </text>
<text text-anchor="start" x="278.8878" y="-503.9" font-family="Arial" font-size="14.00" fill="#666666">[varchar(191)]</text>
<polygon fill="none" stroke="#000000" points="247,-462.5 247,-492.5 500,-492.5 500,-462.5 247,-462.5"/>
<text text-anchor="start" x="254" y="-473.9" font-family="Arial" font-size="14.00" fill="#000000">state </text>
<text text-anchor="start" x="288.237" y="-473.9" font-family="Arial" font-size="14.00" fill="#666666">[varchar(191)]</text>
<polygon fill="none" stroke="#000000" points="247,-432.5 247,-462.5 500,-462.5 500,-432.5 247,-432.5"/>
<text text-anchor="start" x="254" y="-443.9" font-family="Arial" font-size="14.00" fill="#000000">zipcode </text>
<text text-anchor="start" x="306.1276" y="-443.9" font-family="Arial" font-size="14.00" fill="#666666">[varchar(191)]</text>
<polygon fill="none" stroke="#000000" points="247,-402.5 247,-432.5 500,-432.5 500,-402.5 247,-402.5"/>
<text text-anchor="start" x="254" y="-413.9" font-family="Arial" font-size="14.00" fill="#000000">timezone </text>
<text text-anchor="start" x="314.6788" y="-413.9" font-family="Arial" font-size="14.00" fill="#666666">[varchar(191)]</text>
<polygon fill="none" stroke="#000000" points="247,-372.5 247,-402.5 500,-402.5 500,-372.5 247,-372.5"/>
<text text-anchor="start" x="254" y="-383.9" font-family="Arial" font-size="14.00" fill="#000000">country </text>
<text text-anchor="start" x="303.7896" y="-383.9" font-family="Arial" font-size="14.00" fill="#666666">[varchar(191)]</text>
<polygon fill="none" stroke="#000000" points="247,-342.5 247,-372.5 500,-372.5 500,-342.5 247,-342.5"/>
<text text-anchor="start" x="254" y="-353.9" font-family="Arial" font-size="14.00" fill="#000000">fax </text>
<text text-anchor="start" x="276.5638" y="-353.9" font-family="Arial" font-size="14.00" fill="#666666">[varchar(255)]</text>
<polygon fill="none" stroke="#000000" points="247,-312.5 247,-342.5 500,-342.5 500,-312.5 247,-312.5"/>
<text text-anchor="start" x="254" y="-323.9" font-family="Arial" font-size="14.00" fill="#000000">preferred_locale </text>
<text text-anchor="start" x="359.0196" y="-323.9" font-family="Arial" font-size="14.00" fill="#666666">[varchar(255)]</text>
<polygon fill="none" stroke="#000000" points="247,-282.5 247,-312.5 500,-312.5 500,-282.5 247,-282.5"/>
<text text-anchor="start" x="254" y="-293.9" font-family="Arial" font-size="14.00" fill="#000000">attribution_date </text>
<text text-anchor="start" x="354.3702" y="-293.9" font-family="Arial" font-size="14.00" fill="#666666">[datetime]</text>
<polygon fill="none" stroke="#000000" points="247,-252.5 247,-282.5 500,-282.5 500,-252.5 247,-252.5"/>
<text text-anchor="start" x="254" y="-263.9" font-family="Arial" font-size="14.00" fill="#000000">attribution </text>
<text text-anchor="start" x="319.3492" y="-263.9" font-family="Arial" font-size="14.00" fill="#666666">[double]</text>
<polygon fill="none" stroke="#000000" points="247,-222.5 247,-252.5 500,-252.5 500,-222.5 247,-222.5"/>
<text text-anchor="start" x="254" y="-233.9" font-family="Arial" font-size="14.00" fill="#000000">website </text>
<text text-anchor="start" x="305.3422" y="-233.9" font-family="Arial" font-size="14.00" fill="#666666">[longtext]</text>
<polygon fill="none" stroke="#000000" points="247,-192.5 247,-222.5 500,-222.5 500,-192.5 247,-192.5"/>
<text text-anchor="start" x="254" y="-203.9" font-family="Arial" font-size="14.00" fill="#000000">facebook </text>
<text text-anchor="start" x="314.6942" y="-203.9" font-family="Arial" font-size="14.00" fill="#666666">[varchar(255)]</text>
<polygon fill="none" stroke="#000000" points="247,-162.5 247,-192.5 500,-192.5 500,-162.5 247,-162.5"/>
<text text-anchor="start" x="254" y="-173.9" font-family="Arial" font-size="14.00" fill="#000000">foursquare </text>
<text text-anchor="start" x="324.798" y="-173.9" font-family="Arial" font-size="14.00" fill="#666666">[varchar(255)]</text>
<polygon fill="none" stroke="#000000" points="247,-132.5 247,-162.5 500,-162.5 500,-132.5 247,-132.5"/>
<text text-anchor="start" x="254" y="-143.9" font-family="Arial" font-size="14.00" fill="#000000">instagram </text>
<text text-anchor="start" x="319.3394" y="-143.9" font-family="Arial" font-size="14.00" fill="#666666">[varchar(255)]</text>
<polygon fill="none" stroke="#000000" points="247,-102.5 247,-132.5 500,-132.5 500,-102.5 247,-102.5"/>
<text text-anchor="start" x="254" y="-113.9" font-family="Arial" font-size="14.00" fill="#000000">linkedin </text>
<text text-anchor="start" x="305.3408" y="-113.9" font-family="Arial" font-size="14.00" fill="#666666">[varchar(255)]</text>
<polygon fill="none" stroke="#000000" points="247,-72.5 247,-102.5 500,-102.5 500,-72.5 247,-72.5"/>
<text text-anchor="start" x="254" y="-83.9" font-family="Arial" font-size="14.00" fill="#000000">skype </text>
<text text-anchor="start" x="294.4558" y="-83.9" font-family="Arial" font-size="14.00" fill="#666666">[varchar(255)]</text>
<polygon fill="none" stroke="#000000" points="247,-42.5 247,-72.5 500,-72.5 500,-42.5 247,-42.5"/>
<text text-anchor="start" x="254" y="-53.9" font-family="Arial" font-size="14.00" fill="#000000">twitter </text>
<text text-anchor="start" x="295.2188" y="-53.9" font-family="Arial" font-size="14.00" fill="#666666">[varchar(255)]</text>
</g>
<!-- plugin_citrix_events&#45;&gt;leads -->
<g id="edge1" class="edge">
<title>plugin_citrix_events:lead_id&#45;&gt;leads:id</title>
<path fill="none" stroke="#000000" d="M228.8971,-1745.5093C157.5831,-1716.3863 168.2924,-1377.5 247,-1377.5"/>
<polygon fill="#000000" stroke="#000000" points="229.1887,-1745.5667 238.13,-1751.9151 234.0943,-1746.5333 239,-1747.5 239,-1747.5 239,-1747.5 234.0943,-1746.5333 239.87,-1743.0849 229.1887,-1745.5667 229.1887,-1745.5667"/>
<text text-anchor="start" x="7.496" y="-1757.5" font-family="Arial" font-size="10.00" fill="#000000">FOREIGN KEY (lead_id) REFERENCES leads (id)</text>
</g>
</g>
</svg>
