<?xml version="1.0" encoding="UTF-8" standalone="no"?>
<!DOCTYPE svg PUBLIC "-//W3C//DTD SVG 1.1//EN"
 "http://www.w3.org/Graphics/SVG/1.1/DTD/svg11.dtd">
<!-- Generated by graphviz version 2.40.1 (20161225.0304)
 -->
<!-- Title: point_trigger_events Pages: 1 -->
<svg width="882pt" height="1349pt"
 viewBox="0.00 0.00 882.00 1349.00" xmlns="http://www.w3.org/2000/svg" xmlns:xlink="http://www.w3.org/1999/xlink">
<g id="graph0" class="graph" transform="scale(1 1) rotate(0) translate(4 1345)">
<title>point_trigger_events</title>
<polygon fill="#ffffff" stroke="transparent" points="-4,4 -4,-1345 878,-1345 878,4 -4,4"/>
<!-- point_trigger_events -->
<g id="node1" class="node">
<title>point_trigger_events</title>
<polygon fill="#efefef" stroke="transparent" points="285,-982.5 285,-1017.5 559,-1017.5 559,-982.5 285,-982.5"/>
<polygon fill="none" stroke="#000000" points="285,-982.5 285,-1017.5 559,-1017.5 559,-982.5 285,-982.5"/>
<text text-anchor="start" x="291.8493" y="-995.3" font-family="Arial Bold" font-size="18.00" fill="#000000">point_trigger_events</text>
<text text-anchor="start" x="454.8969" y="-995.3" font-family="Arial" font-size="14.00" fill="#000000"> </text>
<text text-anchor="start" x="458.7875" y="-995.3" font-family="Arial" font-size="14.00" fill="#666666">[BASE TABLE]</text>
<polygon fill="none" stroke="#000000" points="285,-952.5 285,-982.5 559,-982.5 559,-952.5 285,-952.5"/>
<text text-anchor="start" x="292" y="-963.9" font-family="Arial" font-size="14.00" fill="#000000">id </text>
<text text-anchor="start" x="306.7798" y="-963.9" font-family="Arial" font-size="14.00" fill="#666666">[int(10) unsigned]</text>
<polygon fill="none" stroke="#000000" points="285,-922.5 285,-952.5 559,-952.5 559,-922.5 285,-922.5"/>
<text text-anchor="start" x="292" y="-933.9" font-family="Arial" font-size="14.00" fill="#000000">trigger_id </text>
<text text-anchor="start" x="354.2286" y="-933.9" font-family="Arial" font-size="14.00" fill="#666666">[int(10) unsigned]</text>
<polygon fill="none" stroke="#000000" points="285,-892.5 285,-922.5 559,-922.5 559,-892.5 285,-892.5"/>
<text text-anchor="start" x="292" y="-903.9" font-family="Arial" font-size="14.00" fill="#000000">name </text>
<text text-anchor="start" x="330.899" y="-903.9" font-family="Arial" font-size="14.00" fill="#666666">[varchar(191)]</text>
<polygon fill="none" stroke="#000000" points="285,-862.5 285,-892.5 559,-892.5 559,-862.5 285,-862.5"/>
<text text-anchor="start" x="292" y="-873.9" font-family="Arial" font-size="14.00" fill="#000000">description </text>
<text text-anchor="start" x="363.568" y="-873.9" font-family="Arial" font-size="14.00" fill="#666666">[longtext]</text>
<polygon fill="none" stroke="#000000" points="285,-832.5 285,-862.5 559,-862.5 559,-832.5 285,-832.5"/>
<text text-anchor="start" x="292" y="-843.9" font-family="Arial" font-size="14.00" fill="#000000">type </text>
<text text-anchor="start" x="322.3464" y="-843.9" font-family="Arial" font-size="14.00" fill="#666666">[varchar(50)]</text>
<polygon fill="none" stroke="#000000" points="285,-802.5 285,-832.5 559,-832.5 559,-802.5 285,-802.5"/>
<text text-anchor="start" x="292" y="-813.9" font-family="Arial" font-size="14.00" fill="#000000">action_order </text>
<text text-anchor="start" x="373.6872" y="-813.9" font-family="Arial" font-size="14.00" fill="#666666">[int(11)]</text>
<polygon fill="none" stroke="#000000" points="285,-772.5 285,-802.5 559,-802.5 559,-772.5 285,-772.5"/>
<text text-anchor="start" x="292" y="-783.9" font-family="Arial" font-size="14.00" fill="#000000">properties </text>
<text text-anchor="start" x="358.122" y="-783.9" font-family="Arial" font-size="14.00" fill="#666666">[longtext]</text>
<polygon fill="none" stroke="#000000" stroke-width="3" points="283.5,-771.5 283.5,-1019.5 560.5,-1019.5 560.5,-771.5 283.5,-771.5"/>
</g>
<!-- point_triggers -->
<g id="node3" class="node">
<title>point_triggers</title>
<polygon fill="#efefef" stroke="transparent" points="301,-612.5 301,-647.5 542,-647.5 542,-612.5 301,-612.5"/>
<polygon fill="none" stroke="#000000" points="301,-612.5 301,-647.5 542,-647.5 542,-612.5 301,-612.5"/>
<text text-anchor="start" x="318.3628" y="-625.3" font-family="Arial Bold" font-size="18.00" fill="#000000">point_triggers</text>
<text text-anchor="start" x="427.3834" y="-625.3" font-family="Arial" font-size="14.00" fill="#000000"> </text>
<text text-anchor="start" x="431.274" y="-625.3" font-family="Arial" font-size="14.00" fill="#666666">[BASE TABLE]</text>
<polygon fill="none" stroke="#000000" points="301,-582.5 301,-612.5 542,-612.5 542,-582.5 301,-582.5"/>
<text text-anchor="start" x="308" y="-593.9" font-family="Arial" font-size="14.00" fill="#000000">id </text>
<text text-anchor="start" x="322.7798" y="-593.9" font-family="Arial" font-size="14.00" fill="#666666">[int(10) unsigned]</text>
<polygon fill="none" stroke="#000000" points="301,-552.5 301,-582.5 542,-582.5 542,-552.5 301,-552.5"/>
<text text-anchor="start" x="308" y="-563.9" font-family="Arial" font-size="14.00" fill="#000000">category_id </text>
<text text-anchor="start" x="384.244" y="-563.9" font-family="Arial" font-size="14.00" fill="#666666">[int(10) unsigned]</text>
<polygon fill="none" stroke="#000000" points="301,-522.5 301,-552.5 542,-552.5 542,-522.5 301,-522.5"/>
<text text-anchor="start" x="308" y="-533.9" font-family="Arial" font-size="14.00" fill="#000000">is_published </text>
<text text-anchor="start" x="389.6886" y="-533.9" font-family="Arial" font-size="14.00" fill="#666666">[tinyint(1)]</text>
<polygon fill="none" stroke="#000000" points="301,-492.5 301,-522.5 542,-522.5 542,-492.5 301,-492.5"/>
<text text-anchor="start" x="308" y="-503.9" font-family="Arial" font-size="14.00" fill="#000000">date_added </text>
<text text-anchor="start" x="385.8246" y="-503.9" font-family="Arial" font-size="14.00" fill="#666666">[datetime]</text>
<polygon fill="none" stroke="#000000" points="301,-462.5 301,-492.5 542,-492.5 542,-462.5 301,-462.5"/>
<text text-anchor="start" x="308" y="-473.9" font-family="Arial" font-size="14.00" fill="#000000">created_by </text>
<text text-anchor="start" x="381.1374" y="-473.9" font-family="Arial" font-size="14.00" fill="#666666">[int(11)]</text>
<polygon fill="none" stroke="#000000" points="301,-432.5 301,-462.5 542,-462.5 542,-432.5 301,-432.5"/>
<text text-anchor="start" x="308" y="-443.9" font-family="Arial" font-size="14.00" fill="#000000">created_by_user </text>
<text text-anchor="start" x="416.1458" y="-443.9" font-family="Arial" font-size="14.00" fill="#666666">[varchar(191)]</text>
<polygon fill="none" stroke="#000000" points="301,-402.5 301,-432.5 542,-432.5 542,-402.5 301,-402.5"/>
<text text-anchor="start" x="308" y="-413.9" font-family="Arial" font-size="14.00" fill="#000000">date_modified </text>
<text text-anchor="start" x="399.8064" y="-413.9" font-family="Arial" font-size="14.00" fill="#666666">[datetime]</text>
<polygon fill="none" stroke="#000000" points="301,-372.5 301,-402.5 542,-402.5 542,-372.5 301,-372.5"/>
<text text-anchor="start" x="308" y="-383.9" font-family="Arial" font-size="14.00" fill="#000000">modified_by </text>
<text text-anchor="start" x="387.3506" y="-383.9" font-family="Arial" font-size="14.00" fill="#666666">[int(11)]</text>
<polygon fill="none" stroke="#000000" points="301,-342.5 301,-372.5 542,-372.5 542,-342.5 301,-342.5"/>
<text text-anchor="start" x="308" y="-353.9" font-family="Arial" font-size="14.00" fill="#000000">modified_by_user </text>
<text text-anchor="start" x="422.359" y="-353.9" font-family="Arial" font-size="14.00" fill="#666666">[varchar(191)]</text>
<polygon fill="none" stroke="#000000" points="301,-312.5 301,-342.5 542,-342.5 542,-312.5 301,-312.5"/>
<text text-anchor="start" x="308" y="-323.9" font-family="Arial" font-size="14.00" fill="#000000">checked_out </text>
<text text-anchor="start" x="391.2594" y="-323.9" font-family="Arial" font-size="14.00" fill="#666666">[datetime]</text>
<polygon fill="none" stroke="#000000" points="301,-282.5 301,-312.5 542,-312.5 542,-282.5 301,-282.5"/>
<text text-anchor="start" x="308" y="-293.9" font-family="Arial" font-size="14.00" fill="#000000">checked_out_by </text>
<text text-anchor="start" x="413.8246" y="-293.9" font-family="Arial" font-size="14.00" fill="#666666">[int(11)]</text>
<polygon fill="none" stroke="#000000" points="301,-252.5 301,-282.5 542,-282.5 542,-252.5 301,-252.5"/>
<text text-anchor="start" x="307.5239" y="-263.9" font-family="Arial" font-size="14.00" fill="#000000">checked_out_by_user </text>
<text text-anchor="start" x="448.3569" y="-263.9" font-family="Arial" font-size="14.00" fill="#666666">[varchar(191)]</text>
<polygon fill="none" stroke="#000000" points="301,-222.5 301,-252.5 542,-252.5 542,-222.5 301,-222.5"/>
<text text-anchor="start" x="308" y="-233.9" font-family="Arial" font-size="14.00" fill="#000000">name </text>
<text text-anchor="start" x="346.899" y="-233.9" font-family="Arial" font-size="14.00" fill="#666666">[varchar(191)]</text>
<polygon fill="none" stroke="#000000" points="301,-192.5 301,-222.5 542,-222.5 542,-192.5 301,-192.5"/>
<text text-anchor="start" x="308" y="-203.9" font-family="Arial" font-size="14.00" fill="#000000">description </text>
<text text-anchor="start" x="379.568" y="-203.9" font-family="Arial" font-size="14.00" fill="#666666">[longtext]</text>
<polygon fill="none" stroke="#000000" points="301,-162.5 301,-192.5 542,-192.5 542,-162.5 301,-162.5"/>
<text text-anchor="start" x="308" y="-173.9" font-family="Arial" font-size="14.00" fill="#000000">publish_up </text>
<text text-anchor="start" x="379.582" y="-173.9" font-family="Arial" font-size="14.00" fill="#666666">[datetime]</text>
<polygon fill="none" stroke="#000000" points="301,-132.5 301,-162.5 542,-162.5 542,-132.5 301,-132.5"/>
<text text-anchor="start" x="308" y="-143.9" font-family="Arial" font-size="14.00" fill="#000000">publish_down </text>
<text text-anchor="start" x="397.4712" y="-143.9" font-family="Arial" font-size="14.00" fill="#666666">[datetime]</text>
<polygon fill="none" stroke="#000000" points="301,-102.5 301,-132.5 542,-132.5 542,-102.5 301,-102.5"/>
<text text-anchor="start" x="308" y="-113.9" font-family="Arial" font-size="14.00" fill="#000000">points </text>
<text text-anchor="start" x="349.2356" y="-113.9" font-family="Arial" font-size="14.00" fill="#666666">[int(11)]</text>
<polygon fill="none" stroke="#000000" points="301,-72.5 301,-102.5 542,-102.5 542,-72.5 301,-72.5"/>
<text text-anchor="start" x="308" y="-83.9" font-family="Arial" font-size="14.00" fill="#000000">color </text>
<text text-anchor="start" x="342.223" y="-83.9" font-family="Arial" font-size="14.00" fill="#666666">[varchar(7)]</text>
<polygon fill="none" stroke="#000000" points="301,-42.5 301,-72.5 542,-72.5 542,-42.5 301,-42.5"/>
<text text-anchor="start" x="308" y="-53.9" font-family="Arial" font-size="14.00" fill="#000000">trigger_existing_leads </text>
<text text-anchor="start" x="448.028" y="-53.9" font-family="Arial" font-size="14.00" fill="#666666">[tinyint(1)]</text>
</g>
<!-- point_trigger_events&#45;&gt;point_triggers -->
<g id="edge2" class="edge">
<title>point_trigger_events:trigger_id&#45;&gt;point_triggers:id</title>
<path fill="none" stroke="#000000" d="M274.6062,-936.872C194.0017,-926.6756 226.0042,-794.8358 285,-727 360.6879,-639.9709 466.3121,-778.0291 542,-691 569.27,-659.6438 583.5556,-597.5 542,-597.5"/>
<polygon fill="#000000" stroke="#000000" points="275.0182,-936.8968 284.7286,-941.9918 280.0091,-937.1984 285,-937.5 285,-937.5 285,-937.5 280.0091,-937.1984 285.2714,-933.0082 275.0182,-936.8968 275.0182,-936.8968"/>
<text text-anchor="start" x="7.442" y="-947.5" font-family="Arial" font-size="10.00" fill="#000000">FOREIGN KEY (trigger_id) REFERENCES point_triggers (id)</text>
</g>
<!-- point_lead_event_log -->
<g id="node2" class="node">
<title>point_lead_event_log</title>
<polygon fill="#efefef" stroke="transparent" points="281,-1262.5 281,-1297.5 563,-1297.5 563,-1262.5 281,-1262.5"/>
<polygon fill="none" stroke="#000000" points="281,-1262.5 281,-1297.5 563,-1297.5 563,-1262.5 281,-1262.5"/>
<text text-anchor="start" x="287.8362" y="-1275.3" font-family="Arial Bold" font-size="18.00" fill="#000000">point_lead_event_log</text>
<text text-anchor="start" x="458.91" y="-1275.3" font-family="Arial" font-size="14.00" fill="#000000"> </text>
<text text-anchor="start" x="462.8006" y="-1275.3" font-family="Arial" font-size="14.00" fill="#666666">[BASE TABLE]</text>
<polygon fill="none" stroke="#000000" points="281,-1232.5 281,-1262.5 563,-1262.5 563,-1232.5 281,-1232.5"/>
<text text-anchor="start" x="288" y="-1243.9" font-family="Arial" font-size="14.00" fill="#000000">event_id </text>
<text text-anchor="start" x="344.8008" y="-1243.9" font-family="Arial" font-size="14.00" fill="#666666">[int(10) unsigned]</text>
<polygon fill="none" stroke="#000000" points="281,-1202.5 281,-1232.5 563,-1232.5 563,-1202.5 281,-1202.5"/>
<text text-anchor="start" x="288" y="-1213.9" font-family="Arial" font-size="14.00" fill="#000000">lead_id </text>
<text text-anchor="start" x="337.0168" y="-1213.9" font-family="Arial" font-size="14.00" fill="#666666">[bigint(20) unsigned]</text>
<polygon fill="none" stroke="#000000" points="281,-1172.5 281,-1202.5 563,-1202.5 563,-1172.5 281,-1172.5"/>
<text text-anchor="start" x="288" y="-1183.9" font-family="Arial" font-size="14.00" fill="#000000">ip_id </text>
<text text-anchor="start" x="321.4516" y="-1183.9" font-family="Arial" font-size="14.00" fill="#666666">[int(10) unsigned]</text>
<polygon fill="none" stroke="#000000" points="281,-1142.5 281,-1172.5 563,-1172.5 563,-1142.5 281,-1142.5"/>
<text text-anchor="start" x="288" y="-1153.9" font-family="Arial" font-size="14.00" fill="#000000">date_fired </text>
<text text-anchor="start" x="354.1346" y="-1153.9" font-family="Arial" font-size="14.00" fill="#666666">[datetime]</text>
</g>
<!-- point_lead_event_log&#45;&gt;point_trigger_events -->
<g id="edge1" class="edge">
<title>point_lead_event_log:event_id&#45;&gt;point_trigger_events:id</title>
<path fill="none" stroke="#000000" d="M572.938,-1244.9069C624.5886,-1216.6795 617.7039,-967.5 559,-967.5"/>
<polygon fill="#000000" stroke="#000000" points="572.676,-1244.9752 561.8638,-1243.1458 567.838,-1246.2376 563,-1247.5 563,-1247.5 563,-1247.5 567.838,-1246.2376 564.1362,-1251.8542 572.676,-1244.9752 572.676,-1244.9752"/>
<text text-anchor="start" x="570.373" y="-1257.5" font-family="Arial" font-size="10.00" fill="#000000">FOREIGN KEY (event_id) REFERENCES point_trigger_events (id)</text>
</g>
</g>
</svg>
