<?xml version="1.0" encoding="UTF-8" standalone="no"?>
<!DOCTYPE svg PUBLIC "-//W3C//DTD SVG 1.1//EN"
 "http://www.w3.org/Graphics/SVG/1.1/DTD/svg11.dtd">
<!-- Generated by graphviz version 2.40.1 (20161225.0304)
 -->
<!-- Title: point_lead_event_log Pages: 1 -->
<svg width="1048pt" height="1762pt"
 viewBox="0.00 0.00 1048.00 1762.00" xmlns="http://www.w3.org/2000/svg" xmlns:xlink="http://www.w3.org/1999/xlink">
<g id="graph0" class="graph" transform="scale(1 1) rotate(0) translate(4 1758)">
<title>point_lead_event_log</title>
<polygon fill="#ffffff" stroke="transparent" points="-4,4 -4,-1758 1044,-1758 1044,4 -4,4"/>
<!-- point_lead_event_log -->
<g id="node1" class="node">
<title>point_lead_event_log</title>
<polygon fill="#efefef" stroke="transparent" points="408,-1672.5 408,-1707.5 690,-1707.5 690,-1672.5 408,-1672.5"/>
<polygon fill="none" stroke="#000000" points="408,-1672.5 408,-1707.5 690,-1707.5 690,-1672.5 408,-1672.5"/>
<text text-anchor="start" x="414.8362" y="-1685.3" font-family="Arial Bold" font-size="18.00" fill="#000000">point_lead_event_log</text>
<text text-anchor="start" x="585.91" y="-1685.3" font-family="Arial" font-size="14.00" fill="#000000"> </text>
<text text-anchor="start" x="589.8006" y="-1685.3" font-family="Arial" font-size="14.00" fill="#666666">[BASE TABLE]</text>
<polygon fill="none" stroke="#000000" points="408,-1642.5 408,-1672.5 690,-1672.5 690,-1642.5 408,-1642.5"/>
<text text-anchor="start" x="415" y="-1653.9" font-family="Arial" font-size="14.00" fill="#000000">event_id </text>
<text text-anchor="start" x="471.8008" y="-1653.9" font-family="Arial" font-size="14.00" fill="#666666">[int(10) unsigned]</text>
<polygon fill="none" stroke="#000000" points="408,-1612.5 408,-1642.5 690,-1642.5 690,-1612.5 408,-1612.5"/>
<text text-anchor="start" x="415" y="-1623.9" font-family="Arial" font-size="14.00" fill="#000000">lead_id </text>
<text text-anchor="start" x="464.0168" y="-1623.9" font-family="Arial" font-size="14.00" fill="#666666">[bigint(20) unsigned]</text>
<polygon fill="none" stroke="#000000" points="408,-1582.5 408,-1612.5 690,-1612.5 690,-1582.5 408,-1582.5"/>
<text text-anchor="start" x="415" y="-1593.9" font-family="Arial" font-size="14.00" fill="#000000">ip_id </text>
<text text-anchor="start" x="448.4516" y="-1593.9" font-family="Arial" font-size="14.00" fill="#666666">[int(10) unsigned]</text>
<polygon fill="none" stroke="#000000" points="408,-1552.5 408,-1582.5 690,-1582.5 690,-1552.5 408,-1552.5"/>
<text text-anchor="start" x="415" y="-1563.9" font-family="Arial" font-size="14.00" fill="#000000">date_fired </text>
<text text-anchor="start" x="481.1346" y="-1563.9" font-family="Arial" font-size="14.00" fill="#666666">[datetime]</text>
<polygon fill="none" stroke="#000000" stroke-width="3" points="406.5,-1551.5 406.5,-1709.5 691.5,-1709.5 691.5,-1551.5 406.5,-1551.5"/>
</g>
<!-- point_trigger_events -->
<g id="node2" class="node">
<title>point_trigger_events</title>
<polygon fill="#efefef" stroke="transparent" points="43,-822.5 43,-857.5 317,-857.5 317,-822.5 43,-822.5"/>
<polygon fill="none" stroke="#000000" points="43,-822.5 43,-857.5 317,-857.5 317,-822.5 43,-822.5"/>
<text text-anchor="start" x="49.8493" y="-835.3" font-family="Arial Bold" font-size="18.00" fill="#000000">point_trigger_events</text>
<text text-anchor="start" x="212.8969" y="-835.3" font-family="Arial" font-size="14.00" fill="#000000"> </text>
<text text-anchor="start" x="216.7875" y="-835.3" font-family="Arial" font-size="14.00" fill="#666666">[BASE TABLE]</text>
<polygon fill="none" stroke="#000000" points="43,-792.5 43,-822.5 317,-822.5 317,-792.5 43,-792.5"/>
<text text-anchor="start" x="50" y="-803.9" font-family="Arial" font-size="14.00" fill="#000000">id </text>
<text text-anchor="start" x="64.7798" y="-803.9" font-family="Arial" font-size="14.00" fill="#666666">[int(10) unsigned]</text>
<polygon fill="none" stroke="#000000" points="43,-762.5 43,-792.5 317,-792.5 317,-762.5 43,-762.5"/>
<text text-anchor="start" x="50" y="-773.9" font-family="Arial" font-size="14.00" fill="#000000">trigger_id </text>
<text text-anchor="start" x="112.2286" y="-773.9" font-family="Arial" font-size="14.00" fill="#666666">[int(10) unsigned]</text>
<polygon fill="none" stroke="#000000" points="43,-732.5 43,-762.5 317,-762.5 317,-732.5 43,-732.5"/>
<text text-anchor="start" x="50" y="-743.9" font-family="Arial" font-size="14.00" fill="#000000">name </text>
<text text-anchor="start" x="88.899" y="-743.9" font-family="Arial" font-size="14.00" fill="#666666">[varchar(191)]</text>
<polygon fill="none" stroke="#000000" points="43,-702.5 43,-732.5 317,-732.5 317,-702.5 43,-702.5"/>
<text text-anchor="start" x="50" y="-713.9" font-family="Arial" font-size="14.00" fill="#000000">description </text>
<text text-anchor="start" x="121.568" y="-713.9" font-family="Arial" font-size="14.00" fill="#666666">[longtext]</text>
<polygon fill="none" stroke="#000000" points="43,-672.5 43,-702.5 317,-702.5 317,-672.5 43,-672.5"/>
<text text-anchor="start" x="50" y="-683.9" font-family="Arial" font-size="14.00" fill="#000000">type </text>
<text text-anchor="start" x="80.3464" y="-683.9" font-family="Arial" font-size="14.00" fill="#666666">[varchar(50)]</text>
<polygon fill="none" stroke="#000000" points="43,-642.5 43,-672.5 317,-672.5 317,-642.5 43,-642.5"/>
<text text-anchor="start" x="50" y="-653.9" font-family="Arial" font-size="14.00" fill="#000000">action_order </text>
<text text-anchor="start" x="131.6872" y="-653.9" font-family="Arial" font-size="14.00" fill="#666666">[int(11)]</text>
<polygon fill="none" stroke="#000000" points="43,-612.5 43,-642.5 317,-642.5 317,-612.5 43,-612.5"/>
<text text-anchor="start" x="50" y="-623.9" font-family="Arial" font-size="14.00" fill="#000000">properties </text>
<text text-anchor="start" x="116.122" y="-623.9" font-family="Arial" font-size="14.00" fill="#666666">[longtext]</text>
</g>
<!-- point_lead_event_log&#45;&gt;point_trigger_events -->
<g id="edge1" class="edge">
<title>point_lead_event_log:event_id&#45;&gt;point_trigger_events:id</title>
<path fill="none" stroke="#000000" d="M398.207,-1654.0753C320.0941,-1595.5846 408.4593,-807.5 317,-807.5"/>
<polygon fill="#000000" stroke="#000000" points="398.5606,-1654.1988 406.5145,-1661.7477 403.2803,-1655.8494 408,-1657.5 408,-1657.5 408,-1657.5 403.2803,-1655.8494 409.4855,-1653.2523 398.5606,-1654.1988 398.5606,-1654.1988"/>
<text text-anchor="start" x="104.373" y="-1667.5" font-family="Arial" font-size="10.00" fill="#000000">FOREIGN KEY (event_id) REFERENCES point_trigger_events (id)</text>
</g>
<!-- leads -->
<g id="node3" class="node">
<title>leads</title>
<polygon fill="#efefef" stroke="transparent" points="422,-1392.5 422,-1427.5 675,-1427.5 675,-1392.5 422,-1392.5"/>
<polygon fill="none" stroke="#000000" points="422,-1392.5 422,-1427.5 675,-1427.5 675,-1392.5 422,-1392.5"/>
<text text-anchor="start" x="478.3667" y="-1405.3" font-family="Arial Bold" font-size="18.00" fill="#000000">leads</text>
<text text-anchor="start" x="521.3795" y="-1405.3" font-family="Arial" font-size="14.00" fill="#000000"> </text>
<text text-anchor="start" x="525.2701" y="-1405.3" font-family="Arial" font-size="14.00" fill="#666666">[BASE TABLE]</text>
<polygon fill="none" stroke="#000000" points="422,-1362.5 422,-1392.5 675,-1392.5 675,-1362.5 422,-1362.5"/>
<text text-anchor="start" x="429" y="-1373.9" font-family="Arial" font-size="14.00" fill="#000000">id </text>
<text text-anchor="start" x="443.7798" y="-1373.9" font-family="Arial" font-size="14.00" fill="#666666">[bigint(20) unsigned]</text>
<polygon fill="none" stroke="#000000" points="422,-1332.5 422,-1362.5 675,-1362.5 675,-1332.5 422,-1332.5"/>
<text text-anchor="start" x="429" y="-1343.9" font-family="Arial" font-size="14.00" fill="#000000">owner_id </text>
<text text-anchor="start" x="489.6774" y="-1343.9" font-family="Arial" font-size="14.00" fill="#666666">[int(10) unsigned]</text>
<polygon fill="none" stroke="#000000" points="422,-1302.5 422,-1332.5 675,-1332.5 675,-1302.5 422,-1302.5"/>
<text text-anchor="start" x="429" y="-1313.9" font-family="Arial" font-size="14.00" fill="#000000">stage_id </text>
<text text-anchor="start" x="485.8008" y="-1313.9" font-family="Arial" font-size="14.00" fill="#666666">[int(10) unsigned]</text>
<polygon fill="none" stroke="#000000" points="422,-1272.5 422,-1302.5 675,-1302.5 675,-1272.5 422,-1272.5"/>
<text text-anchor="start" x="429" y="-1283.9" font-family="Arial" font-size="14.00" fill="#000000">is_published </text>
<text text-anchor="start" x="510.6886" y="-1283.9" font-family="Arial" font-size="14.00" fill="#666666">[tinyint(1)]</text>
<polygon fill="none" stroke="#000000" points="422,-1242.5 422,-1272.5 675,-1272.5 675,-1242.5 422,-1242.5"/>
<text text-anchor="start" x="429" y="-1253.9" font-family="Arial" font-size="14.00" fill="#000000">date_added </text>
<text text-anchor="start" x="506.8246" y="-1253.9" font-family="Arial" font-size="14.00" fill="#666666">[datetime]</text>
<polygon fill="none" stroke="#000000" points="422,-1212.5 422,-1242.5 675,-1242.5 675,-1212.5 422,-1212.5"/>
<text text-anchor="start" x="429" y="-1223.9" font-family="Arial" font-size="14.00" fill="#000000">created_by </text>
<text text-anchor="start" x="502.1374" y="-1223.9" font-family="Arial" font-size="14.00" fill="#666666">[int(11)]</text>
<polygon fill="none" stroke="#000000" points="422,-1182.5 422,-1212.5 675,-1212.5 675,-1182.5 422,-1182.5"/>
<text text-anchor="start" x="429" y="-1193.9" font-family="Arial" font-size="14.00" fill="#000000">created_by_user </text>
<text text-anchor="start" x="537.1458" y="-1193.9" font-family="Arial" font-size="14.00" fill="#666666">[varchar(191)]</text>
<polygon fill="none" stroke="#000000" points="422,-1152.5 422,-1182.5 675,-1182.5 675,-1152.5 422,-1152.5"/>
<text text-anchor="start" x="429" y="-1163.9" font-family="Arial" font-size="14.00" fill="#000000">date_modified </text>
<text text-anchor="start" x="520.8064" y="-1163.9" font-family="Arial" font-size="14.00" fill="#666666">[datetime]</text>
<polygon fill="none" stroke="#000000" points="422,-1122.5 422,-1152.5 675,-1152.5 675,-1122.5 422,-1122.5"/>
<text text-anchor="start" x="429" y="-1133.9" font-family="Arial" font-size="14.00" fill="#000000">modified_by </text>
<text text-anchor="start" x="508.3506" y="-1133.9" font-family="Arial" font-size="14.00" fill="#666666">[int(11)]</text>
<polygon fill="none" stroke="#000000" points="422,-1092.5 422,-1122.5 675,-1122.5 675,-1092.5 422,-1092.5"/>
<text text-anchor="start" x="429" y="-1103.9" font-family="Arial" font-size="14.00" fill="#000000">modified_by_user </text>
<text text-anchor="start" x="543.359" y="-1103.9" font-family="Arial" font-size="14.00" fill="#666666">[varchar(191)]</text>
<polygon fill="none" stroke="#000000" points="422,-1062.5 422,-1092.5 675,-1092.5 675,-1062.5 422,-1062.5"/>
<text text-anchor="start" x="429" y="-1073.9" font-family="Arial" font-size="14.00" fill="#000000">checked_out </text>
<text text-anchor="start" x="512.2594" y="-1073.9" font-family="Arial" font-size="14.00" fill="#666666">[datetime]</text>
<polygon fill="none" stroke="#000000" points="422,-1032.5 422,-1062.5 675,-1062.5 675,-1032.5 422,-1032.5"/>
<text text-anchor="start" x="429" y="-1043.9" font-family="Arial" font-size="14.00" fill="#000000">checked_out_by </text>
<text text-anchor="start" x="534.8246" y="-1043.9" font-family="Arial" font-size="14.00" fill="#666666">[int(11)]</text>
<polygon fill="none" stroke="#000000" points="422,-1002.5 422,-1032.5 675,-1032.5 675,-1002.5 422,-1002.5"/>
<text text-anchor="start" x="429" y="-1013.9" font-family="Arial" font-size="14.00" fill="#000000">checked_out_by_user </text>
<text text-anchor="start" x="569.833" y="-1013.9" font-family="Arial" font-size="14.00" fill="#666666">[varchar(191)]</text>
<polygon fill="none" stroke="#000000" points="422,-972.5 422,-1002.5 675,-1002.5 675,-972.5 422,-972.5"/>
<text text-anchor="start" x="429" y="-983.9" font-family="Arial" font-size="14.00" fill="#000000">points </text>
<text text-anchor="start" x="470.2356" y="-983.9" font-family="Arial" font-size="14.00" fill="#666666">[int(11)]</text>
<polygon fill="none" stroke="#000000" points="422,-942.5 422,-972.5 675,-972.5 675,-942.5 422,-942.5"/>
<text text-anchor="start" x="429" y="-953.9" font-family="Arial" font-size="14.00" fill="#000000">last_active </text>
<text text-anchor="start" x="499.0154" y="-953.9" font-family="Arial" font-size="14.00" fill="#666666">[datetime]</text>
<polygon fill="none" stroke="#000000" points="422,-912.5 422,-942.5 675,-942.5 675,-912.5 422,-912.5"/>
<text text-anchor="start" x="429" y="-923.9" font-family="Arial" font-size="14.00" fill="#000000">internal </text>
<text text-anchor="start" x="478.7854" y="-923.9" font-family="Arial" font-size="14.00" fill="#666666">[longtext]</text>
<polygon fill="none" stroke="#000000" points="422,-882.5 422,-912.5 675,-912.5 675,-882.5 422,-882.5"/>
<text text-anchor="start" x="429" y="-893.9" font-family="Arial" font-size="14.00" fill="#000000">social_cache </text>
<text text-anchor="start" x="513.7994" y="-893.9" font-family="Arial" font-size="14.00" fill="#666666">[longtext]</text>
<polygon fill="none" stroke="#000000" points="422,-852.5 422,-882.5 675,-882.5 675,-852.5 422,-852.5"/>
<text text-anchor="start" x="429" y="-863.9" font-family="Arial" font-size="14.00" fill="#000000">date_identified </text>
<text text-anchor="start" x="523.9256" y="-863.9" font-family="Arial" font-size="14.00" fill="#666666">[datetime]</text>
<polygon fill="none" stroke="#000000" points="422,-822.5 422,-852.5 675,-852.5 675,-822.5 422,-822.5"/>
<text text-anchor="start" x="428.7062" y="-833.9" font-family="Arial" font-size="14.00" fill="#000000">preferred_profile_image </text>
<text text-anchor="start" x="581.1746" y="-833.9" font-family="Arial" font-size="14.00" fill="#666666">[varchar(191)]</text>
<polygon fill="none" stroke="#000000" points="422,-792.5 422,-822.5 675,-822.5 675,-792.5 422,-792.5"/>
<text text-anchor="start" x="429" y="-803.9" font-family="Arial" font-size="14.00" fill="#000000">title </text>
<text text-anchor="start" x="454.6676" y="-803.9" font-family="Arial" font-size="14.00" fill="#666666">[varchar(191)]</text>
<polygon fill="none" stroke="#000000" points="422,-762.5 422,-792.5 675,-792.5 675,-762.5 422,-762.5"/>
<text text-anchor="start" x="429" y="-773.9" font-family="Arial" font-size="14.00" fill="#000000">firstname </text>
<text text-anchor="start" x="490.4474" y="-773.9" font-family="Arial" font-size="14.00" fill="#666666">[varchar(191)]</text>
<polygon fill="none" stroke="#000000" points="422,-732.5 422,-762.5 675,-762.5 675,-732.5 422,-732.5"/>
<text text-anchor="start" x="429" y="-743.9" font-family="Arial" font-size="14.00" fill="#000000">lastname </text>
<text text-anchor="start" x="489.6788" y="-743.9" font-family="Arial" font-size="14.00" fill="#666666">[varchar(191)]</text>
<polygon fill="none" stroke="#000000" points="422,-702.5 422,-732.5 675,-732.5 675,-702.5 422,-702.5"/>
<text text-anchor="start" x="429" y="-713.9" font-family="Arial" font-size="14.00" fill="#000000">company </text>
<text text-anchor="start" x="489.6816" y="-713.9" font-family="Arial" font-size="14.00" fill="#666666">[varchar(191)]</text>
<polygon fill="none" stroke="#000000" points="422,-672.5 422,-702.5 675,-702.5 675,-672.5 422,-672.5"/>
<text text-anchor="start" x="429" y="-683.9" font-family="Arial" font-size="14.00" fill="#000000">position </text>
<text text-anchor="start" x="481.1248" y="-683.9" font-family="Arial" font-size="14.00" fill="#666666">[varchar(191)]</text>
<polygon fill="none" stroke="#000000" points="422,-642.5 422,-672.5 675,-672.5 675,-642.5 422,-642.5"/>
<text text-anchor="start" x="429" y="-653.9" font-family="Arial" font-size="14.00" fill="#000000">email </text>
<text text-anchor="start" x="466.3296" y="-653.9" font-family="Arial" font-size="14.00" fill="#666666">[varchar(191)]</text>
<polygon fill="none" stroke="#000000" points="422,-612.5 422,-642.5 675,-642.5 675,-612.5 422,-612.5"/>
<text text-anchor="start" x="429" y="-623.9" font-family="Arial" font-size="14.00" fill="#000000">phone </text>
<text text-anchor="start" x="471.8036" y="-623.9" font-family="Arial" font-size="14.00" fill="#666666">[varchar(191)]</text>
<polygon fill="none" stroke="#000000" points="422,-582.5 422,-612.5 675,-612.5 675,-582.5 422,-582.5"/>
<text text-anchor="start" x="429" y="-593.9" font-family="Arial" font-size="14.00" fill="#000000">mobile </text>
<text text-anchor="start" x="474.1122" y="-593.9" font-family="Arial" font-size="14.00" fill="#666666">[varchar(191)]</text>
<polygon fill="none" stroke="#000000" points="422,-552.5 422,-582.5 675,-582.5 675,-552.5 422,-552.5"/>
<text text-anchor="start" x="429" y="-563.9" font-family="Arial" font-size="14.00" fill="#000000">address1 </text>
<text text-anchor="start" x="490.4642" y="-563.9" font-family="Arial" font-size="14.00" fill="#666666">[varchar(191)]</text>
<polygon fill="none" stroke="#000000" points="422,-522.5 422,-552.5 675,-552.5 675,-522.5 422,-522.5"/>
<text text-anchor="start" x="429" y="-533.9" font-family="Arial" font-size="14.00" fill="#000000">address2 </text>
<text text-anchor="start" x="490.4642" y="-533.9" font-family="Arial" font-size="14.00" fill="#666666">[varchar(191)]</text>
<polygon fill="none" stroke="#000000" points="422,-492.5 422,-522.5 675,-522.5 675,-492.5 422,-492.5"/>
<text text-anchor="start" x="429" y="-503.9" font-family="Arial" font-size="14.00" fill="#000000">city </text>
<text text-anchor="start" x="453.8878" y="-503.9" font-family="Arial" font-size="14.00" fill="#666666">[varchar(191)]</text>
<polygon fill="none" stroke="#000000" points="422,-462.5 422,-492.5 675,-492.5 675,-462.5 422,-462.5"/>
<text text-anchor="start" x="429" y="-473.9" font-family="Arial" font-size="14.00" fill="#000000">state </text>
<text text-anchor="start" x="463.237" y="-473.9" font-family="Arial" font-size="14.00" fill="#666666">[varchar(191)]</text>
<polygon fill="none" stroke="#000000" points="422,-432.5 422,-462.5 675,-462.5 675,-432.5 422,-432.5"/>
<text text-anchor="start" x="429" y="-443.9" font-family="Arial" font-size="14.00" fill="#000000">zipcode </text>
<text text-anchor="start" x="481.1276" y="-443.9" font-family="Arial" font-size="14.00" fill="#666666">[varchar(191)]</text>
<polygon fill="none" stroke="#000000" points="422,-402.5 422,-432.5 675,-432.5 675,-402.5 422,-402.5"/>
<text text-anchor="start" x="429" y="-413.9" font-family="Arial" font-size="14.00" fill="#000000">timezone </text>
<text text-anchor="start" x="489.6788" y="-413.9" font-family="Arial" font-size="14.00" fill="#666666">[varchar(191)]</text>
<polygon fill="none" stroke="#000000" points="422,-372.5 422,-402.5 675,-402.5 675,-372.5 422,-372.5"/>
<text text-anchor="start" x="429" y="-383.9" font-family="Arial" font-size="14.00" fill="#000000">country </text>
<text text-anchor="start" x="478.7896" y="-383.9" font-family="Arial" font-size="14.00" fill="#666666">[varchar(191)]</text>
<polygon fill="none" stroke="#000000" points="422,-342.5 422,-372.5 675,-372.5 675,-342.5 422,-342.5"/>
<text text-anchor="start" x="429" y="-353.9" font-family="Arial" font-size="14.00" fill="#000000">fax </text>
<text text-anchor="start" x="451.5638" y="-353.9" font-family="Arial" font-size="14.00" fill="#666666">[varchar(255)]</text>
<polygon fill="none" stroke="#000000" points="422,-312.5 422,-342.5 675,-342.5 675,-312.5 422,-312.5"/>
<text text-anchor="start" x="429" y="-323.9" font-family="Arial" font-size="14.00" fill="#000000">preferred_locale </text>
<text text-anchor="start" x="534.0196" y="-323.9" font-family="Arial" font-size="14.00" fill="#666666">[varchar(255)]</text>
<polygon fill="none" stroke="#000000" points="422,-282.5 422,-312.5 675,-312.5 675,-282.5 422,-282.5"/>
<text text-anchor="start" x="429" y="-293.9" font-family="Arial" font-size="14.00" fill="#000000">attribution_date </text>
<text text-anchor="start" x="529.3702" y="-293.9" font-family="Arial" font-size="14.00" fill="#666666">[datetime]</text>
<polygon fill="none" stroke="#000000" points="422,-252.5 422,-282.5 675,-282.5 675,-252.5 422,-252.5"/>
<text text-anchor="start" x="429" y="-263.9" font-family="Arial" font-size="14.00" fill="#000000">attribution </text>
<text text-anchor="start" x="494.3492" y="-263.9" font-family="Arial" font-size="14.00" fill="#666666">[double]</text>
<polygon fill="none" stroke="#000000" points="422,-222.5 422,-252.5 675,-252.5 675,-222.5 422,-222.5"/>
<text text-anchor="start" x="429" y="-233.9" font-family="Arial" font-size="14.00" fill="#000000">website </text>
<text text-anchor="start" x="480.3422" y="-233.9" font-family="Arial" font-size="14.00" fill="#666666">[longtext]</text>
<polygon fill="none" stroke="#000000" points="422,-192.5 422,-222.5 675,-222.5 675,-192.5 422,-192.5"/>
<text text-anchor="start" x="429" y="-203.9" font-family="Arial" font-size="14.00" fill="#000000">facebook </text>
<text text-anchor="start" x="489.6942" y="-203.9" font-family="Arial" font-size="14.00" fill="#666666">[varchar(255)]</text>
<polygon fill="none" stroke="#000000" points="422,-162.5 422,-192.5 675,-192.5 675,-162.5 422,-162.5"/>
<text text-anchor="start" x="429" y="-173.9" font-family="Arial" font-size="14.00" fill="#000000">foursquare </text>
<text text-anchor="start" x="499.798" y="-173.9" font-family="Arial" font-size="14.00" fill="#666666">[varchar(255)]</text>
<polygon fill="none" stroke="#000000" points="422,-132.5 422,-162.5 675,-162.5 675,-132.5 422,-132.5"/>
<text text-anchor="start" x="429" y="-143.9" font-family="Arial" font-size="14.00" fill="#000000">instagram </text>
<text text-anchor="start" x="494.3394" y="-143.9" font-family="Arial" font-size="14.00" fill="#666666">[varchar(255)]</text>
<polygon fill="none" stroke="#000000" points="422,-102.5 422,-132.5 675,-132.5 675,-102.5 422,-102.5"/>
<text text-anchor="start" x="429" y="-113.9" font-family="Arial" font-size="14.00" fill="#000000">linkedin </text>
<text text-anchor="start" x="480.3408" y="-113.9" font-family="Arial" font-size="14.00" fill="#666666">[varchar(255)]</text>
<polygon fill="none" stroke="#000000" points="422,-72.5 422,-102.5 675,-102.5 675,-72.5 422,-72.5"/>
<text text-anchor="start" x="429" y="-83.9" font-family="Arial" font-size="14.00" fill="#000000">skype </text>
<text text-anchor="start" x="469.4558" y="-83.9" font-family="Arial" font-size="14.00" fill="#666666">[varchar(255)]</text>
<polygon fill="none" stroke="#000000" points="422,-42.5 422,-72.5 675,-72.5 675,-42.5 422,-42.5"/>
<text text-anchor="start" x="429" y="-53.9" font-family="Arial" font-size="14.00" fill="#000000">twitter </text>
<text text-anchor="start" x="470.2188" y="-53.9" font-family="Arial" font-size="14.00" fill="#666666">[varchar(255)]</text>
</g>
<!-- point_lead_event_log&#45;&gt;leads -->
<g id="edge2" class="edge">
<title>point_lead_event_log:lead_id&#45;&gt;leads:id</title>
<path fill="none" stroke="#000000" d="M398.0068,-1626.4143C357.0265,-1616.7242 375.1609,-1544.564 408,-1507 486.8097,-1416.8512 596.1903,-1561.1488 675,-1471 702.3507,-1439.7141 716.5556,-1377.5 675,-1377.5"/>
<polygon fill="#000000" stroke="#000000" points="398.0585,-1626.4198 407.5139,-1631.9737 403.0292,-1626.9599 408,-1627.5 408,-1627.5 408,-1627.5 403.0292,-1626.9599 408.4861,-1623.0263 398.0585,-1626.4198 398.0585,-1626.4198"/>
<text text-anchor="start" x="176.496" y="-1637.5" font-family="Arial" font-size="10.00" fill="#000000">FOREIGN KEY (lead_id) REFERENCES leads (id)</text>
</g>
<!-- ip_addresses -->
<g id="node4" class="node">
<title>ip_addresses</title>
<polygon fill="#efefef" stroke="transparent" points="779,-762.5 779,-797.5 997,-797.5 997,-762.5 779,-762.5"/>
<polygon fill="none" stroke="#000000" points="779,-762.5 779,-797.5 997,-797.5 997,-762.5 779,-762.5"/>
<text text-anchor="start" x="785.8582" y="-775.3" font-family="Arial Bold" font-size="18.00" fill="#000000">ip_addresses</text>
<text text-anchor="start" x="892.888" y="-775.3" font-family="Arial" font-size="14.00" fill="#000000"> </text>
<text text-anchor="start" x="896.7786" y="-775.3" font-family="Arial" font-size="14.00" fill="#666666">[BASE TABLE]</text>
<polygon fill="none" stroke="#000000" points="779,-732.5 779,-762.5 997,-762.5 997,-732.5 779,-732.5"/>
<text text-anchor="start" x="786" y="-743.9" font-family="Arial" font-size="14.00" fill="#000000">id </text>
<text text-anchor="start" x="800.7798" y="-743.9" font-family="Arial" font-size="14.00" fill="#666666">[int(10) unsigned]</text>
<polygon fill="none" stroke="#000000" points="779,-702.5 779,-732.5 997,-732.5 997,-702.5 779,-702.5"/>
<text text-anchor="start" x="786" y="-713.9" font-family="Arial" font-size="14.00" fill="#000000">ip_address </text>
<text text-anchor="start" x="858.3534" y="-713.9" font-family="Arial" font-size="14.00" fill="#666666">[varchar(45)]</text>
<polygon fill="none" stroke="#000000" points="779,-672.5 779,-702.5 997,-702.5 997,-672.5 779,-672.5"/>
<text text-anchor="start" x="786" y="-683.9" font-family="Arial" font-size="14.00" fill="#000000">ip_details </text>
<text text-anchor="start" x="849.014" y="-683.9" font-family="Arial" font-size="14.00" fill="#666666">[longtext]</text>
</g>
<!-- point_lead_event_log&#45;&gt;ip_addresses -->
<g id="edge3" class="edge">
<title>point_lead_event_log:ip_id&#45;&gt;ip_addresses:id</title>
<path fill="none" stroke="#000000" d="M699.7826,-1594.0753C777.7402,-1535.5846 687.5632,-747.5 779,-747.5"/>
<polygon fill="#000000" stroke="#000000" points="699.4383,-1594.1957 688.5131,-1593.2527 694.7192,-1595.8479 690,-1597.5 690,-1597.5 690,-1597.5 694.7192,-1595.8479 691.4869,-1601.7473 699.4383,-1594.1957 699.4383,-1594.1957"/>
<text text-anchor="start" x="697.2725" y="-1607.5" font-family="Arial" font-size="10.00" fill="#000000">FOREIGN KEY (ip_id) REFERENCES ip_addresses (id)</text>
</g>
</g>
</svg>
