<?xml version="1.0" encoding="UTF-8" standalone="no"?>
<!DOCTYPE svg PUBLIC "-//W3C//DTD SVG 1.1//EN"
 "http://www.w3.org/Graphics/SVG/1.1/DTD/svg11.dtd">
<!-- Generated by graphviz version 2.40.1 (20161225.0304)
 -->
<!-- Title: points Pages: 1 -->
<svg width="595pt" height="1649pt"
 viewBox="0.00 0.00 595.00 1649.00" xmlns="http://www.w3.org/2000/svg" xmlns:xlink="http://www.w3.org/1999/xlink">
<g id="graph0" class="graph" transform="scale(1 1) rotate(0) translate(4 1645)">
<title>points</title>
<polygon fill="#ffffff" stroke="transparent" points="-4,4 -4,-1645 591,-1645 591,4 -4,4"/>
<!-- points -->
<g id="node1" class="node">
<title>points</title>
<polygon fill="#efefef" stroke="transparent" points="280,-1282.5 280,-1317.5 521,-1317.5 521,-1282.5 280,-1282.5"/>
<polygon fill="none" stroke="#000000" points="280,-1282.5 280,-1317.5 521,-1317.5 521,-1282.5 280,-1282.5"/>
<text text-anchor="start" x="327.8656" y="-1295.3" font-family="Arial Bold" font-size="18.00" fill="#000000">points</text>
<text text-anchor="start" x="375.8806" y="-1295.3" font-family="Arial" font-size="14.00" fill="#000000"> </text>
<text text-anchor="start" x="379.7712" y="-1295.3" font-family="Arial" font-size="14.00" fill="#666666">[BASE TABLE]</text>
<polygon fill="none" stroke="#000000" points="280,-1252.5 280,-1282.5 521,-1282.5 521,-1252.5 280,-1252.5"/>
<text text-anchor="start" x="287" y="-1263.9" font-family="Arial" font-size="14.00" fill="#000000">id </text>
<text text-anchor="start" x="301.7798" y="-1263.9" font-family="Arial" font-size="14.00" fill="#666666">[int(10) unsigned]</text>
<polygon fill="none" stroke="#000000" points="280,-1222.5 280,-1252.5 521,-1252.5 521,-1222.5 280,-1222.5"/>
<text text-anchor="start" x="287" y="-1233.9" font-family="Arial" font-size="14.00" fill="#000000">category_id </text>
<text text-anchor="start" x="363.244" y="-1233.9" font-family="Arial" font-size="14.00" fill="#666666">[int(10) unsigned]</text>
<polygon fill="none" stroke="#000000" points="280,-1192.5 280,-1222.5 521,-1222.5 521,-1192.5 280,-1192.5"/>
<text text-anchor="start" x="287" y="-1203.9" font-family="Arial" font-size="14.00" fill="#000000">is_published </text>
<text text-anchor="start" x="368.6886" y="-1203.9" font-family="Arial" font-size="14.00" fill="#666666">[tinyint(1)]</text>
<polygon fill="none" stroke="#000000" points="280,-1162.5 280,-1192.5 521,-1192.5 521,-1162.5 280,-1162.5"/>
<text text-anchor="start" x="287" y="-1173.9" font-family="Arial" font-size="14.00" fill="#000000">date_added </text>
<text text-anchor="start" x="364.8246" y="-1173.9" font-family="Arial" font-size="14.00" fill="#666666">[datetime]</text>
<polygon fill="none" stroke="#000000" points="280,-1132.5 280,-1162.5 521,-1162.5 521,-1132.5 280,-1132.5"/>
<text text-anchor="start" x="287" y="-1143.9" font-family="Arial" font-size="14.00" fill="#000000">created_by </text>
<text text-anchor="start" x="360.1374" y="-1143.9" font-family="Arial" font-size="14.00" fill="#666666">[int(11)]</text>
<polygon fill="none" stroke="#000000" points="280,-1102.5 280,-1132.5 521,-1132.5 521,-1102.5 280,-1102.5"/>
<text text-anchor="start" x="287" y="-1113.9" font-family="Arial" font-size="14.00" fill="#000000">created_by_user </text>
<text text-anchor="start" x="395.1458" y="-1113.9" font-family="Arial" font-size="14.00" fill="#666666">[varchar(191)]</text>
<polygon fill="none" stroke="#000000" points="280,-1072.5 280,-1102.5 521,-1102.5 521,-1072.5 280,-1072.5"/>
<text text-anchor="start" x="287" y="-1083.9" font-family="Arial" font-size="14.00" fill="#000000">date_modified </text>
<text text-anchor="start" x="378.8064" y="-1083.9" font-family="Arial" font-size="14.00" fill="#666666">[datetime]</text>
<polygon fill="none" stroke="#000000" points="280,-1042.5 280,-1072.5 521,-1072.5 521,-1042.5 280,-1042.5"/>
<text text-anchor="start" x="287" y="-1053.9" font-family="Arial" font-size="14.00" fill="#000000">modified_by </text>
<text text-anchor="start" x="366.3506" y="-1053.9" font-family="Arial" font-size="14.00" fill="#666666">[int(11)]</text>
<polygon fill="none" stroke="#000000" points="280,-1012.5 280,-1042.5 521,-1042.5 521,-1012.5 280,-1012.5"/>
<text text-anchor="start" x="287" y="-1023.9" font-family="Arial" font-size="14.00" fill="#000000">modified_by_user </text>
<text text-anchor="start" x="401.359" y="-1023.9" font-family="Arial" font-size="14.00" fill="#666666">[varchar(191)]</text>
<polygon fill="none" stroke="#000000" points="280,-982.5 280,-1012.5 521,-1012.5 521,-982.5 280,-982.5"/>
<text text-anchor="start" x="287" y="-993.9" font-family="Arial" font-size="14.00" fill="#000000">checked_out </text>
<text text-anchor="start" x="370.2594" y="-993.9" font-family="Arial" font-size="14.00" fill="#666666">[datetime]</text>
<polygon fill="none" stroke="#000000" points="280,-952.5 280,-982.5 521,-982.5 521,-952.5 280,-952.5"/>
<text text-anchor="start" x="287" y="-963.9" font-family="Arial" font-size="14.00" fill="#000000">checked_out_by </text>
<text text-anchor="start" x="392.8246" y="-963.9" font-family="Arial" font-size="14.00" fill="#666666">[int(11)]</text>
<polygon fill="none" stroke="#000000" points="280,-922.5 280,-952.5 521,-952.5 521,-922.5 280,-922.5"/>
<text text-anchor="start" x="286.5239" y="-933.9" font-family="Arial" font-size="14.00" fill="#000000">checked_out_by_user </text>
<text text-anchor="start" x="427.3569" y="-933.9" font-family="Arial" font-size="14.00" fill="#666666">[varchar(191)]</text>
<polygon fill="none" stroke="#000000" points="280,-892.5 280,-922.5 521,-922.5 521,-892.5 280,-892.5"/>
<text text-anchor="start" x="287" y="-903.9" font-family="Arial" font-size="14.00" fill="#000000">name </text>
<text text-anchor="start" x="325.899" y="-903.9" font-family="Arial" font-size="14.00" fill="#666666">[varchar(191)]</text>
<polygon fill="none" stroke="#000000" points="280,-862.5 280,-892.5 521,-892.5 521,-862.5 280,-862.5"/>
<text text-anchor="start" x="287" y="-873.9" font-family="Arial" font-size="14.00" fill="#000000">description </text>
<text text-anchor="start" x="358.568" y="-873.9" font-family="Arial" font-size="14.00" fill="#666666">[longtext]</text>
<polygon fill="none" stroke="#000000" points="280,-832.5 280,-862.5 521,-862.5 521,-832.5 280,-832.5"/>
<text text-anchor="start" x="287" y="-843.9" font-family="Arial" font-size="14.00" fill="#000000">type </text>
<text text-anchor="start" x="317.3464" y="-843.9" font-family="Arial" font-size="14.00" fill="#666666">[varchar(50)]</text>
<polygon fill="none" stroke="#000000" points="280,-802.5 280,-832.5 521,-832.5 521,-802.5 280,-802.5"/>
<text text-anchor="start" x="287" y="-813.9" font-family="Arial" font-size="14.00" fill="#000000">publish_up </text>
<text text-anchor="start" x="358.582" y="-813.9" font-family="Arial" font-size="14.00" fill="#666666">[datetime]</text>
<polygon fill="none" stroke="#000000" points="280,-772.5 280,-802.5 521,-802.5 521,-772.5 280,-772.5"/>
<text text-anchor="start" x="287" y="-783.9" font-family="Arial" font-size="14.00" fill="#000000">publish_down </text>
<text text-anchor="start" x="376.4712" y="-783.9" font-family="Arial" font-size="14.00" fill="#666666">[datetime]</text>
<polygon fill="none" stroke="#000000" points="280,-742.5 280,-772.5 521,-772.5 521,-742.5 280,-742.5"/>
<text text-anchor="start" x="287" y="-753.9" font-family="Arial" font-size="14.00" fill="#000000">repeatable </text>
<text text-anchor="start" x="357.0266" y="-753.9" font-family="Arial" font-size="14.00" fill="#666666">[tinyint(1)]</text>
<polygon fill="none" stroke="#000000" points="280,-712.5 280,-742.5 521,-742.5 521,-712.5 280,-712.5"/>
<text text-anchor="start" x="287" y="-723.9" font-family="Arial" font-size="14.00" fill="#000000">delta </text>
<text text-anchor="start" x="321.2356" y="-723.9" font-family="Arial" font-size="14.00" fill="#666666">[int(11)]</text>
<polygon fill="none" stroke="#000000" points="280,-682.5 280,-712.5 521,-712.5 521,-682.5 280,-682.5"/>
<text text-anchor="start" x="287" y="-693.9" font-family="Arial" font-size="14.00" fill="#000000">properties </text>
<text text-anchor="start" x="353.122" y="-693.9" font-family="Arial" font-size="14.00" fill="#666666">[longtext]</text>
<polygon fill="none" stroke="#000000" stroke-width="3" points="278,-681.5 278,-1319.5 522,-1319.5 522,-681.5 278,-681.5"/>
</g>
<!-- categories -->
<g id="node3" class="node">
<title>categories</title>
<polygon fill="#efefef" stroke="transparent" points="280,-522.5 280,-557.5 521,-557.5 521,-522.5 280,-522.5"/>
<polygon fill="none" stroke="#000000" points="280,-522.5 280,-557.5 521,-557.5 521,-522.5 280,-522.5"/>
<text text-anchor="start" x="310.3633" y="-535.3" font-family="Arial Bold" font-size="18.00" fill="#000000">categories</text>
<text text-anchor="start" x="393.3829" y="-535.3" font-family="Arial" font-size="14.00" fill="#000000"> </text>
<text text-anchor="start" x="397.2735" y="-535.3" font-family="Arial" font-size="14.00" fill="#666666">[BASE TABLE]</text>
<polygon fill="none" stroke="#000000" points="280,-492.5 280,-522.5 521,-522.5 521,-492.5 280,-492.5"/>
<text text-anchor="start" x="287" y="-503.9" font-family="Arial" font-size="14.00" fill="#000000">id </text>
<text text-anchor="start" x="301.7798" y="-503.9" font-family="Arial" font-size="14.00" fill="#666666">[int(10) unsigned]</text>
<polygon fill="none" stroke="#000000" points="280,-462.5 280,-492.5 521,-492.5 521,-462.5 280,-462.5"/>
<text text-anchor="start" x="287" y="-473.9" font-family="Arial" font-size="14.00" fill="#000000">is_published </text>
<text text-anchor="start" x="368.6886" y="-473.9" font-family="Arial" font-size="14.00" fill="#666666">[tinyint(1)]</text>
<polygon fill="none" stroke="#000000" points="280,-432.5 280,-462.5 521,-462.5 521,-432.5 280,-432.5"/>
<text text-anchor="start" x="287" y="-443.9" font-family="Arial" font-size="14.00" fill="#000000">date_added </text>
<text text-anchor="start" x="364.8246" y="-443.9" font-family="Arial" font-size="14.00" fill="#666666">[datetime]</text>
<polygon fill="none" stroke="#000000" points="280,-402.5 280,-432.5 521,-432.5 521,-402.5 280,-402.5"/>
<text text-anchor="start" x="287" y="-413.9" font-family="Arial" font-size="14.00" fill="#000000">created_by </text>
<text text-anchor="start" x="360.1374" y="-413.9" font-family="Arial" font-size="14.00" fill="#666666">[int(11)]</text>
<polygon fill="none" stroke="#000000" points="280,-372.5 280,-402.5 521,-402.5 521,-372.5 280,-372.5"/>
<text text-anchor="start" x="287" y="-383.9" font-family="Arial" font-size="14.00" fill="#000000">created_by_user </text>
<text text-anchor="start" x="395.1458" y="-383.9" font-family="Arial" font-size="14.00" fill="#666666">[varchar(191)]</text>
<polygon fill="none" stroke="#000000" points="280,-342.5 280,-372.5 521,-372.5 521,-342.5 280,-342.5"/>
<text text-anchor="start" x="287" y="-353.9" font-family="Arial" font-size="14.00" fill="#000000">date_modified </text>
<text text-anchor="start" x="378.8064" y="-353.9" font-family="Arial" font-size="14.00" fill="#666666">[datetime]</text>
<polygon fill="none" stroke="#000000" points="280,-312.5 280,-342.5 521,-342.5 521,-312.5 280,-312.5"/>
<text text-anchor="start" x="287" y="-323.9" font-family="Arial" font-size="14.00" fill="#000000">modified_by </text>
<text text-anchor="start" x="366.3506" y="-323.9" font-family="Arial" font-size="14.00" fill="#666666">[int(11)]</text>
<polygon fill="none" stroke="#000000" points="280,-282.5 280,-312.5 521,-312.5 521,-282.5 280,-282.5"/>
<text text-anchor="start" x="287" y="-293.9" font-family="Arial" font-size="14.00" fill="#000000">modified_by_user </text>
<text text-anchor="start" x="401.359" y="-293.9" font-family="Arial" font-size="14.00" fill="#666666">[varchar(191)]</text>
<polygon fill="none" stroke="#000000" points="280,-252.5 280,-282.5 521,-282.5 521,-252.5 280,-252.5"/>
<text text-anchor="start" x="287" y="-263.9" font-family="Arial" font-size="14.00" fill="#000000">checked_out </text>
<text text-anchor="start" x="370.2594" y="-263.9" font-family="Arial" font-size="14.00" fill="#666666">[datetime]</text>
<polygon fill="none" stroke="#000000" points="280,-222.5 280,-252.5 521,-252.5 521,-222.5 280,-222.5"/>
<text text-anchor="start" x="287" y="-233.9" font-family="Arial" font-size="14.00" fill="#000000">checked_out_by </text>
<text text-anchor="start" x="392.8246" y="-233.9" font-family="Arial" font-size="14.00" fill="#666666">[int(11)]</text>
<polygon fill="none" stroke="#000000" points="280,-192.5 280,-222.5 521,-222.5 521,-192.5 280,-192.5"/>
<text text-anchor="start" x="286.5239" y="-203.9" font-family="Arial" font-size="14.00" fill="#000000">checked_out_by_user </text>
<text text-anchor="start" x="427.3569" y="-203.9" font-family="Arial" font-size="14.00" fill="#666666">[varchar(191)]</text>
<polygon fill="none" stroke="#000000" points="280,-162.5 280,-192.5 521,-192.5 521,-162.5 280,-162.5"/>
<text text-anchor="start" x="287" y="-173.9" font-family="Arial" font-size="14.00" fill="#000000">title </text>
<text text-anchor="start" x="312.6676" y="-173.9" font-family="Arial" font-size="14.00" fill="#666666">[varchar(191)]</text>
<polygon fill="none" stroke="#000000" points="280,-132.5 280,-162.5 521,-162.5 521,-132.5 280,-132.5"/>
<text text-anchor="start" x="287" y="-143.9" font-family="Arial" font-size="14.00" fill="#000000">description </text>
<text text-anchor="start" x="358.568" y="-143.9" font-family="Arial" font-size="14.00" fill="#666666">[longtext]</text>
<polygon fill="none" stroke="#000000" points="280,-102.5 280,-132.5 521,-132.5 521,-102.5 280,-102.5"/>
<text text-anchor="start" x="287" y="-113.9" font-family="Arial" font-size="14.00" fill="#000000">alias </text>
<text text-anchor="start" x="319.669" y="-113.9" font-family="Arial" font-size="14.00" fill="#666666">[varchar(191)]</text>
<polygon fill="none" stroke="#000000" points="280,-72.5 280,-102.5 521,-102.5 521,-72.5 280,-72.5"/>
<text text-anchor="start" x="287" y="-83.9" font-family="Arial" font-size="14.00" fill="#000000">color </text>
<text text-anchor="start" x="321.223" y="-83.9" font-family="Arial" font-size="14.00" fill="#666666">[varchar(7)]</text>
<polygon fill="none" stroke="#000000" points="280,-42.5 280,-72.5 521,-72.5 521,-42.5 280,-42.5"/>
<text text-anchor="start" x="287" y="-53.9" font-family="Arial" font-size="14.00" fill="#000000">bundle </text>
<text text-anchor="start" x="332.9102" y="-53.9" font-family="Arial" font-size="14.00" fill="#666666">[varchar(50)]</text>
</g>
<!-- points&#45;&gt;categories -->
<g id="edge2" class="edge">
<title>points:category_id&#45;&gt;categories:id</title>
<path fill="none" stroke="#000000" d="M270.4289,-1233.9165C199.0253,-1178.8453 202.2157,-507.5 280,-507.5"/>
<polygon fill="#000000" stroke="#000000" points="270.6349,-1233.9936 278.4221,-1241.7143 275.3174,-1235.7468 280,-1237.5 280,-1237.5 280,-1237.5 275.3174,-1235.7468 281.5779,-1233.2857 270.6349,-1233.9936 270.6349,-1233.9936"/>
<text text-anchor="start" x="6.659" y="-1247.5" font-family="Arial" font-size="10.00" fill="#000000">FOREIGN KEY (category_id) REFERENCES categories (id)</text>
</g>
<!-- point_lead_action_log -->
<g id="node2" class="node">
<title>point_lead_action_log</title>
<polygon fill="#efefef" stroke="transparent" points="258,-1562.5 258,-1597.5 544,-1597.5 544,-1562.5 258,-1562.5"/>
<polygon fill="none" stroke="#000000" points="258,-1562.5 258,-1597.5 544,-1597.5 544,-1562.5 258,-1562.5"/>
<text text-anchor="start" x="264.8391" y="-1575.3" font-family="Arial Bold" font-size="18.00" fill="#000000">point_lead_action_log</text>
<text text-anchor="start" x="439.9071" y="-1575.3" font-family="Arial" font-size="14.00" fill="#000000"> </text>
<text text-anchor="start" x="443.7977" y="-1575.3" font-family="Arial" font-size="14.00" fill="#666666">[BASE TABLE]</text>
<polygon fill="none" stroke="#000000" points="258,-1532.5 258,-1562.5 544,-1562.5 544,-1532.5 258,-1532.5"/>
<text text-anchor="start" x="265" y="-1543.9" font-family="Arial" font-size="14.00" fill="#000000">point_id </text>
<text text-anchor="start" x="317.9074" y="-1543.9" font-family="Arial" font-size="14.00" fill="#666666">[int(10) unsigned]</text>
<polygon fill="none" stroke="#000000" points="258,-1502.5 258,-1532.5 544,-1532.5 544,-1502.5 258,-1502.5"/>
<text text-anchor="start" x="265" y="-1513.9" font-family="Arial" font-size="14.00" fill="#000000">lead_id </text>
<text text-anchor="start" x="314.0168" y="-1513.9" font-family="Arial" font-size="14.00" fill="#666666">[bigint(20) unsigned]</text>
<polygon fill="none" stroke="#000000" points="258,-1472.5 258,-1502.5 544,-1502.5 544,-1472.5 258,-1472.5"/>
<text text-anchor="start" x="265" y="-1483.9" font-family="Arial" font-size="14.00" fill="#000000">ip_id </text>
<text text-anchor="start" x="298.4516" y="-1483.9" font-family="Arial" font-size="14.00" fill="#666666">[int(10) unsigned]</text>
<polygon fill="none" stroke="#000000" points="258,-1442.5 258,-1472.5 544,-1472.5 544,-1442.5 258,-1442.5"/>
<text text-anchor="start" x="265" y="-1453.9" font-family="Arial" font-size="14.00" fill="#000000">date_fired </text>
<text text-anchor="start" x="331.1346" y="-1453.9" font-family="Arial" font-size="14.00" fill="#666666">[datetime]</text>
</g>
<!-- point_lead_action_log&#45;&gt;points -->
<g id="edge1" class="edge">
<title>point_lead_action_log:point_id&#45;&gt;points:id</title>
<path fill="none" stroke="#000000" d="M248.0234,-1546.6438C194.9626,-1536.9158 217.2598,-1446.6967 258,-1400 335.5608,-1311.0993 443.4392,-1452.9007 521,-1364 549.1957,-1331.6819 563.8889,-1267.5 521,-1267.5"/>
<polygon fill="#000000" stroke="#000000" points="248.0366,-1546.6449 257.6152,-1551.9835 253.0183,-1547.0724 258,-1547.5 258,-1547.5 258,-1547.5 253.0183,-1547.0724 258.3848,-1543.0165 248.0366,-1546.6449 248.0366,-1546.6449"/>
<text text-anchor="start" x="20.717" y="-1557.5" font-family="Arial" font-size="10.00" fill="#000000">FOREIGN KEY (point_id) REFERENCES points (id)</text>
</g>
</g>
</svg>
