<?xml version="1.0" encoding="UTF-8" standalone="no"?>
<!DOCTYPE svg PUBLIC "-//W3C//DTD SVG 1.1//EN"
 "http://www.w3.org/Graphics/SVG/1.1/DTD/svg11.dtd">
<!-- Generated by graphviz version 2.40.1 (20161225.0304)
 -->
<!-- Title: point_triggers Pages: 1 -->
<svg width="610pt" height="1709pt"
 viewBox="0.00 0.00 610.00 1709.00" xmlns="http://www.w3.org/2000/svg" xmlns:xlink="http://www.w3.org/1999/xlink">
<g id="graph0" class="graph" transform="scale(1 1) rotate(0) translate(4 1705)">
<title>point_triggers</title>
<polygon fill="#ffffff" stroke="transparent" points="-4,4 -4,-1705 606,-1705 606,4 -4,4"/>
<!-- point_triggers -->
<g id="node1" class="node">
<title>point_triggers</title>
<polygon fill="#efefef" stroke="transparent" points="301,-1252.5 301,-1287.5 542,-1287.5 542,-1252.5 301,-1252.5"/>
<polygon fill="none" stroke="#000000" points="301,-1252.5 301,-1287.5 542,-1287.5 542,-1252.5 301,-1252.5"/>
<text text-anchor="start" x="318.3628" y="-1265.3" font-family="Arial Bold" font-size="18.00" fill="#000000">point_triggers</text>
<text text-anchor="start" x="427.3834" y="-1265.3" font-family="Arial" font-size="14.00" fill="#000000"> </text>
<text text-anchor="start" x="431.274" y="-1265.3" font-family="Arial" font-size="14.00" fill="#666666">[BASE TABLE]</text>
<polygon fill="none" stroke="#000000" points="301,-1222.5 301,-1252.5 542,-1252.5 542,-1222.5 301,-1222.5"/>
<text text-anchor="start" x="308" y="-1233.9" font-family="Arial" font-size="14.00" fill="#000000">id </text>
<text text-anchor="start" x="322.7798" y="-1233.9" font-family="Arial" font-size="14.00" fill="#666666">[int(10) unsigned]</text>
<polygon fill="none" stroke="#000000" points="301,-1192.5 301,-1222.5 542,-1222.5 542,-1192.5 301,-1192.5"/>
<text text-anchor="start" x="308" y="-1203.9" font-family="Arial" font-size="14.00" fill="#000000">category_id </text>
<text text-anchor="start" x="384.244" y="-1203.9" font-family="Arial" font-size="14.00" fill="#666666">[int(10) unsigned]</text>
<polygon fill="none" stroke="#000000" points="301,-1162.5 301,-1192.5 542,-1192.5 542,-1162.5 301,-1162.5"/>
<text text-anchor="start" x="308" y="-1173.9" font-family="Arial" font-size="14.00" fill="#000000">is_published </text>
<text text-anchor="start" x="389.6886" y="-1173.9" font-family="Arial" font-size="14.00" fill="#666666">[tinyint(1)]</text>
<polygon fill="none" stroke="#000000" points="301,-1132.5 301,-1162.5 542,-1162.5 542,-1132.5 301,-1132.5"/>
<text text-anchor="start" x="308" y="-1143.9" font-family="Arial" font-size="14.00" fill="#000000">date_added </text>
<text text-anchor="start" x="385.8246" y="-1143.9" font-family="Arial" font-size="14.00" fill="#666666">[datetime]</text>
<polygon fill="none" stroke="#000000" points="301,-1102.5 301,-1132.5 542,-1132.5 542,-1102.5 301,-1102.5"/>
<text text-anchor="start" x="308" y="-1113.9" font-family="Arial" font-size="14.00" fill="#000000">created_by </text>
<text text-anchor="start" x="381.1374" y="-1113.9" font-family="Arial" font-size="14.00" fill="#666666">[int(11)]</text>
<polygon fill="none" stroke="#000000" points="301,-1072.5 301,-1102.5 542,-1102.5 542,-1072.5 301,-1072.5"/>
<text text-anchor="start" x="308" y="-1083.9" font-family="Arial" font-size="14.00" fill="#000000">created_by_user </text>
<text text-anchor="start" x="416.1458" y="-1083.9" font-family="Arial" font-size="14.00" fill="#666666">[varchar(191)]</text>
<polygon fill="none" stroke="#000000" points="301,-1042.5 301,-1072.5 542,-1072.5 542,-1042.5 301,-1042.5"/>
<text text-anchor="start" x="308" y="-1053.9" font-family="Arial" font-size="14.00" fill="#000000">date_modified </text>
<text text-anchor="start" x="399.8064" y="-1053.9" font-family="Arial" font-size="14.00" fill="#666666">[datetime]</text>
<polygon fill="none" stroke="#000000" points="301,-1012.5 301,-1042.5 542,-1042.5 542,-1012.5 301,-1012.5"/>
<text text-anchor="start" x="308" y="-1023.9" font-family="Arial" font-size="14.00" fill="#000000">modified_by </text>
<text text-anchor="start" x="387.3506" y="-1023.9" font-family="Arial" font-size="14.00" fill="#666666">[int(11)]</text>
<polygon fill="none" stroke="#000000" points="301,-982.5 301,-1012.5 542,-1012.5 542,-982.5 301,-982.5"/>
<text text-anchor="start" x="308" y="-993.9" font-family="Arial" font-size="14.00" fill="#000000">modified_by_user </text>
<text text-anchor="start" x="422.359" y="-993.9" font-family="Arial" font-size="14.00" fill="#666666">[varchar(191)]</text>
<polygon fill="none" stroke="#000000" points="301,-952.5 301,-982.5 542,-982.5 542,-952.5 301,-952.5"/>
<text text-anchor="start" x="308" y="-963.9" font-family="Arial" font-size="14.00" fill="#000000">checked_out </text>
<text text-anchor="start" x="391.2594" y="-963.9" font-family="Arial" font-size="14.00" fill="#666666">[datetime]</text>
<polygon fill="none" stroke="#000000" points="301,-922.5 301,-952.5 542,-952.5 542,-922.5 301,-922.5"/>
<text text-anchor="start" x="308" y="-933.9" font-family="Arial" font-size="14.00" fill="#000000">checked_out_by </text>
<text text-anchor="start" x="413.8246" y="-933.9" font-family="Arial" font-size="14.00" fill="#666666">[int(11)]</text>
<polygon fill="none" stroke="#000000" points="301,-892.5 301,-922.5 542,-922.5 542,-892.5 301,-892.5"/>
<text text-anchor="start" x="307.5239" y="-903.9" font-family="Arial" font-size="14.00" fill="#000000">checked_out_by_user </text>
<text text-anchor="start" x="448.3569" y="-903.9" font-family="Arial" font-size="14.00" fill="#666666">[varchar(191)]</text>
<polygon fill="none" stroke="#000000" points="301,-862.5 301,-892.5 542,-892.5 542,-862.5 301,-862.5"/>
<text text-anchor="start" x="308" y="-873.9" font-family="Arial" font-size="14.00" fill="#000000">name </text>
<text text-anchor="start" x="346.899" y="-873.9" font-family="Arial" font-size="14.00" fill="#666666">[varchar(191)]</text>
<polygon fill="none" stroke="#000000" points="301,-832.5 301,-862.5 542,-862.5 542,-832.5 301,-832.5"/>
<text text-anchor="start" x="308" y="-843.9" font-family="Arial" font-size="14.00" fill="#000000">description </text>
<text text-anchor="start" x="379.568" y="-843.9" font-family="Arial" font-size="14.00" fill="#666666">[longtext]</text>
<polygon fill="none" stroke="#000000" points="301,-802.5 301,-832.5 542,-832.5 542,-802.5 301,-802.5"/>
<text text-anchor="start" x="308" y="-813.9" font-family="Arial" font-size="14.00" fill="#000000">publish_up </text>
<text text-anchor="start" x="379.582" y="-813.9" font-family="Arial" font-size="14.00" fill="#666666">[datetime]</text>
<polygon fill="none" stroke="#000000" points="301,-772.5 301,-802.5 542,-802.5 542,-772.5 301,-772.5"/>
<text text-anchor="start" x="308" y="-783.9" font-family="Arial" font-size="14.00" fill="#000000">publish_down </text>
<text text-anchor="start" x="397.4712" y="-783.9" font-family="Arial" font-size="14.00" fill="#666666">[datetime]</text>
<polygon fill="none" stroke="#000000" points="301,-742.5 301,-772.5 542,-772.5 542,-742.5 301,-742.5"/>
<text text-anchor="start" x="308" y="-753.9" font-family="Arial" font-size="14.00" fill="#000000">points </text>
<text text-anchor="start" x="349.2356" y="-753.9" font-family="Arial" font-size="14.00" fill="#666666">[int(11)]</text>
<polygon fill="none" stroke="#000000" points="301,-712.5 301,-742.5 542,-742.5 542,-712.5 301,-712.5"/>
<text text-anchor="start" x="308" y="-723.9" font-family="Arial" font-size="14.00" fill="#000000">color </text>
<text text-anchor="start" x="342.223" y="-723.9" font-family="Arial" font-size="14.00" fill="#666666">[varchar(7)]</text>
<polygon fill="none" stroke="#000000" points="301,-682.5 301,-712.5 542,-712.5 542,-682.5 301,-682.5"/>
<text text-anchor="start" x="308" y="-693.9" font-family="Arial" font-size="14.00" fill="#000000">trigger_existing_leads </text>
<text text-anchor="start" x="448.028" y="-693.9" font-family="Arial" font-size="14.00" fill="#666666">[tinyint(1)]</text>
<polygon fill="none" stroke="#000000" stroke-width="3" points="299,-681.5 299,-1289.5 543,-1289.5 543,-681.5 299,-681.5"/>
</g>
<!-- categories -->
<g id="node3" class="node">
<title>categories</title>
<polygon fill="#efefef" stroke="transparent" points="301,-522.5 301,-557.5 542,-557.5 542,-522.5 301,-522.5"/>
<polygon fill="none" stroke="#000000" points="301,-522.5 301,-557.5 542,-557.5 542,-522.5 301,-522.5"/>
<text text-anchor="start" x="331.3633" y="-535.3" font-family="Arial Bold" font-size="18.00" fill="#000000">categories</text>
<text text-anchor="start" x="414.3829" y="-535.3" font-family="Arial" font-size="14.00" fill="#000000"> </text>
<text text-anchor="start" x="418.2735" y="-535.3" font-family="Arial" font-size="14.00" fill="#666666">[BASE TABLE]</text>
<polygon fill="none" stroke="#000000" points="301,-492.5 301,-522.5 542,-522.5 542,-492.5 301,-492.5"/>
<text text-anchor="start" x="308" y="-503.9" font-family="Arial" font-size="14.00" fill="#000000">id </text>
<text text-anchor="start" x="322.7798" y="-503.9" font-family="Arial" font-size="14.00" fill="#666666">[int(10) unsigned]</text>
<polygon fill="none" stroke="#000000" points="301,-462.5 301,-492.5 542,-492.5 542,-462.5 301,-462.5"/>
<text text-anchor="start" x="308" y="-473.9" font-family="Arial" font-size="14.00" fill="#000000">is_published </text>
<text text-anchor="start" x="389.6886" y="-473.9" font-family="Arial" font-size="14.00" fill="#666666">[tinyint(1)]</text>
<polygon fill="none" stroke="#000000" points="301,-432.5 301,-462.5 542,-462.5 542,-432.5 301,-432.5"/>
<text text-anchor="start" x="308" y="-443.9" font-family="Arial" font-size="14.00" fill="#000000">date_added </text>
<text text-anchor="start" x="385.8246" y="-443.9" font-family="Arial" font-size="14.00" fill="#666666">[datetime]</text>
<polygon fill="none" stroke="#000000" points="301,-402.5 301,-432.5 542,-432.5 542,-402.5 301,-402.5"/>
<text text-anchor="start" x="308" y="-413.9" font-family="Arial" font-size="14.00" fill="#000000">created_by </text>
<text text-anchor="start" x="381.1374" y="-413.9" font-family="Arial" font-size="14.00" fill="#666666">[int(11)]</text>
<polygon fill="none" stroke="#000000" points="301,-372.5 301,-402.5 542,-402.5 542,-372.5 301,-372.5"/>
<text text-anchor="start" x="308" y="-383.9" font-family="Arial" font-size="14.00" fill="#000000">created_by_user </text>
<text text-anchor="start" x="416.1458" y="-383.9" font-family="Arial" font-size="14.00" fill="#666666">[varchar(191)]</text>
<polygon fill="none" stroke="#000000" points="301,-342.5 301,-372.5 542,-372.5 542,-342.5 301,-342.5"/>
<text text-anchor="start" x="308" y="-353.9" font-family="Arial" font-size="14.00" fill="#000000">date_modified </text>
<text text-anchor="start" x="399.8064" y="-353.9" font-family="Arial" font-size="14.00" fill="#666666">[datetime]</text>
<polygon fill="none" stroke="#000000" points="301,-312.5 301,-342.5 542,-342.5 542,-312.5 301,-312.5"/>
<text text-anchor="start" x="308" y="-323.9" font-family="Arial" font-size="14.00" fill="#000000">modified_by </text>
<text text-anchor="start" x="387.3506" y="-323.9" font-family="Arial" font-size="14.00" fill="#666666">[int(11)]</text>
<polygon fill="none" stroke="#000000" points="301,-282.5 301,-312.5 542,-312.5 542,-282.5 301,-282.5"/>
<text text-anchor="start" x="308" y="-293.9" font-family="Arial" font-size="14.00" fill="#000000">modified_by_user </text>
<text text-anchor="start" x="422.359" y="-293.9" font-family="Arial" font-size="14.00" fill="#666666">[varchar(191)]</text>
<polygon fill="none" stroke="#000000" points="301,-252.5 301,-282.5 542,-282.5 542,-252.5 301,-252.5"/>
<text text-anchor="start" x="308" y="-263.9" font-family="Arial" font-size="14.00" fill="#000000">checked_out </text>
<text text-anchor="start" x="391.2594" y="-263.9" font-family="Arial" font-size="14.00" fill="#666666">[datetime]</text>
<polygon fill="none" stroke="#000000" points="301,-222.5 301,-252.5 542,-252.5 542,-222.5 301,-222.5"/>
<text text-anchor="start" x="308" y="-233.9" font-family="Arial" font-size="14.00" fill="#000000">checked_out_by </text>
<text text-anchor="start" x="413.8246" y="-233.9" font-family="Arial" font-size="14.00" fill="#666666">[int(11)]</text>
<polygon fill="none" stroke="#000000" points="301,-192.5 301,-222.5 542,-222.5 542,-192.5 301,-192.5"/>
<text text-anchor="start" x="307.5239" y="-203.9" font-family="Arial" font-size="14.00" fill="#000000">checked_out_by_user </text>
<text text-anchor="start" x="448.3569" y="-203.9" font-family="Arial" font-size="14.00" fill="#666666">[varchar(191)]</text>
<polygon fill="none" stroke="#000000" points="301,-162.5 301,-192.5 542,-192.5 542,-162.5 301,-162.5"/>
<text text-anchor="start" x="308" y="-173.9" font-family="Arial" font-size="14.00" fill="#000000">title </text>
<text text-anchor="start" x="333.6676" y="-173.9" font-family="Arial" font-size="14.00" fill="#666666">[varchar(191)]</text>
<polygon fill="none" stroke="#000000" points="301,-132.5 301,-162.5 542,-162.5 542,-132.5 301,-132.5"/>
<text text-anchor="start" x="308" y="-143.9" font-family="Arial" font-size="14.00" fill="#000000">description </text>
<text text-anchor="start" x="379.568" y="-143.9" font-family="Arial" font-size="14.00" fill="#666666">[longtext]</text>
<polygon fill="none" stroke="#000000" points="301,-102.5 301,-132.5 542,-132.5 542,-102.5 301,-102.5"/>
<text text-anchor="start" x="308" y="-113.9" font-family="Arial" font-size="14.00" fill="#000000">alias </text>
<text text-anchor="start" x="340.669" y="-113.9" font-family="Arial" font-size="14.00" fill="#666666">[varchar(191)]</text>
<polygon fill="none" stroke="#000000" points="301,-72.5 301,-102.5 542,-102.5 542,-72.5 301,-72.5"/>
<text text-anchor="start" x="308" y="-83.9" font-family="Arial" font-size="14.00" fill="#000000">color </text>
<text text-anchor="start" x="342.223" y="-83.9" font-family="Arial" font-size="14.00" fill="#666666">[varchar(7)]</text>
<polygon fill="none" stroke="#000000" points="301,-42.5 301,-72.5 542,-72.5 542,-42.5 301,-42.5"/>
<text text-anchor="start" x="308" y="-53.9" font-family="Arial" font-size="14.00" fill="#000000">bundle </text>
<text text-anchor="start" x="353.9102" y="-53.9" font-family="Arial" font-size="14.00" fill="#666666">[varchar(50)]</text>
</g>
<!-- point_triggers&#45;&gt;categories -->
<g id="edge2" class="edge">
<title>point_triggers:category_id&#45;&gt;categories:id</title>
<path fill="none" stroke="#000000" d="M291.4048,-1203.7338C223.3658,-1148.6362 226.5642,-507.5 301,-507.5"/>
<polygon fill="#000000" stroke="#000000" points="291.6914,-1203.8462 299.3558,-1211.6889 296.3457,-1205.6731 301,-1207.5 301,-1207.5 301,-1207.5 296.3457,-1205.6731 302.6442,-1203.3111 291.6914,-1203.8462 291.6914,-1203.8462"/>
<text text-anchor="start" x="27.659" y="-1217.5" font-family="Arial" font-size="10.00" fill="#000000">FOREIGN KEY (category_id) REFERENCES categories (id)</text>
</g>
<!-- point_trigger_events -->
<g id="node2" class="node">
<title>point_trigger_events</title>
<polygon fill="#efefef" stroke="transparent" points="285,-1622.5 285,-1657.5 559,-1657.5 559,-1622.5 285,-1622.5"/>
<polygon fill="none" stroke="#000000" points="285,-1622.5 285,-1657.5 559,-1657.5 559,-1622.5 285,-1622.5"/>
<text text-anchor="start" x="291.8493" y="-1635.3" font-family="Arial Bold" font-size="18.00" fill="#000000">point_trigger_events</text>
<text text-anchor="start" x="454.8969" y="-1635.3" font-family="Arial" font-size="14.00" fill="#000000"> </text>
<text text-anchor="start" x="458.7875" y="-1635.3" font-family="Arial" font-size="14.00" fill="#666666">[BASE TABLE]</text>
<polygon fill="none" stroke="#000000" points="285,-1592.5 285,-1622.5 559,-1622.5 559,-1592.5 285,-1592.5"/>
<text text-anchor="start" x="292" y="-1603.9" font-family="Arial" font-size="14.00" fill="#000000">id </text>
<text text-anchor="start" x="306.7798" y="-1603.9" font-family="Arial" font-size="14.00" fill="#666666">[int(10) unsigned]</text>
<polygon fill="none" stroke="#000000" points="285,-1562.5 285,-1592.5 559,-1592.5 559,-1562.5 285,-1562.5"/>
<text text-anchor="start" x="292" y="-1573.9" font-family="Arial" font-size="14.00" fill="#000000">trigger_id </text>
<text text-anchor="start" x="354.2286" y="-1573.9" font-family="Arial" font-size="14.00" fill="#666666">[int(10) unsigned]</text>
<polygon fill="none" stroke="#000000" points="285,-1532.5 285,-1562.5 559,-1562.5 559,-1532.5 285,-1532.5"/>
<text text-anchor="start" x="292" y="-1543.9" font-family="Arial" font-size="14.00" fill="#000000">name </text>
<text text-anchor="start" x="330.899" y="-1543.9" font-family="Arial" font-size="14.00" fill="#666666">[varchar(191)]</text>
<polygon fill="none" stroke="#000000" points="285,-1502.5 285,-1532.5 559,-1532.5 559,-1502.5 285,-1502.5"/>
<text text-anchor="start" x="292" y="-1513.9" font-family="Arial" font-size="14.00" fill="#000000">description </text>
<text text-anchor="start" x="363.568" y="-1513.9" font-family="Arial" font-size="14.00" fill="#666666">[longtext]</text>
<polygon fill="none" stroke="#000000" points="285,-1472.5 285,-1502.5 559,-1502.5 559,-1472.5 285,-1472.5"/>
<text text-anchor="start" x="292" y="-1483.9" font-family="Arial" font-size="14.00" fill="#000000">type </text>
<text text-anchor="start" x="322.3464" y="-1483.9" font-family="Arial" font-size="14.00" fill="#666666">[varchar(50)]</text>
<polygon fill="none" stroke="#000000" points="285,-1442.5 285,-1472.5 559,-1472.5 559,-1442.5 285,-1442.5"/>
<text text-anchor="start" x="292" y="-1453.9" font-family="Arial" font-size="14.00" fill="#000000">action_order </text>
<text text-anchor="start" x="373.6872" y="-1453.9" font-family="Arial" font-size="14.00" fill="#666666">[int(11)]</text>
<polygon fill="none" stroke="#000000" points="285,-1412.5 285,-1442.5 559,-1442.5 559,-1412.5 285,-1412.5"/>
<text text-anchor="start" x="292" y="-1423.9" font-family="Arial" font-size="14.00" fill="#000000">properties </text>
<text text-anchor="start" x="358.122" y="-1423.9" font-family="Arial" font-size="14.00" fill="#666666">[longtext]</text>
</g>
<!-- point_trigger_events&#45;&gt;point_triggers -->
<g id="edge1" class="edge">
<title>point_trigger_events:trigger_id&#45;&gt;point_triggers:id</title>
<path fill="none" stroke="#000000" d="M274.7543,-1576.881C195.2986,-1566.8298 226.845,-1436.869 285,-1370 360.6879,-1282.9709 466.3121,-1421.0291 542,-1334 570.145,-1301.6377 584.8889,-1237.5 542,-1237.5"/>
<polygon fill="#000000" stroke="#000000" points="275.0182,-1576.8968 284.7286,-1581.9918 280.0091,-1577.1984 285,-1577.5 285,-1577.5 285,-1577.5 280.0091,-1577.1984 285.2714,-1573.0082 275.0182,-1576.8968 275.0182,-1576.8968"/>
<text text-anchor="start" x="7.442" y="-1587.5" font-family="Arial" font-size="10.00" fill="#000000">FOREIGN KEY (trigger_id) REFERENCES point_triggers (id)</text>
</g>
</g>
</svg>
