<?xml version="1.0" encoding="UTF-8" standalone="no"?>
<!DOCTYPE svg PUBLIC "-//W3C//DTD SVG 1.1//EN"
 "http://www.w3.org/Graphics/SVG/1.1/DTD/svg11.dtd">
<!-- Generated by graphviz version 2.40.1 (20161225.0304)
 -->
<!-- Title: point_lead_action_log Pages: 1 -->
<svg width="1015pt" height="1762pt"
 viewBox="0.00 0.00 1014.50 1762.00" xmlns="http://www.w3.org/2000/svg" xmlns:xlink="http://www.w3.org/1999/xlink">
<g id="graph0" class="graph" transform="scale(1 1) rotate(0) translate(4 1758)">
<title>point_lead_action_log</title>
<polygon fill="#ffffff" stroke="transparent" points="-4,4 -4,-1758 1010.5,-1758 1010.5,4 -4,4"/>
<!-- point_lead_action_log -->
<g id="node1" class="node">
<title>point_lead_action_log</title>
<polygon fill="#efefef" stroke="transparent" points="372.5,-1672.5 372.5,-1707.5 658.5,-1707.5 658.5,-1672.5 372.5,-1672.5"/>
<polygon fill="none" stroke="#000000" points="372.5,-1672.5 372.5,-1707.5 658.5,-1707.5 658.5,-1672.5 372.5,-1672.5"/>
<text text-anchor="start" x="379.3391" y="-1685.3" font-family="Arial Bold" font-size="18.00" fill="#000000">point_lead_action_log</text>
<text text-anchor="start" x="554.4071" y="-1685.3" font-family="Arial" font-size="14.00" fill="#000000"> </text>
<text text-anchor="start" x="558.2977" y="-1685.3" font-family="Arial" font-size="14.00" fill="#666666">[BASE TABLE]</text>
<polygon fill="none" stroke="#000000" points="372.5,-1642.5 372.5,-1672.5 658.5,-1672.5 658.5,-1642.5 372.5,-1642.5"/>
<text text-anchor="start" x="379.5" y="-1653.9" font-family="Arial" font-size="14.00" fill="#000000">point_id </text>
<text text-anchor="start" x="432.4074" y="-1653.9" font-family="Arial" font-size="14.00" fill="#666666">[int(10) unsigned]</text>
<polygon fill="none" stroke="#000000" points="372.5,-1612.5 372.5,-1642.5 658.5,-1642.5 658.5,-1612.5 372.5,-1612.5"/>
<text text-anchor="start" x="379.5" y="-1623.9" font-family="Arial" font-size="14.00" fill="#000000">lead_id </text>
<text text-anchor="start" x="428.5168" y="-1623.9" font-family="Arial" font-size="14.00" fill="#666666">[bigint(20) unsigned]</text>
<polygon fill="none" stroke="#000000" points="372.5,-1582.5 372.5,-1612.5 658.5,-1612.5 658.5,-1582.5 372.5,-1582.5"/>
<text text-anchor="start" x="379.5" y="-1593.9" font-family="Arial" font-size="14.00" fill="#000000">ip_id </text>
<text text-anchor="start" x="412.9516" y="-1593.9" font-family="Arial" font-size="14.00" fill="#666666">[int(10) unsigned]</text>
<polygon fill="none" stroke="#000000" points="372.5,-1552.5 372.5,-1582.5 658.5,-1582.5 658.5,-1552.5 372.5,-1552.5"/>
<text text-anchor="start" x="379.5" y="-1563.9" font-family="Arial" font-size="14.00" fill="#000000">date_fired </text>
<text text-anchor="start" x="445.6346" y="-1563.9" font-family="Arial" font-size="14.00" fill="#666666">[datetime]</text>
<polygon fill="none" stroke="#000000" stroke-width="3" points="371,-1551.5 371,-1709.5 660,-1709.5 660,-1551.5 371,-1551.5"/>
</g>
<!-- points -->
<g id="node2" class="node">
<title>points</title>
<polygon fill="#efefef" stroke="transparent" points="43.5,-1017.5 43.5,-1052.5 284.5,-1052.5 284.5,-1017.5 43.5,-1017.5"/>
<polygon fill="none" stroke="#000000" points="43.5,-1017.5 43.5,-1052.5 284.5,-1052.5 284.5,-1017.5 43.5,-1017.5"/>
<text text-anchor="start" x="91.3656" y="-1030.3" font-family="Arial Bold" font-size="18.00" fill="#000000">points</text>
<text text-anchor="start" x="139.3806" y="-1030.3" font-family="Arial" font-size="14.00" fill="#000000"> </text>
<text text-anchor="start" x="143.2712" y="-1030.3" font-family="Arial" font-size="14.00" fill="#666666">[BASE TABLE]</text>
<polygon fill="none" stroke="#000000" points="43.5,-987.5 43.5,-1017.5 284.5,-1017.5 284.5,-987.5 43.5,-987.5"/>
<text text-anchor="start" x="50.5" y="-998.9" font-family="Arial" font-size="14.00" fill="#000000">id </text>
<text text-anchor="start" x="65.2798" y="-998.9" font-family="Arial" font-size="14.00" fill="#666666">[int(10) unsigned]</text>
<polygon fill="none" stroke="#000000" points="43.5,-957.5 43.5,-987.5 284.5,-987.5 284.5,-957.5 43.5,-957.5"/>
<text text-anchor="start" x="50.5" y="-968.9" font-family="Arial" font-size="14.00" fill="#000000">category_id </text>
<text text-anchor="start" x="126.744" y="-968.9" font-family="Arial" font-size="14.00" fill="#666666">[int(10) unsigned]</text>
<polygon fill="none" stroke="#000000" points="43.5,-927.5 43.5,-957.5 284.5,-957.5 284.5,-927.5 43.5,-927.5"/>
<text text-anchor="start" x="50.5" y="-938.9" font-family="Arial" font-size="14.00" fill="#000000">is_published </text>
<text text-anchor="start" x="132.1886" y="-938.9" font-family="Arial" font-size="14.00" fill="#666666">[tinyint(1)]</text>
<polygon fill="none" stroke="#000000" points="43.5,-897.5 43.5,-927.5 284.5,-927.5 284.5,-897.5 43.5,-897.5"/>
<text text-anchor="start" x="50.5" y="-908.9" font-family="Arial" font-size="14.00" fill="#000000">date_added </text>
<text text-anchor="start" x="128.3246" y="-908.9" font-family="Arial" font-size="14.00" fill="#666666">[datetime]</text>
<polygon fill="none" stroke="#000000" points="43.5,-867.5 43.5,-897.5 284.5,-897.5 284.5,-867.5 43.5,-867.5"/>
<text text-anchor="start" x="50.5" y="-878.9" font-family="Arial" font-size="14.00" fill="#000000">created_by </text>
<text text-anchor="start" x="123.6374" y="-878.9" font-family="Arial" font-size="14.00" fill="#666666">[int(11)]</text>
<polygon fill="none" stroke="#000000" points="43.5,-837.5 43.5,-867.5 284.5,-867.5 284.5,-837.5 43.5,-837.5"/>
<text text-anchor="start" x="50.5" y="-848.9" font-family="Arial" font-size="14.00" fill="#000000">created_by_user </text>
<text text-anchor="start" x="158.6458" y="-848.9" font-family="Arial" font-size="14.00" fill="#666666">[varchar(191)]</text>
<polygon fill="none" stroke="#000000" points="43.5,-807.5 43.5,-837.5 284.5,-837.5 284.5,-807.5 43.5,-807.5"/>
<text text-anchor="start" x="50.5" y="-818.9" font-family="Arial" font-size="14.00" fill="#000000">date_modified </text>
<text text-anchor="start" x="142.3064" y="-818.9" font-family="Arial" font-size="14.00" fill="#666666">[datetime]</text>
<polygon fill="none" stroke="#000000" points="43.5,-777.5 43.5,-807.5 284.5,-807.5 284.5,-777.5 43.5,-777.5"/>
<text text-anchor="start" x="50.5" y="-788.9" font-family="Arial" font-size="14.00" fill="#000000">modified_by </text>
<text text-anchor="start" x="129.8506" y="-788.9" font-family="Arial" font-size="14.00" fill="#666666">[int(11)]</text>
<polygon fill="none" stroke="#000000" points="43.5,-747.5 43.5,-777.5 284.5,-777.5 284.5,-747.5 43.5,-747.5"/>
<text text-anchor="start" x="50.5" y="-758.9" font-family="Arial" font-size="14.00" fill="#000000">modified_by_user </text>
<text text-anchor="start" x="164.859" y="-758.9" font-family="Arial" font-size="14.00" fill="#666666">[varchar(191)]</text>
<polygon fill="none" stroke="#000000" points="43.5,-717.5 43.5,-747.5 284.5,-747.5 284.5,-717.5 43.5,-717.5"/>
<text text-anchor="start" x="50.5" y="-728.9" font-family="Arial" font-size="14.00" fill="#000000">checked_out </text>
<text text-anchor="start" x="133.7594" y="-728.9" font-family="Arial" font-size="14.00" fill="#666666">[datetime]</text>
<polygon fill="none" stroke="#000000" points="43.5,-687.5 43.5,-717.5 284.5,-717.5 284.5,-687.5 43.5,-687.5"/>
<text text-anchor="start" x="50.5" y="-698.9" font-family="Arial" font-size="14.00" fill="#000000">checked_out_by </text>
<text text-anchor="start" x="156.3246" y="-698.9" font-family="Arial" font-size="14.00" fill="#666666">[int(11)]</text>
<polygon fill="none" stroke="#000000" points="43.5,-657.5 43.5,-687.5 284.5,-687.5 284.5,-657.5 43.5,-657.5"/>
<text text-anchor="start" x="50.0239" y="-668.9" font-family="Arial" font-size="14.00" fill="#000000">checked_out_by_user </text>
<text text-anchor="start" x="190.8569" y="-668.9" font-family="Arial" font-size="14.00" fill="#666666">[varchar(191)]</text>
<polygon fill="none" stroke="#000000" points="43.5,-627.5 43.5,-657.5 284.5,-657.5 284.5,-627.5 43.5,-627.5"/>
<text text-anchor="start" x="50.5" y="-638.9" font-family="Arial" font-size="14.00" fill="#000000">name </text>
<text text-anchor="start" x="89.399" y="-638.9" font-family="Arial" font-size="14.00" fill="#666666">[varchar(191)]</text>
<polygon fill="none" stroke="#000000" points="43.5,-597.5 43.5,-627.5 284.5,-627.5 284.5,-597.5 43.5,-597.5"/>
<text text-anchor="start" x="50.5" y="-608.9" font-family="Arial" font-size="14.00" fill="#000000">description </text>
<text text-anchor="start" x="122.068" y="-608.9" font-family="Arial" font-size="14.00" fill="#666666">[longtext]</text>
<polygon fill="none" stroke="#000000" points="43.5,-567.5 43.5,-597.5 284.5,-597.5 284.5,-567.5 43.5,-567.5"/>
<text text-anchor="start" x="50.5" y="-578.9" font-family="Arial" font-size="14.00" fill="#000000">type </text>
<text text-anchor="start" x="80.8464" y="-578.9" font-family="Arial" font-size="14.00" fill="#666666">[varchar(50)]</text>
<polygon fill="none" stroke="#000000" points="43.5,-537.5 43.5,-567.5 284.5,-567.5 284.5,-537.5 43.5,-537.5"/>
<text text-anchor="start" x="50.5" y="-548.9" font-family="Arial" font-size="14.00" fill="#000000">publish_up </text>
<text text-anchor="start" x="122.082" y="-548.9" font-family="Arial" font-size="14.00" fill="#666666">[datetime]</text>
<polygon fill="none" stroke="#000000" points="43.5,-507.5 43.5,-537.5 284.5,-537.5 284.5,-507.5 43.5,-507.5"/>
<text text-anchor="start" x="50.5" y="-518.9" font-family="Arial" font-size="14.00" fill="#000000">publish_down </text>
<text text-anchor="start" x="139.9712" y="-518.9" font-family="Arial" font-size="14.00" fill="#666666">[datetime]</text>
<polygon fill="none" stroke="#000000" points="43.5,-477.5 43.5,-507.5 284.5,-507.5 284.5,-477.5 43.5,-477.5"/>
<text text-anchor="start" x="50.5" y="-488.9" font-family="Arial" font-size="14.00" fill="#000000">repeatable </text>
<text text-anchor="start" x="120.5266" y="-488.9" font-family="Arial" font-size="14.00" fill="#666666">[tinyint(1)]</text>
<polygon fill="none" stroke="#000000" points="43.5,-447.5 43.5,-477.5 284.5,-477.5 284.5,-447.5 43.5,-447.5"/>
<text text-anchor="start" x="50.5" y="-458.9" font-family="Arial" font-size="14.00" fill="#000000">delta </text>
<text text-anchor="start" x="84.7356" y="-458.9" font-family="Arial" font-size="14.00" fill="#666666">[int(11)]</text>
<polygon fill="none" stroke="#000000" points="43.5,-417.5 43.5,-447.5 284.5,-447.5 284.5,-417.5 43.5,-417.5"/>
<text text-anchor="start" x="50.5" y="-428.9" font-family="Arial" font-size="14.00" fill="#000000">properties </text>
<text text-anchor="start" x="116.622" y="-428.9" font-family="Arial" font-size="14.00" fill="#666666">[longtext]</text>
</g>
<!-- point_lead_action_log&#45;&gt;points -->
<g id="edge1" class="edge">
<title>point_lead_action_log:point_id&#45;&gt;points:id</title>
<path fill="none" stroke="#000000" d="M363.0185,-1653.3173C304.2961,-1597.533 354.4896,-1002.5 284.5,-1002.5"/>
<polygon fill="#000000" stroke="#000000" points="363.3507,-1653.4638 370.6837,-1661.6172 367.9253,-1655.4819 372.5,-1657.5 372.5,-1657.5 372.5,-1657.5 367.9253,-1655.4819 374.3163,-1653.3828 363.3507,-1653.4638 363.3507,-1653.4638"/>
<text text-anchor="start" x="135.217" y="-1667.5" font-family="Arial" font-size="10.00" fill="#000000">FOREIGN KEY (point_id) REFERENCES points (id)</text>
</g>
<!-- leads -->
<g id="node3" class="node">
<title>leads</title>
<polygon fill="#efefef" stroke="transparent" points="388.5,-1392.5 388.5,-1427.5 641.5,-1427.5 641.5,-1392.5 388.5,-1392.5"/>
<polygon fill="none" stroke="#000000" points="388.5,-1392.5 388.5,-1427.5 641.5,-1427.5 641.5,-1392.5 388.5,-1392.5"/>
<text text-anchor="start" x="444.8667" y="-1405.3" font-family="Arial Bold" font-size="18.00" fill="#000000">leads</text>
<text text-anchor="start" x="487.8795" y="-1405.3" font-family="Arial" font-size="14.00" fill="#000000"> </text>
<text text-anchor="start" x="491.7701" y="-1405.3" font-family="Arial" font-size="14.00" fill="#666666">[BASE TABLE]</text>
<polygon fill="none" stroke="#000000" points="388.5,-1362.5 388.5,-1392.5 641.5,-1392.5 641.5,-1362.5 388.5,-1362.5"/>
<text text-anchor="start" x="395.5" y="-1373.9" font-family="Arial" font-size="14.00" fill="#000000">id </text>
<text text-anchor="start" x="410.2798" y="-1373.9" font-family="Arial" font-size="14.00" fill="#666666">[bigint(20) unsigned]</text>
<polygon fill="none" stroke="#000000" points="388.5,-1332.5 388.5,-1362.5 641.5,-1362.5 641.5,-1332.5 388.5,-1332.5"/>
<text text-anchor="start" x="395.5" y="-1343.9" font-family="Arial" font-size="14.00" fill="#000000">owner_id </text>
<text text-anchor="start" x="456.1774" y="-1343.9" font-family="Arial" font-size="14.00" fill="#666666">[int(10) unsigned]</text>
<polygon fill="none" stroke="#000000" points="388.5,-1302.5 388.5,-1332.5 641.5,-1332.5 641.5,-1302.5 388.5,-1302.5"/>
<text text-anchor="start" x="395.5" y="-1313.9" font-family="Arial" font-size="14.00" fill="#000000">stage_id </text>
<text text-anchor="start" x="452.3008" y="-1313.9" font-family="Arial" font-size="14.00" fill="#666666">[int(10) unsigned]</text>
<polygon fill="none" stroke="#000000" points="388.5,-1272.5 388.5,-1302.5 641.5,-1302.5 641.5,-1272.5 388.5,-1272.5"/>
<text text-anchor="start" x="395.5" y="-1283.9" font-family="Arial" font-size="14.00" fill="#000000">is_published </text>
<text text-anchor="start" x="477.1886" y="-1283.9" font-family="Arial" font-size="14.00" fill="#666666">[tinyint(1)]</text>
<polygon fill="none" stroke="#000000" points="388.5,-1242.5 388.5,-1272.5 641.5,-1272.5 641.5,-1242.5 388.5,-1242.5"/>
<text text-anchor="start" x="395.5" y="-1253.9" font-family="Arial" font-size="14.00" fill="#000000">date_added </text>
<text text-anchor="start" x="473.3246" y="-1253.9" font-family="Arial" font-size="14.00" fill="#666666">[datetime]</text>
<polygon fill="none" stroke="#000000" points="388.5,-1212.5 388.5,-1242.5 641.5,-1242.5 641.5,-1212.5 388.5,-1212.5"/>
<text text-anchor="start" x="395.5" y="-1223.9" font-family="Arial" font-size="14.00" fill="#000000">created_by </text>
<text text-anchor="start" x="468.6374" y="-1223.9" font-family="Arial" font-size="14.00" fill="#666666">[int(11)]</text>
<polygon fill="none" stroke="#000000" points="388.5,-1182.5 388.5,-1212.5 641.5,-1212.5 641.5,-1182.5 388.5,-1182.5"/>
<text text-anchor="start" x="395.5" y="-1193.9" font-family="Arial" font-size="14.00" fill="#000000">created_by_user </text>
<text text-anchor="start" x="503.6458" y="-1193.9" font-family="Arial" font-size="14.00" fill="#666666">[varchar(191)]</text>
<polygon fill="none" stroke="#000000" points="388.5,-1152.5 388.5,-1182.5 641.5,-1182.5 641.5,-1152.5 388.5,-1152.5"/>
<text text-anchor="start" x="395.5" y="-1163.9" font-family="Arial" font-size="14.00" fill="#000000">date_modified </text>
<text text-anchor="start" x="487.3064" y="-1163.9" font-family="Arial" font-size="14.00" fill="#666666">[datetime]</text>
<polygon fill="none" stroke="#000000" points="388.5,-1122.5 388.5,-1152.5 641.5,-1152.5 641.5,-1122.5 388.5,-1122.5"/>
<text text-anchor="start" x="395.5" y="-1133.9" font-family="Arial" font-size="14.00" fill="#000000">modified_by </text>
<text text-anchor="start" x="474.8506" y="-1133.9" font-family="Arial" font-size="14.00" fill="#666666">[int(11)]</text>
<polygon fill="none" stroke="#000000" points="388.5,-1092.5 388.5,-1122.5 641.5,-1122.5 641.5,-1092.5 388.5,-1092.5"/>
<text text-anchor="start" x="395.5" y="-1103.9" font-family="Arial" font-size="14.00" fill="#000000">modified_by_user </text>
<text text-anchor="start" x="509.859" y="-1103.9" font-family="Arial" font-size="14.00" fill="#666666">[varchar(191)]</text>
<polygon fill="none" stroke="#000000" points="388.5,-1062.5 388.5,-1092.5 641.5,-1092.5 641.5,-1062.5 388.5,-1062.5"/>
<text text-anchor="start" x="395.5" y="-1073.9" font-family="Arial" font-size="14.00" fill="#000000">checked_out </text>
<text text-anchor="start" x="478.7594" y="-1073.9" font-family="Arial" font-size="14.00" fill="#666666">[datetime]</text>
<polygon fill="none" stroke="#000000" points="388.5,-1032.5 388.5,-1062.5 641.5,-1062.5 641.5,-1032.5 388.5,-1032.5"/>
<text text-anchor="start" x="395.5" y="-1043.9" font-family="Arial" font-size="14.00" fill="#000000">checked_out_by </text>
<text text-anchor="start" x="501.3246" y="-1043.9" font-family="Arial" font-size="14.00" fill="#666666">[int(11)]</text>
<polygon fill="none" stroke="#000000" points="388.5,-1002.5 388.5,-1032.5 641.5,-1032.5 641.5,-1002.5 388.5,-1002.5"/>
<text text-anchor="start" x="395.5" y="-1013.9" font-family="Arial" font-size="14.00" fill="#000000">checked_out_by_user </text>
<text text-anchor="start" x="536.333" y="-1013.9" font-family="Arial" font-size="14.00" fill="#666666">[varchar(191)]</text>
<polygon fill="none" stroke="#000000" points="388.5,-972.5 388.5,-1002.5 641.5,-1002.5 641.5,-972.5 388.5,-972.5"/>
<text text-anchor="start" x="395.5" y="-983.9" font-family="Arial" font-size="14.00" fill="#000000">points </text>
<text text-anchor="start" x="436.7356" y="-983.9" font-family="Arial" font-size="14.00" fill="#666666">[int(11)]</text>
<polygon fill="none" stroke="#000000" points="388.5,-942.5 388.5,-972.5 641.5,-972.5 641.5,-942.5 388.5,-942.5"/>
<text text-anchor="start" x="395.5" y="-953.9" font-family="Arial" font-size="14.00" fill="#000000">last_active </text>
<text text-anchor="start" x="465.5154" y="-953.9" font-family="Arial" font-size="14.00" fill="#666666">[datetime]</text>
<polygon fill="none" stroke="#000000" points="388.5,-912.5 388.5,-942.5 641.5,-942.5 641.5,-912.5 388.5,-912.5"/>
<text text-anchor="start" x="395.5" y="-923.9" font-family="Arial" font-size="14.00" fill="#000000">internal </text>
<text text-anchor="start" x="445.2854" y="-923.9" font-family="Arial" font-size="14.00" fill="#666666">[longtext]</text>
<polygon fill="none" stroke="#000000" points="388.5,-882.5 388.5,-912.5 641.5,-912.5 641.5,-882.5 388.5,-882.5"/>
<text text-anchor="start" x="395.5" y="-893.9" font-family="Arial" font-size="14.00" fill="#000000">social_cache </text>
<text text-anchor="start" x="480.2994" y="-893.9" font-family="Arial" font-size="14.00" fill="#666666">[longtext]</text>
<polygon fill="none" stroke="#000000" points="388.5,-852.5 388.5,-882.5 641.5,-882.5 641.5,-852.5 388.5,-852.5"/>
<text text-anchor="start" x="395.5" y="-863.9" font-family="Arial" font-size="14.00" fill="#000000">date_identified </text>
<text text-anchor="start" x="490.4256" y="-863.9" font-family="Arial" font-size="14.00" fill="#666666">[datetime]</text>
<polygon fill="none" stroke="#000000" points="388.5,-822.5 388.5,-852.5 641.5,-852.5 641.5,-822.5 388.5,-822.5"/>
<text text-anchor="start" x="395.2062" y="-833.9" font-family="Arial" font-size="14.00" fill="#000000">preferred_profile_image </text>
<text text-anchor="start" x="547.6746" y="-833.9" font-family="Arial" font-size="14.00" fill="#666666">[varchar(191)]</text>
<polygon fill="none" stroke="#000000" points="388.5,-792.5 388.5,-822.5 641.5,-822.5 641.5,-792.5 388.5,-792.5"/>
<text text-anchor="start" x="395.5" y="-803.9" font-family="Arial" font-size="14.00" fill="#000000">title </text>
<text text-anchor="start" x="421.1676" y="-803.9" font-family="Arial" font-size="14.00" fill="#666666">[varchar(191)]</text>
<polygon fill="none" stroke="#000000" points="388.5,-762.5 388.5,-792.5 641.5,-792.5 641.5,-762.5 388.5,-762.5"/>
<text text-anchor="start" x="395.5" y="-773.9" font-family="Arial" font-size="14.00" fill="#000000">firstname </text>
<text text-anchor="start" x="456.9474" y="-773.9" font-family="Arial" font-size="14.00" fill="#666666">[varchar(191)]</text>
<polygon fill="none" stroke="#000000" points="388.5,-732.5 388.5,-762.5 641.5,-762.5 641.5,-732.5 388.5,-732.5"/>
<text text-anchor="start" x="395.5" y="-743.9" font-family="Arial" font-size="14.00" fill="#000000">lastname </text>
<text text-anchor="start" x="456.1788" y="-743.9" font-family="Arial" font-size="14.00" fill="#666666">[varchar(191)]</text>
<polygon fill="none" stroke="#000000" points="388.5,-702.5 388.5,-732.5 641.5,-732.5 641.5,-702.5 388.5,-702.5"/>
<text text-anchor="start" x="395.5" y="-713.9" font-family="Arial" font-size="14.00" fill="#000000">company </text>
<text text-anchor="start" x="456.1816" y="-713.9" font-family="Arial" font-size="14.00" fill="#666666">[varchar(191)]</text>
<polygon fill="none" stroke="#000000" points="388.5,-672.5 388.5,-702.5 641.5,-702.5 641.5,-672.5 388.5,-672.5"/>
<text text-anchor="start" x="395.5" y="-683.9" font-family="Arial" font-size="14.00" fill="#000000">position </text>
<text text-anchor="start" x="447.6248" y="-683.9" font-family="Arial" font-size="14.00" fill="#666666">[varchar(191)]</text>
<polygon fill="none" stroke="#000000" points="388.5,-642.5 388.5,-672.5 641.5,-672.5 641.5,-642.5 388.5,-642.5"/>
<text text-anchor="start" x="395.5" y="-653.9" font-family="Arial" font-size="14.00" fill="#000000">email </text>
<text text-anchor="start" x="432.8296" y="-653.9" font-family="Arial" font-size="14.00" fill="#666666">[varchar(191)]</text>
<polygon fill="none" stroke="#000000" points="388.5,-612.5 388.5,-642.5 641.5,-642.5 641.5,-612.5 388.5,-612.5"/>
<text text-anchor="start" x="395.5" y="-623.9" font-family="Arial" font-size="14.00" fill="#000000">phone </text>
<text text-anchor="start" x="438.3036" y="-623.9" font-family="Arial" font-size="14.00" fill="#666666">[varchar(191)]</text>
<polygon fill="none" stroke="#000000" points="388.5,-582.5 388.5,-612.5 641.5,-612.5 641.5,-582.5 388.5,-582.5"/>
<text text-anchor="start" x="395.5" y="-593.9" font-family="Arial" font-size="14.00" fill="#000000">mobile </text>
<text text-anchor="start" x="440.6122" y="-593.9" font-family="Arial" font-size="14.00" fill="#666666">[varchar(191)]</text>
<polygon fill="none" stroke="#000000" points="388.5,-552.5 388.5,-582.5 641.5,-582.5 641.5,-552.5 388.5,-552.5"/>
<text text-anchor="start" x="395.5" y="-563.9" font-family="Arial" font-size="14.00" fill="#000000">address1 </text>
<text text-anchor="start" x="456.9642" y="-563.9" font-family="Arial" font-size="14.00" fill="#666666">[varchar(191)]</text>
<polygon fill="none" stroke="#000000" points="388.5,-522.5 388.5,-552.5 641.5,-552.5 641.5,-522.5 388.5,-522.5"/>
<text text-anchor="start" x="395.5" y="-533.9" font-family="Arial" font-size="14.00" fill="#000000">address2 </text>
<text text-anchor="start" x="456.9642" y="-533.9" font-family="Arial" font-size="14.00" fill="#666666">[varchar(191)]</text>
<polygon fill="none" stroke="#000000" points="388.5,-492.5 388.5,-522.5 641.5,-522.5 641.5,-492.5 388.5,-492.5"/>
<text text-anchor="start" x="395.5" y="-503.9" font-family="Arial" font-size="14.00" fill="#000000">city </text>
<text text-anchor="start" x="420.3878" y="-503.9" font-family="Arial" font-size="14.00" fill="#666666">[varchar(191)]</text>
<polygon fill="none" stroke="#000000" points="388.5,-462.5 388.5,-492.5 641.5,-492.5 641.5,-462.5 388.5,-462.5"/>
<text text-anchor="start" x="395.5" y="-473.9" font-family="Arial" font-size="14.00" fill="#000000">state </text>
<text text-anchor="start" x="429.737" y="-473.9" font-family="Arial" font-size="14.00" fill="#666666">[varchar(191)]</text>
<polygon fill="none" stroke="#000000" points="388.5,-432.5 388.5,-462.5 641.5,-462.5 641.5,-432.5 388.5,-432.5"/>
<text text-anchor="start" x="395.5" y="-443.9" font-family="Arial" font-size="14.00" fill="#000000">zipcode </text>
<text text-anchor="start" x="447.6276" y="-443.9" font-family="Arial" font-size="14.00" fill="#666666">[varchar(191)]</text>
<polygon fill="none" stroke="#000000" points="388.5,-402.5 388.5,-432.5 641.5,-432.5 641.5,-402.5 388.5,-402.5"/>
<text text-anchor="start" x="395.5" y="-413.9" font-family="Arial" font-size="14.00" fill="#000000">timezone </text>
<text text-anchor="start" x="456.1788" y="-413.9" font-family="Arial" font-size="14.00" fill="#666666">[varchar(191)]</text>
<polygon fill="none" stroke="#000000" points="388.5,-372.5 388.5,-402.5 641.5,-402.5 641.5,-372.5 388.5,-372.5"/>
<text text-anchor="start" x="395.5" y="-383.9" font-family="Arial" font-size="14.00" fill="#000000">country </text>
<text text-anchor="start" x="445.2896" y="-383.9" font-family="Arial" font-size="14.00" fill="#666666">[varchar(191)]</text>
<polygon fill="none" stroke="#000000" points="388.5,-342.5 388.5,-372.5 641.5,-372.5 641.5,-342.5 388.5,-342.5"/>
<text text-anchor="start" x="395.5" y="-353.9" font-family="Arial" font-size="14.00" fill="#000000">fax </text>
<text text-anchor="start" x="418.0638" y="-353.9" font-family="Arial" font-size="14.00" fill="#666666">[varchar(255)]</text>
<polygon fill="none" stroke="#000000" points="388.5,-312.5 388.5,-342.5 641.5,-342.5 641.5,-312.5 388.5,-312.5"/>
<text text-anchor="start" x="395.5" y="-323.9" font-family="Arial" font-size="14.00" fill="#000000">preferred_locale </text>
<text text-anchor="start" x="500.5196" y="-323.9" font-family="Arial" font-size="14.00" fill="#666666">[varchar(255)]</text>
<polygon fill="none" stroke="#000000" points="388.5,-282.5 388.5,-312.5 641.5,-312.5 641.5,-282.5 388.5,-282.5"/>
<text text-anchor="start" x="395.5" y="-293.9" font-family="Arial" font-size="14.00" fill="#000000">attribution_date </text>
<text text-anchor="start" x="495.8702" y="-293.9" font-family="Arial" font-size="14.00" fill="#666666">[datetime]</text>
<polygon fill="none" stroke="#000000" points="388.5,-252.5 388.5,-282.5 641.5,-282.5 641.5,-252.5 388.5,-252.5"/>
<text text-anchor="start" x="395.5" y="-263.9" font-family="Arial" font-size="14.00" fill="#000000">attribution </text>
<text text-anchor="start" x="460.8492" y="-263.9" font-family="Arial" font-size="14.00" fill="#666666">[double]</text>
<polygon fill="none" stroke="#000000" points="388.5,-222.5 388.5,-252.5 641.5,-252.5 641.5,-222.5 388.5,-222.5"/>
<text text-anchor="start" x="395.5" y="-233.9" font-family="Arial" font-size="14.00" fill="#000000">website </text>
<text text-anchor="start" x="446.8422" y="-233.9" font-family="Arial" font-size="14.00" fill="#666666">[longtext]</text>
<polygon fill="none" stroke="#000000" points="388.5,-192.5 388.5,-222.5 641.5,-222.5 641.5,-192.5 388.5,-192.5"/>
<text text-anchor="start" x="395.5" y="-203.9" font-family="Arial" font-size="14.00" fill="#000000">facebook </text>
<text text-anchor="start" x="456.1942" y="-203.9" font-family="Arial" font-size="14.00" fill="#666666">[varchar(255)]</text>
<polygon fill="none" stroke="#000000" points="388.5,-162.5 388.5,-192.5 641.5,-192.5 641.5,-162.5 388.5,-162.5"/>
<text text-anchor="start" x="395.5" y="-173.9" font-family="Arial" font-size="14.00" fill="#000000">foursquare </text>
<text text-anchor="start" x="466.298" y="-173.9" font-family="Arial" font-size="14.00" fill="#666666">[varchar(255)]</text>
<polygon fill="none" stroke="#000000" points="388.5,-132.5 388.5,-162.5 641.5,-162.5 641.5,-132.5 388.5,-132.5"/>
<text text-anchor="start" x="395.5" y="-143.9" font-family="Arial" font-size="14.00" fill="#000000">instagram </text>
<text text-anchor="start" x="460.8394" y="-143.9" font-family="Arial" font-size="14.00" fill="#666666">[varchar(255)]</text>
<polygon fill="none" stroke="#000000" points="388.5,-102.5 388.5,-132.5 641.5,-132.5 641.5,-102.5 388.5,-102.5"/>
<text text-anchor="start" x="395.5" y="-113.9" font-family="Arial" font-size="14.00" fill="#000000">linkedin </text>
<text text-anchor="start" x="446.8408" y="-113.9" font-family="Arial" font-size="14.00" fill="#666666">[varchar(255)]</text>
<polygon fill="none" stroke="#000000" points="388.5,-72.5 388.5,-102.5 641.5,-102.5 641.5,-72.5 388.5,-72.5"/>
<text text-anchor="start" x="395.5" y="-83.9" font-family="Arial" font-size="14.00" fill="#000000">skype </text>
<text text-anchor="start" x="435.9558" y="-83.9" font-family="Arial" font-size="14.00" fill="#666666">[varchar(255)]</text>
<polygon fill="none" stroke="#000000" points="388.5,-42.5 388.5,-72.5 641.5,-72.5 641.5,-42.5 388.5,-42.5"/>
<text text-anchor="start" x="395.5" y="-53.9" font-family="Arial" font-size="14.00" fill="#000000">twitter </text>
<text text-anchor="start" x="436.7188" y="-53.9" font-family="Arial" font-size="14.00" fill="#666666">[varchar(255)]</text>
</g>
<!-- point_lead_action_log&#45;&gt;leads -->
<g id="edge2" class="edge">
<title>point_lead_action_log:lead_id&#45;&gt;leads:id</title>
<path fill="none" stroke="#000000" d="M362.5066,-1626.4141C321.524,-1616.722 339.6424,-1544.5479 372.5,-1507 451.9342,-1416.227 562.0658,-1561.773 641.5,-1471 668.8661,-1439.7276 683.0556,-1377.5 641.5,-1377.5"/>
<polygon fill="#000000" stroke="#000000" points="362.5585,-1626.4196 372.0138,-1631.9737 367.5293,-1626.9598 372.5,-1627.5 372.5,-1627.5 372.5,-1627.5 367.5293,-1626.9598 372.9862,-1623.0263 362.5585,-1626.4196 362.5585,-1626.4196"/>
<text text-anchor="start" x="140.996" y="-1637.5" font-family="Arial" font-size="10.00" fill="#000000">FOREIGN KEY (lead_id) REFERENCES leads (id)</text>
</g>
<!-- ip_addresses -->
<g id="node4" class="node">
<title>ip_addresses</title>
<polygon fill="#efefef" stroke="transparent" points="745.5,-762.5 745.5,-797.5 963.5,-797.5 963.5,-762.5 745.5,-762.5"/>
<polygon fill="none" stroke="#000000" points="745.5,-762.5 745.5,-797.5 963.5,-797.5 963.5,-762.5 745.5,-762.5"/>
<text text-anchor="start" x="752.3582" y="-775.3" font-family="Arial Bold" font-size="18.00" fill="#000000">ip_addresses</text>
<text text-anchor="start" x="859.388" y="-775.3" font-family="Arial" font-size="14.00" fill="#000000"> </text>
<text text-anchor="start" x="863.2786" y="-775.3" font-family="Arial" font-size="14.00" fill="#666666">[BASE TABLE]</text>
<polygon fill="none" stroke="#000000" points="745.5,-732.5 745.5,-762.5 963.5,-762.5 963.5,-732.5 745.5,-732.5"/>
<text text-anchor="start" x="752.5" y="-743.9" font-family="Arial" font-size="14.00" fill="#000000">id </text>
<text text-anchor="start" x="767.2798" y="-743.9" font-family="Arial" font-size="14.00" fill="#666666">[int(10) unsigned]</text>
<polygon fill="none" stroke="#000000" points="745.5,-702.5 745.5,-732.5 963.5,-732.5 963.5,-702.5 745.5,-702.5"/>
<text text-anchor="start" x="752.5" y="-713.9" font-family="Arial" font-size="14.00" fill="#000000">ip_address </text>
<text text-anchor="start" x="824.8534" y="-713.9" font-family="Arial" font-size="14.00" fill="#666666">[varchar(45)]</text>
<polygon fill="none" stroke="#000000" points="745.5,-672.5 745.5,-702.5 963.5,-702.5 963.5,-672.5 745.5,-672.5"/>
<text text-anchor="start" x="752.5" y="-683.9" font-family="Arial" font-size="14.00" fill="#000000">ip_details </text>
<text text-anchor="start" x="815.514" y="-683.9" font-family="Arial" font-size="14.00" fill="#666666">[longtext]</text>
</g>
<!-- point_lead_action_log&#45;&gt;ip_addresses -->
<g id="edge3" class="edge">
<title>point_lead_action_log:ip_id&#45;&gt;ip_addresses:id</title>
<path fill="none" stroke="#000000" d="M668.2722,-1594.0753C746.075,-1535.5846 654.0852,-747.5 745.5,-747.5"/>
<polygon fill="#000000" stroke="#000000" points="667.9372,-1594.1926 657.0117,-1593.2532 663.2186,-1595.8463 658.5,-1597.5 658.5,-1597.5 658.5,-1597.5 663.2186,-1595.8463 659.9883,-1601.7468 667.9372,-1594.1926 667.9372,-1594.1926"/>
<text text-anchor="start" x="665.7725" y="-1607.5" font-family="Arial" font-size="10.00" fill="#000000">FOREIGN KEY (ip_id) REFERENCES ip_addresses (id)</text>
</g>
</g>
</svg>
