<?xml version="1.0" encoding="UTF-8" standalone="no"?>
<!DOCTYPE svg PUBLIC "-//W3C//DTD SVG 1.1//EN"
 "http://www.w3.org/Graphics/SVG/1.1/DTD/svg11.dtd">
<!-- Generated by graphviz version 2.40.1 (20161225.0304)
 -->
<!-- Title: push_notification_list_xref Pages: 1 -->
<svg width="919pt" height="1162pt"
 viewBox="0.00 0.00 919.00 1162.00" xmlns="http://www.w3.org/2000/svg" xmlns:xlink="http://www.w3.org/1999/xlink">
<g id="graph0" class="graph" transform="scale(1 1) rotate(0) translate(4 1158)">
<title>push_notification_list_xref</title>
<polygon fill="#ffffff" stroke="transparent" points="-4,4 -4,-1158 915,-1158 915,4 -4,4"/>
<!-- push_notification_list_xref -->
<g id="node1" class="node">
<title>push_notification_list_xref</title>
<polygon fill="#efefef" stroke="transparent" points="324,-1072.5 324,-1107.5 642,-1107.5 642,-1072.5 324,-1072.5"/>
<polygon fill="none" stroke="#000000" points="324,-1072.5 324,-1107.5 642,-1107.5 642,-1072.5 324,-1072.5"/>
<text text-anchor="start" x="330.8488" y="-1085.3" font-family="Arial Bold" font-size="18.00" fill="#000000">push_notification_list_xref</text>
<text text-anchor="start" x="537.8974" y="-1085.3" font-family="Arial" font-size="14.00" fill="#000000"> </text>
<text text-anchor="start" x="541.788" y="-1085.3" font-family="Arial" font-size="14.00" fill="#666666">[BASE TABLE]</text>
<polygon fill="none" stroke="#000000" points="324,-1042.5 324,-1072.5 642,-1072.5 642,-1042.5 324,-1042.5"/>
<text text-anchor="start" x="331" y="-1053.9" font-family="Arial" font-size="14.00" fill="#000000">notification_id </text>
<text text-anchor="start" x="420.467" y="-1053.9" font-family="Arial" font-size="14.00" fill="#666666">[int(10) unsigned]</text>
<polygon fill="none" stroke="#000000" points="324,-1012.5 324,-1042.5 642,-1042.5 642,-1012.5 324,-1012.5"/>
<text text-anchor="start" x="331" y="-1023.9" font-family="Arial" font-size="14.00" fill="#000000">leadlist_id </text>
<text text-anchor="start" x="397.1206" y="-1023.9" font-family="Arial" font-size="14.00" fill="#666666">[int(10) unsigned]</text>
<polygon fill="none" stroke="#000000" stroke-width="3" points="322.5,-1011.5 322.5,-1109.5 643.5,-1109.5 643.5,-1011.5 322.5,-1011.5"/>
</g>
<!-- push_notifications -->
<g id="node2" class="node">
<title>push_notifications</title>
<polygon fill="#efefef" stroke="transparent" points="179,-852.5 179,-887.5 434,-887.5 434,-852.5 179,-852.5"/>
<polygon fill="none" stroke="#000000" points="179,-852.5 179,-887.5 434,-887.5 434,-852.5 179,-852.5"/>
<text text-anchor="start" x="185.8506" y="-865.3" font-family="Arial Bold" font-size="18.00" fill="#000000">push_notifications</text>
<text text-anchor="start" x="329.8956" y="-865.3" font-family="Arial" font-size="14.00" fill="#000000"> </text>
<text text-anchor="start" x="333.7862" y="-865.3" font-family="Arial" font-size="14.00" fill="#666666">[BASE TABLE]</text>
<polygon fill="none" stroke="#000000" points="179,-822.5 179,-852.5 434,-852.5 434,-822.5 179,-822.5"/>
<text text-anchor="start" x="186" y="-833.9" font-family="Arial" font-size="14.00" fill="#000000">id </text>
<text text-anchor="start" x="200.7798" y="-833.9" font-family="Arial" font-size="14.00" fill="#666666">[int(10) unsigned]</text>
<polygon fill="none" stroke="#000000" points="179,-792.5 179,-822.5 434,-822.5 434,-792.5 179,-792.5"/>
<text text-anchor="start" x="186" y="-803.9" font-family="Arial" font-size="14.00" fill="#000000">category_id </text>
<text text-anchor="start" x="262.244" y="-803.9" font-family="Arial" font-size="14.00" fill="#666666">[int(10) unsigned]</text>
<polygon fill="none" stroke="#000000" points="179,-762.5 179,-792.5 434,-792.5 434,-762.5 179,-762.5"/>
<text text-anchor="start" x="186" y="-773.9" font-family="Arial" font-size="14.00" fill="#000000">is_published </text>
<text text-anchor="start" x="267.6886" y="-773.9" font-family="Arial" font-size="14.00" fill="#666666">[tinyint(1)]</text>
<polygon fill="none" stroke="#000000" points="179,-732.5 179,-762.5 434,-762.5 434,-732.5 179,-732.5"/>
<text text-anchor="start" x="186" y="-743.9" font-family="Arial" font-size="14.00" fill="#000000">date_added </text>
<text text-anchor="start" x="263.8246" y="-743.9" font-family="Arial" font-size="14.00" fill="#666666">[datetime]</text>
<polygon fill="none" stroke="#000000" points="179,-702.5 179,-732.5 434,-732.5 434,-702.5 179,-702.5"/>
<text text-anchor="start" x="186" y="-713.9" font-family="Arial" font-size="14.00" fill="#000000">created_by </text>
<text text-anchor="start" x="259.1374" y="-713.9" font-family="Arial" font-size="14.00" fill="#666666">[int(11)]</text>
<polygon fill="none" stroke="#000000" points="179,-672.5 179,-702.5 434,-702.5 434,-672.5 179,-672.5"/>
<text text-anchor="start" x="186" y="-683.9" font-family="Arial" font-size="14.00" fill="#000000">created_by_user </text>
<text text-anchor="start" x="294.1458" y="-683.9" font-family="Arial" font-size="14.00" fill="#666666">[varchar(191)]</text>
<polygon fill="none" stroke="#000000" points="179,-642.5 179,-672.5 434,-672.5 434,-642.5 179,-642.5"/>
<text text-anchor="start" x="186" y="-653.9" font-family="Arial" font-size="14.00" fill="#000000">date_modified </text>
<text text-anchor="start" x="277.8064" y="-653.9" font-family="Arial" font-size="14.00" fill="#666666">[datetime]</text>
<polygon fill="none" stroke="#000000" points="179,-612.5 179,-642.5 434,-642.5 434,-612.5 179,-612.5"/>
<text text-anchor="start" x="186" y="-623.9" font-family="Arial" font-size="14.00" fill="#000000">modified_by </text>
<text text-anchor="start" x="265.3506" y="-623.9" font-family="Arial" font-size="14.00" fill="#666666">[int(11)]</text>
<polygon fill="none" stroke="#000000" points="179,-582.5 179,-612.5 434,-612.5 434,-582.5 179,-582.5"/>
<text text-anchor="start" x="186" y="-593.9" font-family="Arial" font-size="14.00" fill="#000000">modified_by_user </text>
<text text-anchor="start" x="300.359" y="-593.9" font-family="Arial" font-size="14.00" fill="#666666">[varchar(191)]</text>
<polygon fill="none" stroke="#000000" points="179,-552.5 179,-582.5 434,-582.5 434,-552.5 179,-552.5"/>
<text text-anchor="start" x="186" y="-563.9" font-family="Arial" font-size="14.00" fill="#000000">checked_out </text>
<text text-anchor="start" x="269.2594" y="-563.9" font-family="Arial" font-size="14.00" fill="#666666">[datetime]</text>
<polygon fill="none" stroke="#000000" points="179,-522.5 179,-552.5 434,-552.5 434,-522.5 179,-522.5"/>
<text text-anchor="start" x="186" y="-533.9" font-family="Arial" font-size="14.00" fill="#000000">checked_out_by </text>
<text text-anchor="start" x="291.8246" y="-533.9" font-family="Arial" font-size="14.00" fill="#666666">[int(11)]</text>
<polygon fill="none" stroke="#000000" points="179,-492.5 179,-522.5 434,-522.5 434,-492.5 179,-492.5"/>
<text text-anchor="start" x="186" y="-503.9" font-family="Arial" font-size="14.00" fill="#000000">checked_out_by_user </text>
<text text-anchor="start" x="326.833" y="-503.9" font-family="Arial" font-size="14.00" fill="#666666">[varchar(191)]</text>
<polygon fill="none" stroke="#000000" points="179,-462.5 179,-492.5 434,-492.5 434,-462.5 179,-462.5"/>
<text text-anchor="start" x="186" y="-473.9" font-family="Arial" font-size="14.00" fill="#000000">name </text>
<text text-anchor="start" x="224.899" y="-473.9" font-family="Arial" font-size="14.00" fill="#666666">[varchar(191)]</text>
<polygon fill="none" stroke="#000000" points="179,-432.5 179,-462.5 434,-462.5 434,-432.5 179,-432.5"/>
<text text-anchor="start" x="186" y="-443.9" font-family="Arial" font-size="14.00" fill="#000000">description </text>
<text text-anchor="start" x="257.568" y="-443.9" font-family="Arial" font-size="14.00" fill="#666666">[longtext]</text>
<polygon fill="none" stroke="#000000" points="179,-402.5 179,-432.5 434,-432.5 434,-402.5 179,-402.5"/>
<text text-anchor="start" x="186" y="-413.9" font-family="Arial" font-size="14.00" fill="#000000">lang </text>
<text text-anchor="start" x="216.345" y="-413.9" font-family="Arial" font-size="14.00" fill="#666666">[varchar(191)]</text>
<polygon fill="none" stroke="#000000" points="179,-372.5 179,-402.5 434,-402.5 434,-372.5 179,-372.5"/>
<text text-anchor="start" x="186" y="-383.9" font-family="Arial" font-size="14.00" fill="#000000">url </text>
<text text-anchor="start" x="205.4404" y="-383.9" font-family="Arial" font-size="14.00" fill="#666666">[longtext]</text>
<polygon fill="none" stroke="#000000" points="179,-342.5 179,-372.5 434,-372.5 434,-342.5 179,-342.5"/>
<text text-anchor="start" x="186" y="-353.9" font-family="Arial" font-size="14.00" fill="#000000">heading </text>
<text text-anchor="start" x="239.6928" y="-353.9" font-family="Arial" font-size="14.00" fill="#666666">[longtext]</text>
<polygon fill="none" stroke="#000000" points="179,-312.5 179,-342.5 434,-342.5 434,-312.5 179,-312.5"/>
<text text-anchor="start" x="186" y="-323.9" font-family="Arial" font-size="14.00" fill="#000000">message </text>
<text text-anchor="start" x="246.6816" y="-323.9" font-family="Arial" font-size="14.00" fill="#666666">[longtext]</text>
<polygon fill="none" stroke="#000000" points="179,-282.5 179,-312.5 434,-312.5 434,-282.5 179,-282.5"/>
<text text-anchor="start" x="186" y="-293.9" font-family="Arial" font-size="14.00" fill="#000000">button </text>
<text text-anchor="start" x="228.8022" y="-293.9" font-family="Arial" font-size="14.00" fill="#666666">[longtext]</text>
<polygon fill="none" stroke="#000000" points="179,-252.5 179,-282.5 434,-282.5 434,-252.5 179,-252.5"/>
<text text-anchor="start" x="186" y="-263.9" font-family="Arial" font-size="14.00" fill="#000000">utm_tags </text>
<text text-anchor="start" x="247.4628" y="-263.9" font-family="Arial" font-size="14.00" fill="#666666">[longtext]</text>
<polygon fill="none" stroke="#000000" points="179,-222.5 179,-252.5 434,-252.5 434,-222.5 179,-222.5"/>
<text text-anchor="start" x="186" y="-233.9" font-family="Arial" font-size="14.00" fill="#000000">notification_type </text>
<text text-anchor="start" x="291.0336" y="-233.9" font-family="Arial" font-size="14.00" fill="#666666">[longtext]</text>
<polygon fill="none" stroke="#000000" points="179,-192.5 179,-222.5 434,-222.5 434,-192.5 179,-192.5"/>
<text text-anchor="start" x="186" y="-203.9" font-family="Arial" font-size="14.00" fill="#000000">publish_up </text>
<text text-anchor="start" x="257.582" y="-203.9" font-family="Arial" font-size="14.00" fill="#666666">[datetime]</text>
<polygon fill="none" stroke="#000000" points="179,-162.5 179,-192.5 434,-192.5 434,-162.5 179,-162.5"/>
<text text-anchor="start" x="186" y="-173.9" font-family="Arial" font-size="14.00" fill="#000000">publish_down </text>
<text text-anchor="start" x="275.4712" y="-173.9" font-family="Arial" font-size="14.00" fill="#666666">[datetime]</text>
<polygon fill="none" stroke="#000000" points="179,-132.5 179,-162.5 434,-162.5 434,-132.5 179,-132.5"/>
<text text-anchor="start" x="186" y="-143.9" font-family="Arial" font-size="14.00" fill="#000000">read_count </text>
<text text-anchor="start" x="259.92" y="-143.9" font-family="Arial" font-size="14.00" fill="#666666">[int(11)]</text>
<polygon fill="none" stroke="#000000" points="179,-102.5 179,-132.5 434,-132.5 434,-102.5 179,-102.5"/>
<text text-anchor="start" x="186" y="-113.9" font-family="Arial" font-size="14.00" fill="#000000">sent_count </text>
<text text-anchor="start" x="258.3674" y="-113.9" font-family="Arial" font-size="14.00" fill="#666666">[int(11)]</text>
<polygon fill="none" stroke="#000000" points="179,-72.5 179,-102.5 434,-102.5 434,-72.5 179,-72.5"/>
<text text-anchor="start" x="186" y="-83.9" font-family="Arial" font-size="14.00" fill="#000000">mobile </text>
<text text-anchor="start" x="231.1122" y="-83.9" font-family="Arial" font-size="14.00" fill="#666666">[tinyint(1)]</text>
<polygon fill="none" stroke="#000000" points="179,-42.5 179,-72.5 434,-72.5 434,-42.5 179,-42.5"/>
<text text-anchor="start" x="186" y="-53.9" font-family="Arial" font-size="14.00" fill="#000000">mobileSettings </text>
<text text-anchor="start" x="281.6844" y="-53.9" font-family="Arial" font-size="14.00" fill="#666666">[longtext]</text>
</g>
<!-- push_notification_list_xref&#45;&gt;push_notifications -->
<g id="edge1" class="edge">
<title>push_notification_list_xref:notification_id&#45;&gt;push_notifications:id</title>
<path fill="none" stroke="#000000" d="M313.7958,-1055.9201C287.0895,-1046.4266 302.698,-996.3854 324,-967 354.1917,-925.3516 403.8083,-972.6484 434,-931 458.39,-897.3549 475.5556,-837.5 434,-837.5"/>
<polygon fill="#000000" stroke="#000000" points="314.1178,-1055.9698 323.3114,-1061.947 319.0589,-1056.7349 324,-1057.5 324,-1057.5 324,-1057.5 319.0589,-1056.7349 324.6886,-1053.053 314.1178,-1055.9698 314.1178,-1055.9698"/>
<text text-anchor="start" x="6.985" y="-1067.5" font-family="Arial" font-size="10.00" fill="#000000">FOREIGN KEY (notification_id) REFERENCES push_notifications (id)</text>
</g>
<!-- lead_lists -->
<g id="node3" class="node">
<title>lead_lists</title>
<polygon fill="#efefef" stroke="transparent" points="538,-732.5 538,-767.5 779,-767.5 779,-732.5 538,-732.5"/>
<polygon fill="none" stroke="#000000" points="538,-732.5 538,-767.5 779,-767.5 779,-732.5 538,-732.5"/>
<text text-anchor="start" x="572.3683" y="-745.3" font-family="Arial Bold" font-size="18.00" fill="#000000">lead_lists</text>
<text text-anchor="start" x="647.3779" y="-745.3" font-family="Arial" font-size="14.00" fill="#000000"> </text>
<text text-anchor="start" x="651.2685" y="-745.3" font-family="Arial" font-size="14.00" fill="#666666">[BASE TABLE]</text>
<polygon fill="none" stroke="#000000" points="538,-702.5 538,-732.5 779,-732.5 779,-702.5 538,-702.5"/>
<text text-anchor="start" x="545" y="-713.9" font-family="Arial" font-size="14.00" fill="#000000">id </text>
<text text-anchor="start" x="559.7798" y="-713.9" font-family="Arial" font-size="14.00" fill="#666666">[int(10) unsigned]</text>
<polygon fill="none" stroke="#000000" points="538,-672.5 538,-702.5 779,-702.5 779,-672.5 538,-672.5"/>
<text text-anchor="start" x="545" y="-683.9" font-family="Arial" font-size="14.00" fill="#000000">category_id </text>
<text text-anchor="start" x="621.244" y="-683.9" font-family="Arial" font-size="14.00" fill="#666666">[int(10) unsigned]</text>
<polygon fill="none" stroke="#000000" points="538,-642.5 538,-672.5 779,-672.5 779,-642.5 538,-642.5"/>
<text text-anchor="start" x="545" y="-653.9" font-family="Arial" font-size="14.00" fill="#000000">is_published </text>
<text text-anchor="start" x="626.6886" y="-653.9" font-family="Arial" font-size="14.00" fill="#666666">[tinyint(1)]</text>
<polygon fill="none" stroke="#000000" points="538,-612.5 538,-642.5 779,-642.5 779,-612.5 538,-612.5"/>
<text text-anchor="start" x="545" y="-623.9" font-family="Arial" font-size="14.00" fill="#000000">date_added </text>
<text text-anchor="start" x="622.8246" y="-623.9" font-family="Arial" font-size="14.00" fill="#666666">[datetime]</text>
<polygon fill="none" stroke="#000000" points="538,-582.5 538,-612.5 779,-612.5 779,-582.5 538,-582.5"/>
<text text-anchor="start" x="545" y="-593.9" font-family="Arial" font-size="14.00" fill="#000000">created_by </text>
<text text-anchor="start" x="618.1374" y="-593.9" font-family="Arial" font-size="14.00" fill="#666666">[int(11)]</text>
<polygon fill="none" stroke="#000000" points="538,-552.5 538,-582.5 779,-582.5 779,-552.5 538,-552.5"/>
<text text-anchor="start" x="545" y="-563.9" font-family="Arial" font-size="14.00" fill="#000000">created_by_user </text>
<text text-anchor="start" x="653.1458" y="-563.9" font-family="Arial" font-size="14.00" fill="#666666">[varchar(191)]</text>
<polygon fill="none" stroke="#000000" points="538,-522.5 538,-552.5 779,-552.5 779,-522.5 538,-522.5"/>
<text text-anchor="start" x="545" y="-533.9" font-family="Arial" font-size="14.00" fill="#000000">date_modified </text>
<text text-anchor="start" x="636.8064" y="-533.9" font-family="Arial" font-size="14.00" fill="#666666">[datetime]</text>
<polygon fill="none" stroke="#000000" points="538,-492.5 538,-522.5 779,-522.5 779,-492.5 538,-492.5"/>
<text text-anchor="start" x="545" y="-503.9" font-family="Arial" font-size="14.00" fill="#000000">modified_by </text>
<text text-anchor="start" x="624.3506" y="-503.9" font-family="Arial" font-size="14.00" fill="#666666">[int(11)]</text>
<polygon fill="none" stroke="#000000" points="538,-462.5 538,-492.5 779,-492.5 779,-462.5 538,-462.5"/>
<text text-anchor="start" x="545" y="-473.9" font-family="Arial" font-size="14.00" fill="#000000">modified_by_user </text>
<text text-anchor="start" x="659.359" y="-473.9" font-family="Arial" font-size="14.00" fill="#666666">[varchar(191)]</text>
<polygon fill="none" stroke="#000000" points="538,-432.5 538,-462.5 779,-462.5 779,-432.5 538,-432.5"/>
<text text-anchor="start" x="545" y="-443.9" font-family="Arial" font-size="14.00" fill="#000000">checked_out </text>
<text text-anchor="start" x="628.2594" y="-443.9" font-family="Arial" font-size="14.00" fill="#666666">[datetime]</text>
<polygon fill="none" stroke="#000000" points="538,-402.5 538,-432.5 779,-432.5 779,-402.5 538,-402.5"/>
<text text-anchor="start" x="545" y="-413.9" font-family="Arial" font-size="14.00" fill="#000000">checked_out_by </text>
<text text-anchor="start" x="650.8246" y="-413.9" font-family="Arial" font-size="14.00" fill="#666666">[int(11)]</text>
<polygon fill="none" stroke="#000000" points="538,-372.5 538,-402.5 779,-402.5 779,-372.5 538,-372.5"/>
<text text-anchor="start" x="544.5239" y="-383.9" font-family="Arial" font-size="14.00" fill="#000000">checked_out_by_user </text>
<text text-anchor="start" x="685.3569" y="-383.9" font-family="Arial" font-size="14.00" fill="#666666">[varchar(191)]</text>
<polygon fill="none" stroke="#000000" points="538,-342.5 538,-372.5 779,-372.5 779,-342.5 538,-342.5"/>
<text text-anchor="start" x="545" y="-353.9" font-family="Arial" font-size="14.00" fill="#000000">name </text>
<text text-anchor="start" x="583.899" y="-353.9" font-family="Arial" font-size="14.00" fill="#666666">[varchar(191)]</text>
<polygon fill="none" stroke="#000000" points="538,-312.5 538,-342.5 779,-342.5 779,-312.5 538,-312.5"/>
<text text-anchor="start" x="545" y="-323.9" font-family="Arial" font-size="14.00" fill="#000000">description </text>
<text text-anchor="start" x="616.568" y="-323.9" font-family="Arial" font-size="14.00" fill="#666666">[longtext]</text>
<polygon fill="none" stroke="#000000" points="538,-282.5 538,-312.5 779,-312.5 779,-282.5 538,-282.5"/>
<text text-anchor="start" x="545" y="-293.9" font-family="Arial" font-size="14.00" fill="#000000">alias </text>
<text text-anchor="start" x="577.669" y="-293.9" font-family="Arial" font-size="14.00" fill="#666666">[varchar(191)]</text>
<polygon fill="none" stroke="#000000" points="538,-252.5 538,-282.5 779,-282.5 779,-252.5 538,-252.5"/>
<text text-anchor="start" x="545" y="-263.9" font-family="Arial" font-size="14.00" fill="#000000">public_name </text>
<text text-anchor="start" x="628.2426" y="-263.9" font-family="Arial" font-size="14.00" fill="#666666">[varchar(191)]</text>
<polygon fill="none" stroke="#000000" points="538,-222.5 538,-252.5 779,-252.5 779,-222.5 538,-222.5"/>
<text text-anchor="start" x="545" y="-233.9" font-family="Arial" font-size="14.00" fill="#000000">filters </text>
<text text-anchor="start" x="582.3282" y="-233.9" font-family="Arial" font-size="14.00" fill="#666666">[longtext]</text>
<polygon fill="none" stroke="#000000" points="538,-192.5 538,-222.5 779,-222.5 779,-192.5 538,-192.5"/>
<text text-anchor="start" x="545" y="-203.9" font-family="Arial" font-size="14.00" fill="#000000">is_global </text>
<text text-anchor="start" x="604.1234" y="-203.9" font-family="Arial" font-size="14.00" fill="#666666">[tinyint(1)]</text>
<polygon fill="none" stroke="#000000" points="538,-162.5 538,-192.5 779,-192.5 779,-162.5 538,-162.5"/>
<text text-anchor="start" x="545" y="-173.9" font-family="Arial" font-size="14.00" fill="#000000">is_preference_center </text>
<text text-anchor="start" x="680.3688" y="-173.9" font-family="Arial" font-size="14.00" fill="#666666">[tinyint(1)]</text>
</g>
<!-- push_notification_list_xref&#45;&gt;lead_lists -->
<g id="edge2" class="edge">
<title>push_notification_list_xref:leadlist_id&#45;&gt;lead_lists:id</title>
<path fill="none" stroke="#000000" d="M651.774,-1024.8862C662.927,-1016.3358 648.5136,-988.513 642,-967 617.8528,-887.2472 562.1472,-890.7528 538,-811 525.9579,-771.2275 496.4444,-717.5 538,-717.5"/>
<polygon fill="#000000" stroke="#000000" points="651.6605,-1024.9164 640.8374,-1023.1528 646.8303,-1026.2082 642,-1027.5 642,-1027.5 642,-1027.5 646.8303,-1026.2082 643.1626,-1031.8472 651.6605,-1024.9164 651.6605,-1024.9164"/>
<text text-anchor="start" x="649.4995" y="-1037.5" font-family="Arial" font-size="10.00" fill="#000000">FOREIGN KEY (leadlist_id) REFERENCES lead_lists (id)</text>
</g>
</g>
</svg>
