<?xml version="1.0" encoding="UTF-8" standalone="no"?>
<!DOCTYPE svg PUBLIC "-//W3C//DTD SVG 1.1//EN"
 "http://www.w3.org/Graphics/SVG/1.1/DTD/svg11.dtd">
<!-- Generated by graphviz version 2.40.1 (20161225.0304)
 -->
<!-- Title: push_ids Pages: 1 -->
<svg width="511pt" height="1792pt"
 viewBox="0.00 0.00 510.50 1792.00" xmlns="http://www.w3.org/2000/svg" xmlns:xlink="http://www.w3.org/1999/xlink">
<g id="graph0" class="graph" transform="scale(1 1) rotate(0) translate(4 1788)">
<title>push_ids</title>
<polygon fill="#ffffff" stroke="transparent" points="-4,4 -4,-1788 506.5,-1788 506.5,4 -4,4"/>
<!-- push_ids -->
<g id="node1" class="node">
<title>push_ids</title>
<polygon fill="#efefef" stroke="transparent" points="239,-1702.5 239,-1737.5 428,-1737.5 428,-1702.5 239,-1702.5"/>
<polygon fill="none" stroke="#000000" points="239,-1702.5 239,-1737.5 428,-1737.5 428,-1702.5 239,-1702.5"/>
<text text-anchor="start" x="248.8605" y="-1715.3" font-family="Arial Bold" font-size="18.00" fill="#000000">push_ids</text>
<text text-anchor="start" x="320.8857" y="-1715.3" font-family="Arial" font-size="14.00" fill="#000000"> </text>
<text text-anchor="start" x="324.7763" y="-1715.3" font-family="Arial" font-size="14.00" fill="#666666">[BASE TABLE]</text>
<polygon fill="none" stroke="#000000" points="239,-1672.5 239,-1702.5 428,-1702.5 428,-1672.5 239,-1672.5"/>
<text text-anchor="start" x="246" y="-1683.9" font-family="Arial" font-size="14.00" fill="#000000">id </text>
<text text-anchor="start" x="260.7798" y="-1683.9" font-family="Arial" font-size="14.00" fill="#666666">[int(11)]</text>
<polygon fill="none" stroke="#000000" points="239,-1642.5 239,-1672.5 428,-1672.5 428,-1642.5 239,-1642.5"/>
<text text-anchor="start" x="245.5856" y="-1653.9" font-family="Arial" font-size="14.00" fill="#000000">lead_id </text>
<text text-anchor="start" x="294.6024" y="-1653.9" font-family="Arial" font-size="14.00" fill="#666666">[bigint(20) unsigned]</text>
<polygon fill="none" stroke="#000000" points="239,-1612.5 239,-1642.5 428,-1642.5 428,-1612.5 239,-1612.5"/>
<text text-anchor="start" x="246" y="-1623.9" font-family="Arial" font-size="14.00" fill="#000000">push_id </text>
<text text-anchor="start" x="298.9102" y="-1623.9" font-family="Arial" font-size="14.00" fill="#666666">[varchar(191)]</text>
<polygon fill="none" stroke="#000000" points="239,-1582.5 239,-1612.5 428,-1612.5 428,-1582.5 239,-1582.5"/>
<text text-anchor="start" x="246" y="-1593.9" font-family="Arial" font-size="14.00" fill="#000000">enabled </text>
<text text-anchor="start" x="299.6928" y="-1593.9" font-family="Arial" font-size="14.00" fill="#666666">[tinyint(1)]</text>
<polygon fill="none" stroke="#000000" points="239,-1552.5 239,-1582.5 428,-1582.5 428,-1552.5 239,-1552.5"/>
<text text-anchor="start" x="246" y="-1563.9" font-family="Arial" font-size="14.00" fill="#000000">mobile </text>
<text text-anchor="start" x="291.1122" y="-1563.9" font-family="Arial" font-size="14.00" fill="#666666">[tinyint(1)]</text>
<polygon fill="none" stroke="#000000" stroke-width="3" points="237,-1551.5 237,-1739.5 429,-1739.5 429,-1551.5 237,-1551.5"/>
</g>
<!-- leads -->
<g id="node2" class="node">
<title>leads</title>
<polygon fill="#efefef" stroke="transparent" points="207,-1392.5 207,-1427.5 460,-1427.5 460,-1392.5 207,-1392.5"/>
<polygon fill="none" stroke="#000000" points="207,-1392.5 207,-1427.5 460,-1427.5 460,-1392.5 207,-1392.5"/>
<text text-anchor="start" x="263.3667" y="-1405.3" font-family="Arial Bold" font-size="18.00" fill="#000000">leads</text>
<text text-anchor="start" x="306.3795" y="-1405.3" font-family="Arial" font-size="14.00" fill="#000000"> </text>
<text text-anchor="start" x="310.2701" y="-1405.3" font-family="Arial" font-size="14.00" fill="#666666">[BASE TABLE]</text>
<polygon fill="none" stroke="#000000" points="207,-1362.5 207,-1392.5 460,-1392.5 460,-1362.5 207,-1362.5"/>
<text text-anchor="start" x="214" y="-1373.9" font-family="Arial" font-size="14.00" fill="#000000">id </text>
<text text-anchor="start" x="228.7798" y="-1373.9" font-family="Arial" font-size="14.00" fill="#666666">[bigint(20) unsigned]</text>
<polygon fill="none" stroke="#000000" points="207,-1332.5 207,-1362.5 460,-1362.5 460,-1332.5 207,-1332.5"/>
<text text-anchor="start" x="214" y="-1343.9" font-family="Arial" font-size="14.00" fill="#000000">owner_id </text>
<text text-anchor="start" x="274.6774" y="-1343.9" font-family="Arial" font-size="14.00" fill="#666666">[int(10) unsigned]</text>
<polygon fill="none" stroke="#000000" points="207,-1302.5 207,-1332.5 460,-1332.5 460,-1302.5 207,-1302.5"/>
<text text-anchor="start" x="214" y="-1313.9" font-family="Arial" font-size="14.00" fill="#000000">stage_id </text>
<text text-anchor="start" x="270.8008" y="-1313.9" font-family="Arial" font-size="14.00" fill="#666666">[int(10) unsigned]</text>
<polygon fill="none" stroke="#000000" points="207,-1272.5 207,-1302.5 460,-1302.5 460,-1272.5 207,-1272.5"/>
<text text-anchor="start" x="214" y="-1283.9" font-family="Arial" font-size="14.00" fill="#000000">is_published </text>
<text text-anchor="start" x="295.6886" y="-1283.9" font-family="Arial" font-size="14.00" fill="#666666">[tinyint(1)]</text>
<polygon fill="none" stroke="#000000" points="207,-1242.5 207,-1272.5 460,-1272.5 460,-1242.5 207,-1242.5"/>
<text text-anchor="start" x="214" y="-1253.9" font-family="Arial" font-size="14.00" fill="#000000">date_added </text>
<text text-anchor="start" x="291.8246" y="-1253.9" font-family="Arial" font-size="14.00" fill="#666666">[datetime]</text>
<polygon fill="none" stroke="#000000" points="207,-1212.5 207,-1242.5 460,-1242.5 460,-1212.5 207,-1212.5"/>
<text text-anchor="start" x="214" y="-1223.9" font-family="Arial" font-size="14.00" fill="#000000">created_by </text>
<text text-anchor="start" x="287.1374" y="-1223.9" font-family="Arial" font-size="14.00" fill="#666666">[int(11)]</text>
<polygon fill="none" stroke="#000000" points="207,-1182.5 207,-1212.5 460,-1212.5 460,-1182.5 207,-1182.5"/>
<text text-anchor="start" x="214" y="-1193.9" font-family="Arial" font-size="14.00" fill="#000000">created_by_user </text>
<text text-anchor="start" x="322.1458" y="-1193.9" font-family="Arial" font-size="14.00" fill="#666666">[varchar(191)]</text>
<polygon fill="none" stroke="#000000" points="207,-1152.5 207,-1182.5 460,-1182.5 460,-1152.5 207,-1152.5"/>
<text text-anchor="start" x="214" y="-1163.9" font-family="Arial" font-size="14.00" fill="#000000">date_modified </text>
<text text-anchor="start" x="305.8064" y="-1163.9" font-family="Arial" font-size="14.00" fill="#666666">[datetime]</text>
<polygon fill="none" stroke="#000000" points="207,-1122.5 207,-1152.5 460,-1152.5 460,-1122.5 207,-1122.5"/>
<text text-anchor="start" x="214" y="-1133.9" font-family="Arial" font-size="14.00" fill="#000000">modified_by </text>
<text text-anchor="start" x="293.3506" y="-1133.9" font-family="Arial" font-size="14.00" fill="#666666">[int(11)]</text>
<polygon fill="none" stroke="#000000" points="207,-1092.5 207,-1122.5 460,-1122.5 460,-1092.5 207,-1092.5"/>
<text text-anchor="start" x="214" y="-1103.9" font-family="Arial" font-size="14.00" fill="#000000">modified_by_user </text>
<text text-anchor="start" x="328.359" y="-1103.9" font-family="Arial" font-size="14.00" fill="#666666">[varchar(191)]</text>
<polygon fill="none" stroke="#000000" points="207,-1062.5 207,-1092.5 460,-1092.5 460,-1062.5 207,-1062.5"/>
<text text-anchor="start" x="214" y="-1073.9" font-family="Arial" font-size="14.00" fill="#000000">checked_out </text>
<text text-anchor="start" x="297.2594" y="-1073.9" font-family="Arial" font-size="14.00" fill="#666666">[datetime]</text>
<polygon fill="none" stroke="#000000" points="207,-1032.5 207,-1062.5 460,-1062.5 460,-1032.5 207,-1032.5"/>
<text text-anchor="start" x="214" y="-1043.9" font-family="Arial" font-size="14.00" fill="#000000">checked_out_by </text>
<text text-anchor="start" x="319.8246" y="-1043.9" font-family="Arial" font-size="14.00" fill="#666666">[int(11)]</text>
<polygon fill="none" stroke="#000000" points="207,-1002.5 207,-1032.5 460,-1032.5 460,-1002.5 207,-1002.5"/>
<text text-anchor="start" x="214" y="-1013.9" font-family="Arial" font-size="14.00" fill="#000000">checked_out_by_user </text>
<text text-anchor="start" x="354.833" y="-1013.9" font-family="Arial" font-size="14.00" fill="#666666">[varchar(191)]</text>
<polygon fill="none" stroke="#000000" points="207,-972.5 207,-1002.5 460,-1002.5 460,-972.5 207,-972.5"/>
<text text-anchor="start" x="214" y="-983.9" font-family="Arial" font-size="14.00" fill="#000000">points </text>
<text text-anchor="start" x="255.2356" y="-983.9" font-family="Arial" font-size="14.00" fill="#666666">[int(11)]</text>
<polygon fill="none" stroke="#000000" points="207,-942.5 207,-972.5 460,-972.5 460,-942.5 207,-942.5"/>
<text text-anchor="start" x="214" y="-953.9" font-family="Arial" font-size="14.00" fill="#000000">last_active </text>
<text text-anchor="start" x="284.0154" y="-953.9" font-family="Arial" font-size="14.00" fill="#666666">[datetime]</text>
<polygon fill="none" stroke="#000000" points="207,-912.5 207,-942.5 460,-942.5 460,-912.5 207,-912.5"/>
<text text-anchor="start" x="214" y="-923.9" font-family="Arial" font-size="14.00" fill="#000000">internal </text>
<text text-anchor="start" x="263.7854" y="-923.9" font-family="Arial" font-size="14.00" fill="#666666">[longtext]</text>
<polygon fill="none" stroke="#000000" points="207,-882.5 207,-912.5 460,-912.5 460,-882.5 207,-882.5"/>
<text text-anchor="start" x="214" y="-893.9" font-family="Arial" font-size="14.00" fill="#000000">social_cache </text>
<text text-anchor="start" x="298.7994" y="-893.9" font-family="Arial" font-size="14.00" fill="#666666">[longtext]</text>
<polygon fill="none" stroke="#000000" points="207,-852.5 207,-882.5 460,-882.5 460,-852.5 207,-852.5"/>
<text text-anchor="start" x="214" y="-863.9" font-family="Arial" font-size="14.00" fill="#000000">date_identified </text>
<text text-anchor="start" x="308.9256" y="-863.9" font-family="Arial" font-size="14.00" fill="#666666">[datetime]</text>
<polygon fill="none" stroke="#000000" points="207,-822.5 207,-852.5 460,-852.5 460,-822.5 207,-822.5"/>
<text text-anchor="start" x="213.7062" y="-833.9" font-family="Arial" font-size="14.00" fill="#000000">preferred_profile_image </text>
<text text-anchor="start" x="366.1746" y="-833.9" font-family="Arial" font-size="14.00" fill="#666666">[varchar(191)]</text>
<polygon fill="none" stroke="#000000" points="207,-792.5 207,-822.5 460,-822.5 460,-792.5 207,-792.5"/>
<text text-anchor="start" x="214" y="-803.9" font-family="Arial" font-size="14.00" fill="#000000">title </text>
<text text-anchor="start" x="239.6676" y="-803.9" font-family="Arial" font-size="14.00" fill="#666666">[varchar(191)]</text>
<polygon fill="none" stroke="#000000" points="207,-762.5 207,-792.5 460,-792.5 460,-762.5 207,-762.5"/>
<text text-anchor="start" x="214" y="-773.9" font-family="Arial" font-size="14.00" fill="#000000">firstname </text>
<text text-anchor="start" x="275.4474" y="-773.9" font-family="Arial" font-size="14.00" fill="#666666">[varchar(191)]</text>
<polygon fill="none" stroke="#000000" points="207,-732.5 207,-762.5 460,-762.5 460,-732.5 207,-732.5"/>
<text text-anchor="start" x="214" y="-743.9" font-family="Arial" font-size="14.00" fill="#000000">lastname </text>
<text text-anchor="start" x="274.6788" y="-743.9" font-family="Arial" font-size="14.00" fill="#666666">[varchar(191)]</text>
<polygon fill="none" stroke="#000000" points="207,-702.5 207,-732.5 460,-732.5 460,-702.5 207,-702.5"/>
<text text-anchor="start" x="214" y="-713.9" font-family="Arial" font-size="14.00" fill="#000000">company </text>
<text text-anchor="start" x="274.6816" y="-713.9" font-family="Arial" font-size="14.00" fill="#666666">[varchar(191)]</text>
<polygon fill="none" stroke="#000000" points="207,-672.5 207,-702.5 460,-702.5 460,-672.5 207,-672.5"/>
<text text-anchor="start" x="214" y="-683.9" font-family="Arial" font-size="14.00" fill="#000000">position </text>
<text text-anchor="start" x="266.1248" y="-683.9" font-family="Arial" font-size="14.00" fill="#666666">[varchar(191)]</text>
<polygon fill="none" stroke="#000000" points="207,-642.5 207,-672.5 460,-672.5 460,-642.5 207,-642.5"/>
<text text-anchor="start" x="214" y="-653.9" font-family="Arial" font-size="14.00" fill="#000000">email </text>
<text text-anchor="start" x="251.3296" y="-653.9" font-family="Arial" font-size="14.00" fill="#666666">[varchar(191)]</text>
<polygon fill="none" stroke="#000000" points="207,-612.5 207,-642.5 460,-642.5 460,-612.5 207,-612.5"/>
<text text-anchor="start" x="214" y="-623.9" font-family="Arial" font-size="14.00" fill="#000000">phone </text>
<text text-anchor="start" x="256.8036" y="-623.9" font-family="Arial" font-size="14.00" fill="#666666">[varchar(191)]</text>
<polygon fill="none" stroke="#000000" points="207,-582.5 207,-612.5 460,-612.5 460,-582.5 207,-582.5"/>
<text text-anchor="start" x="214" y="-593.9" font-family="Arial" font-size="14.00" fill="#000000">mobile </text>
<text text-anchor="start" x="259.1122" y="-593.9" font-family="Arial" font-size="14.00" fill="#666666">[varchar(191)]</text>
<polygon fill="none" stroke="#000000" points="207,-552.5 207,-582.5 460,-582.5 460,-552.5 207,-552.5"/>
<text text-anchor="start" x="214" y="-563.9" font-family="Arial" font-size="14.00" fill="#000000">address1 </text>
<text text-anchor="start" x="275.4642" y="-563.9" font-family="Arial" font-size="14.00" fill="#666666">[varchar(191)]</text>
<polygon fill="none" stroke="#000000" points="207,-522.5 207,-552.5 460,-552.5 460,-522.5 207,-522.5"/>
<text text-anchor="start" x="214" y="-533.9" font-family="Arial" font-size="14.00" fill="#000000">address2 </text>
<text text-anchor="start" x="275.4642" y="-533.9" font-family="Arial" font-size="14.00" fill="#666666">[varchar(191)]</text>
<polygon fill="none" stroke="#000000" points="207,-492.5 207,-522.5 460,-522.5 460,-492.5 207,-492.5"/>
<text text-anchor="start" x="214" y="-503.9" font-family="Arial" font-size="14.00" fill="#000000">city </text>
<text text-anchor="start" x="238.8878" y="-503.9" font-family="Arial" font-size="14.00" fill="#666666">[varchar(191)]</text>
<polygon fill="none" stroke="#000000" points="207,-462.5 207,-492.5 460,-492.5 460,-462.5 207,-462.5"/>
<text text-anchor="start" x="214" y="-473.9" font-family="Arial" font-size="14.00" fill="#000000">state </text>
<text text-anchor="start" x="248.237" y="-473.9" font-family="Arial" font-size="14.00" fill="#666666">[varchar(191)]</text>
<polygon fill="none" stroke="#000000" points="207,-432.5 207,-462.5 460,-462.5 460,-432.5 207,-432.5"/>
<text text-anchor="start" x="214" y="-443.9" font-family="Arial" font-size="14.00" fill="#000000">zipcode </text>
<text text-anchor="start" x="266.1276" y="-443.9" font-family="Arial" font-size="14.00" fill="#666666">[varchar(191)]</text>
<polygon fill="none" stroke="#000000" points="207,-402.5 207,-432.5 460,-432.5 460,-402.5 207,-402.5"/>
<text text-anchor="start" x="214" y="-413.9" font-family="Arial" font-size="14.00" fill="#000000">timezone </text>
<text text-anchor="start" x="274.6788" y="-413.9" font-family="Arial" font-size="14.00" fill="#666666">[varchar(191)]</text>
<polygon fill="none" stroke="#000000" points="207,-372.5 207,-402.5 460,-402.5 460,-372.5 207,-372.5"/>
<text text-anchor="start" x="214" y="-383.9" font-family="Arial" font-size="14.00" fill="#000000">country </text>
<text text-anchor="start" x="263.7896" y="-383.9" font-family="Arial" font-size="14.00" fill="#666666">[varchar(191)]</text>
<polygon fill="none" stroke="#000000" points="207,-342.5 207,-372.5 460,-372.5 460,-342.5 207,-342.5"/>
<text text-anchor="start" x="214" y="-353.9" font-family="Arial" font-size="14.00" fill="#000000">fax </text>
<text text-anchor="start" x="236.5638" y="-353.9" font-family="Arial" font-size="14.00" fill="#666666">[varchar(255)]</text>
<polygon fill="none" stroke="#000000" points="207,-312.5 207,-342.5 460,-342.5 460,-312.5 207,-312.5"/>
<text text-anchor="start" x="214" y="-323.9" font-family="Arial" font-size="14.00" fill="#000000">preferred_locale </text>
<text text-anchor="start" x="319.0196" y="-323.9" font-family="Arial" font-size="14.00" fill="#666666">[varchar(255)]</text>
<polygon fill="none" stroke="#000000" points="207,-282.5 207,-312.5 460,-312.5 460,-282.5 207,-282.5"/>
<text text-anchor="start" x="214" y="-293.9" font-family="Arial" font-size="14.00" fill="#000000">attribution_date </text>
<text text-anchor="start" x="314.3702" y="-293.9" font-family="Arial" font-size="14.00" fill="#666666">[datetime]</text>
<polygon fill="none" stroke="#000000" points="207,-252.5 207,-282.5 460,-282.5 460,-252.5 207,-252.5"/>
<text text-anchor="start" x="214" y="-263.9" font-family="Arial" font-size="14.00" fill="#000000">attribution </text>
<text text-anchor="start" x="279.3492" y="-263.9" font-family="Arial" font-size="14.00" fill="#666666">[double]</text>
<polygon fill="none" stroke="#000000" points="207,-222.5 207,-252.5 460,-252.5 460,-222.5 207,-222.5"/>
<text text-anchor="start" x="214" y="-233.9" font-family="Arial" font-size="14.00" fill="#000000">website </text>
<text text-anchor="start" x="265.3422" y="-233.9" font-family="Arial" font-size="14.00" fill="#666666">[longtext]</text>
<polygon fill="none" stroke="#000000" points="207,-192.5 207,-222.5 460,-222.5 460,-192.5 207,-192.5"/>
<text text-anchor="start" x="214" y="-203.9" font-family="Arial" font-size="14.00" fill="#000000">facebook </text>
<text text-anchor="start" x="274.6942" y="-203.9" font-family="Arial" font-size="14.00" fill="#666666">[varchar(255)]</text>
<polygon fill="none" stroke="#000000" points="207,-162.5 207,-192.5 460,-192.5 460,-162.5 207,-162.5"/>
<text text-anchor="start" x="214" y="-173.9" font-family="Arial" font-size="14.00" fill="#000000">foursquare </text>
<text text-anchor="start" x="284.798" y="-173.9" font-family="Arial" font-size="14.00" fill="#666666">[varchar(255)]</text>
<polygon fill="none" stroke="#000000" points="207,-132.5 207,-162.5 460,-162.5 460,-132.5 207,-132.5"/>
<text text-anchor="start" x="214" y="-143.9" font-family="Arial" font-size="14.00" fill="#000000">instagram </text>
<text text-anchor="start" x="279.3394" y="-143.9" font-family="Arial" font-size="14.00" fill="#666666">[varchar(255)]</text>
<polygon fill="none" stroke="#000000" points="207,-102.5 207,-132.5 460,-132.5 460,-102.5 207,-102.5"/>
<text text-anchor="start" x="214" y="-113.9" font-family="Arial" font-size="14.00" fill="#000000">linkedin </text>
<text text-anchor="start" x="265.3408" y="-113.9" font-family="Arial" font-size="14.00" fill="#666666">[varchar(255)]</text>
<polygon fill="none" stroke="#000000" points="207,-72.5 207,-102.5 460,-102.5 460,-72.5 207,-72.5"/>
<text text-anchor="start" x="214" y="-83.9" font-family="Arial" font-size="14.00" fill="#000000">skype </text>
<text text-anchor="start" x="254.4558" y="-83.9" font-family="Arial" font-size="14.00" fill="#666666">[varchar(255)]</text>
<polygon fill="none" stroke="#000000" points="207,-42.5 207,-72.5 460,-72.5 460,-42.5 207,-42.5"/>
<text text-anchor="start" x="214" y="-53.9" font-family="Arial" font-size="14.00" fill="#000000">twitter </text>
<text text-anchor="start" x="255.2188" y="-53.9" font-family="Arial" font-size="14.00" fill="#666666">[varchar(255)]</text>
</g>
<!-- push_ids&#45;&gt;leads -->
<g id="edge1" class="edge">
<title>push_ids:lead_id&#45;&gt;leads:id</title>
<path fill="none" stroke="#000000" d="M229.0105,-1655.0794C173.1558,-1627.7124 147.7977,-1377.5 207,-1377.5"/>
<polygon fill="#000000" stroke="#000000" points="229.2813,-1655.1449 237.9402,-1661.8734 234.1406,-1656.3225 239,-1657.5 239,-1657.5 239,-1657.5 234.1406,-1656.3225 240.0598,-1653.1266 229.2813,-1655.1449 229.2813,-1655.1449"/>
<text text-anchor="start" x="7.496" y="-1667.5" font-family="Arial" font-size="10.00" fill="#000000">FOREIGN KEY (lead_id) REFERENCES leads (id)</text>
</g>
</g>
</svg>
