<?xml version="1.0" encoding="UTF-8" standalone="no"?>
<!DOCTYPE svg PUBLIC "-//W3C//DTD SVG 1.1//EN"
 "http://www.w3.org/Graphics/SVG/1.1/DTD/svg11.dtd">
<!-- Generated by graphviz version 2.40.1 (20161225.0304)
 -->
<!-- Title: push_notification_stats Pages: 1 -->
<svg width="1374pt" height="2152pt"
 viewBox="0.00 0.00 1373.50 2152.00" xmlns="http://www.w3.org/2000/svg" xmlns:xlink="http://www.w3.org/1999/xlink">
<g id="graph0" class="graph" transform="scale(1 1) rotate(0) translate(4 2148)">
<title>push_notification_stats</title>
<polygon fill="#ffffff" stroke="transparent" points="-4,4 -4,-2148 1369.5,-2148 1369.5,4 -4,4"/>
<!-- push_notification_stats -->
<g id="node1" class="node">
<title>push_notification_stats</title>
<polygon fill="#efefef" stroke="transparent" points="557.5,-2062.5 557.5,-2097.5 851.5,-2097.5 851.5,-2062.5 557.5,-2062.5"/>
<polygon fill="none" stroke="#000000" points="557.5,-2062.5 557.5,-2097.5 851.5,-2097.5 851.5,-2062.5 557.5,-2062.5"/>
<text text-anchor="start" x="564.3422" y="-2075.3" font-family="Arial Bold" font-size="18.00" fill="#000000">push_notification_stats</text>
<text text-anchor="start" x="747.404" y="-2075.3" font-family="Arial" font-size="14.00" fill="#000000"> </text>
<text text-anchor="start" x="751.2946" y="-2075.3" font-family="Arial" font-size="14.00" fill="#666666">[BASE TABLE]</text>
<polygon fill="none" stroke="#000000" points="557.5,-2032.5 557.5,-2062.5 851.5,-2062.5 851.5,-2032.5 557.5,-2032.5"/>
<text text-anchor="start" x="564.5" y="-2043.9" font-family="Arial" font-size="14.00" fill="#000000">id </text>
<text text-anchor="start" x="579.2798" y="-2043.9" font-family="Arial" font-size="14.00" fill="#666666">[bigint(20) unsigned]</text>
<polygon fill="none" stroke="#000000" points="557.5,-2002.5 557.5,-2032.5 851.5,-2032.5 851.5,-2002.5 557.5,-2002.5"/>
<text text-anchor="start" x="564.5" y="-2013.9" font-family="Arial" font-size="14.00" fill="#000000">notification_id </text>
<text text-anchor="start" x="653.967" y="-2013.9" font-family="Arial" font-size="14.00" fill="#666666">[int(10) unsigned]</text>
<polygon fill="none" stroke="#000000" points="557.5,-1972.5 557.5,-2002.5 851.5,-2002.5 851.5,-1972.5 557.5,-1972.5"/>
<text text-anchor="start" x="564.5" y="-1983.9" font-family="Arial" font-size="14.00" fill="#000000">lead_id </text>
<text text-anchor="start" x="613.5168" y="-1983.9" font-family="Arial" font-size="14.00" fill="#666666">[bigint(20) unsigned]</text>
<polygon fill="none" stroke="#000000" points="557.5,-1942.5 557.5,-1972.5 851.5,-1972.5 851.5,-1942.5 557.5,-1942.5"/>
<text text-anchor="start" x="564.5" y="-1953.9" font-family="Arial" font-size="14.00" fill="#000000">list_id </text>
<text text-anchor="start" x="604.1662" y="-1953.9" font-family="Arial" font-size="14.00" fill="#666666">[int(10) unsigned]</text>
<polygon fill="none" stroke="#000000" points="557.5,-1912.5 557.5,-1942.5 851.5,-1942.5 851.5,-1912.5 557.5,-1912.5"/>
<text text-anchor="start" x="564.5" y="-1923.9" font-family="Arial" font-size="14.00" fill="#000000">ip_id </text>
<text text-anchor="start" x="597.9516" y="-1923.9" font-family="Arial" font-size="14.00" fill="#666666">[int(10) unsigned]</text>
<polygon fill="none" stroke="#000000" points="557.5,-1882.5 557.5,-1912.5 851.5,-1912.5 851.5,-1882.5 557.5,-1882.5"/>
<text text-anchor="start" x="564.5" y="-1893.9" font-family="Arial" font-size="14.00" fill="#000000">date_sent </text>
<text text-anchor="start" x="629.8674" y="-1893.9" font-family="Arial" font-size="14.00" fill="#666666">[datetime]</text>
<polygon fill="none" stroke="#000000" points="557.5,-1852.5 557.5,-1882.5 851.5,-1882.5 851.5,-1852.5 557.5,-1852.5"/>
<text text-anchor="start" x="564.5" y="-1863.9" font-family="Arial" font-size="14.00" fill="#000000">date_read </text>
<text text-anchor="start" x="631.42" y="-1863.9" font-family="Arial" font-size="14.00" fill="#666666">[datetime]</text>
<polygon fill="none" stroke="#000000" points="557.5,-1822.5 557.5,-1852.5 851.5,-1852.5 851.5,-1822.5 557.5,-1822.5"/>
<text text-anchor="start" x="564.5" y="-1833.9" font-family="Arial" font-size="14.00" fill="#000000">is_clicked </text>
<text text-anchor="start" x="629.0582" y="-1833.9" font-family="Arial" font-size="14.00" fill="#666666">[tinyint(1)]</text>
<polygon fill="none" stroke="#000000" points="557.5,-1792.5 557.5,-1822.5 851.5,-1822.5 851.5,-1792.5 557.5,-1792.5"/>
<text text-anchor="start" x="564.5" y="-1803.9" font-family="Arial" font-size="14.00" fill="#000000">date_clicked </text>
<text text-anchor="start" x="646.19" y="-1803.9" font-family="Arial" font-size="14.00" fill="#666666">[datetime]</text>
<polygon fill="none" stroke="#000000" points="557.5,-1762.5 557.5,-1792.5 851.5,-1792.5 851.5,-1762.5 557.5,-1762.5"/>
<text text-anchor="start" x="564.5" y="-1773.9" font-family="Arial" font-size="14.00" fill="#000000">tracking_hash </text>
<text text-anchor="start" x="655.5266" y="-1773.9" font-family="Arial" font-size="14.00" fill="#666666">[varchar(191)]</text>
<polygon fill="none" stroke="#000000" points="557.5,-1732.5 557.5,-1762.5 851.5,-1762.5 851.5,-1732.5 557.5,-1732.5"/>
<text text-anchor="start" x="564.5" y="-1743.9" font-family="Arial" font-size="14.00" fill="#000000">retry_count </text>
<text text-anchor="start" x="638.406" y="-1743.9" font-family="Arial" font-size="14.00" fill="#666666">[int(11)]</text>
<polygon fill="none" stroke="#000000" points="557.5,-1702.5 557.5,-1732.5 851.5,-1732.5 851.5,-1702.5 557.5,-1702.5"/>
<text text-anchor="start" x="564.5" y="-1713.9" font-family="Arial" font-size="14.00" fill="#000000">source </text>
<text text-anchor="start" x="610.399" y="-1713.9" font-family="Arial" font-size="14.00" fill="#666666">[varchar(191)]</text>
<polygon fill="none" stroke="#000000" points="557.5,-1672.5 557.5,-1702.5 851.5,-1702.5 851.5,-1672.5 557.5,-1672.5"/>
<text text-anchor="start" x="564.5" y="-1683.9" font-family="Arial" font-size="14.00" fill="#000000">source_id </text>
<text text-anchor="start" x="629.0708" y="-1683.9" font-family="Arial" font-size="14.00" fill="#666666">[int(11)]</text>
<polygon fill="none" stroke="#000000" points="557.5,-1642.5 557.5,-1672.5 851.5,-1672.5 851.5,-1642.5 557.5,-1642.5"/>
<text text-anchor="start" x="564.5" y="-1653.9" font-family="Arial" font-size="14.00" fill="#000000">tokens </text>
<text text-anchor="start" x="609.629" y="-1653.9" font-family="Arial" font-size="14.00" fill="#666666">[longtext]</text>
<polygon fill="none" stroke="#000000" points="557.5,-1612.5 557.5,-1642.5 851.5,-1642.5 851.5,-1612.5 557.5,-1612.5"/>
<text text-anchor="start" x="564.5" y="-1623.9" font-family="Arial" font-size="14.00" fill="#000000">click_count </text>
<text text-anchor="start" x="637.6248" y="-1623.9" font-family="Arial" font-size="14.00" fill="#666666">[int(11)]</text>
<polygon fill="none" stroke="#000000" points="557.5,-1582.5 557.5,-1612.5 851.5,-1612.5 851.5,-1582.5 557.5,-1582.5"/>
<text text-anchor="start" x="564.5" y="-1593.9" font-family="Arial" font-size="14.00" fill="#000000">last_clicked </text>
<text text-anchor="start" x="640.7314" y="-1593.9" font-family="Arial" font-size="14.00" fill="#666666">[datetime]</text>
<polygon fill="none" stroke="#000000" points="557.5,-1552.5 557.5,-1582.5 851.5,-1582.5 851.5,-1552.5 557.5,-1552.5"/>
<text text-anchor="start" x="564.5" y="-1563.9" font-family="Arial" font-size="14.00" fill="#000000">click_details </text>
<text text-anchor="start" x="643.838" y="-1563.9" font-family="Arial" font-size="14.00" fill="#666666">[longtext]</text>
<polygon fill="none" stroke="#000000" stroke-width="3" points="556,-1551.5 556,-2099.5 853,-2099.5 853,-1551.5 556,-1551.5"/>
</g>
<!-- push_notifications -->
<g id="node2" class="node">
<title>push_notifications</title>
<polygon fill="#efefef" stroke="transparent" points="43.5,-1122.5 43.5,-1157.5 298.5,-1157.5 298.5,-1122.5 43.5,-1122.5"/>
<polygon fill="none" stroke="#000000" points="43.5,-1122.5 43.5,-1157.5 298.5,-1157.5 298.5,-1122.5 43.5,-1122.5"/>
<text text-anchor="start" x="50.3506" y="-1135.3" font-family="Arial Bold" font-size="18.00" fill="#000000">push_notifications</text>
<text text-anchor="start" x="194.3956" y="-1135.3" font-family="Arial" font-size="14.00" fill="#000000"> </text>
<text text-anchor="start" x="198.2862" y="-1135.3" font-family="Arial" font-size="14.00" fill="#666666">[BASE TABLE]</text>
<polygon fill="none" stroke="#000000" points="43.5,-1092.5 43.5,-1122.5 298.5,-1122.5 298.5,-1092.5 43.5,-1092.5"/>
<text text-anchor="start" x="50.5" y="-1103.9" font-family="Arial" font-size="14.00" fill="#000000">id </text>
<text text-anchor="start" x="65.2798" y="-1103.9" font-family="Arial" font-size="14.00" fill="#666666">[int(10) unsigned]</text>
<polygon fill="none" stroke="#000000" points="43.5,-1062.5 43.5,-1092.5 298.5,-1092.5 298.5,-1062.5 43.5,-1062.5"/>
<text text-anchor="start" x="50.5" y="-1073.9" font-family="Arial" font-size="14.00" fill="#000000">category_id </text>
<text text-anchor="start" x="126.744" y="-1073.9" font-family="Arial" font-size="14.00" fill="#666666">[int(10) unsigned]</text>
<polygon fill="none" stroke="#000000" points="43.5,-1032.5 43.5,-1062.5 298.5,-1062.5 298.5,-1032.5 43.5,-1032.5"/>
<text text-anchor="start" x="50.5" y="-1043.9" font-family="Arial" font-size="14.00" fill="#000000">is_published </text>
<text text-anchor="start" x="132.1886" y="-1043.9" font-family="Arial" font-size="14.00" fill="#666666">[tinyint(1)]</text>
<polygon fill="none" stroke="#000000" points="43.5,-1002.5 43.5,-1032.5 298.5,-1032.5 298.5,-1002.5 43.5,-1002.5"/>
<text text-anchor="start" x="50.5" y="-1013.9" font-family="Arial" font-size="14.00" fill="#000000">date_added </text>
<text text-anchor="start" x="128.3246" y="-1013.9" font-family="Arial" font-size="14.00" fill="#666666">[datetime]</text>
<polygon fill="none" stroke="#000000" points="43.5,-972.5 43.5,-1002.5 298.5,-1002.5 298.5,-972.5 43.5,-972.5"/>
<text text-anchor="start" x="50.5" y="-983.9" font-family="Arial" font-size="14.00" fill="#000000">created_by </text>
<text text-anchor="start" x="123.6374" y="-983.9" font-family="Arial" font-size="14.00" fill="#666666">[int(11)]</text>
<polygon fill="none" stroke="#000000" points="43.5,-942.5 43.5,-972.5 298.5,-972.5 298.5,-942.5 43.5,-942.5"/>
<text text-anchor="start" x="50.5" y="-953.9" font-family="Arial" font-size="14.00" fill="#000000">created_by_user </text>
<text text-anchor="start" x="158.6458" y="-953.9" font-family="Arial" font-size="14.00" fill="#666666">[varchar(191)]</text>
<polygon fill="none" stroke="#000000" points="43.5,-912.5 43.5,-942.5 298.5,-942.5 298.5,-912.5 43.5,-912.5"/>
<text text-anchor="start" x="50.5" y="-923.9" font-family="Arial" font-size="14.00" fill="#000000">date_modified </text>
<text text-anchor="start" x="142.3064" y="-923.9" font-family="Arial" font-size="14.00" fill="#666666">[datetime]</text>
<polygon fill="none" stroke="#000000" points="43.5,-882.5 43.5,-912.5 298.5,-912.5 298.5,-882.5 43.5,-882.5"/>
<text text-anchor="start" x="50.5" y="-893.9" font-family="Arial" font-size="14.00" fill="#000000">modified_by </text>
<text text-anchor="start" x="129.8506" y="-893.9" font-family="Arial" font-size="14.00" fill="#666666">[int(11)]</text>
<polygon fill="none" stroke="#000000" points="43.5,-852.5 43.5,-882.5 298.5,-882.5 298.5,-852.5 43.5,-852.5"/>
<text text-anchor="start" x="50.5" y="-863.9" font-family="Arial" font-size="14.00" fill="#000000">modified_by_user </text>
<text text-anchor="start" x="164.859" y="-863.9" font-family="Arial" font-size="14.00" fill="#666666">[varchar(191)]</text>
<polygon fill="none" stroke="#000000" points="43.5,-822.5 43.5,-852.5 298.5,-852.5 298.5,-822.5 43.5,-822.5"/>
<text text-anchor="start" x="50.5" y="-833.9" font-family="Arial" font-size="14.00" fill="#000000">checked_out </text>
<text text-anchor="start" x="133.7594" y="-833.9" font-family="Arial" font-size="14.00" fill="#666666">[datetime]</text>
<polygon fill="none" stroke="#000000" points="43.5,-792.5 43.5,-822.5 298.5,-822.5 298.5,-792.5 43.5,-792.5"/>
<text text-anchor="start" x="50.5" y="-803.9" font-family="Arial" font-size="14.00" fill="#000000">checked_out_by </text>
<text text-anchor="start" x="156.3246" y="-803.9" font-family="Arial" font-size="14.00" fill="#666666">[int(11)]</text>
<polygon fill="none" stroke="#000000" points="43.5,-762.5 43.5,-792.5 298.5,-792.5 298.5,-762.5 43.5,-762.5"/>
<text text-anchor="start" x="50.5" y="-773.9" font-family="Arial" font-size="14.00" fill="#000000">checked_out_by_user </text>
<text text-anchor="start" x="191.333" y="-773.9" font-family="Arial" font-size="14.00" fill="#666666">[varchar(191)]</text>
<polygon fill="none" stroke="#000000" points="43.5,-732.5 43.5,-762.5 298.5,-762.5 298.5,-732.5 43.5,-732.5"/>
<text text-anchor="start" x="50.5" y="-743.9" font-family="Arial" font-size="14.00" fill="#000000">name </text>
<text text-anchor="start" x="89.399" y="-743.9" font-family="Arial" font-size="14.00" fill="#666666">[varchar(191)]</text>
<polygon fill="none" stroke="#000000" points="43.5,-702.5 43.5,-732.5 298.5,-732.5 298.5,-702.5 43.5,-702.5"/>
<text text-anchor="start" x="50.5" y="-713.9" font-family="Arial" font-size="14.00" fill="#000000">description </text>
<text text-anchor="start" x="122.068" y="-713.9" font-family="Arial" font-size="14.00" fill="#666666">[longtext]</text>
<polygon fill="none" stroke="#000000" points="43.5,-672.5 43.5,-702.5 298.5,-702.5 298.5,-672.5 43.5,-672.5"/>
<text text-anchor="start" x="50.5" y="-683.9" font-family="Arial" font-size="14.00" fill="#000000">lang </text>
<text text-anchor="start" x="80.845" y="-683.9" font-family="Arial" font-size="14.00" fill="#666666">[varchar(191)]</text>
<polygon fill="none" stroke="#000000" points="43.5,-642.5 43.5,-672.5 298.5,-672.5 298.5,-642.5 43.5,-642.5"/>
<text text-anchor="start" x="50.5" y="-653.9" font-family="Arial" font-size="14.00" fill="#000000">url </text>
<text text-anchor="start" x="69.9404" y="-653.9" font-family="Arial" font-size="14.00" fill="#666666">[longtext]</text>
<polygon fill="none" stroke="#000000" points="43.5,-612.5 43.5,-642.5 298.5,-642.5 298.5,-612.5 43.5,-612.5"/>
<text text-anchor="start" x="50.5" y="-623.9" font-family="Arial" font-size="14.00" fill="#000000">heading </text>
<text text-anchor="start" x="104.1928" y="-623.9" font-family="Arial" font-size="14.00" fill="#666666">[longtext]</text>
<polygon fill="none" stroke="#000000" points="43.5,-582.5 43.5,-612.5 298.5,-612.5 298.5,-582.5 43.5,-582.5"/>
<text text-anchor="start" x="50.5" y="-593.9" font-family="Arial" font-size="14.00" fill="#000000">message </text>
<text text-anchor="start" x="111.1816" y="-593.9" font-family="Arial" font-size="14.00" fill="#666666">[longtext]</text>
<polygon fill="none" stroke="#000000" points="43.5,-552.5 43.5,-582.5 298.5,-582.5 298.5,-552.5 43.5,-552.5"/>
<text text-anchor="start" x="50.5" y="-563.9" font-family="Arial" font-size="14.00" fill="#000000">button </text>
<text text-anchor="start" x="93.3022" y="-563.9" font-family="Arial" font-size="14.00" fill="#666666">[longtext]</text>
<polygon fill="none" stroke="#000000" points="43.5,-522.5 43.5,-552.5 298.5,-552.5 298.5,-522.5 43.5,-522.5"/>
<text text-anchor="start" x="50.5" y="-533.9" font-family="Arial" font-size="14.00" fill="#000000">utm_tags </text>
<text text-anchor="start" x="111.9628" y="-533.9" font-family="Arial" font-size="14.00" fill="#666666">[longtext]</text>
<polygon fill="none" stroke="#000000" points="43.5,-492.5 43.5,-522.5 298.5,-522.5 298.5,-492.5 43.5,-492.5"/>
<text text-anchor="start" x="50.5" y="-503.9" font-family="Arial" font-size="14.00" fill="#000000">notification_type </text>
<text text-anchor="start" x="155.5336" y="-503.9" font-family="Arial" font-size="14.00" fill="#666666">[longtext]</text>
<polygon fill="none" stroke="#000000" points="43.5,-462.5 43.5,-492.5 298.5,-492.5 298.5,-462.5 43.5,-462.5"/>
<text text-anchor="start" x="50.5" y="-473.9" font-family="Arial" font-size="14.00" fill="#000000">publish_up </text>
<text text-anchor="start" x="122.082" y="-473.9" font-family="Arial" font-size="14.00" fill="#666666">[datetime]</text>
<polygon fill="none" stroke="#000000" points="43.5,-432.5 43.5,-462.5 298.5,-462.5 298.5,-432.5 43.5,-432.5"/>
<text text-anchor="start" x="50.5" y="-443.9" font-family="Arial" font-size="14.00" fill="#000000">publish_down </text>
<text text-anchor="start" x="139.9712" y="-443.9" font-family="Arial" font-size="14.00" fill="#666666">[datetime]</text>
<polygon fill="none" stroke="#000000" points="43.5,-402.5 43.5,-432.5 298.5,-432.5 298.5,-402.5 43.5,-402.5"/>
<text text-anchor="start" x="50.5" y="-413.9" font-family="Arial" font-size="14.00" fill="#000000">read_count </text>
<text text-anchor="start" x="124.42" y="-413.9" font-family="Arial" font-size="14.00" fill="#666666">[int(11)]</text>
<polygon fill="none" stroke="#000000" points="43.5,-372.5 43.5,-402.5 298.5,-402.5 298.5,-372.5 43.5,-372.5"/>
<text text-anchor="start" x="50.5" y="-383.9" font-family="Arial" font-size="14.00" fill="#000000">sent_count </text>
<text text-anchor="start" x="122.8674" y="-383.9" font-family="Arial" font-size="14.00" fill="#666666">[int(11)]</text>
<polygon fill="none" stroke="#000000" points="43.5,-342.5 43.5,-372.5 298.5,-372.5 298.5,-342.5 43.5,-342.5"/>
<text text-anchor="start" x="50.5" y="-353.9" font-family="Arial" font-size="14.00" fill="#000000">mobile </text>
<text text-anchor="start" x="95.6122" y="-353.9" font-family="Arial" font-size="14.00" fill="#666666">[tinyint(1)]</text>
<polygon fill="none" stroke="#000000" points="43.5,-312.5 43.5,-342.5 298.5,-342.5 298.5,-312.5 43.5,-312.5"/>
<text text-anchor="start" x="50.5" y="-323.9" font-family="Arial" font-size="14.00" fill="#000000">mobileSettings </text>
<text text-anchor="start" x="146.1844" y="-323.9" font-family="Arial" font-size="14.00" fill="#666666">[longtext]</text>
</g>
<!-- push_notification_stats&#45;&gt;push_notifications -->
<g id="edge1" class="edge">
<title>push_notification_stats:notification_id&#45;&gt;push_notifications:id</title>
<path fill="none" stroke="#000000" d="M547.4163,-2017.3471C300.6556,-2009.7347 413.3303,-1719.3899 349.5,-1471 329.1983,-1391.9979 380.069,-1107.5 298.5,-1107.5"/>
<polygon fill="#000000" stroke="#000000" points="547.5011,-2017.3483 557.4317,-2021.9995 552.5006,-2017.4241 557.5,-2017.5 557.5,-2017.5 557.5,-2017.5 552.5006,-2017.4241 557.5683,-2013.0005 547.5011,-2017.3483 547.5011,-2017.3483"/>
<text text-anchor="start" x="240.485" y="-2027.5" font-family="Arial" font-size="10.00" fill="#000000">FOREIGN KEY (notification_id) REFERENCES push_notifications (id)</text>
</g>
<!-- leads -->
<g id="node3" class="node">
<title>leads</title>
<polygon fill="#efefef" stroke="transparent" points="402.5,-1392.5 402.5,-1427.5 655.5,-1427.5 655.5,-1392.5 402.5,-1392.5"/>
<polygon fill="none" stroke="#000000" points="402.5,-1392.5 402.5,-1427.5 655.5,-1427.5 655.5,-1392.5 402.5,-1392.5"/>
<text text-anchor="start" x="458.8667" y="-1405.3" font-family="Arial Bold" font-size="18.00" fill="#000000">leads</text>
<text text-anchor="start" x="501.8795" y="-1405.3" font-family="Arial" font-size="14.00" fill="#000000"> </text>
<text text-anchor="start" x="505.7701" y="-1405.3" font-family="Arial" font-size="14.00" fill="#666666">[BASE TABLE]</text>
<polygon fill="none" stroke="#000000" points="402.5,-1362.5 402.5,-1392.5 655.5,-1392.5 655.5,-1362.5 402.5,-1362.5"/>
<text text-anchor="start" x="409.5" y="-1373.9" font-family="Arial" font-size="14.00" fill="#000000">id </text>
<text text-anchor="start" x="424.2798" y="-1373.9" font-family="Arial" font-size="14.00" fill="#666666">[bigint(20) unsigned]</text>
<polygon fill="none" stroke="#000000" points="402.5,-1332.5 402.5,-1362.5 655.5,-1362.5 655.5,-1332.5 402.5,-1332.5"/>
<text text-anchor="start" x="409.5" y="-1343.9" font-family="Arial" font-size="14.00" fill="#000000">owner_id </text>
<text text-anchor="start" x="470.1774" y="-1343.9" font-family="Arial" font-size="14.00" fill="#666666">[int(10) unsigned]</text>
<polygon fill="none" stroke="#000000" points="402.5,-1302.5 402.5,-1332.5 655.5,-1332.5 655.5,-1302.5 402.5,-1302.5"/>
<text text-anchor="start" x="409.5" y="-1313.9" font-family="Arial" font-size="14.00" fill="#000000">stage_id </text>
<text text-anchor="start" x="466.3008" y="-1313.9" font-family="Arial" font-size="14.00" fill="#666666">[int(10) unsigned]</text>
<polygon fill="none" stroke="#000000" points="402.5,-1272.5 402.5,-1302.5 655.5,-1302.5 655.5,-1272.5 402.5,-1272.5"/>
<text text-anchor="start" x="409.5" y="-1283.9" font-family="Arial" font-size="14.00" fill="#000000">is_published </text>
<text text-anchor="start" x="491.1886" y="-1283.9" font-family="Arial" font-size="14.00" fill="#666666">[tinyint(1)]</text>
<polygon fill="none" stroke="#000000" points="402.5,-1242.5 402.5,-1272.5 655.5,-1272.5 655.5,-1242.5 402.5,-1242.5"/>
<text text-anchor="start" x="409.5" y="-1253.9" font-family="Arial" font-size="14.00" fill="#000000">date_added </text>
<text text-anchor="start" x="487.3246" y="-1253.9" font-family="Arial" font-size="14.00" fill="#666666">[datetime]</text>
<polygon fill="none" stroke="#000000" points="402.5,-1212.5 402.5,-1242.5 655.5,-1242.5 655.5,-1212.5 402.5,-1212.5"/>
<text text-anchor="start" x="409.5" y="-1223.9" font-family="Arial" font-size="14.00" fill="#000000">created_by </text>
<text text-anchor="start" x="482.6374" y="-1223.9" font-family="Arial" font-size="14.00" fill="#666666">[int(11)]</text>
<polygon fill="none" stroke="#000000" points="402.5,-1182.5 402.5,-1212.5 655.5,-1212.5 655.5,-1182.5 402.5,-1182.5"/>
<text text-anchor="start" x="409.5" y="-1193.9" font-family="Arial" font-size="14.00" fill="#000000">created_by_user </text>
<text text-anchor="start" x="517.6458" y="-1193.9" font-family="Arial" font-size="14.00" fill="#666666">[varchar(191)]</text>
<polygon fill="none" stroke="#000000" points="402.5,-1152.5 402.5,-1182.5 655.5,-1182.5 655.5,-1152.5 402.5,-1152.5"/>
<text text-anchor="start" x="409.5" y="-1163.9" font-family="Arial" font-size="14.00" fill="#000000">date_modified </text>
<text text-anchor="start" x="501.3064" y="-1163.9" font-family="Arial" font-size="14.00" fill="#666666">[datetime]</text>
<polygon fill="none" stroke="#000000" points="402.5,-1122.5 402.5,-1152.5 655.5,-1152.5 655.5,-1122.5 402.5,-1122.5"/>
<text text-anchor="start" x="409.5" y="-1133.9" font-family="Arial" font-size="14.00" fill="#000000">modified_by </text>
<text text-anchor="start" x="488.8506" y="-1133.9" font-family="Arial" font-size="14.00" fill="#666666">[int(11)]</text>
<polygon fill="none" stroke="#000000" points="402.5,-1092.5 402.5,-1122.5 655.5,-1122.5 655.5,-1092.5 402.5,-1092.5"/>
<text text-anchor="start" x="409.5" y="-1103.9" font-family="Arial" font-size="14.00" fill="#000000">modified_by_user </text>
<text text-anchor="start" x="523.859" y="-1103.9" font-family="Arial" font-size="14.00" fill="#666666">[varchar(191)]</text>
<polygon fill="none" stroke="#000000" points="402.5,-1062.5 402.5,-1092.5 655.5,-1092.5 655.5,-1062.5 402.5,-1062.5"/>
<text text-anchor="start" x="409.5" y="-1073.9" font-family="Arial" font-size="14.00" fill="#000000">checked_out </text>
<text text-anchor="start" x="492.7594" y="-1073.9" font-family="Arial" font-size="14.00" fill="#666666">[datetime]</text>
<polygon fill="none" stroke="#000000" points="402.5,-1032.5 402.5,-1062.5 655.5,-1062.5 655.5,-1032.5 402.5,-1032.5"/>
<text text-anchor="start" x="409.5" y="-1043.9" font-family="Arial" font-size="14.00" fill="#000000">checked_out_by </text>
<text text-anchor="start" x="515.3246" y="-1043.9" font-family="Arial" font-size="14.00" fill="#666666">[int(11)]</text>
<polygon fill="none" stroke="#000000" points="402.5,-1002.5 402.5,-1032.5 655.5,-1032.5 655.5,-1002.5 402.5,-1002.5"/>
<text text-anchor="start" x="409.5" y="-1013.9" font-family="Arial" font-size="14.00" fill="#000000">checked_out_by_user </text>
<text text-anchor="start" x="550.333" y="-1013.9" font-family="Arial" font-size="14.00" fill="#666666">[varchar(191)]</text>
<polygon fill="none" stroke="#000000" points="402.5,-972.5 402.5,-1002.5 655.5,-1002.5 655.5,-972.5 402.5,-972.5"/>
<text text-anchor="start" x="409.5" y="-983.9" font-family="Arial" font-size="14.00" fill="#000000">points </text>
<text text-anchor="start" x="450.7356" y="-983.9" font-family="Arial" font-size="14.00" fill="#666666">[int(11)]</text>
<polygon fill="none" stroke="#000000" points="402.5,-942.5 402.5,-972.5 655.5,-972.5 655.5,-942.5 402.5,-942.5"/>
<text text-anchor="start" x="409.5" y="-953.9" font-family="Arial" font-size="14.00" fill="#000000">last_active </text>
<text text-anchor="start" x="479.5154" y="-953.9" font-family="Arial" font-size="14.00" fill="#666666">[datetime]</text>
<polygon fill="none" stroke="#000000" points="402.5,-912.5 402.5,-942.5 655.5,-942.5 655.5,-912.5 402.5,-912.5"/>
<text text-anchor="start" x="409.5" y="-923.9" font-family="Arial" font-size="14.00" fill="#000000">internal </text>
<text text-anchor="start" x="459.2854" y="-923.9" font-family="Arial" font-size="14.00" fill="#666666">[longtext]</text>
<polygon fill="none" stroke="#000000" points="402.5,-882.5 402.5,-912.5 655.5,-912.5 655.5,-882.5 402.5,-882.5"/>
<text text-anchor="start" x="409.5" y="-893.9" font-family="Arial" font-size="14.00" fill="#000000">social_cache </text>
<text text-anchor="start" x="494.2994" y="-893.9" font-family="Arial" font-size="14.00" fill="#666666">[longtext]</text>
<polygon fill="none" stroke="#000000" points="402.5,-852.5 402.5,-882.5 655.5,-882.5 655.5,-852.5 402.5,-852.5"/>
<text text-anchor="start" x="409.5" y="-863.9" font-family="Arial" font-size="14.00" fill="#000000">date_identified </text>
<text text-anchor="start" x="504.4256" y="-863.9" font-family="Arial" font-size="14.00" fill="#666666">[datetime]</text>
<polygon fill="none" stroke="#000000" points="402.5,-822.5 402.5,-852.5 655.5,-852.5 655.5,-822.5 402.5,-822.5"/>
<text text-anchor="start" x="409.2062" y="-833.9" font-family="Arial" font-size="14.00" fill="#000000">preferred_profile_image </text>
<text text-anchor="start" x="561.6746" y="-833.9" font-family="Arial" font-size="14.00" fill="#666666">[varchar(191)]</text>
<polygon fill="none" stroke="#000000" points="402.5,-792.5 402.5,-822.5 655.5,-822.5 655.5,-792.5 402.5,-792.5"/>
<text text-anchor="start" x="409.5" y="-803.9" font-family="Arial" font-size="14.00" fill="#000000">title </text>
<text text-anchor="start" x="435.1676" y="-803.9" font-family="Arial" font-size="14.00" fill="#666666">[varchar(191)]</text>
<polygon fill="none" stroke="#000000" points="402.5,-762.5 402.5,-792.5 655.5,-792.5 655.5,-762.5 402.5,-762.5"/>
<text text-anchor="start" x="409.5" y="-773.9" font-family="Arial" font-size="14.00" fill="#000000">firstname </text>
<text text-anchor="start" x="470.9474" y="-773.9" font-family="Arial" font-size="14.00" fill="#666666">[varchar(191)]</text>
<polygon fill="none" stroke="#000000" points="402.5,-732.5 402.5,-762.5 655.5,-762.5 655.5,-732.5 402.5,-732.5"/>
<text text-anchor="start" x="409.5" y="-743.9" font-family="Arial" font-size="14.00" fill="#000000">lastname </text>
<text text-anchor="start" x="470.1788" y="-743.9" font-family="Arial" font-size="14.00" fill="#666666">[varchar(191)]</text>
<polygon fill="none" stroke="#000000" points="402.5,-702.5 402.5,-732.5 655.5,-732.5 655.5,-702.5 402.5,-702.5"/>
<text text-anchor="start" x="409.5" y="-713.9" font-family="Arial" font-size="14.00" fill="#000000">company </text>
<text text-anchor="start" x="470.1816" y="-713.9" font-family="Arial" font-size="14.00" fill="#666666">[varchar(191)]</text>
<polygon fill="none" stroke="#000000" points="402.5,-672.5 402.5,-702.5 655.5,-702.5 655.5,-672.5 402.5,-672.5"/>
<text text-anchor="start" x="409.5" y="-683.9" font-family="Arial" font-size="14.00" fill="#000000">position </text>
<text text-anchor="start" x="461.6248" y="-683.9" font-family="Arial" font-size="14.00" fill="#666666">[varchar(191)]</text>
<polygon fill="none" stroke="#000000" points="402.5,-642.5 402.5,-672.5 655.5,-672.5 655.5,-642.5 402.5,-642.5"/>
<text text-anchor="start" x="409.5" y="-653.9" font-family="Arial" font-size="14.00" fill="#000000">email </text>
<text text-anchor="start" x="446.8296" y="-653.9" font-family="Arial" font-size="14.00" fill="#666666">[varchar(191)]</text>
<polygon fill="none" stroke="#000000" points="402.5,-612.5 402.5,-642.5 655.5,-642.5 655.5,-612.5 402.5,-612.5"/>
<text text-anchor="start" x="409.5" y="-623.9" font-family="Arial" font-size="14.00" fill="#000000">phone </text>
<text text-anchor="start" x="452.3036" y="-623.9" font-family="Arial" font-size="14.00" fill="#666666">[varchar(191)]</text>
<polygon fill="none" stroke="#000000" points="402.5,-582.5 402.5,-612.5 655.5,-612.5 655.5,-582.5 402.5,-582.5"/>
<text text-anchor="start" x="409.5" y="-593.9" font-family="Arial" font-size="14.00" fill="#000000">mobile </text>
<text text-anchor="start" x="454.6122" y="-593.9" font-family="Arial" font-size="14.00" fill="#666666">[varchar(191)]</text>
<polygon fill="none" stroke="#000000" points="402.5,-552.5 402.5,-582.5 655.5,-582.5 655.5,-552.5 402.5,-552.5"/>
<text text-anchor="start" x="409.5" y="-563.9" font-family="Arial" font-size="14.00" fill="#000000">address1 </text>
<text text-anchor="start" x="470.9642" y="-563.9" font-family="Arial" font-size="14.00" fill="#666666">[varchar(191)]</text>
<polygon fill="none" stroke="#000000" points="402.5,-522.5 402.5,-552.5 655.5,-552.5 655.5,-522.5 402.5,-522.5"/>
<text text-anchor="start" x="409.5" y="-533.9" font-family="Arial" font-size="14.00" fill="#000000">address2 </text>
<text text-anchor="start" x="470.9642" y="-533.9" font-family="Arial" font-size="14.00" fill="#666666">[varchar(191)]</text>
<polygon fill="none" stroke="#000000" points="402.5,-492.5 402.5,-522.5 655.5,-522.5 655.5,-492.5 402.5,-492.5"/>
<text text-anchor="start" x="409.5" y="-503.9" font-family="Arial" font-size="14.00" fill="#000000">city </text>
<text text-anchor="start" x="434.3878" y="-503.9" font-family="Arial" font-size="14.00" fill="#666666">[varchar(191)]</text>
<polygon fill="none" stroke="#000000" points="402.5,-462.5 402.5,-492.5 655.5,-492.5 655.5,-462.5 402.5,-462.5"/>
<text text-anchor="start" x="409.5" y="-473.9" font-family="Arial" font-size="14.00" fill="#000000">state </text>
<text text-anchor="start" x="443.737" y="-473.9" font-family="Arial" font-size="14.00" fill="#666666">[varchar(191)]</text>
<polygon fill="none" stroke="#000000" points="402.5,-432.5 402.5,-462.5 655.5,-462.5 655.5,-432.5 402.5,-432.5"/>
<text text-anchor="start" x="409.5" y="-443.9" font-family="Arial" font-size="14.00" fill="#000000">zipcode </text>
<text text-anchor="start" x="461.6276" y="-443.9" font-family="Arial" font-size="14.00" fill="#666666">[varchar(191)]</text>
<polygon fill="none" stroke="#000000" points="402.5,-402.5 402.5,-432.5 655.5,-432.5 655.5,-402.5 402.5,-402.5"/>
<text text-anchor="start" x="409.5" y="-413.9" font-family="Arial" font-size="14.00" fill="#000000">timezone </text>
<text text-anchor="start" x="470.1788" y="-413.9" font-family="Arial" font-size="14.00" fill="#666666">[varchar(191)]</text>
<polygon fill="none" stroke="#000000" points="402.5,-372.5 402.5,-402.5 655.5,-402.5 655.5,-372.5 402.5,-372.5"/>
<text text-anchor="start" x="409.5" y="-383.9" font-family="Arial" font-size="14.00" fill="#000000">country </text>
<text text-anchor="start" x="459.2896" y="-383.9" font-family="Arial" font-size="14.00" fill="#666666">[varchar(191)]</text>
<polygon fill="none" stroke="#000000" points="402.5,-342.5 402.5,-372.5 655.5,-372.5 655.5,-342.5 402.5,-342.5"/>
<text text-anchor="start" x="409.5" y="-353.9" font-family="Arial" font-size="14.00" fill="#000000">fax </text>
<text text-anchor="start" x="432.0638" y="-353.9" font-family="Arial" font-size="14.00" fill="#666666">[varchar(255)]</text>
<polygon fill="none" stroke="#000000" points="402.5,-312.5 402.5,-342.5 655.5,-342.5 655.5,-312.5 402.5,-312.5"/>
<text text-anchor="start" x="409.5" y="-323.9" font-family="Arial" font-size="14.00" fill="#000000">preferred_locale </text>
<text text-anchor="start" x="514.5196" y="-323.9" font-family="Arial" font-size="14.00" fill="#666666">[varchar(255)]</text>
<polygon fill="none" stroke="#000000" points="402.5,-282.5 402.5,-312.5 655.5,-312.5 655.5,-282.5 402.5,-282.5"/>
<text text-anchor="start" x="409.5" y="-293.9" font-family="Arial" font-size="14.00" fill="#000000">attribution_date </text>
<text text-anchor="start" x="509.8702" y="-293.9" font-family="Arial" font-size="14.00" fill="#666666">[datetime]</text>
<polygon fill="none" stroke="#000000" points="402.5,-252.5 402.5,-282.5 655.5,-282.5 655.5,-252.5 402.5,-252.5"/>
<text text-anchor="start" x="409.5" y="-263.9" font-family="Arial" font-size="14.00" fill="#000000">attribution </text>
<text text-anchor="start" x="474.8492" y="-263.9" font-family="Arial" font-size="14.00" fill="#666666">[double]</text>
<polygon fill="none" stroke="#000000" points="402.5,-222.5 402.5,-252.5 655.5,-252.5 655.5,-222.5 402.5,-222.5"/>
<text text-anchor="start" x="409.5" y="-233.9" font-family="Arial" font-size="14.00" fill="#000000">website </text>
<text text-anchor="start" x="460.8422" y="-233.9" font-family="Arial" font-size="14.00" fill="#666666">[longtext]</text>
<polygon fill="none" stroke="#000000" points="402.5,-192.5 402.5,-222.5 655.5,-222.5 655.5,-192.5 402.5,-192.5"/>
<text text-anchor="start" x="409.5" y="-203.9" font-family="Arial" font-size="14.00" fill="#000000">facebook </text>
<text text-anchor="start" x="470.1942" y="-203.9" font-family="Arial" font-size="14.00" fill="#666666">[varchar(255)]</text>
<polygon fill="none" stroke="#000000" points="402.5,-162.5 402.5,-192.5 655.5,-192.5 655.5,-162.5 402.5,-162.5"/>
<text text-anchor="start" x="409.5" y="-173.9" font-family="Arial" font-size="14.00" fill="#000000">foursquare </text>
<text text-anchor="start" x="480.298" y="-173.9" font-family="Arial" font-size="14.00" fill="#666666">[varchar(255)]</text>
<polygon fill="none" stroke="#000000" points="402.5,-132.5 402.5,-162.5 655.5,-162.5 655.5,-132.5 402.5,-132.5"/>
<text text-anchor="start" x="409.5" y="-143.9" font-family="Arial" font-size="14.00" fill="#000000">instagram </text>
<text text-anchor="start" x="474.8394" y="-143.9" font-family="Arial" font-size="14.00" fill="#666666">[varchar(255)]</text>
<polygon fill="none" stroke="#000000" points="402.5,-102.5 402.5,-132.5 655.5,-132.5 655.5,-102.5 402.5,-102.5"/>
<text text-anchor="start" x="409.5" y="-113.9" font-family="Arial" font-size="14.00" fill="#000000">linkedin </text>
<text text-anchor="start" x="460.8408" y="-113.9" font-family="Arial" font-size="14.00" fill="#666666">[varchar(255)]</text>
<polygon fill="none" stroke="#000000" points="402.5,-72.5 402.5,-102.5 655.5,-102.5 655.5,-72.5 402.5,-72.5"/>
<text text-anchor="start" x="409.5" y="-83.9" font-family="Arial" font-size="14.00" fill="#000000">skype </text>
<text text-anchor="start" x="449.9558" y="-83.9" font-family="Arial" font-size="14.00" fill="#666666">[varchar(255)]</text>
<polygon fill="none" stroke="#000000" points="402.5,-42.5 402.5,-72.5 655.5,-72.5 655.5,-42.5 402.5,-42.5"/>
<text text-anchor="start" x="409.5" y="-53.9" font-family="Arial" font-size="14.00" fill="#000000">twitter </text>
<text text-anchor="start" x="450.7188" y="-53.9" font-family="Arial" font-size="14.00" fill="#666666">[varchar(255)]</text>
</g>
<!-- push_notification_stats&#45;&gt;leads -->
<g id="edge2" class="edge">
<title>push_notification_stats:lead_id&#45;&gt;leads:id</title>
<path fill="none" stroke="#000000" d="M547.4131,-1987.264C346.8956,-1977.6924 437.2397,-1679.295 557.5,-1507 584.0581,-1468.9506 628.9419,-1509.0494 655.5,-1471 679.2846,-1436.9242 697.0556,-1377.5 655.5,-1377.5"/>
<polygon fill="#000000" stroke="#000000" points="547.5027,-1987.266 557.3947,-1991.9988 552.5014,-1987.383 557.5,-1987.5 557.5,-1987.5 557.5,-1987.5 552.5014,-1987.383 557.6053,-1983.0012 547.5027,-1987.266 547.5027,-1987.266"/>
<text text-anchor="start" x="325.996" y="-1997.5" font-family="Arial" font-size="10.00" fill="#000000">FOREIGN KEY (lead_id) REFERENCES leads (id)</text>
</g>
<!-- lead_lists -->
<g id="node4" class="node">
<title>lead_lists</title>
<polygon fill="#efefef" stroke="transparent" points="759.5,-1002.5 759.5,-1037.5 1000.5,-1037.5 1000.5,-1002.5 759.5,-1002.5"/>
<polygon fill="none" stroke="#000000" points="759.5,-1002.5 759.5,-1037.5 1000.5,-1037.5 1000.5,-1002.5 759.5,-1002.5"/>
<text text-anchor="start" x="793.8683" y="-1015.3" font-family="Arial Bold" font-size="18.00" fill="#000000">lead_lists</text>
<text text-anchor="start" x="868.8779" y="-1015.3" font-family="Arial" font-size="14.00" fill="#000000"> </text>
<text text-anchor="start" x="872.7685" y="-1015.3" font-family="Arial" font-size="14.00" fill="#666666">[BASE TABLE]</text>
<polygon fill="none" stroke="#000000" points="759.5,-972.5 759.5,-1002.5 1000.5,-1002.5 1000.5,-972.5 759.5,-972.5"/>
<text text-anchor="start" x="766.5" y="-983.9" font-family="Arial" font-size="14.00" fill="#000000">id </text>
<text text-anchor="start" x="781.2798" y="-983.9" font-family="Arial" font-size="14.00" fill="#666666">[int(10) unsigned]</text>
<polygon fill="none" stroke="#000000" points="759.5,-942.5 759.5,-972.5 1000.5,-972.5 1000.5,-942.5 759.5,-942.5"/>
<text text-anchor="start" x="766.5" y="-953.9" font-family="Arial" font-size="14.00" fill="#000000">category_id </text>
<text text-anchor="start" x="842.744" y="-953.9" font-family="Arial" font-size="14.00" fill="#666666">[int(10) unsigned]</text>
<polygon fill="none" stroke="#000000" points="759.5,-912.5 759.5,-942.5 1000.5,-942.5 1000.5,-912.5 759.5,-912.5"/>
<text text-anchor="start" x="766.5" y="-923.9" font-family="Arial" font-size="14.00" fill="#000000">is_published </text>
<text text-anchor="start" x="848.1886" y="-923.9" font-family="Arial" font-size="14.00" fill="#666666">[tinyint(1)]</text>
<polygon fill="none" stroke="#000000" points="759.5,-882.5 759.5,-912.5 1000.5,-912.5 1000.5,-882.5 759.5,-882.5"/>
<text text-anchor="start" x="766.5" y="-893.9" font-family="Arial" font-size="14.00" fill="#000000">date_added </text>
<text text-anchor="start" x="844.3246" y="-893.9" font-family="Arial" font-size="14.00" fill="#666666">[datetime]</text>
<polygon fill="none" stroke="#000000" points="759.5,-852.5 759.5,-882.5 1000.5,-882.5 1000.5,-852.5 759.5,-852.5"/>
<text text-anchor="start" x="766.5" y="-863.9" font-family="Arial" font-size="14.00" fill="#000000">created_by </text>
<text text-anchor="start" x="839.6374" y="-863.9" font-family="Arial" font-size="14.00" fill="#666666">[int(11)]</text>
<polygon fill="none" stroke="#000000" points="759.5,-822.5 759.5,-852.5 1000.5,-852.5 1000.5,-822.5 759.5,-822.5"/>
<text text-anchor="start" x="766.5" y="-833.9" font-family="Arial" font-size="14.00" fill="#000000">created_by_user </text>
<text text-anchor="start" x="874.6458" y="-833.9" font-family="Arial" font-size="14.00" fill="#666666">[varchar(191)]</text>
<polygon fill="none" stroke="#000000" points="759.5,-792.5 759.5,-822.5 1000.5,-822.5 1000.5,-792.5 759.5,-792.5"/>
<text text-anchor="start" x="766.5" y="-803.9" font-family="Arial" font-size="14.00" fill="#000000">date_modified </text>
<text text-anchor="start" x="858.3064" y="-803.9" font-family="Arial" font-size="14.00" fill="#666666">[datetime]</text>
<polygon fill="none" stroke="#000000" points="759.5,-762.5 759.5,-792.5 1000.5,-792.5 1000.5,-762.5 759.5,-762.5"/>
<text text-anchor="start" x="766.5" y="-773.9" font-family="Arial" font-size="14.00" fill="#000000">modified_by </text>
<text text-anchor="start" x="845.8506" y="-773.9" font-family="Arial" font-size="14.00" fill="#666666">[int(11)]</text>
<polygon fill="none" stroke="#000000" points="759.5,-732.5 759.5,-762.5 1000.5,-762.5 1000.5,-732.5 759.5,-732.5"/>
<text text-anchor="start" x="766.5" y="-743.9" font-family="Arial" font-size="14.00" fill="#000000">modified_by_user </text>
<text text-anchor="start" x="880.859" y="-743.9" font-family="Arial" font-size="14.00" fill="#666666">[varchar(191)]</text>
<polygon fill="none" stroke="#000000" points="759.5,-702.5 759.5,-732.5 1000.5,-732.5 1000.5,-702.5 759.5,-702.5"/>
<text text-anchor="start" x="766.5" y="-713.9" font-family="Arial" font-size="14.00" fill="#000000">checked_out </text>
<text text-anchor="start" x="849.7594" y="-713.9" font-family="Arial" font-size="14.00" fill="#666666">[datetime]</text>
<polygon fill="none" stroke="#000000" points="759.5,-672.5 759.5,-702.5 1000.5,-702.5 1000.5,-672.5 759.5,-672.5"/>
<text text-anchor="start" x="766.5" y="-683.9" font-family="Arial" font-size="14.00" fill="#000000">checked_out_by </text>
<text text-anchor="start" x="872.3246" y="-683.9" font-family="Arial" font-size="14.00" fill="#666666">[int(11)]</text>
<polygon fill="none" stroke="#000000" points="759.5,-642.5 759.5,-672.5 1000.5,-672.5 1000.5,-642.5 759.5,-642.5"/>
<text text-anchor="start" x="766.0239" y="-653.9" font-family="Arial" font-size="14.00" fill="#000000">checked_out_by_user </text>
<text text-anchor="start" x="906.8569" y="-653.9" font-family="Arial" font-size="14.00" fill="#666666">[varchar(191)]</text>
<polygon fill="none" stroke="#000000" points="759.5,-612.5 759.5,-642.5 1000.5,-642.5 1000.5,-612.5 759.5,-612.5"/>
<text text-anchor="start" x="766.5" y="-623.9" font-family="Arial" font-size="14.00" fill="#000000">name </text>
<text text-anchor="start" x="805.399" y="-623.9" font-family="Arial" font-size="14.00" fill="#666666">[varchar(191)]</text>
<polygon fill="none" stroke="#000000" points="759.5,-582.5 759.5,-612.5 1000.5,-612.5 1000.5,-582.5 759.5,-582.5"/>
<text text-anchor="start" x="766.5" y="-593.9" font-family="Arial" font-size="14.00" fill="#000000">description </text>
<text text-anchor="start" x="838.068" y="-593.9" font-family="Arial" font-size="14.00" fill="#666666">[longtext]</text>
<polygon fill="none" stroke="#000000" points="759.5,-552.5 759.5,-582.5 1000.5,-582.5 1000.5,-552.5 759.5,-552.5"/>
<text text-anchor="start" x="766.5" y="-563.9" font-family="Arial" font-size="14.00" fill="#000000">alias </text>
<text text-anchor="start" x="799.169" y="-563.9" font-family="Arial" font-size="14.00" fill="#666666">[varchar(191)]</text>
<polygon fill="none" stroke="#000000" points="759.5,-522.5 759.5,-552.5 1000.5,-552.5 1000.5,-522.5 759.5,-522.5"/>
<text text-anchor="start" x="766.5" y="-533.9" font-family="Arial" font-size="14.00" fill="#000000">public_name </text>
<text text-anchor="start" x="849.7426" y="-533.9" font-family="Arial" font-size="14.00" fill="#666666">[varchar(191)]</text>
<polygon fill="none" stroke="#000000" points="759.5,-492.5 759.5,-522.5 1000.5,-522.5 1000.5,-492.5 759.5,-492.5"/>
<text text-anchor="start" x="766.5" y="-503.9" font-family="Arial" font-size="14.00" fill="#000000">filters </text>
<text text-anchor="start" x="803.8282" y="-503.9" font-family="Arial" font-size="14.00" fill="#666666">[longtext]</text>
<polygon fill="none" stroke="#000000" points="759.5,-462.5 759.5,-492.5 1000.5,-492.5 1000.5,-462.5 759.5,-462.5"/>
<text text-anchor="start" x="766.5" y="-473.9" font-family="Arial" font-size="14.00" fill="#000000">is_global </text>
<text text-anchor="start" x="825.6234" y="-473.9" font-family="Arial" font-size="14.00" fill="#666666">[tinyint(1)]</text>
<polygon fill="none" stroke="#000000" points="759.5,-432.5 759.5,-462.5 1000.5,-462.5 1000.5,-432.5 759.5,-432.5"/>
<text text-anchor="start" x="766.5" y="-443.9" font-family="Arial" font-size="14.00" fill="#000000">is_preference_center </text>
<text text-anchor="start" x="901.8688" y="-443.9" font-family="Arial" font-size="14.00" fill="#666666">[tinyint(1)]</text>
</g>
<!-- push_notification_stats&#45;&gt;lead_lists -->
<g id="edge3" class="edge">
<title>push_notification_stats:list_id&#45;&gt;lead_lists:id</title>
<path fill="none" stroke="#000000" d="M861.4804,-1956.4151C1011.8577,-1922.1101 759.9989,-1085.6735 759.5,-1081 755.089,-1039.6792 717.9444,-987.5 759.5,-987.5"/>
<polygon fill="#000000" stroke="#000000" points="861.4414,-1956.4193 851.0137,-1953.0264 856.4707,-1956.9596 851.5,-1957.5 851.5,-1957.5 851.5,-1957.5 856.4707,-1956.9596 851.9863,-1961.9736 861.4414,-1956.4193 861.4414,-1956.4193"/>
<text text-anchor="start" x="858.4475" y="-1967.5" font-family="Arial" font-size="10.00" fill="#000000">FOREIGN KEY (list_id) REFERENCES lead_lists (id)</text>
</g>
<!-- ip_addresses -->
<g id="node5" class="node">
<title>ip_addresses</title>
<polygon fill="#efefef" stroke="transparent" points="1104.5,-762.5 1104.5,-797.5 1322.5,-797.5 1322.5,-762.5 1104.5,-762.5"/>
<polygon fill="none" stroke="#000000" points="1104.5,-762.5 1104.5,-797.5 1322.5,-797.5 1322.5,-762.5 1104.5,-762.5"/>
<text text-anchor="start" x="1111.3582" y="-775.3" font-family="Arial Bold" font-size="18.00" fill="#000000">ip_addresses</text>
<text text-anchor="start" x="1218.388" y="-775.3" font-family="Arial" font-size="14.00" fill="#000000"> </text>
<text text-anchor="start" x="1222.2786" y="-775.3" font-family="Arial" font-size="14.00" fill="#666666">[BASE TABLE]</text>
<polygon fill="none" stroke="#000000" points="1104.5,-732.5 1104.5,-762.5 1322.5,-762.5 1322.5,-732.5 1104.5,-732.5"/>
<text text-anchor="start" x="1111.5" y="-743.9" font-family="Arial" font-size="14.00" fill="#000000">id </text>
<text text-anchor="start" x="1126.2798" y="-743.9" font-family="Arial" font-size="14.00" fill="#666666">[int(10) unsigned]</text>
<polygon fill="none" stroke="#000000" points="1104.5,-702.5 1104.5,-732.5 1322.5,-732.5 1322.5,-702.5 1104.5,-702.5"/>
<text text-anchor="start" x="1111.5" y="-713.9" font-family="Arial" font-size="14.00" fill="#000000">ip_address </text>
<text text-anchor="start" x="1183.8534" y="-713.9" font-family="Arial" font-size="14.00" fill="#666666">[varchar(45)]</text>
<polygon fill="none" stroke="#000000" points="1104.5,-672.5 1104.5,-702.5 1322.5,-702.5 1322.5,-672.5 1104.5,-672.5"/>
<text text-anchor="start" x="1111.5" y="-683.9" font-family="Arial" font-size="14.00" fill="#000000">ip_details </text>
<text text-anchor="start" x="1174.514" y="-683.9" font-family="Arial" font-size="14.00" fill="#666666">[longtext]</text>
</g>
<!-- push_notification_stats&#45;&gt;ip_addresses -->
<g id="edge4" class="edge">
<title>push_notification_stats:ip_id&#45;&gt;ip_addresses:id</title>
<path fill="none" stroke="#000000" d="M861.6765,-1927.3243C1070.9013,-1919.9645 999.9382,-1682.7967 1052.5,-1471 1071.9128,-1392.7766 1023.9037,-747.5 1104.5,-747.5"/>
<polygon fill="#000000" stroke="#000000" points="861.4985,-1927.3272 851.4223,-1923.0007 856.4993,-1927.4136 851.5,-1927.5 851.5,-1927.5 851.5,-1927.5 856.4993,-1927.4136 851.5777,-1931.9993 861.4985,-1927.3272 861.4985,-1927.3272"/>
<text text-anchor="start" x="858.7725" y="-1937.5" font-family="Arial" font-size="10.00" fill="#000000">FOREIGN KEY (ip_id) REFERENCES ip_addresses (id)</text>
</g>
</g>
</svg>
