<?xml version="1.0" encoding="UTF-8" standalone="no"?>
<!DOCTYPE svg PUBLIC "-//W3C//DTD SVG 1.1//EN"
 "http://www.w3.org/Graphics/SVG/1.1/DTD/svg11.dtd">
<!-- Generated by graphviz version 2.40.1 (20161225.0304)
 -->
<!-- Title: push_notifications Pages: 1 -->
<svg width="841pt" height="2249pt"
 viewBox="0.00 0.00 841.21 2249.00" xmlns="http://www.w3.org/2000/svg" xmlns:xlink="http://www.w3.org/1999/xlink">
<g id="graph0" class="graph" transform="scale(1 1) rotate(0) translate(4 2245)">
<title>push_notifications</title>
<polygon fill="#ffffff" stroke="transparent" points="-4,4 -4,-2245 837.205,-2245 837.205,4 -4,4"/>
<!-- push_notifications -->
<g id="node1" class="node">
<title>push_notifications</title>
<polygon fill="#efefef" stroke="transparent" points="310.205,-1492.5 310.205,-1527.5 565.205,-1527.5 565.205,-1492.5 310.205,-1492.5"/>
<polygon fill="none" stroke="#000000" points="310.205,-1492.5 310.205,-1527.5 565.205,-1527.5 565.205,-1492.5 310.205,-1492.5"/>
<text text-anchor="start" x="317.0556" y="-1505.3" font-family="Arial Bold" font-size="18.00" fill="#000000">push_notifications</text>
<text text-anchor="start" x="461.1006" y="-1505.3" font-family="Arial" font-size="14.00" fill="#000000"> </text>
<text text-anchor="start" x="464.9912" y="-1505.3" font-family="Arial" font-size="14.00" fill="#666666">[BASE TABLE]</text>
<polygon fill="none" stroke="#000000" points="310.205,-1462.5 310.205,-1492.5 565.205,-1492.5 565.205,-1462.5 310.205,-1462.5"/>
<text text-anchor="start" x="317.205" y="-1473.9" font-family="Arial" font-size="14.00" fill="#000000">id </text>
<text text-anchor="start" x="331.9848" y="-1473.9" font-family="Arial" font-size="14.00" fill="#666666">[int(10) unsigned]</text>
<polygon fill="none" stroke="#000000" points="310.205,-1432.5 310.205,-1462.5 565.205,-1462.5 565.205,-1432.5 310.205,-1432.5"/>
<text text-anchor="start" x="317.205" y="-1443.9" font-family="Arial" font-size="14.00" fill="#000000">category_id </text>
<text text-anchor="start" x="393.449" y="-1443.9" font-family="Arial" font-size="14.00" fill="#666666">[int(10) unsigned]</text>
<polygon fill="none" stroke="#000000" points="310.205,-1402.5 310.205,-1432.5 565.205,-1432.5 565.205,-1402.5 310.205,-1402.5"/>
<text text-anchor="start" x="317.205" y="-1413.9" font-family="Arial" font-size="14.00" fill="#000000">is_published </text>
<text text-anchor="start" x="398.8936" y="-1413.9" font-family="Arial" font-size="14.00" fill="#666666">[tinyint(1)]</text>
<polygon fill="none" stroke="#000000" points="310.205,-1372.5 310.205,-1402.5 565.205,-1402.5 565.205,-1372.5 310.205,-1372.5"/>
<text text-anchor="start" x="317.205" y="-1383.9" font-family="Arial" font-size="14.00" fill="#000000">date_added </text>
<text text-anchor="start" x="395.0296" y="-1383.9" font-family="Arial" font-size="14.00" fill="#666666">[datetime]</text>
<polygon fill="none" stroke="#000000" points="310.205,-1342.5 310.205,-1372.5 565.205,-1372.5 565.205,-1342.5 310.205,-1342.5"/>
<text text-anchor="start" x="317.205" y="-1353.9" font-family="Arial" font-size="14.00" fill="#000000">created_by </text>
<text text-anchor="start" x="390.3424" y="-1353.9" font-family="Arial" font-size="14.00" fill="#666666">[int(11)]</text>
<polygon fill="none" stroke="#000000" points="310.205,-1312.5 310.205,-1342.5 565.205,-1342.5 565.205,-1312.5 310.205,-1312.5"/>
<text text-anchor="start" x="317.205" y="-1323.9" font-family="Arial" font-size="14.00" fill="#000000">created_by_user </text>
<text text-anchor="start" x="425.3508" y="-1323.9" font-family="Arial" font-size="14.00" fill="#666666">[varchar(191)]</text>
<polygon fill="none" stroke="#000000" points="310.205,-1282.5 310.205,-1312.5 565.205,-1312.5 565.205,-1282.5 310.205,-1282.5"/>
<text text-anchor="start" x="317.205" y="-1293.9" font-family="Arial" font-size="14.00" fill="#000000">date_modified </text>
<text text-anchor="start" x="409.0114" y="-1293.9" font-family="Arial" font-size="14.00" fill="#666666">[datetime]</text>
<polygon fill="none" stroke="#000000" points="310.205,-1252.5 310.205,-1282.5 565.205,-1282.5 565.205,-1252.5 310.205,-1252.5"/>
<text text-anchor="start" x="317.205" y="-1263.9" font-family="Arial" font-size="14.00" fill="#000000">modified_by </text>
<text text-anchor="start" x="396.5556" y="-1263.9" font-family="Arial" font-size="14.00" fill="#666666">[int(11)]</text>
<polygon fill="none" stroke="#000000" points="310.205,-1222.5 310.205,-1252.5 565.205,-1252.5 565.205,-1222.5 310.205,-1222.5"/>
<text text-anchor="start" x="317.205" y="-1233.9" font-family="Arial" font-size="14.00" fill="#000000">modified_by_user </text>
<text text-anchor="start" x="431.564" y="-1233.9" font-family="Arial" font-size="14.00" fill="#666666">[varchar(191)]</text>
<polygon fill="none" stroke="#000000" points="310.205,-1192.5 310.205,-1222.5 565.205,-1222.5 565.205,-1192.5 310.205,-1192.5"/>
<text text-anchor="start" x="317.205" y="-1203.9" font-family="Arial" font-size="14.00" fill="#000000">checked_out </text>
<text text-anchor="start" x="400.4644" y="-1203.9" font-family="Arial" font-size="14.00" fill="#666666">[datetime]</text>
<polygon fill="none" stroke="#000000" points="310.205,-1162.5 310.205,-1192.5 565.205,-1192.5 565.205,-1162.5 310.205,-1162.5"/>
<text text-anchor="start" x="317.205" y="-1173.9" font-family="Arial" font-size="14.00" fill="#000000">checked_out_by </text>
<text text-anchor="start" x="423.0296" y="-1173.9" font-family="Arial" font-size="14.00" fill="#666666">[int(11)]</text>
<polygon fill="none" stroke="#000000" points="310.205,-1132.5 310.205,-1162.5 565.205,-1162.5 565.205,-1132.5 310.205,-1132.5"/>
<text text-anchor="start" x="317.205" y="-1143.9" font-family="Arial" font-size="14.00" fill="#000000">checked_out_by_user </text>
<text text-anchor="start" x="458.038" y="-1143.9" font-family="Arial" font-size="14.00" fill="#666666">[varchar(191)]</text>
<polygon fill="none" stroke="#000000" points="310.205,-1102.5 310.205,-1132.5 565.205,-1132.5 565.205,-1102.5 310.205,-1102.5"/>
<text text-anchor="start" x="317.205" y="-1113.9" font-family="Arial" font-size="14.00" fill="#000000">name </text>
<text text-anchor="start" x="356.104" y="-1113.9" font-family="Arial" font-size="14.00" fill="#666666">[varchar(191)]</text>
<polygon fill="none" stroke="#000000" points="310.205,-1072.5 310.205,-1102.5 565.205,-1102.5 565.205,-1072.5 310.205,-1072.5"/>
<text text-anchor="start" x="317.205" y="-1083.9" font-family="Arial" font-size="14.00" fill="#000000">description </text>
<text text-anchor="start" x="388.773" y="-1083.9" font-family="Arial" font-size="14.00" fill="#666666">[longtext]</text>
<polygon fill="none" stroke="#000000" points="310.205,-1042.5 310.205,-1072.5 565.205,-1072.5 565.205,-1042.5 310.205,-1042.5"/>
<text text-anchor="start" x="317.205" y="-1053.9" font-family="Arial" font-size="14.00" fill="#000000">lang </text>
<text text-anchor="start" x="347.55" y="-1053.9" font-family="Arial" font-size="14.00" fill="#666666">[varchar(191)]</text>
<polygon fill="none" stroke="#000000" points="310.205,-1012.5 310.205,-1042.5 565.205,-1042.5 565.205,-1012.5 310.205,-1012.5"/>
<text text-anchor="start" x="317.205" y="-1023.9" font-family="Arial" font-size="14.00" fill="#000000">url </text>
<text text-anchor="start" x="336.6454" y="-1023.9" font-family="Arial" font-size="14.00" fill="#666666">[longtext]</text>
<polygon fill="none" stroke="#000000" points="310.205,-982.5 310.205,-1012.5 565.205,-1012.5 565.205,-982.5 310.205,-982.5"/>
<text text-anchor="start" x="317.205" y="-993.9" font-family="Arial" font-size="14.00" fill="#000000">heading </text>
<text text-anchor="start" x="370.8978" y="-993.9" font-family="Arial" font-size="14.00" fill="#666666">[longtext]</text>
<polygon fill="none" stroke="#000000" points="310.205,-952.5 310.205,-982.5 565.205,-982.5 565.205,-952.5 310.205,-952.5"/>
<text text-anchor="start" x="317.205" y="-963.9" font-family="Arial" font-size="14.00" fill="#000000">message </text>
<text text-anchor="start" x="377.8866" y="-963.9" font-family="Arial" font-size="14.00" fill="#666666">[longtext]</text>
<polygon fill="none" stroke="#000000" points="310.205,-922.5 310.205,-952.5 565.205,-952.5 565.205,-922.5 310.205,-922.5"/>
<text text-anchor="start" x="317.205" y="-933.9" font-family="Arial" font-size="14.00" fill="#000000">button </text>
<text text-anchor="start" x="360.0072" y="-933.9" font-family="Arial" font-size="14.00" fill="#666666">[longtext]</text>
<polygon fill="none" stroke="#000000" points="310.205,-892.5 310.205,-922.5 565.205,-922.5 565.205,-892.5 310.205,-892.5"/>
<text text-anchor="start" x="317.205" y="-903.9" font-family="Arial" font-size="14.00" fill="#000000">utm_tags </text>
<text text-anchor="start" x="378.6678" y="-903.9" font-family="Arial" font-size="14.00" fill="#666666">[longtext]</text>
<polygon fill="none" stroke="#000000" points="310.205,-862.5 310.205,-892.5 565.205,-892.5 565.205,-862.5 310.205,-862.5"/>
<text text-anchor="start" x="317.205" y="-873.9" font-family="Arial" font-size="14.00" fill="#000000">notification_type </text>
<text text-anchor="start" x="422.2386" y="-873.9" font-family="Arial" font-size="14.00" fill="#666666">[longtext]</text>
<polygon fill="none" stroke="#000000" points="310.205,-832.5 310.205,-862.5 565.205,-862.5 565.205,-832.5 310.205,-832.5"/>
<text text-anchor="start" x="317.205" y="-843.9" font-family="Arial" font-size="14.00" fill="#000000">publish_up </text>
<text text-anchor="start" x="388.787" y="-843.9" font-family="Arial" font-size="14.00" fill="#666666">[datetime]</text>
<polygon fill="none" stroke="#000000" points="310.205,-802.5 310.205,-832.5 565.205,-832.5 565.205,-802.5 310.205,-802.5"/>
<text text-anchor="start" x="317.205" y="-813.9" font-family="Arial" font-size="14.00" fill="#000000">publish_down </text>
<text text-anchor="start" x="406.6762" y="-813.9" font-family="Arial" font-size="14.00" fill="#666666">[datetime]</text>
<polygon fill="none" stroke="#000000" points="310.205,-772.5 310.205,-802.5 565.205,-802.5 565.205,-772.5 310.205,-772.5"/>
<text text-anchor="start" x="317.205" y="-783.9" font-family="Arial" font-size="14.00" fill="#000000">read_count </text>
<text text-anchor="start" x="391.125" y="-783.9" font-family="Arial" font-size="14.00" fill="#666666">[int(11)]</text>
<polygon fill="none" stroke="#000000" points="310.205,-742.5 310.205,-772.5 565.205,-772.5 565.205,-742.5 310.205,-742.5"/>
<text text-anchor="start" x="317.205" y="-753.9" font-family="Arial" font-size="14.00" fill="#000000">sent_count </text>
<text text-anchor="start" x="389.5724" y="-753.9" font-family="Arial" font-size="14.00" fill="#666666">[int(11)]</text>
<polygon fill="none" stroke="#000000" points="310.205,-712.5 310.205,-742.5 565.205,-742.5 565.205,-712.5 310.205,-712.5"/>
<text text-anchor="start" x="317.205" y="-723.9" font-family="Arial" font-size="14.00" fill="#000000">mobile </text>
<text text-anchor="start" x="362.3172" y="-723.9" font-family="Arial" font-size="14.00" fill="#666666">[tinyint(1)]</text>
<polygon fill="none" stroke="#000000" points="310.205,-682.5 310.205,-712.5 565.205,-712.5 565.205,-682.5 310.205,-682.5"/>
<text text-anchor="start" x="317.205" y="-693.9" font-family="Arial" font-size="14.00" fill="#000000">mobileSettings </text>
<text text-anchor="start" x="412.8894" y="-693.9" font-family="Arial" font-size="14.00" fill="#666666">[longtext]</text>
<polygon fill="none" stroke="#000000" stroke-width="3" points="308.205,-681.5 308.205,-1529.5 566.205,-1529.5 566.205,-681.5 308.205,-681.5"/>
</g>
<!-- categories -->
<g id="node4" class="node">
<title>categories</title>
<polygon fill="#efefef" stroke="transparent" points="317.205,-522.5 317.205,-557.5 558.205,-557.5 558.205,-522.5 317.205,-522.5"/>
<polygon fill="none" stroke="#000000" points="317.205,-522.5 317.205,-557.5 558.205,-557.5 558.205,-522.5 317.205,-522.5"/>
<text text-anchor="start" x="347.5683" y="-535.3" font-family="Arial Bold" font-size="18.00" fill="#000000">categories</text>
<text text-anchor="start" x="430.5879" y="-535.3" font-family="Arial" font-size="14.00" fill="#000000"> </text>
<text text-anchor="start" x="434.4785" y="-535.3" font-family="Arial" font-size="14.00" fill="#666666">[BASE TABLE]</text>
<polygon fill="none" stroke="#000000" points="317.205,-492.5 317.205,-522.5 558.205,-522.5 558.205,-492.5 317.205,-492.5"/>
<text text-anchor="start" x="324.205" y="-503.9" font-family="Arial" font-size="14.00" fill="#000000">id </text>
<text text-anchor="start" x="338.9848" y="-503.9" font-family="Arial" font-size="14.00" fill="#666666">[int(10) unsigned]</text>
<polygon fill="none" stroke="#000000" points="317.205,-462.5 317.205,-492.5 558.205,-492.5 558.205,-462.5 317.205,-462.5"/>
<text text-anchor="start" x="324.205" y="-473.9" font-family="Arial" font-size="14.00" fill="#000000">is_published </text>
<text text-anchor="start" x="405.8936" y="-473.9" font-family="Arial" font-size="14.00" fill="#666666">[tinyint(1)]</text>
<polygon fill="none" stroke="#000000" points="317.205,-432.5 317.205,-462.5 558.205,-462.5 558.205,-432.5 317.205,-432.5"/>
<text text-anchor="start" x="324.205" y="-443.9" font-family="Arial" font-size="14.00" fill="#000000">date_added </text>
<text text-anchor="start" x="402.0296" y="-443.9" font-family="Arial" font-size="14.00" fill="#666666">[datetime]</text>
<polygon fill="none" stroke="#000000" points="317.205,-402.5 317.205,-432.5 558.205,-432.5 558.205,-402.5 317.205,-402.5"/>
<text text-anchor="start" x="324.205" y="-413.9" font-family="Arial" font-size="14.00" fill="#000000">created_by </text>
<text text-anchor="start" x="397.3424" y="-413.9" font-family="Arial" font-size="14.00" fill="#666666">[int(11)]</text>
<polygon fill="none" stroke="#000000" points="317.205,-372.5 317.205,-402.5 558.205,-402.5 558.205,-372.5 317.205,-372.5"/>
<text text-anchor="start" x="324.205" y="-383.9" font-family="Arial" font-size="14.00" fill="#000000">created_by_user </text>
<text text-anchor="start" x="432.3508" y="-383.9" font-family="Arial" font-size="14.00" fill="#666666">[varchar(191)]</text>
<polygon fill="none" stroke="#000000" points="317.205,-342.5 317.205,-372.5 558.205,-372.5 558.205,-342.5 317.205,-342.5"/>
<text text-anchor="start" x="324.205" y="-353.9" font-family="Arial" font-size="14.00" fill="#000000">date_modified </text>
<text text-anchor="start" x="416.0114" y="-353.9" font-family="Arial" font-size="14.00" fill="#666666">[datetime]</text>
<polygon fill="none" stroke="#000000" points="317.205,-312.5 317.205,-342.5 558.205,-342.5 558.205,-312.5 317.205,-312.5"/>
<text text-anchor="start" x="324.205" y="-323.9" font-family="Arial" font-size="14.00" fill="#000000">modified_by </text>
<text text-anchor="start" x="403.5556" y="-323.9" font-family="Arial" font-size="14.00" fill="#666666">[int(11)]</text>
<polygon fill="none" stroke="#000000" points="317.205,-282.5 317.205,-312.5 558.205,-312.5 558.205,-282.5 317.205,-282.5"/>
<text text-anchor="start" x="324.205" y="-293.9" font-family="Arial" font-size="14.00" fill="#000000">modified_by_user </text>
<text text-anchor="start" x="438.564" y="-293.9" font-family="Arial" font-size="14.00" fill="#666666">[varchar(191)]</text>
<polygon fill="none" stroke="#000000" points="317.205,-252.5 317.205,-282.5 558.205,-282.5 558.205,-252.5 317.205,-252.5"/>
<text text-anchor="start" x="324.205" y="-263.9" font-family="Arial" font-size="14.00" fill="#000000">checked_out </text>
<text text-anchor="start" x="407.4644" y="-263.9" font-family="Arial" font-size="14.00" fill="#666666">[datetime]</text>
<polygon fill="none" stroke="#000000" points="317.205,-222.5 317.205,-252.5 558.205,-252.5 558.205,-222.5 317.205,-222.5"/>
<text text-anchor="start" x="324.205" y="-233.9" font-family="Arial" font-size="14.00" fill="#000000">checked_out_by </text>
<text text-anchor="start" x="430.0296" y="-233.9" font-family="Arial" font-size="14.00" fill="#666666">[int(11)]</text>
<polygon fill="none" stroke="#000000" points="317.205,-192.5 317.205,-222.5 558.205,-222.5 558.205,-192.5 317.205,-192.5"/>
<text text-anchor="start" x="323.7289" y="-203.9" font-family="Arial" font-size="14.00" fill="#000000">checked_out_by_user </text>
<text text-anchor="start" x="464.5619" y="-203.9" font-family="Arial" font-size="14.00" fill="#666666">[varchar(191)]</text>
<polygon fill="none" stroke="#000000" points="317.205,-162.5 317.205,-192.5 558.205,-192.5 558.205,-162.5 317.205,-162.5"/>
<text text-anchor="start" x="324.205" y="-173.9" font-family="Arial" font-size="14.00" fill="#000000">title </text>
<text text-anchor="start" x="349.8726" y="-173.9" font-family="Arial" font-size="14.00" fill="#666666">[varchar(191)]</text>
<polygon fill="none" stroke="#000000" points="317.205,-132.5 317.205,-162.5 558.205,-162.5 558.205,-132.5 317.205,-132.5"/>
<text text-anchor="start" x="324.205" y="-143.9" font-family="Arial" font-size="14.00" fill="#000000">description </text>
<text text-anchor="start" x="395.773" y="-143.9" font-family="Arial" font-size="14.00" fill="#666666">[longtext]</text>
<polygon fill="none" stroke="#000000" points="317.205,-102.5 317.205,-132.5 558.205,-132.5 558.205,-102.5 317.205,-102.5"/>
<text text-anchor="start" x="324.205" y="-113.9" font-family="Arial" font-size="14.00" fill="#000000">alias </text>
<text text-anchor="start" x="356.874" y="-113.9" font-family="Arial" font-size="14.00" fill="#666666">[varchar(191)]</text>
<polygon fill="none" stroke="#000000" points="317.205,-72.5 317.205,-102.5 558.205,-102.5 558.205,-72.5 317.205,-72.5"/>
<text text-anchor="start" x="324.205" y="-83.9" font-family="Arial" font-size="14.00" fill="#000000">color </text>
<text text-anchor="start" x="358.428" y="-83.9" font-family="Arial" font-size="14.00" fill="#666666">[varchar(7)]</text>
<polygon fill="none" stroke="#000000" points="317.205,-42.5 317.205,-72.5 558.205,-72.5 558.205,-42.5 317.205,-42.5"/>
<text text-anchor="start" x="324.205" y="-53.9" font-family="Arial" font-size="14.00" fill="#000000">bundle </text>
<text text-anchor="start" x="370.1152" y="-53.9" font-family="Arial" font-size="14.00" fill="#666666">[varchar(50)]</text>
</g>
<!-- push_notifications&#45;&gt;categories -->
<g id="edge3" class="edge">
<title>push_notifications:category_id&#45;&gt;categories:id</title>
<path fill="none" stroke="#000000" d="M300.1898,-1447.3179C-107.4449,-1432.4145 -97.2183,-507.5 317.205,-507.5"/>
<polygon fill="#000000" stroke="#000000" points="300.2067,-1447.3181 310.1232,-1451.9993 305.2059,-1447.4091 310.205,-1447.5 310.205,-1447.5 310.205,-1447.5 305.2059,-1447.4091 310.2869,-1443.0007 300.2067,-1447.3181 300.2067,-1447.3181"/>
<text text-anchor="start" x="36.864" y="-1457.5" font-family="Arial" font-size="10.00" fill="#000000">FOREIGN KEY (category_id) REFERENCES categories (id)</text>
</g>
<!-- push_notification_list_xref -->
<g id="node2" class="node">
<title>push_notification_list_xref</title>
<polygon fill="#efefef" stroke="transparent" points="74.205,-1937.5 74.205,-1972.5 392.205,-1972.5 392.205,-1937.5 74.205,-1937.5"/>
<polygon fill="none" stroke="#000000" points="74.205,-1937.5 74.205,-1972.5 392.205,-1972.5 392.205,-1937.5 74.205,-1937.5"/>
<text text-anchor="start" x="81.0538" y="-1950.3" font-family="Arial Bold" font-size="18.00" fill="#000000">push_notification_list_xref</text>
<text text-anchor="start" x="288.1024" y="-1950.3" font-family="Arial" font-size="14.00" fill="#000000"> </text>
<text text-anchor="start" x="291.993" y="-1950.3" font-family="Arial" font-size="14.00" fill="#666666">[BASE TABLE]</text>
<polygon fill="none" stroke="#000000" points="74.205,-1907.5 74.205,-1937.5 392.205,-1937.5 392.205,-1907.5 74.205,-1907.5"/>
<text text-anchor="start" x="81.205" y="-1918.9" font-family="Arial" font-size="14.00" fill="#000000">notification_id </text>
<text text-anchor="start" x="170.672" y="-1918.9" font-family="Arial" font-size="14.00" fill="#666666">[int(10) unsigned]</text>
<polygon fill="none" stroke="#000000" points="74.205,-1877.5 74.205,-1907.5 392.205,-1907.5 392.205,-1877.5 74.205,-1877.5"/>
<text text-anchor="start" x="81.205" y="-1888.9" font-family="Arial" font-size="14.00" fill="#000000">leadlist_id </text>
<text text-anchor="start" x="147.3256" y="-1888.9" font-family="Arial" font-size="14.00" fill="#666666">[int(10) unsigned]</text>
</g>
<!-- push_notification_list_xref&#45;&gt;push_notifications -->
<g id="edge1" class="edge">
<title>push_notification_list_xref:notification_id&#45;&gt;push_notifications:id</title>
<path fill="none" stroke="#000000" d="M402.4419,-1922.0695C576.0402,-1906.5661 112.7308,-1477.5 310.205,-1477.5"/>
<polygon fill="#000000" stroke="#000000" points="402.1962,-1922.0798 392.0159,-1918.004 397.2006,-1922.2899 392.205,-1922.5 392.205,-1922.5 392.205,-1922.5 397.2006,-1922.2899 392.3942,-1926.996 402.1962,-1922.0798 402.1962,-1922.0798"/>
<text text-anchor="start" x="399.19" y="-1932.5" font-family="Arial" font-size="10.00" fill="#000000">FOREIGN KEY (notification_id) REFERENCES push_notifications (id)</text>
</g>
<!-- push_notification_stats -->
<g id="node3" class="node">
<title>push_notification_stats</title>
<polygon fill="#efefef" stroke="transparent" points="496.205,-2162.5 496.205,-2197.5 790.205,-2197.5 790.205,-2162.5 496.205,-2162.5"/>
<polygon fill="none" stroke="#000000" points="496.205,-2162.5 496.205,-2197.5 790.205,-2197.5 790.205,-2162.5 496.205,-2162.5"/>
<text text-anchor="start" x="503.0472" y="-2175.3" font-family="Arial Bold" font-size="18.00" fill="#000000">push_notification_stats</text>
<text text-anchor="start" x="686.109" y="-2175.3" font-family="Arial" font-size="14.00" fill="#000000"> </text>
<text text-anchor="start" x="689.9996" y="-2175.3" font-family="Arial" font-size="14.00" fill="#666666">[BASE TABLE]</text>
<polygon fill="none" stroke="#000000" points="496.205,-2132.5 496.205,-2162.5 790.205,-2162.5 790.205,-2132.5 496.205,-2132.5"/>
<text text-anchor="start" x="503.205" y="-2143.9" font-family="Arial" font-size="14.00" fill="#000000">id </text>
<text text-anchor="start" x="517.9848" y="-2143.9" font-family="Arial" font-size="14.00" fill="#666666">[bigint(20) unsigned]</text>
<polygon fill="none" stroke="#000000" points="496.205,-2102.5 496.205,-2132.5 790.205,-2132.5 790.205,-2102.5 496.205,-2102.5"/>
<text text-anchor="start" x="503.205" y="-2113.9" font-family="Arial" font-size="14.00" fill="#000000">notification_id </text>
<text text-anchor="start" x="592.672" y="-2113.9" font-family="Arial" font-size="14.00" fill="#666666">[int(10) unsigned]</text>
<polygon fill="none" stroke="#000000" points="496.205,-2072.5 496.205,-2102.5 790.205,-2102.5 790.205,-2072.5 496.205,-2072.5"/>
<text text-anchor="start" x="503.205" y="-2083.9" font-family="Arial" font-size="14.00" fill="#000000">lead_id </text>
<text text-anchor="start" x="552.2218" y="-2083.9" font-family="Arial" font-size="14.00" fill="#666666">[bigint(20) unsigned]</text>
<polygon fill="none" stroke="#000000" points="496.205,-2042.5 496.205,-2072.5 790.205,-2072.5 790.205,-2042.5 496.205,-2042.5"/>
<text text-anchor="start" x="503.205" y="-2053.9" font-family="Arial" font-size="14.00" fill="#000000">list_id </text>
<text text-anchor="start" x="542.8712" y="-2053.9" font-family="Arial" font-size="14.00" fill="#666666">[int(10) unsigned]</text>
<polygon fill="none" stroke="#000000" points="496.205,-2012.5 496.205,-2042.5 790.205,-2042.5 790.205,-2012.5 496.205,-2012.5"/>
<text text-anchor="start" x="503.205" y="-2023.9" font-family="Arial" font-size="14.00" fill="#000000">ip_id </text>
<text text-anchor="start" x="536.6566" y="-2023.9" font-family="Arial" font-size="14.00" fill="#666666">[int(10) unsigned]</text>
<polygon fill="none" stroke="#000000" points="496.205,-1982.5 496.205,-2012.5 790.205,-2012.5 790.205,-1982.5 496.205,-1982.5"/>
<text text-anchor="start" x="503.205" y="-1993.9" font-family="Arial" font-size="14.00" fill="#000000">date_sent </text>
<text text-anchor="start" x="568.5724" y="-1993.9" font-family="Arial" font-size="14.00" fill="#666666">[datetime]</text>
<polygon fill="none" stroke="#000000" points="496.205,-1952.5 496.205,-1982.5 790.205,-1982.5 790.205,-1952.5 496.205,-1952.5"/>
<text text-anchor="start" x="503.205" y="-1963.9" font-family="Arial" font-size="14.00" fill="#000000">date_read </text>
<text text-anchor="start" x="570.125" y="-1963.9" font-family="Arial" font-size="14.00" fill="#666666">[datetime]</text>
<polygon fill="none" stroke="#000000" points="496.205,-1922.5 496.205,-1952.5 790.205,-1952.5 790.205,-1922.5 496.205,-1922.5"/>
<text text-anchor="start" x="503.205" y="-1933.9" font-family="Arial" font-size="14.00" fill="#000000">is_clicked </text>
<text text-anchor="start" x="567.7632" y="-1933.9" font-family="Arial" font-size="14.00" fill="#666666">[tinyint(1)]</text>
<polygon fill="none" stroke="#000000" points="496.205,-1892.5 496.205,-1922.5 790.205,-1922.5 790.205,-1892.5 496.205,-1892.5"/>
<text text-anchor="start" x="503.205" y="-1903.9" font-family="Arial" font-size="14.00" fill="#000000">date_clicked </text>
<text text-anchor="start" x="584.895" y="-1903.9" font-family="Arial" font-size="14.00" fill="#666666">[datetime]</text>
<polygon fill="none" stroke="#000000" points="496.205,-1862.5 496.205,-1892.5 790.205,-1892.5 790.205,-1862.5 496.205,-1862.5"/>
<text text-anchor="start" x="503.205" y="-1873.9" font-family="Arial" font-size="14.00" fill="#000000">tracking_hash </text>
<text text-anchor="start" x="594.2316" y="-1873.9" font-family="Arial" font-size="14.00" fill="#666666">[varchar(191)]</text>
<polygon fill="none" stroke="#000000" points="496.205,-1832.5 496.205,-1862.5 790.205,-1862.5 790.205,-1832.5 496.205,-1832.5"/>
<text text-anchor="start" x="503.205" y="-1843.9" font-family="Arial" font-size="14.00" fill="#000000">retry_count </text>
<text text-anchor="start" x="577.111" y="-1843.9" font-family="Arial" font-size="14.00" fill="#666666">[int(11)]</text>
<polygon fill="none" stroke="#000000" points="496.205,-1802.5 496.205,-1832.5 790.205,-1832.5 790.205,-1802.5 496.205,-1802.5"/>
<text text-anchor="start" x="503.205" y="-1813.9" font-family="Arial" font-size="14.00" fill="#000000">source </text>
<text text-anchor="start" x="549.104" y="-1813.9" font-family="Arial" font-size="14.00" fill="#666666">[varchar(191)]</text>
<polygon fill="none" stroke="#000000" points="496.205,-1772.5 496.205,-1802.5 790.205,-1802.5 790.205,-1772.5 496.205,-1772.5"/>
<text text-anchor="start" x="503.205" y="-1783.9" font-family="Arial" font-size="14.00" fill="#000000">source_id </text>
<text text-anchor="start" x="567.7758" y="-1783.9" font-family="Arial" font-size="14.00" fill="#666666">[int(11)]</text>
<polygon fill="none" stroke="#000000" points="496.205,-1742.5 496.205,-1772.5 790.205,-1772.5 790.205,-1742.5 496.205,-1742.5"/>
<text text-anchor="start" x="503.205" y="-1753.9" font-family="Arial" font-size="14.00" fill="#000000">tokens </text>
<text text-anchor="start" x="548.334" y="-1753.9" font-family="Arial" font-size="14.00" fill="#666666">[longtext]</text>
<polygon fill="none" stroke="#000000" points="496.205,-1712.5 496.205,-1742.5 790.205,-1742.5 790.205,-1712.5 496.205,-1712.5"/>
<text text-anchor="start" x="503.205" y="-1723.9" font-family="Arial" font-size="14.00" fill="#000000">click_count </text>
<text text-anchor="start" x="576.3298" y="-1723.9" font-family="Arial" font-size="14.00" fill="#666666">[int(11)]</text>
<polygon fill="none" stroke="#000000" points="496.205,-1682.5 496.205,-1712.5 790.205,-1712.5 790.205,-1682.5 496.205,-1682.5"/>
<text text-anchor="start" x="503.205" y="-1693.9" font-family="Arial" font-size="14.00" fill="#000000">last_clicked </text>
<text text-anchor="start" x="579.4364" y="-1693.9" font-family="Arial" font-size="14.00" fill="#666666">[datetime]</text>
<polygon fill="none" stroke="#000000" points="496.205,-1652.5 496.205,-1682.5 790.205,-1682.5 790.205,-1652.5 496.205,-1652.5"/>
<text text-anchor="start" x="503.205" y="-1663.9" font-family="Arial" font-size="14.00" fill="#000000">click_details </text>
<text text-anchor="start" x="582.543" y="-1663.9" font-family="Arial" font-size="14.00" fill="#666666">[longtext]</text>
</g>
<!-- push_notification_stats&#45;&gt;push_notifications -->
<g id="edge2" class="edge">
<title>push_notification_stats:notification_id&#45;&gt;push_notifications:id</title>
<path fill="none" stroke="#000000" d="M487.137,-2112.9447C443.0059,-2065.0895 468.687,-1655.3956 496.205,-1610 514.1356,-1580.4206 547.2745,-1603.5794 565.205,-1574 587.4377,-1537.3235 608.0939,-1477.5 565.205,-1477.5"/>
<polygon fill="#000000" stroke="#000000" points="487.2692,-2113.011 494.185,-2121.5211 491.7371,-2115.2555 496.205,-2117.5 496.205,-2117.5 496.205,-2117.5 491.7371,-2115.2555 498.2251,-2113.4789 487.2692,-2113.011 487.2692,-2113.011"/>
<text text-anchor="start" x="179.19" y="-2127.5" font-family="Arial" font-size="10.00" fill="#000000">FOREIGN KEY (notification_id) REFERENCES push_notifications (id)</text>
</g>
</g>
</svg>
