<?xml version="1.0" encoding="UTF-8" standalone="no"?>
<!DOCTYPE svg PUBLIC "-//W3C//DTD SVG 1.1//EN"
 "http://www.w3.org/Graphics/SVG/1.1/DTD/svg11.dtd">
<!-- Generated by graphviz version 2.40.1 (20161225.0304)
 -->
<!-- Title: reports Pages: 1 -->
<svg width="577pt" height="1192pt"
 viewBox="0.00 0.00 577.00 1192.00" xmlns="http://www.w3.org/2000/svg" xmlns:xlink="http://www.w3.org/1999/xlink">
<g id="graph0" class="graph" transform="scale(1 1) rotate(0) translate(4 1188)">
<title>reports</title>
<polygon fill="#ffffff" stroke="transparent" points="-4,4 -4,-1188 573,-1188 573,4 -4,4"/>
<!-- reports -->
<g id="node1" class="node">
<title>reports</title>
<polygon fill="#efefef" stroke="transparent" points="46,-855.5 46,-890.5 322,-890.5 322,-855.5 46,-855.5"/>
<polygon fill="none" stroke="#000000" points="46,-855.5 46,-890.5 322,-890.5 322,-855.5 46,-855.5"/>
<text text-anchor="start" x="107.3705" y="-868.3" font-family="Arial Bold" font-size="18.00" fill="#000000">reports</text>
<text text-anchor="start" x="163.3757" y="-868.3" font-family="Arial" font-size="14.00" fill="#000000"> </text>
<text text-anchor="start" x="167.2663" y="-868.3" font-family="Arial" font-size="14.00" fill="#666666">[BASE TABLE]</text>
<polygon fill="none" stroke="#000000" points="46,-825.5 46,-855.5 322,-855.5 322,-825.5 46,-825.5"/>
<text text-anchor="start" x="53" y="-836.9" font-family="Arial" font-size="14.00" fill="#000000">id </text>
<text text-anchor="start" x="67.7798" y="-836.9" font-family="Arial" font-size="14.00" fill="#666666">[int(10) unsigned]</text>
<polygon fill="none" stroke="#000000" points="46,-795.5 46,-825.5 322,-825.5 322,-795.5 46,-795.5"/>
<text text-anchor="start" x="53" y="-806.9" font-family="Arial" font-size="14.00" fill="#000000">is_published </text>
<text text-anchor="start" x="134.6886" y="-806.9" font-family="Arial" font-size="14.00" fill="#666666">[tinyint(1)]</text>
<polygon fill="none" stroke="#000000" points="46,-765.5 46,-795.5 322,-795.5 322,-765.5 46,-765.5"/>
<text text-anchor="start" x="53" y="-776.9" font-family="Arial" font-size="14.00" fill="#000000">date_added </text>
<text text-anchor="start" x="130.8246" y="-776.9" font-family="Arial" font-size="14.00" fill="#666666">[datetime]</text>
<polygon fill="none" stroke="#000000" points="46,-735.5 46,-765.5 322,-765.5 322,-735.5 46,-735.5"/>
<text text-anchor="start" x="53" y="-746.9" font-family="Arial" font-size="14.00" fill="#000000">created_by </text>
<text text-anchor="start" x="126.1374" y="-746.9" font-family="Arial" font-size="14.00" fill="#666666">[int(11)]</text>
<polygon fill="none" stroke="#000000" points="46,-705.5 46,-735.5 322,-735.5 322,-705.5 46,-705.5"/>
<text text-anchor="start" x="53" y="-716.9" font-family="Arial" font-size="14.00" fill="#000000">created_by_user </text>
<text text-anchor="start" x="161.1458" y="-716.9" font-family="Arial" font-size="14.00" fill="#666666">[varchar(191)]</text>
<polygon fill="none" stroke="#000000" points="46,-675.5 46,-705.5 322,-705.5 322,-675.5 46,-675.5"/>
<text text-anchor="start" x="53" y="-686.9" font-family="Arial" font-size="14.00" fill="#000000">date_modified </text>
<text text-anchor="start" x="144.8064" y="-686.9" font-family="Arial" font-size="14.00" fill="#666666">[datetime]</text>
<polygon fill="none" stroke="#000000" points="46,-645.5 46,-675.5 322,-675.5 322,-645.5 46,-645.5"/>
<text text-anchor="start" x="53" y="-656.9" font-family="Arial" font-size="14.00" fill="#000000">modified_by </text>
<text text-anchor="start" x="132.3506" y="-656.9" font-family="Arial" font-size="14.00" fill="#666666">[int(11)]</text>
<polygon fill="none" stroke="#000000" points="46,-615.5 46,-645.5 322,-645.5 322,-615.5 46,-615.5"/>
<text text-anchor="start" x="53" y="-626.9" font-family="Arial" font-size="14.00" fill="#000000">modified_by_user </text>
<text text-anchor="start" x="167.359" y="-626.9" font-family="Arial" font-size="14.00" fill="#666666">[varchar(191)]</text>
<polygon fill="none" stroke="#000000" points="46,-585.5 46,-615.5 322,-615.5 322,-585.5 46,-585.5"/>
<text text-anchor="start" x="53" y="-596.9" font-family="Arial" font-size="14.00" fill="#000000">checked_out </text>
<text text-anchor="start" x="136.2594" y="-596.9" font-family="Arial" font-size="14.00" fill="#666666">[datetime]</text>
<polygon fill="none" stroke="#000000" points="46,-555.5 46,-585.5 322,-585.5 322,-555.5 46,-555.5"/>
<text text-anchor="start" x="53" y="-566.9" font-family="Arial" font-size="14.00" fill="#000000">checked_out_by </text>
<text text-anchor="start" x="158.8246" y="-566.9" font-family="Arial" font-size="14.00" fill="#666666">[int(11)]</text>
<polygon fill="none" stroke="#000000" points="46,-525.5 46,-555.5 322,-555.5 322,-525.5 46,-525.5"/>
<text text-anchor="start" x="53" y="-536.9" font-family="Arial" font-size="14.00" fill="#000000">checked_out_by_user </text>
<text text-anchor="start" x="193.833" y="-536.9" font-family="Arial" font-size="14.00" fill="#666666">[varchar(191)]</text>
<polygon fill="none" stroke="#000000" points="46,-495.5 46,-525.5 322,-525.5 322,-495.5 46,-495.5"/>
<text text-anchor="start" x="53" y="-506.9" font-family="Arial" font-size="14.00" fill="#000000">name </text>
<text text-anchor="start" x="91.899" y="-506.9" font-family="Arial" font-size="14.00" fill="#666666">[varchar(191)]</text>
<polygon fill="none" stroke="#000000" points="46,-465.5 46,-495.5 322,-495.5 322,-465.5 46,-465.5"/>
<text text-anchor="start" x="53" y="-476.9" font-family="Arial" font-size="14.00" fill="#000000">description </text>
<text text-anchor="start" x="124.568" y="-476.9" font-family="Arial" font-size="14.00" fill="#666666">[longtext]</text>
<polygon fill="none" stroke="#000000" points="46,-435.5 46,-465.5 322,-465.5 322,-435.5 46,-435.5"/>
<text text-anchor="start" x="53" y="-446.9" font-family="Arial" font-size="14.00" fill="#000000">system </text>
<text text-anchor="start" x="101.2244" y="-446.9" font-family="Arial" font-size="14.00" fill="#666666">[tinyint(1)]</text>
<polygon fill="none" stroke="#000000" points="46,-405.5 46,-435.5 322,-435.5 322,-405.5 46,-405.5"/>
<text text-anchor="start" x="53" y="-416.9" font-family="Arial" font-size="14.00" fill="#000000">source </text>
<text text-anchor="start" x="98.899" y="-416.9" font-family="Arial" font-size="14.00" fill="#666666">[varchar(191)]</text>
<polygon fill="none" stroke="#000000" points="46,-375.5 46,-405.5 322,-405.5 322,-375.5 46,-375.5"/>
<text text-anchor="start" x="53" y="-386.9" font-family="Arial" font-size="14.00" fill="#000000">columns </text>
<text text-anchor="start" x="109.0056" y="-386.9" font-family="Arial" font-size="14.00" fill="#666666">[longtext]</text>
<polygon fill="none" stroke="#000000" points="46,-345.5 46,-375.5 322,-375.5 322,-345.5 46,-345.5"/>
<text text-anchor="start" x="53" y="-356.9" font-family="Arial" font-size="14.00" fill="#000000">filters </text>
<text text-anchor="start" x="90.3282" y="-356.9" font-family="Arial" font-size="14.00" fill="#666666">[longtext]</text>
<polygon fill="none" stroke="#000000" points="46,-315.5 46,-345.5 322,-345.5 322,-315.5 46,-315.5"/>
<text text-anchor="start" x="53" y="-326.9" font-family="Arial" font-size="14.00" fill="#000000">table_order </text>
<text text-anchor="start" x="127.6872" y="-326.9" font-family="Arial" font-size="14.00" fill="#666666">[longtext]</text>
<polygon fill="none" stroke="#000000" points="46,-285.5 46,-315.5 322,-315.5 322,-285.5 46,-285.5"/>
<text text-anchor="start" x="53" y="-296.9" font-family="Arial" font-size="14.00" fill="#000000">graphs </text>
<text text-anchor="start" x="99.6816" y="-296.9" font-family="Arial" font-size="14.00" fill="#666666">[longtext]</text>
<polygon fill="none" stroke="#000000" points="46,-255.5 46,-285.5 322,-285.5 322,-255.5 46,-255.5"/>
<text text-anchor="start" x="53" y="-266.9" font-family="Arial" font-size="14.00" fill="#000000">group_by </text>
<text text-anchor="start" x="115.2468" y="-266.9" font-family="Arial" font-size="14.00" fill="#666666">[longtext]</text>
<polygon fill="none" stroke="#000000" points="46,-225.5 46,-255.5 322,-255.5 322,-225.5 46,-225.5"/>
<text text-anchor="start" x="53" y="-236.9" font-family="Arial" font-size="14.00" fill="#000000">aggregators </text>
<text text-anchor="start" x="131.5806" y="-236.9" font-family="Arial" font-size="14.00" fill="#666666">[longtext]</text>
<polygon fill="none" stroke="#000000" points="46,-195.5 46,-225.5 322,-225.5 322,-195.5 46,-195.5"/>
<text text-anchor="start" x="53" y="-206.9" font-family="Arial" font-size="14.00" fill="#000000">settings </text>
<text text-anchor="start" x="105.1262" y="-206.9" font-family="Arial" font-size="14.00" fill="#666666">[longtext]</text>
<polygon fill="none" stroke="#000000" points="46,-165.5 46,-195.5 322,-195.5 322,-165.5 46,-165.5"/>
<text text-anchor="start" x="53" y="-176.9" font-family="Arial" font-size="14.00" fill="#000000">is_scheduled </text>
<text text-anchor="start" x="138.582" y="-176.9" font-family="Arial" font-size="14.00" fill="#666666">[tinyint(1)]</text>
<polygon fill="none" stroke="#000000" points="46,-135.5 46,-165.5 322,-165.5 322,-135.5 46,-135.5"/>
<text text-anchor="start" x="53" y="-146.9" font-family="Arial" font-size="14.00" fill="#000000">schedule_unit </text>
<text text-anchor="start" x="143.2552" y="-146.9" font-family="Arial" font-size="14.00" fill="#666666">[varchar(191)]</text>
<polygon fill="none" stroke="#000000" points="46,-105.5 46,-135.5 322,-135.5 322,-105.5 46,-105.5"/>
<text text-anchor="start" x="53" y="-116.9" font-family="Arial" font-size="14.00" fill="#000000">to_address </text>
<text text-anchor="start" x="126.1374" y="-116.9" font-family="Arial" font-size="14.00" fill="#666666">[varchar(191)]</text>
<polygon fill="none" stroke="#000000" points="46,-75.5 46,-105.5 322,-105.5 322,-75.5 46,-75.5"/>
<text text-anchor="start" x="53" y="-86.9" font-family="Arial" font-size="14.00" fill="#000000">schedule_day </text>
<text text-anchor="start" x="143.258" y="-86.9" font-family="Arial" font-size="14.00" fill="#666666">[varchar(191)]</text>
<polygon fill="none" stroke="#000000" points="46,-45.5 46,-75.5 322,-75.5 322,-45.5 46,-45.5"/>
<text text-anchor="start" x="52.5211" y="-56.9" font-family="Arial" font-size="14.00" fill="#000000">schedule_month_frequency </text>
<text text-anchor="start" x="228.3597" y="-56.9" font-family="Arial" font-size="14.00" fill="#666666">[varchar(191)]</text>
<polygon fill="none" stroke="#000000" stroke-width="3" points="44.5,-44.5 44.5,-892.5 323.5,-892.5 323.5,-44.5 44.5,-44.5"/>
</g>
<!-- reports_schedulers -->
<g id="node2" class="node">
<title>reports_schedulers</title>
<polygon fill="#efefef" stroke="transparent" points="52,-1105.5 52,-1140.5 316,-1140.5 316,-1105.5 52,-1105.5"/>
<polygon fill="none" stroke="#000000" points="52,-1105.5 52,-1140.5 316,-1140.5 316,-1105.5 52,-1105.5"/>
<text text-anchor="start" x="58.8587" y="-1118.3" font-family="Arial Bold" font-size="18.00" fill="#000000">reports_schedulers</text>
<text text-anchor="start" x="211.8875" y="-1118.3" font-family="Arial" font-size="14.00" fill="#000000"> </text>
<text text-anchor="start" x="215.7781" y="-1118.3" font-family="Arial" font-size="14.00" fill="#666666">[BASE TABLE]</text>
<polygon fill="none" stroke="#000000" points="52,-1075.5 52,-1105.5 316,-1105.5 316,-1075.5 52,-1075.5"/>
<text text-anchor="start" x="59" y="-1086.9" font-family="Arial" font-size="14.00" fill="#000000">id </text>
<text text-anchor="start" x="73.7798" y="-1086.9" font-family="Arial" font-size="14.00" fill="#666666">[int(10) unsigned]</text>
<polygon fill="none" stroke="#000000" points="52,-1045.5 52,-1075.5 316,-1075.5 316,-1045.5 52,-1045.5"/>
<text text-anchor="start" x="59" y="-1056.9" font-family="Arial" font-size="14.00" fill="#000000">report_id </text>
<text text-anchor="start" x="118.122" y="-1056.9" font-family="Arial" font-size="14.00" fill="#666666">[int(10) unsigned]</text>
<polygon fill="none" stroke="#000000" points="52,-1015.5 52,-1045.5 316,-1045.5 316,-1015.5 52,-1015.5"/>
<text text-anchor="start" x="59" y="-1026.9" font-family="Arial" font-size="14.00" fill="#000000">schedule_date </text>
<text text-anchor="start" x="153.9312" y="-1026.9" font-family="Arial" font-size="14.00" fill="#666666">[datetime]</text>
</g>
<!-- reports_schedulers&#45;&gt;reports -->
<g id="edge1" class="edge">
<title>reports_schedulers:report_id&#45;&gt;reports:id</title>
<path fill="none" stroke="#000000" d="M325.6758,-1057.39C365.4794,-1030.6501 367.4683,-840.5 322,-840.5"/>
<polygon fill="#000000" stroke="#000000" points="325.5203,-1057.4399 314.623,-1056.2159 320.7602,-1058.97 316,-1060.5 316,-1060.5 316,-1060.5 320.7602,-1058.97 317.377,-1064.7841 325.5203,-1057.4399 325.5203,-1057.4399"/>
<text text-anchor="start" x="323.278" y="-1070.5" font-family="Arial" font-size="10.00" fill="#000000">FOREIGN KEY (report_id) REFERENCES reports (id)</text>
</g>
</g>
</svg>
