<?xml version="1.0" encoding="UTF-8" standalone="no"?>
<!DOCTYPE svg PUBLIC "-//W3C//DTD SVG 1.1//EN"
 "http://www.w3.org/Graphics/SVG/1.1/DTD/svg11.dtd">
<!-- Generated by graphviz version 2.40.1 (20161225.0304)
 -->
<!-- Title: reports_schedulers Pages: 1 -->
<svg width="574pt" height="1192pt"
 viewBox="0.00 0.00 574.00 1192.00" xmlns="http://www.w3.org/2000/svg" xmlns:xlink="http://www.w3.org/1999/xlink">
<g id="graph0" class="graph" transform="scale(1 1) rotate(0) translate(4 1188)">
<title>reports_schedulers</title>
<polygon fill="#ffffff" stroke="transparent" points="-4,4 -4,-1188 570,-1188 570,4 -4,4"/>
<!-- reports_schedulers -->
<g id="node1" class="node">
<title>reports_schedulers</title>
<polygon fill="#efefef" stroke="transparent" points="49,-1102.5 49,-1137.5 313,-1137.5 313,-1102.5 49,-1102.5"/>
<polygon fill="none" stroke="#000000" points="49,-1102.5 49,-1137.5 313,-1137.5 313,-1102.5 49,-1102.5"/>
<text text-anchor="start" x="55.8587" y="-1115.3" font-family="Arial Bold" font-size="18.00" fill="#000000">reports_schedulers</text>
<text text-anchor="start" x="208.8875" y="-1115.3" font-family="Arial" font-size="14.00" fill="#000000"> </text>
<text text-anchor="start" x="212.7781" y="-1115.3" font-family="Arial" font-size="14.00" fill="#666666">[BASE TABLE]</text>
<polygon fill="none" stroke="#000000" points="49,-1072.5 49,-1102.5 313,-1102.5 313,-1072.5 49,-1072.5"/>
<text text-anchor="start" x="56" y="-1083.9" font-family="Arial" font-size="14.00" fill="#000000">id </text>
<text text-anchor="start" x="70.7798" y="-1083.9" font-family="Arial" font-size="14.00" fill="#666666">[int(10) unsigned]</text>
<polygon fill="none" stroke="#000000" points="49,-1042.5 49,-1072.5 313,-1072.5 313,-1042.5 49,-1042.5"/>
<text text-anchor="start" x="56" y="-1053.9" font-family="Arial" font-size="14.00" fill="#000000">report_id </text>
<text text-anchor="start" x="115.122" y="-1053.9" font-family="Arial" font-size="14.00" fill="#666666">[int(10) unsigned]</text>
<polygon fill="none" stroke="#000000" points="49,-1012.5 49,-1042.5 313,-1042.5 313,-1012.5 49,-1012.5"/>
<text text-anchor="start" x="56" y="-1023.9" font-family="Arial" font-size="14.00" fill="#000000">schedule_date </text>
<text text-anchor="start" x="150.9312" y="-1023.9" font-family="Arial" font-size="14.00" fill="#666666">[datetime]</text>
<polygon fill="none" stroke="#000000" stroke-width="3" points="47.5,-1011.5 47.5,-1139.5 314.5,-1139.5 314.5,-1011.5 47.5,-1011.5"/>
</g>
<!-- reports -->
<g id="node2" class="node">
<title>reports</title>
<polygon fill="#efefef" stroke="transparent" points="43,-852.5 43,-887.5 319,-887.5 319,-852.5 43,-852.5"/>
<polygon fill="none" stroke="#000000" points="43,-852.5 43,-887.5 319,-887.5 319,-852.5 43,-852.5"/>
<text text-anchor="start" x="104.3705" y="-865.3" font-family="Arial Bold" font-size="18.00" fill="#000000">reports</text>
<text text-anchor="start" x="160.3757" y="-865.3" font-family="Arial" font-size="14.00" fill="#000000"> </text>
<text text-anchor="start" x="164.2663" y="-865.3" font-family="Arial" font-size="14.00" fill="#666666">[BASE TABLE]</text>
<polygon fill="none" stroke="#000000" points="43,-822.5 43,-852.5 319,-852.5 319,-822.5 43,-822.5"/>
<text text-anchor="start" x="50" y="-833.9" font-family="Arial" font-size="14.00" fill="#000000">id </text>
<text text-anchor="start" x="64.7798" y="-833.9" font-family="Arial" font-size="14.00" fill="#666666">[int(10) unsigned]</text>
<polygon fill="none" stroke="#000000" points="43,-792.5 43,-822.5 319,-822.5 319,-792.5 43,-792.5"/>
<text text-anchor="start" x="50" y="-803.9" font-family="Arial" font-size="14.00" fill="#000000">is_published </text>
<text text-anchor="start" x="131.6886" y="-803.9" font-family="Arial" font-size="14.00" fill="#666666">[tinyint(1)]</text>
<polygon fill="none" stroke="#000000" points="43,-762.5 43,-792.5 319,-792.5 319,-762.5 43,-762.5"/>
<text text-anchor="start" x="50" y="-773.9" font-family="Arial" font-size="14.00" fill="#000000">date_added </text>
<text text-anchor="start" x="127.8246" y="-773.9" font-family="Arial" font-size="14.00" fill="#666666">[datetime]</text>
<polygon fill="none" stroke="#000000" points="43,-732.5 43,-762.5 319,-762.5 319,-732.5 43,-732.5"/>
<text text-anchor="start" x="50" y="-743.9" font-family="Arial" font-size="14.00" fill="#000000">created_by </text>
<text text-anchor="start" x="123.1374" y="-743.9" font-family="Arial" font-size="14.00" fill="#666666">[int(11)]</text>
<polygon fill="none" stroke="#000000" points="43,-702.5 43,-732.5 319,-732.5 319,-702.5 43,-702.5"/>
<text text-anchor="start" x="50" y="-713.9" font-family="Arial" font-size="14.00" fill="#000000">created_by_user </text>
<text text-anchor="start" x="158.1458" y="-713.9" font-family="Arial" font-size="14.00" fill="#666666">[varchar(191)]</text>
<polygon fill="none" stroke="#000000" points="43,-672.5 43,-702.5 319,-702.5 319,-672.5 43,-672.5"/>
<text text-anchor="start" x="50" y="-683.9" font-family="Arial" font-size="14.00" fill="#000000">date_modified </text>
<text text-anchor="start" x="141.8064" y="-683.9" font-family="Arial" font-size="14.00" fill="#666666">[datetime]</text>
<polygon fill="none" stroke="#000000" points="43,-642.5 43,-672.5 319,-672.5 319,-642.5 43,-642.5"/>
<text text-anchor="start" x="50" y="-653.9" font-family="Arial" font-size="14.00" fill="#000000">modified_by </text>
<text text-anchor="start" x="129.3506" y="-653.9" font-family="Arial" font-size="14.00" fill="#666666">[int(11)]</text>
<polygon fill="none" stroke="#000000" points="43,-612.5 43,-642.5 319,-642.5 319,-612.5 43,-612.5"/>
<text text-anchor="start" x="50" y="-623.9" font-family="Arial" font-size="14.00" fill="#000000">modified_by_user </text>
<text text-anchor="start" x="164.359" y="-623.9" font-family="Arial" font-size="14.00" fill="#666666">[varchar(191)]</text>
<polygon fill="none" stroke="#000000" points="43,-582.5 43,-612.5 319,-612.5 319,-582.5 43,-582.5"/>
<text text-anchor="start" x="50" y="-593.9" font-family="Arial" font-size="14.00" fill="#000000">checked_out </text>
<text text-anchor="start" x="133.2594" y="-593.9" font-family="Arial" font-size="14.00" fill="#666666">[datetime]</text>
<polygon fill="none" stroke="#000000" points="43,-552.5 43,-582.5 319,-582.5 319,-552.5 43,-552.5"/>
<text text-anchor="start" x="50" y="-563.9" font-family="Arial" font-size="14.00" fill="#000000">checked_out_by </text>
<text text-anchor="start" x="155.8246" y="-563.9" font-family="Arial" font-size="14.00" fill="#666666">[int(11)]</text>
<polygon fill="none" stroke="#000000" points="43,-522.5 43,-552.5 319,-552.5 319,-522.5 43,-522.5"/>
<text text-anchor="start" x="50" y="-533.9" font-family="Arial" font-size="14.00" fill="#000000">checked_out_by_user </text>
<text text-anchor="start" x="190.833" y="-533.9" font-family="Arial" font-size="14.00" fill="#666666">[varchar(191)]</text>
<polygon fill="none" stroke="#000000" points="43,-492.5 43,-522.5 319,-522.5 319,-492.5 43,-492.5"/>
<text text-anchor="start" x="50" y="-503.9" font-family="Arial" font-size="14.00" fill="#000000">name </text>
<text text-anchor="start" x="88.899" y="-503.9" font-family="Arial" font-size="14.00" fill="#666666">[varchar(191)]</text>
<polygon fill="none" stroke="#000000" points="43,-462.5 43,-492.5 319,-492.5 319,-462.5 43,-462.5"/>
<text text-anchor="start" x="50" y="-473.9" font-family="Arial" font-size="14.00" fill="#000000">description </text>
<text text-anchor="start" x="121.568" y="-473.9" font-family="Arial" font-size="14.00" fill="#666666">[longtext]</text>
<polygon fill="none" stroke="#000000" points="43,-432.5 43,-462.5 319,-462.5 319,-432.5 43,-432.5"/>
<text text-anchor="start" x="50" y="-443.9" font-family="Arial" font-size="14.00" fill="#000000">system </text>
<text text-anchor="start" x="98.2244" y="-443.9" font-family="Arial" font-size="14.00" fill="#666666">[tinyint(1)]</text>
<polygon fill="none" stroke="#000000" points="43,-402.5 43,-432.5 319,-432.5 319,-402.5 43,-402.5"/>
<text text-anchor="start" x="50" y="-413.9" font-family="Arial" font-size="14.00" fill="#000000">source </text>
<text text-anchor="start" x="95.899" y="-413.9" font-family="Arial" font-size="14.00" fill="#666666">[varchar(191)]</text>
<polygon fill="none" stroke="#000000" points="43,-372.5 43,-402.5 319,-402.5 319,-372.5 43,-372.5"/>
<text text-anchor="start" x="50" y="-383.9" font-family="Arial" font-size="14.00" fill="#000000">columns </text>
<text text-anchor="start" x="106.0056" y="-383.9" font-family="Arial" font-size="14.00" fill="#666666">[longtext]</text>
<polygon fill="none" stroke="#000000" points="43,-342.5 43,-372.5 319,-372.5 319,-342.5 43,-342.5"/>
<text text-anchor="start" x="50" y="-353.9" font-family="Arial" font-size="14.00" fill="#000000">filters </text>
<text text-anchor="start" x="87.3282" y="-353.9" font-family="Arial" font-size="14.00" fill="#666666">[longtext]</text>
<polygon fill="none" stroke="#000000" points="43,-312.5 43,-342.5 319,-342.5 319,-312.5 43,-312.5"/>
<text text-anchor="start" x="50" y="-323.9" font-family="Arial" font-size="14.00" fill="#000000">table_order </text>
<text text-anchor="start" x="124.6872" y="-323.9" font-family="Arial" font-size="14.00" fill="#666666">[longtext]</text>
<polygon fill="none" stroke="#000000" points="43,-282.5 43,-312.5 319,-312.5 319,-282.5 43,-282.5"/>
<text text-anchor="start" x="50" y="-293.9" font-family="Arial" font-size="14.00" fill="#000000">graphs </text>
<text text-anchor="start" x="96.6816" y="-293.9" font-family="Arial" font-size="14.00" fill="#666666">[longtext]</text>
<polygon fill="none" stroke="#000000" points="43,-252.5 43,-282.5 319,-282.5 319,-252.5 43,-252.5"/>
<text text-anchor="start" x="50" y="-263.9" font-family="Arial" font-size="14.00" fill="#000000">group_by </text>
<text text-anchor="start" x="112.2468" y="-263.9" font-family="Arial" font-size="14.00" fill="#666666">[longtext]</text>
<polygon fill="none" stroke="#000000" points="43,-222.5 43,-252.5 319,-252.5 319,-222.5 43,-222.5"/>
<text text-anchor="start" x="50" y="-233.9" font-family="Arial" font-size="14.00" fill="#000000">aggregators </text>
<text text-anchor="start" x="128.5806" y="-233.9" font-family="Arial" font-size="14.00" fill="#666666">[longtext]</text>
<polygon fill="none" stroke="#000000" points="43,-192.5 43,-222.5 319,-222.5 319,-192.5 43,-192.5"/>
<text text-anchor="start" x="50" y="-203.9" font-family="Arial" font-size="14.00" fill="#000000">settings </text>
<text text-anchor="start" x="102.1262" y="-203.9" font-family="Arial" font-size="14.00" fill="#666666">[longtext]</text>
<polygon fill="none" stroke="#000000" points="43,-162.5 43,-192.5 319,-192.5 319,-162.5 43,-162.5"/>
<text text-anchor="start" x="50" y="-173.9" font-family="Arial" font-size="14.00" fill="#000000">is_scheduled </text>
<text text-anchor="start" x="135.582" y="-173.9" font-family="Arial" font-size="14.00" fill="#666666">[tinyint(1)]</text>
<polygon fill="none" stroke="#000000" points="43,-132.5 43,-162.5 319,-162.5 319,-132.5 43,-132.5"/>
<text text-anchor="start" x="50" y="-143.9" font-family="Arial" font-size="14.00" fill="#000000">schedule_unit </text>
<text text-anchor="start" x="140.2552" y="-143.9" font-family="Arial" font-size="14.00" fill="#666666">[varchar(191)]</text>
<polygon fill="none" stroke="#000000" points="43,-102.5 43,-132.5 319,-132.5 319,-102.5 43,-102.5"/>
<text text-anchor="start" x="50" y="-113.9" font-family="Arial" font-size="14.00" fill="#000000">to_address </text>
<text text-anchor="start" x="123.1374" y="-113.9" font-family="Arial" font-size="14.00" fill="#666666">[varchar(191)]</text>
<polygon fill="none" stroke="#000000" points="43,-72.5 43,-102.5 319,-102.5 319,-72.5 43,-72.5"/>
<text text-anchor="start" x="50" y="-83.9" font-family="Arial" font-size="14.00" fill="#000000">schedule_day </text>
<text text-anchor="start" x="140.258" y="-83.9" font-family="Arial" font-size="14.00" fill="#666666">[varchar(191)]</text>
<polygon fill="none" stroke="#000000" points="43,-42.5 43,-72.5 319,-72.5 319,-42.5 43,-42.5"/>
<text text-anchor="start" x="49.5211" y="-53.9" font-family="Arial" font-size="14.00" fill="#000000">schedule_month_frequency </text>
<text text-anchor="start" x="225.3597" y="-53.9" font-family="Arial" font-size="14.00" fill="#666666">[varchar(191)]</text>
</g>
<!-- reports_schedulers&#45;&gt;reports -->
<g id="edge1" class="edge">
<title>reports_schedulers:report_id&#45;&gt;reports:id</title>
<path fill="none" stroke="#000000" d="M322.9754,-1056.7034C411.1077,-1042.3032 413.3754,-837.5 319,-837.5"/>
<polygon fill="#000000" stroke="#000000" points="322.9683,-1056.7039 312.6417,-1053.0143 317.9841,-1057.1019 313,-1057.5 313,-1057.5 313,-1057.5 317.9841,-1057.1019 313.3583,-1061.9857 322.9683,-1056.7039 322.9683,-1056.7039"/>
<text text-anchor="start" x="320.278" y="-1067.5" font-family="Arial" font-size="10.00" fill="#000000">FOREIGN KEY (report_id) REFERENCES reports (id)</text>
</g>
</g>
</svg>
