<?xml version="1.0" encoding="UTF-8" standalone="no"?>
<!DOCTYPE svg PUBLIC "-//W3C//DTD SVG 1.1//EN"
 "http://www.w3.org/Graphics/SVG/1.1/DTD/svg11.dtd">
<!-- Generated by graphviz version 2.40.1 (20161225.0304)
 -->
<!-- Title: roles Pages: 1 -->
<svg width="977pt" height="1462pt"
 viewBox="0.00 0.00 977.00 1462.00" xmlns="http://www.w3.org/2000/svg" xmlns:xlink="http://www.w3.org/1999/xlink">
<g id="graph0" class="graph" transform="scale(1 1) rotate(0) translate(4 1458)">
<title>roles</title>
<polygon fill="#ffffff" stroke="transparent" points="-4,4 -4,-1458 973,-1458 973,4 -4,4"/>
<!-- roles -->
<g id="node1" class="node">
<title>roles</title>
<polygon fill="#efefef" stroke="transparent" points="357.5,-495.5 357.5,-530.5 598.5,-530.5 598.5,-495.5 357.5,-495.5"/>
<polygon fill="none" stroke="#000000" points="357.5,-495.5 357.5,-530.5 598.5,-530.5 598.5,-495.5 357.5,-495.5"/>
<text text-anchor="start" x="409.8737" y="-508.3" font-family="Arial Bold" font-size="18.00" fill="#000000">roles</text>
<text text-anchor="start" x="448.8725" y="-508.3" font-family="Arial" font-size="14.00" fill="#000000"> </text>
<text text-anchor="start" x="452.7631" y="-508.3" font-family="Arial" font-size="14.00" fill="#666666">[BASE TABLE]</text>
<polygon fill="none" stroke="#000000" points="357.5,-465.5 357.5,-495.5 598.5,-495.5 598.5,-465.5 357.5,-465.5"/>
<text text-anchor="start" x="364.5" y="-476.9" font-family="Arial" font-size="14.00" fill="#000000">id </text>
<text text-anchor="start" x="379.2798" y="-476.9" font-family="Arial" font-size="14.00" fill="#666666">[int(10) unsigned]</text>
<polygon fill="none" stroke="#000000" points="357.5,-435.5 357.5,-465.5 598.5,-465.5 598.5,-435.5 357.5,-435.5"/>
<text text-anchor="start" x="364.5" y="-446.9" font-family="Arial" font-size="14.00" fill="#000000">is_published </text>
<text text-anchor="start" x="446.1886" y="-446.9" font-family="Arial" font-size="14.00" fill="#666666">[tinyint(1)]</text>
<polygon fill="none" stroke="#000000" points="357.5,-405.5 357.5,-435.5 598.5,-435.5 598.5,-405.5 357.5,-405.5"/>
<text text-anchor="start" x="364.5" y="-416.9" font-family="Arial" font-size="14.00" fill="#000000">date_added </text>
<text text-anchor="start" x="442.3246" y="-416.9" font-family="Arial" font-size="14.00" fill="#666666">[datetime]</text>
<polygon fill="none" stroke="#000000" points="357.5,-375.5 357.5,-405.5 598.5,-405.5 598.5,-375.5 357.5,-375.5"/>
<text text-anchor="start" x="364.5" y="-386.9" font-family="Arial" font-size="14.00" fill="#000000">created_by </text>
<text text-anchor="start" x="437.6374" y="-386.9" font-family="Arial" font-size="14.00" fill="#666666">[int(11)]</text>
<polygon fill="none" stroke="#000000" points="357.5,-345.5 357.5,-375.5 598.5,-375.5 598.5,-345.5 357.5,-345.5"/>
<text text-anchor="start" x="364.5" y="-356.9" font-family="Arial" font-size="14.00" fill="#000000">created_by_user </text>
<text text-anchor="start" x="472.6458" y="-356.9" font-family="Arial" font-size="14.00" fill="#666666">[varchar(191)]</text>
<polygon fill="none" stroke="#000000" points="357.5,-315.5 357.5,-345.5 598.5,-345.5 598.5,-315.5 357.5,-315.5"/>
<text text-anchor="start" x="364.5" y="-326.9" font-family="Arial" font-size="14.00" fill="#000000">date_modified </text>
<text text-anchor="start" x="456.3064" y="-326.9" font-family="Arial" font-size="14.00" fill="#666666">[datetime]</text>
<polygon fill="none" stroke="#000000" points="357.5,-285.5 357.5,-315.5 598.5,-315.5 598.5,-285.5 357.5,-285.5"/>
<text text-anchor="start" x="364.5" y="-296.9" font-family="Arial" font-size="14.00" fill="#000000">modified_by </text>
<text text-anchor="start" x="443.8506" y="-296.9" font-family="Arial" font-size="14.00" fill="#666666">[int(11)]</text>
<polygon fill="none" stroke="#000000" points="357.5,-255.5 357.5,-285.5 598.5,-285.5 598.5,-255.5 357.5,-255.5"/>
<text text-anchor="start" x="364.5" y="-266.9" font-family="Arial" font-size="14.00" fill="#000000">modified_by_user </text>
<text text-anchor="start" x="478.859" y="-266.9" font-family="Arial" font-size="14.00" fill="#666666">[varchar(191)]</text>
<polygon fill="none" stroke="#000000" points="357.5,-225.5 357.5,-255.5 598.5,-255.5 598.5,-225.5 357.5,-225.5"/>
<text text-anchor="start" x="364.5" y="-236.9" font-family="Arial" font-size="14.00" fill="#000000">checked_out </text>
<text text-anchor="start" x="447.7594" y="-236.9" font-family="Arial" font-size="14.00" fill="#666666">[datetime]</text>
<polygon fill="none" stroke="#000000" points="357.5,-195.5 357.5,-225.5 598.5,-225.5 598.5,-195.5 357.5,-195.5"/>
<text text-anchor="start" x="364.5" y="-206.9" font-family="Arial" font-size="14.00" fill="#000000">checked_out_by </text>
<text text-anchor="start" x="470.3246" y="-206.9" font-family="Arial" font-size="14.00" fill="#666666">[int(11)]</text>
<polygon fill="none" stroke="#000000" points="357.5,-165.5 357.5,-195.5 598.5,-195.5 598.5,-165.5 357.5,-165.5"/>
<text text-anchor="start" x="364.0239" y="-176.9" font-family="Arial" font-size="14.00" fill="#000000">checked_out_by_user </text>
<text text-anchor="start" x="504.8569" y="-176.9" font-family="Arial" font-size="14.00" fill="#666666">[varchar(191)]</text>
<polygon fill="none" stroke="#000000" points="357.5,-135.5 357.5,-165.5 598.5,-165.5 598.5,-135.5 357.5,-135.5"/>
<text text-anchor="start" x="364.5" y="-146.9" font-family="Arial" font-size="14.00" fill="#000000">name </text>
<text text-anchor="start" x="403.399" y="-146.9" font-family="Arial" font-size="14.00" fill="#666666">[varchar(191)]</text>
<polygon fill="none" stroke="#000000" points="357.5,-105.5 357.5,-135.5 598.5,-135.5 598.5,-105.5 357.5,-105.5"/>
<text text-anchor="start" x="364.5" y="-116.9" font-family="Arial" font-size="14.00" fill="#000000">description </text>
<text text-anchor="start" x="436.068" y="-116.9" font-family="Arial" font-size="14.00" fill="#666666">[longtext]</text>
<polygon fill="none" stroke="#000000" points="357.5,-75.5 357.5,-105.5 598.5,-105.5 598.5,-75.5 357.5,-75.5"/>
<text text-anchor="start" x="364.5" y="-86.9" font-family="Arial" font-size="14.00" fill="#000000">is_admin </text>
<text text-anchor="start" x="424.3948" y="-86.9" font-family="Arial" font-size="14.00" fill="#666666">[tinyint(1)]</text>
<polygon fill="none" stroke="#000000" points="357.5,-45.5 357.5,-75.5 598.5,-75.5 598.5,-45.5 357.5,-45.5"/>
<text text-anchor="start" x="364.5" y="-56.9" font-family="Arial" font-size="14.00" fill="#000000">readable_permissions </text>
<text text-anchor="start" x="505.3008" y="-56.9" font-family="Arial" font-size="14.00" fill="#666666">[longtext]</text>
<polygon fill="none" stroke="#000000" stroke-width="3" points="355.5,-44.5 355.5,-532.5 599.5,-532.5 599.5,-44.5 355.5,-44.5"/>
</g>
<!-- oauth2_clients -->
<g id="node2" class="node">
<title>oauth2_clients</title>
<polygon fill="#efefef" stroke="transparent" points="43.5,-1120.5 43.5,-1155.5 270.5,-1155.5 270.5,-1120.5 43.5,-1120.5"/>
<polygon fill="none" stroke="#000000" points="43.5,-1120.5 43.5,-1155.5 270.5,-1155.5 270.5,-1120.5 43.5,-1120.5"/>
<text text-anchor="start" x="50.3519" y="-1133.3" font-family="Arial Bold" font-size="18.00" fill="#000000">oauth2_clients</text>
<text text-anchor="start" x="166.3943" y="-1133.3" font-family="Arial" font-size="14.00" fill="#000000"> </text>
<text text-anchor="start" x="170.2849" y="-1133.3" font-family="Arial" font-size="14.00" fill="#666666">[BASE TABLE]</text>
<polygon fill="none" stroke="#000000" points="43.5,-1090.5 43.5,-1120.5 270.5,-1120.5 270.5,-1090.5 43.5,-1090.5"/>
<text text-anchor="start" x="50.5" y="-1101.9" font-family="Arial" font-size="14.00" fill="#000000">id </text>
<text text-anchor="start" x="65.2798" y="-1101.9" font-family="Arial" font-size="14.00" fill="#666666">[int(10) unsigned]</text>
<polygon fill="none" stroke="#000000" points="43.5,-1060.5 43.5,-1090.5 270.5,-1090.5 270.5,-1060.5 43.5,-1060.5"/>
<text text-anchor="start" x="50.5" y="-1071.9" font-family="Arial" font-size="14.00" fill="#000000">role_id </text>
<text text-anchor="start" x="96.3948" y="-1071.9" font-family="Arial" font-size="14.00" fill="#666666">[int(10) unsigned]</text>
<polygon fill="none" stroke="#000000" points="43.5,-1030.5 43.5,-1060.5 270.5,-1060.5 270.5,-1030.5 43.5,-1030.5"/>
<text text-anchor="start" x="50.5" y="-1041.9" font-family="Arial" font-size="14.00" fill="#000000">name </text>
<text text-anchor="start" x="89.399" y="-1041.9" font-family="Arial" font-size="14.00" fill="#666666">[varchar(191)]</text>
<polygon fill="none" stroke="#000000" points="43.5,-1000.5 43.5,-1030.5 270.5,-1030.5 270.5,-1000.5 43.5,-1000.5"/>
<text text-anchor="start" x="50.5" y="-1011.9" font-family="Arial" font-size="14.00" fill="#000000">random_id </text>
<text text-anchor="start" x="120.514" y="-1011.9" font-family="Arial" font-size="14.00" fill="#666666">[varchar(191)]</text>
<polygon fill="none" stroke="#000000" points="43.5,-970.5 43.5,-1000.5 270.5,-1000.5 270.5,-970.5 43.5,-970.5"/>
<text text-anchor="start" x="50.5" y="-981.9" font-family="Arial" font-size="14.00" fill="#000000">secret </text>
<text text-anchor="start" x="92.507" y="-981.9" font-family="Arial" font-size="14.00" fill="#666666">[varchar(191)]</text>
<polygon fill="none" stroke="#000000" points="43.5,-940.5 43.5,-970.5 270.5,-970.5 270.5,-940.5 43.5,-940.5"/>
<text text-anchor="start" x="50.5" y="-951.9" font-family="Arial" font-size="14.00" fill="#000000">redirect_uris </text>
<text text-anchor="start" x="131.3892" y="-951.9" font-family="Arial" font-size="14.00" fill="#666666">[longtext]</text>
<polygon fill="none" stroke="#000000" points="43.5,-910.5 43.5,-940.5 270.5,-940.5 270.5,-910.5 43.5,-910.5"/>
<text text-anchor="start" x="50.5" y="-921.9" font-family="Arial" font-size="14.00" fill="#000000">allowed_grant_types </text>
<text text-anchor="start" x="182.7608" y="-921.9" font-family="Arial" font-size="14.00" fill="#666666">[longtext]</text>
</g>
<!-- oauth2_clients&#45;&gt;roles -->
<g id="edge1" class="edge">
<title>oauth2_clients:role_id&#45;&gt;roles:id</title>
<path fill="none" stroke="#000000" d="M279.4868,-1070.8639C320.9859,-1025.4465 312.4623,-660.6191 321.5,-613 332.8786,-553.0465 296.4762,-480.5 357.5,-480.5"/>
<polygon fill="#000000" stroke="#000000" points="279.3871,-1070.9153 268.4369,-1071.5008 274.9436,-1073.2077 270.5,-1075.5 270.5,-1075.5 270.5,-1075.5 274.9436,-1073.2077 272.5631,-1079.4992 279.3871,-1070.9153 279.3871,-1070.9153"/>
<text text-anchor="start" x="277.226" y="-1085.5" font-family="Arial" font-size="10.00" fill="#000000">FOREIGN KEY (role_id) REFERENCES roles (id)</text>
</g>
<!-- permissions -->
<g id="node3" class="node">
<title>permissions</title>
<polygon fill="#efefef" stroke="transparent" points="374.5,-1090.5 374.5,-1125.5 581.5,-1125.5 581.5,-1090.5 374.5,-1090.5"/>
<polygon fill="none" stroke="#000000" points="374.5,-1090.5 374.5,-1125.5 581.5,-1125.5 581.5,-1090.5 374.5,-1090.5"/>
<text text-anchor="start" x="381.3743" y="-1103.3" font-family="Arial Bold" font-size="18.00" fill="#000000">permissions</text>
<text text-anchor="start" x="477.3719" y="-1103.3" font-family="Arial" font-size="14.00" fill="#000000"> </text>
<text text-anchor="start" x="481.2625" y="-1103.3" font-family="Arial" font-size="14.00" fill="#666666">[BASE TABLE]</text>
<polygon fill="none" stroke="#000000" points="374.5,-1060.5 374.5,-1090.5 581.5,-1090.5 581.5,-1060.5 374.5,-1060.5"/>
<text text-anchor="start" x="381.5" y="-1071.9" font-family="Arial" font-size="14.00" fill="#000000">id </text>
<text text-anchor="start" x="396.2798" y="-1071.9" font-family="Arial" font-size="14.00" fill="#666666">[int(10) unsigned]</text>
<polygon fill="none" stroke="#000000" points="374.5,-1030.5 374.5,-1060.5 581.5,-1060.5 581.5,-1030.5 374.5,-1030.5"/>
<text text-anchor="start" x="381.5" y="-1041.9" font-family="Arial" font-size="14.00" fill="#000000">role_id </text>
<text text-anchor="start" x="427.3948" y="-1041.9" font-family="Arial" font-size="14.00" fill="#666666">[int(10) unsigned]</text>
<polygon fill="none" stroke="#000000" points="374.5,-1000.5 374.5,-1030.5 581.5,-1030.5 581.5,-1000.5 374.5,-1000.5"/>
<text text-anchor="start" x="381.5" y="-1011.9" font-family="Arial" font-size="14.00" fill="#000000">bundle </text>
<text text-anchor="start" x="427.4102" y="-1011.9" font-family="Arial" font-size="14.00" fill="#666666">[varchar(50)]</text>
<polygon fill="none" stroke="#000000" points="374.5,-970.5 374.5,-1000.5 581.5,-1000.5 581.5,-970.5 374.5,-970.5"/>
<text text-anchor="start" x="381.5" y="-981.9" font-family="Arial" font-size="14.00" fill="#000000">name </text>
<text text-anchor="start" x="420.399" y="-981.9" font-family="Arial" font-size="14.00" fill="#666666">[varchar(50)]</text>
<polygon fill="none" stroke="#000000" points="374.5,-940.5 374.5,-970.5 581.5,-970.5 581.5,-940.5 374.5,-940.5"/>
<text text-anchor="start" x="381.5" y="-951.9" font-family="Arial" font-size="14.00" fill="#000000">bitwise </text>
<text text-anchor="start" x="428.1662" y="-951.9" font-family="Arial" font-size="14.00" fill="#666666">[int(11)]</text>
</g>
<!-- permissions&#45;&gt;roles -->
<g id="edge2" class="edge">
<title>permissions:role_id&#45;&gt;roles:id</title>
<path fill="none" stroke="#000000" d="M368.1013,-1037.513C340.9456,-968.8401 328.3049,-480.5 357.5,-480.5"/>
<polygon fill="#000000" stroke="#000000" points="368.2476,-1037.6956 370.988,-1048.3136 371.3738,-1041.5978 374.5,-1045.5 374.5,-1045.5 374.5,-1045.5 371.3738,-1041.5978 378.012,-1042.6864 368.2476,-1037.6956 368.2476,-1037.6956"/>
<text text-anchor="start" x="322.726" y="-1029.5" font-family="Arial" font-size="10.00" fill="#000000">FOREIGN KEY (role_id) REFERENCES roles (id)</text>
</g>
<!-- users -->
<g id="node4" class="node">
<title>users</title>
<polygon fill="#efefef" stroke="transparent" points="685.5,-1375.5 685.5,-1410.5 926.5,-1410.5 926.5,-1375.5 685.5,-1375.5"/>
<polygon fill="none" stroke="#000000" points="685.5,-1375.5 685.5,-1410.5 926.5,-1410.5 926.5,-1375.5 685.5,-1375.5"/>
<text text-anchor="start" x="735.3708" y="-1388.3" font-family="Arial Bold" font-size="18.00" fill="#000000">users</text>
<text text-anchor="start" x="779.3754" y="-1388.3" font-family="Arial" font-size="14.00" fill="#000000"> </text>
<text text-anchor="start" x="783.266" y="-1388.3" font-family="Arial" font-size="14.00" fill="#666666">[BASE TABLE]</text>
<polygon fill="none" stroke="#000000" points="685.5,-1345.5 685.5,-1375.5 926.5,-1375.5 926.5,-1345.5 685.5,-1345.5"/>
<text text-anchor="start" x="692.5" y="-1356.9" font-family="Arial" font-size="14.00" fill="#000000">id </text>
<text text-anchor="start" x="707.2798" y="-1356.9" font-family="Arial" font-size="14.00" fill="#666666">[int(10) unsigned]</text>
<polygon fill="none" stroke="#000000" points="685.5,-1315.5 685.5,-1345.5 926.5,-1345.5 926.5,-1315.5 685.5,-1315.5"/>
<text text-anchor="start" x="692.5" y="-1326.9" font-family="Arial" font-size="14.00" fill="#000000">role_id </text>
<text text-anchor="start" x="738.3948" y="-1326.9" font-family="Arial" font-size="14.00" fill="#666666">[int(10) unsigned]</text>
<polygon fill="none" stroke="#000000" points="685.5,-1285.5 685.5,-1315.5 926.5,-1315.5 926.5,-1285.5 685.5,-1285.5"/>
<text text-anchor="start" x="692.5" y="-1296.9" font-family="Arial" font-size="14.00" fill="#000000">is_published </text>
<text text-anchor="start" x="774.1886" y="-1296.9" font-family="Arial" font-size="14.00" fill="#666666">[tinyint(1)]</text>
<polygon fill="none" stroke="#000000" points="685.5,-1255.5 685.5,-1285.5 926.5,-1285.5 926.5,-1255.5 685.5,-1255.5"/>
<text text-anchor="start" x="692.5" y="-1266.9" font-family="Arial" font-size="14.00" fill="#000000">date_added </text>
<text text-anchor="start" x="770.3246" y="-1266.9" font-family="Arial" font-size="14.00" fill="#666666">[datetime]</text>
<polygon fill="none" stroke="#000000" points="685.5,-1225.5 685.5,-1255.5 926.5,-1255.5 926.5,-1225.5 685.5,-1225.5"/>
<text text-anchor="start" x="692.5" y="-1236.9" font-family="Arial" font-size="14.00" fill="#000000">created_by </text>
<text text-anchor="start" x="765.6374" y="-1236.9" font-family="Arial" font-size="14.00" fill="#666666">[int(11)]</text>
<polygon fill="none" stroke="#000000" points="685.5,-1195.5 685.5,-1225.5 926.5,-1225.5 926.5,-1195.5 685.5,-1195.5"/>
<text text-anchor="start" x="692.5" y="-1206.9" font-family="Arial" font-size="14.00" fill="#000000">created_by_user </text>
<text text-anchor="start" x="800.6458" y="-1206.9" font-family="Arial" font-size="14.00" fill="#666666">[varchar(191)]</text>
<polygon fill="none" stroke="#000000" points="685.5,-1165.5 685.5,-1195.5 926.5,-1195.5 926.5,-1165.5 685.5,-1165.5"/>
<text text-anchor="start" x="692.5" y="-1176.9" font-family="Arial" font-size="14.00" fill="#000000">date_modified </text>
<text text-anchor="start" x="784.3064" y="-1176.9" font-family="Arial" font-size="14.00" fill="#666666">[datetime]</text>
<polygon fill="none" stroke="#000000" points="685.5,-1135.5 685.5,-1165.5 926.5,-1165.5 926.5,-1135.5 685.5,-1135.5"/>
<text text-anchor="start" x="692.5" y="-1146.9" font-family="Arial" font-size="14.00" fill="#000000">modified_by </text>
<text text-anchor="start" x="771.8506" y="-1146.9" font-family="Arial" font-size="14.00" fill="#666666">[int(11)]</text>
<polygon fill="none" stroke="#000000" points="685.5,-1105.5 685.5,-1135.5 926.5,-1135.5 926.5,-1105.5 685.5,-1105.5"/>
<text text-anchor="start" x="692.5" y="-1116.9" font-family="Arial" font-size="14.00" fill="#000000">modified_by_user </text>
<text text-anchor="start" x="806.859" y="-1116.9" font-family="Arial" font-size="14.00" fill="#666666">[varchar(191)]</text>
<polygon fill="none" stroke="#000000" points="685.5,-1075.5 685.5,-1105.5 926.5,-1105.5 926.5,-1075.5 685.5,-1075.5"/>
<text text-anchor="start" x="692.5" y="-1086.9" font-family="Arial" font-size="14.00" fill="#000000">checked_out </text>
<text text-anchor="start" x="775.7594" y="-1086.9" font-family="Arial" font-size="14.00" fill="#666666">[datetime]</text>
<polygon fill="none" stroke="#000000" points="685.5,-1045.5 685.5,-1075.5 926.5,-1075.5 926.5,-1045.5 685.5,-1045.5"/>
<text text-anchor="start" x="692.5" y="-1056.9" font-family="Arial" font-size="14.00" fill="#000000">checked_out_by </text>
<text text-anchor="start" x="798.3246" y="-1056.9" font-family="Arial" font-size="14.00" fill="#666666">[int(11)]</text>
<polygon fill="none" stroke="#000000" points="685.5,-1015.5 685.5,-1045.5 926.5,-1045.5 926.5,-1015.5 685.5,-1015.5"/>
<text text-anchor="start" x="692.0239" y="-1026.9" font-family="Arial" font-size="14.00" fill="#000000">checked_out_by_user </text>
<text text-anchor="start" x="832.8569" y="-1026.9" font-family="Arial" font-size="14.00" fill="#666666">[varchar(191)]</text>
<polygon fill="none" stroke="#000000" points="685.5,-985.5 685.5,-1015.5 926.5,-1015.5 926.5,-985.5 685.5,-985.5"/>
<text text-anchor="start" x="692.5" y="-996.9" font-family="Arial" font-size="14.00" fill="#000000">username </text>
<text text-anchor="start" x="758.6248" y="-996.9" font-family="Arial" font-size="14.00" fill="#666666">[varchar(191)]</text>
<polygon fill="none" stroke="#000000" points="685.5,-955.5 685.5,-985.5 926.5,-985.5 926.5,-955.5 685.5,-955.5"/>
<text text-anchor="start" x="692.5" y="-966.9" font-family="Arial" font-size="14.00" fill="#000000">password </text>
<text text-anchor="start" x="756.2882" y="-966.9" font-family="Arial" font-size="14.00" fill="#666666">[varchar(64)]</text>
<polygon fill="none" stroke="#000000" points="685.5,-925.5 685.5,-955.5 926.5,-955.5 926.5,-925.5 685.5,-925.5"/>
<text text-anchor="start" x="692.5" y="-936.9" font-family="Arial" font-size="14.00" fill="#000000">first_name </text>
<text text-anchor="start" x="761.73" y="-936.9" font-family="Arial" font-size="14.00" fill="#666666">[varchar(191)]</text>
<polygon fill="none" stroke="#000000" points="685.5,-895.5 685.5,-925.5 926.5,-925.5 926.5,-895.5 685.5,-895.5"/>
<text text-anchor="start" x="692.5" y="-906.9" font-family="Arial" font-size="14.00" fill="#000000">last_name </text>
<text text-anchor="start" x="760.9614" y="-906.9" font-family="Arial" font-size="14.00" fill="#666666">[varchar(191)]</text>
<polygon fill="none" stroke="#000000" points="685.5,-865.5 685.5,-895.5 926.5,-895.5 926.5,-865.5 685.5,-865.5"/>
<text text-anchor="start" x="692.5" y="-876.9" font-family="Arial" font-size="14.00" fill="#000000">email </text>
<text text-anchor="start" x="729.8296" y="-876.9" font-family="Arial" font-size="14.00" fill="#666666">[varchar(191)]</text>
<polygon fill="none" stroke="#000000" points="685.5,-835.5 685.5,-865.5 926.5,-865.5 926.5,-835.5 685.5,-835.5"/>
<text text-anchor="start" x="692.5" y="-846.9" font-family="Arial" font-size="14.00" fill="#000000">position </text>
<text text-anchor="start" x="744.6248" y="-846.9" font-family="Arial" font-size="14.00" fill="#666666">[varchar(191)]</text>
<polygon fill="none" stroke="#000000" points="685.5,-805.5 685.5,-835.5 926.5,-835.5 926.5,-805.5 685.5,-805.5"/>
<text text-anchor="start" x="692.5" y="-816.9" font-family="Arial" font-size="14.00" fill="#000000">timezone </text>
<text text-anchor="start" x="753.1788" y="-816.9" font-family="Arial" font-size="14.00" fill="#666666">[varchar(191)]</text>
<polygon fill="none" stroke="#000000" points="685.5,-775.5 685.5,-805.5 926.5,-805.5 926.5,-775.5 685.5,-775.5"/>
<text text-anchor="start" x="692.5" y="-786.9" font-family="Arial" font-size="14.00" fill="#000000">locale </text>
<text text-anchor="start" x="732.9516" y="-786.9" font-family="Arial" font-size="14.00" fill="#666666">[varchar(191)]</text>
<polygon fill="none" stroke="#000000" points="685.5,-745.5 685.5,-775.5 926.5,-775.5 926.5,-745.5 685.5,-745.5"/>
<text text-anchor="start" x="692.5" y="-756.9" font-family="Arial" font-size="14.00" fill="#000000">last_login </text>
<text text-anchor="start" x="755.514" y="-756.9" font-family="Arial" font-size="14.00" fill="#666666">[datetime]</text>
<polygon fill="none" stroke="#000000" points="685.5,-715.5 685.5,-745.5 926.5,-745.5 926.5,-715.5 685.5,-715.5"/>
<text text-anchor="start" x="692.5" y="-726.9" font-family="Arial" font-size="14.00" fill="#000000">last_active </text>
<text text-anchor="start" x="762.5154" y="-726.9" font-family="Arial" font-size="14.00" fill="#666666">[datetime]</text>
<polygon fill="none" stroke="#000000" points="685.5,-685.5 685.5,-715.5 926.5,-715.5 926.5,-685.5 685.5,-685.5"/>
<text text-anchor="start" x="692.5" y="-696.9" font-family="Arial" font-size="14.00" fill="#000000">preferences </text>
<text text-anchor="start" x="770.298" y="-696.9" font-family="Arial" font-size="14.00" fill="#666666">[longtext]</text>
<polygon fill="none" stroke="#000000" points="685.5,-655.5 685.5,-685.5 926.5,-685.5 926.5,-655.5 685.5,-655.5"/>
<text text-anchor="start" x="692.5" y="-666.9" font-family="Arial" font-size="14.00" fill="#000000">signature </text>
<text text-anchor="start" x="753.9614" y="-666.9" font-family="Arial" font-size="14.00" fill="#666666">[longtext]</text>
</g>
<!-- users&#45;&gt;roles -->
<g id="edge3" class="edge">
<title>users:role_id&#45;&gt;roles:id</title>
<path fill="none" stroke="#000000" d="M675.7278,-1327.0753C597.925,-1268.5846 689.9148,-480.5 598.5,-480.5"/>
<polygon fill="#000000" stroke="#000000" points="676.0628,-1327.1926 684.0117,-1334.7468 680.7814,-1328.8463 685.5,-1330.5 685.5,-1330.5 685.5,-1330.5 680.7814,-1328.8463 686.9883,-1326.2532 676.0628,-1327.1926 676.0628,-1327.1926"/>
<text text-anchor="start" x="458.226" y="-1340.5" font-family="Arial" font-size="10.00" fill="#000000">FOREIGN KEY (role_id) REFERENCES roles (id)</text>
</g>
</g>
</svg>
