<?xml version="1.0" encoding="UTF-8" standalone="no"?>
<!DOCTYPE svg PUBLIC "-//W3C//DTD SVG 1.1//EN"
 "http://www.w3.org/Graphics/SVG/1.1/DTD/svg11.dtd">
<!-- Generated by graphviz version 2.40.1 (20161225.0304)
 -->
<!-- Title: sms_message_stats Pages: 1 -->
<svg width="1360pt" height="2002pt"
 viewBox="0.00 0.00 1359.50 2002.00" xmlns="http://www.w3.org/2000/svg" xmlns:xlink="http://www.w3.org/1999/xlink">
<g id="graph0" class="graph" transform="scale(1 1) rotate(0) translate(4 1998)">
<title>sms_message_stats</title>
<polygon fill="#ffffff" stroke="transparent" points="-4,4 -4,-1998 1355.5,-1998 1355.5,4 -4,4"/>
<!-- sms_message_stats -->
<g id="node1" class="node">
<title>sms_message_stats</title>
<polygon fill="#efefef" stroke="transparent" points="552.5,-1912.5 552.5,-1947.5 827.5,-1947.5 827.5,-1912.5 552.5,-1912.5"/>
<polygon fill="none" stroke="#000000" points="552.5,-1912.5 552.5,-1947.5 827.5,-1947.5 827.5,-1912.5 552.5,-1912.5"/>
<text text-anchor="start" x="559.357" y="-1925.3" font-family="Arial Bold" font-size="18.00" fill="#000000">sms_message_stats</text>
<text text-anchor="start" x="723.3892" y="-1925.3" font-family="Arial" font-size="14.00" fill="#000000"> </text>
<text text-anchor="start" x="727.2798" y="-1925.3" font-family="Arial" font-size="14.00" fill="#666666">[BASE TABLE]</text>
<polygon fill="none" stroke="#000000" points="552.5,-1882.5 552.5,-1912.5 827.5,-1912.5 827.5,-1882.5 552.5,-1882.5"/>
<text text-anchor="start" x="559.5" y="-1893.9" font-family="Arial" font-size="14.00" fill="#000000">id </text>
<text text-anchor="start" x="574.2798" y="-1893.9" font-family="Arial" font-size="14.00" fill="#666666">[bigint(20) unsigned]</text>
<polygon fill="none" stroke="#000000" points="552.5,-1852.5 552.5,-1882.5 827.5,-1882.5 827.5,-1852.5 552.5,-1852.5"/>
<text text-anchor="start" x="559.5" y="-1863.9" font-family="Arial" font-size="14.00" fill="#000000">sms_id </text>
<text text-anchor="start" x="607.723" y="-1863.9" font-family="Arial" font-size="14.00" fill="#666666">[int(10) unsigned]</text>
<polygon fill="none" stroke="#000000" points="552.5,-1822.5 552.5,-1852.5 827.5,-1852.5 827.5,-1822.5 552.5,-1822.5"/>
<text text-anchor="start" x="559.5" y="-1833.9" font-family="Arial" font-size="14.00" fill="#000000">lead_id </text>
<text text-anchor="start" x="608.5168" y="-1833.9" font-family="Arial" font-size="14.00" fill="#666666">[bigint(20) unsigned]</text>
<polygon fill="none" stroke="#000000" points="552.5,-1792.5 552.5,-1822.5 827.5,-1822.5 827.5,-1792.5 552.5,-1792.5"/>
<text text-anchor="start" x="559.5" y="-1803.9" font-family="Arial" font-size="14.00" fill="#000000">list_id </text>
<text text-anchor="start" x="599.1662" y="-1803.9" font-family="Arial" font-size="14.00" fill="#666666">[int(10) unsigned]</text>
<polygon fill="none" stroke="#000000" points="552.5,-1762.5 552.5,-1792.5 827.5,-1792.5 827.5,-1762.5 552.5,-1762.5"/>
<text text-anchor="start" x="559.5" y="-1773.9" font-family="Arial" font-size="14.00" fill="#000000">ip_id </text>
<text text-anchor="start" x="592.9516" y="-1773.9" font-family="Arial" font-size="14.00" fill="#666666">[int(10) unsigned]</text>
<polygon fill="none" stroke="#000000" points="552.5,-1732.5 552.5,-1762.5 827.5,-1762.5 827.5,-1732.5 552.5,-1732.5"/>
<text text-anchor="start" x="559.5" y="-1743.9" font-family="Arial" font-size="14.00" fill="#000000">date_sent </text>
<text text-anchor="start" x="624.8674" y="-1743.9" font-family="Arial" font-size="14.00" fill="#666666">[datetime]</text>
<polygon fill="none" stroke="#000000" points="552.5,-1702.5 552.5,-1732.5 827.5,-1732.5 827.5,-1702.5 552.5,-1702.5"/>
<text text-anchor="start" x="559.5" y="-1713.9" font-family="Arial" font-size="14.00" fill="#000000">is_failed </text>
<text text-anchor="start" x="614.7314" y="-1713.9" font-family="Arial" font-size="14.00" fill="#666666">[tinyint(1)]</text>
<polygon fill="none" stroke="#000000" points="552.5,-1672.5 552.5,-1702.5 827.5,-1702.5 827.5,-1672.5 552.5,-1672.5"/>
<text text-anchor="start" x="559.5" y="-1683.9" font-family="Arial" font-size="14.00" fill="#000000">tracking_hash </text>
<text text-anchor="start" x="650.5266" y="-1683.9" font-family="Arial" font-size="14.00" fill="#666666">[varchar(191)]</text>
<polygon fill="none" stroke="#000000" points="552.5,-1642.5 552.5,-1672.5 827.5,-1672.5 827.5,-1642.5 552.5,-1642.5"/>
<text text-anchor="start" x="559.5" y="-1653.9" font-family="Arial" font-size="14.00" fill="#000000">source </text>
<text text-anchor="start" x="605.399" y="-1653.9" font-family="Arial" font-size="14.00" fill="#666666">[varchar(191)]</text>
<polygon fill="none" stroke="#000000" points="552.5,-1612.5 552.5,-1642.5 827.5,-1642.5 827.5,-1612.5 552.5,-1612.5"/>
<text text-anchor="start" x="559.5" y="-1623.9" font-family="Arial" font-size="14.00" fill="#000000">source_id </text>
<text text-anchor="start" x="624.0708" y="-1623.9" font-family="Arial" font-size="14.00" fill="#666666">[int(11)]</text>
<polygon fill="none" stroke="#000000" points="552.5,-1582.5 552.5,-1612.5 827.5,-1612.5 827.5,-1582.5 552.5,-1582.5"/>
<text text-anchor="start" x="559.5" y="-1593.9" font-family="Arial" font-size="14.00" fill="#000000">tokens </text>
<text text-anchor="start" x="604.629" y="-1593.9" font-family="Arial" font-size="14.00" fill="#666666">[longtext]</text>
<polygon fill="none" stroke="#000000" points="552.5,-1552.5 552.5,-1582.5 827.5,-1582.5 827.5,-1552.5 552.5,-1552.5"/>
<text text-anchor="start" x="559.5" y="-1563.9" font-family="Arial" font-size="14.00" fill="#000000">details </text>
<text text-anchor="start" x="603.8422" y="-1563.9" font-family="Arial" font-size="14.00" fill="#666666">[longtext]</text>
<polygon fill="none" stroke="#000000" stroke-width="3" points="550.5,-1551.5 550.5,-1949.5 828.5,-1949.5 828.5,-1551.5 550.5,-1551.5"/>
</g>
<!-- sms_messages -->
<g id="node2" class="node">
<title>sms_messages</title>
<polygon fill="#efefef" stroke="transparent" points="43.5,-1017.5 43.5,-1052.5 284.5,-1052.5 284.5,-1017.5 43.5,-1017.5"/>
<polygon fill="none" stroke="#000000" points="43.5,-1017.5 43.5,-1052.5 284.5,-1052.5 284.5,-1017.5 43.5,-1017.5"/>
<text text-anchor="start" x="52.8654" y="-1030.3" font-family="Arial Bold" font-size="18.00" fill="#000000">sms_messages</text>
<text text-anchor="start" x="177.8808" y="-1030.3" font-family="Arial" font-size="14.00" fill="#000000"> </text>
<text text-anchor="start" x="181.7714" y="-1030.3" font-family="Arial" font-size="14.00" fill="#666666">[BASE TABLE]</text>
<polygon fill="none" stroke="#000000" points="43.5,-987.5 43.5,-1017.5 284.5,-1017.5 284.5,-987.5 43.5,-987.5"/>
<text text-anchor="start" x="50.5" y="-998.9" font-family="Arial" font-size="14.00" fill="#000000">id </text>
<text text-anchor="start" x="65.2798" y="-998.9" font-family="Arial" font-size="14.00" fill="#666666">[int(10) unsigned]</text>
<polygon fill="none" stroke="#000000" points="43.5,-957.5 43.5,-987.5 284.5,-987.5 284.5,-957.5 43.5,-957.5"/>
<text text-anchor="start" x="50.5" y="-968.9" font-family="Arial" font-size="14.00" fill="#000000">category_id </text>
<text text-anchor="start" x="126.744" y="-968.9" font-family="Arial" font-size="14.00" fill="#666666">[int(10) unsigned]</text>
<polygon fill="none" stroke="#000000" points="43.5,-927.5 43.5,-957.5 284.5,-957.5 284.5,-927.5 43.5,-927.5"/>
<text text-anchor="start" x="50.5" y="-938.9" font-family="Arial" font-size="14.00" fill="#000000">is_published </text>
<text text-anchor="start" x="132.1886" y="-938.9" font-family="Arial" font-size="14.00" fill="#666666">[tinyint(1)]</text>
<polygon fill="none" stroke="#000000" points="43.5,-897.5 43.5,-927.5 284.5,-927.5 284.5,-897.5 43.5,-897.5"/>
<text text-anchor="start" x="50.5" y="-908.9" font-family="Arial" font-size="14.00" fill="#000000">date_added </text>
<text text-anchor="start" x="128.3246" y="-908.9" font-family="Arial" font-size="14.00" fill="#666666">[datetime]</text>
<polygon fill="none" stroke="#000000" points="43.5,-867.5 43.5,-897.5 284.5,-897.5 284.5,-867.5 43.5,-867.5"/>
<text text-anchor="start" x="50.5" y="-878.9" font-family="Arial" font-size="14.00" fill="#000000">created_by </text>
<text text-anchor="start" x="123.6374" y="-878.9" font-family="Arial" font-size="14.00" fill="#666666">[int(11)]</text>
<polygon fill="none" stroke="#000000" points="43.5,-837.5 43.5,-867.5 284.5,-867.5 284.5,-837.5 43.5,-837.5"/>
<text text-anchor="start" x="50.5" y="-848.9" font-family="Arial" font-size="14.00" fill="#000000">created_by_user </text>
<text text-anchor="start" x="158.6458" y="-848.9" font-family="Arial" font-size="14.00" fill="#666666">[varchar(191)]</text>
<polygon fill="none" stroke="#000000" points="43.5,-807.5 43.5,-837.5 284.5,-837.5 284.5,-807.5 43.5,-807.5"/>
<text text-anchor="start" x="50.5" y="-818.9" font-family="Arial" font-size="14.00" fill="#000000">date_modified </text>
<text text-anchor="start" x="142.3064" y="-818.9" font-family="Arial" font-size="14.00" fill="#666666">[datetime]</text>
<polygon fill="none" stroke="#000000" points="43.5,-777.5 43.5,-807.5 284.5,-807.5 284.5,-777.5 43.5,-777.5"/>
<text text-anchor="start" x="50.5" y="-788.9" font-family="Arial" font-size="14.00" fill="#000000">modified_by </text>
<text text-anchor="start" x="129.8506" y="-788.9" font-family="Arial" font-size="14.00" fill="#666666">[int(11)]</text>
<polygon fill="none" stroke="#000000" points="43.5,-747.5 43.5,-777.5 284.5,-777.5 284.5,-747.5 43.5,-747.5"/>
<text text-anchor="start" x="50.5" y="-758.9" font-family="Arial" font-size="14.00" fill="#000000">modified_by_user </text>
<text text-anchor="start" x="164.859" y="-758.9" font-family="Arial" font-size="14.00" fill="#666666">[varchar(191)]</text>
<polygon fill="none" stroke="#000000" points="43.5,-717.5 43.5,-747.5 284.5,-747.5 284.5,-717.5 43.5,-717.5"/>
<text text-anchor="start" x="50.5" y="-728.9" font-family="Arial" font-size="14.00" fill="#000000">checked_out </text>
<text text-anchor="start" x="133.7594" y="-728.9" font-family="Arial" font-size="14.00" fill="#666666">[datetime]</text>
<polygon fill="none" stroke="#000000" points="43.5,-687.5 43.5,-717.5 284.5,-717.5 284.5,-687.5 43.5,-687.5"/>
<text text-anchor="start" x="50.5" y="-698.9" font-family="Arial" font-size="14.00" fill="#000000">checked_out_by </text>
<text text-anchor="start" x="156.3246" y="-698.9" font-family="Arial" font-size="14.00" fill="#666666">[int(11)]</text>
<polygon fill="none" stroke="#000000" points="43.5,-657.5 43.5,-687.5 284.5,-687.5 284.5,-657.5 43.5,-657.5"/>
<text text-anchor="start" x="50.0239" y="-668.9" font-family="Arial" font-size="14.00" fill="#000000">checked_out_by_user </text>
<text text-anchor="start" x="190.8569" y="-668.9" font-family="Arial" font-size="14.00" fill="#666666">[varchar(191)]</text>
<polygon fill="none" stroke="#000000" points="43.5,-627.5 43.5,-657.5 284.5,-657.5 284.5,-627.5 43.5,-627.5"/>
<text text-anchor="start" x="50.5" y="-638.9" font-family="Arial" font-size="14.00" fill="#000000">name </text>
<text text-anchor="start" x="89.399" y="-638.9" font-family="Arial" font-size="14.00" fill="#666666">[varchar(191)]</text>
<polygon fill="none" stroke="#000000" points="43.5,-597.5 43.5,-627.5 284.5,-627.5 284.5,-597.5 43.5,-597.5"/>
<text text-anchor="start" x="50.5" y="-608.9" font-family="Arial" font-size="14.00" fill="#000000">description </text>
<text text-anchor="start" x="122.068" y="-608.9" font-family="Arial" font-size="14.00" fill="#666666">[longtext]</text>
<polygon fill="none" stroke="#000000" points="43.5,-567.5 43.5,-597.5 284.5,-597.5 284.5,-567.5 43.5,-567.5"/>
<text text-anchor="start" x="50.5" y="-578.9" font-family="Arial" font-size="14.00" fill="#000000">lang </text>
<text text-anchor="start" x="80.845" y="-578.9" font-family="Arial" font-size="14.00" fill="#666666">[varchar(191)]</text>
<polygon fill="none" stroke="#000000" points="43.5,-537.5 43.5,-567.5 284.5,-567.5 284.5,-537.5 43.5,-537.5"/>
<text text-anchor="start" x="50.5" y="-548.9" font-family="Arial" font-size="14.00" fill="#000000">message </text>
<text text-anchor="start" x="111.1816" y="-548.9" font-family="Arial" font-size="14.00" fill="#666666">[longtext]</text>
<polygon fill="none" stroke="#000000" points="43.5,-507.5 43.5,-537.5 284.5,-537.5 284.5,-507.5 43.5,-507.5"/>
<text text-anchor="start" x="50.5" y="-518.9" font-family="Arial" font-size="14.00" fill="#000000">sms_type </text>
<text text-anchor="start" x="114.2896" y="-518.9" font-family="Arial" font-size="14.00" fill="#666666">[longtext]</text>
<polygon fill="none" stroke="#000000" points="43.5,-477.5 43.5,-507.5 284.5,-507.5 284.5,-477.5 43.5,-477.5"/>
<text text-anchor="start" x="50.5" y="-488.9" font-family="Arial" font-size="14.00" fill="#000000">publish_up </text>
<text text-anchor="start" x="122.082" y="-488.9" font-family="Arial" font-size="14.00" fill="#666666">[datetime]</text>
<polygon fill="none" stroke="#000000" points="43.5,-447.5 43.5,-477.5 284.5,-477.5 284.5,-447.5 43.5,-447.5"/>
<text text-anchor="start" x="50.5" y="-458.9" font-family="Arial" font-size="14.00" fill="#000000">publish_down </text>
<text text-anchor="start" x="139.9712" y="-458.9" font-family="Arial" font-size="14.00" fill="#666666">[datetime]</text>
<polygon fill="none" stroke="#000000" points="43.5,-417.5 43.5,-447.5 284.5,-447.5 284.5,-417.5 43.5,-417.5"/>
<text text-anchor="start" x="50.5" y="-428.9" font-family="Arial" font-size="14.00" fill="#000000">sent_count </text>
<text text-anchor="start" x="122.8674" y="-428.9" font-family="Arial" font-size="14.00" fill="#666666">[int(11)]</text>
</g>
<!-- sms_message_stats&#45;&gt;sms_messages -->
<g id="edge1" class="edge">
<title>sms_message_stats:sms_id&#45;&gt;sms_messages:id</title>
<path fill="none" stroke="#000000" d="M542.4135,-1867.3216C353.0905,-1860.5018 394.718,-1659.3653 335.5,-1471 319.7959,-1421.0473 336.8631,-1002.5 284.5,-1002.5"/>
<polygon fill="#000000" stroke="#000000" points="542.5016,-1867.3231 552.4204,-1871.9993 547.5008,-1867.4115 552.5,-1867.5 552.5,-1867.5 552.5,-1867.5 547.5008,-1867.4115 552.5796,-1863.0007 542.5016,-1867.3231 542.5016,-1867.3231"/>
<text text-anchor="start" x="276.501" y="-1877.5" font-family="Arial" font-size="10.00" fill="#000000">FOREIGN KEY (sms_id) REFERENCES sms_messages (id)</text>
</g>
<!-- leads -->
<g id="node3" class="node">
<title>leads</title>
<polygon fill="#efefef" stroke="transparent" points="388.5,-1392.5 388.5,-1427.5 641.5,-1427.5 641.5,-1392.5 388.5,-1392.5"/>
<polygon fill="none" stroke="#000000" points="388.5,-1392.5 388.5,-1427.5 641.5,-1427.5 641.5,-1392.5 388.5,-1392.5"/>
<text text-anchor="start" x="444.8667" y="-1405.3" font-family="Arial Bold" font-size="18.00" fill="#000000">leads</text>
<text text-anchor="start" x="487.8795" y="-1405.3" font-family="Arial" font-size="14.00" fill="#000000"> </text>
<text text-anchor="start" x="491.7701" y="-1405.3" font-family="Arial" font-size="14.00" fill="#666666">[BASE TABLE]</text>
<polygon fill="none" stroke="#000000" points="388.5,-1362.5 388.5,-1392.5 641.5,-1392.5 641.5,-1362.5 388.5,-1362.5"/>
<text text-anchor="start" x="395.5" y="-1373.9" font-family="Arial" font-size="14.00" fill="#000000">id </text>
<text text-anchor="start" x="410.2798" y="-1373.9" font-family="Arial" font-size="14.00" fill="#666666">[bigint(20) unsigned]</text>
<polygon fill="none" stroke="#000000" points="388.5,-1332.5 388.5,-1362.5 641.5,-1362.5 641.5,-1332.5 388.5,-1332.5"/>
<text text-anchor="start" x="395.5" y="-1343.9" font-family="Arial" font-size="14.00" fill="#000000">owner_id </text>
<text text-anchor="start" x="456.1774" y="-1343.9" font-family="Arial" font-size="14.00" fill="#666666">[int(10) unsigned]</text>
<polygon fill="none" stroke="#000000" points="388.5,-1302.5 388.5,-1332.5 641.5,-1332.5 641.5,-1302.5 388.5,-1302.5"/>
<text text-anchor="start" x="395.5" y="-1313.9" font-family="Arial" font-size="14.00" fill="#000000">stage_id </text>
<text text-anchor="start" x="452.3008" y="-1313.9" font-family="Arial" font-size="14.00" fill="#666666">[int(10) unsigned]</text>
<polygon fill="none" stroke="#000000" points="388.5,-1272.5 388.5,-1302.5 641.5,-1302.5 641.5,-1272.5 388.5,-1272.5"/>
<text text-anchor="start" x="395.5" y="-1283.9" font-family="Arial" font-size="14.00" fill="#000000">is_published </text>
<text text-anchor="start" x="477.1886" y="-1283.9" font-family="Arial" font-size="14.00" fill="#666666">[tinyint(1)]</text>
<polygon fill="none" stroke="#000000" points="388.5,-1242.5 388.5,-1272.5 641.5,-1272.5 641.5,-1242.5 388.5,-1242.5"/>
<text text-anchor="start" x="395.5" y="-1253.9" font-family="Arial" font-size="14.00" fill="#000000">date_added </text>
<text text-anchor="start" x="473.3246" y="-1253.9" font-family="Arial" font-size="14.00" fill="#666666">[datetime]</text>
<polygon fill="none" stroke="#000000" points="388.5,-1212.5 388.5,-1242.5 641.5,-1242.5 641.5,-1212.5 388.5,-1212.5"/>
<text text-anchor="start" x="395.5" y="-1223.9" font-family="Arial" font-size="14.00" fill="#000000">created_by </text>
<text text-anchor="start" x="468.6374" y="-1223.9" font-family="Arial" font-size="14.00" fill="#666666">[int(11)]</text>
<polygon fill="none" stroke="#000000" points="388.5,-1182.5 388.5,-1212.5 641.5,-1212.5 641.5,-1182.5 388.5,-1182.5"/>
<text text-anchor="start" x="395.5" y="-1193.9" font-family="Arial" font-size="14.00" fill="#000000">created_by_user </text>
<text text-anchor="start" x="503.6458" y="-1193.9" font-family="Arial" font-size="14.00" fill="#666666">[varchar(191)]</text>
<polygon fill="none" stroke="#000000" points="388.5,-1152.5 388.5,-1182.5 641.5,-1182.5 641.5,-1152.5 388.5,-1152.5"/>
<text text-anchor="start" x="395.5" y="-1163.9" font-family="Arial" font-size="14.00" fill="#000000">date_modified </text>
<text text-anchor="start" x="487.3064" y="-1163.9" font-family="Arial" font-size="14.00" fill="#666666">[datetime]</text>
<polygon fill="none" stroke="#000000" points="388.5,-1122.5 388.5,-1152.5 641.5,-1152.5 641.5,-1122.5 388.5,-1122.5"/>
<text text-anchor="start" x="395.5" y="-1133.9" font-family="Arial" font-size="14.00" fill="#000000">modified_by </text>
<text text-anchor="start" x="474.8506" y="-1133.9" font-family="Arial" font-size="14.00" fill="#666666">[int(11)]</text>
<polygon fill="none" stroke="#000000" points="388.5,-1092.5 388.5,-1122.5 641.5,-1122.5 641.5,-1092.5 388.5,-1092.5"/>
<text text-anchor="start" x="395.5" y="-1103.9" font-family="Arial" font-size="14.00" fill="#000000">modified_by_user </text>
<text text-anchor="start" x="509.859" y="-1103.9" font-family="Arial" font-size="14.00" fill="#666666">[varchar(191)]</text>
<polygon fill="none" stroke="#000000" points="388.5,-1062.5 388.5,-1092.5 641.5,-1092.5 641.5,-1062.5 388.5,-1062.5"/>
<text text-anchor="start" x="395.5" y="-1073.9" font-family="Arial" font-size="14.00" fill="#000000">checked_out </text>
<text text-anchor="start" x="478.7594" y="-1073.9" font-family="Arial" font-size="14.00" fill="#666666">[datetime]</text>
<polygon fill="none" stroke="#000000" points="388.5,-1032.5 388.5,-1062.5 641.5,-1062.5 641.5,-1032.5 388.5,-1032.5"/>
<text text-anchor="start" x="395.5" y="-1043.9" font-family="Arial" font-size="14.00" fill="#000000">checked_out_by </text>
<text text-anchor="start" x="501.3246" y="-1043.9" font-family="Arial" font-size="14.00" fill="#666666">[int(11)]</text>
<polygon fill="none" stroke="#000000" points="388.5,-1002.5 388.5,-1032.5 641.5,-1032.5 641.5,-1002.5 388.5,-1002.5"/>
<text text-anchor="start" x="395.5" y="-1013.9" font-family="Arial" font-size="14.00" fill="#000000">checked_out_by_user </text>
<text text-anchor="start" x="536.333" y="-1013.9" font-family="Arial" font-size="14.00" fill="#666666">[varchar(191)]</text>
<polygon fill="none" stroke="#000000" points="388.5,-972.5 388.5,-1002.5 641.5,-1002.5 641.5,-972.5 388.5,-972.5"/>
<text text-anchor="start" x="395.5" y="-983.9" font-family="Arial" font-size="14.00" fill="#000000">points </text>
<text text-anchor="start" x="436.7356" y="-983.9" font-family="Arial" font-size="14.00" fill="#666666">[int(11)]</text>
<polygon fill="none" stroke="#000000" points="388.5,-942.5 388.5,-972.5 641.5,-972.5 641.5,-942.5 388.5,-942.5"/>
<text text-anchor="start" x="395.5" y="-953.9" font-family="Arial" font-size="14.00" fill="#000000">last_active </text>
<text text-anchor="start" x="465.5154" y="-953.9" font-family="Arial" font-size="14.00" fill="#666666">[datetime]</text>
<polygon fill="none" stroke="#000000" points="388.5,-912.5 388.5,-942.5 641.5,-942.5 641.5,-912.5 388.5,-912.5"/>
<text text-anchor="start" x="395.5" y="-923.9" font-family="Arial" font-size="14.00" fill="#000000">internal </text>
<text text-anchor="start" x="445.2854" y="-923.9" font-family="Arial" font-size="14.00" fill="#666666">[longtext]</text>
<polygon fill="none" stroke="#000000" points="388.5,-882.5 388.5,-912.5 641.5,-912.5 641.5,-882.5 388.5,-882.5"/>
<text text-anchor="start" x="395.5" y="-893.9" font-family="Arial" font-size="14.00" fill="#000000">social_cache </text>
<text text-anchor="start" x="480.2994" y="-893.9" font-family="Arial" font-size="14.00" fill="#666666">[longtext]</text>
<polygon fill="none" stroke="#000000" points="388.5,-852.5 388.5,-882.5 641.5,-882.5 641.5,-852.5 388.5,-852.5"/>
<text text-anchor="start" x="395.5" y="-863.9" font-family="Arial" font-size="14.00" fill="#000000">date_identified </text>
<text text-anchor="start" x="490.4256" y="-863.9" font-family="Arial" font-size="14.00" fill="#666666">[datetime]</text>
<polygon fill="none" stroke="#000000" points="388.5,-822.5 388.5,-852.5 641.5,-852.5 641.5,-822.5 388.5,-822.5"/>
<text text-anchor="start" x="395.2062" y="-833.9" font-family="Arial" font-size="14.00" fill="#000000">preferred_profile_image </text>
<text text-anchor="start" x="547.6746" y="-833.9" font-family="Arial" font-size="14.00" fill="#666666">[varchar(191)]</text>
<polygon fill="none" stroke="#000000" points="388.5,-792.5 388.5,-822.5 641.5,-822.5 641.5,-792.5 388.5,-792.5"/>
<text text-anchor="start" x="395.5" y="-803.9" font-family="Arial" font-size="14.00" fill="#000000">title </text>
<text text-anchor="start" x="421.1676" y="-803.9" font-family="Arial" font-size="14.00" fill="#666666">[varchar(191)]</text>
<polygon fill="none" stroke="#000000" points="388.5,-762.5 388.5,-792.5 641.5,-792.5 641.5,-762.5 388.5,-762.5"/>
<text text-anchor="start" x="395.5" y="-773.9" font-family="Arial" font-size="14.00" fill="#000000">firstname </text>
<text text-anchor="start" x="456.9474" y="-773.9" font-family="Arial" font-size="14.00" fill="#666666">[varchar(191)]</text>
<polygon fill="none" stroke="#000000" points="388.5,-732.5 388.5,-762.5 641.5,-762.5 641.5,-732.5 388.5,-732.5"/>
<text text-anchor="start" x="395.5" y="-743.9" font-family="Arial" font-size="14.00" fill="#000000">lastname </text>
<text text-anchor="start" x="456.1788" y="-743.9" font-family="Arial" font-size="14.00" fill="#666666">[varchar(191)]</text>
<polygon fill="none" stroke="#000000" points="388.5,-702.5 388.5,-732.5 641.5,-732.5 641.5,-702.5 388.5,-702.5"/>
<text text-anchor="start" x="395.5" y="-713.9" font-family="Arial" font-size="14.00" fill="#000000">company </text>
<text text-anchor="start" x="456.1816" y="-713.9" font-family="Arial" font-size="14.00" fill="#666666">[varchar(191)]</text>
<polygon fill="none" stroke="#000000" points="388.5,-672.5 388.5,-702.5 641.5,-702.5 641.5,-672.5 388.5,-672.5"/>
<text text-anchor="start" x="395.5" y="-683.9" font-family="Arial" font-size="14.00" fill="#000000">position </text>
<text text-anchor="start" x="447.6248" y="-683.9" font-family="Arial" font-size="14.00" fill="#666666">[varchar(191)]</text>
<polygon fill="none" stroke="#000000" points="388.5,-642.5 388.5,-672.5 641.5,-672.5 641.5,-642.5 388.5,-642.5"/>
<text text-anchor="start" x="395.5" y="-653.9" font-family="Arial" font-size="14.00" fill="#000000">email </text>
<text text-anchor="start" x="432.8296" y="-653.9" font-family="Arial" font-size="14.00" fill="#666666">[varchar(191)]</text>
<polygon fill="none" stroke="#000000" points="388.5,-612.5 388.5,-642.5 641.5,-642.5 641.5,-612.5 388.5,-612.5"/>
<text text-anchor="start" x="395.5" y="-623.9" font-family="Arial" font-size="14.00" fill="#000000">phone </text>
<text text-anchor="start" x="438.3036" y="-623.9" font-family="Arial" font-size="14.00" fill="#666666">[varchar(191)]</text>
<polygon fill="none" stroke="#000000" points="388.5,-582.5 388.5,-612.5 641.5,-612.5 641.5,-582.5 388.5,-582.5"/>
<text text-anchor="start" x="395.5" y="-593.9" font-family="Arial" font-size="14.00" fill="#000000">mobile </text>
<text text-anchor="start" x="440.6122" y="-593.9" font-family="Arial" font-size="14.00" fill="#666666">[varchar(191)]</text>
<polygon fill="none" stroke="#000000" points="388.5,-552.5 388.5,-582.5 641.5,-582.5 641.5,-552.5 388.5,-552.5"/>
<text text-anchor="start" x="395.5" y="-563.9" font-family="Arial" font-size="14.00" fill="#000000">address1 </text>
<text text-anchor="start" x="456.9642" y="-563.9" font-family="Arial" font-size="14.00" fill="#666666">[varchar(191)]</text>
<polygon fill="none" stroke="#000000" points="388.5,-522.5 388.5,-552.5 641.5,-552.5 641.5,-522.5 388.5,-522.5"/>
<text text-anchor="start" x="395.5" y="-533.9" font-family="Arial" font-size="14.00" fill="#000000">address2 </text>
<text text-anchor="start" x="456.9642" y="-533.9" font-family="Arial" font-size="14.00" fill="#666666">[varchar(191)]</text>
<polygon fill="none" stroke="#000000" points="388.5,-492.5 388.5,-522.5 641.5,-522.5 641.5,-492.5 388.5,-492.5"/>
<text text-anchor="start" x="395.5" y="-503.9" font-family="Arial" font-size="14.00" fill="#000000">city </text>
<text text-anchor="start" x="420.3878" y="-503.9" font-family="Arial" font-size="14.00" fill="#666666">[varchar(191)]</text>
<polygon fill="none" stroke="#000000" points="388.5,-462.5 388.5,-492.5 641.5,-492.5 641.5,-462.5 388.5,-462.5"/>
<text text-anchor="start" x="395.5" y="-473.9" font-family="Arial" font-size="14.00" fill="#000000">state </text>
<text text-anchor="start" x="429.737" y="-473.9" font-family="Arial" font-size="14.00" fill="#666666">[varchar(191)]</text>
<polygon fill="none" stroke="#000000" points="388.5,-432.5 388.5,-462.5 641.5,-462.5 641.5,-432.5 388.5,-432.5"/>
<text text-anchor="start" x="395.5" y="-443.9" font-family="Arial" font-size="14.00" fill="#000000">zipcode </text>
<text text-anchor="start" x="447.6276" y="-443.9" font-family="Arial" font-size="14.00" fill="#666666">[varchar(191)]</text>
<polygon fill="none" stroke="#000000" points="388.5,-402.5 388.5,-432.5 641.5,-432.5 641.5,-402.5 388.5,-402.5"/>
<text text-anchor="start" x="395.5" y="-413.9" font-family="Arial" font-size="14.00" fill="#000000">timezone </text>
<text text-anchor="start" x="456.1788" y="-413.9" font-family="Arial" font-size="14.00" fill="#666666">[varchar(191)]</text>
<polygon fill="none" stroke="#000000" points="388.5,-372.5 388.5,-402.5 641.5,-402.5 641.5,-372.5 388.5,-372.5"/>
<text text-anchor="start" x="395.5" y="-383.9" font-family="Arial" font-size="14.00" fill="#000000">country </text>
<text text-anchor="start" x="445.2896" y="-383.9" font-family="Arial" font-size="14.00" fill="#666666">[varchar(191)]</text>
<polygon fill="none" stroke="#000000" points="388.5,-342.5 388.5,-372.5 641.5,-372.5 641.5,-342.5 388.5,-342.5"/>
<text text-anchor="start" x="395.5" y="-353.9" font-family="Arial" font-size="14.00" fill="#000000">fax </text>
<text text-anchor="start" x="418.0638" y="-353.9" font-family="Arial" font-size="14.00" fill="#666666">[varchar(255)]</text>
<polygon fill="none" stroke="#000000" points="388.5,-312.5 388.5,-342.5 641.5,-342.5 641.5,-312.5 388.5,-312.5"/>
<text text-anchor="start" x="395.5" y="-323.9" font-family="Arial" font-size="14.00" fill="#000000">preferred_locale </text>
<text text-anchor="start" x="500.5196" y="-323.9" font-family="Arial" font-size="14.00" fill="#666666">[varchar(255)]</text>
<polygon fill="none" stroke="#000000" points="388.5,-282.5 388.5,-312.5 641.5,-312.5 641.5,-282.5 388.5,-282.5"/>
<text text-anchor="start" x="395.5" y="-293.9" font-family="Arial" font-size="14.00" fill="#000000">attribution_date </text>
<text text-anchor="start" x="495.8702" y="-293.9" font-family="Arial" font-size="14.00" fill="#666666">[datetime]</text>
<polygon fill="none" stroke="#000000" points="388.5,-252.5 388.5,-282.5 641.5,-282.5 641.5,-252.5 388.5,-252.5"/>
<text text-anchor="start" x="395.5" y="-263.9" font-family="Arial" font-size="14.00" fill="#000000">attribution </text>
<text text-anchor="start" x="460.8492" y="-263.9" font-family="Arial" font-size="14.00" fill="#666666">[double]</text>
<polygon fill="none" stroke="#000000" points="388.5,-222.5 388.5,-252.5 641.5,-252.5 641.5,-222.5 388.5,-222.5"/>
<text text-anchor="start" x="395.5" y="-233.9" font-family="Arial" font-size="14.00" fill="#000000">website </text>
<text text-anchor="start" x="446.8422" y="-233.9" font-family="Arial" font-size="14.00" fill="#666666">[longtext]</text>
<polygon fill="none" stroke="#000000" points="388.5,-192.5 388.5,-222.5 641.5,-222.5 641.5,-192.5 388.5,-192.5"/>
<text text-anchor="start" x="395.5" y="-203.9" font-family="Arial" font-size="14.00" fill="#000000">facebook </text>
<text text-anchor="start" x="456.1942" y="-203.9" font-family="Arial" font-size="14.00" fill="#666666">[varchar(255)]</text>
<polygon fill="none" stroke="#000000" points="388.5,-162.5 388.5,-192.5 641.5,-192.5 641.5,-162.5 388.5,-162.5"/>
<text text-anchor="start" x="395.5" y="-173.9" font-family="Arial" font-size="14.00" fill="#000000">foursquare </text>
<text text-anchor="start" x="466.298" y="-173.9" font-family="Arial" font-size="14.00" fill="#666666">[varchar(255)]</text>
<polygon fill="none" stroke="#000000" points="388.5,-132.5 388.5,-162.5 641.5,-162.5 641.5,-132.5 388.5,-132.5"/>
<text text-anchor="start" x="395.5" y="-143.9" font-family="Arial" font-size="14.00" fill="#000000">instagram </text>
<text text-anchor="start" x="460.8394" y="-143.9" font-family="Arial" font-size="14.00" fill="#666666">[varchar(255)]</text>
<polygon fill="none" stroke="#000000" points="388.5,-102.5 388.5,-132.5 641.5,-132.5 641.5,-102.5 388.5,-102.5"/>
<text text-anchor="start" x="395.5" y="-113.9" font-family="Arial" font-size="14.00" fill="#000000">linkedin </text>
<text text-anchor="start" x="446.8408" y="-113.9" font-family="Arial" font-size="14.00" fill="#666666">[varchar(255)]</text>
<polygon fill="none" stroke="#000000" points="388.5,-72.5 388.5,-102.5 641.5,-102.5 641.5,-72.5 388.5,-72.5"/>
<text text-anchor="start" x="395.5" y="-83.9" font-family="Arial" font-size="14.00" fill="#000000">skype </text>
<text text-anchor="start" x="435.9558" y="-83.9" font-family="Arial" font-size="14.00" fill="#666666">[varchar(255)]</text>
<polygon fill="none" stroke="#000000" points="388.5,-42.5 388.5,-72.5 641.5,-72.5 641.5,-42.5 388.5,-42.5"/>
<text text-anchor="start" x="395.5" y="-53.9" font-family="Arial" font-size="14.00" fill="#000000">twitter </text>
<text text-anchor="start" x="436.7188" y="-53.9" font-family="Arial" font-size="14.00" fill="#666666">[varchar(255)]</text>
</g>
<!-- sms_message_stats&#45;&gt;leads -->
<g id="edge2" class="edge">
<title>sms_message_stats:lead_id&#45;&gt;leads:id</title>
<path fill="none" stroke="#000000" d="M542.1172,-1837.1311C408.7842,-1827.361 472.39,-1625.8195 552.5,-1507 576.3531,-1471.621 617.6469,-1506.379 641.5,-1471 664.7306,-1436.5442 683.0556,-1377.5 641.5,-1377.5"/>
<polygon fill="#000000" stroke="#000000" points="542.5063,-1837.1448 552.3402,-1841.9972 547.5032,-1837.3224 552.5,-1837.5 552.5,-1837.5 552.5,-1837.5 547.5032,-1837.3224 552.6598,-1833.0028 542.5063,-1837.1448 542.5063,-1837.1448"/>
<text text-anchor="start" x="320.996" y="-1847.5" font-family="Arial" font-size="10.00" fill="#000000">FOREIGN KEY (lead_id) REFERENCES leads (id)</text>
</g>
<!-- lead_lists -->
<g id="node4" class="node">
<title>lead_lists</title>
<polygon fill="#efefef" stroke="transparent" points="745.5,-1002.5 745.5,-1037.5 986.5,-1037.5 986.5,-1002.5 745.5,-1002.5"/>
<polygon fill="none" stroke="#000000" points="745.5,-1002.5 745.5,-1037.5 986.5,-1037.5 986.5,-1002.5 745.5,-1002.5"/>
<text text-anchor="start" x="779.8683" y="-1015.3" font-family="Arial Bold" font-size="18.00" fill="#000000">lead_lists</text>
<text text-anchor="start" x="854.8779" y="-1015.3" font-family="Arial" font-size="14.00" fill="#000000"> </text>
<text text-anchor="start" x="858.7685" y="-1015.3" font-family="Arial" font-size="14.00" fill="#666666">[BASE TABLE]</text>
<polygon fill="none" stroke="#000000" points="745.5,-972.5 745.5,-1002.5 986.5,-1002.5 986.5,-972.5 745.5,-972.5"/>
<text text-anchor="start" x="752.5" y="-983.9" font-family="Arial" font-size="14.00" fill="#000000">id </text>
<text text-anchor="start" x="767.2798" y="-983.9" font-family="Arial" font-size="14.00" fill="#666666">[int(10) unsigned]</text>
<polygon fill="none" stroke="#000000" points="745.5,-942.5 745.5,-972.5 986.5,-972.5 986.5,-942.5 745.5,-942.5"/>
<text text-anchor="start" x="752.5" y="-953.9" font-family="Arial" font-size="14.00" fill="#000000">category_id </text>
<text text-anchor="start" x="828.744" y="-953.9" font-family="Arial" font-size="14.00" fill="#666666">[int(10) unsigned]</text>
<polygon fill="none" stroke="#000000" points="745.5,-912.5 745.5,-942.5 986.5,-942.5 986.5,-912.5 745.5,-912.5"/>
<text text-anchor="start" x="752.5" y="-923.9" font-family="Arial" font-size="14.00" fill="#000000">is_published </text>
<text text-anchor="start" x="834.1886" y="-923.9" font-family="Arial" font-size="14.00" fill="#666666">[tinyint(1)]</text>
<polygon fill="none" stroke="#000000" points="745.5,-882.5 745.5,-912.5 986.5,-912.5 986.5,-882.5 745.5,-882.5"/>
<text text-anchor="start" x="752.5" y="-893.9" font-family="Arial" font-size="14.00" fill="#000000">date_added </text>
<text text-anchor="start" x="830.3246" y="-893.9" font-family="Arial" font-size="14.00" fill="#666666">[datetime]</text>
<polygon fill="none" stroke="#000000" points="745.5,-852.5 745.5,-882.5 986.5,-882.5 986.5,-852.5 745.5,-852.5"/>
<text text-anchor="start" x="752.5" y="-863.9" font-family="Arial" font-size="14.00" fill="#000000">created_by </text>
<text text-anchor="start" x="825.6374" y="-863.9" font-family="Arial" font-size="14.00" fill="#666666">[int(11)]</text>
<polygon fill="none" stroke="#000000" points="745.5,-822.5 745.5,-852.5 986.5,-852.5 986.5,-822.5 745.5,-822.5"/>
<text text-anchor="start" x="752.5" y="-833.9" font-family="Arial" font-size="14.00" fill="#000000">created_by_user </text>
<text text-anchor="start" x="860.6458" y="-833.9" font-family="Arial" font-size="14.00" fill="#666666">[varchar(191)]</text>
<polygon fill="none" stroke="#000000" points="745.5,-792.5 745.5,-822.5 986.5,-822.5 986.5,-792.5 745.5,-792.5"/>
<text text-anchor="start" x="752.5" y="-803.9" font-family="Arial" font-size="14.00" fill="#000000">date_modified </text>
<text text-anchor="start" x="844.3064" y="-803.9" font-family="Arial" font-size="14.00" fill="#666666">[datetime]</text>
<polygon fill="none" stroke="#000000" points="745.5,-762.5 745.5,-792.5 986.5,-792.5 986.5,-762.5 745.5,-762.5"/>
<text text-anchor="start" x="752.5" y="-773.9" font-family="Arial" font-size="14.00" fill="#000000">modified_by </text>
<text text-anchor="start" x="831.8506" y="-773.9" font-family="Arial" font-size="14.00" fill="#666666">[int(11)]</text>
<polygon fill="none" stroke="#000000" points="745.5,-732.5 745.5,-762.5 986.5,-762.5 986.5,-732.5 745.5,-732.5"/>
<text text-anchor="start" x="752.5" y="-743.9" font-family="Arial" font-size="14.00" fill="#000000">modified_by_user </text>
<text text-anchor="start" x="866.859" y="-743.9" font-family="Arial" font-size="14.00" fill="#666666">[varchar(191)]</text>
<polygon fill="none" stroke="#000000" points="745.5,-702.5 745.5,-732.5 986.5,-732.5 986.5,-702.5 745.5,-702.5"/>
<text text-anchor="start" x="752.5" y="-713.9" font-family="Arial" font-size="14.00" fill="#000000">checked_out </text>
<text text-anchor="start" x="835.7594" y="-713.9" font-family="Arial" font-size="14.00" fill="#666666">[datetime]</text>
<polygon fill="none" stroke="#000000" points="745.5,-672.5 745.5,-702.5 986.5,-702.5 986.5,-672.5 745.5,-672.5"/>
<text text-anchor="start" x="752.5" y="-683.9" font-family="Arial" font-size="14.00" fill="#000000">checked_out_by </text>
<text text-anchor="start" x="858.3246" y="-683.9" font-family="Arial" font-size="14.00" fill="#666666">[int(11)]</text>
<polygon fill="none" stroke="#000000" points="745.5,-642.5 745.5,-672.5 986.5,-672.5 986.5,-642.5 745.5,-642.5"/>
<text text-anchor="start" x="752.0239" y="-653.9" font-family="Arial" font-size="14.00" fill="#000000">checked_out_by_user </text>
<text text-anchor="start" x="892.8569" y="-653.9" font-family="Arial" font-size="14.00" fill="#666666">[varchar(191)]</text>
<polygon fill="none" stroke="#000000" points="745.5,-612.5 745.5,-642.5 986.5,-642.5 986.5,-612.5 745.5,-612.5"/>
<text text-anchor="start" x="752.5" y="-623.9" font-family="Arial" font-size="14.00" fill="#000000">name </text>
<text text-anchor="start" x="791.399" y="-623.9" font-family="Arial" font-size="14.00" fill="#666666">[varchar(191)]</text>
<polygon fill="none" stroke="#000000" points="745.5,-582.5 745.5,-612.5 986.5,-612.5 986.5,-582.5 745.5,-582.5"/>
<text text-anchor="start" x="752.5" y="-593.9" font-family="Arial" font-size="14.00" fill="#000000">description </text>
<text text-anchor="start" x="824.068" y="-593.9" font-family="Arial" font-size="14.00" fill="#666666">[longtext]</text>
<polygon fill="none" stroke="#000000" points="745.5,-552.5 745.5,-582.5 986.5,-582.5 986.5,-552.5 745.5,-552.5"/>
<text text-anchor="start" x="752.5" y="-563.9" font-family="Arial" font-size="14.00" fill="#000000">alias </text>
<text text-anchor="start" x="785.169" y="-563.9" font-family="Arial" font-size="14.00" fill="#666666">[varchar(191)]</text>
<polygon fill="none" stroke="#000000" points="745.5,-522.5 745.5,-552.5 986.5,-552.5 986.5,-522.5 745.5,-522.5"/>
<text text-anchor="start" x="752.5" y="-533.9" font-family="Arial" font-size="14.00" fill="#000000">public_name </text>
<text text-anchor="start" x="835.7426" y="-533.9" font-family="Arial" font-size="14.00" fill="#666666">[varchar(191)]</text>
<polygon fill="none" stroke="#000000" points="745.5,-492.5 745.5,-522.5 986.5,-522.5 986.5,-492.5 745.5,-492.5"/>
<text text-anchor="start" x="752.5" y="-503.9" font-family="Arial" font-size="14.00" fill="#000000">filters </text>
<text text-anchor="start" x="789.8282" y="-503.9" font-family="Arial" font-size="14.00" fill="#666666">[longtext]</text>
<polygon fill="none" stroke="#000000" points="745.5,-462.5 745.5,-492.5 986.5,-492.5 986.5,-462.5 745.5,-462.5"/>
<text text-anchor="start" x="752.5" y="-473.9" font-family="Arial" font-size="14.00" fill="#000000">is_global </text>
<text text-anchor="start" x="811.6234" y="-473.9" font-family="Arial" font-size="14.00" fill="#666666">[tinyint(1)]</text>
<polygon fill="none" stroke="#000000" points="745.5,-432.5 745.5,-462.5 986.5,-462.5 986.5,-432.5 745.5,-432.5"/>
<text text-anchor="start" x="752.5" y="-443.9" font-family="Arial" font-size="14.00" fill="#000000">is_preference_center </text>
<text text-anchor="start" x="887.8688" y="-443.9" font-family="Arial" font-size="14.00" fill="#666666">[tinyint(1)]</text>
</g>
<!-- sms_message_stats&#45;&gt;lead_lists -->
<g id="edge3" class="edge">
<title>sms_message_stats:list_id&#45;&gt;lead_lists:id</title>
<path fill="none" stroke="#000000" d="M837.4319,-1805.4333C919.3298,-1768.0096 760.0045,-1233.0882 745.5,-1081 741.5548,-1039.6321 703.9444,-987.5 745.5,-987.5"/>
<polygon fill="#000000" stroke="#000000" points="837.2903,-1805.4627 826.5832,-1803.0944 832.3951,-1806.4813 827.5,-1807.5 827.5,-1807.5 827.5,-1807.5 832.3951,-1806.4813 828.4168,-1811.9056 837.2903,-1805.4627 837.2903,-1805.4627"/>
<text text-anchor="start" x="834.4475" y="-1817.5" font-family="Arial" font-size="10.00" fill="#000000">FOREIGN KEY (list_id) REFERENCES lead_lists (id)</text>
</g>
<!-- ip_addresses -->
<g id="node5" class="node">
<title>ip_addresses</title>
<polygon fill="#efefef" stroke="transparent" points="1090.5,-762.5 1090.5,-797.5 1308.5,-797.5 1308.5,-762.5 1090.5,-762.5"/>
<polygon fill="none" stroke="#000000" points="1090.5,-762.5 1090.5,-797.5 1308.5,-797.5 1308.5,-762.5 1090.5,-762.5"/>
<text text-anchor="start" x="1097.3582" y="-775.3" font-family="Arial Bold" font-size="18.00" fill="#000000">ip_addresses</text>
<text text-anchor="start" x="1204.388" y="-775.3" font-family="Arial" font-size="14.00" fill="#000000"> </text>
<text text-anchor="start" x="1208.2786" y="-775.3" font-family="Arial" font-size="14.00" fill="#666666">[BASE TABLE]</text>
<polygon fill="none" stroke="#000000" points="1090.5,-732.5 1090.5,-762.5 1308.5,-762.5 1308.5,-732.5 1090.5,-732.5"/>
<text text-anchor="start" x="1097.5" y="-743.9" font-family="Arial" font-size="14.00" fill="#000000">id </text>
<text text-anchor="start" x="1112.2798" y="-743.9" font-family="Arial" font-size="14.00" fill="#666666">[int(10) unsigned]</text>
<polygon fill="none" stroke="#000000" points="1090.5,-702.5 1090.5,-732.5 1308.5,-732.5 1308.5,-702.5 1090.5,-702.5"/>
<text text-anchor="start" x="1097.5" y="-713.9" font-family="Arial" font-size="14.00" fill="#000000">ip_address </text>
<text text-anchor="start" x="1169.8534" y="-713.9" font-family="Arial" font-size="14.00" fill="#666666">[varchar(45)]</text>
<polygon fill="none" stroke="#000000" points="1090.5,-672.5 1090.5,-702.5 1308.5,-702.5 1308.5,-672.5 1090.5,-672.5"/>
<text text-anchor="start" x="1097.5" y="-683.9" font-family="Arial" font-size="14.00" fill="#000000">ip_details </text>
<text text-anchor="start" x="1160.514" y="-683.9" font-family="Arial" font-size="14.00" fill="#666666">[longtext]</text>
</g>
<!-- sms_message_stats&#45;&gt;ip_addresses -->
<g id="edge4" class="edge">
<title>sms_message_stats:ip_id&#45;&gt;ip_addresses:id</title>
<path fill="none" stroke="#000000" d="M837.92,-1777.2931C992.5184,-1771.0332 984.9402,-1623.7073 1038.5,-1471 1065.1748,-1394.946 1009.9037,-747.5 1090.5,-747.5"/>
<polygon fill="#000000" stroke="#000000" points="837.498,-1777.3014 827.4106,-1773.0009 832.499,-1777.4007 827.5,-1777.5 827.5,-1777.5 827.5,-1777.5 832.499,-1777.4007 827.5894,-1781.9991 837.498,-1777.3014 837.498,-1777.3014"/>
<text text-anchor="start" x="834.7725" y="-1787.5" font-family="Arial" font-size="10.00" fill="#000000">FOREIGN KEY (ip_id) REFERENCES ip_addresses (id)</text>
</g>
</g>
</svg>
