<?xml version="1.0" encoding="UTF-8" standalone="no"?>
<!DOCTYPE svg PUBLIC "-//W3C//DTD SVG 1.1//EN"
 "http://www.w3.org/Graphics/SVG/1.1/DTD/svg11.dtd">
<!-- Generated by graphviz version 2.40.1 (20161225.0304)
 -->
<!-- Title: sms_message_list_xref Pages: 1 -->
<svg width="859pt" height="952pt"
 viewBox="0.00 0.00 859.00 952.00" xmlns="http://www.w3.org/2000/svg" xmlns:xlink="http://www.w3.org/1999/xlink">
<g id="graph0" class="graph" transform="scale(1 1) rotate(0) translate(4 948)">
<title>sms_message_list_xref</title>
<polygon fill="#ffffff" stroke="transparent" points="-4,4 -4,-948 855,-948 855,4 -4,4"/>
<!-- sms_message_list_xref -->
<g id="node1" class="node">
<title>sms_message_list_xref</title>
<polygon fill="#efefef" stroke="transparent" points="283,-862.5 283,-897.5 582,-897.5 582,-862.5 283,-862.5"/>
<polygon fill="none" stroke="#000000" points="283,-862.5 283,-897.5 582,-897.5 582,-862.5 283,-862.5"/>
<text text-anchor="start" x="289.8636" y="-875.3" font-family="Arial Bold" font-size="18.00" fill="#000000">sms_message_list_xref</text>
<text text-anchor="start" x="477.8826" y="-875.3" font-family="Arial" font-size="14.00" fill="#000000"> </text>
<text text-anchor="start" x="481.7732" y="-875.3" font-family="Arial" font-size="14.00" fill="#666666">[BASE TABLE]</text>
<polygon fill="none" stroke="#000000" points="283,-832.5 283,-862.5 582,-862.5 582,-832.5 283,-832.5"/>
<text text-anchor="start" x="290" y="-843.9" font-family="Arial" font-size="14.00" fill="#000000">sms_id </text>
<text text-anchor="start" x="338.223" y="-843.9" font-family="Arial" font-size="14.00" fill="#666666">[int(10) unsigned]</text>
<polygon fill="none" stroke="#000000" points="283,-802.5 283,-832.5 582,-832.5 582,-802.5 283,-802.5"/>
<text text-anchor="start" x="290" y="-813.9" font-family="Arial" font-size="14.00" fill="#000000">leadlist_id </text>
<text text-anchor="start" x="356.1206" y="-813.9" font-family="Arial" font-size="14.00" fill="#666666">[int(10) unsigned]</text>
<polygon fill="none" stroke="#000000" stroke-width="3" points="281,-801.5 281,-899.5 583,-899.5 583,-801.5 281,-801.5"/>
</g>
<!-- sms_messages -->
<g id="node2" class="node">
<title>sms_messages</title>
<polygon fill="#efefef" stroke="transparent" points="140,-642.5 140,-677.5 381,-677.5 381,-642.5 140,-642.5"/>
<polygon fill="none" stroke="#000000" points="140,-642.5 140,-677.5 381,-677.5 381,-642.5 140,-642.5"/>
<text text-anchor="start" x="149.3654" y="-655.3" font-family="Arial Bold" font-size="18.00" fill="#000000">sms_messages</text>
<text text-anchor="start" x="274.3808" y="-655.3" font-family="Arial" font-size="14.00" fill="#000000"> </text>
<text text-anchor="start" x="278.2714" y="-655.3" font-family="Arial" font-size="14.00" fill="#666666">[BASE TABLE]</text>
<polygon fill="none" stroke="#000000" points="140,-612.5 140,-642.5 381,-642.5 381,-612.5 140,-612.5"/>
<text text-anchor="start" x="147" y="-623.9" font-family="Arial" font-size="14.00" fill="#000000">id </text>
<text text-anchor="start" x="161.7798" y="-623.9" font-family="Arial" font-size="14.00" fill="#666666">[int(10) unsigned]</text>
<polygon fill="none" stroke="#000000" points="140,-582.5 140,-612.5 381,-612.5 381,-582.5 140,-582.5"/>
<text text-anchor="start" x="147" y="-593.9" font-family="Arial" font-size="14.00" fill="#000000">category_id </text>
<text text-anchor="start" x="223.244" y="-593.9" font-family="Arial" font-size="14.00" fill="#666666">[int(10) unsigned]</text>
<polygon fill="none" stroke="#000000" points="140,-552.5 140,-582.5 381,-582.5 381,-552.5 140,-552.5"/>
<text text-anchor="start" x="147" y="-563.9" font-family="Arial" font-size="14.00" fill="#000000">is_published </text>
<text text-anchor="start" x="228.6886" y="-563.9" font-family="Arial" font-size="14.00" fill="#666666">[tinyint(1)]</text>
<polygon fill="none" stroke="#000000" points="140,-522.5 140,-552.5 381,-552.5 381,-522.5 140,-522.5"/>
<text text-anchor="start" x="147" y="-533.9" font-family="Arial" font-size="14.00" fill="#000000">date_added </text>
<text text-anchor="start" x="224.8246" y="-533.9" font-family="Arial" font-size="14.00" fill="#666666">[datetime]</text>
<polygon fill="none" stroke="#000000" points="140,-492.5 140,-522.5 381,-522.5 381,-492.5 140,-492.5"/>
<text text-anchor="start" x="147" y="-503.9" font-family="Arial" font-size="14.00" fill="#000000">created_by </text>
<text text-anchor="start" x="220.1374" y="-503.9" font-family="Arial" font-size="14.00" fill="#666666">[int(11)]</text>
<polygon fill="none" stroke="#000000" points="140,-462.5 140,-492.5 381,-492.5 381,-462.5 140,-462.5"/>
<text text-anchor="start" x="147" y="-473.9" font-family="Arial" font-size="14.00" fill="#000000">created_by_user </text>
<text text-anchor="start" x="255.1458" y="-473.9" font-family="Arial" font-size="14.00" fill="#666666">[varchar(191)]</text>
<polygon fill="none" stroke="#000000" points="140,-432.5 140,-462.5 381,-462.5 381,-432.5 140,-432.5"/>
<text text-anchor="start" x="147" y="-443.9" font-family="Arial" font-size="14.00" fill="#000000">date_modified </text>
<text text-anchor="start" x="238.8064" y="-443.9" font-family="Arial" font-size="14.00" fill="#666666">[datetime]</text>
<polygon fill="none" stroke="#000000" points="140,-402.5 140,-432.5 381,-432.5 381,-402.5 140,-402.5"/>
<text text-anchor="start" x="147" y="-413.9" font-family="Arial" font-size="14.00" fill="#000000">modified_by </text>
<text text-anchor="start" x="226.3506" y="-413.9" font-family="Arial" font-size="14.00" fill="#666666">[int(11)]</text>
<polygon fill="none" stroke="#000000" points="140,-372.5 140,-402.5 381,-402.5 381,-372.5 140,-372.5"/>
<text text-anchor="start" x="147" y="-383.9" font-family="Arial" font-size="14.00" fill="#000000">modified_by_user </text>
<text text-anchor="start" x="261.359" y="-383.9" font-family="Arial" font-size="14.00" fill="#666666">[varchar(191)]</text>
<polygon fill="none" stroke="#000000" points="140,-342.5 140,-372.5 381,-372.5 381,-342.5 140,-342.5"/>
<text text-anchor="start" x="147" y="-353.9" font-family="Arial" font-size="14.00" fill="#000000">checked_out </text>
<text text-anchor="start" x="230.2594" y="-353.9" font-family="Arial" font-size="14.00" fill="#666666">[datetime]</text>
<polygon fill="none" stroke="#000000" points="140,-312.5 140,-342.5 381,-342.5 381,-312.5 140,-312.5"/>
<text text-anchor="start" x="147" y="-323.9" font-family="Arial" font-size="14.00" fill="#000000">checked_out_by </text>
<text text-anchor="start" x="252.8246" y="-323.9" font-family="Arial" font-size="14.00" fill="#666666">[int(11)]</text>
<polygon fill="none" stroke="#000000" points="140,-282.5 140,-312.5 381,-312.5 381,-282.5 140,-282.5"/>
<text text-anchor="start" x="146.5239" y="-293.9" font-family="Arial" font-size="14.00" fill="#000000">checked_out_by_user </text>
<text text-anchor="start" x="287.3569" y="-293.9" font-family="Arial" font-size="14.00" fill="#666666">[varchar(191)]</text>
<polygon fill="none" stroke="#000000" points="140,-252.5 140,-282.5 381,-282.5 381,-252.5 140,-252.5"/>
<text text-anchor="start" x="147" y="-263.9" font-family="Arial" font-size="14.00" fill="#000000">name </text>
<text text-anchor="start" x="185.899" y="-263.9" font-family="Arial" font-size="14.00" fill="#666666">[varchar(191)]</text>
<polygon fill="none" stroke="#000000" points="140,-222.5 140,-252.5 381,-252.5 381,-222.5 140,-222.5"/>
<text text-anchor="start" x="147" y="-233.9" font-family="Arial" font-size="14.00" fill="#000000">description </text>
<text text-anchor="start" x="218.568" y="-233.9" font-family="Arial" font-size="14.00" fill="#666666">[longtext]</text>
<polygon fill="none" stroke="#000000" points="140,-192.5 140,-222.5 381,-222.5 381,-192.5 140,-192.5"/>
<text text-anchor="start" x="147" y="-203.9" font-family="Arial" font-size="14.00" fill="#000000">lang </text>
<text text-anchor="start" x="177.345" y="-203.9" font-family="Arial" font-size="14.00" fill="#666666">[varchar(191)]</text>
<polygon fill="none" stroke="#000000" points="140,-162.5 140,-192.5 381,-192.5 381,-162.5 140,-162.5"/>
<text text-anchor="start" x="147" y="-173.9" font-family="Arial" font-size="14.00" fill="#000000">message </text>
<text text-anchor="start" x="207.6816" y="-173.9" font-family="Arial" font-size="14.00" fill="#666666">[longtext]</text>
<polygon fill="none" stroke="#000000" points="140,-132.5 140,-162.5 381,-162.5 381,-132.5 140,-132.5"/>
<text text-anchor="start" x="147" y="-143.9" font-family="Arial" font-size="14.00" fill="#000000">sms_type </text>
<text text-anchor="start" x="210.7896" y="-143.9" font-family="Arial" font-size="14.00" fill="#666666">[longtext]</text>
<polygon fill="none" stroke="#000000" points="140,-102.5 140,-132.5 381,-132.5 381,-102.5 140,-102.5"/>
<text text-anchor="start" x="147" y="-113.9" font-family="Arial" font-size="14.00" fill="#000000">publish_up </text>
<text text-anchor="start" x="218.582" y="-113.9" font-family="Arial" font-size="14.00" fill="#666666">[datetime]</text>
<polygon fill="none" stroke="#000000" points="140,-72.5 140,-102.5 381,-102.5 381,-72.5 140,-72.5"/>
<text text-anchor="start" x="147" y="-83.9" font-family="Arial" font-size="14.00" fill="#000000">publish_down </text>
<text text-anchor="start" x="236.4712" y="-83.9" font-family="Arial" font-size="14.00" fill="#666666">[datetime]</text>
<polygon fill="none" stroke="#000000" points="140,-42.5 140,-72.5 381,-72.5 381,-42.5 140,-42.5"/>
<text text-anchor="start" x="147" y="-53.9" font-family="Arial" font-size="14.00" fill="#000000">sent_count </text>
<text text-anchor="start" x="219.3674" y="-53.9" font-family="Arial" font-size="14.00" fill="#666666">[int(11)]</text>
</g>
<!-- sms_message_list_xref&#45;&gt;sms_messages -->
<g id="edge1" class="edge">
<title>sms_message_list_xref:sms_id&#45;&gt;sms_messages:id</title>
<path fill="none" stroke="#000000" d="M272.811,-845.9308C246.1928,-836.5001 262.2268,-786.7615 283,-757 309.5581,-718.9506 354.4419,-759.0494 381,-721 404.7846,-686.9242 422.5556,-627.5 381,-627.5"/>
<polygon fill="#000000" stroke="#000000" points="273.1165,-845.9778 282.315,-851.9476 278.0583,-846.7389 283,-847.5 283,-847.5 283,-847.5 278.0583,-846.7389 283.685,-843.0524 273.1165,-845.9778 273.1165,-845.9778"/>
<text text-anchor="start" x="7.001" y="-857.5" font-family="Arial" font-size="10.00" fill="#000000">FOREIGN KEY (sms_id) REFERENCES sms_messages (id)</text>
</g>
<!-- lead_lists -->
<g id="node3" class="node">
<title>lead_lists</title>
<polygon fill="#efefef" stroke="transparent" points="485,-627.5 485,-662.5 726,-662.5 726,-627.5 485,-627.5"/>
<polygon fill="none" stroke="#000000" points="485,-627.5 485,-662.5 726,-662.5 726,-627.5 485,-627.5"/>
<text text-anchor="start" x="519.3683" y="-640.3" font-family="Arial Bold" font-size="18.00" fill="#000000">lead_lists</text>
<text text-anchor="start" x="594.3779" y="-640.3" font-family="Arial" font-size="14.00" fill="#000000"> </text>
<text text-anchor="start" x="598.2685" y="-640.3" font-family="Arial" font-size="14.00" fill="#666666">[BASE TABLE]</text>
<polygon fill="none" stroke="#000000" points="485,-597.5 485,-627.5 726,-627.5 726,-597.5 485,-597.5"/>
<text text-anchor="start" x="492" y="-608.9" font-family="Arial" font-size="14.00" fill="#000000">id </text>
<text text-anchor="start" x="506.7798" y="-608.9" font-family="Arial" font-size="14.00" fill="#666666">[int(10) unsigned]</text>
<polygon fill="none" stroke="#000000" points="485,-567.5 485,-597.5 726,-597.5 726,-567.5 485,-567.5"/>
<text text-anchor="start" x="492" y="-578.9" font-family="Arial" font-size="14.00" fill="#000000">category_id </text>
<text text-anchor="start" x="568.244" y="-578.9" font-family="Arial" font-size="14.00" fill="#666666">[int(10) unsigned]</text>
<polygon fill="none" stroke="#000000" points="485,-537.5 485,-567.5 726,-567.5 726,-537.5 485,-537.5"/>
<text text-anchor="start" x="492" y="-548.9" font-family="Arial" font-size="14.00" fill="#000000">is_published </text>
<text text-anchor="start" x="573.6886" y="-548.9" font-family="Arial" font-size="14.00" fill="#666666">[tinyint(1)]</text>
<polygon fill="none" stroke="#000000" points="485,-507.5 485,-537.5 726,-537.5 726,-507.5 485,-507.5"/>
<text text-anchor="start" x="492" y="-518.9" font-family="Arial" font-size="14.00" fill="#000000">date_added </text>
<text text-anchor="start" x="569.8246" y="-518.9" font-family="Arial" font-size="14.00" fill="#666666">[datetime]</text>
<polygon fill="none" stroke="#000000" points="485,-477.5 485,-507.5 726,-507.5 726,-477.5 485,-477.5"/>
<text text-anchor="start" x="492" y="-488.9" font-family="Arial" font-size="14.00" fill="#000000">created_by </text>
<text text-anchor="start" x="565.1374" y="-488.9" font-family="Arial" font-size="14.00" fill="#666666">[int(11)]</text>
<polygon fill="none" stroke="#000000" points="485,-447.5 485,-477.5 726,-477.5 726,-447.5 485,-447.5"/>
<text text-anchor="start" x="492" y="-458.9" font-family="Arial" font-size="14.00" fill="#000000">created_by_user </text>
<text text-anchor="start" x="600.1458" y="-458.9" font-family="Arial" font-size="14.00" fill="#666666">[varchar(191)]</text>
<polygon fill="none" stroke="#000000" points="485,-417.5 485,-447.5 726,-447.5 726,-417.5 485,-417.5"/>
<text text-anchor="start" x="492" y="-428.9" font-family="Arial" font-size="14.00" fill="#000000">date_modified </text>
<text text-anchor="start" x="583.8064" y="-428.9" font-family="Arial" font-size="14.00" fill="#666666">[datetime]</text>
<polygon fill="none" stroke="#000000" points="485,-387.5 485,-417.5 726,-417.5 726,-387.5 485,-387.5"/>
<text text-anchor="start" x="492" y="-398.9" font-family="Arial" font-size="14.00" fill="#000000">modified_by </text>
<text text-anchor="start" x="571.3506" y="-398.9" font-family="Arial" font-size="14.00" fill="#666666">[int(11)]</text>
<polygon fill="none" stroke="#000000" points="485,-357.5 485,-387.5 726,-387.5 726,-357.5 485,-357.5"/>
<text text-anchor="start" x="492" y="-368.9" font-family="Arial" font-size="14.00" fill="#000000">modified_by_user </text>
<text text-anchor="start" x="606.359" y="-368.9" font-family="Arial" font-size="14.00" fill="#666666">[varchar(191)]</text>
<polygon fill="none" stroke="#000000" points="485,-327.5 485,-357.5 726,-357.5 726,-327.5 485,-327.5"/>
<text text-anchor="start" x="492" y="-338.9" font-family="Arial" font-size="14.00" fill="#000000">checked_out </text>
<text text-anchor="start" x="575.2594" y="-338.9" font-family="Arial" font-size="14.00" fill="#666666">[datetime]</text>
<polygon fill="none" stroke="#000000" points="485,-297.5 485,-327.5 726,-327.5 726,-297.5 485,-297.5"/>
<text text-anchor="start" x="492" y="-308.9" font-family="Arial" font-size="14.00" fill="#000000">checked_out_by </text>
<text text-anchor="start" x="597.8246" y="-308.9" font-family="Arial" font-size="14.00" fill="#666666">[int(11)]</text>
<polygon fill="none" stroke="#000000" points="485,-267.5 485,-297.5 726,-297.5 726,-267.5 485,-267.5"/>
<text text-anchor="start" x="491.5239" y="-278.9" font-family="Arial" font-size="14.00" fill="#000000">checked_out_by_user </text>
<text text-anchor="start" x="632.3569" y="-278.9" font-family="Arial" font-size="14.00" fill="#666666">[varchar(191)]</text>
<polygon fill="none" stroke="#000000" points="485,-237.5 485,-267.5 726,-267.5 726,-237.5 485,-237.5"/>
<text text-anchor="start" x="492" y="-248.9" font-family="Arial" font-size="14.00" fill="#000000">name </text>
<text text-anchor="start" x="530.899" y="-248.9" font-family="Arial" font-size="14.00" fill="#666666">[varchar(191)]</text>
<polygon fill="none" stroke="#000000" points="485,-207.5 485,-237.5 726,-237.5 726,-207.5 485,-207.5"/>
<text text-anchor="start" x="492" y="-218.9" font-family="Arial" font-size="14.00" fill="#000000">description </text>
<text text-anchor="start" x="563.568" y="-218.9" font-family="Arial" font-size="14.00" fill="#666666">[longtext]</text>
<polygon fill="none" stroke="#000000" points="485,-177.5 485,-207.5 726,-207.5 726,-177.5 485,-177.5"/>
<text text-anchor="start" x="492" y="-188.9" font-family="Arial" font-size="14.00" fill="#000000">alias </text>
<text text-anchor="start" x="524.669" y="-188.9" font-family="Arial" font-size="14.00" fill="#666666">[varchar(191)]</text>
<polygon fill="none" stroke="#000000" points="485,-147.5 485,-177.5 726,-177.5 726,-147.5 485,-147.5"/>
<text text-anchor="start" x="492" y="-158.9" font-family="Arial" font-size="14.00" fill="#000000">public_name </text>
<text text-anchor="start" x="575.2426" y="-158.9" font-family="Arial" font-size="14.00" fill="#666666">[varchar(191)]</text>
<polygon fill="none" stroke="#000000" points="485,-117.5 485,-147.5 726,-147.5 726,-117.5 485,-117.5"/>
<text text-anchor="start" x="492" y="-128.9" font-family="Arial" font-size="14.00" fill="#000000">filters </text>
<text text-anchor="start" x="529.3282" y="-128.9" font-family="Arial" font-size="14.00" fill="#666666">[longtext]</text>
<polygon fill="none" stroke="#000000" points="485,-87.5 485,-117.5 726,-117.5 726,-87.5 485,-87.5"/>
<text text-anchor="start" x="492" y="-98.9" font-family="Arial" font-size="14.00" fill="#000000">is_global </text>
<text text-anchor="start" x="551.1234" y="-98.9" font-family="Arial" font-size="14.00" fill="#666666">[tinyint(1)]</text>
<polygon fill="none" stroke="#000000" points="485,-57.5 485,-87.5 726,-87.5 726,-57.5 485,-57.5"/>
<text text-anchor="start" x="492" y="-68.9" font-family="Arial" font-size="14.00" fill="#000000">is_preference_center </text>
<text text-anchor="start" x="627.3688" y="-68.9" font-family="Arial" font-size="14.00" fill="#666666">[tinyint(1)]</text>
</g>
<!-- sms_message_list_xref&#45;&gt;lead_lists -->
<g id="edge2" class="edge">
<title>sms_message_list_xref:leadlist_id&#45;&gt;lead_lists:id</title>
<path fill="none" stroke="#000000" d="M591.8322,-814.9528C604.8082,-806.1395 593.73,-776.4198 582,-757 556.8174,-715.3085 510.1826,-747.6915 485,-706 463.5147,-670.4297 443.4444,-612.5 485,-612.5"/>
<polygon fill="#000000" stroke="#000000" points="591.6804,-814.992 580.8714,-813.1438 586.8402,-816.246 582,-817.5 582,-817.5 582,-817.5 586.8402,-816.246 583.1286,-821.8562 591.6804,-814.992 591.6804,-814.992"/>
<text text-anchor="start" x="589.4995" y="-827.5" font-family="Arial" font-size="10.00" fill="#000000">FOREIGN KEY (leadlist_id) REFERENCES lead_lists (id)</text>
</g>
</g>
</svg>
