<?xml version="1.0" encoding="UTF-8" standalone="no"?>
<!DOCTYPE svg PUBLIC "-//W3C//DTD SVG 1.1//EN"
 "http://www.w3.org/Graphics/SVG/1.1/DTD/svg11.dtd">
<!-- Generated by graphviz version 2.40.1 (20161225.0304)
 -->
<!-- Title: sms_messages Pages: 1 -->
<svg width="785pt" height="1889pt"
 viewBox="0.00 0.00 784.50 1889.00" xmlns="http://www.w3.org/2000/svg" xmlns:xlink="http://www.w3.org/1999/xlink">
<g id="graph0" class="graph" transform="scale(1 1) rotate(0) translate(4 1885)">
<title>sms_messages</title>
<polygon fill="#ffffff" stroke="transparent" points="-4,4 -4,-1885 780.5,-1885 780.5,4 -4,4"/>
<!-- sms_messages -->
<g id="node1" class="node">
<title>sms_messages</title>
<polygon fill="#efefef" stroke="transparent" points="280,-1282.5 280,-1317.5 521,-1317.5 521,-1282.5 280,-1282.5"/>
<polygon fill="none" stroke="#000000" points="280,-1282.5 280,-1317.5 521,-1317.5 521,-1282.5 280,-1282.5"/>
<text text-anchor="start" x="289.3654" y="-1295.3" font-family="Arial Bold" font-size="18.00" fill="#000000">sms_messages</text>
<text text-anchor="start" x="414.3808" y="-1295.3" font-family="Arial" font-size="14.00" fill="#000000"> </text>
<text text-anchor="start" x="418.2714" y="-1295.3" font-family="Arial" font-size="14.00" fill="#666666">[BASE TABLE]</text>
<polygon fill="none" stroke="#000000" points="280,-1252.5 280,-1282.5 521,-1282.5 521,-1252.5 280,-1252.5"/>
<text text-anchor="start" x="287" y="-1263.9" font-family="Arial" font-size="14.00" fill="#000000">id </text>
<text text-anchor="start" x="301.7798" y="-1263.9" font-family="Arial" font-size="14.00" fill="#666666">[int(10) unsigned]</text>
<polygon fill="none" stroke="#000000" points="280,-1222.5 280,-1252.5 521,-1252.5 521,-1222.5 280,-1222.5"/>
<text text-anchor="start" x="287" y="-1233.9" font-family="Arial" font-size="14.00" fill="#000000">category_id </text>
<text text-anchor="start" x="363.244" y="-1233.9" font-family="Arial" font-size="14.00" fill="#666666">[int(10) unsigned]</text>
<polygon fill="none" stroke="#000000" points="280,-1192.5 280,-1222.5 521,-1222.5 521,-1192.5 280,-1192.5"/>
<text text-anchor="start" x="287" y="-1203.9" font-family="Arial" font-size="14.00" fill="#000000">is_published </text>
<text text-anchor="start" x="368.6886" y="-1203.9" font-family="Arial" font-size="14.00" fill="#666666">[tinyint(1)]</text>
<polygon fill="none" stroke="#000000" points="280,-1162.5 280,-1192.5 521,-1192.5 521,-1162.5 280,-1162.5"/>
<text text-anchor="start" x="287" y="-1173.9" font-family="Arial" font-size="14.00" fill="#000000">date_added </text>
<text text-anchor="start" x="364.8246" y="-1173.9" font-family="Arial" font-size="14.00" fill="#666666">[datetime]</text>
<polygon fill="none" stroke="#000000" points="280,-1132.5 280,-1162.5 521,-1162.5 521,-1132.5 280,-1132.5"/>
<text text-anchor="start" x="287" y="-1143.9" font-family="Arial" font-size="14.00" fill="#000000">created_by </text>
<text text-anchor="start" x="360.1374" y="-1143.9" font-family="Arial" font-size="14.00" fill="#666666">[int(11)]</text>
<polygon fill="none" stroke="#000000" points="280,-1102.5 280,-1132.5 521,-1132.5 521,-1102.5 280,-1102.5"/>
<text text-anchor="start" x="287" y="-1113.9" font-family="Arial" font-size="14.00" fill="#000000">created_by_user </text>
<text text-anchor="start" x="395.1458" y="-1113.9" font-family="Arial" font-size="14.00" fill="#666666">[varchar(191)]</text>
<polygon fill="none" stroke="#000000" points="280,-1072.5 280,-1102.5 521,-1102.5 521,-1072.5 280,-1072.5"/>
<text text-anchor="start" x="287" y="-1083.9" font-family="Arial" font-size="14.00" fill="#000000">date_modified </text>
<text text-anchor="start" x="378.8064" y="-1083.9" font-family="Arial" font-size="14.00" fill="#666666">[datetime]</text>
<polygon fill="none" stroke="#000000" points="280,-1042.5 280,-1072.5 521,-1072.5 521,-1042.5 280,-1042.5"/>
<text text-anchor="start" x="287" y="-1053.9" font-family="Arial" font-size="14.00" fill="#000000">modified_by </text>
<text text-anchor="start" x="366.3506" y="-1053.9" font-family="Arial" font-size="14.00" fill="#666666">[int(11)]</text>
<polygon fill="none" stroke="#000000" points="280,-1012.5 280,-1042.5 521,-1042.5 521,-1012.5 280,-1012.5"/>
<text text-anchor="start" x="287" y="-1023.9" font-family="Arial" font-size="14.00" fill="#000000">modified_by_user </text>
<text text-anchor="start" x="401.359" y="-1023.9" font-family="Arial" font-size="14.00" fill="#666666">[varchar(191)]</text>
<polygon fill="none" stroke="#000000" points="280,-982.5 280,-1012.5 521,-1012.5 521,-982.5 280,-982.5"/>
<text text-anchor="start" x="287" y="-993.9" font-family="Arial" font-size="14.00" fill="#000000">checked_out </text>
<text text-anchor="start" x="370.2594" y="-993.9" font-family="Arial" font-size="14.00" fill="#666666">[datetime]</text>
<polygon fill="none" stroke="#000000" points="280,-952.5 280,-982.5 521,-982.5 521,-952.5 280,-952.5"/>
<text text-anchor="start" x="287" y="-963.9" font-family="Arial" font-size="14.00" fill="#000000">checked_out_by </text>
<text text-anchor="start" x="392.8246" y="-963.9" font-family="Arial" font-size="14.00" fill="#666666">[int(11)]</text>
<polygon fill="none" stroke="#000000" points="280,-922.5 280,-952.5 521,-952.5 521,-922.5 280,-922.5"/>
<text text-anchor="start" x="286.5239" y="-933.9" font-family="Arial" font-size="14.00" fill="#000000">checked_out_by_user </text>
<text text-anchor="start" x="427.3569" y="-933.9" font-family="Arial" font-size="14.00" fill="#666666">[varchar(191)]</text>
<polygon fill="none" stroke="#000000" points="280,-892.5 280,-922.5 521,-922.5 521,-892.5 280,-892.5"/>
<text text-anchor="start" x="287" y="-903.9" font-family="Arial" font-size="14.00" fill="#000000">name </text>
<text text-anchor="start" x="325.899" y="-903.9" font-family="Arial" font-size="14.00" fill="#666666">[varchar(191)]</text>
<polygon fill="none" stroke="#000000" points="280,-862.5 280,-892.5 521,-892.5 521,-862.5 280,-862.5"/>
<text text-anchor="start" x="287" y="-873.9" font-family="Arial" font-size="14.00" fill="#000000">description </text>
<text text-anchor="start" x="358.568" y="-873.9" font-family="Arial" font-size="14.00" fill="#666666">[longtext]</text>
<polygon fill="none" stroke="#000000" points="280,-832.5 280,-862.5 521,-862.5 521,-832.5 280,-832.5"/>
<text text-anchor="start" x="287" y="-843.9" font-family="Arial" font-size="14.00" fill="#000000">lang </text>
<text text-anchor="start" x="317.345" y="-843.9" font-family="Arial" font-size="14.00" fill="#666666">[varchar(191)]</text>
<polygon fill="none" stroke="#000000" points="280,-802.5 280,-832.5 521,-832.5 521,-802.5 280,-802.5"/>
<text text-anchor="start" x="287" y="-813.9" font-family="Arial" font-size="14.00" fill="#000000">message </text>
<text text-anchor="start" x="347.6816" y="-813.9" font-family="Arial" font-size="14.00" fill="#666666">[longtext]</text>
<polygon fill="none" stroke="#000000" points="280,-772.5 280,-802.5 521,-802.5 521,-772.5 280,-772.5"/>
<text text-anchor="start" x="287" y="-783.9" font-family="Arial" font-size="14.00" fill="#000000">sms_type </text>
<text text-anchor="start" x="350.7896" y="-783.9" font-family="Arial" font-size="14.00" fill="#666666">[longtext]</text>
<polygon fill="none" stroke="#000000" points="280,-742.5 280,-772.5 521,-772.5 521,-742.5 280,-742.5"/>
<text text-anchor="start" x="287" y="-753.9" font-family="Arial" font-size="14.00" fill="#000000">publish_up </text>
<text text-anchor="start" x="358.582" y="-753.9" font-family="Arial" font-size="14.00" fill="#666666">[datetime]</text>
<polygon fill="none" stroke="#000000" points="280,-712.5 280,-742.5 521,-742.5 521,-712.5 280,-712.5"/>
<text text-anchor="start" x="287" y="-723.9" font-family="Arial" font-size="14.00" fill="#000000">publish_down </text>
<text text-anchor="start" x="376.4712" y="-723.9" font-family="Arial" font-size="14.00" fill="#666666">[datetime]</text>
<polygon fill="none" stroke="#000000" points="280,-682.5 280,-712.5 521,-712.5 521,-682.5 280,-682.5"/>
<text text-anchor="start" x="287" y="-693.9" font-family="Arial" font-size="14.00" fill="#000000">sent_count </text>
<text text-anchor="start" x="359.3674" y="-693.9" font-family="Arial" font-size="14.00" fill="#666666">[int(11)]</text>
<polygon fill="none" stroke="#000000" stroke-width="3" points="278,-681.5 278,-1319.5 522,-1319.5 522,-681.5 278,-681.5"/>
</g>
<!-- categories -->
<g id="node4" class="node">
<title>categories</title>
<polygon fill="#efefef" stroke="transparent" points="280,-522.5 280,-557.5 521,-557.5 521,-522.5 280,-522.5"/>
<polygon fill="none" stroke="#000000" points="280,-522.5 280,-557.5 521,-557.5 521,-522.5 280,-522.5"/>
<text text-anchor="start" x="310.3633" y="-535.3" font-family="Arial Bold" font-size="18.00" fill="#000000">categories</text>
<text text-anchor="start" x="393.3829" y="-535.3" font-family="Arial" font-size="14.00" fill="#000000"> </text>
<text text-anchor="start" x="397.2735" y="-535.3" font-family="Arial" font-size="14.00" fill="#666666">[BASE TABLE]</text>
<polygon fill="none" stroke="#000000" points="280,-492.5 280,-522.5 521,-522.5 521,-492.5 280,-492.5"/>
<text text-anchor="start" x="287" y="-503.9" font-family="Arial" font-size="14.00" fill="#000000">id </text>
<text text-anchor="start" x="301.7798" y="-503.9" font-family="Arial" font-size="14.00" fill="#666666">[int(10) unsigned]</text>
<polygon fill="none" stroke="#000000" points="280,-462.5 280,-492.5 521,-492.5 521,-462.5 280,-462.5"/>
<text text-anchor="start" x="287" y="-473.9" font-family="Arial" font-size="14.00" fill="#000000">is_published </text>
<text text-anchor="start" x="368.6886" y="-473.9" font-family="Arial" font-size="14.00" fill="#666666">[tinyint(1)]</text>
<polygon fill="none" stroke="#000000" points="280,-432.5 280,-462.5 521,-462.5 521,-432.5 280,-432.5"/>
<text text-anchor="start" x="287" y="-443.9" font-family="Arial" font-size="14.00" fill="#000000">date_added </text>
<text text-anchor="start" x="364.8246" y="-443.9" font-family="Arial" font-size="14.00" fill="#666666">[datetime]</text>
<polygon fill="none" stroke="#000000" points="280,-402.5 280,-432.5 521,-432.5 521,-402.5 280,-402.5"/>
<text text-anchor="start" x="287" y="-413.9" font-family="Arial" font-size="14.00" fill="#000000">created_by </text>
<text text-anchor="start" x="360.1374" y="-413.9" font-family="Arial" font-size="14.00" fill="#666666">[int(11)]</text>
<polygon fill="none" stroke="#000000" points="280,-372.5 280,-402.5 521,-402.5 521,-372.5 280,-372.5"/>
<text text-anchor="start" x="287" y="-383.9" font-family="Arial" font-size="14.00" fill="#000000">created_by_user </text>
<text text-anchor="start" x="395.1458" y="-383.9" font-family="Arial" font-size="14.00" fill="#666666">[varchar(191)]</text>
<polygon fill="none" stroke="#000000" points="280,-342.5 280,-372.5 521,-372.5 521,-342.5 280,-342.5"/>
<text text-anchor="start" x="287" y="-353.9" font-family="Arial" font-size="14.00" fill="#000000">date_modified </text>
<text text-anchor="start" x="378.8064" y="-353.9" font-family="Arial" font-size="14.00" fill="#666666">[datetime]</text>
<polygon fill="none" stroke="#000000" points="280,-312.5 280,-342.5 521,-342.5 521,-312.5 280,-312.5"/>
<text text-anchor="start" x="287" y="-323.9" font-family="Arial" font-size="14.00" fill="#000000">modified_by </text>
<text text-anchor="start" x="366.3506" y="-323.9" font-family="Arial" font-size="14.00" fill="#666666">[int(11)]</text>
<polygon fill="none" stroke="#000000" points="280,-282.5 280,-312.5 521,-312.5 521,-282.5 280,-282.5"/>
<text text-anchor="start" x="287" y="-293.9" font-family="Arial" font-size="14.00" fill="#000000">modified_by_user </text>
<text text-anchor="start" x="401.359" y="-293.9" font-family="Arial" font-size="14.00" fill="#666666">[varchar(191)]</text>
<polygon fill="none" stroke="#000000" points="280,-252.5 280,-282.5 521,-282.5 521,-252.5 280,-252.5"/>
<text text-anchor="start" x="287" y="-263.9" font-family="Arial" font-size="14.00" fill="#000000">checked_out </text>
<text text-anchor="start" x="370.2594" y="-263.9" font-family="Arial" font-size="14.00" fill="#666666">[datetime]</text>
<polygon fill="none" stroke="#000000" points="280,-222.5 280,-252.5 521,-252.5 521,-222.5 280,-222.5"/>
<text text-anchor="start" x="287" y="-233.9" font-family="Arial" font-size="14.00" fill="#000000">checked_out_by </text>
<text text-anchor="start" x="392.8246" y="-233.9" font-family="Arial" font-size="14.00" fill="#666666">[int(11)]</text>
<polygon fill="none" stroke="#000000" points="280,-192.5 280,-222.5 521,-222.5 521,-192.5 280,-192.5"/>
<text text-anchor="start" x="286.5239" y="-203.9" font-family="Arial" font-size="14.00" fill="#000000">checked_out_by_user </text>
<text text-anchor="start" x="427.3569" y="-203.9" font-family="Arial" font-size="14.00" fill="#666666">[varchar(191)]</text>
<polygon fill="none" stroke="#000000" points="280,-162.5 280,-192.5 521,-192.5 521,-162.5 280,-162.5"/>
<text text-anchor="start" x="287" y="-173.9" font-family="Arial" font-size="14.00" fill="#000000">title </text>
<text text-anchor="start" x="312.6676" y="-173.9" font-family="Arial" font-size="14.00" fill="#666666">[varchar(191)]</text>
<polygon fill="none" stroke="#000000" points="280,-132.5 280,-162.5 521,-162.5 521,-132.5 280,-132.5"/>
<text text-anchor="start" x="287" y="-143.9" font-family="Arial" font-size="14.00" fill="#000000">description </text>
<text text-anchor="start" x="358.568" y="-143.9" font-family="Arial" font-size="14.00" fill="#666666">[longtext]</text>
<polygon fill="none" stroke="#000000" points="280,-102.5 280,-132.5 521,-132.5 521,-102.5 280,-102.5"/>
<text text-anchor="start" x="287" y="-113.9" font-family="Arial" font-size="14.00" fill="#000000">alias </text>
<text text-anchor="start" x="319.669" y="-113.9" font-family="Arial" font-size="14.00" fill="#666666">[varchar(191)]</text>
<polygon fill="none" stroke="#000000" points="280,-72.5 280,-102.5 521,-102.5 521,-72.5 280,-72.5"/>
<text text-anchor="start" x="287" y="-83.9" font-family="Arial" font-size="14.00" fill="#000000">color </text>
<text text-anchor="start" x="321.223" y="-83.9" font-family="Arial" font-size="14.00" fill="#666666">[varchar(7)]</text>
<polygon fill="none" stroke="#000000" points="280,-42.5 280,-72.5 521,-72.5 521,-42.5 280,-42.5"/>
<text text-anchor="start" x="287" y="-53.9" font-family="Arial" font-size="14.00" fill="#000000">bundle </text>
<text text-anchor="start" x="332.9102" y="-53.9" font-family="Arial" font-size="14.00" fill="#666666">[varchar(50)]</text>
</g>
<!-- sms_messages&#45;&gt;categories -->
<g id="edge3" class="edge">
<title>sms_messages:category_id&#45;&gt;categories:id</title>
<path fill="none" stroke="#000000" d="M269.6566,-1237.2491C-44.407,-1221.9006 -40.9592,-507.5 280,-507.5"/>
<polygon fill="#000000" stroke="#000000" points="270.0029,-1237.2574 279.8908,-1241.9987 275.0015,-1237.3787 280,-1237.5 280,-1237.5 280,-1237.5 275.0015,-1237.3787 280.1092,-1233.0013 270.0029,-1237.2574 270.0029,-1237.2574"/>
<text text-anchor="start" x="6.659" y="-1247.5" font-family="Arial" font-size="10.00" fill="#000000">FOREIGN KEY (category_id) REFERENCES categories (id)</text>
</g>
<!-- sms_message_list_xref -->
<g id="node2" class="node">
<title>sms_message_list_xref</title>
<polygon fill="#efefef" stroke="transparent" points="56,-1652.5 56,-1687.5 355,-1687.5 355,-1652.5 56,-1652.5"/>
<polygon fill="none" stroke="#000000" points="56,-1652.5 56,-1687.5 355,-1687.5 355,-1652.5 56,-1652.5"/>
<text text-anchor="start" x="62.8636" y="-1665.3" font-family="Arial Bold" font-size="18.00" fill="#000000">sms_message_list_xref</text>
<text text-anchor="start" x="250.8826" y="-1665.3" font-family="Arial" font-size="14.00" fill="#000000"> </text>
<text text-anchor="start" x="254.7732" y="-1665.3" font-family="Arial" font-size="14.00" fill="#666666">[BASE TABLE]</text>
<polygon fill="none" stroke="#000000" points="56,-1622.5 56,-1652.5 355,-1652.5 355,-1622.5 56,-1622.5"/>
<text text-anchor="start" x="63" y="-1633.9" font-family="Arial" font-size="14.00" fill="#000000">sms_id </text>
<text text-anchor="start" x="111.223" y="-1633.9" font-family="Arial" font-size="14.00" fill="#666666">[int(10) unsigned]</text>
<polygon fill="none" stroke="#000000" points="56,-1592.5 56,-1622.5 355,-1622.5 355,-1592.5 56,-1592.5"/>
<text text-anchor="start" x="63" y="-1603.9" font-family="Arial" font-size="14.00" fill="#000000">leadlist_id </text>
<text text-anchor="start" x="129.1206" y="-1603.9" font-family="Arial" font-size="14.00" fill="#666666">[int(10) unsigned]</text>
</g>
<!-- sms_message_list_xref&#45;&gt;sms_messages -->
<g id="edge1" class="edge">
<title>sms_message_list_xref:sms_id&#45;&gt;sms_messages:id</title>
<path fill="none" stroke="#000000" d="M365.0251,-1636.995C505.4138,-1621.7723 115.816,-1267.5 280,-1267.5"/>
<polygon fill="#000000" stroke="#000000" points="364.9873,-1636.9968 354.7736,-1633.0057 359.9937,-1637.2484 355,-1637.5 355,-1637.5 355,-1637.5 359.9937,-1637.2484 355.2264,-1641.9943 364.9873,-1636.9968 364.9873,-1636.9968"/>
<text text-anchor="start" x="362.001" y="-1647.5" font-family="Arial" font-size="10.00" fill="#000000">FOREIGN KEY (sms_id) REFERENCES sms_messages (id)</text>
</g>
<!-- sms_message_stats -->
<g id="node3" class="node">
<title>sms_message_stats</title>
<polygon fill="#efefef" stroke="transparent" points="459,-1802.5 459,-1837.5 734,-1837.5 734,-1802.5 459,-1802.5"/>
<polygon fill="none" stroke="#000000" points="459,-1802.5 459,-1837.5 734,-1837.5 734,-1802.5 459,-1802.5"/>
<text text-anchor="start" x="465.857" y="-1815.3" font-family="Arial Bold" font-size="18.00" fill="#000000">sms_message_stats</text>
<text text-anchor="start" x="629.8892" y="-1815.3" font-family="Arial" font-size="14.00" fill="#000000"> </text>
<text text-anchor="start" x="633.7798" y="-1815.3" font-family="Arial" font-size="14.00" fill="#666666">[BASE TABLE]</text>
<polygon fill="none" stroke="#000000" points="459,-1772.5 459,-1802.5 734,-1802.5 734,-1772.5 459,-1772.5"/>
<text text-anchor="start" x="466" y="-1783.9" font-family="Arial" font-size="14.00" fill="#000000">id </text>
<text text-anchor="start" x="480.7798" y="-1783.9" font-family="Arial" font-size="14.00" fill="#666666">[bigint(20) unsigned]</text>
<polygon fill="none" stroke="#000000" points="459,-1742.5 459,-1772.5 734,-1772.5 734,-1742.5 459,-1742.5"/>
<text text-anchor="start" x="466" y="-1753.9" font-family="Arial" font-size="14.00" fill="#000000">sms_id </text>
<text text-anchor="start" x="514.223" y="-1753.9" font-family="Arial" font-size="14.00" fill="#666666">[int(10) unsigned]</text>
<polygon fill="none" stroke="#000000" points="459,-1712.5 459,-1742.5 734,-1742.5 734,-1712.5 459,-1712.5"/>
<text text-anchor="start" x="466" y="-1723.9" font-family="Arial" font-size="14.00" fill="#000000">lead_id </text>
<text text-anchor="start" x="515.0168" y="-1723.9" font-family="Arial" font-size="14.00" fill="#666666">[bigint(20) unsigned]</text>
<polygon fill="none" stroke="#000000" points="459,-1682.5 459,-1712.5 734,-1712.5 734,-1682.5 459,-1682.5"/>
<text text-anchor="start" x="466" y="-1693.9" font-family="Arial" font-size="14.00" fill="#000000">list_id </text>
<text text-anchor="start" x="505.6662" y="-1693.9" font-family="Arial" font-size="14.00" fill="#666666">[int(10) unsigned]</text>
<polygon fill="none" stroke="#000000" points="459,-1652.5 459,-1682.5 734,-1682.5 734,-1652.5 459,-1652.5"/>
<text text-anchor="start" x="466" y="-1663.9" font-family="Arial" font-size="14.00" fill="#000000">ip_id </text>
<text text-anchor="start" x="499.4516" y="-1663.9" font-family="Arial" font-size="14.00" fill="#666666">[int(10) unsigned]</text>
<polygon fill="none" stroke="#000000" points="459,-1622.5 459,-1652.5 734,-1652.5 734,-1622.5 459,-1622.5"/>
<text text-anchor="start" x="466" y="-1633.9" font-family="Arial" font-size="14.00" fill="#000000">date_sent </text>
<text text-anchor="start" x="531.3674" y="-1633.9" font-family="Arial" font-size="14.00" fill="#666666">[datetime]</text>
<polygon fill="none" stroke="#000000" points="459,-1592.5 459,-1622.5 734,-1622.5 734,-1592.5 459,-1592.5"/>
<text text-anchor="start" x="466" y="-1603.9" font-family="Arial" font-size="14.00" fill="#000000">is_failed </text>
<text text-anchor="start" x="521.2314" y="-1603.9" font-family="Arial" font-size="14.00" fill="#666666">[tinyint(1)]</text>
<polygon fill="none" stroke="#000000" points="459,-1562.5 459,-1592.5 734,-1592.5 734,-1562.5 459,-1562.5"/>
<text text-anchor="start" x="466" y="-1573.9" font-family="Arial" font-size="14.00" fill="#000000">tracking_hash </text>
<text text-anchor="start" x="557.0266" y="-1573.9" font-family="Arial" font-size="14.00" fill="#666666">[varchar(191)]</text>
<polygon fill="none" stroke="#000000" points="459,-1532.5 459,-1562.5 734,-1562.5 734,-1532.5 459,-1532.5"/>
<text text-anchor="start" x="466" y="-1543.9" font-family="Arial" font-size="14.00" fill="#000000">source </text>
<text text-anchor="start" x="511.899" y="-1543.9" font-family="Arial" font-size="14.00" fill="#666666">[varchar(191)]</text>
<polygon fill="none" stroke="#000000" points="459,-1502.5 459,-1532.5 734,-1532.5 734,-1502.5 459,-1502.5"/>
<text text-anchor="start" x="466" y="-1513.9" font-family="Arial" font-size="14.00" fill="#000000">source_id </text>
<text text-anchor="start" x="530.5708" y="-1513.9" font-family="Arial" font-size="14.00" fill="#666666">[int(11)]</text>
<polygon fill="none" stroke="#000000" points="459,-1472.5 459,-1502.5 734,-1502.5 734,-1472.5 459,-1472.5"/>
<text text-anchor="start" x="466" y="-1483.9" font-family="Arial" font-size="14.00" fill="#000000">tokens </text>
<text text-anchor="start" x="511.129" y="-1483.9" font-family="Arial" font-size="14.00" fill="#666666">[longtext]</text>
<polygon fill="none" stroke="#000000" points="459,-1442.5 459,-1472.5 734,-1472.5 734,-1442.5 459,-1442.5"/>
<text text-anchor="start" x="466" y="-1453.9" font-family="Arial" font-size="14.00" fill="#000000">details </text>
<text text-anchor="start" x="510.3422" y="-1453.9" font-family="Arial" font-size="14.00" fill="#666666">[longtext]</text>
</g>
<!-- sms_message_stats&#45;&gt;sms_messages -->
<g id="edge2" class="edge">
<title>sms_message_stats:sms_id&#45;&gt;sms_messages:id</title>
<path fill="none" stroke="#000000" d="M449.0047,-1755.7986C383.1316,-1732.0101 421.1433,-1465.757 459,-1400 474.8979,-1372.3854 505.1021,-1391.6146 521,-1364 542.3986,-1326.8307 563.8889,-1267.5 521,-1267.5"/>
<polygon fill="#000000" stroke="#000000" points="449.1418,-1755.8219 458.2448,-1761.9362 454.0709,-1756.6609 459,-1757.5 459,-1757.5 459,-1757.5 454.0709,-1756.6609 459.7552,-1753.0638 449.1418,-1755.8219 449.1418,-1755.8219"/>
<text text-anchor="start" x="183.001" y="-1767.5" font-family="Arial" font-size="10.00" fill="#000000">FOREIGN KEY (sms_id) REFERENCES sms_messages (id)</text>
</g>
</g>
</svg>
