<?xml version="1.0" encoding="UTF-8" standalone="no"?>
<!DOCTYPE svg PUBLIC "-//W3C//DTD SVG 1.1//EN"
 "http://www.w3.org/Graphics/SVG/1.1/DTD/svg11.dtd">
<!-- Generated by graphviz version 2.40.1 (20161225.0304)
 -->
<!-- Title: stages Pages: 1 -->
<svg width="1157pt" height="2789pt"
 viewBox="0.00 0.00 1157.00 2789.00" xmlns="http://www.w3.org/2000/svg" xmlns:xlink="http://www.w3.org/1999/xlink">
<g id="graph0" class="graph" transform="scale(1 1) rotate(0) translate(4 2785)">
<title>stages</title>
<polygon fill="#ffffff" stroke="transparent" points="-4,4 -4,-2785 1153,-2785 1153,4 -4,4"/>
<!-- stages -->
<g id="node1" class="node">
<title>stages</title>
<polygon fill="#efefef" stroke="transparent" points="435.5,-1192.5 435.5,-1227.5 676.5,-1227.5 676.5,-1192.5 435.5,-1192.5"/>
<polygon fill="none" stroke="#000000" points="435.5,-1192.5 435.5,-1227.5 676.5,-1227.5 676.5,-1192.5 435.5,-1192.5"/>
<text text-anchor="start" x="480.8627" y="-1205.3" font-family="Arial Bold" font-size="18.00" fill="#000000">stages</text>
<text text-anchor="start" x="533.8835" y="-1205.3" font-family="Arial" font-size="14.00" fill="#000000"> </text>
<text text-anchor="start" x="537.7741" y="-1205.3" font-family="Arial" font-size="14.00" fill="#666666">[BASE TABLE]</text>
<polygon fill="none" stroke="#000000" points="435.5,-1162.5 435.5,-1192.5 676.5,-1192.5 676.5,-1162.5 435.5,-1162.5"/>
<text text-anchor="start" x="442.5" y="-1173.9" font-family="Arial" font-size="14.00" fill="#000000">id </text>
<text text-anchor="start" x="457.2798" y="-1173.9" font-family="Arial" font-size="14.00" fill="#666666">[int(10) unsigned]</text>
<polygon fill="none" stroke="#000000" points="435.5,-1132.5 435.5,-1162.5 676.5,-1162.5 676.5,-1132.5 435.5,-1132.5"/>
<text text-anchor="start" x="442.5" y="-1143.9" font-family="Arial" font-size="14.00" fill="#000000">category_id </text>
<text text-anchor="start" x="518.744" y="-1143.9" font-family="Arial" font-size="14.00" fill="#666666">[int(10) unsigned]</text>
<polygon fill="none" stroke="#000000" points="435.5,-1102.5 435.5,-1132.5 676.5,-1132.5 676.5,-1102.5 435.5,-1102.5"/>
<text text-anchor="start" x="442.5" y="-1113.9" font-family="Arial" font-size="14.00" fill="#000000">is_published </text>
<text text-anchor="start" x="524.1886" y="-1113.9" font-family="Arial" font-size="14.00" fill="#666666">[tinyint(1)]</text>
<polygon fill="none" stroke="#000000" points="435.5,-1072.5 435.5,-1102.5 676.5,-1102.5 676.5,-1072.5 435.5,-1072.5"/>
<text text-anchor="start" x="442.5" y="-1083.9" font-family="Arial" font-size="14.00" fill="#000000">date_added </text>
<text text-anchor="start" x="520.3246" y="-1083.9" font-family="Arial" font-size="14.00" fill="#666666">[datetime]</text>
<polygon fill="none" stroke="#000000" points="435.5,-1042.5 435.5,-1072.5 676.5,-1072.5 676.5,-1042.5 435.5,-1042.5"/>
<text text-anchor="start" x="442.5" y="-1053.9" font-family="Arial" font-size="14.00" fill="#000000">created_by </text>
<text text-anchor="start" x="515.6374" y="-1053.9" font-family="Arial" font-size="14.00" fill="#666666">[int(11)]</text>
<polygon fill="none" stroke="#000000" points="435.5,-1012.5 435.5,-1042.5 676.5,-1042.5 676.5,-1012.5 435.5,-1012.5"/>
<text text-anchor="start" x="442.5" y="-1023.9" font-family="Arial" font-size="14.00" fill="#000000">created_by_user </text>
<text text-anchor="start" x="550.6458" y="-1023.9" font-family="Arial" font-size="14.00" fill="#666666">[varchar(191)]</text>
<polygon fill="none" stroke="#000000" points="435.5,-982.5 435.5,-1012.5 676.5,-1012.5 676.5,-982.5 435.5,-982.5"/>
<text text-anchor="start" x="442.5" y="-993.9" font-family="Arial" font-size="14.00" fill="#000000">date_modified </text>
<text text-anchor="start" x="534.3064" y="-993.9" font-family="Arial" font-size="14.00" fill="#666666">[datetime]</text>
<polygon fill="none" stroke="#000000" points="435.5,-952.5 435.5,-982.5 676.5,-982.5 676.5,-952.5 435.5,-952.5"/>
<text text-anchor="start" x="442.5" y="-963.9" font-family="Arial" font-size="14.00" fill="#000000">modified_by </text>
<text text-anchor="start" x="521.8506" y="-963.9" font-family="Arial" font-size="14.00" fill="#666666">[int(11)]</text>
<polygon fill="none" stroke="#000000" points="435.5,-922.5 435.5,-952.5 676.5,-952.5 676.5,-922.5 435.5,-922.5"/>
<text text-anchor="start" x="442.5" y="-933.9" font-family="Arial" font-size="14.00" fill="#000000">modified_by_user </text>
<text text-anchor="start" x="556.859" y="-933.9" font-family="Arial" font-size="14.00" fill="#666666">[varchar(191)]</text>
<polygon fill="none" stroke="#000000" points="435.5,-892.5 435.5,-922.5 676.5,-922.5 676.5,-892.5 435.5,-892.5"/>
<text text-anchor="start" x="442.5" y="-903.9" font-family="Arial" font-size="14.00" fill="#000000">checked_out </text>
<text text-anchor="start" x="525.7594" y="-903.9" font-family="Arial" font-size="14.00" fill="#666666">[datetime]</text>
<polygon fill="none" stroke="#000000" points="435.5,-862.5 435.5,-892.5 676.5,-892.5 676.5,-862.5 435.5,-862.5"/>
<text text-anchor="start" x="442.5" y="-873.9" font-family="Arial" font-size="14.00" fill="#000000">checked_out_by </text>
<text text-anchor="start" x="548.3246" y="-873.9" font-family="Arial" font-size="14.00" fill="#666666">[int(11)]</text>
<polygon fill="none" stroke="#000000" points="435.5,-832.5 435.5,-862.5 676.5,-862.5 676.5,-832.5 435.5,-832.5"/>
<text text-anchor="start" x="442.0239" y="-843.9" font-family="Arial" font-size="14.00" fill="#000000">checked_out_by_user </text>
<text text-anchor="start" x="582.8569" y="-843.9" font-family="Arial" font-size="14.00" fill="#666666">[varchar(191)]</text>
<polygon fill="none" stroke="#000000" points="435.5,-802.5 435.5,-832.5 676.5,-832.5 676.5,-802.5 435.5,-802.5"/>
<text text-anchor="start" x="442.5" y="-813.9" font-family="Arial" font-size="14.00" fill="#000000">name </text>
<text text-anchor="start" x="481.399" y="-813.9" font-family="Arial" font-size="14.00" fill="#666666">[varchar(191)]</text>
<polygon fill="none" stroke="#000000" points="435.5,-772.5 435.5,-802.5 676.5,-802.5 676.5,-772.5 435.5,-772.5"/>
<text text-anchor="start" x="442.5" y="-783.9" font-family="Arial" font-size="14.00" fill="#000000">description </text>
<text text-anchor="start" x="514.068" y="-783.9" font-family="Arial" font-size="14.00" fill="#666666">[longtext]</text>
<polygon fill="none" stroke="#000000" points="435.5,-742.5 435.5,-772.5 676.5,-772.5 676.5,-742.5 435.5,-742.5"/>
<text text-anchor="start" x="442.5" y="-753.9" font-family="Arial" font-size="14.00" fill="#000000">weight </text>
<text text-anchor="start" x="486.8422" y="-753.9" font-family="Arial" font-size="14.00" fill="#666666">[int(11)]</text>
<polygon fill="none" stroke="#000000" points="435.5,-712.5 435.5,-742.5 676.5,-742.5 676.5,-712.5 435.5,-712.5"/>
<text text-anchor="start" x="442.5" y="-723.9" font-family="Arial" font-size="14.00" fill="#000000">publish_up </text>
<text text-anchor="start" x="514.082" y="-723.9" font-family="Arial" font-size="14.00" fill="#666666">[datetime]</text>
<polygon fill="none" stroke="#000000" points="435.5,-682.5 435.5,-712.5 676.5,-712.5 676.5,-682.5 435.5,-682.5"/>
<text text-anchor="start" x="442.5" y="-693.9" font-family="Arial" font-size="14.00" fill="#000000">publish_down </text>
<text text-anchor="start" x="531.9712" y="-693.9" font-family="Arial" font-size="14.00" fill="#666666">[datetime]</text>
<polygon fill="none" stroke="#000000" stroke-width="3" points="433.5,-681.5 433.5,-1229.5 677.5,-1229.5 677.5,-681.5 433.5,-681.5"/>
</g>
<!-- categories -->
<g id="node5" class="node">
<title>categories</title>
<polygon fill="#efefef" stroke="transparent" points="435.5,-522.5 435.5,-557.5 676.5,-557.5 676.5,-522.5 435.5,-522.5"/>
<polygon fill="none" stroke="#000000" points="435.5,-522.5 435.5,-557.5 676.5,-557.5 676.5,-522.5 435.5,-522.5"/>
<text text-anchor="start" x="465.8633" y="-535.3" font-family="Arial Bold" font-size="18.00" fill="#000000">categories</text>
<text text-anchor="start" x="548.8829" y="-535.3" font-family="Arial" font-size="14.00" fill="#000000"> </text>
<text text-anchor="start" x="552.7735" y="-535.3" font-family="Arial" font-size="14.00" fill="#666666">[BASE TABLE]</text>
<polygon fill="none" stroke="#000000" points="435.5,-492.5 435.5,-522.5 676.5,-522.5 676.5,-492.5 435.5,-492.5"/>
<text text-anchor="start" x="442.5" y="-503.9" font-family="Arial" font-size="14.00" fill="#000000">id </text>
<text text-anchor="start" x="457.2798" y="-503.9" font-family="Arial" font-size="14.00" fill="#666666">[int(10) unsigned]</text>
<polygon fill="none" stroke="#000000" points="435.5,-462.5 435.5,-492.5 676.5,-492.5 676.5,-462.5 435.5,-462.5"/>
<text text-anchor="start" x="442.5" y="-473.9" font-family="Arial" font-size="14.00" fill="#000000">is_published </text>
<text text-anchor="start" x="524.1886" y="-473.9" font-family="Arial" font-size="14.00" fill="#666666">[tinyint(1)]</text>
<polygon fill="none" stroke="#000000" points="435.5,-432.5 435.5,-462.5 676.5,-462.5 676.5,-432.5 435.5,-432.5"/>
<text text-anchor="start" x="442.5" y="-443.9" font-family="Arial" font-size="14.00" fill="#000000">date_added </text>
<text text-anchor="start" x="520.3246" y="-443.9" font-family="Arial" font-size="14.00" fill="#666666">[datetime]</text>
<polygon fill="none" stroke="#000000" points="435.5,-402.5 435.5,-432.5 676.5,-432.5 676.5,-402.5 435.5,-402.5"/>
<text text-anchor="start" x="442.5" y="-413.9" font-family="Arial" font-size="14.00" fill="#000000">created_by </text>
<text text-anchor="start" x="515.6374" y="-413.9" font-family="Arial" font-size="14.00" fill="#666666">[int(11)]</text>
<polygon fill="none" stroke="#000000" points="435.5,-372.5 435.5,-402.5 676.5,-402.5 676.5,-372.5 435.5,-372.5"/>
<text text-anchor="start" x="442.5" y="-383.9" font-family="Arial" font-size="14.00" fill="#000000">created_by_user </text>
<text text-anchor="start" x="550.6458" y="-383.9" font-family="Arial" font-size="14.00" fill="#666666">[varchar(191)]</text>
<polygon fill="none" stroke="#000000" points="435.5,-342.5 435.5,-372.5 676.5,-372.5 676.5,-342.5 435.5,-342.5"/>
<text text-anchor="start" x="442.5" y="-353.9" font-family="Arial" font-size="14.00" fill="#000000">date_modified </text>
<text text-anchor="start" x="534.3064" y="-353.9" font-family="Arial" font-size="14.00" fill="#666666">[datetime]</text>
<polygon fill="none" stroke="#000000" points="435.5,-312.5 435.5,-342.5 676.5,-342.5 676.5,-312.5 435.5,-312.5"/>
<text text-anchor="start" x="442.5" y="-323.9" font-family="Arial" font-size="14.00" fill="#000000">modified_by </text>
<text text-anchor="start" x="521.8506" y="-323.9" font-family="Arial" font-size="14.00" fill="#666666">[int(11)]</text>
<polygon fill="none" stroke="#000000" points="435.5,-282.5 435.5,-312.5 676.5,-312.5 676.5,-282.5 435.5,-282.5"/>
<text text-anchor="start" x="442.5" y="-293.9" font-family="Arial" font-size="14.00" fill="#000000">modified_by_user </text>
<text text-anchor="start" x="556.859" y="-293.9" font-family="Arial" font-size="14.00" fill="#666666">[varchar(191)]</text>
<polygon fill="none" stroke="#000000" points="435.5,-252.5 435.5,-282.5 676.5,-282.5 676.5,-252.5 435.5,-252.5"/>
<text text-anchor="start" x="442.5" y="-263.9" font-family="Arial" font-size="14.00" fill="#000000">checked_out </text>
<text text-anchor="start" x="525.7594" y="-263.9" font-family="Arial" font-size="14.00" fill="#666666">[datetime]</text>
<polygon fill="none" stroke="#000000" points="435.5,-222.5 435.5,-252.5 676.5,-252.5 676.5,-222.5 435.5,-222.5"/>
<text text-anchor="start" x="442.5" y="-233.9" font-family="Arial" font-size="14.00" fill="#000000">checked_out_by </text>
<text text-anchor="start" x="548.3246" y="-233.9" font-family="Arial" font-size="14.00" fill="#666666">[int(11)]</text>
<polygon fill="none" stroke="#000000" points="435.5,-192.5 435.5,-222.5 676.5,-222.5 676.5,-192.5 435.5,-192.5"/>
<text text-anchor="start" x="442.0239" y="-203.9" font-family="Arial" font-size="14.00" fill="#000000">checked_out_by_user </text>
<text text-anchor="start" x="582.8569" y="-203.9" font-family="Arial" font-size="14.00" fill="#666666">[varchar(191)]</text>
<polygon fill="none" stroke="#000000" points="435.5,-162.5 435.5,-192.5 676.5,-192.5 676.5,-162.5 435.5,-162.5"/>
<text text-anchor="start" x="442.5" y="-173.9" font-family="Arial" font-size="14.00" fill="#000000">title </text>
<text text-anchor="start" x="468.1676" y="-173.9" font-family="Arial" font-size="14.00" fill="#666666">[varchar(191)]</text>
<polygon fill="none" stroke="#000000" points="435.5,-132.5 435.5,-162.5 676.5,-162.5 676.5,-132.5 435.5,-132.5"/>
<text text-anchor="start" x="442.5" y="-143.9" font-family="Arial" font-size="14.00" fill="#000000">description </text>
<text text-anchor="start" x="514.068" y="-143.9" font-family="Arial" font-size="14.00" fill="#666666">[longtext]</text>
<polygon fill="none" stroke="#000000" points="435.5,-102.5 435.5,-132.5 676.5,-132.5 676.5,-102.5 435.5,-102.5"/>
<text text-anchor="start" x="442.5" y="-113.9" font-family="Arial" font-size="14.00" fill="#000000">alias </text>
<text text-anchor="start" x="475.169" y="-113.9" font-family="Arial" font-size="14.00" fill="#666666">[varchar(191)]</text>
<polygon fill="none" stroke="#000000" points="435.5,-72.5 435.5,-102.5 676.5,-102.5 676.5,-72.5 435.5,-72.5"/>
<text text-anchor="start" x="442.5" y="-83.9" font-family="Arial" font-size="14.00" fill="#000000">color </text>
<text text-anchor="start" x="476.723" y="-83.9" font-family="Arial" font-size="14.00" fill="#666666">[varchar(7)]</text>
<polygon fill="none" stroke="#000000" points="435.5,-42.5 435.5,-72.5 676.5,-72.5 676.5,-42.5 435.5,-42.5"/>
<text text-anchor="start" x="442.5" y="-53.9" font-family="Arial" font-size="14.00" fill="#000000">bundle </text>
<text text-anchor="start" x="488.4102" y="-53.9" font-family="Arial" font-size="14.00" fill="#666666">[varchar(50)]</text>
</g>
<!-- stages&#45;&gt;categories -->
<g id="edge4" class="edge">
<title>stages:category_id&#45;&gt;categories:id</title>
<path fill="none" stroke="#000000" d="M425.2105,-1147.2162C151.0979,-1131.9704 154.5278,-507.5 435.5,-507.5"/>
<polygon fill="#000000" stroke="#000000" points="425.5038,-1147.2242 435.3759,-1151.9983 430.5019,-1147.3621 435.5,-1147.5 435.5,-1147.5 435.5,-1147.5 430.5019,-1147.3621 435.6241,-1143.0017 425.5038,-1147.2242 425.5038,-1147.2242"/>
<text text-anchor="start" x="162.159" y="-1157.5" font-family="Arial" font-size="10.00" fill="#000000">FOREIGN KEY (category_id) REFERENCES categories (id)</text>
</g>
<!-- leads -->
<g id="node2" class="node">
<title>leads</title>
<polygon fill="#efefef" stroke="transparent" points="43.5,-2702.5 43.5,-2737.5 296.5,-2737.5 296.5,-2702.5 43.5,-2702.5"/>
<polygon fill="none" stroke="#000000" points="43.5,-2702.5 43.5,-2737.5 296.5,-2737.5 296.5,-2702.5 43.5,-2702.5"/>
<text text-anchor="start" x="99.8667" y="-2715.3" font-family="Arial Bold" font-size="18.00" fill="#000000">leads</text>
<text text-anchor="start" x="142.8795" y="-2715.3" font-family="Arial" font-size="14.00" fill="#000000"> </text>
<text text-anchor="start" x="146.7701" y="-2715.3" font-family="Arial" font-size="14.00" fill="#666666">[BASE TABLE]</text>
<polygon fill="none" stroke="#000000" points="43.5,-2672.5 43.5,-2702.5 296.5,-2702.5 296.5,-2672.5 43.5,-2672.5"/>
<text text-anchor="start" x="50.5" y="-2683.9" font-family="Arial" font-size="14.00" fill="#000000">id </text>
<text text-anchor="start" x="65.2798" y="-2683.9" font-family="Arial" font-size="14.00" fill="#666666">[bigint(20) unsigned]</text>
<polygon fill="none" stroke="#000000" points="43.5,-2642.5 43.5,-2672.5 296.5,-2672.5 296.5,-2642.5 43.5,-2642.5"/>
<text text-anchor="start" x="50.5" y="-2653.9" font-family="Arial" font-size="14.00" fill="#000000">owner_id </text>
<text text-anchor="start" x="111.1774" y="-2653.9" font-family="Arial" font-size="14.00" fill="#666666">[int(10) unsigned]</text>
<polygon fill="none" stroke="#000000" points="43.5,-2612.5 43.5,-2642.5 296.5,-2642.5 296.5,-2612.5 43.5,-2612.5"/>
<text text-anchor="start" x="50.5" y="-2623.9" font-family="Arial" font-size="14.00" fill="#000000">stage_id </text>
<text text-anchor="start" x="107.3008" y="-2623.9" font-family="Arial" font-size="14.00" fill="#666666">[int(10) unsigned]</text>
<polygon fill="none" stroke="#000000" points="43.5,-2582.5 43.5,-2612.5 296.5,-2612.5 296.5,-2582.5 43.5,-2582.5"/>
<text text-anchor="start" x="50.5" y="-2593.9" font-family="Arial" font-size="14.00" fill="#000000">is_published </text>
<text text-anchor="start" x="132.1886" y="-2593.9" font-family="Arial" font-size="14.00" fill="#666666">[tinyint(1)]</text>
<polygon fill="none" stroke="#000000" points="43.5,-2552.5 43.5,-2582.5 296.5,-2582.5 296.5,-2552.5 43.5,-2552.5"/>
<text text-anchor="start" x="50.5" y="-2563.9" font-family="Arial" font-size="14.00" fill="#000000">date_added </text>
<text text-anchor="start" x="128.3246" y="-2563.9" font-family="Arial" font-size="14.00" fill="#666666">[datetime]</text>
<polygon fill="none" stroke="#000000" points="43.5,-2522.5 43.5,-2552.5 296.5,-2552.5 296.5,-2522.5 43.5,-2522.5"/>
<text text-anchor="start" x="50.5" y="-2533.9" font-family="Arial" font-size="14.00" fill="#000000">created_by </text>
<text text-anchor="start" x="123.6374" y="-2533.9" font-family="Arial" font-size="14.00" fill="#666666">[int(11)]</text>
<polygon fill="none" stroke="#000000" points="43.5,-2492.5 43.5,-2522.5 296.5,-2522.5 296.5,-2492.5 43.5,-2492.5"/>
<text text-anchor="start" x="50.5" y="-2503.9" font-family="Arial" font-size="14.00" fill="#000000">created_by_user </text>
<text text-anchor="start" x="158.6458" y="-2503.9" font-family="Arial" font-size="14.00" fill="#666666">[varchar(191)]</text>
<polygon fill="none" stroke="#000000" points="43.5,-2462.5 43.5,-2492.5 296.5,-2492.5 296.5,-2462.5 43.5,-2462.5"/>
<text text-anchor="start" x="50.5" y="-2473.9" font-family="Arial" font-size="14.00" fill="#000000">date_modified </text>
<text text-anchor="start" x="142.3064" y="-2473.9" font-family="Arial" font-size="14.00" fill="#666666">[datetime]</text>
<polygon fill="none" stroke="#000000" points="43.5,-2432.5 43.5,-2462.5 296.5,-2462.5 296.5,-2432.5 43.5,-2432.5"/>
<text text-anchor="start" x="50.5" y="-2443.9" font-family="Arial" font-size="14.00" fill="#000000">modified_by </text>
<text text-anchor="start" x="129.8506" y="-2443.9" font-family="Arial" font-size="14.00" fill="#666666">[int(11)]</text>
<polygon fill="none" stroke="#000000" points="43.5,-2402.5 43.5,-2432.5 296.5,-2432.5 296.5,-2402.5 43.5,-2402.5"/>
<text text-anchor="start" x="50.5" y="-2413.9" font-family="Arial" font-size="14.00" fill="#000000">modified_by_user </text>
<text text-anchor="start" x="164.859" y="-2413.9" font-family="Arial" font-size="14.00" fill="#666666">[varchar(191)]</text>
<polygon fill="none" stroke="#000000" points="43.5,-2372.5 43.5,-2402.5 296.5,-2402.5 296.5,-2372.5 43.5,-2372.5"/>
<text text-anchor="start" x="50.5" y="-2383.9" font-family="Arial" font-size="14.00" fill="#000000">checked_out </text>
<text text-anchor="start" x="133.7594" y="-2383.9" font-family="Arial" font-size="14.00" fill="#666666">[datetime]</text>
<polygon fill="none" stroke="#000000" points="43.5,-2342.5 43.5,-2372.5 296.5,-2372.5 296.5,-2342.5 43.5,-2342.5"/>
<text text-anchor="start" x="50.5" y="-2353.9" font-family="Arial" font-size="14.00" fill="#000000">checked_out_by </text>
<text text-anchor="start" x="156.3246" y="-2353.9" font-family="Arial" font-size="14.00" fill="#666666">[int(11)]</text>
<polygon fill="none" stroke="#000000" points="43.5,-2312.5 43.5,-2342.5 296.5,-2342.5 296.5,-2312.5 43.5,-2312.5"/>
<text text-anchor="start" x="50.5" y="-2323.9" font-family="Arial" font-size="14.00" fill="#000000">checked_out_by_user </text>
<text text-anchor="start" x="191.333" y="-2323.9" font-family="Arial" font-size="14.00" fill="#666666">[varchar(191)]</text>
<polygon fill="none" stroke="#000000" points="43.5,-2282.5 43.5,-2312.5 296.5,-2312.5 296.5,-2282.5 43.5,-2282.5"/>
<text text-anchor="start" x="50.5" y="-2293.9" font-family="Arial" font-size="14.00" fill="#000000">points </text>
<text text-anchor="start" x="91.7356" y="-2293.9" font-family="Arial" font-size="14.00" fill="#666666">[int(11)]</text>
<polygon fill="none" stroke="#000000" points="43.5,-2252.5 43.5,-2282.5 296.5,-2282.5 296.5,-2252.5 43.5,-2252.5"/>
<text text-anchor="start" x="50.5" y="-2263.9" font-family="Arial" font-size="14.00" fill="#000000">last_active </text>
<text text-anchor="start" x="120.5154" y="-2263.9" font-family="Arial" font-size="14.00" fill="#666666">[datetime]</text>
<polygon fill="none" stroke="#000000" points="43.5,-2222.5 43.5,-2252.5 296.5,-2252.5 296.5,-2222.5 43.5,-2222.5"/>
<text text-anchor="start" x="50.5" y="-2233.9" font-family="Arial" font-size="14.00" fill="#000000">internal </text>
<text text-anchor="start" x="100.2854" y="-2233.9" font-family="Arial" font-size="14.00" fill="#666666">[longtext]</text>
<polygon fill="none" stroke="#000000" points="43.5,-2192.5 43.5,-2222.5 296.5,-2222.5 296.5,-2192.5 43.5,-2192.5"/>
<text text-anchor="start" x="50.5" y="-2203.9" font-family="Arial" font-size="14.00" fill="#000000">social_cache </text>
<text text-anchor="start" x="135.2994" y="-2203.9" font-family="Arial" font-size="14.00" fill="#666666">[longtext]</text>
<polygon fill="none" stroke="#000000" points="43.5,-2162.5 43.5,-2192.5 296.5,-2192.5 296.5,-2162.5 43.5,-2162.5"/>
<text text-anchor="start" x="50.5" y="-2173.9" font-family="Arial" font-size="14.00" fill="#000000">date_identified </text>
<text text-anchor="start" x="145.4256" y="-2173.9" font-family="Arial" font-size="14.00" fill="#666666">[datetime]</text>
<polygon fill="none" stroke="#000000" points="43.5,-2132.5 43.5,-2162.5 296.5,-2162.5 296.5,-2132.5 43.5,-2132.5"/>
<text text-anchor="start" x="50.2062" y="-2143.9" font-family="Arial" font-size="14.00" fill="#000000">preferred_profile_image </text>
<text text-anchor="start" x="202.6746" y="-2143.9" font-family="Arial" font-size="14.00" fill="#666666">[varchar(191)]</text>
<polygon fill="none" stroke="#000000" points="43.5,-2102.5 43.5,-2132.5 296.5,-2132.5 296.5,-2102.5 43.5,-2102.5"/>
<text text-anchor="start" x="50.5" y="-2113.9" font-family="Arial" font-size="14.00" fill="#000000">title </text>
<text text-anchor="start" x="76.1676" y="-2113.9" font-family="Arial" font-size="14.00" fill="#666666">[varchar(191)]</text>
<polygon fill="none" stroke="#000000" points="43.5,-2072.5 43.5,-2102.5 296.5,-2102.5 296.5,-2072.5 43.5,-2072.5"/>
<text text-anchor="start" x="50.5" y="-2083.9" font-family="Arial" font-size="14.00" fill="#000000">firstname </text>
<text text-anchor="start" x="111.9474" y="-2083.9" font-family="Arial" font-size="14.00" fill="#666666">[varchar(191)]</text>
<polygon fill="none" stroke="#000000" points="43.5,-2042.5 43.5,-2072.5 296.5,-2072.5 296.5,-2042.5 43.5,-2042.5"/>
<text text-anchor="start" x="50.5" y="-2053.9" font-family="Arial" font-size="14.00" fill="#000000">lastname </text>
<text text-anchor="start" x="111.1788" y="-2053.9" font-family="Arial" font-size="14.00" fill="#666666">[varchar(191)]</text>
<polygon fill="none" stroke="#000000" points="43.5,-2012.5 43.5,-2042.5 296.5,-2042.5 296.5,-2012.5 43.5,-2012.5"/>
<text text-anchor="start" x="50.5" y="-2023.9" font-family="Arial" font-size="14.00" fill="#000000">company </text>
<text text-anchor="start" x="111.1816" y="-2023.9" font-family="Arial" font-size="14.00" fill="#666666">[varchar(191)]</text>
<polygon fill="none" stroke="#000000" points="43.5,-1982.5 43.5,-2012.5 296.5,-2012.5 296.5,-1982.5 43.5,-1982.5"/>
<text text-anchor="start" x="50.5" y="-1993.9" font-family="Arial" font-size="14.00" fill="#000000">position </text>
<text text-anchor="start" x="102.6248" y="-1993.9" font-family="Arial" font-size="14.00" fill="#666666">[varchar(191)]</text>
<polygon fill="none" stroke="#000000" points="43.5,-1952.5 43.5,-1982.5 296.5,-1982.5 296.5,-1952.5 43.5,-1952.5"/>
<text text-anchor="start" x="50.5" y="-1963.9" font-family="Arial" font-size="14.00" fill="#000000">email </text>
<text text-anchor="start" x="87.8296" y="-1963.9" font-family="Arial" font-size="14.00" fill="#666666">[varchar(191)]</text>
<polygon fill="none" stroke="#000000" points="43.5,-1922.5 43.5,-1952.5 296.5,-1952.5 296.5,-1922.5 43.5,-1922.5"/>
<text text-anchor="start" x="50.5" y="-1933.9" font-family="Arial" font-size="14.00" fill="#000000">phone </text>
<text text-anchor="start" x="93.3036" y="-1933.9" font-family="Arial" font-size="14.00" fill="#666666">[varchar(191)]</text>
<polygon fill="none" stroke="#000000" points="43.5,-1892.5 43.5,-1922.5 296.5,-1922.5 296.5,-1892.5 43.5,-1892.5"/>
<text text-anchor="start" x="50.5" y="-1903.9" font-family="Arial" font-size="14.00" fill="#000000">mobile </text>
<text text-anchor="start" x="95.6122" y="-1903.9" font-family="Arial" font-size="14.00" fill="#666666">[varchar(191)]</text>
<polygon fill="none" stroke="#000000" points="43.5,-1862.5 43.5,-1892.5 296.5,-1892.5 296.5,-1862.5 43.5,-1862.5"/>
<text text-anchor="start" x="50.5" y="-1873.9" font-family="Arial" font-size="14.00" fill="#000000">address1 </text>
<text text-anchor="start" x="111.9642" y="-1873.9" font-family="Arial" font-size="14.00" fill="#666666">[varchar(191)]</text>
<polygon fill="none" stroke="#000000" points="43.5,-1832.5 43.5,-1862.5 296.5,-1862.5 296.5,-1832.5 43.5,-1832.5"/>
<text text-anchor="start" x="50.5" y="-1843.9" font-family="Arial" font-size="14.00" fill="#000000">address2 </text>
<text text-anchor="start" x="111.9642" y="-1843.9" font-family="Arial" font-size="14.00" fill="#666666">[varchar(191)]</text>
<polygon fill="none" stroke="#000000" points="43.5,-1802.5 43.5,-1832.5 296.5,-1832.5 296.5,-1802.5 43.5,-1802.5"/>
<text text-anchor="start" x="50.5" y="-1813.9" font-family="Arial" font-size="14.00" fill="#000000">city </text>
<text text-anchor="start" x="75.3878" y="-1813.9" font-family="Arial" font-size="14.00" fill="#666666">[varchar(191)]</text>
<polygon fill="none" stroke="#000000" points="43.5,-1772.5 43.5,-1802.5 296.5,-1802.5 296.5,-1772.5 43.5,-1772.5"/>
<text text-anchor="start" x="50.5" y="-1783.9" font-family="Arial" font-size="14.00" fill="#000000">state </text>
<text text-anchor="start" x="84.737" y="-1783.9" font-family="Arial" font-size="14.00" fill="#666666">[varchar(191)]</text>
<polygon fill="none" stroke="#000000" points="43.5,-1742.5 43.5,-1772.5 296.5,-1772.5 296.5,-1742.5 43.5,-1742.5"/>
<text text-anchor="start" x="50.5" y="-1753.9" font-family="Arial" font-size="14.00" fill="#000000">zipcode </text>
<text text-anchor="start" x="102.6276" y="-1753.9" font-family="Arial" font-size="14.00" fill="#666666">[varchar(191)]</text>
<polygon fill="none" stroke="#000000" points="43.5,-1712.5 43.5,-1742.5 296.5,-1742.5 296.5,-1712.5 43.5,-1712.5"/>
<text text-anchor="start" x="50.5" y="-1723.9" font-family="Arial" font-size="14.00" fill="#000000">timezone </text>
<text text-anchor="start" x="111.1788" y="-1723.9" font-family="Arial" font-size="14.00" fill="#666666">[varchar(191)]</text>
<polygon fill="none" stroke="#000000" points="43.5,-1682.5 43.5,-1712.5 296.5,-1712.5 296.5,-1682.5 43.5,-1682.5"/>
<text text-anchor="start" x="50.5" y="-1693.9" font-family="Arial" font-size="14.00" fill="#000000">country </text>
<text text-anchor="start" x="100.2896" y="-1693.9" font-family="Arial" font-size="14.00" fill="#666666">[varchar(191)]</text>
<polygon fill="none" stroke="#000000" points="43.5,-1652.5 43.5,-1682.5 296.5,-1682.5 296.5,-1652.5 43.5,-1652.5"/>
<text text-anchor="start" x="50.5" y="-1663.9" font-family="Arial" font-size="14.00" fill="#000000">fax </text>
<text text-anchor="start" x="73.0638" y="-1663.9" font-family="Arial" font-size="14.00" fill="#666666">[varchar(255)]</text>
<polygon fill="none" stroke="#000000" points="43.5,-1622.5 43.5,-1652.5 296.5,-1652.5 296.5,-1622.5 43.5,-1622.5"/>
<text text-anchor="start" x="50.5" y="-1633.9" font-family="Arial" font-size="14.00" fill="#000000">preferred_locale </text>
<text text-anchor="start" x="155.5196" y="-1633.9" font-family="Arial" font-size="14.00" fill="#666666">[varchar(255)]</text>
<polygon fill="none" stroke="#000000" points="43.5,-1592.5 43.5,-1622.5 296.5,-1622.5 296.5,-1592.5 43.5,-1592.5"/>
<text text-anchor="start" x="50.5" y="-1603.9" font-family="Arial" font-size="14.00" fill="#000000">attribution_date </text>
<text text-anchor="start" x="150.8702" y="-1603.9" font-family="Arial" font-size="14.00" fill="#666666">[datetime]</text>
<polygon fill="none" stroke="#000000" points="43.5,-1562.5 43.5,-1592.5 296.5,-1592.5 296.5,-1562.5 43.5,-1562.5"/>
<text text-anchor="start" x="50.5" y="-1573.9" font-family="Arial" font-size="14.00" fill="#000000">attribution </text>
<text text-anchor="start" x="115.8492" y="-1573.9" font-family="Arial" font-size="14.00" fill="#666666">[double]</text>
<polygon fill="none" stroke="#000000" points="43.5,-1532.5 43.5,-1562.5 296.5,-1562.5 296.5,-1532.5 43.5,-1532.5"/>
<text text-anchor="start" x="50.5" y="-1543.9" font-family="Arial" font-size="14.00" fill="#000000">website </text>
<text text-anchor="start" x="101.8422" y="-1543.9" font-family="Arial" font-size="14.00" fill="#666666">[longtext]</text>
<polygon fill="none" stroke="#000000" points="43.5,-1502.5 43.5,-1532.5 296.5,-1532.5 296.5,-1502.5 43.5,-1502.5"/>
<text text-anchor="start" x="50.5" y="-1513.9" font-family="Arial" font-size="14.00" fill="#000000">facebook </text>
<text text-anchor="start" x="111.1942" y="-1513.9" font-family="Arial" font-size="14.00" fill="#666666">[varchar(255)]</text>
<polygon fill="none" stroke="#000000" points="43.5,-1472.5 43.5,-1502.5 296.5,-1502.5 296.5,-1472.5 43.5,-1472.5"/>
<text text-anchor="start" x="50.5" y="-1483.9" font-family="Arial" font-size="14.00" fill="#000000">foursquare </text>
<text text-anchor="start" x="121.298" y="-1483.9" font-family="Arial" font-size="14.00" fill="#666666">[varchar(255)]</text>
<polygon fill="none" stroke="#000000" points="43.5,-1442.5 43.5,-1472.5 296.5,-1472.5 296.5,-1442.5 43.5,-1442.5"/>
<text text-anchor="start" x="50.5" y="-1453.9" font-family="Arial" font-size="14.00" fill="#000000">instagram </text>
<text text-anchor="start" x="115.8394" y="-1453.9" font-family="Arial" font-size="14.00" fill="#666666">[varchar(255)]</text>
<polygon fill="none" stroke="#000000" points="43.5,-1412.5 43.5,-1442.5 296.5,-1442.5 296.5,-1412.5 43.5,-1412.5"/>
<text text-anchor="start" x="50.5" y="-1423.9" font-family="Arial" font-size="14.00" fill="#000000">linkedin </text>
<text text-anchor="start" x="101.8408" y="-1423.9" font-family="Arial" font-size="14.00" fill="#666666">[varchar(255)]</text>
<polygon fill="none" stroke="#000000" points="43.5,-1382.5 43.5,-1412.5 296.5,-1412.5 296.5,-1382.5 43.5,-1382.5"/>
<text text-anchor="start" x="50.5" y="-1393.9" font-family="Arial" font-size="14.00" fill="#000000">skype </text>
<text text-anchor="start" x="90.9558" y="-1393.9" font-family="Arial" font-size="14.00" fill="#666666">[varchar(255)]</text>
<polygon fill="none" stroke="#000000" points="43.5,-1352.5 43.5,-1382.5 296.5,-1382.5 296.5,-1352.5 43.5,-1352.5"/>
<text text-anchor="start" x="50.5" y="-1363.9" font-family="Arial" font-size="14.00" fill="#000000">twitter </text>
<text text-anchor="start" x="91.7188" y="-1363.9" font-family="Arial" font-size="14.00" fill="#666666">[varchar(255)]</text>
</g>
<!-- leads&#45;&gt;stages -->
<g id="edge1" class="edge">
<title>leads:stage_id&#45;&gt;stages:id</title>
<path fill="none" stroke="#000000" d="M304.7428,-2621.6546C366.2723,-2529.4673 325.8837,-1376.9114 347.5,-1310 369.2322,-1242.7297 364.8064,-1177.5 435.5,-1177.5"/>
<polygon fill="#000000" stroke="#000000" points="304.6571,-2621.7153 293.8969,-2623.8293 300.5786,-2624.6077 296.5,-2627.5 296.5,-2627.5 296.5,-2627.5 300.5786,-2624.6077 299.1031,-2631.1707 304.6571,-2621.7153 304.6571,-2621.7153"/>
<text text-anchor="start" x="303.436" y="-2637.5" font-family="Arial" font-size="10.00" fill="#000000">FOREIGN KEY (stage_id) REFERENCES stages (id)</text>
</g>
<!-- lead_stages_change_log -->
<g id="node3" class="node">
<title>lead_stages_change_log</title>
<polygon fill="#efefef" stroke="transparent" points="400.5,-2117.5 400.5,-2152.5 711.5,-2152.5 711.5,-2117.5 400.5,-2117.5"/>
<polygon fill="none" stroke="#000000" points="400.5,-2117.5 400.5,-2152.5 711.5,-2152.5 711.5,-2117.5 400.5,-2117.5"/>
<text text-anchor="start" x="407.3282" y="-2130.3" font-family="Arial Bold" font-size="18.00" fill="#000000">lead_stages_change_log</text>
<text text-anchor="start" x="607.418" y="-2130.3" font-family="Arial" font-size="14.00" fill="#000000"> </text>
<text text-anchor="start" x="611.3086" y="-2130.3" font-family="Arial" font-size="14.00" fill="#666666">[BASE TABLE]</text>
<polygon fill="none" stroke="#000000" points="400.5,-2087.5 400.5,-2117.5 711.5,-2117.5 711.5,-2087.5 400.5,-2087.5"/>
<text text-anchor="start" x="407.5" y="-2098.9" font-family="Arial" font-size="14.00" fill="#000000">id </text>
<text text-anchor="start" x="422.2798" y="-2098.9" font-family="Arial" font-size="14.00" fill="#666666">[int(10) unsigned]</text>
<polygon fill="none" stroke="#000000" points="400.5,-2057.5 400.5,-2087.5 711.5,-2087.5 711.5,-2057.5 400.5,-2057.5"/>
<text text-anchor="start" x="407.5" y="-2068.9" font-family="Arial" font-size="14.00" fill="#000000">lead_id </text>
<text text-anchor="start" x="456.5168" y="-2068.9" font-family="Arial" font-size="14.00" fill="#666666">[bigint(20) unsigned]</text>
<polygon fill="none" stroke="#000000" points="400.5,-2027.5 400.5,-2057.5 711.5,-2057.5 711.5,-2027.5 400.5,-2027.5"/>
<text text-anchor="start" x="407.5" y="-2038.9" font-family="Arial" font-size="14.00" fill="#000000">stage_id </text>
<text text-anchor="start" x="464.3008" y="-2038.9" font-family="Arial" font-size="14.00" fill="#666666">[int(10) unsigned]</text>
<polygon fill="none" stroke="#000000" points="400.5,-1997.5 400.5,-2027.5 711.5,-2027.5 711.5,-1997.5 400.5,-1997.5"/>
<text text-anchor="start" x="407.5" y="-2008.9" font-family="Arial" font-size="14.00" fill="#000000">event_name </text>
<text text-anchor="start" x="488.42" y="-2008.9" font-family="Arial" font-size="14.00" fill="#666666">[varchar(191)]</text>
<polygon fill="none" stroke="#000000" points="400.5,-1967.5 400.5,-1997.5 711.5,-1997.5 711.5,-1967.5 400.5,-1967.5"/>
<text text-anchor="start" x="407.5" y="-1978.9" font-family="Arial" font-size="14.00" fill="#000000">action_name </text>
<text text-anchor="start" x="491.5266" y="-1978.9" font-family="Arial" font-size="14.00" fill="#666666">[varchar(191)]</text>
<polygon fill="none" stroke="#000000" points="400.5,-1937.5 400.5,-1967.5 711.5,-1967.5 711.5,-1937.5 400.5,-1937.5"/>
<text text-anchor="start" x="407.5" y="-1948.9" font-family="Arial" font-size="14.00" fill="#000000">date_added </text>
<text text-anchor="start" x="485.3246" y="-1948.9" font-family="Arial" font-size="14.00" fill="#666666">[datetime]</text>
</g>
<!-- lead_stages_change_log&#45;&gt;stages -->
<g id="edge2" class="edge">
<title>lead_stages_change_log:stage_id&#45;&gt;stages:id</title>
<path fill="none" stroke="#000000" d="M393.3435,-2035.022C356.2724,-1950.4776 390.0353,-1177.5 435.5,-1177.5"/>
<polygon fill="#000000" stroke="#000000" points="393.5859,-2035.2753 397.2489,-2045.6113 397.043,-2038.8877 400.5,-2042.5 400.5,-2042.5 400.5,-2042.5 397.043,-2038.8877 403.7511,-2039.3887 393.5859,-2035.2753 393.5859,-2035.2753"/>
<text text-anchor="start" x="407.436" y="-2052.5" font-family="Arial" font-size="10.00" fill="#000000">FOREIGN KEY (stage_id) REFERENCES stages (id)</text>
</g>
<!-- stage_lead_action_log -->
<g id="node4" class="node">
<title>stage_lead_action_log</title>
<polygon fill="#efefef" stroke="transparent" points="815.5,-2087.5 815.5,-2122.5 1106.5,-2122.5 1106.5,-2087.5 815.5,-2087.5"/>
<polygon fill="none" stroke="#000000" points="815.5,-2087.5 815.5,-2122.5 1106.5,-2122.5 1106.5,-2087.5 815.5,-2087.5"/>
<text text-anchor="start" x="822.3362" y="-2100.3" font-family="Arial Bold" font-size="18.00" fill="#000000">stage_lead_action_log</text>
<text text-anchor="start" x="1002.41" y="-2100.3" font-family="Arial" font-size="14.00" fill="#000000"> </text>
<text text-anchor="start" x="1006.3006" y="-2100.3" font-family="Arial" font-size="14.00" fill="#666666">[BASE TABLE]</text>
<polygon fill="none" stroke="#000000" points="815.5,-2057.5 815.5,-2087.5 1106.5,-2087.5 1106.5,-2057.5 815.5,-2057.5"/>
<text text-anchor="start" x="822.5" y="-2068.9" font-family="Arial" font-size="14.00" fill="#000000">stage_id </text>
<text text-anchor="start" x="879.3008" y="-2068.9" font-family="Arial" font-size="14.00" fill="#666666">[int(10) unsigned]</text>
<polygon fill="none" stroke="#000000" points="815.5,-2027.5 815.5,-2057.5 1106.5,-2057.5 1106.5,-2027.5 815.5,-2027.5"/>
<text text-anchor="start" x="822.5" y="-2038.9" font-family="Arial" font-size="14.00" fill="#000000">lead_id </text>
<text text-anchor="start" x="871.5168" y="-2038.9" font-family="Arial" font-size="14.00" fill="#666666">[bigint(20) unsigned]</text>
<polygon fill="none" stroke="#000000" points="815.5,-1997.5 815.5,-2027.5 1106.5,-2027.5 1106.5,-1997.5 815.5,-1997.5"/>
<text text-anchor="start" x="822.5" y="-2008.9" font-family="Arial" font-size="14.00" fill="#000000">ip_id </text>
<text text-anchor="start" x="855.9516" y="-2008.9" font-family="Arial" font-size="14.00" fill="#666666">[int(10) unsigned]</text>
<polygon fill="none" stroke="#000000" points="815.5,-1967.5 815.5,-1997.5 1106.5,-1997.5 1106.5,-1967.5 815.5,-1967.5"/>
<text text-anchor="start" x="822.5" y="-1978.9" font-family="Arial" font-size="14.00" fill="#000000">date_fired </text>
<text text-anchor="start" x="888.6346" y="-1978.9" font-family="Arial" font-size="14.00" fill="#666666">[datetime]</text>
</g>
<!-- stage_lead_action_log&#45;&gt;stages -->
<g id="edge3" class="edge">
<title>stage_lead_action_log:stage_id&#45;&gt;stages:id</title>
<path fill="none" stroke="#000000" d="M805.7663,-2069.1465C735.3562,-2017.5655 789.4683,-1387.1846 763.5,-1310 741.0353,-1243.2291 746.9487,-1177.5 676.5,-1177.5"/>
<polygon fill="#000000" stroke="#000000" points="806.0454,-2069.2426 814.0342,-2076.7546 810.7727,-2070.8713 815.5,-2072.5 815.5,-2072.5 815.5,-2072.5 810.7727,-2070.8713 816.9658,-2068.2454 806.0454,-2069.2426 806.0454,-2069.2426"/>
<text text-anchor="start" x="822.436" y="-2082.5" font-family="Arial" font-size="10.00" fill="#000000">FOREIGN KEY (stage_id) REFERENCES stages (id)</text>
</g>
</g>
</svg>
