<?xml version="1.0" encoding="UTF-8" standalone="no"?>
<!DOCTYPE svg PUBLIC "-//W3C//DTD SVG 1.1//EN"
 "http://www.w3.org/Graphics/SVG/1.1/DTD/svg11.dtd">
<!-- Generated by graphviz version 2.40.1 (20161225.0304)
 -->
<!-- Title: sync_object_field_change_report Pages: 1 -->
<svg width="475pt" height="375pt"
 viewBox="0.00 0.00 475.00 375.00" xmlns="http://www.w3.org/2000/svg" xmlns:xlink="http://www.w3.org/1999/xlink">
<g id="graph0" class="graph" transform="scale(1 1) rotate(0) translate(4 371)">
<title>sync_object_field_change_report</title>
<polygon fill="#ffffff" stroke="transparent" points="-4,4 -4,-371 471,-371 471,4 -4,4"/>
<!-- sync_object_field_change_report -->
<g id="node1" class="node">
<title>sync_object_field_change_report</title>
<polygon fill="#efefef" stroke="transparent" points="46.5,-285.5 46.5,-320.5 421.5,-320.5 421.5,-285.5 46.5,-285.5"/>
<polygon fill="none" stroke="#000000" points="46.5,-285.5 46.5,-320.5 421.5,-320.5 421.5,-285.5 46.5,-285.5"/>
<text text-anchor="start" x="53.3305" y="-298.3" font-family="Arial Bold" font-size="18.00" fill="#000000">sync_object_field_change_report</text>
<text text-anchor="start" x="317.4157" y="-298.3" font-family="Arial" font-size="14.00" fill="#000000"> </text>
<text text-anchor="start" x="321.3063" y="-298.3" font-family="Arial" font-size="14.00" fill="#666666">[BASE TABLE]</text>
<polygon fill="none" stroke="#000000" points="46.5,-255.5 46.5,-285.5 421.5,-285.5 421.5,-255.5 46.5,-255.5"/>
<text text-anchor="start" x="53.5" y="-266.9" font-family="Arial" font-size="14.00" fill="#000000">id </text>
<text text-anchor="start" x="68.2798" y="-266.9" font-family="Arial" font-size="14.00" fill="#666666">[int(10) unsigned]</text>
<polygon fill="none" stroke="#000000" points="46.5,-225.5 46.5,-255.5 421.5,-255.5 421.5,-225.5 46.5,-225.5"/>
<text text-anchor="start" x="53.5" y="-236.9" font-family="Arial" font-size="14.00" fill="#000000">integration </text>
<text text-anchor="start" x="122.7412" y="-236.9" font-family="Arial" font-size="14.00" fill="#666666">[varchar(191)]</text>
<polygon fill="none" stroke="#000000" points="46.5,-195.5 46.5,-225.5 421.5,-225.5 421.5,-195.5 46.5,-195.5"/>
<text text-anchor="start" x="53.5" y="-206.9" font-family="Arial" font-size="14.00" fill="#000000">object_id </text>
<text text-anchor="start" x="113.4074" y="-206.9" font-family="Arial" font-size="14.00" fill="#666666">[bigint(20) unsigned]</text>
<polygon fill="none" stroke="#000000" points="46.5,-165.5 46.5,-195.5 421.5,-195.5 421.5,-165.5 46.5,-165.5"/>
<text text-anchor="start" x="53.5" y="-176.9" font-family="Arial" font-size="14.00" fill="#000000">object_type </text>
<text text-anchor="start" x="128.974" y="-176.9" font-family="Arial" font-size="14.00" fill="#666666">[varchar(191)]</text>
<polygon fill="none" stroke="#000000" points="46.5,-135.5 46.5,-165.5 421.5,-165.5 421.5,-135.5 46.5,-135.5"/>
<text text-anchor="start" x="53.5" y="-146.9" font-family="Arial" font-size="14.00" fill="#000000">modified_at </text>
<text text-anchor="start" x="129.7412" y="-146.9" font-family="Arial" font-size="14.00" fill="#666666">[datetime]</text>
<polygon fill="none" stroke="#000000" points="46.5,-105.5 46.5,-135.5 421.5,-135.5 421.5,-105.5 46.5,-105.5"/>
<text text-anchor="start" x="53.5" y="-116.9" font-family="Arial" font-size="14.00" fill="#000000">column_name </text>
<text text-anchor="start" x="145.2966" y="-116.9" font-family="Arial" font-size="14.00" fill="#666666">[varchar(191)]</text>
<polygon fill="none" stroke="#000000" points="46.5,-75.5 46.5,-105.5 421.5,-105.5 421.5,-75.5 46.5,-75.5"/>
<text text-anchor="start" x="53.5" y="-86.9" font-family="Arial" font-size="14.00" fill="#000000">column_type </text>
<text text-anchor="start" x="136.744" y="-86.9" font-family="Arial" font-size="14.00" fill="#666666">[varchar(191)]</text>
<polygon fill="none" stroke="#000000" points="46.5,-45.5 46.5,-75.5 421.5,-75.5 421.5,-45.5 46.5,-45.5"/>
<text text-anchor="start" x="53.5" y="-56.9" font-family="Arial" font-size="14.00" fill="#000000">column_value </text>
<text text-anchor="start" x="143.7426" y="-56.9" font-family="Arial" font-size="14.00" fill="#666666">[varchar(191)]</text>
<polygon fill="none" stroke="#000000" stroke-width="3" points="44.5,-44.5 44.5,-322.5 422.5,-322.5 422.5,-44.5 44.5,-44.5"/>
</g>
</g>
</svg>
