<?xml version="1.0" encoding="UTF-8" standalone="no"?>
<!DOCTYPE svg PUBLIC "-//W3C//DTD SVG 1.1//EN"
 "http://www.w3.org/Graphics/SVG/1.1/DTD/svg11.dtd">
<!-- Generated by graphviz version 2.40.1 (20161225.0304)
 -->
<!-- Title: tweets Pages: 1 -->
<svg width="1041pt" height="2519pt"
 viewBox="0.00 0.00 1041.00 2519.00" xmlns="http://www.w3.org/2000/svg" xmlns:xlink="http://www.w3.org/1999/xlink">
<g id="graph0" class="graph" transform="scale(1 1) rotate(0) translate(4 2515)">
<title>tweets</title>
<polygon fill="#ffffff" stroke="transparent" points="-4,4 -4,-2515 1037,-2515 1037,4 -4,4"/>
<!-- tweets -->
<g id="node1" class="node">
<title>tweets</title>
<polygon fill="#efefef" stroke="transparent" points="395.5,-1882.5 395.5,-1917.5 636.5,-1917.5 636.5,-1882.5 395.5,-1882.5"/>
<polygon fill="none" stroke="#000000" points="395.5,-1882.5 395.5,-1917.5 636.5,-1917.5 636.5,-1882.5 395.5,-1882.5"/>
<text text-anchor="start" x="441.3676" y="-1895.3" font-family="Arial Bold" font-size="18.00" fill="#000000">tweets</text>
<text text-anchor="start" x="493.3786" y="-1895.3" font-family="Arial" font-size="14.00" fill="#000000"> </text>
<text text-anchor="start" x="497.2692" y="-1895.3" font-family="Arial" font-size="14.00" fill="#666666">[BASE TABLE]</text>
<polygon fill="none" stroke="#000000" points="395.5,-1852.5 395.5,-1882.5 636.5,-1882.5 636.5,-1852.5 395.5,-1852.5"/>
<text text-anchor="start" x="402.5" y="-1863.9" font-family="Arial" font-size="14.00" fill="#000000">id </text>
<text text-anchor="start" x="417.2798" y="-1863.9" font-family="Arial" font-size="14.00" fill="#666666">[int(10) unsigned]</text>
<polygon fill="none" stroke="#000000" points="395.5,-1822.5 395.5,-1852.5 636.5,-1852.5 636.5,-1822.5 395.5,-1822.5"/>
<text text-anchor="start" x="402.5" y="-1833.9" font-family="Arial" font-size="14.00" fill="#000000">category_id </text>
<text text-anchor="start" x="478.744" y="-1833.9" font-family="Arial" font-size="14.00" fill="#666666">[int(10) unsigned]</text>
<polygon fill="none" stroke="#000000" points="395.5,-1792.5 395.5,-1822.5 636.5,-1822.5 636.5,-1792.5 395.5,-1792.5"/>
<text text-anchor="start" x="402.5" y="-1803.9" font-family="Arial" font-size="14.00" fill="#000000">page_id </text>
<text text-anchor="start" x="456.1928" y="-1803.9" font-family="Arial" font-size="14.00" fill="#666666">[int(10) unsigned]</text>
<polygon fill="none" stroke="#000000" points="395.5,-1762.5 395.5,-1792.5 636.5,-1792.5 636.5,-1762.5 395.5,-1762.5"/>
<text text-anchor="start" x="402.5" y="-1773.9" font-family="Arial" font-size="14.00" fill="#000000">asset_id </text>
<text text-anchor="start" x="458.5182" y="-1773.9" font-family="Arial" font-size="14.00" fill="#666666">[int(10) unsigned]</text>
<polygon fill="none" stroke="#000000" points="395.5,-1732.5 395.5,-1762.5 636.5,-1762.5 636.5,-1732.5 395.5,-1732.5"/>
<text text-anchor="start" x="402.5" y="-1743.9" font-family="Arial" font-size="14.00" fill="#000000">is_published </text>
<text text-anchor="start" x="484.1886" y="-1743.9" font-family="Arial" font-size="14.00" fill="#666666">[tinyint(1)]</text>
<polygon fill="none" stroke="#000000" points="395.5,-1702.5 395.5,-1732.5 636.5,-1732.5 636.5,-1702.5 395.5,-1702.5"/>
<text text-anchor="start" x="402.5" y="-1713.9" font-family="Arial" font-size="14.00" fill="#000000">date_added </text>
<text text-anchor="start" x="480.3246" y="-1713.9" font-family="Arial" font-size="14.00" fill="#666666">[datetime]</text>
<polygon fill="none" stroke="#000000" points="395.5,-1672.5 395.5,-1702.5 636.5,-1702.5 636.5,-1672.5 395.5,-1672.5"/>
<text text-anchor="start" x="402.5" y="-1683.9" font-family="Arial" font-size="14.00" fill="#000000">created_by </text>
<text text-anchor="start" x="475.6374" y="-1683.9" font-family="Arial" font-size="14.00" fill="#666666">[int(11)]</text>
<polygon fill="none" stroke="#000000" points="395.5,-1642.5 395.5,-1672.5 636.5,-1672.5 636.5,-1642.5 395.5,-1642.5"/>
<text text-anchor="start" x="402.5" y="-1653.9" font-family="Arial" font-size="14.00" fill="#000000">created_by_user </text>
<text text-anchor="start" x="510.6458" y="-1653.9" font-family="Arial" font-size="14.00" fill="#666666">[varchar(191)]</text>
<polygon fill="none" stroke="#000000" points="395.5,-1612.5 395.5,-1642.5 636.5,-1642.5 636.5,-1612.5 395.5,-1612.5"/>
<text text-anchor="start" x="402.5" y="-1623.9" font-family="Arial" font-size="14.00" fill="#000000">date_modified </text>
<text text-anchor="start" x="494.3064" y="-1623.9" font-family="Arial" font-size="14.00" fill="#666666">[datetime]</text>
<polygon fill="none" stroke="#000000" points="395.5,-1582.5 395.5,-1612.5 636.5,-1612.5 636.5,-1582.5 395.5,-1582.5"/>
<text text-anchor="start" x="402.5" y="-1593.9" font-family="Arial" font-size="14.00" fill="#000000">modified_by </text>
<text text-anchor="start" x="481.8506" y="-1593.9" font-family="Arial" font-size="14.00" fill="#666666">[int(11)]</text>
<polygon fill="none" stroke="#000000" points="395.5,-1552.5 395.5,-1582.5 636.5,-1582.5 636.5,-1552.5 395.5,-1552.5"/>
<text text-anchor="start" x="402.5" y="-1563.9" font-family="Arial" font-size="14.00" fill="#000000">modified_by_user </text>
<text text-anchor="start" x="516.859" y="-1563.9" font-family="Arial" font-size="14.00" fill="#666666">[varchar(191)]</text>
<polygon fill="none" stroke="#000000" points="395.5,-1522.5 395.5,-1552.5 636.5,-1552.5 636.5,-1522.5 395.5,-1522.5"/>
<text text-anchor="start" x="402.5" y="-1533.9" font-family="Arial" font-size="14.00" fill="#000000">checked_out </text>
<text text-anchor="start" x="485.7594" y="-1533.9" font-family="Arial" font-size="14.00" fill="#666666">[datetime]</text>
<polygon fill="none" stroke="#000000" points="395.5,-1492.5 395.5,-1522.5 636.5,-1522.5 636.5,-1492.5 395.5,-1492.5"/>
<text text-anchor="start" x="402.5" y="-1503.9" font-family="Arial" font-size="14.00" fill="#000000">checked_out_by </text>
<text text-anchor="start" x="508.3246" y="-1503.9" font-family="Arial" font-size="14.00" fill="#666666">[int(11)]</text>
<polygon fill="none" stroke="#000000" points="395.5,-1462.5 395.5,-1492.5 636.5,-1492.5 636.5,-1462.5 395.5,-1462.5"/>
<text text-anchor="start" x="402.0239" y="-1473.9" font-family="Arial" font-size="14.00" fill="#000000">checked_out_by_user </text>
<text text-anchor="start" x="542.8569" y="-1473.9" font-family="Arial" font-size="14.00" fill="#666666">[varchar(191)]</text>
<polygon fill="none" stroke="#000000" points="395.5,-1432.5 395.5,-1462.5 636.5,-1462.5 636.5,-1432.5 395.5,-1432.5"/>
<text text-anchor="start" x="402.5" y="-1443.9" font-family="Arial" font-size="14.00" fill="#000000">name </text>
<text text-anchor="start" x="441.399" y="-1443.9" font-family="Arial" font-size="14.00" fill="#666666">[varchar(191)]</text>
<polygon fill="none" stroke="#000000" points="395.5,-1402.5 395.5,-1432.5 636.5,-1432.5 636.5,-1402.5 395.5,-1402.5"/>
<text text-anchor="start" x="402.5" y="-1413.9" font-family="Arial" font-size="14.00" fill="#000000">description </text>
<text text-anchor="start" x="474.068" y="-1413.9" font-family="Arial" font-size="14.00" fill="#666666">[longtext]</text>
<polygon fill="none" stroke="#000000" points="395.5,-1372.5 395.5,-1402.5 636.5,-1402.5 636.5,-1372.5 395.5,-1372.5"/>
<text text-anchor="start" x="402.5" y="-1383.9" font-family="Arial" font-size="14.00" fill="#000000">media_id </text>
<text text-anchor="start" x="463.1774" y="-1383.9" font-family="Arial" font-size="14.00" fill="#666666">[varchar(191)]</text>
<polygon fill="none" stroke="#000000" points="395.5,-1342.5 395.5,-1372.5 636.5,-1372.5 636.5,-1342.5 395.5,-1342.5"/>
<text text-anchor="start" x="402.5" y="-1353.9" font-family="Arial" font-size="14.00" fill="#000000">media_path </text>
<text text-anchor="start" x="479.5266" y="-1353.9" font-family="Arial" font-size="14.00" fill="#666666">[varchar(191)]</text>
<polygon fill="none" stroke="#000000" points="395.5,-1312.5 395.5,-1342.5 636.5,-1342.5 636.5,-1312.5 395.5,-1312.5"/>
<text text-anchor="start" x="402.5" y="-1323.9" font-family="Arial" font-size="14.00" fill="#000000">text </text>
<text text-anchor="start" x="428.9544" y="-1323.9" font-family="Arial" font-size="14.00" fill="#666666">[varchar(191)]</text>
<polygon fill="none" stroke="#000000" points="395.5,-1282.5 395.5,-1312.5 636.5,-1312.5 636.5,-1282.5 395.5,-1282.5"/>
<text text-anchor="start" x="402.5" y="-1293.9" font-family="Arial" font-size="14.00" fill="#000000">sent_count </text>
<text text-anchor="start" x="474.8674" y="-1293.9" font-family="Arial" font-size="14.00" fill="#666666">[int(11)]</text>
<polygon fill="none" stroke="#000000" points="395.5,-1252.5 395.5,-1282.5 636.5,-1282.5 636.5,-1252.5 395.5,-1252.5"/>
<text text-anchor="start" x="402.5" y="-1263.9" font-family="Arial" font-size="14.00" fill="#000000">favorite_count </text>
<text text-anchor="start" x="494.3078" y="-1263.9" font-family="Arial" font-size="14.00" fill="#666666">[int(11)]</text>
<polygon fill="none" stroke="#000000" points="395.5,-1222.5 395.5,-1252.5 636.5,-1252.5 636.5,-1222.5 395.5,-1222.5"/>
<text text-anchor="start" x="402.5" y="-1233.9" font-family="Arial" font-size="14.00" fill="#000000">retweet_count </text>
<text text-anchor="start" x="494.3078" y="-1233.9" font-family="Arial" font-size="14.00" fill="#666666">[int(11)]</text>
<polygon fill="none" stroke="#000000" points="395.5,-1192.5 395.5,-1222.5 636.5,-1222.5 636.5,-1192.5 395.5,-1192.5"/>
<text text-anchor="start" x="402.5" y="-1203.9" font-family="Arial" font-size="14.00" fill="#000000">lang </text>
<text text-anchor="start" x="432.845" y="-1203.9" font-family="Arial" font-size="14.00" fill="#666666">[varchar(191)]</text>
<polygon fill="none" stroke="#000000" stroke-width="3" points="393.5,-1191.5 393.5,-1919.5 637.5,-1919.5 637.5,-1191.5 393.5,-1191.5"/>
</g>
<!-- categories -->
<g id="node3" class="node">
<title>categories</title>
<polygon fill="#efefef" stroke="transparent" points="43.5,-777.5 43.5,-812.5 284.5,-812.5 284.5,-777.5 43.5,-777.5"/>
<polygon fill="none" stroke="#000000" points="43.5,-777.5 43.5,-812.5 284.5,-812.5 284.5,-777.5 43.5,-777.5"/>
<text text-anchor="start" x="73.8633" y="-790.3" font-family="Arial Bold" font-size="18.00" fill="#000000">categories</text>
<text text-anchor="start" x="156.8829" y="-790.3" font-family="Arial" font-size="14.00" fill="#000000"> </text>
<text text-anchor="start" x="160.7735" y="-790.3" font-family="Arial" font-size="14.00" fill="#666666">[BASE TABLE]</text>
<polygon fill="none" stroke="#000000" points="43.5,-747.5 43.5,-777.5 284.5,-777.5 284.5,-747.5 43.5,-747.5"/>
<text text-anchor="start" x="50.5" y="-758.9" font-family="Arial" font-size="14.00" fill="#000000">id </text>
<text text-anchor="start" x="65.2798" y="-758.9" font-family="Arial" font-size="14.00" fill="#666666">[int(10) unsigned]</text>
<polygon fill="none" stroke="#000000" points="43.5,-717.5 43.5,-747.5 284.5,-747.5 284.5,-717.5 43.5,-717.5"/>
<text text-anchor="start" x="50.5" y="-728.9" font-family="Arial" font-size="14.00" fill="#000000">is_published </text>
<text text-anchor="start" x="132.1886" y="-728.9" font-family="Arial" font-size="14.00" fill="#666666">[tinyint(1)]</text>
<polygon fill="none" stroke="#000000" points="43.5,-687.5 43.5,-717.5 284.5,-717.5 284.5,-687.5 43.5,-687.5"/>
<text text-anchor="start" x="50.5" y="-698.9" font-family="Arial" font-size="14.00" fill="#000000">date_added </text>
<text text-anchor="start" x="128.3246" y="-698.9" font-family="Arial" font-size="14.00" fill="#666666">[datetime]</text>
<polygon fill="none" stroke="#000000" points="43.5,-657.5 43.5,-687.5 284.5,-687.5 284.5,-657.5 43.5,-657.5"/>
<text text-anchor="start" x="50.5" y="-668.9" font-family="Arial" font-size="14.00" fill="#000000">created_by </text>
<text text-anchor="start" x="123.6374" y="-668.9" font-family="Arial" font-size="14.00" fill="#666666">[int(11)]</text>
<polygon fill="none" stroke="#000000" points="43.5,-627.5 43.5,-657.5 284.5,-657.5 284.5,-627.5 43.5,-627.5"/>
<text text-anchor="start" x="50.5" y="-638.9" font-family="Arial" font-size="14.00" fill="#000000">created_by_user </text>
<text text-anchor="start" x="158.6458" y="-638.9" font-family="Arial" font-size="14.00" fill="#666666">[varchar(191)]</text>
<polygon fill="none" stroke="#000000" points="43.5,-597.5 43.5,-627.5 284.5,-627.5 284.5,-597.5 43.5,-597.5"/>
<text text-anchor="start" x="50.5" y="-608.9" font-family="Arial" font-size="14.00" fill="#000000">date_modified </text>
<text text-anchor="start" x="142.3064" y="-608.9" font-family="Arial" font-size="14.00" fill="#666666">[datetime]</text>
<polygon fill="none" stroke="#000000" points="43.5,-567.5 43.5,-597.5 284.5,-597.5 284.5,-567.5 43.5,-567.5"/>
<text text-anchor="start" x="50.5" y="-578.9" font-family="Arial" font-size="14.00" fill="#000000">modified_by </text>
<text text-anchor="start" x="129.8506" y="-578.9" font-family="Arial" font-size="14.00" fill="#666666">[int(11)]</text>
<polygon fill="none" stroke="#000000" points="43.5,-537.5 43.5,-567.5 284.5,-567.5 284.5,-537.5 43.5,-537.5"/>
<text text-anchor="start" x="50.5" y="-548.9" font-family="Arial" font-size="14.00" fill="#000000">modified_by_user </text>
<text text-anchor="start" x="164.859" y="-548.9" font-family="Arial" font-size="14.00" fill="#666666">[varchar(191)]</text>
<polygon fill="none" stroke="#000000" points="43.5,-507.5 43.5,-537.5 284.5,-537.5 284.5,-507.5 43.5,-507.5"/>
<text text-anchor="start" x="50.5" y="-518.9" font-family="Arial" font-size="14.00" fill="#000000">checked_out </text>
<text text-anchor="start" x="133.7594" y="-518.9" font-family="Arial" font-size="14.00" fill="#666666">[datetime]</text>
<polygon fill="none" stroke="#000000" points="43.5,-477.5 43.5,-507.5 284.5,-507.5 284.5,-477.5 43.5,-477.5"/>
<text text-anchor="start" x="50.5" y="-488.9" font-family="Arial" font-size="14.00" fill="#000000">checked_out_by </text>
<text text-anchor="start" x="156.3246" y="-488.9" font-family="Arial" font-size="14.00" fill="#666666">[int(11)]</text>
<polygon fill="none" stroke="#000000" points="43.5,-447.5 43.5,-477.5 284.5,-477.5 284.5,-447.5 43.5,-447.5"/>
<text text-anchor="start" x="50.0239" y="-458.9" font-family="Arial" font-size="14.00" fill="#000000">checked_out_by_user </text>
<text text-anchor="start" x="190.8569" y="-458.9" font-family="Arial" font-size="14.00" fill="#666666">[varchar(191)]</text>
<polygon fill="none" stroke="#000000" points="43.5,-417.5 43.5,-447.5 284.5,-447.5 284.5,-417.5 43.5,-417.5"/>
<text text-anchor="start" x="50.5" y="-428.9" font-family="Arial" font-size="14.00" fill="#000000">title </text>
<text text-anchor="start" x="76.1676" y="-428.9" font-family="Arial" font-size="14.00" fill="#666666">[varchar(191)]</text>
<polygon fill="none" stroke="#000000" points="43.5,-387.5 43.5,-417.5 284.5,-417.5 284.5,-387.5 43.5,-387.5"/>
<text text-anchor="start" x="50.5" y="-398.9" font-family="Arial" font-size="14.00" fill="#000000">description </text>
<text text-anchor="start" x="122.068" y="-398.9" font-family="Arial" font-size="14.00" fill="#666666">[longtext]</text>
<polygon fill="none" stroke="#000000" points="43.5,-357.5 43.5,-387.5 284.5,-387.5 284.5,-357.5 43.5,-357.5"/>
<text text-anchor="start" x="50.5" y="-368.9" font-family="Arial" font-size="14.00" fill="#000000">alias </text>
<text text-anchor="start" x="83.169" y="-368.9" font-family="Arial" font-size="14.00" fill="#666666">[varchar(191)]</text>
<polygon fill="none" stroke="#000000" points="43.5,-327.5 43.5,-357.5 284.5,-357.5 284.5,-327.5 43.5,-327.5"/>
<text text-anchor="start" x="50.5" y="-338.9" font-family="Arial" font-size="14.00" fill="#000000">color </text>
<text text-anchor="start" x="84.723" y="-338.9" font-family="Arial" font-size="14.00" fill="#666666">[varchar(7)]</text>
<polygon fill="none" stroke="#000000" points="43.5,-297.5 43.5,-327.5 284.5,-327.5 284.5,-297.5 43.5,-297.5"/>
<text text-anchor="start" x="50.5" y="-308.9" font-family="Arial" font-size="14.00" fill="#000000">bundle </text>
<text text-anchor="start" x="96.4102" y="-308.9" font-family="Arial" font-size="14.00" fill="#666666">[varchar(50)]</text>
</g>
<!-- tweets&#45;&gt;categories -->
<g id="edge2" class="edge">
<title>tweets:category_id&#45;&gt;categories:id</title>
<path fill="none" stroke="#000000" d="M387.6563,-1830.9139C336.1481,-1741.083 341.784,-762.5 284.5,-762.5"/>
<polygon fill="#000000" stroke="#000000" points="387.8417,-1831.0695 392.6063,-1840.9462 391.6708,-1834.2848 395.5,-1837.5 395.5,-1837.5 395.5,-1837.5 391.6708,-1834.2848 398.3937,-1834.0538 387.8417,-1831.0695 387.8417,-1831.0695"/>
<text text-anchor="start" x="122.159" y="-1847.5" font-family="Arial" font-size="10.00" fill="#000000">FOREIGN KEY (category_id) REFERENCES categories (id)</text>
</g>
<!-- pages -->
<g id="node4" class="node">
<title>pages</title>
<polygon fill="#efefef" stroke="transparent" points="388.5,-1032.5 388.5,-1067.5 644.5,-1067.5 644.5,-1032.5 388.5,-1032.5"/>
<polygon fill="none" stroke="#000000" points="388.5,-1032.5 388.5,-1067.5 644.5,-1067.5 644.5,-1032.5 388.5,-1032.5"/>
<text text-anchor="start" x="443.3607" y="-1045.3" font-family="Arial Bold" font-size="18.00" fill="#000000">pages</text>
<text text-anchor="start" x="492.3855" y="-1045.3" font-family="Arial" font-size="14.00" fill="#000000"> </text>
<text text-anchor="start" x="496.2761" y="-1045.3" font-family="Arial" font-size="14.00" fill="#666666">[BASE TABLE]</text>
<polygon fill="none" stroke="#000000" points="388.5,-1002.5 388.5,-1032.5 644.5,-1032.5 644.5,-1002.5 388.5,-1002.5"/>
<text text-anchor="start" x="395.5" y="-1013.9" font-family="Arial" font-size="14.00" fill="#000000">id </text>
<text text-anchor="start" x="410.2798" y="-1013.9" font-family="Arial" font-size="14.00" fill="#666666">[int(10) unsigned]</text>
<polygon fill="none" stroke="#000000" points="388.5,-972.5 388.5,-1002.5 644.5,-1002.5 644.5,-972.5 388.5,-972.5"/>
<text text-anchor="start" x="395.5" y="-983.9" font-family="Arial" font-size="14.00" fill="#000000">category_id </text>
<text text-anchor="start" x="471.744" y="-983.9" font-family="Arial" font-size="14.00" fill="#666666">[int(10) unsigned]</text>
<polygon fill="none" stroke="#000000" points="388.5,-942.5 388.5,-972.5 644.5,-972.5 644.5,-942.5 388.5,-942.5"/>
<text text-anchor="start" x="395.1326" y="-953.9" font-family="Arial" font-size="14.00" fill="#000000">translation_parent_id </text>
<text text-anchor="start" x="529.7272" y="-953.9" font-family="Arial" font-size="14.00" fill="#666666">[int(10) unsigned]</text>
<polygon fill="none" stroke="#000000" points="388.5,-912.5 388.5,-942.5 644.5,-942.5 644.5,-912.5 388.5,-912.5"/>
<text text-anchor="start" x="395.5" y="-923.9" font-family="Arial" font-size="14.00" fill="#000000">variant_parent_id </text>
<text text-anchor="start" x="507.5322" y="-923.9" font-family="Arial" font-size="14.00" fill="#666666">[int(10) unsigned]</text>
<polygon fill="none" stroke="#000000" points="388.5,-882.5 388.5,-912.5 644.5,-912.5 644.5,-882.5 388.5,-882.5"/>
<text text-anchor="start" x="395.5" y="-893.9" font-family="Arial" font-size="14.00" fill="#000000">is_published </text>
<text text-anchor="start" x="477.1886" y="-893.9" font-family="Arial" font-size="14.00" fill="#666666">[tinyint(1)]</text>
<polygon fill="none" stroke="#000000" points="388.5,-852.5 388.5,-882.5 644.5,-882.5 644.5,-852.5 388.5,-852.5"/>
<text text-anchor="start" x="395.5" y="-863.9" font-family="Arial" font-size="14.00" fill="#000000">date_added </text>
<text text-anchor="start" x="473.3246" y="-863.9" font-family="Arial" font-size="14.00" fill="#666666">[datetime]</text>
<polygon fill="none" stroke="#000000" points="388.5,-822.5 388.5,-852.5 644.5,-852.5 644.5,-822.5 388.5,-822.5"/>
<text text-anchor="start" x="395.5" y="-833.9" font-family="Arial" font-size="14.00" fill="#000000">created_by </text>
<text text-anchor="start" x="468.6374" y="-833.9" font-family="Arial" font-size="14.00" fill="#666666">[int(11)]</text>
<polygon fill="none" stroke="#000000" points="388.5,-792.5 388.5,-822.5 644.5,-822.5 644.5,-792.5 388.5,-792.5"/>
<text text-anchor="start" x="395.5" y="-803.9" font-family="Arial" font-size="14.00" fill="#000000">created_by_user </text>
<text text-anchor="start" x="503.6458" y="-803.9" font-family="Arial" font-size="14.00" fill="#666666">[varchar(191)]</text>
<polygon fill="none" stroke="#000000" points="388.5,-762.5 388.5,-792.5 644.5,-792.5 644.5,-762.5 388.5,-762.5"/>
<text text-anchor="start" x="395.5" y="-773.9" font-family="Arial" font-size="14.00" fill="#000000">date_modified </text>
<text text-anchor="start" x="487.3064" y="-773.9" font-family="Arial" font-size="14.00" fill="#666666">[datetime]</text>
<polygon fill="none" stroke="#000000" points="388.5,-732.5 388.5,-762.5 644.5,-762.5 644.5,-732.5 388.5,-732.5"/>
<text text-anchor="start" x="395.5" y="-743.9" font-family="Arial" font-size="14.00" fill="#000000">modified_by </text>
<text text-anchor="start" x="474.8506" y="-743.9" font-family="Arial" font-size="14.00" fill="#666666">[int(11)]</text>
<polygon fill="none" stroke="#000000" points="388.5,-702.5 388.5,-732.5 644.5,-732.5 644.5,-702.5 388.5,-702.5"/>
<text text-anchor="start" x="395.5" y="-713.9" font-family="Arial" font-size="14.00" fill="#000000">modified_by_user </text>
<text text-anchor="start" x="509.859" y="-713.9" font-family="Arial" font-size="14.00" fill="#666666">[varchar(191)]</text>
<polygon fill="none" stroke="#000000" points="388.5,-672.5 388.5,-702.5 644.5,-702.5 644.5,-672.5 388.5,-672.5"/>
<text text-anchor="start" x="395.5" y="-683.9" font-family="Arial" font-size="14.00" fill="#000000">checked_out </text>
<text text-anchor="start" x="478.7594" y="-683.9" font-family="Arial" font-size="14.00" fill="#666666">[datetime]</text>
<polygon fill="none" stroke="#000000" points="388.5,-642.5 388.5,-672.5 644.5,-672.5 644.5,-642.5 388.5,-642.5"/>
<text text-anchor="start" x="395.5" y="-653.9" font-family="Arial" font-size="14.00" fill="#000000">checked_out_by </text>
<text text-anchor="start" x="501.3246" y="-653.9" font-family="Arial" font-size="14.00" fill="#666666">[int(11)]</text>
<polygon fill="none" stroke="#000000" points="388.5,-612.5 388.5,-642.5 644.5,-642.5 644.5,-612.5 388.5,-612.5"/>
<text text-anchor="start" x="395.5" y="-623.9" font-family="Arial" font-size="14.00" fill="#000000">checked_out_by_user </text>
<text text-anchor="start" x="536.333" y="-623.9" font-family="Arial" font-size="14.00" fill="#666666">[varchar(191)]</text>
<polygon fill="none" stroke="#000000" points="388.5,-582.5 388.5,-612.5 644.5,-612.5 644.5,-582.5 388.5,-582.5"/>
<text text-anchor="start" x="395.5" y="-593.9" font-family="Arial" font-size="14.00" fill="#000000">title </text>
<text text-anchor="start" x="421.1676" y="-593.9" font-family="Arial" font-size="14.00" fill="#666666">[varchar(191)]</text>
<polygon fill="none" stroke="#000000" points="388.5,-552.5 388.5,-582.5 644.5,-582.5 644.5,-552.5 388.5,-552.5"/>
<text text-anchor="start" x="395.5" y="-563.9" font-family="Arial" font-size="14.00" fill="#000000">alias </text>
<text text-anchor="start" x="428.169" y="-563.9" font-family="Arial" font-size="14.00" fill="#666666">[varchar(191)]</text>
<polygon fill="none" stroke="#000000" points="388.5,-522.5 388.5,-552.5 644.5,-552.5 644.5,-522.5 388.5,-522.5"/>
<text text-anchor="start" x="395.5" y="-533.9" font-family="Arial" font-size="14.00" fill="#000000">template </text>
<text text-anchor="start" x="453.0694" y="-533.9" font-family="Arial" font-size="14.00" fill="#666666">[varchar(191)]</text>
<polygon fill="none" stroke="#000000" points="388.5,-492.5 388.5,-522.5 644.5,-522.5 644.5,-492.5 388.5,-492.5"/>
<text text-anchor="start" x="395.5" y="-503.9" font-family="Arial" font-size="14.00" fill="#000000">custom_html </text>
<text text-anchor="start" x="478.73" y="-503.9" font-family="Arial" font-size="14.00" fill="#666666">[longtext]</text>
<polygon fill="none" stroke="#000000" points="388.5,-462.5 388.5,-492.5 644.5,-492.5 644.5,-462.5 388.5,-462.5"/>
<text text-anchor="start" x="395.5" y="-473.9" font-family="Arial" font-size="14.00" fill="#000000">content </text>
<text text-anchor="start" x="445.3022" y="-473.9" font-family="Arial" font-size="14.00" fill="#666666">[longtext]</text>
<polygon fill="none" stroke="#000000" points="388.5,-432.5 388.5,-462.5 644.5,-462.5 644.5,-432.5 388.5,-432.5"/>
<text text-anchor="start" x="395.5" y="-443.9" font-family="Arial" font-size="14.00" fill="#000000">publish_up </text>
<text text-anchor="start" x="467.082" y="-443.9" font-family="Arial" font-size="14.00" fill="#666666">[datetime]</text>
<polygon fill="none" stroke="#000000" points="388.5,-402.5 388.5,-432.5 644.5,-432.5 644.5,-402.5 388.5,-402.5"/>
<text text-anchor="start" x="395.5" y="-413.9" font-family="Arial" font-size="14.00" fill="#000000">publish_down </text>
<text text-anchor="start" x="484.9712" y="-413.9" font-family="Arial" font-size="14.00" fill="#666666">[datetime]</text>
<polygon fill="none" stroke="#000000" points="388.5,-372.5 388.5,-402.5 644.5,-402.5 644.5,-372.5 388.5,-372.5"/>
<text text-anchor="start" x="395.5" y="-383.9" font-family="Arial" font-size="14.00" fill="#000000">hits </text>
<text text-anchor="start" x="421.1704" y="-383.9" font-family="Arial" font-size="14.00" fill="#666666">[int(11)]</text>
<polygon fill="none" stroke="#000000" points="388.5,-342.5 388.5,-372.5 644.5,-372.5 644.5,-342.5 388.5,-342.5"/>
<text text-anchor="start" x="395.5" y="-353.9" font-family="Arial" font-size="14.00" fill="#000000">unique_hits </text>
<text text-anchor="start" x="470.9726" y="-353.9" font-family="Arial" font-size="14.00" fill="#666666">[int(11)]</text>
<polygon fill="none" stroke="#000000" points="388.5,-312.5 388.5,-342.5 644.5,-342.5 644.5,-312.5 388.5,-312.5"/>
<text text-anchor="start" x="395.5" y="-323.9" font-family="Arial" font-size="14.00" fill="#000000">variant_hits </text>
<text text-anchor="start" x="470.9586" y="-323.9" font-family="Arial" font-size="14.00" fill="#666666">[int(11)]</text>
<polygon fill="none" stroke="#000000" points="388.5,-282.5 388.5,-312.5 644.5,-312.5 644.5,-282.5 388.5,-282.5"/>
<text text-anchor="start" x="395.5" y="-293.9" font-family="Arial" font-size="14.00" fill="#000000">revision </text>
<text text-anchor="start" x="447.6122" y="-293.9" font-family="Arial" font-size="14.00" fill="#666666">[int(11)]</text>
<polygon fill="none" stroke="#000000" points="388.5,-252.5 388.5,-282.5 644.5,-282.5 644.5,-252.5 388.5,-252.5"/>
<text text-anchor="start" x="395.5" y="-263.9" font-family="Arial" font-size="14.00" fill="#000000">meta_description </text>
<text text-anchor="start" x="505.967" y="-263.9" font-family="Arial" font-size="14.00" fill="#666666">[varchar(191)]</text>
<polygon fill="none" stroke="#000000" points="388.5,-222.5 388.5,-252.5 644.5,-252.5 644.5,-222.5 388.5,-222.5"/>
<text text-anchor="start" x="395.5" y="-233.9" font-family="Arial" font-size="14.00" fill="#000000">redirect_type </text>
<text text-anchor="start" x="480.2952" y="-233.9" font-family="Arial" font-size="14.00" fill="#666666">[varchar(100)]</text>
<polygon fill="none" stroke="#000000" points="388.5,-192.5 388.5,-222.5 644.5,-222.5 644.5,-192.5 388.5,-192.5"/>
<text text-anchor="start" x="395.5" y="-203.9" font-family="Arial" font-size="14.00" fill="#000000">redirect_url </text>
<text text-anchor="start" x="469.3892" y="-203.9" font-family="Arial" font-size="14.00" fill="#666666">[varchar(2048)]</text>
<polygon fill="none" stroke="#000000" points="388.5,-162.5 388.5,-192.5 644.5,-192.5 644.5,-162.5 388.5,-162.5"/>
<text text-anchor="start" x="395.5" y="-173.9" font-family="Arial" font-size="14.00" fill="#000000">is_preference_center </text>
<text text-anchor="start" x="530.8688" y="-173.9" font-family="Arial" font-size="14.00" fill="#666666">[tinyint(1)]</text>
<polygon fill="none" stroke="#000000" points="388.5,-132.5 388.5,-162.5 644.5,-162.5 644.5,-132.5 388.5,-132.5"/>
<text text-anchor="start" x="395.5" y="-143.9" font-family="Arial" font-size="14.00" fill="#000000">no_index </text>
<text text-anchor="start" x="456.1928" y="-143.9" font-family="Arial" font-size="14.00" fill="#666666">[tinyint(1)]</text>
<polygon fill="none" stroke="#000000" points="388.5,-102.5 388.5,-132.5 644.5,-132.5 644.5,-102.5 388.5,-102.5"/>
<text text-anchor="start" x="395.5" y="-113.9" font-family="Arial" font-size="14.00" fill="#000000">lang </text>
<text text-anchor="start" x="425.845" y="-113.9" font-family="Arial" font-size="14.00" fill="#666666">[varchar(191)]</text>
<polygon fill="none" stroke="#000000" points="388.5,-72.5 388.5,-102.5 644.5,-102.5 644.5,-72.5 388.5,-72.5"/>
<text text-anchor="start" x="395.5" y="-83.9" font-family="Arial" font-size="14.00" fill="#000000">variant_settings </text>
<text text-anchor="start" x="497.4144" y="-83.9" font-family="Arial" font-size="14.00" fill="#666666">[longtext]</text>
<polygon fill="none" stroke="#000000" points="388.5,-42.5 388.5,-72.5 644.5,-72.5 644.5,-42.5 388.5,-42.5"/>
<text text-anchor="start" x="395.5" y="-53.9" font-family="Arial" font-size="14.00" fill="#000000">variant_start_date </text>
<text text-anchor="start" x="511.4242" y="-53.9" font-family="Arial" font-size="14.00" fill="#666666">[datetime]</text>
</g>
<!-- tweets&#45;&gt;pages -->
<g id="edge3" class="edge">
<title>tweets:page_id&#45;&gt;pages:id</title>
<path fill="none" stroke="#000000" d="M646.6581,-1807.3204C927.665,-1797.252 826.3367,-1366.3833 636.5,-1147 563.6203,-1062.7771 461.3797,-1195.2229 388.5,-1111 361.3082,-1079.576 346.9444,-1017.5 388.5,-1017.5"/>
<polygon fill="#000000" stroke="#000000" points="646.4984,-1807.3231 636.4204,-1803.0007 641.4992,-1807.4116 636.5,-1807.5 636.5,-1807.5 636.5,-1807.5 641.4992,-1807.4116 636.5796,-1811.9993 646.4984,-1807.3231 646.4984,-1807.3231"/>
<text text-anchor="start" x="643.656" y="-1817.5" font-family="Arial" font-size="10.00" fill="#000000">FOREIGN KEY (page_id) REFERENCES pages (id)</text>
</g>
<!-- assets -->
<g id="node5" class="node">
<title>assets</title>
<polygon fill="#efefef" stroke="transparent" points="749.5,-972.5 749.5,-1007.5 990.5,-1007.5 990.5,-972.5 749.5,-972.5"/>
<polygon fill="none" stroke="#000000" points="749.5,-972.5 749.5,-1007.5 990.5,-1007.5 990.5,-972.5 749.5,-972.5"/>
<text text-anchor="start" x="795.3658" y="-985.3" font-family="Arial Bold" font-size="18.00" fill="#000000">assets</text>
<text text-anchor="start" x="847.3804" y="-985.3" font-family="Arial" font-size="14.00" fill="#000000"> </text>
<text text-anchor="start" x="851.271" y="-985.3" font-family="Arial" font-size="14.00" fill="#666666">[BASE TABLE]</text>
<polygon fill="none" stroke="#000000" points="749.5,-942.5 749.5,-972.5 990.5,-972.5 990.5,-942.5 749.5,-942.5"/>
<text text-anchor="start" x="756.5" y="-953.9" font-family="Arial" font-size="14.00" fill="#000000">id </text>
<text text-anchor="start" x="771.2798" y="-953.9" font-family="Arial" font-size="14.00" fill="#666666">[int(10) unsigned]</text>
<polygon fill="none" stroke="#000000" points="749.5,-912.5 749.5,-942.5 990.5,-942.5 990.5,-912.5 749.5,-912.5"/>
<text text-anchor="start" x="756.5" y="-923.9" font-family="Arial" font-size="14.00" fill="#000000">category_id </text>
<text text-anchor="start" x="832.744" y="-923.9" font-family="Arial" font-size="14.00" fill="#666666">[int(10) unsigned]</text>
<polygon fill="none" stroke="#000000" points="749.5,-882.5 749.5,-912.5 990.5,-912.5 990.5,-882.5 749.5,-882.5"/>
<text text-anchor="start" x="756.5" y="-893.9" font-family="Arial" font-size="14.00" fill="#000000">is_published </text>
<text text-anchor="start" x="838.1886" y="-893.9" font-family="Arial" font-size="14.00" fill="#666666">[tinyint(1)]</text>
<polygon fill="none" stroke="#000000" points="749.5,-852.5 749.5,-882.5 990.5,-882.5 990.5,-852.5 749.5,-852.5"/>
<text text-anchor="start" x="756.5" y="-863.9" font-family="Arial" font-size="14.00" fill="#000000">date_added </text>
<text text-anchor="start" x="834.3246" y="-863.9" font-family="Arial" font-size="14.00" fill="#666666">[datetime]</text>
<polygon fill="none" stroke="#000000" points="749.5,-822.5 749.5,-852.5 990.5,-852.5 990.5,-822.5 749.5,-822.5"/>
<text text-anchor="start" x="756.5" y="-833.9" font-family="Arial" font-size="14.00" fill="#000000">created_by </text>
<text text-anchor="start" x="829.6374" y="-833.9" font-family="Arial" font-size="14.00" fill="#666666">[int(11)]</text>
<polygon fill="none" stroke="#000000" points="749.5,-792.5 749.5,-822.5 990.5,-822.5 990.5,-792.5 749.5,-792.5"/>
<text text-anchor="start" x="756.5" y="-803.9" font-family="Arial" font-size="14.00" fill="#000000">created_by_user </text>
<text text-anchor="start" x="864.6458" y="-803.9" font-family="Arial" font-size="14.00" fill="#666666">[varchar(191)]</text>
<polygon fill="none" stroke="#000000" points="749.5,-762.5 749.5,-792.5 990.5,-792.5 990.5,-762.5 749.5,-762.5"/>
<text text-anchor="start" x="756.5" y="-773.9" font-family="Arial" font-size="14.00" fill="#000000">date_modified </text>
<text text-anchor="start" x="848.3064" y="-773.9" font-family="Arial" font-size="14.00" fill="#666666">[datetime]</text>
<polygon fill="none" stroke="#000000" points="749.5,-732.5 749.5,-762.5 990.5,-762.5 990.5,-732.5 749.5,-732.5"/>
<text text-anchor="start" x="756.5" y="-743.9" font-family="Arial" font-size="14.00" fill="#000000">modified_by </text>
<text text-anchor="start" x="835.8506" y="-743.9" font-family="Arial" font-size="14.00" fill="#666666">[int(11)]</text>
<polygon fill="none" stroke="#000000" points="749.5,-702.5 749.5,-732.5 990.5,-732.5 990.5,-702.5 749.5,-702.5"/>
<text text-anchor="start" x="756.5" y="-713.9" font-family="Arial" font-size="14.00" fill="#000000">modified_by_user </text>
<text text-anchor="start" x="870.859" y="-713.9" font-family="Arial" font-size="14.00" fill="#666666">[varchar(191)]</text>
<polygon fill="none" stroke="#000000" points="749.5,-672.5 749.5,-702.5 990.5,-702.5 990.5,-672.5 749.5,-672.5"/>
<text text-anchor="start" x="756.5" y="-683.9" font-family="Arial" font-size="14.00" fill="#000000">checked_out </text>
<text text-anchor="start" x="839.7594" y="-683.9" font-family="Arial" font-size="14.00" fill="#666666">[datetime]</text>
<polygon fill="none" stroke="#000000" points="749.5,-642.5 749.5,-672.5 990.5,-672.5 990.5,-642.5 749.5,-642.5"/>
<text text-anchor="start" x="756.5" y="-653.9" font-family="Arial" font-size="14.00" fill="#000000">checked_out_by </text>
<text text-anchor="start" x="862.3246" y="-653.9" font-family="Arial" font-size="14.00" fill="#666666">[int(11)]</text>
<polygon fill="none" stroke="#000000" points="749.5,-612.5 749.5,-642.5 990.5,-642.5 990.5,-612.5 749.5,-612.5"/>
<text text-anchor="start" x="756.0239" y="-623.9" font-family="Arial" font-size="14.00" fill="#000000">checked_out_by_user </text>
<text text-anchor="start" x="896.8569" y="-623.9" font-family="Arial" font-size="14.00" fill="#666666">[varchar(191)]</text>
<polygon fill="none" stroke="#000000" points="749.5,-582.5 749.5,-612.5 990.5,-612.5 990.5,-582.5 749.5,-582.5"/>
<text text-anchor="start" x="756.5" y="-593.9" font-family="Arial" font-size="14.00" fill="#000000">title </text>
<text text-anchor="start" x="782.1676" y="-593.9" font-family="Arial" font-size="14.00" fill="#666666">[varchar(191)]</text>
<polygon fill="none" stroke="#000000" points="749.5,-552.5 749.5,-582.5 990.5,-582.5 990.5,-552.5 749.5,-552.5"/>
<text text-anchor="start" x="756.5" y="-563.9" font-family="Arial" font-size="14.00" fill="#000000">description </text>
<text text-anchor="start" x="828.068" y="-563.9" font-family="Arial" font-size="14.00" fill="#666666">[longtext]</text>
<polygon fill="none" stroke="#000000" points="749.5,-522.5 749.5,-552.5 990.5,-552.5 990.5,-522.5 749.5,-522.5"/>
<text text-anchor="start" x="756.5" y="-533.9" font-family="Arial" font-size="14.00" fill="#000000">alias </text>
<text text-anchor="start" x="789.169" y="-533.9" font-family="Arial" font-size="14.00" fill="#666666">[varchar(191)]</text>
<polygon fill="none" stroke="#000000" points="749.5,-492.5 749.5,-522.5 990.5,-522.5 990.5,-492.5 749.5,-492.5"/>
<text text-anchor="start" x="756.5" y="-503.9" font-family="Arial" font-size="14.00" fill="#000000">storage_location </text>
<text text-anchor="start" x="863.089" y="-503.9" font-family="Arial" font-size="14.00" fill="#666666">[varchar(191)]</text>
<polygon fill="none" stroke="#000000" points="749.5,-462.5 749.5,-492.5 990.5,-492.5 990.5,-462.5 749.5,-462.5"/>
<text text-anchor="start" x="756.5" y="-473.9" font-family="Arial" font-size="14.00" fill="#000000">path </text>
<text text-anchor="start" x="787.629" y="-473.9" font-family="Arial" font-size="14.00" fill="#666666">[varchar(191)]</text>
<polygon fill="none" stroke="#000000" points="749.5,-432.5 749.5,-462.5 990.5,-462.5 990.5,-432.5 749.5,-432.5"/>
<text text-anchor="start" x="756.5" y="-443.9" font-family="Arial" font-size="14.00" fill="#000000">remote_path </text>
<text text-anchor="start" x="838.9712" y="-443.9" font-family="Arial" font-size="14.00" fill="#666666">[varchar(191)]</text>
<polygon fill="none" stroke="#000000" points="749.5,-402.5 749.5,-432.5 990.5,-432.5 990.5,-402.5 749.5,-402.5"/>
<text text-anchor="start" x="756.5" y="-413.9" font-family="Arial" font-size="14.00" fill="#000000">original_file_name </text>
<text text-anchor="start" x="873.9614" y="-413.9" font-family="Arial" font-size="14.00" fill="#666666">[varchar(191)]</text>
<polygon fill="none" stroke="#000000" points="749.5,-372.5 749.5,-402.5 990.5,-402.5 990.5,-372.5 749.5,-372.5"/>
<text text-anchor="start" x="756.5" y="-383.9" font-family="Arial" font-size="14.00" fill="#000000">lang </text>
<text text-anchor="start" x="786.845" y="-383.9" font-family="Arial" font-size="14.00" fill="#666666">[varchar(191)]</text>
<polygon fill="none" stroke="#000000" points="749.5,-342.5 749.5,-372.5 990.5,-372.5 990.5,-342.5 749.5,-342.5"/>
<text text-anchor="start" x="756.5" y="-353.9" font-family="Arial" font-size="14.00" fill="#000000">publish_up </text>
<text text-anchor="start" x="828.082" y="-353.9" font-family="Arial" font-size="14.00" fill="#666666">[datetime]</text>
<polygon fill="none" stroke="#000000" points="749.5,-312.5 749.5,-342.5 990.5,-342.5 990.5,-312.5 749.5,-312.5"/>
<text text-anchor="start" x="756.5" y="-323.9" font-family="Arial" font-size="14.00" fill="#000000">publish_down </text>
<text text-anchor="start" x="845.9712" y="-323.9" font-family="Arial" font-size="14.00" fill="#666666">[datetime]</text>
<polygon fill="none" stroke="#000000" points="749.5,-282.5 749.5,-312.5 990.5,-312.5 990.5,-282.5 749.5,-282.5"/>
<text text-anchor="start" x="756.5" y="-293.9" font-family="Arial" font-size="14.00" fill="#000000">download_count </text>
<text text-anchor="start" x="862.3204" y="-293.9" font-family="Arial" font-size="14.00" fill="#666666">[int(11)]</text>
<polygon fill="none" stroke="#000000" points="749.5,-252.5 749.5,-282.5 990.5,-282.5 990.5,-252.5 749.5,-252.5"/>
<text text-anchor="start" x="756.5" y="-263.9" font-family="Arial" font-size="14.00" fill="#000000">unique_download_count </text>
<text text-anchor="start" x="912.1226" y="-263.9" font-family="Arial" font-size="14.00" fill="#666666">[int(11)]</text>
<polygon fill="none" stroke="#000000" points="749.5,-222.5 749.5,-252.5 990.5,-252.5 990.5,-222.5 749.5,-222.5"/>
<text text-anchor="start" x="756.5" y="-233.9" font-family="Arial" font-size="14.00" fill="#000000">revision </text>
<text text-anchor="start" x="808.6122" y="-233.9" font-family="Arial" font-size="14.00" fill="#666666">[int(11)]</text>
<polygon fill="none" stroke="#000000" points="749.5,-192.5 749.5,-222.5 990.5,-222.5 990.5,-192.5 749.5,-192.5"/>
<text text-anchor="start" x="756.5" y="-203.9" font-family="Arial" font-size="14.00" fill="#000000">extension </text>
<text text-anchor="start" x="820.3008" y="-203.9" font-family="Arial" font-size="14.00" fill="#666666">[varchar(191)]</text>
<polygon fill="none" stroke="#000000" points="749.5,-162.5 749.5,-192.5 990.5,-192.5 990.5,-162.5 749.5,-162.5"/>
<text text-anchor="start" x="756.5" y="-173.9" font-family="Arial" font-size="14.00" fill="#000000">mime </text>
<text text-anchor="start" x="794.601" y="-173.9" font-family="Arial" font-size="14.00" fill="#666666">[varchar(191)]</text>
<polygon fill="none" stroke="#000000" points="749.5,-132.5 749.5,-162.5 990.5,-162.5 990.5,-132.5 749.5,-132.5"/>
<text text-anchor="start" x="756.5" y="-143.9" font-family="Arial" font-size="14.00" fill="#000000">size </text>
<text text-anchor="start" x="785.2798" y="-143.9" font-family="Arial" font-size="14.00" fill="#666666">[int(11)]</text>
<polygon fill="none" stroke="#000000" points="749.5,-102.5 749.5,-132.5 990.5,-132.5 990.5,-102.5 749.5,-102.5"/>
<text text-anchor="start" x="756.5" y="-113.9" font-family="Arial" font-size="14.00" fill="#000000">disallow </text>
<text text-anchor="start" x="810.1648" y="-113.9" font-family="Arial" font-size="14.00" fill="#666666">[tinyint(1)]</text>
</g>
<!-- tweets&#45;&gt;assets -->
<g id="edge4" class="edge">
<title>tweets:asset_id&#45;&gt;assets:id</title>
<path fill="none" stroke="#000000" d="M646.0827,-1774.1961C723.4311,-1717.7699 660.9409,-957.5 749.5,-957.5"/>
<polygon fill="#000000" stroke="#000000" points="645.9539,-1774.2405 635.0332,-1773.2458 641.2269,-1775.8702 636.5,-1777.5 636.5,-1777.5 636.5,-1777.5 641.2269,-1775.8702 637.9668,-1781.7542 645.9539,-1774.2405 645.9539,-1774.2405"/>
<text text-anchor="start" x="643.995" y="-1787.5" font-family="Arial" font-size="10.00" fill="#000000">FOREIGN KEY (asset_id) REFERENCES assets (id)</text>
</g>
<!-- tweet_stats -->
<g id="node2" class="node">
<title>tweet_stats</title>
<polygon fill="#efefef" stroke="transparent" points="415.5,-2432.5 415.5,-2467.5 617.5,-2467.5 617.5,-2432.5 415.5,-2432.5"/>
<polygon fill="none" stroke="#000000" points="415.5,-2432.5 415.5,-2467.5 617.5,-2467.5 617.5,-2432.5 415.5,-2432.5"/>
<text text-anchor="start" x="422.3592" y="-2445.3" font-family="Arial Bold" font-size="18.00" fill="#000000">tweet_stats</text>
<text text-anchor="start" x="513.387" y="-2445.3" font-family="Arial" font-size="14.00" fill="#000000"> </text>
<text text-anchor="start" x="517.2776" y="-2445.3" font-family="Arial" font-size="14.00" fill="#666666">[BASE TABLE]</text>
<polygon fill="none" stroke="#000000" points="415.5,-2402.5 415.5,-2432.5 617.5,-2432.5 617.5,-2402.5 415.5,-2402.5"/>
<text text-anchor="start" x="422.5" y="-2413.9" font-family="Arial" font-size="14.00" fill="#000000">id </text>
<text text-anchor="start" x="437.2798" y="-2413.9" font-family="Arial" font-size="14.00" fill="#666666">[int(10) unsigned]</text>
<polygon fill="none" stroke="#000000" points="415.5,-2372.5 415.5,-2402.5 617.5,-2402.5 617.5,-2372.5 415.5,-2372.5"/>
<text text-anchor="start" x="422.5" y="-2383.9" font-family="Arial" font-size="14.00" fill="#000000">tweet_id </text>
<text text-anchor="start" x="478.5154" y="-2383.9" font-family="Arial" font-size="14.00" fill="#666666">[int(10) unsigned]</text>
<polygon fill="none" stroke="#000000" points="415.5,-2342.5 415.5,-2372.5 617.5,-2372.5 617.5,-2342.5 415.5,-2342.5"/>
<text text-anchor="start" x="422.5" y="-2353.9" font-family="Arial" font-size="14.00" fill="#000000">lead_id </text>
<text text-anchor="start" x="471.5168" y="-2353.9" font-family="Arial" font-size="14.00" fill="#666666">[bigint(20) unsigned]</text>
<polygon fill="none" stroke="#000000" points="415.5,-2312.5 415.5,-2342.5 617.5,-2342.5 617.5,-2312.5 415.5,-2312.5"/>
<text text-anchor="start" x="422.3773" y="-2323.9" font-family="Arial" font-size="14.00" fill="#000000">twitter_tweet_id </text>
<text text-anchor="start" x="523.5035" y="-2323.9" font-family="Arial" font-size="14.00" fill="#666666">[varchar(191)]</text>
<polygon fill="none" stroke="#000000" points="415.5,-2282.5 415.5,-2312.5 617.5,-2312.5 617.5,-2282.5 415.5,-2282.5"/>
<text text-anchor="start" x="422.5" y="-2293.9" font-family="Arial" font-size="14.00" fill="#000000">handle </text>
<text text-anchor="start" x="468.4102" y="-2293.9" font-family="Arial" font-size="14.00" fill="#666666">[varchar(191)]</text>
<polygon fill="none" stroke="#000000" points="415.5,-2252.5 415.5,-2282.5 617.5,-2282.5 617.5,-2252.5 415.5,-2252.5"/>
<text text-anchor="start" x="422.5" y="-2263.9" font-family="Arial" font-size="14.00" fill="#000000">date_sent </text>
<text text-anchor="start" x="487.8674" y="-2263.9" font-family="Arial" font-size="14.00" fill="#666666">[datetime]</text>
<polygon fill="none" stroke="#000000" points="415.5,-2222.5 415.5,-2252.5 617.5,-2252.5 617.5,-2222.5 415.5,-2222.5"/>
<text text-anchor="start" x="422.5" y="-2233.9" font-family="Arial" font-size="14.00" fill="#000000">is_failed </text>
<text text-anchor="start" x="477.7314" y="-2233.9" font-family="Arial" font-size="14.00" fill="#666666">[tinyint(1)]</text>
<polygon fill="none" stroke="#000000" points="415.5,-2192.5 415.5,-2222.5 617.5,-2222.5 617.5,-2192.5 415.5,-2192.5"/>
<text text-anchor="start" x="422.5" y="-2203.9" font-family="Arial" font-size="14.00" fill="#000000">retry_count </text>
<text text-anchor="start" x="496.406" y="-2203.9" font-family="Arial" font-size="14.00" fill="#666666">[int(11)]</text>
<polygon fill="none" stroke="#000000" points="415.5,-2162.5 415.5,-2192.5 617.5,-2192.5 617.5,-2162.5 415.5,-2162.5"/>
<text text-anchor="start" x="422.5" y="-2173.9" font-family="Arial" font-size="14.00" fill="#000000">source </text>
<text text-anchor="start" x="468.399" y="-2173.9" font-family="Arial" font-size="14.00" fill="#666666">[varchar(191)]</text>
<polygon fill="none" stroke="#000000" points="415.5,-2132.5 415.5,-2162.5 617.5,-2162.5 617.5,-2132.5 415.5,-2132.5"/>
<text text-anchor="start" x="422.5" y="-2143.9" font-family="Arial" font-size="14.00" fill="#000000">source_id </text>
<text text-anchor="start" x="487.0708" y="-2143.9" font-family="Arial" font-size="14.00" fill="#666666">[int(11)]</text>
<polygon fill="none" stroke="#000000" points="415.5,-2102.5 415.5,-2132.5 617.5,-2132.5 617.5,-2102.5 415.5,-2102.5"/>
<text text-anchor="start" x="422.5" y="-2113.9" font-family="Arial" font-size="14.00" fill="#000000">favorite_count </text>
<text text-anchor="start" x="514.3078" y="-2113.9" font-family="Arial" font-size="14.00" fill="#666666">[int(11)]</text>
<polygon fill="none" stroke="#000000" points="415.5,-2072.5 415.5,-2102.5 617.5,-2102.5 617.5,-2072.5 415.5,-2072.5"/>
<text text-anchor="start" x="422.5" y="-2083.9" font-family="Arial" font-size="14.00" fill="#000000">retweet_count </text>
<text text-anchor="start" x="514.3078" y="-2083.9" font-family="Arial" font-size="14.00" fill="#666666">[int(11)]</text>
<polygon fill="none" stroke="#000000" points="415.5,-2042.5 415.5,-2072.5 617.5,-2072.5 617.5,-2042.5 415.5,-2042.5"/>
<text text-anchor="start" x="422.5" y="-2053.9" font-family="Arial" font-size="14.00" fill="#000000">response_details </text>
<text text-anchor="start" x="532.1984" y="-2053.9" font-family="Arial" font-size="14.00" fill="#666666">[longtext]</text>
</g>
<!-- tweet_stats&#45;&gt;tweets -->
<g id="edge1" class="edge">
<title>tweet_stats:tweet_id&#45;&gt;tweets:id</title>
<path fill="none" stroke="#000000" d="M405.1966,-2387.1799C245.7872,-2377.0405 306.2267,-2128.5137 415.5,-2000 479.9645,-1924.1848 572.0355,-2039.8152 636.5,-1964 664.2823,-1931.3259 679.3889,-1867.5 636.5,-1867.5"/>
<polygon fill="#000000" stroke="#000000" points="405.5048,-2387.1894 415.3602,-2391.9978 410.5024,-2387.3447 415.5,-2387.5 415.5,-2387.5 415.5,-2387.5 410.5024,-2387.3447 415.6398,-2383.0022 405.5048,-2387.1894 405.5048,-2387.1894"/>
<text text-anchor="start" x="173.997" y="-2397.5" font-family="Arial" font-size="10.00" fill="#000000">FOREIGN KEY (tweet_id) REFERENCES tweets (id)</text>
</g>
</g>
</svg>
