<?xml version="1.0" encoding="UTF-8" standalone="no"?>
<!DOCTYPE svg PUBLIC "-//W3C//DTD SVG 1.1//EN"
 "http://www.w3.org/Graphics/SVG/1.1/DTD/svg11.dtd">
<!-- Generated by graphviz version 2.40.1 (20161225.0304)
 -->
<!-- Title: tweet_stats Pages: 1 -->
<svg width="703pt" height="2032pt"
 viewBox="0.00 0.00 702.50 2032.00" xmlns="http://www.w3.org/2000/svg" xmlns:xlink="http://www.w3.org/1999/xlink">
<g id="graph0" class="graph" transform="scale(1 1) rotate(0) translate(4 2028)">
<title>tweet_stats</title>
<polygon fill="#ffffff" stroke="transparent" points="-4,4 -4,-2028 698.5,-2028 698.5,4 -4,4"/>
<!-- tweet_stats -->
<g id="node1" class="node">
<title>tweet_stats</title>
<polygon fill="#efefef" stroke="transparent" points="249,-1942.5 249,-1977.5 451,-1977.5 451,-1942.5 249,-1942.5"/>
<polygon fill="none" stroke="#000000" points="249,-1942.5 249,-1977.5 451,-1977.5 451,-1942.5 249,-1942.5"/>
<text text-anchor="start" x="255.8592" y="-1955.3" font-family="Arial Bold" font-size="18.00" fill="#000000">tweet_stats</text>
<text text-anchor="start" x="346.887" y="-1955.3" font-family="Arial" font-size="14.00" fill="#000000"> </text>
<text text-anchor="start" x="350.7776" y="-1955.3" font-family="Arial" font-size="14.00" fill="#666666">[BASE TABLE]</text>
<polygon fill="none" stroke="#000000" points="249,-1912.5 249,-1942.5 451,-1942.5 451,-1912.5 249,-1912.5"/>
<text text-anchor="start" x="256" y="-1923.9" font-family="Arial" font-size="14.00" fill="#000000">id </text>
<text text-anchor="start" x="270.7798" y="-1923.9" font-family="Arial" font-size="14.00" fill="#666666">[int(10) unsigned]</text>
<polygon fill="none" stroke="#000000" points="249,-1882.5 249,-1912.5 451,-1912.5 451,-1882.5 249,-1882.5"/>
<text text-anchor="start" x="256" y="-1893.9" font-family="Arial" font-size="14.00" fill="#000000">tweet_id </text>
<text text-anchor="start" x="312.0154" y="-1893.9" font-family="Arial" font-size="14.00" fill="#666666">[int(10) unsigned]</text>
<polygon fill="none" stroke="#000000" points="249,-1852.5 249,-1882.5 451,-1882.5 451,-1852.5 249,-1852.5"/>
<text text-anchor="start" x="256" y="-1863.9" font-family="Arial" font-size="14.00" fill="#000000">lead_id </text>
<text text-anchor="start" x="305.0168" y="-1863.9" font-family="Arial" font-size="14.00" fill="#666666">[bigint(20) unsigned]</text>
<polygon fill="none" stroke="#000000" points="249,-1822.5 249,-1852.5 451,-1852.5 451,-1822.5 249,-1822.5"/>
<text text-anchor="start" x="255.8773" y="-1833.9" font-family="Arial" font-size="14.00" fill="#000000">twitter_tweet_id </text>
<text text-anchor="start" x="357.0035" y="-1833.9" font-family="Arial" font-size="14.00" fill="#666666">[varchar(191)]</text>
<polygon fill="none" stroke="#000000" points="249,-1792.5 249,-1822.5 451,-1822.5 451,-1792.5 249,-1792.5"/>
<text text-anchor="start" x="256" y="-1803.9" font-family="Arial" font-size="14.00" fill="#000000">handle </text>
<text text-anchor="start" x="301.9102" y="-1803.9" font-family="Arial" font-size="14.00" fill="#666666">[varchar(191)]</text>
<polygon fill="none" stroke="#000000" points="249,-1762.5 249,-1792.5 451,-1792.5 451,-1762.5 249,-1762.5"/>
<text text-anchor="start" x="256" y="-1773.9" font-family="Arial" font-size="14.00" fill="#000000">date_sent </text>
<text text-anchor="start" x="321.3674" y="-1773.9" font-family="Arial" font-size="14.00" fill="#666666">[datetime]</text>
<polygon fill="none" stroke="#000000" points="249,-1732.5 249,-1762.5 451,-1762.5 451,-1732.5 249,-1732.5"/>
<text text-anchor="start" x="256" y="-1743.9" font-family="Arial" font-size="14.00" fill="#000000">is_failed </text>
<text text-anchor="start" x="311.2314" y="-1743.9" font-family="Arial" font-size="14.00" fill="#666666">[tinyint(1)]</text>
<polygon fill="none" stroke="#000000" points="249,-1702.5 249,-1732.5 451,-1732.5 451,-1702.5 249,-1702.5"/>
<text text-anchor="start" x="256" y="-1713.9" font-family="Arial" font-size="14.00" fill="#000000">retry_count </text>
<text text-anchor="start" x="329.906" y="-1713.9" font-family="Arial" font-size="14.00" fill="#666666">[int(11)]</text>
<polygon fill="none" stroke="#000000" points="249,-1672.5 249,-1702.5 451,-1702.5 451,-1672.5 249,-1672.5"/>
<text text-anchor="start" x="256" y="-1683.9" font-family="Arial" font-size="14.00" fill="#000000">source </text>
<text text-anchor="start" x="301.899" y="-1683.9" font-family="Arial" font-size="14.00" fill="#666666">[varchar(191)]</text>
<polygon fill="none" stroke="#000000" points="249,-1642.5 249,-1672.5 451,-1672.5 451,-1642.5 249,-1642.5"/>
<text text-anchor="start" x="256" y="-1653.9" font-family="Arial" font-size="14.00" fill="#000000">source_id </text>
<text text-anchor="start" x="320.5708" y="-1653.9" font-family="Arial" font-size="14.00" fill="#666666">[int(11)]</text>
<polygon fill="none" stroke="#000000" points="249,-1612.5 249,-1642.5 451,-1642.5 451,-1612.5 249,-1612.5"/>
<text text-anchor="start" x="256" y="-1623.9" font-family="Arial" font-size="14.00" fill="#000000">favorite_count </text>
<text text-anchor="start" x="347.8078" y="-1623.9" font-family="Arial" font-size="14.00" fill="#666666">[int(11)]</text>
<polygon fill="none" stroke="#000000" points="249,-1582.5 249,-1612.5 451,-1612.5 451,-1582.5 249,-1582.5"/>
<text text-anchor="start" x="256" y="-1593.9" font-family="Arial" font-size="14.00" fill="#000000">retweet_count </text>
<text text-anchor="start" x="347.8078" y="-1593.9" font-family="Arial" font-size="14.00" fill="#666666">[int(11)]</text>
<polygon fill="none" stroke="#000000" points="249,-1552.5 249,-1582.5 451,-1582.5 451,-1552.5 249,-1552.5"/>
<text text-anchor="start" x="256" y="-1563.9" font-family="Arial" font-size="14.00" fill="#000000">response_details </text>
<text text-anchor="start" x="365.6984" y="-1563.9" font-family="Arial" font-size="14.00" fill="#666666">[longtext]</text>
<polygon fill="none" stroke="#000000" stroke-width="3" points="247.5,-1551.5 247.5,-1979.5 452.5,-1979.5 452.5,-1551.5 247.5,-1551.5"/>
</g>
<!-- tweets -->
<g id="node2" class="node">
<title>tweets</title>
<polygon fill="#efefef" stroke="transparent" points="54,-1062.5 54,-1097.5 295,-1097.5 295,-1062.5 54,-1062.5"/>
<polygon fill="none" stroke="#000000" points="54,-1062.5 54,-1097.5 295,-1097.5 295,-1062.5 54,-1062.5"/>
<text text-anchor="start" x="99.8676" y="-1075.3" font-family="Arial Bold" font-size="18.00" fill="#000000">tweets</text>
<text text-anchor="start" x="151.8786" y="-1075.3" font-family="Arial" font-size="14.00" fill="#000000"> </text>
<text text-anchor="start" x="155.7692" y="-1075.3" font-family="Arial" font-size="14.00" fill="#666666">[BASE TABLE]</text>
<polygon fill="none" stroke="#000000" points="54,-1032.5 54,-1062.5 295,-1062.5 295,-1032.5 54,-1032.5"/>
<text text-anchor="start" x="61" y="-1043.9" font-family="Arial" font-size="14.00" fill="#000000">id </text>
<text text-anchor="start" x="75.7798" y="-1043.9" font-family="Arial" font-size="14.00" fill="#666666">[int(10) unsigned]</text>
<polygon fill="none" stroke="#000000" points="54,-1002.5 54,-1032.5 295,-1032.5 295,-1002.5 54,-1002.5"/>
<text text-anchor="start" x="61" y="-1013.9" font-family="Arial" font-size="14.00" fill="#000000">category_id </text>
<text text-anchor="start" x="137.244" y="-1013.9" font-family="Arial" font-size="14.00" fill="#666666">[int(10) unsigned]</text>
<polygon fill="none" stroke="#000000" points="54,-972.5 54,-1002.5 295,-1002.5 295,-972.5 54,-972.5"/>
<text text-anchor="start" x="61" y="-983.9" font-family="Arial" font-size="14.00" fill="#000000">page_id </text>
<text text-anchor="start" x="114.6928" y="-983.9" font-family="Arial" font-size="14.00" fill="#666666">[int(10) unsigned]</text>
<polygon fill="none" stroke="#000000" points="54,-942.5 54,-972.5 295,-972.5 295,-942.5 54,-942.5"/>
<text text-anchor="start" x="61" y="-953.9" font-family="Arial" font-size="14.00" fill="#000000">asset_id </text>
<text text-anchor="start" x="117.0182" y="-953.9" font-family="Arial" font-size="14.00" fill="#666666">[int(10) unsigned]</text>
<polygon fill="none" stroke="#000000" points="54,-912.5 54,-942.5 295,-942.5 295,-912.5 54,-912.5"/>
<text text-anchor="start" x="61" y="-923.9" font-family="Arial" font-size="14.00" fill="#000000">is_published </text>
<text text-anchor="start" x="142.6886" y="-923.9" font-family="Arial" font-size="14.00" fill="#666666">[tinyint(1)]</text>
<polygon fill="none" stroke="#000000" points="54,-882.5 54,-912.5 295,-912.5 295,-882.5 54,-882.5"/>
<text text-anchor="start" x="61" y="-893.9" font-family="Arial" font-size="14.00" fill="#000000">date_added </text>
<text text-anchor="start" x="138.8246" y="-893.9" font-family="Arial" font-size="14.00" fill="#666666">[datetime]</text>
<polygon fill="none" stroke="#000000" points="54,-852.5 54,-882.5 295,-882.5 295,-852.5 54,-852.5"/>
<text text-anchor="start" x="61" y="-863.9" font-family="Arial" font-size="14.00" fill="#000000">created_by </text>
<text text-anchor="start" x="134.1374" y="-863.9" font-family="Arial" font-size="14.00" fill="#666666">[int(11)]</text>
<polygon fill="none" stroke="#000000" points="54,-822.5 54,-852.5 295,-852.5 295,-822.5 54,-822.5"/>
<text text-anchor="start" x="61" y="-833.9" font-family="Arial" font-size="14.00" fill="#000000">created_by_user </text>
<text text-anchor="start" x="169.1458" y="-833.9" font-family="Arial" font-size="14.00" fill="#666666">[varchar(191)]</text>
<polygon fill="none" stroke="#000000" points="54,-792.5 54,-822.5 295,-822.5 295,-792.5 54,-792.5"/>
<text text-anchor="start" x="61" y="-803.9" font-family="Arial" font-size="14.00" fill="#000000">date_modified </text>
<text text-anchor="start" x="152.8064" y="-803.9" font-family="Arial" font-size="14.00" fill="#666666">[datetime]</text>
<polygon fill="none" stroke="#000000" points="54,-762.5 54,-792.5 295,-792.5 295,-762.5 54,-762.5"/>
<text text-anchor="start" x="61" y="-773.9" font-family="Arial" font-size="14.00" fill="#000000">modified_by </text>
<text text-anchor="start" x="140.3506" y="-773.9" font-family="Arial" font-size="14.00" fill="#666666">[int(11)]</text>
<polygon fill="none" stroke="#000000" points="54,-732.5 54,-762.5 295,-762.5 295,-732.5 54,-732.5"/>
<text text-anchor="start" x="61" y="-743.9" font-family="Arial" font-size="14.00" fill="#000000">modified_by_user </text>
<text text-anchor="start" x="175.359" y="-743.9" font-family="Arial" font-size="14.00" fill="#666666">[varchar(191)]</text>
<polygon fill="none" stroke="#000000" points="54,-702.5 54,-732.5 295,-732.5 295,-702.5 54,-702.5"/>
<text text-anchor="start" x="61" y="-713.9" font-family="Arial" font-size="14.00" fill="#000000">checked_out </text>
<text text-anchor="start" x="144.2594" y="-713.9" font-family="Arial" font-size="14.00" fill="#666666">[datetime]</text>
<polygon fill="none" stroke="#000000" points="54,-672.5 54,-702.5 295,-702.5 295,-672.5 54,-672.5"/>
<text text-anchor="start" x="61" y="-683.9" font-family="Arial" font-size="14.00" fill="#000000">checked_out_by </text>
<text text-anchor="start" x="166.8246" y="-683.9" font-family="Arial" font-size="14.00" fill="#666666">[int(11)]</text>
<polygon fill="none" stroke="#000000" points="54,-642.5 54,-672.5 295,-672.5 295,-642.5 54,-642.5"/>
<text text-anchor="start" x="60.5239" y="-653.9" font-family="Arial" font-size="14.00" fill="#000000">checked_out_by_user </text>
<text text-anchor="start" x="201.3569" y="-653.9" font-family="Arial" font-size="14.00" fill="#666666">[varchar(191)]</text>
<polygon fill="none" stroke="#000000" points="54,-612.5 54,-642.5 295,-642.5 295,-612.5 54,-612.5"/>
<text text-anchor="start" x="61" y="-623.9" font-family="Arial" font-size="14.00" fill="#000000">name </text>
<text text-anchor="start" x="99.899" y="-623.9" font-family="Arial" font-size="14.00" fill="#666666">[varchar(191)]</text>
<polygon fill="none" stroke="#000000" points="54,-582.5 54,-612.5 295,-612.5 295,-582.5 54,-582.5"/>
<text text-anchor="start" x="61" y="-593.9" font-family="Arial" font-size="14.00" fill="#000000">description </text>
<text text-anchor="start" x="132.568" y="-593.9" font-family="Arial" font-size="14.00" fill="#666666">[longtext]</text>
<polygon fill="none" stroke="#000000" points="54,-552.5 54,-582.5 295,-582.5 295,-552.5 54,-552.5"/>
<text text-anchor="start" x="61" y="-563.9" font-family="Arial" font-size="14.00" fill="#000000">media_id </text>
<text text-anchor="start" x="121.6774" y="-563.9" font-family="Arial" font-size="14.00" fill="#666666">[varchar(191)]</text>
<polygon fill="none" stroke="#000000" points="54,-522.5 54,-552.5 295,-552.5 295,-522.5 54,-522.5"/>
<text text-anchor="start" x="61" y="-533.9" font-family="Arial" font-size="14.00" fill="#000000">media_path </text>
<text text-anchor="start" x="138.0266" y="-533.9" font-family="Arial" font-size="14.00" fill="#666666">[varchar(191)]</text>
<polygon fill="none" stroke="#000000" points="54,-492.5 54,-522.5 295,-522.5 295,-492.5 54,-492.5"/>
<text text-anchor="start" x="61" y="-503.9" font-family="Arial" font-size="14.00" fill="#000000">text </text>
<text text-anchor="start" x="87.4544" y="-503.9" font-family="Arial" font-size="14.00" fill="#666666">[varchar(191)]</text>
<polygon fill="none" stroke="#000000" points="54,-462.5 54,-492.5 295,-492.5 295,-462.5 54,-462.5"/>
<text text-anchor="start" x="61" y="-473.9" font-family="Arial" font-size="14.00" fill="#000000">sent_count </text>
<text text-anchor="start" x="133.3674" y="-473.9" font-family="Arial" font-size="14.00" fill="#666666">[int(11)]</text>
<polygon fill="none" stroke="#000000" points="54,-432.5 54,-462.5 295,-462.5 295,-432.5 54,-432.5"/>
<text text-anchor="start" x="61" y="-443.9" font-family="Arial" font-size="14.00" fill="#000000">favorite_count </text>
<text text-anchor="start" x="152.8078" y="-443.9" font-family="Arial" font-size="14.00" fill="#666666">[int(11)]</text>
<polygon fill="none" stroke="#000000" points="54,-402.5 54,-432.5 295,-432.5 295,-402.5 54,-402.5"/>
<text text-anchor="start" x="61" y="-413.9" font-family="Arial" font-size="14.00" fill="#000000">retweet_count </text>
<text text-anchor="start" x="152.8078" y="-413.9" font-family="Arial" font-size="14.00" fill="#666666">[int(11)]</text>
<polygon fill="none" stroke="#000000" points="54,-372.5 54,-402.5 295,-402.5 295,-372.5 54,-372.5"/>
<text text-anchor="start" x="61" y="-383.9" font-family="Arial" font-size="14.00" fill="#000000">lang </text>
<text text-anchor="start" x="91.345" y="-383.9" font-family="Arial" font-size="14.00" fill="#666666">[varchar(191)]</text>
</g>
<!-- tweet_stats&#45;&gt;tweets -->
<g id="edge1" class="edge">
<title>tweet_stats:tweet_id&#45;&gt;tweets:id</title>
<path fill="none" stroke="#000000" d="M238.8574,-1897.368C-80.4593,-1888.8891 274.1722,-1473.738 295,-1141 297.5961,-1099.5256 336.5556,-1047.5 295,-1047.5"/>
<polygon fill="#000000" stroke="#000000" points="239.0008,-1897.3697 248.9414,-1901.9996 244.0004,-1897.4349 249,-1897.5 249,-1897.5 249,-1897.5 244.0004,-1897.4349 249.0586,-1893.0004 239.0008,-1897.3697 239.0008,-1897.3697"/>
<text text-anchor="start" x="7.497" y="-1907.5" font-family="Arial" font-size="10.00" fill="#000000">FOREIGN KEY (tweet_id) REFERENCES tweets (id)</text>
</g>
<!-- leads -->
<g id="node3" class="node">
<title>leads</title>
<polygon fill="#efefef" stroke="transparent" points="399,-1392.5 399,-1427.5 652,-1427.5 652,-1392.5 399,-1392.5"/>
<polygon fill="none" stroke="#000000" points="399,-1392.5 399,-1427.5 652,-1427.5 652,-1392.5 399,-1392.5"/>
<text text-anchor="start" x="455.3667" y="-1405.3" font-family="Arial Bold" font-size="18.00" fill="#000000">leads</text>
<text text-anchor="start" x="498.3795" y="-1405.3" font-family="Arial" font-size="14.00" fill="#000000"> </text>
<text text-anchor="start" x="502.2701" y="-1405.3" font-family="Arial" font-size="14.00" fill="#666666">[BASE TABLE]</text>
<polygon fill="none" stroke="#000000" points="399,-1362.5 399,-1392.5 652,-1392.5 652,-1362.5 399,-1362.5"/>
<text text-anchor="start" x="406" y="-1373.9" font-family="Arial" font-size="14.00" fill="#000000">id </text>
<text text-anchor="start" x="420.7798" y="-1373.9" font-family="Arial" font-size="14.00" fill="#666666">[bigint(20) unsigned]</text>
<polygon fill="none" stroke="#000000" points="399,-1332.5 399,-1362.5 652,-1362.5 652,-1332.5 399,-1332.5"/>
<text text-anchor="start" x="406" y="-1343.9" font-family="Arial" font-size="14.00" fill="#000000">owner_id </text>
<text text-anchor="start" x="466.6774" y="-1343.9" font-family="Arial" font-size="14.00" fill="#666666">[int(10) unsigned]</text>
<polygon fill="none" stroke="#000000" points="399,-1302.5 399,-1332.5 652,-1332.5 652,-1302.5 399,-1302.5"/>
<text text-anchor="start" x="406" y="-1313.9" font-family="Arial" font-size="14.00" fill="#000000">stage_id </text>
<text text-anchor="start" x="462.8008" y="-1313.9" font-family="Arial" font-size="14.00" fill="#666666">[int(10) unsigned]</text>
<polygon fill="none" stroke="#000000" points="399,-1272.5 399,-1302.5 652,-1302.5 652,-1272.5 399,-1272.5"/>
<text text-anchor="start" x="406" y="-1283.9" font-family="Arial" font-size="14.00" fill="#000000">is_published </text>
<text text-anchor="start" x="487.6886" y="-1283.9" font-family="Arial" font-size="14.00" fill="#666666">[tinyint(1)]</text>
<polygon fill="none" stroke="#000000" points="399,-1242.5 399,-1272.5 652,-1272.5 652,-1242.5 399,-1242.5"/>
<text text-anchor="start" x="406" y="-1253.9" font-family="Arial" font-size="14.00" fill="#000000">date_added </text>
<text text-anchor="start" x="483.8246" y="-1253.9" font-family="Arial" font-size="14.00" fill="#666666">[datetime]</text>
<polygon fill="none" stroke="#000000" points="399,-1212.5 399,-1242.5 652,-1242.5 652,-1212.5 399,-1212.5"/>
<text text-anchor="start" x="406" y="-1223.9" font-family="Arial" font-size="14.00" fill="#000000">created_by </text>
<text text-anchor="start" x="479.1374" y="-1223.9" font-family="Arial" font-size="14.00" fill="#666666">[int(11)]</text>
<polygon fill="none" stroke="#000000" points="399,-1182.5 399,-1212.5 652,-1212.5 652,-1182.5 399,-1182.5"/>
<text text-anchor="start" x="406" y="-1193.9" font-family="Arial" font-size="14.00" fill="#000000">created_by_user </text>
<text text-anchor="start" x="514.1458" y="-1193.9" font-family="Arial" font-size="14.00" fill="#666666">[varchar(191)]</text>
<polygon fill="none" stroke="#000000" points="399,-1152.5 399,-1182.5 652,-1182.5 652,-1152.5 399,-1152.5"/>
<text text-anchor="start" x="406" y="-1163.9" font-family="Arial" font-size="14.00" fill="#000000">date_modified </text>
<text text-anchor="start" x="497.8064" y="-1163.9" font-family="Arial" font-size="14.00" fill="#666666">[datetime]</text>
<polygon fill="none" stroke="#000000" points="399,-1122.5 399,-1152.5 652,-1152.5 652,-1122.5 399,-1122.5"/>
<text text-anchor="start" x="406" y="-1133.9" font-family="Arial" font-size="14.00" fill="#000000">modified_by </text>
<text text-anchor="start" x="485.3506" y="-1133.9" font-family="Arial" font-size="14.00" fill="#666666">[int(11)]</text>
<polygon fill="none" stroke="#000000" points="399,-1092.5 399,-1122.5 652,-1122.5 652,-1092.5 399,-1092.5"/>
<text text-anchor="start" x="406" y="-1103.9" font-family="Arial" font-size="14.00" fill="#000000">modified_by_user </text>
<text text-anchor="start" x="520.359" y="-1103.9" font-family="Arial" font-size="14.00" fill="#666666">[varchar(191)]</text>
<polygon fill="none" stroke="#000000" points="399,-1062.5 399,-1092.5 652,-1092.5 652,-1062.5 399,-1062.5"/>
<text text-anchor="start" x="406" y="-1073.9" font-family="Arial" font-size="14.00" fill="#000000">checked_out </text>
<text text-anchor="start" x="489.2594" y="-1073.9" font-family="Arial" font-size="14.00" fill="#666666">[datetime]</text>
<polygon fill="none" stroke="#000000" points="399,-1032.5 399,-1062.5 652,-1062.5 652,-1032.5 399,-1032.5"/>
<text text-anchor="start" x="406" y="-1043.9" font-family="Arial" font-size="14.00" fill="#000000">checked_out_by </text>
<text text-anchor="start" x="511.8246" y="-1043.9" font-family="Arial" font-size="14.00" fill="#666666">[int(11)]</text>
<polygon fill="none" stroke="#000000" points="399,-1002.5 399,-1032.5 652,-1032.5 652,-1002.5 399,-1002.5"/>
<text text-anchor="start" x="406" y="-1013.9" font-family="Arial" font-size="14.00" fill="#000000">checked_out_by_user </text>
<text text-anchor="start" x="546.833" y="-1013.9" font-family="Arial" font-size="14.00" fill="#666666">[varchar(191)]</text>
<polygon fill="none" stroke="#000000" points="399,-972.5 399,-1002.5 652,-1002.5 652,-972.5 399,-972.5"/>
<text text-anchor="start" x="406" y="-983.9" font-family="Arial" font-size="14.00" fill="#000000">points </text>
<text text-anchor="start" x="447.2356" y="-983.9" font-family="Arial" font-size="14.00" fill="#666666">[int(11)]</text>
<polygon fill="none" stroke="#000000" points="399,-942.5 399,-972.5 652,-972.5 652,-942.5 399,-942.5"/>
<text text-anchor="start" x="406" y="-953.9" font-family="Arial" font-size="14.00" fill="#000000">last_active </text>
<text text-anchor="start" x="476.0154" y="-953.9" font-family="Arial" font-size="14.00" fill="#666666">[datetime]</text>
<polygon fill="none" stroke="#000000" points="399,-912.5 399,-942.5 652,-942.5 652,-912.5 399,-912.5"/>
<text text-anchor="start" x="406" y="-923.9" font-family="Arial" font-size="14.00" fill="#000000">internal </text>
<text text-anchor="start" x="455.7854" y="-923.9" font-family="Arial" font-size="14.00" fill="#666666">[longtext]</text>
<polygon fill="none" stroke="#000000" points="399,-882.5 399,-912.5 652,-912.5 652,-882.5 399,-882.5"/>
<text text-anchor="start" x="406" y="-893.9" font-family="Arial" font-size="14.00" fill="#000000">social_cache </text>
<text text-anchor="start" x="490.7994" y="-893.9" font-family="Arial" font-size="14.00" fill="#666666">[longtext]</text>
<polygon fill="none" stroke="#000000" points="399,-852.5 399,-882.5 652,-882.5 652,-852.5 399,-852.5"/>
<text text-anchor="start" x="406" y="-863.9" font-family="Arial" font-size="14.00" fill="#000000">date_identified </text>
<text text-anchor="start" x="500.9256" y="-863.9" font-family="Arial" font-size="14.00" fill="#666666">[datetime]</text>
<polygon fill="none" stroke="#000000" points="399,-822.5 399,-852.5 652,-852.5 652,-822.5 399,-822.5"/>
<text text-anchor="start" x="405.7062" y="-833.9" font-family="Arial" font-size="14.00" fill="#000000">preferred_profile_image </text>
<text text-anchor="start" x="558.1746" y="-833.9" font-family="Arial" font-size="14.00" fill="#666666">[varchar(191)]</text>
<polygon fill="none" stroke="#000000" points="399,-792.5 399,-822.5 652,-822.5 652,-792.5 399,-792.5"/>
<text text-anchor="start" x="406" y="-803.9" font-family="Arial" font-size="14.00" fill="#000000">title </text>
<text text-anchor="start" x="431.6676" y="-803.9" font-family="Arial" font-size="14.00" fill="#666666">[varchar(191)]</text>
<polygon fill="none" stroke="#000000" points="399,-762.5 399,-792.5 652,-792.5 652,-762.5 399,-762.5"/>
<text text-anchor="start" x="406" y="-773.9" font-family="Arial" font-size="14.00" fill="#000000">firstname </text>
<text text-anchor="start" x="467.4474" y="-773.9" font-family="Arial" font-size="14.00" fill="#666666">[varchar(191)]</text>
<polygon fill="none" stroke="#000000" points="399,-732.5 399,-762.5 652,-762.5 652,-732.5 399,-732.5"/>
<text text-anchor="start" x="406" y="-743.9" font-family="Arial" font-size="14.00" fill="#000000">lastname </text>
<text text-anchor="start" x="466.6788" y="-743.9" font-family="Arial" font-size="14.00" fill="#666666">[varchar(191)]</text>
<polygon fill="none" stroke="#000000" points="399,-702.5 399,-732.5 652,-732.5 652,-702.5 399,-702.5"/>
<text text-anchor="start" x="406" y="-713.9" font-family="Arial" font-size="14.00" fill="#000000">company </text>
<text text-anchor="start" x="466.6816" y="-713.9" font-family="Arial" font-size="14.00" fill="#666666">[varchar(191)]</text>
<polygon fill="none" stroke="#000000" points="399,-672.5 399,-702.5 652,-702.5 652,-672.5 399,-672.5"/>
<text text-anchor="start" x="406" y="-683.9" font-family="Arial" font-size="14.00" fill="#000000">position </text>
<text text-anchor="start" x="458.1248" y="-683.9" font-family="Arial" font-size="14.00" fill="#666666">[varchar(191)]</text>
<polygon fill="none" stroke="#000000" points="399,-642.5 399,-672.5 652,-672.5 652,-642.5 399,-642.5"/>
<text text-anchor="start" x="406" y="-653.9" font-family="Arial" font-size="14.00" fill="#000000">email </text>
<text text-anchor="start" x="443.3296" y="-653.9" font-family="Arial" font-size="14.00" fill="#666666">[varchar(191)]</text>
<polygon fill="none" stroke="#000000" points="399,-612.5 399,-642.5 652,-642.5 652,-612.5 399,-612.5"/>
<text text-anchor="start" x="406" y="-623.9" font-family="Arial" font-size="14.00" fill="#000000">phone </text>
<text text-anchor="start" x="448.8036" y="-623.9" font-family="Arial" font-size="14.00" fill="#666666">[varchar(191)]</text>
<polygon fill="none" stroke="#000000" points="399,-582.5 399,-612.5 652,-612.5 652,-582.5 399,-582.5"/>
<text text-anchor="start" x="406" y="-593.9" font-family="Arial" font-size="14.00" fill="#000000">mobile </text>
<text text-anchor="start" x="451.1122" y="-593.9" font-family="Arial" font-size="14.00" fill="#666666">[varchar(191)]</text>
<polygon fill="none" stroke="#000000" points="399,-552.5 399,-582.5 652,-582.5 652,-552.5 399,-552.5"/>
<text text-anchor="start" x="406" y="-563.9" font-family="Arial" font-size="14.00" fill="#000000">address1 </text>
<text text-anchor="start" x="467.4642" y="-563.9" font-family="Arial" font-size="14.00" fill="#666666">[varchar(191)]</text>
<polygon fill="none" stroke="#000000" points="399,-522.5 399,-552.5 652,-552.5 652,-522.5 399,-522.5"/>
<text text-anchor="start" x="406" y="-533.9" font-family="Arial" font-size="14.00" fill="#000000">address2 </text>
<text text-anchor="start" x="467.4642" y="-533.9" font-family="Arial" font-size="14.00" fill="#666666">[varchar(191)]</text>
<polygon fill="none" stroke="#000000" points="399,-492.5 399,-522.5 652,-522.5 652,-492.5 399,-492.5"/>
<text text-anchor="start" x="406" y="-503.9" font-family="Arial" font-size="14.00" fill="#000000">city </text>
<text text-anchor="start" x="430.8878" y="-503.9" font-family="Arial" font-size="14.00" fill="#666666">[varchar(191)]</text>
<polygon fill="none" stroke="#000000" points="399,-462.5 399,-492.5 652,-492.5 652,-462.5 399,-462.5"/>
<text text-anchor="start" x="406" y="-473.9" font-family="Arial" font-size="14.00" fill="#000000">state </text>
<text text-anchor="start" x="440.237" y="-473.9" font-family="Arial" font-size="14.00" fill="#666666">[varchar(191)]</text>
<polygon fill="none" stroke="#000000" points="399,-432.5 399,-462.5 652,-462.5 652,-432.5 399,-432.5"/>
<text text-anchor="start" x="406" y="-443.9" font-family="Arial" font-size="14.00" fill="#000000">zipcode </text>
<text text-anchor="start" x="458.1276" y="-443.9" font-family="Arial" font-size="14.00" fill="#666666">[varchar(191)]</text>
<polygon fill="none" stroke="#000000" points="399,-402.5 399,-432.5 652,-432.5 652,-402.5 399,-402.5"/>
<text text-anchor="start" x="406" y="-413.9" font-family="Arial" font-size="14.00" fill="#000000">timezone </text>
<text text-anchor="start" x="466.6788" y="-413.9" font-family="Arial" font-size="14.00" fill="#666666">[varchar(191)]</text>
<polygon fill="none" stroke="#000000" points="399,-372.5 399,-402.5 652,-402.5 652,-372.5 399,-372.5"/>
<text text-anchor="start" x="406" y="-383.9" font-family="Arial" font-size="14.00" fill="#000000">country </text>
<text text-anchor="start" x="455.7896" y="-383.9" font-family="Arial" font-size="14.00" fill="#666666">[varchar(191)]</text>
<polygon fill="none" stroke="#000000" points="399,-342.5 399,-372.5 652,-372.5 652,-342.5 399,-342.5"/>
<text text-anchor="start" x="406" y="-353.9" font-family="Arial" font-size="14.00" fill="#000000">fax </text>
<text text-anchor="start" x="428.5638" y="-353.9" font-family="Arial" font-size="14.00" fill="#666666">[varchar(255)]</text>
<polygon fill="none" stroke="#000000" points="399,-312.5 399,-342.5 652,-342.5 652,-312.5 399,-312.5"/>
<text text-anchor="start" x="406" y="-323.9" font-family="Arial" font-size="14.00" fill="#000000">preferred_locale </text>
<text text-anchor="start" x="511.0196" y="-323.9" font-family="Arial" font-size="14.00" fill="#666666">[varchar(255)]</text>
<polygon fill="none" stroke="#000000" points="399,-282.5 399,-312.5 652,-312.5 652,-282.5 399,-282.5"/>
<text text-anchor="start" x="406" y="-293.9" font-family="Arial" font-size="14.00" fill="#000000">attribution_date </text>
<text text-anchor="start" x="506.3702" y="-293.9" font-family="Arial" font-size="14.00" fill="#666666">[datetime]</text>
<polygon fill="none" stroke="#000000" points="399,-252.5 399,-282.5 652,-282.5 652,-252.5 399,-252.5"/>
<text text-anchor="start" x="406" y="-263.9" font-family="Arial" font-size="14.00" fill="#000000">attribution </text>
<text text-anchor="start" x="471.3492" y="-263.9" font-family="Arial" font-size="14.00" fill="#666666">[double]</text>
<polygon fill="none" stroke="#000000" points="399,-222.5 399,-252.5 652,-252.5 652,-222.5 399,-222.5"/>
<text text-anchor="start" x="406" y="-233.9" font-family="Arial" font-size="14.00" fill="#000000">website </text>
<text text-anchor="start" x="457.3422" y="-233.9" font-family="Arial" font-size="14.00" fill="#666666">[longtext]</text>
<polygon fill="none" stroke="#000000" points="399,-192.5 399,-222.5 652,-222.5 652,-192.5 399,-192.5"/>
<text text-anchor="start" x="406" y="-203.9" font-family="Arial" font-size="14.00" fill="#000000">facebook </text>
<text text-anchor="start" x="466.6942" y="-203.9" font-family="Arial" font-size="14.00" fill="#666666">[varchar(255)]</text>
<polygon fill="none" stroke="#000000" points="399,-162.5 399,-192.5 652,-192.5 652,-162.5 399,-162.5"/>
<text text-anchor="start" x="406" y="-173.9" font-family="Arial" font-size="14.00" fill="#000000">foursquare </text>
<text text-anchor="start" x="476.798" y="-173.9" font-family="Arial" font-size="14.00" fill="#666666">[varchar(255)]</text>
<polygon fill="none" stroke="#000000" points="399,-132.5 399,-162.5 652,-162.5 652,-132.5 399,-132.5"/>
<text text-anchor="start" x="406" y="-143.9" font-family="Arial" font-size="14.00" fill="#000000">instagram </text>
<text text-anchor="start" x="471.3394" y="-143.9" font-family="Arial" font-size="14.00" fill="#666666">[varchar(255)]</text>
<polygon fill="none" stroke="#000000" points="399,-102.5 399,-132.5 652,-132.5 652,-102.5 399,-102.5"/>
<text text-anchor="start" x="406" y="-113.9" font-family="Arial" font-size="14.00" fill="#000000">linkedin </text>
<text text-anchor="start" x="457.3408" y="-113.9" font-family="Arial" font-size="14.00" fill="#666666">[varchar(255)]</text>
<polygon fill="none" stroke="#000000" points="399,-72.5 399,-102.5 652,-102.5 652,-72.5 399,-72.5"/>
<text text-anchor="start" x="406" y="-83.9" font-family="Arial" font-size="14.00" fill="#000000">skype </text>
<text text-anchor="start" x="446.4558" y="-83.9" font-family="Arial" font-size="14.00" fill="#666666">[varchar(255)]</text>
<polygon fill="none" stroke="#000000" points="399,-42.5 399,-72.5 652,-72.5 652,-42.5 399,-42.5"/>
<text text-anchor="start" x="406" y="-53.9" font-family="Arial" font-size="14.00" fill="#000000">twitter </text>
<text text-anchor="start" x="447.2188" y="-53.9" font-family="Arial" font-size="14.00" fill="#666666">[varchar(255)]</text>
</g>
<!-- tweet_stats&#45;&gt;leads -->
<g id="edge2" class="edge">
<title>tweet_stats:lead_id&#45;&gt;leads:id</title>
<path fill="none" stroke="#000000" d="M461.4267,-1867.1725C607.3709,-1857.7197 523.69,-1645.7338 451,-1507 437.9544,-1482.1015 412.0456,-1495.8985 399,-1471 379.7138,-1434.1909 357.4444,-1377.5 399,-1377.5"/>
<polygon fill="#000000" stroke="#000000" points="460.9951,-1867.186 450.8587,-1863.0022 455.9975,-1867.343 451,-1867.5 451,-1867.5 451,-1867.5 455.9975,-1867.343 451.1413,-1871.9978 460.9951,-1867.186 460.9951,-1867.186"/>
<text text-anchor="start" x="458.496" y="-1877.5" font-family="Arial" font-size="10.00" fill="#000000">FOREIGN KEY (lead_id) REFERENCES leads (id)</text>
</g>
</g>
</svg>
