<?xml version="1.0" encoding="UTF-8" standalone="no"?>
<!DOCTYPE svg PUBLIC "-//W3C//DTD SVG 1.1//EN"
 "http://www.w3.org/Graphics/SVG/1.1/DTD/svg11.dtd">
<!-- Generated by graphviz version 2.40.1 (20161225.0304)
 -->
<!-- Title: user_tokens Pages: 1 -->
<svg width="516pt" height="1192pt"
 viewBox="0.00 0.00 515.50 1192.00" xmlns="http://www.w3.org/2000/svg" xmlns:xlink="http://www.w3.org/1999/xlink">
<g id="graph0" class="graph" transform="scale(1 1) rotate(0) translate(4 1188)">
<title>user_tokens</title>
<polygon fill="#ffffff" stroke="transparent" points="-4,4 -4,-1188 511.5,-1188 511.5,4 -4,4"/>
<!-- user_tokens -->
<g id="node1" class="node">
<title>user_tokens</title>
<polygon fill="#efefef" stroke="transparent" points="240,-1102.5 240,-1137.5 449,-1137.5 449,-1102.5 240,-1102.5"/>
<polygon fill="none" stroke="#000000" points="240,-1102.5 240,-1137.5 449,-1137.5 449,-1102.5 240,-1102.5"/>
<text text-anchor="start" x="246.8573" y="-1115.3" font-family="Arial Bold" font-size="18.00" fill="#000000">user_tokens</text>
<text text-anchor="start" x="344.8889" y="-1115.3" font-family="Arial" font-size="14.00" fill="#000000"> </text>
<text text-anchor="start" x="348.7795" y="-1115.3" font-family="Arial" font-size="14.00" fill="#666666">[BASE TABLE]</text>
<polygon fill="none" stroke="#000000" points="240,-1072.5 240,-1102.5 449,-1102.5 449,-1072.5 240,-1072.5"/>
<text text-anchor="start" x="247" y="-1083.9" font-family="Arial" font-size="14.00" fill="#000000">id </text>
<text text-anchor="start" x="261.7798" y="-1083.9" font-family="Arial" font-size="14.00" fill="#666666">[int(10) unsigned]</text>
<polygon fill="none" stroke="#000000" points="240,-1042.5 240,-1072.5 449,-1072.5 449,-1042.5 240,-1042.5"/>
<text text-anchor="start" x="247" y="-1053.9" font-family="Arial" font-size="14.00" fill="#000000">user_id </text>
<text text-anchor="start" x="296.7882" y="-1053.9" font-family="Arial" font-size="14.00" fill="#666666">[int(10) unsigned]</text>
<polygon fill="none" stroke="#000000" points="240,-1012.5 240,-1042.5 449,-1042.5 449,-1012.5 240,-1012.5"/>
<text text-anchor="start" x="247" y="-1023.9" font-family="Arial" font-size="14.00" fill="#000000">authorizator </text>
<text text-anchor="start" x="324.7952" y="-1023.9" font-family="Arial" font-size="14.00" fill="#666666">[varchar(32)]</text>
<polygon fill="none" stroke="#000000" points="240,-982.5 240,-1012.5 449,-1012.5 449,-982.5 240,-982.5"/>
<text text-anchor="start" x="247" y="-993.9" font-family="Arial" font-size="14.00" fill="#000000">secret </text>
<text text-anchor="start" x="289.007" y="-993.9" font-family="Arial" font-size="14.00" fill="#666666">[varchar(120)]</text>
<polygon fill="none" stroke="#000000" points="240,-952.5 240,-982.5 449,-982.5 449,-952.5 240,-952.5"/>
<text text-anchor="start" x="247" y="-963.9" font-family="Arial" font-size="14.00" fill="#000000">expiration </text>
<text text-anchor="start" x="311.568" y="-963.9" font-family="Arial" font-size="14.00" fill="#666666">[datetime]</text>
<polygon fill="none" stroke="#000000" points="240,-922.5 240,-952.5 449,-952.5 449,-922.5 240,-922.5"/>
<text text-anchor="start" x="247" y="-933.9" font-family="Arial" font-size="14.00" fill="#000000">one_time_only </text>
<text text-anchor="start" x="341.9158" y="-933.9" font-family="Arial" font-size="14.00" fill="#666666">[tinyint(1)]</text>
<polygon fill="none" stroke="#000000" stroke-width="3" points="238,-921.5 238,-1139.5 450,-1139.5 450,-921.5 238,-921.5"/>
</g>
<!-- users -->
<g id="node2" class="node">
<title>users</title>
<polygon fill="#efefef" stroke="transparent" points="224,-762.5 224,-797.5 465,-797.5 465,-762.5 224,-762.5"/>
<polygon fill="none" stroke="#000000" points="224,-762.5 224,-797.5 465,-797.5 465,-762.5 224,-762.5"/>
<text text-anchor="start" x="273.8708" y="-775.3" font-family="Arial Bold" font-size="18.00" fill="#000000">users</text>
<text text-anchor="start" x="317.8754" y="-775.3" font-family="Arial" font-size="14.00" fill="#000000"> </text>
<text text-anchor="start" x="321.766" y="-775.3" font-family="Arial" font-size="14.00" fill="#666666">[BASE TABLE]</text>
<polygon fill="none" stroke="#000000" points="224,-732.5 224,-762.5 465,-762.5 465,-732.5 224,-732.5"/>
<text text-anchor="start" x="231" y="-743.9" font-family="Arial" font-size="14.00" fill="#000000">id </text>
<text text-anchor="start" x="245.7798" y="-743.9" font-family="Arial" font-size="14.00" fill="#666666">[int(10) unsigned]</text>
<polygon fill="none" stroke="#000000" points="224,-702.5 224,-732.5 465,-732.5 465,-702.5 224,-702.5"/>
<text text-anchor="start" x="231" y="-713.9" font-family="Arial" font-size="14.00" fill="#000000">role_id </text>
<text text-anchor="start" x="276.8948" y="-713.9" font-family="Arial" font-size="14.00" fill="#666666">[int(10) unsigned]</text>
<polygon fill="none" stroke="#000000" points="224,-672.5 224,-702.5 465,-702.5 465,-672.5 224,-672.5"/>
<text text-anchor="start" x="231" y="-683.9" font-family="Arial" font-size="14.00" fill="#000000">is_published </text>
<text text-anchor="start" x="312.6886" y="-683.9" font-family="Arial" font-size="14.00" fill="#666666">[tinyint(1)]</text>
<polygon fill="none" stroke="#000000" points="224,-642.5 224,-672.5 465,-672.5 465,-642.5 224,-642.5"/>
<text text-anchor="start" x="231" y="-653.9" font-family="Arial" font-size="14.00" fill="#000000">date_added </text>
<text text-anchor="start" x="308.8246" y="-653.9" font-family="Arial" font-size="14.00" fill="#666666">[datetime]</text>
<polygon fill="none" stroke="#000000" points="224,-612.5 224,-642.5 465,-642.5 465,-612.5 224,-612.5"/>
<text text-anchor="start" x="231" y="-623.9" font-family="Arial" font-size="14.00" fill="#000000">created_by </text>
<text text-anchor="start" x="304.1374" y="-623.9" font-family="Arial" font-size="14.00" fill="#666666">[int(11)]</text>
<polygon fill="none" stroke="#000000" points="224,-582.5 224,-612.5 465,-612.5 465,-582.5 224,-582.5"/>
<text text-anchor="start" x="231" y="-593.9" font-family="Arial" font-size="14.00" fill="#000000">created_by_user </text>
<text text-anchor="start" x="339.1458" y="-593.9" font-family="Arial" font-size="14.00" fill="#666666">[varchar(191)]</text>
<polygon fill="none" stroke="#000000" points="224,-552.5 224,-582.5 465,-582.5 465,-552.5 224,-552.5"/>
<text text-anchor="start" x="231" y="-563.9" font-family="Arial" font-size="14.00" fill="#000000">date_modified </text>
<text text-anchor="start" x="322.8064" y="-563.9" font-family="Arial" font-size="14.00" fill="#666666">[datetime]</text>
<polygon fill="none" stroke="#000000" points="224,-522.5 224,-552.5 465,-552.5 465,-522.5 224,-522.5"/>
<text text-anchor="start" x="231" y="-533.9" font-family="Arial" font-size="14.00" fill="#000000">modified_by </text>
<text text-anchor="start" x="310.3506" y="-533.9" font-family="Arial" font-size="14.00" fill="#666666">[int(11)]</text>
<polygon fill="none" stroke="#000000" points="224,-492.5 224,-522.5 465,-522.5 465,-492.5 224,-492.5"/>
<text text-anchor="start" x="231" y="-503.9" font-family="Arial" font-size="14.00" fill="#000000">modified_by_user </text>
<text text-anchor="start" x="345.359" y="-503.9" font-family="Arial" font-size="14.00" fill="#666666">[varchar(191)]</text>
<polygon fill="none" stroke="#000000" points="224,-462.5 224,-492.5 465,-492.5 465,-462.5 224,-462.5"/>
<text text-anchor="start" x="231" y="-473.9" font-family="Arial" font-size="14.00" fill="#000000">checked_out </text>
<text text-anchor="start" x="314.2594" y="-473.9" font-family="Arial" font-size="14.00" fill="#666666">[datetime]</text>
<polygon fill="none" stroke="#000000" points="224,-432.5 224,-462.5 465,-462.5 465,-432.5 224,-432.5"/>
<text text-anchor="start" x="231" y="-443.9" font-family="Arial" font-size="14.00" fill="#000000">checked_out_by </text>
<text text-anchor="start" x="336.8246" y="-443.9" font-family="Arial" font-size="14.00" fill="#666666">[int(11)]</text>
<polygon fill="none" stroke="#000000" points="224,-402.5 224,-432.5 465,-432.5 465,-402.5 224,-402.5"/>
<text text-anchor="start" x="230.5239" y="-413.9" font-family="Arial" font-size="14.00" fill="#000000">checked_out_by_user </text>
<text text-anchor="start" x="371.3569" y="-413.9" font-family="Arial" font-size="14.00" fill="#666666">[varchar(191)]</text>
<polygon fill="none" stroke="#000000" points="224,-372.5 224,-402.5 465,-402.5 465,-372.5 224,-372.5"/>
<text text-anchor="start" x="231" y="-383.9" font-family="Arial" font-size="14.00" fill="#000000">username </text>
<text text-anchor="start" x="297.1248" y="-383.9" font-family="Arial" font-size="14.00" fill="#666666">[varchar(191)]</text>
<polygon fill="none" stroke="#000000" points="224,-342.5 224,-372.5 465,-372.5 465,-342.5 224,-342.5"/>
<text text-anchor="start" x="231" y="-353.9" font-family="Arial" font-size="14.00" fill="#000000">password </text>
<text text-anchor="start" x="294.7882" y="-353.9" font-family="Arial" font-size="14.00" fill="#666666">[varchar(64)]</text>
<polygon fill="none" stroke="#000000" points="224,-312.5 224,-342.5 465,-342.5 465,-312.5 224,-312.5"/>
<text text-anchor="start" x="231" y="-323.9" font-family="Arial" font-size="14.00" fill="#000000">first_name </text>
<text text-anchor="start" x="300.23" y="-323.9" font-family="Arial" font-size="14.00" fill="#666666">[varchar(191)]</text>
<polygon fill="none" stroke="#000000" points="224,-282.5 224,-312.5 465,-312.5 465,-282.5 224,-282.5"/>
<text text-anchor="start" x="231" y="-293.9" font-family="Arial" font-size="14.00" fill="#000000">last_name </text>
<text text-anchor="start" x="299.4614" y="-293.9" font-family="Arial" font-size="14.00" fill="#666666">[varchar(191)]</text>
<polygon fill="none" stroke="#000000" points="224,-252.5 224,-282.5 465,-282.5 465,-252.5 224,-252.5"/>
<text text-anchor="start" x="231" y="-263.9" font-family="Arial" font-size="14.00" fill="#000000">email </text>
<text text-anchor="start" x="268.3296" y="-263.9" font-family="Arial" font-size="14.00" fill="#666666">[varchar(191)]</text>
<polygon fill="none" stroke="#000000" points="224,-222.5 224,-252.5 465,-252.5 465,-222.5 224,-222.5"/>
<text text-anchor="start" x="231" y="-233.9" font-family="Arial" font-size="14.00" fill="#000000">position </text>
<text text-anchor="start" x="283.1248" y="-233.9" font-family="Arial" font-size="14.00" fill="#666666">[varchar(191)]</text>
<polygon fill="none" stroke="#000000" points="224,-192.5 224,-222.5 465,-222.5 465,-192.5 224,-192.5"/>
<text text-anchor="start" x="231" y="-203.9" font-family="Arial" font-size="14.00" fill="#000000">timezone </text>
<text text-anchor="start" x="291.6788" y="-203.9" font-family="Arial" font-size="14.00" fill="#666666">[varchar(191)]</text>
<polygon fill="none" stroke="#000000" points="224,-162.5 224,-192.5 465,-192.5 465,-162.5 224,-162.5"/>
<text text-anchor="start" x="231" y="-173.9" font-family="Arial" font-size="14.00" fill="#000000">locale </text>
<text text-anchor="start" x="271.4516" y="-173.9" font-family="Arial" font-size="14.00" fill="#666666">[varchar(191)]</text>
<polygon fill="none" stroke="#000000" points="224,-132.5 224,-162.5 465,-162.5 465,-132.5 224,-132.5"/>
<text text-anchor="start" x="231" y="-143.9" font-family="Arial" font-size="14.00" fill="#000000">last_login </text>
<text text-anchor="start" x="294.014" y="-143.9" font-family="Arial" font-size="14.00" fill="#666666">[datetime]</text>
<polygon fill="none" stroke="#000000" points="224,-102.5 224,-132.5 465,-132.5 465,-102.5 224,-102.5"/>
<text text-anchor="start" x="231" y="-113.9" font-family="Arial" font-size="14.00" fill="#000000">last_active </text>
<text text-anchor="start" x="301.0154" y="-113.9" font-family="Arial" font-size="14.00" fill="#666666">[datetime]</text>
<polygon fill="none" stroke="#000000" points="224,-72.5 224,-102.5 465,-102.5 465,-72.5 224,-72.5"/>
<text text-anchor="start" x="231" y="-83.9" font-family="Arial" font-size="14.00" fill="#000000">preferences </text>
<text text-anchor="start" x="308.798" y="-83.9" font-family="Arial" font-size="14.00" fill="#666666">[longtext]</text>
<polygon fill="none" stroke="#000000" points="224,-42.5 224,-72.5 465,-72.5 465,-42.5 224,-42.5"/>
<text text-anchor="start" x="231" y="-53.9" font-family="Arial" font-size="14.00" fill="#000000">signature </text>
<text text-anchor="start" x="292.4614" y="-53.9" font-family="Arial" font-size="14.00" fill="#666666">[longtext]</text>
</g>
<!-- user_tokens&#45;&gt;users -->
<g id="edge1" class="edge">
<title>user_tokens:user_id&#45;&gt;users:id</title>
<path fill="none" stroke="#000000" d="M229.9053,-1055.183C169.6136,-1026.815 158.5223,-747.5 224,-747.5"/>
<polygon fill="#000000" stroke="#000000" points="230.2534,-1055.2628 238.9933,-1061.8859 235.1267,-1056.3814 240,-1057.5 240,-1057.5 240,-1057.5 235.1267,-1056.3814 241.0067,-1053.1141 230.2534,-1055.2628 230.2534,-1055.2628"/>
<text text-anchor="start" x="6.945" y="-1067.5" font-family="Arial" font-size="10.00" fill="#000000">FOREIGN KEY (user_id) REFERENCES users (id)</text>
</g>
</g>
</svg>
