<?xml version="1.0" encoding="UTF-8" standalone="no"?>
<!DOCTYPE svg PUBLIC "-//W3C//DTD SVG 1.1//EN"
 "http://www.w3.org/Graphics/SVG/1.1/DTD/svg11.dtd">
<!-- Generated by graphviz version 2.40.1 (20161225.0304)
 -->
<!-- Title: video_hits Pages: 1 -->
<svg width="711pt" height="2332pt"
 viewBox="0.00 0.00 711.00 2332.00" xmlns="http://www.w3.org/2000/svg" xmlns:xlink="http://www.w3.org/1999/xlink">
<g id="graph0" class="graph" transform="scale(1 1) rotate(0) translate(4 2328)">
<title>video_hits</title>
<polygon fill="#ffffff" stroke="transparent" points="-4,4 -4,-2328 707,-2328 707,4 -4,4"/>
<!-- video_hits -->
<g id="node1" class="node">
<title>video_hits</title>
<polygon fill="#efefef" stroke="transparent" points="239,-2242.5 239,-2277.5 440,-2277.5 440,-2242.5 239,-2242.5"/>
<polygon fill="none" stroke="#000000" points="239,-2242.5 239,-2277.5 440,-2277.5 440,-2242.5 239,-2242.5"/>
<text text-anchor="start" x="250.3623" y="-2255.3" font-family="Arial Bold" font-size="18.00" fill="#000000">video_hits</text>
<text text-anchor="start" x="331.3839" y="-2255.3" font-family="Arial" font-size="14.00" fill="#000000"> </text>
<text text-anchor="start" x="335.2745" y="-2255.3" font-family="Arial" font-size="14.00" fill="#666666">[BASE TABLE]</text>
<polygon fill="none" stroke="#000000" points="239,-2212.5 239,-2242.5 440,-2242.5 440,-2212.5 239,-2212.5"/>
<text text-anchor="start" x="246" y="-2223.9" font-family="Arial" font-size="14.00" fill="#000000">id </text>
<text text-anchor="start" x="260.7798" y="-2223.9" font-family="Arial" font-size="14.00" fill="#666666">[int(10) unsigned]</text>
<polygon fill="none" stroke="#000000" points="239,-2182.5 239,-2212.5 440,-2212.5 440,-2182.5 239,-2182.5"/>
<text text-anchor="start" x="246" y="-2193.9" font-family="Arial" font-size="14.00" fill="#000000">lead_id </text>
<text text-anchor="start" x="295.0168" y="-2193.9" font-family="Arial" font-size="14.00" fill="#666666">[bigint(20) unsigned]</text>
<polygon fill="none" stroke="#000000" points="239,-2152.5 239,-2182.5 440,-2182.5 440,-2152.5 239,-2152.5"/>
<text text-anchor="start" x="246" y="-2163.9" font-family="Arial" font-size="14.00" fill="#000000">ip_id </text>
<text text-anchor="start" x="279.4516" y="-2163.9" font-family="Arial" font-size="14.00" fill="#666666">[int(10) unsigned]</text>
<polygon fill="none" stroke="#000000" points="239,-2122.5 239,-2152.5 440,-2152.5 440,-2122.5 239,-2122.5"/>
<text text-anchor="start" x="246" y="-2133.9" font-family="Arial" font-size="14.00" fill="#000000">date_hit </text>
<text text-anchor="start" x="299.6914" y="-2133.9" font-family="Arial" font-size="14.00" fill="#666666">[datetime]</text>
<polygon fill="none" stroke="#000000" points="239,-2092.5 239,-2122.5 440,-2122.5 440,-2092.5 239,-2092.5"/>
<text text-anchor="start" x="246" y="-2103.9" font-family="Arial" font-size="14.00" fill="#000000">date_left </text>
<text text-anchor="start" x="303.582" y="-2103.9" font-family="Arial" font-size="14.00" fill="#666666">[datetime]</text>
<polygon fill="none" stroke="#000000" points="239,-2062.5 239,-2092.5 440,-2092.5 440,-2062.5 239,-2062.5"/>
<text text-anchor="start" x="246" y="-2073.9" font-family="Arial" font-size="14.00" fill="#000000">country </text>
<text text-anchor="start" x="295.7896" y="-2073.9" font-family="Arial" font-size="14.00" fill="#666666">[varchar(191)]</text>
<polygon fill="none" stroke="#000000" points="239,-2032.5 239,-2062.5 440,-2062.5 440,-2032.5 239,-2032.5"/>
<text text-anchor="start" x="246" y="-2043.9" font-family="Arial" font-size="14.00" fill="#000000">region </text>
<text text-anchor="start" x="288.7882" y="-2043.9" font-family="Arial" font-size="14.00" fill="#666666">[varchar(191)]</text>
<polygon fill="none" stroke="#000000" points="239,-2002.5 239,-2032.5 440,-2032.5 440,-2002.5 239,-2002.5"/>
<text text-anchor="start" x="246" y="-2013.9" font-family="Arial" font-size="14.00" fill="#000000">city </text>
<text text-anchor="start" x="270.8878" y="-2013.9" font-family="Arial" font-size="14.00" fill="#666666">[varchar(191)]</text>
<polygon fill="none" stroke="#000000" points="239,-1972.5 239,-2002.5 440,-2002.5 440,-1972.5 239,-1972.5"/>
<text text-anchor="start" x="246" y="-1983.9" font-family="Arial" font-size="14.00" fill="#000000">isp </text>
<text text-anchor="start" x="267.7798" y="-1983.9" font-family="Arial" font-size="14.00" fill="#666666">[varchar(191)]</text>
<polygon fill="none" stroke="#000000" points="239,-1942.5 239,-1972.5 440,-1972.5 440,-1942.5 239,-1942.5"/>
<text text-anchor="start" x="246" y="-1953.9" font-family="Arial" font-size="14.00" fill="#000000">organization </text>
<text text-anchor="start" x="326.1332" y="-1953.9" font-family="Arial" font-size="14.00" fill="#666666">[varchar(191)]</text>
<polygon fill="none" stroke="#000000" points="239,-1912.5 239,-1942.5 440,-1942.5 440,-1912.5 239,-1912.5"/>
<text text-anchor="start" x="246" y="-1923.9" font-family="Arial" font-size="14.00" fill="#000000">code </text>
<text text-anchor="start" x="280.2384" y="-1923.9" font-family="Arial" font-size="14.00" fill="#666666">[int(11)]</text>
<polygon fill="none" stroke="#000000" points="239,-1882.5 239,-1912.5 440,-1912.5 440,-1882.5 239,-1882.5"/>
<text text-anchor="start" x="246" y="-1893.9" font-family="Arial" font-size="14.00" fill="#000000">referer </text>
<text text-anchor="start" x="291.1108" y="-1893.9" font-family="Arial" font-size="14.00" fill="#666666">[longtext]</text>
<polygon fill="none" stroke="#000000" points="239,-1852.5 239,-1882.5 440,-1882.5 440,-1852.5 239,-1852.5"/>
<text text-anchor="start" x="246" y="-1863.9" font-family="Arial" font-size="14.00" fill="#000000">url </text>
<text text-anchor="start" x="265.4404" y="-1863.9" font-family="Arial" font-size="14.00" fill="#666666">[longtext]</text>
<polygon fill="none" stroke="#000000" points="239,-1822.5 239,-1852.5 440,-1852.5 440,-1822.5 239,-1822.5"/>
<text text-anchor="start" x="246" y="-1833.9" font-family="Arial" font-size="14.00" fill="#000000">user_agent </text>
<text text-anchor="start" x="319.92" y="-1833.9" font-family="Arial" font-size="14.00" fill="#666666">[longtext]</text>
<polygon fill="none" stroke="#000000" points="239,-1792.5 239,-1822.5 440,-1822.5 440,-1792.5 239,-1792.5"/>
<text text-anchor="start" x="246" y="-1803.9" font-family="Arial" font-size="14.00" fill="#000000">remote_host </text>
<text text-anchor="start" x="327.6886" y="-1803.9" font-family="Arial" font-size="14.00" fill="#666666">[varchar(191)]</text>
<polygon fill="none" stroke="#000000" points="239,-1762.5 239,-1792.5 440,-1792.5 440,-1762.5 239,-1762.5"/>
<text text-anchor="start" x="246" y="-1773.9" font-family="Arial" font-size="14.00" fill="#000000">guid </text>
<text text-anchor="start" x="276.345" y="-1773.9" font-family="Arial" font-size="14.00" fill="#666666">[varchar(191)]</text>
<polygon fill="none" stroke="#000000" points="239,-1732.5 239,-1762.5 440,-1762.5 440,-1732.5 239,-1732.5"/>
<text text-anchor="start" x="245.7462" y="-1743.9" font-family="Arial" font-size="14.00" fill="#000000">page_language </text>
<text text-anchor="start" x="346.1346" y="-1743.9" font-family="Arial" font-size="14.00" fill="#666666">[varchar(191)]</text>
<polygon fill="none" stroke="#000000" points="239,-1702.5 239,-1732.5 440,-1732.5 440,-1702.5 239,-1702.5"/>
<text text-anchor="start" x="246" y="-1713.9" font-family="Arial" font-size="14.00" fill="#000000">browser_languages </text>
<text text-anchor="start" x="372.0336" y="-1713.9" font-family="Arial" font-size="14.00" fill="#666666">[longtext]</text>
<polygon fill="none" stroke="#000000" points="239,-1672.5 239,-1702.5 440,-1702.5 440,-1672.5 239,-1672.5"/>
<text text-anchor="start" x="246" y="-1683.9" font-family="Arial" font-size="14.00" fill="#000000">channel </text>
<text text-anchor="start" x="298.9102" y="-1683.9" font-family="Arial" font-size="14.00" fill="#666666">[varchar(191)]</text>
<polygon fill="none" stroke="#000000" points="239,-1642.5 239,-1672.5 440,-1672.5 440,-1642.5 239,-1642.5"/>
<text text-anchor="start" x="246" y="-1653.9" font-family="Arial" font-size="14.00" fill="#000000">channel_id </text>
<text text-anchor="start" x="317.582" y="-1653.9" font-family="Arial" font-size="14.00" fill="#666666">[int(11)]</text>
<polygon fill="none" stroke="#000000" points="239,-1612.5 239,-1642.5 440,-1642.5 440,-1612.5 239,-1612.5"/>
<text text-anchor="start" x="246" y="-1623.9" font-family="Arial" font-size="14.00" fill="#000000">time_watched </text>
<text text-anchor="start" x="336.2412" y="-1623.9" font-family="Arial" font-size="14.00" fill="#666666">[int(11)]</text>
<polygon fill="none" stroke="#000000" points="239,-1582.5 239,-1612.5 440,-1612.5 440,-1582.5 239,-1582.5"/>
<text text-anchor="start" x="246" y="-1593.9" font-family="Arial" font-size="14.00" fill="#000000">duration </text>
<text text-anchor="start" x="300.4614" y="-1593.9" font-family="Arial" font-size="14.00" fill="#666666">[int(11)]</text>
<polygon fill="none" stroke="#000000" points="239,-1552.5 239,-1582.5 440,-1582.5 440,-1552.5 239,-1552.5"/>
<text text-anchor="start" x="246" y="-1563.9" font-family="Arial" font-size="14.00" fill="#000000">query </text>
<text text-anchor="start" x="284.899" y="-1563.9" font-family="Arial" font-size="14.00" fill="#666666">[longtext]</text>
<polygon fill="none" stroke="#000000" stroke-width="3" points="237,-1551.5 237,-2279.5 441,-2279.5 441,-1551.5 237,-1551.5"/>
</g>
<!-- leads -->
<g id="node2" class="node">
<title>leads</title>
<polygon fill="#efefef" stroke="transparent" points="44,-1392.5 44,-1427.5 297,-1427.5 297,-1392.5 44,-1392.5"/>
<polygon fill="none" stroke="#000000" points="44,-1392.5 44,-1427.5 297,-1427.5 297,-1392.5 44,-1392.5"/>
<text text-anchor="start" x="100.3667" y="-1405.3" font-family="Arial Bold" font-size="18.00" fill="#000000">leads</text>
<text text-anchor="start" x="143.3795" y="-1405.3" font-family="Arial" font-size="14.00" fill="#000000"> </text>
<text text-anchor="start" x="147.2701" y="-1405.3" font-family="Arial" font-size="14.00" fill="#666666">[BASE TABLE]</text>
<polygon fill="none" stroke="#000000" points="44,-1362.5 44,-1392.5 297,-1392.5 297,-1362.5 44,-1362.5"/>
<text text-anchor="start" x="51" y="-1373.9" font-family="Arial" font-size="14.00" fill="#000000">id </text>
<text text-anchor="start" x="65.7798" y="-1373.9" font-family="Arial" font-size="14.00" fill="#666666">[bigint(20) unsigned]</text>
<polygon fill="none" stroke="#000000" points="44,-1332.5 44,-1362.5 297,-1362.5 297,-1332.5 44,-1332.5"/>
<text text-anchor="start" x="51" y="-1343.9" font-family="Arial" font-size="14.00" fill="#000000">owner_id </text>
<text text-anchor="start" x="111.6774" y="-1343.9" font-family="Arial" font-size="14.00" fill="#666666">[int(10) unsigned]</text>
<polygon fill="none" stroke="#000000" points="44,-1302.5 44,-1332.5 297,-1332.5 297,-1302.5 44,-1302.5"/>
<text text-anchor="start" x="51" y="-1313.9" font-family="Arial" font-size="14.00" fill="#000000">stage_id </text>
<text text-anchor="start" x="107.8008" y="-1313.9" font-family="Arial" font-size="14.00" fill="#666666">[int(10) unsigned]</text>
<polygon fill="none" stroke="#000000" points="44,-1272.5 44,-1302.5 297,-1302.5 297,-1272.5 44,-1272.5"/>
<text text-anchor="start" x="51" y="-1283.9" font-family="Arial" font-size="14.00" fill="#000000">is_published </text>
<text text-anchor="start" x="132.6886" y="-1283.9" font-family="Arial" font-size="14.00" fill="#666666">[tinyint(1)]</text>
<polygon fill="none" stroke="#000000" points="44,-1242.5 44,-1272.5 297,-1272.5 297,-1242.5 44,-1242.5"/>
<text text-anchor="start" x="51" y="-1253.9" font-family="Arial" font-size="14.00" fill="#000000">date_added </text>
<text text-anchor="start" x="128.8246" y="-1253.9" font-family="Arial" font-size="14.00" fill="#666666">[datetime]</text>
<polygon fill="none" stroke="#000000" points="44,-1212.5 44,-1242.5 297,-1242.5 297,-1212.5 44,-1212.5"/>
<text text-anchor="start" x="51" y="-1223.9" font-family="Arial" font-size="14.00" fill="#000000">created_by </text>
<text text-anchor="start" x="124.1374" y="-1223.9" font-family="Arial" font-size="14.00" fill="#666666">[int(11)]</text>
<polygon fill="none" stroke="#000000" points="44,-1182.5 44,-1212.5 297,-1212.5 297,-1182.5 44,-1182.5"/>
<text text-anchor="start" x="51" y="-1193.9" font-family="Arial" font-size="14.00" fill="#000000">created_by_user </text>
<text text-anchor="start" x="159.1458" y="-1193.9" font-family="Arial" font-size="14.00" fill="#666666">[varchar(191)]</text>
<polygon fill="none" stroke="#000000" points="44,-1152.5 44,-1182.5 297,-1182.5 297,-1152.5 44,-1152.5"/>
<text text-anchor="start" x="51" y="-1163.9" font-family="Arial" font-size="14.00" fill="#000000">date_modified </text>
<text text-anchor="start" x="142.8064" y="-1163.9" font-family="Arial" font-size="14.00" fill="#666666">[datetime]</text>
<polygon fill="none" stroke="#000000" points="44,-1122.5 44,-1152.5 297,-1152.5 297,-1122.5 44,-1122.5"/>
<text text-anchor="start" x="51" y="-1133.9" font-family="Arial" font-size="14.00" fill="#000000">modified_by </text>
<text text-anchor="start" x="130.3506" y="-1133.9" font-family="Arial" font-size="14.00" fill="#666666">[int(11)]</text>
<polygon fill="none" stroke="#000000" points="44,-1092.5 44,-1122.5 297,-1122.5 297,-1092.5 44,-1092.5"/>
<text text-anchor="start" x="51" y="-1103.9" font-family="Arial" font-size="14.00" fill="#000000">modified_by_user </text>
<text text-anchor="start" x="165.359" y="-1103.9" font-family="Arial" font-size="14.00" fill="#666666">[varchar(191)]</text>
<polygon fill="none" stroke="#000000" points="44,-1062.5 44,-1092.5 297,-1092.5 297,-1062.5 44,-1062.5"/>
<text text-anchor="start" x="51" y="-1073.9" font-family="Arial" font-size="14.00" fill="#000000">checked_out </text>
<text text-anchor="start" x="134.2594" y="-1073.9" font-family="Arial" font-size="14.00" fill="#666666">[datetime]</text>
<polygon fill="none" stroke="#000000" points="44,-1032.5 44,-1062.5 297,-1062.5 297,-1032.5 44,-1032.5"/>
<text text-anchor="start" x="51" y="-1043.9" font-family="Arial" font-size="14.00" fill="#000000">checked_out_by </text>
<text text-anchor="start" x="156.8246" y="-1043.9" font-family="Arial" font-size="14.00" fill="#666666">[int(11)]</text>
<polygon fill="none" stroke="#000000" points="44,-1002.5 44,-1032.5 297,-1032.5 297,-1002.5 44,-1002.5"/>
<text text-anchor="start" x="51" y="-1013.9" font-family="Arial" font-size="14.00" fill="#000000">checked_out_by_user </text>
<text text-anchor="start" x="191.833" y="-1013.9" font-family="Arial" font-size="14.00" fill="#666666">[varchar(191)]</text>
<polygon fill="none" stroke="#000000" points="44,-972.5 44,-1002.5 297,-1002.5 297,-972.5 44,-972.5"/>
<text text-anchor="start" x="51" y="-983.9" font-family="Arial" font-size="14.00" fill="#000000">points </text>
<text text-anchor="start" x="92.2356" y="-983.9" font-family="Arial" font-size="14.00" fill="#666666">[int(11)]</text>
<polygon fill="none" stroke="#000000" points="44,-942.5 44,-972.5 297,-972.5 297,-942.5 44,-942.5"/>
<text text-anchor="start" x="51" y="-953.9" font-family="Arial" font-size="14.00" fill="#000000">last_active </text>
<text text-anchor="start" x="121.0154" y="-953.9" font-family="Arial" font-size="14.00" fill="#666666">[datetime]</text>
<polygon fill="none" stroke="#000000" points="44,-912.5 44,-942.5 297,-942.5 297,-912.5 44,-912.5"/>
<text text-anchor="start" x="51" y="-923.9" font-family="Arial" font-size="14.00" fill="#000000">internal </text>
<text text-anchor="start" x="100.7854" y="-923.9" font-family="Arial" font-size="14.00" fill="#666666">[longtext]</text>
<polygon fill="none" stroke="#000000" points="44,-882.5 44,-912.5 297,-912.5 297,-882.5 44,-882.5"/>
<text text-anchor="start" x="51" y="-893.9" font-family="Arial" font-size="14.00" fill="#000000">social_cache </text>
<text text-anchor="start" x="135.7994" y="-893.9" font-family="Arial" font-size="14.00" fill="#666666">[longtext]</text>
<polygon fill="none" stroke="#000000" points="44,-852.5 44,-882.5 297,-882.5 297,-852.5 44,-852.5"/>
<text text-anchor="start" x="51" y="-863.9" font-family="Arial" font-size="14.00" fill="#000000">date_identified </text>
<text text-anchor="start" x="145.9256" y="-863.9" font-family="Arial" font-size="14.00" fill="#666666">[datetime]</text>
<polygon fill="none" stroke="#000000" points="44,-822.5 44,-852.5 297,-852.5 297,-822.5 44,-822.5"/>
<text text-anchor="start" x="50.7062" y="-833.9" font-family="Arial" font-size="14.00" fill="#000000">preferred_profile_image </text>
<text text-anchor="start" x="203.1746" y="-833.9" font-family="Arial" font-size="14.00" fill="#666666">[varchar(191)]</text>
<polygon fill="none" stroke="#000000" points="44,-792.5 44,-822.5 297,-822.5 297,-792.5 44,-792.5"/>
<text text-anchor="start" x="51" y="-803.9" font-family="Arial" font-size="14.00" fill="#000000">title </text>
<text text-anchor="start" x="76.6676" y="-803.9" font-family="Arial" font-size="14.00" fill="#666666">[varchar(191)]</text>
<polygon fill="none" stroke="#000000" points="44,-762.5 44,-792.5 297,-792.5 297,-762.5 44,-762.5"/>
<text text-anchor="start" x="51" y="-773.9" font-family="Arial" font-size="14.00" fill="#000000">firstname </text>
<text text-anchor="start" x="112.4474" y="-773.9" font-family="Arial" font-size="14.00" fill="#666666">[varchar(191)]</text>
<polygon fill="none" stroke="#000000" points="44,-732.5 44,-762.5 297,-762.5 297,-732.5 44,-732.5"/>
<text text-anchor="start" x="51" y="-743.9" font-family="Arial" font-size="14.00" fill="#000000">lastname </text>
<text text-anchor="start" x="111.6788" y="-743.9" font-family="Arial" font-size="14.00" fill="#666666">[varchar(191)]</text>
<polygon fill="none" stroke="#000000" points="44,-702.5 44,-732.5 297,-732.5 297,-702.5 44,-702.5"/>
<text text-anchor="start" x="51" y="-713.9" font-family="Arial" font-size="14.00" fill="#000000">company </text>
<text text-anchor="start" x="111.6816" y="-713.9" font-family="Arial" font-size="14.00" fill="#666666">[varchar(191)]</text>
<polygon fill="none" stroke="#000000" points="44,-672.5 44,-702.5 297,-702.5 297,-672.5 44,-672.5"/>
<text text-anchor="start" x="51" y="-683.9" font-family="Arial" font-size="14.00" fill="#000000">position </text>
<text text-anchor="start" x="103.1248" y="-683.9" font-family="Arial" font-size="14.00" fill="#666666">[varchar(191)]</text>
<polygon fill="none" stroke="#000000" points="44,-642.5 44,-672.5 297,-672.5 297,-642.5 44,-642.5"/>
<text text-anchor="start" x="51" y="-653.9" font-family="Arial" font-size="14.00" fill="#000000">email </text>
<text text-anchor="start" x="88.3296" y="-653.9" font-family="Arial" font-size="14.00" fill="#666666">[varchar(191)]</text>
<polygon fill="none" stroke="#000000" points="44,-612.5 44,-642.5 297,-642.5 297,-612.5 44,-612.5"/>
<text text-anchor="start" x="51" y="-623.9" font-family="Arial" font-size="14.00" fill="#000000">phone </text>
<text text-anchor="start" x="93.8036" y="-623.9" font-family="Arial" font-size="14.00" fill="#666666">[varchar(191)]</text>
<polygon fill="none" stroke="#000000" points="44,-582.5 44,-612.5 297,-612.5 297,-582.5 44,-582.5"/>
<text text-anchor="start" x="51" y="-593.9" font-family="Arial" font-size="14.00" fill="#000000">mobile </text>
<text text-anchor="start" x="96.1122" y="-593.9" font-family="Arial" font-size="14.00" fill="#666666">[varchar(191)]</text>
<polygon fill="none" stroke="#000000" points="44,-552.5 44,-582.5 297,-582.5 297,-552.5 44,-552.5"/>
<text text-anchor="start" x="51" y="-563.9" font-family="Arial" font-size="14.00" fill="#000000">address1 </text>
<text text-anchor="start" x="112.4642" y="-563.9" font-family="Arial" font-size="14.00" fill="#666666">[varchar(191)]</text>
<polygon fill="none" stroke="#000000" points="44,-522.5 44,-552.5 297,-552.5 297,-522.5 44,-522.5"/>
<text text-anchor="start" x="51" y="-533.9" font-family="Arial" font-size="14.00" fill="#000000">address2 </text>
<text text-anchor="start" x="112.4642" y="-533.9" font-family="Arial" font-size="14.00" fill="#666666">[varchar(191)]</text>
<polygon fill="none" stroke="#000000" points="44,-492.5 44,-522.5 297,-522.5 297,-492.5 44,-492.5"/>
<text text-anchor="start" x="51" y="-503.9" font-family="Arial" font-size="14.00" fill="#000000">city </text>
<text text-anchor="start" x="75.8878" y="-503.9" font-family="Arial" font-size="14.00" fill="#666666">[varchar(191)]</text>
<polygon fill="none" stroke="#000000" points="44,-462.5 44,-492.5 297,-492.5 297,-462.5 44,-462.5"/>
<text text-anchor="start" x="51" y="-473.9" font-family="Arial" font-size="14.00" fill="#000000">state </text>
<text text-anchor="start" x="85.237" y="-473.9" font-family="Arial" font-size="14.00" fill="#666666">[varchar(191)]</text>
<polygon fill="none" stroke="#000000" points="44,-432.5 44,-462.5 297,-462.5 297,-432.5 44,-432.5"/>
<text text-anchor="start" x="51" y="-443.9" font-family="Arial" font-size="14.00" fill="#000000">zipcode </text>
<text text-anchor="start" x="103.1276" y="-443.9" font-family="Arial" font-size="14.00" fill="#666666">[varchar(191)]</text>
<polygon fill="none" stroke="#000000" points="44,-402.5 44,-432.5 297,-432.5 297,-402.5 44,-402.5"/>
<text text-anchor="start" x="51" y="-413.9" font-family="Arial" font-size="14.00" fill="#000000">timezone </text>
<text text-anchor="start" x="111.6788" y="-413.9" font-family="Arial" font-size="14.00" fill="#666666">[varchar(191)]</text>
<polygon fill="none" stroke="#000000" points="44,-372.5 44,-402.5 297,-402.5 297,-372.5 44,-372.5"/>
<text text-anchor="start" x="51" y="-383.9" font-family="Arial" font-size="14.00" fill="#000000">country </text>
<text text-anchor="start" x="100.7896" y="-383.9" font-family="Arial" font-size="14.00" fill="#666666">[varchar(191)]</text>
<polygon fill="none" stroke="#000000" points="44,-342.5 44,-372.5 297,-372.5 297,-342.5 44,-342.5"/>
<text text-anchor="start" x="51" y="-353.9" font-family="Arial" font-size="14.00" fill="#000000">fax </text>
<text text-anchor="start" x="73.5638" y="-353.9" font-family="Arial" font-size="14.00" fill="#666666">[varchar(255)]</text>
<polygon fill="none" stroke="#000000" points="44,-312.5 44,-342.5 297,-342.5 297,-312.5 44,-312.5"/>
<text text-anchor="start" x="51" y="-323.9" font-family="Arial" font-size="14.00" fill="#000000">preferred_locale </text>
<text text-anchor="start" x="156.0196" y="-323.9" font-family="Arial" font-size="14.00" fill="#666666">[varchar(255)]</text>
<polygon fill="none" stroke="#000000" points="44,-282.5 44,-312.5 297,-312.5 297,-282.5 44,-282.5"/>
<text text-anchor="start" x="51" y="-293.9" font-family="Arial" font-size="14.00" fill="#000000">attribution_date </text>
<text text-anchor="start" x="151.3702" y="-293.9" font-family="Arial" font-size="14.00" fill="#666666">[datetime]</text>
<polygon fill="none" stroke="#000000" points="44,-252.5 44,-282.5 297,-282.5 297,-252.5 44,-252.5"/>
<text text-anchor="start" x="51" y="-263.9" font-family="Arial" font-size="14.00" fill="#000000">attribution </text>
<text text-anchor="start" x="116.3492" y="-263.9" font-family="Arial" font-size="14.00" fill="#666666">[double]</text>
<polygon fill="none" stroke="#000000" points="44,-222.5 44,-252.5 297,-252.5 297,-222.5 44,-222.5"/>
<text text-anchor="start" x="51" y="-233.9" font-family="Arial" font-size="14.00" fill="#000000">website </text>
<text text-anchor="start" x="102.3422" y="-233.9" font-family="Arial" font-size="14.00" fill="#666666">[longtext]</text>
<polygon fill="none" stroke="#000000" points="44,-192.5 44,-222.5 297,-222.5 297,-192.5 44,-192.5"/>
<text text-anchor="start" x="51" y="-203.9" font-family="Arial" font-size="14.00" fill="#000000">facebook </text>
<text text-anchor="start" x="111.6942" y="-203.9" font-family="Arial" font-size="14.00" fill="#666666">[varchar(255)]</text>
<polygon fill="none" stroke="#000000" points="44,-162.5 44,-192.5 297,-192.5 297,-162.5 44,-162.5"/>
<text text-anchor="start" x="51" y="-173.9" font-family="Arial" font-size="14.00" fill="#000000">foursquare </text>
<text text-anchor="start" x="121.798" y="-173.9" font-family="Arial" font-size="14.00" fill="#666666">[varchar(255)]</text>
<polygon fill="none" stroke="#000000" points="44,-132.5 44,-162.5 297,-162.5 297,-132.5 44,-132.5"/>
<text text-anchor="start" x="51" y="-143.9" font-family="Arial" font-size="14.00" fill="#000000">instagram </text>
<text text-anchor="start" x="116.3394" y="-143.9" font-family="Arial" font-size="14.00" fill="#666666">[varchar(255)]</text>
<polygon fill="none" stroke="#000000" points="44,-102.5 44,-132.5 297,-132.5 297,-102.5 44,-102.5"/>
<text text-anchor="start" x="51" y="-113.9" font-family="Arial" font-size="14.00" fill="#000000">linkedin </text>
<text text-anchor="start" x="102.3408" y="-113.9" font-family="Arial" font-size="14.00" fill="#666666">[varchar(255)]</text>
<polygon fill="none" stroke="#000000" points="44,-72.5 44,-102.5 297,-102.5 297,-72.5 44,-72.5"/>
<text text-anchor="start" x="51" y="-83.9" font-family="Arial" font-size="14.00" fill="#000000">skype </text>
<text text-anchor="start" x="91.4558" y="-83.9" font-family="Arial" font-size="14.00" fill="#666666">[varchar(255)]</text>
<polygon fill="none" stroke="#000000" points="44,-42.5 44,-72.5 297,-72.5 297,-42.5 44,-42.5"/>
<text text-anchor="start" x="51" y="-53.9" font-family="Arial" font-size="14.00" fill="#000000">twitter </text>
<text text-anchor="start" x="92.2188" y="-53.9" font-family="Arial" font-size="14.00" fill="#666666">[varchar(255)]</text>
</g>
<!-- video_hits&#45;&gt;leads -->
<g id="edge1" class="edge">
<title>video_hits:lead_id&#45;&gt;leads:id</title>
<path fill="none" stroke="#000000" d="M228.8356,-2197.341C-64.3478,-2188.0339 91.4887,-1772.1749 239,-1507 253.7489,-1480.4865 282.2511,-1497.5135 297,-1471 317.2012,-1434.6851 338.5556,-1377.5 297,-1377.5"/>
<polygon fill="#000000" stroke="#000000" points="229.0012,-2197.3435 238.9296,-2201.9994 234.0006,-2197.4218 239,-2197.5 239,-2197.5 239,-2197.5 234.0006,-2197.4218 239.0704,-2193.0006 229.0012,-2197.3435 229.0012,-2197.3435"/>
<text text-anchor="start" x="7.496" y="-2207.5" font-family="Arial" font-size="10.00" fill="#000000">FOREIGN KEY (lead_id) REFERENCES leads (id)</text>
</g>
<!-- ip_addresses -->
<g id="node3" class="node">
<title>ip_addresses</title>
<polygon fill="#efefef" stroke="transparent" points="401,-762.5 401,-797.5 619,-797.5 619,-762.5 401,-762.5"/>
<polygon fill="none" stroke="#000000" points="401,-762.5 401,-797.5 619,-797.5 619,-762.5 401,-762.5"/>
<text text-anchor="start" x="407.8582" y="-775.3" font-family="Arial Bold" font-size="18.00" fill="#000000">ip_addresses</text>
<text text-anchor="start" x="514.888" y="-775.3" font-family="Arial" font-size="14.00" fill="#000000"> </text>
<text text-anchor="start" x="518.7786" y="-775.3" font-family="Arial" font-size="14.00" fill="#666666">[BASE TABLE]</text>
<polygon fill="none" stroke="#000000" points="401,-732.5 401,-762.5 619,-762.5 619,-732.5 401,-732.5"/>
<text text-anchor="start" x="408" y="-743.9" font-family="Arial" font-size="14.00" fill="#000000">id </text>
<text text-anchor="start" x="422.7798" y="-743.9" font-family="Arial" font-size="14.00" fill="#666666">[int(10) unsigned]</text>
<polygon fill="none" stroke="#000000" points="401,-702.5 401,-732.5 619,-732.5 619,-702.5 401,-702.5"/>
<text text-anchor="start" x="408" y="-713.9" font-family="Arial" font-size="14.00" fill="#000000">ip_address </text>
<text text-anchor="start" x="480.3534" y="-713.9" font-family="Arial" font-size="14.00" fill="#666666">[varchar(45)]</text>
<polygon fill="none" stroke="#000000" points="401,-672.5 401,-702.5 619,-702.5 619,-672.5 401,-672.5"/>
<text text-anchor="start" x="408" y="-683.9" font-family="Arial" font-size="14.00" fill="#000000">ip_details </text>
<text text-anchor="start" x="471.014" y="-683.9" font-family="Arial" font-size="14.00" fill="#666666">[longtext]</text>
</g>
<!-- video_hits&#45;&gt;ip_addresses -->
<g id="edge2" class="edge">
<title>video_hits:ip_id&#45;&gt;ip_addresses:id</title>
<path fill="none" stroke="#000000" d="M447.744,-2160.7195C499.8661,-2059.0739 401.223,-848.6219 401,-841 399.7848,-799.4622 359.4444,-747.5 401,-747.5"/>
<polygon fill="#000000" stroke="#000000" points="447.5236,-2160.9124 437.0356,-2164.1144 443.7618,-2164.2062 440,-2167.5 440,-2167.5 440,-2167.5 443.7618,-2164.2062 442.9644,-2170.8856 447.5236,-2160.9124 447.5236,-2160.9124"/>
<text text-anchor="start" x="447.2725" y="-2177.5" font-family="Arial" font-size="10.00" fill="#000000">FOREIGN KEY (ip_id) REFERENCES ip_addresses (id)</text>
</g>
</g>
</svg>
