<?xml version="1.0" encoding="UTF-8" standalone="no"?>
<!DOCTYPE svg PUBLIC "-//W3C//DTD SVG 1.1//EN"
 "http://www.w3.org/Graphics/SVG/1.1/DTD/svg11.dtd">
<!-- Generated by graphviz version 2.40.1 (20161225.0304)
 -->
<!-- Title: webhooks Pages: 1 -->
<svg width="1018pt" height="1619pt"
 viewBox="0.00 0.00 1017.50 1619.00" xmlns="http://www.w3.org/2000/svg" xmlns:xlink="http://www.w3.org/1999/xlink">
<g id="graph0" class="graph" transform="scale(1 1) rotate(0) translate(4 1615)">
<title>webhooks</title>
<polygon fill="#ffffff" stroke="transparent" points="-4,4 -4,-1615 1013.5,-1615 1013.5,4 -4,4"/>
<!-- webhooks -->
<g id="node1" class="node">
<title>webhooks</title>
<polygon fill="#efefef" stroke="transparent" points="385,-1192.5 385,-1227.5 626,-1227.5 626,-1192.5 385,-1192.5"/>
<polygon fill="none" stroke="#000000" points="385,-1192.5 385,-1227.5 626,-1227.5 626,-1192.5 385,-1192.5"/>
<text text-anchor="start" x="416.3605" y="-1205.3" font-family="Arial Bold" font-size="18.00" fill="#000000">webhooks</text>
<text text-anchor="start" x="497.3857" y="-1205.3" font-family="Arial" font-size="14.00" fill="#000000"> </text>
<text text-anchor="start" x="501.2763" y="-1205.3" font-family="Arial" font-size="14.00" fill="#666666">[BASE TABLE]</text>
<polygon fill="none" stroke="#000000" points="385,-1162.5 385,-1192.5 626,-1192.5 626,-1162.5 385,-1162.5"/>
<text text-anchor="start" x="392" y="-1173.9" font-family="Arial" font-size="14.00" fill="#000000">id </text>
<text text-anchor="start" x="406.7798" y="-1173.9" font-family="Arial" font-size="14.00" fill="#666666">[int(10) unsigned]</text>
<polygon fill="none" stroke="#000000" points="385,-1132.5 385,-1162.5 626,-1162.5 626,-1132.5 385,-1132.5"/>
<text text-anchor="start" x="392" y="-1143.9" font-family="Arial" font-size="14.00" fill="#000000">category_id </text>
<text text-anchor="start" x="468.244" y="-1143.9" font-family="Arial" font-size="14.00" fill="#666666">[int(10) unsigned]</text>
<polygon fill="none" stroke="#000000" points="385,-1102.5 385,-1132.5 626,-1132.5 626,-1102.5 385,-1102.5"/>
<text text-anchor="start" x="392" y="-1113.9" font-family="Arial" font-size="14.00" fill="#000000">is_published </text>
<text text-anchor="start" x="473.6886" y="-1113.9" font-family="Arial" font-size="14.00" fill="#666666">[tinyint(1)]</text>
<polygon fill="none" stroke="#000000" points="385,-1072.5 385,-1102.5 626,-1102.5 626,-1072.5 385,-1072.5"/>
<text text-anchor="start" x="392" y="-1083.9" font-family="Arial" font-size="14.00" fill="#000000">date_added </text>
<text text-anchor="start" x="469.8246" y="-1083.9" font-family="Arial" font-size="14.00" fill="#666666">[datetime]</text>
<polygon fill="none" stroke="#000000" points="385,-1042.5 385,-1072.5 626,-1072.5 626,-1042.5 385,-1042.5"/>
<text text-anchor="start" x="392" y="-1053.9" font-family="Arial" font-size="14.00" fill="#000000">created_by </text>
<text text-anchor="start" x="465.1374" y="-1053.9" font-family="Arial" font-size="14.00" fill="#666666">[int(11)]</text>
<polygon fill="none" stroke="#000000" points="385,-1012.5 385,-1042.5 626,-1042.5 626,-1012.5 385,-1012.5"/>
<text text-anchor="start" x="392" y="-1023.9" font-family="Arial" font-size="14.00" fill="#000000">created_by_user </text>
<text text-anchor="start" x="500.1458" y="-1023.9" font-family="Arial" font-size="14.00" fill="#666666">[varchar(191)]</text>
<polygon fill="none" stroke="#000000" points="385,-982.5 385,-1012.5 626,-1012.5 626,-982.5 385,-982.5"/>
<text text-anchor="start" x="392" y="-993.9" font-family="Arial" font-size="14.00" fill="#000000">date_modified </text>
<text text-anchor="start" x="483.8064" y="-993.9" font-family="Arial" font-size="14.00" fill="#666666">[datetime]</text>
<polygon fill="none" stroke="#000000" points="385,-952.5 385,-982.5 626,-982.5 626,-952.5 385,-952.5"/>
<text text-anchor="start" x="392" y="-963.9" font-family="Arial" font-size="14.00" fill="#000000">modified_by </text>
<text text-anchor="start" x="471.3506" y="-963.9" font-family="Arial" font-size="14.00" fill="#666666">[int(11)]</text>
<polygon fill="none" stroke="#000000" points="385,-922.5 385,-952.5 626,-952.5 626,-922.5 385,-922.5"/>
<text text-anchor="start" x="392" y="-933.9" font-family="Arial" font-size="14.00" fill="#000000">modified_by_user </text>
<text text-anchor="start" x="506.359" y="-933.9" font-family="Arial" font-size="14.00" fill="#666666">[varchar(191)]</text>
<polygon fill="none" stroke="#000000" points="385,-892.5 385,-922.5 626,-922.5 626,-892.5 385,-892.5"/>
<text text-anchor="start" x="392" y="-903.9" font-family="Arial" font-size="14.00" fill="#000000">checked_out </text>
<text text-anchor="start" x="475.2594" y="-903.9" font-family="Arial" font-size="14.00" fill="#666666">[datetime]</text>
<polygon fill="none" stroke="#000000" points="385,-862.5 385,-892.5 626,-892.5 626,-862.5 385,-862.5"/>
<text text-anchor="start" x="392" y="-873.9" font-family="Arial" font-size="14.00" fill="#000000">checked_out_by </text>
<text text-anchor="start" x="497.8246" y="-873.9" font-family="Arial" font-size="14.00" fill="#666666">[int(11)]</text>
<polygon fill="none" stroke="#000000" points="385,-832.5 385,-862.5 626,-862.5 626,-832.5 385,-832.5"/>
<text text-anchor="start" x="391.5239" y="-843.9" font-family="Arial" font-size="14.00" fill="#000000">checked_out_by_user </text>
<text text-anchor="start" x="532.3569" y="-843.9" font-family="Arial" font-size="14.00" fill="#666666">[varchar(191)]</text>
<polygon fill="none" stroke="#000000" points="385,-802.5 385,-832.5 626,-832.5 626,-802.5 385,-802.5"/>
<text text-anchor="start" x="392" y="-813.9" font-family="Arial" font-size="14.00" fill="#000000">name </text>
<text text-anchor="start" x="430.899" y="-813.9" font-family="Arial" font-size="14.00" fill="#666666">[varchar(191)]</text>
<polygon fill="none" stroke="#000000" points="385,-772.5 385,-802.5 626,-802.5 626,-772.5 385,-772.5"/>
<text text-anchor="start" x="392" y="-783.9" font-family="Arial" font-size="14.00" fill="#000000">description </text>
<text text-anchor="start" x="463.568" y="-783.9" font-family="Arial" font-size="14.00" fill="#666666">[longtext]</text>
<polygon fill="none" stroke="#000000" points="385,-742.5 385,-772.5 626,-772.5 626,-742.5 385,-742.5"/>
<text text-anchor="start" x="392" y="-753.9" font-family="Arial" font-size="14.00" fill="#000000">webhook_url </text>
<text text-anchor="start" x="475.2426" y="-753.9" font-family="Arial" font-size="14.00" fill="#666666">[varchar(191)]</text>
<polygon fill="none" stroke="#000000" points="385,-712.5 385,-742.5 626,-742.5 626,-712.5 385,-712.5"/>
<text text-anchor="start" x="392" y="-723.9" font-family="Arial" font-size="14.00" fill="#000000">secret </text>
<text text-anchor="start" x="434.007" y="-723.9" font-family="Arial" font-size="14.00" fill="#666666">[varchar(191)]</text>
<polygon fill="none" stroke="#000000" points="385,-682.5 385,-712.5 626,-712.5 626,-682.5 385,-682.5"/>
<text text-anchor="start" x="392" y="-693.9" font-family="Arial" font-size="14.00" fill="#000000">events_orderby_dir </text>
<text text-anchor="start" x="515.6956" y="-693.9" font-family="Arial" font-size="14.00" fill="#666666">[varchar(191)]</text>
<polygon fill="none" stroke="#000000" stroke-width="3" points="383,-681.5 383,-1229.5 627,-1229.5 627,-681.5 383,-681.5"/>
</g>
<!-- categories -->
<g id="node5" class="node">
<title>categories</title>
<polygon fill="#efefef" stroke="transparent" points="385,-522.5 385,-557.5 626,-557.5 626,-522.5 385,-522.5"/>
<polygon fill="none" stroke="#000000" points="385,-522.5 385,-557.5 626,-557.5 626,-522.5 385,-522.5"/>
<text text-anchor="start" x="415.3633" y="-535.3" font-family="Arial Bold" font-size="18.00" fill="#000000">categories</text>
<text text-anchor="start" x="498.3829" y="-535.3" font-family="Arial" font-size="14.00" fill="#000000"> </text>
<text text-anchor="start" x="502.2735" y="-535.3" font-family="Arial" font-size="14.00" fill="#666666">[BASE TABLE]</text>
<polygon fill="none" stroke="#000000" points="385,-492.5 385,-522.5 626,-522.5 626,-492.5 385,-492.5"/>
<text text-anchor="start" x="392" y="-503.9" font-family="Arial" font-size="14.00" fill="#000000">id </text>
<text text-anchor="start" x="406.7798" y="-503.9" font-family="Arial" font-size="14.00" fill="#666666">[int(10) unsigned]</text>
<polygon fill="none" stroke="#000000" points="385,-462.5 385,-492.5 626,-492.5 626,-462.5 385,-462.5"/>
<text text-anchor="start" x="392" y="-473.9" font-family="Arial" font-size="14.00" fill="#000000">is_published </text>
<text text-anchor="start" x="473.6886" y="-473.9" font-family="Arial" font-size="14.00" fill="#666666">[tinyint(1)]</text>
<polygon fill="none" stroke="#000000" points="385,-432.5 385,-462.5 626,-462.5 626,-432.5 385,-432.5"/>
<text text-anchor="start" x="392" y="-443.9" font-family="Arial" font-size="14.00" fill="#000000">date_added </text>
<text text-anchor="start" x="469.8246" y="-443.9" font-family="Arial" font-size="14.00" fill="#666666">[datetime]</text>
<polygon fill="none" stroke="#000000" points="385,-402.5 385,-432.5 626,-432.5 626,-402.5 385,-402.5"/>
<text text-anchor="start" x="392" y="-413.9" font-family="Arial" font-size="14.00" fill="#000000">created_by </text>
<text text-anchor="start" x="465.1374" y="-413.9" font-family="Arial" font-size="14.00" fill="#666666">[int(11)]</text>
<polygon fill="none" stroke="#000000" points="385,-372.5 385,-402.5 626,-402.5 626,-372.5 385,-372.5"/>
<text text-anchor="start" x="392" y="-383.9" font-family="Arial" font-size="14.00" fill="#000000">created_by_user </text>
<text text-anchor="start" x="500.1458" y="-383.9" font-family="Arial" font-size="14.00" fill="#666666">[varchar(191)]</text>
<polygon fill="none" stroke="#000000" points="385,-342.5 385,-372.5 626,-372.5 626,-342.5 385,-342.5"/>
<text text-anchor="start" x="392" y="-353.9" font-family="Arial" font-size="14.00" fill="#000000">date_modified </text>
<text text-anchor="start" x="483.8064" y="-353.9" font-family="Arial" font-size="14.00" fill="#666666">[datetime]</text>
<polygon fill="none" stroke="#000000" points="385,-312.5 385,-342.5 626,-342.5 626,-312.5 385,-312.5"/>
<text text-anchor="start" x="392" y="-323.9" font-family="Arial" font-size="14.00" fill="#000000">modified_by </text>
<text text-anchor="start" x="471.3506" y="-323.9" font-family="Arial" font-size="14.00" fill="#666666">[int(11)]</text>
<polygon fill="none" stroke="#000000" points="385,-282.5 385,-312.5 626,-312.5 626,-282.5 385,-282.5"/>
<text text-anchor="start" x="392" y="-293.9" font-family="Arial" font-size="14.00" fill="#000000">modified_by_user </text>
<text text-anchor="start" x="506.359" y="-293.9" font-family="Arial" font-size="14.00" fill="#666666">[varchar(191)]</text>
<polygon fill="none" stroke="#000000" points="385,-252.5 385,-282.5 626,-282.5 626,-252.5 385,-252.5"/>
<text text-anchor="start" x="392" y="-263.9" font-family="Arial" font-size="14.00" fill="#000000">checked_out </text>
<text text-anchor="start" x="475.2594" y="-263.9" font-family="Arial" font-size="14.00" fill="#666666">[datetime]</text>
<polygon fill="none" stroke="#000000" points="385,-222.5 385,-252.5 626,-252.5 626,-222.5 385,-222.5"/>
<text text-anchor="start" x="392" y="-233.9" font-family="Arial" font-size="14.00" fill="#000000">checked_out_by </text>
<text text-anchor="start" x="497.8246" y="-233.9" font-family="Arial" font-size="14.00" fill="#666666">[int(11)]</text>
<polygon fill="none" stroke="#000000" points="385,-192.5 385,-222.5 626,-222.5 626,-192.5 385,-192.5"/>
<text text-anchor="start" x="391.5239" y="-203.9" font-family="Arial" font-size="14.00" fill="#000000">checked_out_by_user </text>
<text text-anchor="start" x="532.3569" y="-203.9" font-family="Arial" font-size="14.00" fill="#666666">[varchar(191)]</text>
<polygon fill="none" stroke="#000000" points="385,-162.5 385,-192.5 626,-192.5 626,-162.5 385,-162.5"/>
<text text-anchor="start" x="392" y="-173.9" font-family="Arial" font-size="14.00" fill="#000000">title </text>
<text text-anchor="start" x="417.6676" y="-173.9" font-family="Arial" font-size="14.00" fill="#666666">[varchar(191)]</text>
<polygon fill="none" stroke="#000000" points="385,-132.5 385,-162.5 626,-162.5 626,-132.5 385,-132.5"/>
<text text-anchor="start" x="392" y="-143.9" font-family="Arial" font-size="14.00" fill="#000000">description </text>
<text text-anchor="start" x="463.568" y="-143.9" font-family="Arial" font-size="14.00" fill="#666666">[longtext]</text>
<polygon fill="none" stroke="#000000" points="385,-102.5 385,-132.5 626,-132.5 626,-102.5 385,-102.5"/>
<text text-anchor="start" x="392" y="-113.9" font-family="Arial" font-size="14.00" fill="#000000">alias </text>
<text text-anchor="start" x="424.669" y="-113.9" font-family="Arial" font-size="14.00" fill="#666666">[varchar(191)]</text>
<polygon fill="none" stroke="#000000" points="385,-72.5 385,-102.5 626,-102.5 626,-72.5 385,-72.5"/>
<text text-anchor="start" x="392" y="-83.9" font-family="Arial" font-size="14.00" fill="#000000">color </text>
<text text-anchor="start" x="426.223" y="-83.9" font-family="Arial" font-size="14.00" fill="#666666">[varchar(7)]</text>
<polygon fill="none" stroke="#000000" points="385,-42.5 385,-72.5 626,-72.5 626,-42.5 385,-42.5"/>
<text text-anchor="start" x="392" y="-53.9" font-family="Arial" font-size="14.00" fill="#000000">bundle </text>
<text text-anchor="start" x="437.9102" y="-53.9" font-family="Arial" font-size="14.00" fill="#666666">[varchar(50)]</text>
</g>
<!-- webhooks&#45;&gt;categories -->
<g id="edge4" class="edge">
<title>webhooks:category_id&#45;&gt;categories:id</title>
<path fill="none" stroke="#000000" d="M374.7105,-1147.2162C100.5979,-1131.9704 104.0278,-507.5 385,-507.5"/>
<polygon fill="#000000" stroke="#000000" points="375.0038,-1147.2242 384.8759,-1151.9983 380.0019,-1147.3621 385,-1147.5 385,-1147.5 385,-1147.5 380.0019,-1147.3621 385.1241,-1143.0017 375.0038,-1147.2242 375.0038,-1147.2242"/>
<text text-anchor="start" x="111.659" y="-1157.5" font-family="Arial" font-size="10.00" fill="#000000">FOREIGN KEY (category_id) REFERENCES categories (id)</text>
</g>
<!-- webhook_events -->
<g id="node2" class="node">
<title>webhook_events</title>
<polygon fill="#efefef" stroke="transparent" points="43,-1487.5 43,-1522.5 289,-1522.5 289,-1487.5 43,-1487.5"/>
<polygon fill="none" stroke="#000000" points="43,-1487.5 43,-1522.5 289,-1522.5 289,-1487.5 43,-1487.5"/>
<text text-anchor="start" x="49.847" y="-1500.3" font-family="Arial Bold" font-size="18.00" fill="#000000">webhook_events</text>
<text text-anchor="start" x="184.8992" y="-1500.3" font-family="Arial" font-size="14.00" fill="#000000"> </text>
<text text-anchor="start" x="188.7898" y="-1500.3" font-family="Arial" font-size="14.00" fill="#666666">[BASE TABLE]</text>
<polygon fill="none" stroke="#000000" points="43,-1457.5 43,-1487.5 289,-1487.5 289,-1457.5 43,-1457.5"/>
<text text-anchor="start" x="50" y="-1468.9" font-family="Arial" font-size="14.00" fill="#000000">id </text>
<text text-anchor="start" x="64.7798" y="-1468.9" font-family="Arial" font-size="14.00" fill="#666666">[int(10) unsigned]</text>
<polygon fill="none" stroke="#000000" points="43,-1427.5 43,-1457.5 289,-1457.5 289,-1427.5 43,-1427.5"/>
<text text-anchor="start" x="50" y="-1438.9" font-family="Arial" font-size="14.00" fill="#000000">webhook_id </text>
<text text-anchor="start" x="128.582" y="-1438.9" font-family="Arial" font-size="14.00" fill="#666666">[int(10) unsigned]</text>
<polygon fill="none" stroke="#000000" points="43,-1397.5 43,-1427.5 289,-1427.5 289,-1397.5 43,-1397.5"/>
<text text-anchor="start" x="50" y="-1408.9" font-family="Arial" font-size="14.00" fill="#000000">event_type </text>
<text text-anchor="start" x="122.3674" y="-1408.9" font-family="Arial" font-size="14.00" fill="#666666">[varchar(50)]</text>
</g>
<!-- webhook_events&#45;&gt;webhooks -->
<g id="edge1" class="edge">
<title>webhook_events:webhook_id&#45;&gt;webhooks:id</title>
<path fill="none" stroke="#000000" d="M298.7918,-1440.0458C348.6133,-1413.3306 325.9137,-1177.5 385,-1177.5"/>
<polygon fill="#000000" stroke="#000000" points="298.7,-1440.0688 287.9059,-1438.135 293.85,-1441.2844 289,-1442.5 289,-1442.5 289,-1442.5 293.85,-1441.2844 290.0941,-1446.865 298.7,-1440.0688 298.7,-1440.0688"/>
<text text-anchor="start" x="296.378" y="-1452.5" font-family="Arial" font-size="10.00" fill="#000000">FOREIGN KEY (webhook_id) REFERENCES webhooks (id)</text>
</g>
<!-- webhook_logs -->
<g id="node3" class="node">
<title>webhook_logs</title>
<polygon fill="#efefef" stroke="transparent" points="393,-1532.5 393,-1567.5 619,-1567.5 619,-1532.5 393,-1532.5"/>
<polygon fill="none" stroke="#000000" points="393,-1532.5 393,-1567.5 619,-1567.5 619,-1532.5 393,-1532.5"/>
<text text-anchor="start" x="399.8541" y="-1545.3" font-family="Arial Bold" font-size="18.00" fill="#000000">webhook_logs</text>
<text text-anchor="start" x="514.8921" y="-1545.3" font-family="Arial" font-size="14.00" fill="#000000"> </text>
<text text-anchor="start" x="518.7827" y="-1545.3" font-family="Arial" font-size="14.00" fill="#666666">[BASE TABLE]</text>
<polygon fill="none" stroke="#000000" points="393,-1502.5 393,-1532.5 619,-1532.5 619,-1502.5 393,-1502.5"/>
<text text-anchor="start" x="400" y="-1513.9" font-family="Arial" font-size="14.00" fill="#000000">id </text>
<text text-anchor="start" x="414.7798" y="-1513.9" font-family="Arial" font-size="14.00" fill="#666666">[int(10) unsigned]</text>
<polygon fill="none" stroke="#000000" points="393,-1472.5 393,-1502.5 619,-1502.5 619,-1472.5 393,-1472.5"/>
<text text-anchor="start" x="400" y="-1483.9" font-family="Arial" font-size="14.00" fill="#000000">webhook_id </text>
<text text-anchor="start" x="478.582" y="-1483.9" font-family="Arial" font-size="14.00" fill="#666666">[int(10) unsigned]</text>
<polygon fill="none" stroke="#000000" points="393,-1442.5 393,-1472.5 619,-1472.5 619,-1442.5 393,-1442.5"/>
<text text-anchor="start" x="400" y="-1453.9" font-family="Arial" font-size="14.00" fill="#000000">status_code </text>
<text text-anchor="start" x="479.3674" y="-1453.9" font-family="Arial" font-size="14.00" fill="#666666">[varchar(50)]</text>
<polygon fill="none" stroke="#000000" points="393,-1412.5 393,-1442.5 619,-1442.5 619,-1412.5 393,-1412.5"/>
<text text-anchor="start" x="400" y="-1423.9" font-family="Arial" font-size="14.00" fill="#000000">date_added </text>
<text text-anchor="start" x="477.8246" y="-1423.9" font-family="Arial" font-size="14.00" fill="#666666">[datetime]</text>
<polygon fill="none" stroke="#000000" points="393,-1382.5 393,-1412.5 619,-1412.5 619,-1382.5 393,-1382.5"/>
<text text-anchor="start" x="400" y="-1393.9" font-family="Arial" font-size="14.00" fill="#000000">note </text>
<text text-anchor="start" x="431.129" y="-1393.9" font-family="Arial" font-size="14.00" fill="#666666">[varchar(191)]</text>
<polygon fill="none" stroke="#000000" points="393,-1352.5 393,-1382.5 619,-1382.5 619,-1352.5 393,-1352.5"/>
<text text-anchor="start" x="400" y="-1363.9" font-family="Arial" font-size="14.00" fill="#000000">runtime </text>
<text text-anchor="start" x="450.5568" y="-1363.9" font-family="Arial" font-size="14.00" fill="#666666">[double]</text>
</g>
<!-- webhook_logs&#45;&gt;webhooks -->
<g id="edge2" class="edge">
<title>webhook_logs:webhook_id&#45;&gt;webhooks:id</title>
<path fill="none" stroke="#000000" d="M383.0053,-1486.8039C316.6336,-1477.05 343.959,-1367.2001 393,-1310 461.2027,-1230.4503 557.7973,-1353.5497 626,-1274 653.9158,-1241.4398 668.8889,-1177.5 626,-1177.5"/>
<polygon fill="#000000" stroke="#000000" points="383.0242,-1486.8051 392.6873,-1491.9891 388.0121,-1487.1526 393,-1487.5 393,-1487.5 393,-1487.5 388.0121,-1487.1526 393.3127,-1483.0109 383.0242,-1486.8051 383.0242,-1486.8051"/>
<text text-anchor="start" x="400.378" y="-1497.5" font-family="Arial" font-size="10.00" fill="#000000">FOREIGN KEY (webhook_id) REFERENCES webhooks (id)</text>
</g>
<!-- webhook_queue -->
<g id="node4" class="node">
<title>webhook_queue</title>
<polygon fill="#efefef" stroke="transparent" points="724,-1517.5 724,-1552.5 967,-1552.5 967,-1517.5 724,-1517.5"/>
<polygon fill="none" stroke="#000000" points="724,-1517.5 724,-1552.5 967,-1552.5 967,-1517.5 724,-1517.5"/>
<text text-anchor="start" x="730.8419" y="-1530.3" font-family="Arial Bold" font-size="18.00" fill="#000000">webhook_queue</text>
<text text-anchor="start" x="862.9043" y="-1530.3" font-family="Arial" font-size="14.00" fill="#000000"> </text>
<text text-anchor="start" x="866.7949" y="-1530.3" font-family="Arial" font-size="14.00" fill="#666666">[BASE TABLE]</text>
<polygon fill="none" stroke="#000000" points="724,-1487.5 724,-1517.5 967,-1517.5 967,-1487.5 724,-1487.5"/>
<text text-anchor="start" x="731" y="-1498.9" font-family="Arial" font-size="14.00" fill="#000000">id </text>
<text text-anchor="start" x="745.7798" y="-1498.9" font-family="Arial" font-size="14.00" fill="#666666">[int(10) unsigned]</text>
<polygon fill="none" stroke="#000000" points="724,-1457.5 724,-1487.5 967,-1487.5 967,-1457.5 724,-1457.5"/>
<text text-anchor="start" x="731" y="-1468.9" font-family="Arial" font-size="14.00" fill="#000000">webhook_id </text>
<text text-anchor="start" x="809.582" y="-1468.9" font-family="Arial" font-size="14.00" fill="#666666">[int(10) unsigned]</text>
<polygon fill="none" stroke="#000000" points="724,-1427.5 724,-1457.5 967,-1457.5 967,-1427.5 724,-1427.5"/>
<text text-anchor="start" x="731" y="-1438.9" font-family="Arial" font-size="14.00" fill="#000000">event_id </text>
<text text-anchor="start" x="787.8008" y="-1438.9" font-family="Arial" font-size="14.00" fill="#666666">[int(10) unsigned]</text>
<polygon fill="none" stroke="#000000" points="724,-1397.5 724,-1427.5 967,-1427.5 967,-1397.5 724,-1397.5"/>
<text text-anchor="start" x="731" y="-1408.9" font-family="Arial" font-size="14.00" fill="#000000">date_added </text>
<text text-anchor="start" x="808.8246" y="-1408.9" font-family="Arial" font-size="14.00" fill="#666666">[datetime]</text>
<polygon fill="none" stroke="#000000" points="724,-1367.5 724,-1397.5 967,-1397.5 967,-1367.5 724,-1367.5"/>
<text text-anchor="start" x="731" y="-1378.9" font-family="Arial" font-size="14.00" fill="#000000">payload </text>
<text text-anchor="start" x="783.9102" y="-1378.9" font-family="Arial" font-size="14.00" fill="#666666">[longtext]</text>
</g>
<!-- webhook_queue&#45;&gt;webhooks -->
<g id="edge3" class="edge">
<title>webhook_queue:webhook_id&#45;&gt;webhooks:id</title>
<path fill="none" stroke="#000000" d="M713.9509,-1470.1254C658.8532,-1442.2071 691.4354,-1177.5 626,-1177.5"/>
<polygon fill="#000000" stroke="#000000" points="714.268,-1470.2003 722.9651,-1476.8794 719.134,-1471.3501 724,-1472.5 724,-1472.5 724,-1472.5 719.134,-1471.3501 725.0349,-1468.1206 714.268,-1470.2003 714.268,-1470.2003"/>
<text text-anchor="start" x="731.378" y="-1482.5" font-family="Arial" font-size="10.00" fill="#000000">FOREIGN KEY (webhook_id) REFERENCES webhooks (id)</text>
</g>
</g>
</svg>
