<?xml version="1.0" encoding="UTF-8" standalone="no"?>
<!DOCTYPE svg PUBLIC "-//W3C//DTD SVG 1.1//EN"
 "http://www.w3.org/Graphics/SVG/1.1/DTD/svg11.dtd">
<!-- Generated by graphviz version 2.40.1 (20161225.0304)
 -->
<!-- Title: webhook_queue Pages: 1 -->
<svg width="827pt" height="952pt"
 viewBox="0.00 0.00 827.00 952.00" xmlns="http://www.w3.org/2000/svg" xmlns:xlink="http://www.w3.org/1999/xlink">
<g id="graph0" class="graph" transform="scale(1 1) rotate(0) translate(4 948)">
<title>webhook_queue</title>
<polygon fill="#ffffff" stroke="transparent" points="-4,4 -4,-948 823,-948 823,4 -4,4"/>
<!-- webhook_queue -->
<g id="node1" class="node">
<title>webhook_queue</title>
<polygon fill="#efefef" stroke="transparent" points="281,-862.5 281,-897.5 524,-897.5 524,-862.5 281,-862.5"/>
<polygon fill="none" stroke="#000000" points="281,-862.5 281,-897.5 524,-897.5 524,-862.5 281,-862.5"/>
<text text-anchor="start" x="287.8419" y="-875.3" font-family="Arial Bold" font-size="18.00" fill="#000000">webhook_queue</text>
<text text-anchor="start" x="419.9043" y="-875.3" font-family="Arial" font-size="14.00" fill="#000000"> </text>
<text text-anchor="start" x="423.7949" y="-875.3" font-family="Arial" font-size="14.00" fill="#666666">[BASE TABLE]</text>
<polygon fill="none" stroke="#000000" points="281,-832.5 281,-862.5 524,-862.5 524,-832.5 281,-832.5"/>
<text text-anchor="start" x="288" y="-843.9" font-family="Arial" font-size="14.00" fill="#000000">id </text>
<text text-anchor="start" x="302.7798" y="-843.9" font-family="Arial" font-size="14.00" fill="#666666">[int(10) unsigned]</text>
<polygon fill="none" stroke="#000000" points="281,-802.5 281,-832.5 524,-832.5 524,-802.5 281,-802.5"/>
<text text-anchor="start" x="288" y="-813.9" font-family="Arial" font-size="14.00" fill="#000000">webhook_id </text>
<text text-anchor="start" x="366.582" y="-813.9" font-family="Arial" font-size="14.00" fill="#666666">[int(10) unsigned]</text>
<polygon fill="none" stroke="#000000" points="281,-772.5 281,-802.5 524,-802.5 524,-772.5 281,-772.5"/>
<text text-anchor="start" x="288" y="-783.9" font-family="Arial" font-size="14.00" fill="#000000">event_id </text>
<text text-anchor="start" x="344.8008" y="-783.9" font-family="Arial" font-size="14.00" fill="#666666">[int(10) unsigned]</text>
<polygon fill="none" stroke="#000000" points="281,-742.5 281,-772.5 524,-772.5 524,-742.5 281,-742.5"/>
<text text-anchor="start" x="288" y="-753.9" font-family="Arial" font-size="14.00" fill="#000000">date_added </text>
<text text-anchor="start" x="365.8246" y="-753.9" font-family="Arial" font-size="14.00" fill="#666666">[datetime]</text>
<polygon fill="none" stroke="#000000" points="281,-712.5 281,-742.5 524,-742.5 524,-712.5 281,-712.5"/>
<text text-anchor="start" x="288" y="-723.9" font-family="Arial" font-size="14.00" fill="#000000">payload </text>
<text text-anchor="start" x="340.9102" y="-723.9" font-family="Arial" font-size="14.00" fill="#666666">[longtext]</text>
<polygon fill="none" stroke="#000000" stroke-width="3" points="279,-711.5 279,-899.5 525,-899.5 525,-711.5 279,-711.5"/>
</g>
<!-- webhooks -->
<g id="node2" class="node">
<title>webhooks</title>
<polygon fill="#efefef" stroke="transparent" points="109,-552.5 109,-587.5 350,-587.5 350,-552.5 109,-552.5"/>
<polygon fill="none" stroke="#000000" points="109,-552.5 109,-587.5 350,-587.5 350,-552.5 109,-552.5"/>
<text text-anchor="start" x="140.3605" y="-565.3" font-family="Arial Bold" font-size="18.00" fill="#000000">webhooks</text>
<text text-anchor="start" x="221.3857" y="-565.3" font-family="Arial" font-size="14.00" fill="#000000"> </text>
<text text-anchor="start" x="225.2763" y="-565.3" font-family="Arial" font-size="14.00" fill="#666666">[BASE TABLE]</text>
<polygon fill="none" stroke="#000000" points="109,-522.5 109,-552.5 350,-552.5 350,-522.5 109,-522.5"/>
<text text-anchor="start" x="116" y="-533.9" font-family="Arial" font-size="14.00" fill="#000000">id </text>
<text text-anchor="start" x="130.7798" y="-533.9" font-family="Arial" font-size="14.00" fill="#666666">[int(10) unsigned]</text>
<polygon fill="none" stroke="#000000" points="109,-492.5 109,-522.5 350,-522.5 350,-492.5 109,-492.5"/>
<text text-anchor="start" x="116" y="-503.9" font-family="Arial" font-size="14.00" fill="#000000">category_id </text>
<text text-anchor="start" x="192.244" y="-503.9" font-family="Arial" font-size="14.00" fill="#666666">[int(10) unsigned]</text>
<polygon fill="none" stroke="#000000" points="109,-462.5 109,-492.5 350,-492.5 350,-462.5 109,-462.5"/>
<text text-anchor="start" x="116" y="-473.9" font-family="Arial" font-size="14.00" fill="#000000">is_published </text>
<text text-anchor="start" x="197.6886" y="-473.9" font-family="Arial" font-size="14.00" fill="#666666">[tinyint(1)]</text>
<polygon fill="none" stroke="#000000" points="109,-432.5 109,-462.5 350,-462.5 350,-432.5 109,-432.5"/>
<text text-anchor="start" x="116" y="-443.9" font-family="Arial" font-size="14.00" fill="#000000">date_added </text>
<text text-anchor="start" x="193.8246" y="-443.9" font-family="Arial" font-size="14.00" fill="#666666">[datetime]</text>
<polygon fill="none" stroke="#000000" points="109,-402.5 109,-432.5 350,-432.5 350,-402.5 109,-402.5"/>
<text text-anchor="start" x="116" y="-413.9" font-family="Arial" font-size="14.00" fill="#000000">created_by </text>
<text text-anchor="start" x="189.1374" y="-413.9" font-family="Arial" font-size="14.00" fill="#666666">[int(11)]</text>
<polygon fill="none" stroke="#000000" points="109,-372.5 109,-402.5 350,-402.5 350,-372.5 109,-372.5"/>
<text text-anchor="start" x="116" y="-383.9" font-family="Arial" font-size="14.00" fill="#000000">created_by_user </text>
<text text-anchor="start" x="224.1458" y="-383.9" font-family="Arial" font-size="14.00" fill="#666666">[varchar(191)]</text>
<polygon fill="none" stroke="#000000" points="109,-342.5 109,-372.5 350,-372.5 350,-342.5 109,-342.5"/>
<text text-anchor="start" x="116" y="-353.9" font-family="Arial" font-size="14.00" fill="#000000">date_modified </text>
<text text-anchor="start" x="207.8064" y="-353.9" font-family="Arial" font-size="14.00" fill="#666666">[datetime]</text>
<polygon fill="none" stroke="#000000" points="109,-312.5 109,-342.5 350,-342.5 350,-312.5 109,-312.5"/>
<text text-anchor="start" x="116" y="-323.9" font-family="Arial" font-size="14.00" fill="#000000">modified_by </text>
<text text-anchor="start" x="195.3506" y="-323.9" font-family="Arial" font-size="14.00" fill="#666666">[int(11)]</text>
<polygon fill="none" stroke="#000000" points="109,-282.5 109,-312.5 350,-312.5 350,-282.5 109,-282.5"/>
<text text-anchor="start" x="116" y="-293.9" font-family="Arial" font-size="14.00" fill="#000000">modified_by_user </text>
<text text-anchor="start" x="230.359" y="-293.9" font-family="Arial" font-size="14.00" fill="#666666">[varchar(191)]</text>
<polygon fill="none" stroke="#000000" points="109,-252.5 109,-282.5 350,-282.5 350,-252.5 109,-252.5"/>
<text text-anchor="start" x="116" y="-263.9" font-family="Arial" font-size="14.00" fill="#000000">checked_out </text>
<text text-anchor="start" x="199.2594" y="-263.9" font-family="Arial" font-size="14.00" fill="#666666">[datetime]</text>
<polygon fill="none" stroke="#000000" points="109,-222.5 109,-252.5 350,-252.5 350,-222.5 109,-222.5"/>
<text text-anchor="start" x="116" y="-233.9" font-family="Arial" font-size="14.00" fill="#000000">checked_out_by </text>
<text text-anchor="start" x="221.8246" y="-233.9" font-family="Arial" font-size="14.00" fill="#666666">[int(11)]</text>
<polygon fill="none" stroke="#000000" points="109,-192.5 109,-222.5 350,-222.5 350,-192.5 109,-192.5"/>
<text text-anchor="start" x="115.5239" y="-203.9" font-family="Arial" font-size="14.00" fill="#000000">checked_out_by_user </text>
<text text-anchor="start" x="256.3569" y="-203.9" font-family="Arial" font-size="14.00" fill="#666666">[varchar(191)]</text>
<polygon fill="none" stroke="#000000" points="109,-162.5 109,-192.5 350,-192.5 350,-162.5 109,-162.5"/>
<text text-anchor="start" x="116" y="-173.9" font-family="Arial" font-size="14.00" fill="#000000">name </text>
<text text-anchor="start" x="154.899" y="-173.9" font-family="Arial" font-size="14.00" fill="#666666">[varchar(191)]</text>
<polygon fill="none" stroke="#000000" points="109,-132.5 109,-162.5 350,-162.5 350,-132.5 109,-132.5"/>
<text text-anchor="start" x="116" y="-143.9" font-family="Arial" font-size="14.00" fill="#000000">description </text>
<text text-anchor="start" x="187.568" y="-143.9" font-family="Arial" font-size="14.00" fill="#666666">[longtext]</text>
<polygon fill="none" stroke="#000000" points="109,-102.5 109,-132.5 350,-132.5 350,-102.5 109,-102.5"/>
<text text-anchor="start" x="116" y="-113.9" font-family="Arial" font-size="14.00" fill="#000000">webhook_url </text>
<text text-anchor="start" x="199.2426" y="-113.9" font-family="Arial" font-size="14.00" fill="#666666">[varchar(191)]</text>
<polygon fill="none" stroke="#000000" points="109,-72.5 109,-102.5 350,-102.5 350,-72.5 109,-72.5"/>
<text text-anchor="start" x="116" y="-83.9" font-family="Arial" font-size="14.00" fill="#000000">secret </text>
<text text-anchor="start" x="158.007" y="-83.9" font-family="Arial" font-size="14.00" fill="#666666">[varchar(191)]</text>
<polygon fill="none" stroke="#000000" points="109,-42.5 109,-72.5 350,-72.5 350,-42.5 109,-42.5"/>
<text text-anchor="start" x="116" y="-53.9" font-family="Arial" font-size="14.00" fill="#000000">events_orderby_dir </text>
<text text-anchor="start" x="239.6956" y="-53.9" font-family="Arial" font-size="14.00" fill="#666666">[varchar(191)]</text>
</g>
<!-- webhook_queue&#45;&gt;webhooks -->
<g id="edge1" class="edge">
<title>webhook_queue:webhook_id&#45;&gt;webhooks:id</title>
<path fill="none" stroke="#000000" d="M270.8994,-816.6841C217.642,-807.4033 248.2224,-721.072 281,-667 298.9306,-637.4206 332.0694,-660.5794 350,-631 371.5415,-595.4637 391.5556,-537.5 350,-537.5"/>
<polygon fill="#000000" stroke="#000000" points="271.0325,-816.6947 280.6376,-821.9854 276.0162,-817.0974 281,-817.5 281,-817.5 281,-817.5 276.0162,-817.0974 281.3624,-813.0146 271.0325,-816.6947 271.0325,-816.6947"/>
<text text-anchor="start" x="7.378" y="-827.5" font-family="Arial" font-size="10.00" fill="#000000">FOREIGN KEY (webhook_id) REFERENCES webhooks (id)</text>
</g>
<!-- webhook_events -->
<g id="node3" class="node">
<title>webhook_events</title>
<polygon fill="#efefef" stroke="transparent" points="454,-342.5 454,-377.5 700,-377.5 700,-342.5 454,-342.5"/>
<polygon fill="none" stroke="#000000" points="454,-342.5 454,-377.5 700,-377.5 700,-342.5 454,-342.5"/>
<text text-anchor="start" x="460.847" y="-355.3" font-family="Arial Bold" font-size="18.00" fill="#000000">webhook_events</text>
<text text-anchor="start" x="595.8992" y="-355.3" font-family="Arial" font-size="14.00" fill="#000000"> </text>
<text text-anchor="start" x="599.7898" y="-355.3" font-family="Arial" font-size="14.00" fill="#666666">[BASE TABLE]</text>
<polygon fill="none" stroke="#000000" points="454,-312.5 454,-342.5 700,-342.5 700,-312.5 454,-312.5"/>
<text text-anchor="start" x="461" y="-323.9" font-family="Arial" font-size="14.00" fill="#000000">id </text>
<text text-anchor="start" x="475.7798" y="-323.9" font-family="Arial" font-size="14.00" fill="#666666">[int(10) unsigned]</text>
<polygon fill="none" stroke="#000000" points="454,-282.5 454,-312.5 700,-312.5 700,-282.5 454,-282.5"/>
<text text-anchor="start" x="461" y="-293.9" font-family="Arial" font-size="14.00" fill="#000000">webhook_id </text>
<text text-anchor="start" x="539.582" y="-293.9" font-family="Arial" font-size="14.00" fill="#666666">[int(10) unsigned]</text>
<polygon fill="none" stroke="#000000" points="454,-252.5 454,-282.5 700,-282.5 700,-252.5 454,-252.5"/>
<text text-anchor="start" x="461" y="-263.9" font-family="Arial" font-size="14.00" fill="#000000">event_type </text>
<text text-anchor="start" x="533.3674" y="-263.9" font-family="Arial" font-size="14.00" fill="#666666">[varchar(50)]</text>
</g>
<!-- webhook_queue&#45;&gt;webhook_events -->
<g id="edge2" class="edge">
<title>webhook_queue:event_id&#45;&gt;webhook_events:id</title>
<path fill="none" stroke="#000000" d="M533.9794,-785.6466C607.379,-753.9928 354.438,-327.5 454,-327.5"/>
<polygon fill="#000000" stroke="#000000" points="533.8319,-785.6739 523.1783,-783.0757 528.9159,-786.587 524,-787.5 524,-787.5 524,-787.5 528.9159,-786.587 524.8217,-791.9243 533.8319,-785.6739 533.8319,-785.6739"/>
<text text-anchor="start" x="531.1495" y="-797.5" font-family="Arial" font-size="10.00" fill="#000000">FOREIGN KEY (event_id) REFERENCES webhook_events (id)</text>
</g>
</g>
</svg>
