<?xml version="1.0" encoding="UTF-8" standalone="no"?>
<!DOCTYPE svg PUBLIC "-//W3C//DTD SVG 1.1//EN"
 "http://www.w3.org/Graphics/SVG/1.1/DTD/svg11.dtd">
<!-- Generated by graphviz version 2.40.1 (20161225.0304)
 -->
<!-- Title: webhook_events Pages: 1 -->
<svg width="828pt" height="1199pt"
 viewBox="0.00 0.00 828.00 1199.00" xmlns="http://www.w3.org/2000/svg" xmlns:xlink="http://www.w3.org/1999/xlink">
<g id="graph0" class="graph" transform="scale(1 1) rotate(0) translate(4 1195)">
<title>webhook_events</title>
<polygon fill="#ffffff" stroke="transparent" points="-4,4 -4,-1195 824,-1195 824,4 -4,4"/>
<!-- webhook_events -->
<g id="node1" class="node">
<title>webhook_events</title>
<polygon fill="#efefef" stroke="transparent" points="281,-802.5 281,-837.5 527,-837.5 527,-802.5 281,-802.5"/>
<polygon fill="none" stroke="#000000" points="281,-802.5 281,-837.5 527,-837.5 527,-802.5 281,-802.5"/>
<text text-anchor="start" x="287.847" y="-815.3" font-family="Arial Bold" font-size="18.00" fill="#000000">webhook_events</text>
<text text-anchor="start" x="422.8992" y="-815.3" font-family="Arial" font-size="14.00" fill="#000000"> </text>
<text text-anchor="start" x="426.7898" y="-815.3" font-family="Arial" font-size="14.00" fill="#666666">[BASE TABLE]</text>
<polygon fill="none" stroke="#000000" points="281,-772.5 281,-802.5 527,-802.5 527,-772.5 281,-772.5"/>
<text text-anchor="start" x="288" y="-783.9" font-family="Arial" font-size="14.00" fill="#000000">id </text>
<text text-anchor="start" x="302.7798" y="-783.9" font-family="Arial" font-size="14.00" fill="#666666">[int(10) unsigned]</text>
<polygon fill="none" stroke="#000000" points="281,-742.5 281,-772.5 527,-772.5 527,-742.5 281,-742.5"/>
<text text-anchor="start" x="288" y="-753.9" font-family="Arial" font-size="14.00" fill="#000000">webhook_id </text>
<text text-anchor="start" x="366.582" y="-753.9" font-family="Arial" font-size="14.00" fill="#666666">[int(10) unsigned]</text>
<polygon fill="none" stroke="#000000" points="281,-712.5 281,-742.5 527,-742.5 527,-712.5 281,-712.5"/>
<text text-anchor="start" x="288" y="-723.9" font-family="Arial" font-size="14.00" fill="#000000">event_type </text>
<text text-anchor="start" x="360.3674" y="-723.9" font-family="Arial" font-size="14.00" fill="#666666">[varchar(50)]</text>
<polygon fill="none" stroke="#000000" stroke-width="3" points="279.5,-711.5 279.5,-839.5 528.5,-839.5 528.5,-711.5 279.5,-711.5"/>
</g>
<!-- webhooks -->
<g id="node3" class="node">
<title>webhooks</title>
<polygon fill="#efefef" stroke="transparent" points="283,-552.5 283,-587.5 524,-587.5 524,-552.5 283,-552.5"/>
<polygon fill="none" stroke="#000000" points="283,-552.5 283,-587.5 524,-587.5 524,-552.5 283,-552.5"/>
<text text-anchor="start" x="314.3605" y="-565.3" font-family="Arial Bold" font-size="18.00" fill="#000000">webhooks</text>
<text text-anchor="start" x="395.3857" y="-565.3" font-family="Arial" font-size="14.00" fill="#000000"> </text>
<text text-anchor="start" x="399.2763" y="-565.3" font-family="Arial" font-size="14.00" fill="#666666">[BASE TABLE]</text>
<polygon fill="none" stroke="#000000" points="283,-522.5 283,-552.5 524,-552.5 524,-522.5 283,-522.5"/>
<text text-anchor="start" x="290" y="-533.9" font-family="Arial" font-size="14.00" fill="#000000">id </text>
<text text-anchor="start" x="304.7798" y="-533.9" font-family="Arial" font-size="14.00" fill="#666666">[int(10) unsigned]</text>
<polygon fill="none" stroke="#000000" points="283,-492.5 283,-522.5 524,-522.5 524,-492.5 283,-492.5"/>
<text text-anchor="start" x="290" y="-503.9" font-family="Arial" font-size="14.00" fill="#000000">category_id </text>
<text text-anchor="start" x="366.244" y="-503.9" font-family="Arial" font-size="14.00" fill="#666666">[int(10) unsigned]</text>
<polygon fill="none" stroke="#000000" points="283,-462.5 283,-492.5 524,-492.5 524,-462.5 283,-462.5"/>
<text text-anchor="start" x="290" y="-473.9" font-family="Arial" font-size="14.00" fill="#000000">is_published </text>
<text text-anchor="start" x="371.6886" y="-473.9" font-family="Arial" font-size="14.00" fill="#666666">[tinyint(1)]</text>
<polygon fill="none" stroke="#000000" points="283,-432.5 283,-462.5 524,-462.5 524,-432.5 283,-432.5"/>
<text text-anchor="start" x="290" y="-443.9" font-family="Arial" font-size="14.00" fill="#000000">date_added </text>
<text text-anchor="start" x="367.8246" y="-443.9" font-family="Arial" font-size="14.00" fill="#666666">[datetime]</text>
<polygon fill="none" stroke="#000000" points="283,-402.5 283,-432.5 524,-432.5 524,-402.5 283,-402.5"/>
<text text-anchor="start" x="290" y="-413.9" font-family="Arial" font-size="14.00" fill="#000000">created_by </text>
<text text-anchor="start" x="363.1374" y="-413.9" font-family="Arial" font-size="14.00" fill="#666666">[int(11)]</text>
<polygon fill="none" stroke="#000000" points="283,-372.5 283,-402.5 524,-402.5 524,-372.5 283,-372.5"/>
<text text-anchor="start" x="290" y="-383.9" font-family="Arial" font-size="14.00" fill="#000000">created_by_user </text>
<text text-anchor="start" x="398.1458" y="-383.9" font-family="Arial" font-size="14.00" fill="#666666">[varchar(191)]</text>
<polygon fill="none" stroke="#000000" points="283,-342.5 283,-372.5 524,-372.5 524,-342.5 283,-342.5"/>
<text text-anchor="start" x="290" y="-353.9" font-family="Arial" font-size="14.00" fill="#000000">date_modified </text>
<text text-anchor="start" x="381.8064" y="-353.9" font-family="Arial" font-size="14.00" fill="#666666">[datetime]</text>
<polygon fill="none" stroke="#000000" points="283,-312.5 283,-342.5 524,-342.5 524,-312.5 283,-312.5"/>
<text text-anchor="start" x="290" y="-323.9" font-family="Arial" font-size="14.00" fill="#000000">modified_by </text>
<text text-anchor="start" x="369.3506" y="-323.9" font-family="Arial" font-size="14.00" fill="#666666">[int(11)]</text>
<polygon fill="none" stroke="#000000" points="283,-282.5 283,-312.5 524,-312.5 524,-282.5 283,-282.5"/>
<text text-anchor="start" x="290" y="-293.9" font-family="Arial" font-size="14.00" fill="#000000">modified_by_user </text>
<text text-anchor="start" x="404.359" y="-293.9" font-family="Arial" font-size="14.00" fill="#666666">[varchar(191)]</text>
<polygon fill="none" stroke="#000000" points="283,-252.5 283,-282.5 524,-282.5 524,-252.5 283,-252.5"/>
<text text-anchor="start" x="290" y="-263.9" font-family="Arial" font-size="14.00" fill="#000000">checked_out </text>
<text text-anchor="start" x="373.2594" y="-263.9" font-family="Arial" font-size="14.00" fill="#666666">[datetime]</text>
<polygon fill="none" stroke="#000000" points="283,-222.5 283,-252.5 524,-252.5 524,-222.5 283,-222.5"/>
<text text-anchor="start" x="290" y="-233.9" font-family="Arial" font-size="14.00" fill="#000000">checked_out_by </text>
<text text-anchor="start" x="395.8246" y="-233.9" font-family="Arial" font-size="14.00" fill="#666666">[int(11)]</text>
<polygon fill="none" stroke="#000000" points="283,-192.5 283,-222.5 524,-222.5 524,-192.5 283,-192.5"/>
<text text-anchor="start" x="289.5239" y="-203.9" font-family="Arial" font-size="14.00" fill="#000000">checked_out_by_user </text>
<text text-anchor="start" x="430.3569" y="-203.9" font-family="Arial" font-size="14.00" fill="#666666">[varchar(191)]</text>
<polygon fill="none" stroke="#000000" points="283,-162.5 283,-192.5 524,-192.5 524,-162.5 283,-162.5"/>
<text text-anchor="start" x="290" y="-173.9" font-family="Arial" font-size="14.00" fill="#000000">name </text>
<text text-anchor="start" x="328.899" y="-173.9" font-family="Arial" font-size="14.00" fill="#666666">[varchar(191)]</text>
<polygon fill="none" stroke="#000000" points="283,-132.5 283,-162.5 524,-162.5 524,-132.5 283,-132.5"/>
<text text-anchor="start" x="290" y="-143.9" font-family="Arial" font-size="14.00" fill="#000000">description </text>
<text text-anchor="start" x="361.568" y="-143.9" font-family="Arial" font-size="14.00" fill="#666666">[longtext]</text>
<polygon fill="none" stroke="#000000" points="283,-102.5 283,-132.5 524,-132.5 524,-102.5 283,-102.5"/>
<text text-anchor="start" x="290" y="-113.9" font-family="Arial" font-size="14.00" fill="#000000">webhook_url </text>
<text text-anchor="start" x="373.2426" y="-113.9" font-family="Arial" font-size="14.00" fill="#666666">[varchar(191)]</text>
<polygon fill="none" stroke="#000000" points="283,-72.5 283,-102.5 524,-102.5 524,-72.5 283,-72.5"/>
<text text-anchor="start" x="290" y="-83.9" font-family="Arial" font-size="14.00" fill="#000000">secret </text>
<text text-anchor="start" x="332.007" y="-83.9" font-family="Arial" font-size="14.00" fill="#666666">[varchar(191)]</text>
<polygon fill="none" stroke="#000000" points="283,-42.5 283,-72.5 524,-72.5 524,-42.5 283,-42.5"/>
<text text-anchor="start" x="290" y="-53.9" font-family="Arial" font-size="14.00" fill="#000000">events_orderby_dir </text>
<text text-anchor="start" x="413.6956" y="-53.9" font-family="Arial" font-size="14.00" fill="#666666">[varchar(191)]</text>
</g>
<!-- webhook_events&#45;&gt;webhooks -->
<g id="edge2" class="edge">
<title>webhook_events:webhook_id&#45;&gt;webhooks:id</title>
<path fill="none" stroke="#000000" d="M271.0813,-755.9906C243.5013,-746.5015 257.1884,-694.5991 281,-667 352.3202,-584.3354 452.6798,-713.6646 524,-631 551.1459,-599.5363 565.5556,-537.5 524,-537.5"/>
<polygon fill="#000000" stroke="#000000" points="271.1138,-755.9955 280.323,-761.9488 276.0569,-756.7477 281,-757.5 281,-757.5 281,-757.5 276.0569,-756.7477 281.677,-753.0512 271.1138,-755.9955 271.1138,-755.9955"/>
<text text-anchor="start" x="7.378" y="-767.5" font-family="Arial" font-size="10.00" fill="#000000">FOREIGN KEY (webhook_id) REFERENCES webhooks (id)</text>
</g>
<!-- webhook_queue -->
<g id="node2" class="node">
<title>webhook_queue</title>
<polygon fill="#efefef" stroke="transparent" points="282,-1112.5 282,-1147.5 525,-1147.5 525,-1112.5 282,-1112.5"/>
<polygon fill="none" stroke="#000000" points="282,-1112.5 282,-1147.5 525,-1147.5 525,-1112.5 282,-1112.5"/>
<text text-anchor="start" x="288.8419" y="-1125.3" font-family="Arial Bold" font-size="18.00" fill="#000000">webhook_queue</text>
<text text-anchor="start" x="420.9043" y="-1125.3" font-family="Arial" font-size="14.00" fill="#000000"> </text>
<text text-anchor="start" x="424.7949" y="-1125.3" font-family="Arial" font-size="14.00" fill="#666666">[BASE TABLE]</text>
<polygon fill="none" stroke="#000000" points="282,-1082.5 282,-1112.5 525,-1112.5 525,-1082.5 282,-1082.5"/>
<text text-anchor="start" x="289" y="-1093.9" font-family="Arial" font-size="14.00" fill="#000000">id </text>
<text text-anchor="start" x="303.7798" y="-1093.9" font-family="Arial" font-size="14.00" fill="#666666">[int(10) unsigned]</text>
<polygon fill="none" stroke="#000000" points="282,-1052.5 282,-1082.5 525,-1082.5 525,-1052.5 282,-1052.5"/>
<text text-anchor="start" x="289" y="-1063.9" font-family="Arial" font-size="14.00" fill="#000000">webhook_id </text>
<text text-anchor="start" x="367.582" y="-1063.9" font-family="Arial" font-size="14.00" fill="#666666">[int(10) unsigned]</text>
<polygon fill="none" stroke="#000000" points="282,-1022.5 282,-1052.5 525,-1052.5 525,-1022.5 282,-1022.5"/>
<text text-anchor="start" x="289" y="-1033.9" font-family="Arial" font-size="14.00" fill="#000000">event_id </text>
<text text-anchor="start" x="345.8008" y="-1033.9" font-family="Arial" font-size="14.00" fill="#666666">[int(10) unsigned]</text>
<polygon fill="none" stroke="#000000" points="282,-992.5 282,-1022.5 525,-1022.5 525,-992.5 282,-992.5"/>
<text text-anchor="start" x="289" y="-1003.9" font-family="Arial" font-size="14.00" fill="#000000">date_added </text>
<text text-anchor="start" x="366.8246" y="-1003.9" font-family="Arial" font-size="14.00" fill="#666666">[datetime]</text>
<polygon fill="none" stroke="#000000" points="282,-962.5 282,-992.5 525,-992.5 525,-962.5 282,-962.5"/>
<text text-anchor="start" x="289" y="-973.9" font-family="Arial" font-size="14.00" fill="#000000">payload </text>
<text text-anchor="start" x="341.9102" y="-973.9" font-family="Arial" font-size="14.00" fill="#666666">[longtext]</text>
</g>
<!-- webhook_queue&#45;&gt;webhook_events -->
<g id="edge1" class="edge">
<title>webhook_queue:event_id&#45;&gt;webhook_events:id</title>
<path fill="none" stroke="#000000" d="M534.9916,-1036.384C574.5981,-1026.7255 556.7261,-956.7504 525,-920 453.3679,-837.0238 352.6321,-966.9762 281,-884 252.9735,-851.5351 238.1111,-787.5 281,-787.5"/>
<polygon fill="#000000" stroke="#000000" points="534.9382,-1036.3899 524.5005,-1033.0278 529.9691,-1036.945 525,-1037.5 525,-1037.5 525,-1037.5 529.9691,-1036.945 525.4995,-1041.9722 534.9382,-1036.3899 534.9382,-1036.3899"/>
<text text-anchor="start" x="532.1495" y="-1047.5" font-family="Arial" font-size="10.00" fill="#000000">FOREIGN KEY (event_id) REFERENCES webhook_events (id)</text>
</g>
</g>
</svg>
