<?xml version="1.0" encoding="UTF-8" standalone="no"?>
<!DOCTYPE svg PUBLIC "-//W3C//DTD SVG 1.1//EN"
 "http://www.w3.org/Graphics/SVG/1.1/DTD/svg11.dtd">
<!-- Generated by graphviz version 2.40.1 (20161225.0304)
 -->
<!-- Title: webhook_logs Pages: 1 -->
<svg width="565pt" height="982pt"
 viewBox="0.00 0.00 564.50 982.00" xmlns="http://www.w3.org/2000/svg" xmlns:xlink="http://www.w3.org/1999/xlink">
<g id="graph0" class="graph" transform="scale(1 1) rotate(0) translate(4 978)">
<title>webhook_logs</title>
<polygon fill="#ffffff" stroke="transparent" points="-4,4 -4,-978 560.5,-978 560.5,4 -4,4"/>
<!-- webhook_logs -->
<g id="node1" class="node">
<title>webhook_logs</title>
<polygon fill="#efefef" stroke="transparent" points="281,-892.5 281,-927.5 507,-927.5 507,-892.5 281,-892.5"/>
<polygon fill="none" stroke="#000000" points="281,-892.5 281,-927.5 507,-927.5 507,-892.5 281,-892.5"/>
<text text-anchor="start" x="287.8541" y="-905.3" font-family="Arial Bold" font-size="18.00" fill="#000000">webhook_logs</text>
<text text-anchor="start" x="402.8921" y="-905.3" font-family="Arial" font-size="14.00" fill="#000000"> </text>
<text text-anchor="start" x="406.7827" y="-905.3" font-family="Arial" font-size="14.00" fill="#666666">[BASE TABLE]</text>
<polygon fill="none" stroke="#000000" points="281,-862.5 281,-892.5 507,-892.5 507,-862.5 281,-862.5"/>
<text text-anchor="start" x="288" y="-873.9" font-family="Arial" font-size="14.00" fill="#000000">id </text>
<text text-anchor="start" x="302.7798" y="-873.9" font-family="Arial" font-size="14.00" fill="#666666">[int(10) unsigned]</text>
<polygon fill="none" stroke="#000000" points="281,-832.5 281,-862.5 507,-862.5 507,-832.5 281,-832.5"/>
<text text-anchor="start" x="288" y="-843.9" font-family="Arial" font-size="14.00" fill="#000000">webhook_id </text>
<text text-anchor="start" x="366.582" y="-843.9" font-family="Arial" font-size="14.00" fill="#666666">[int(10) unsigned]</text>
<polygon fill="none" stroke="#000000" points="281,-802.5 281,-832.5 507,-832.5 507,-802.5 281,-802.5"/>
<text text-anchor="start" x="288" y="-813.9" font-family="Arial" font-size="14.00" fill="#000000">status_code </text>
<text text-anchor="start" x="367.3674" y="-813.9" font-family="Arial" font-size="14.00" fill="#666666">[varchar(50)]</text>
<polygon fill="none" stroke="#000000" points="281,-772.5 281,-802.5 507,-802.5 507,-772.5 281,-772.5"/>
<text text-anchor="start" x="288" y="-783.9" font-family="Arial" font-size="14.00" fill="#000000">date_added </text>
<text text-anchor="start" x="365.8246" y="-783.9" font-family="Arial" font-size="14.00" fill="#666666">[datetime]</text>
<polygon fill="none" stroke="#000000" points="281,-742.5 281,-772.5 507,-772.5 507,-742.5 281,-742.5"/>
<text text-anchor="start" x="288" y="-753.9" font-family="Arial" font-size="14.00" fill="#000000">note </text>
<text text-anchor="start" x="319.129" y="-753.9" font-family="Arial" font-size="14.00" fill="#666666">[varchar(191)]</text>
<polygon fill="none" stroke="#000000" points="281,-712.5 281,-742.5 507,-742.5 507,-712.5 281,-712.5"/>
<text text-anchor="start" x="288" y="-723.9" font-family="Arial" font-size="14.00" fill="#000000">runtime </text>
<text text-anchor="start" x="338.5568" y="-723.9" font-family="Arial" font-size="14.00" fill="#666666">[double]</text>
<polygon fill="none" stroke="#000000" stroke-width="3" points="279.5,-711.5 279.5,-929.5 508.5,-929.5 508.5,-711.5 279.5,-711.5"/>
</g>
<!-- webhooks -->
<g id="node2" class="node">
<title>webhooks</title>
<polygon fill="#efefef" stroke="transparent" points="273,-552.5 273,-587.5 514,-587.5 514,-552.5 273,-552.5"/>
<polygon fill="none" stroke="#000000" points="273,-552.5 273,-587.5 514,-587.5 514,-552.5 273,-552.5"/>
<text text-anchor="start" x="304.3605" y="-565.3" font-family="Arial Bold" font-size="18.00" fill="#000000">webhooks</text>
<text text-anchor="start" x="385.3857" y="-565.3" font-family="Arial" font-size="14.00" fill="#000000"> </text>
<text text-anchor="start" x="389.2763" y="-565.3" font-family="Arial" font-size="14.00" fill="#666666">[BASE TABLE]</text>
<polygon fill="none" stroke="#000000" points="273,-522.5 273,-552.5 514,-552.5 514,-522.5 273,-522.5"/>
<text text-anchor="start" x="280" y="-533.9" font-family="Arial" font-size="14.00" fill="#000000">id </text>
<text text-anchor="start" x="294.7798" y="-533.9" font-family="Arial" font-size="14.00" fill="#666666">[int(10) unsigned]</text>
<polygon fill="none" stroke="#000000" points="273,-492.5 273,-522.5 514,-522.5 514,-492.5 273,-492.5"/>
<text text-anchor="start" x="280" y="-503.9" font-family="Arial" font-size="14.00" fill="#000000">category_id </text>
<text text-anchor="start" x="356.244" y="-503.9" font-family="Arial" font-size="14.00" fill="#666666">[int(10) unsigned]</text>
<polygon fill="none" stroke="#000000" points="273,-462.5 273,-492.5 514,-492.5 514,-462.5 273,-462.5"/>
<text text-anchor="start" x="280" y="-473.9" font-family="Arial" font-size="14.00" fill="#000000">is_published </text>
<text text-anchor="start" x="361.6886" y="-473.9" font-family="Arial" font-size="14.00" fill="#666666">[tinyint(1)]</text>
<polygon fill="none" stroke="#000000" points="273,-432.5 273,-462.5 514,-462.5 514,-432.5 273,-432.5"/>
<text text-anchor="start" x="280" y="-443.9" font-family="Arial" font-size="14.00" fill="#000000">date_added </text>
<text text-anchor="start" x="357.8246" y="-443.9" font-family="Arial" font-size="14.00" fill="#666666">[datetime]</text>
<polygon fill="none" stroke="#000000" points="273,-402.5 273,-432.5 514,-432.5 514,-402.5 273,-402.5"/>
<text text-anchor="start" x="280" y="-413.9" font-family="Arial" font-size="14.00" fill="#000000">created_by </text>
<text text-anchor="start" x="353.1374" y="-413.9" font-family="Arial" font-size="14.00" fill="#666666">[int(11)]</text>
<polygon fill="none" stroke="#000000" points="273,-372.5 273,-402.5 514,-402.5 514,-372.5 273,-372.5"/>
<text text-anchor="start" x="280" y="-383.9" font-family="Arial" font-size="14.00" fill="#000000">created_by_user </text>
<text text-anchor="start" x="388.1458" y="-383.9" font-family="Arial" font-size="14.00" fill="#666666">[varchar(191)]</text>
<polygon fill="none" stroke="#000000" points="273,-342.5 273,-372.5 514,-372.5 514,-342.5 273,-342.5"/>
<text text-anchor="start" x="280" y="-353.9" font-family="Arial" font-size="14.00" fill="#000000">date_modified </text>
<text text-anchor="start" x="371.8064" y="-353.9" font-family="Arial" font-size="14.00" fill="#666666">[datetime]</text>
<polygon fill="none" stroke="#000000" points="273,-312.5 273,-342.5 514,-342.5 514,-312.5 273,-312.5"/>
<text text-anchor="start" x="280" y="-323.9" font-family="Arial" font-size="14.00" fill="#000000">modified_by </text>
<text text-anchor="start" x="359.3506" y="-323.9" font-family="Arial" font-size="14.00" fill="#666666">[int(11)]</text>
<polygon fill="none" stroke="#000000" points="273,-282.5 273,-312.5 514,-312.5 514,-282.5 273,-282.5"/>
<text text-anchor="start" x="280" y="-293.9" font-family="Arial" font-size="14.00" fill="#000000">modified_by_user </text>
<text text-anchor="start" x="394.359" y="-293.9" font-family="Arial" font-size="14.00" fill="#666666">[varchar(191)]</text>
<polygon fill="none" stroke="#000000" points="273,-252.5 273,-282.5 514,-282.5 514,-252.5 273,-252.5"/>
<text text-anchor="start" x="280" y="-263.9" font-family="Arial" font-size="14.00" fill="#000000">checked_out </text>
<text text-anchor="start" x="363.2594" y="-263.9" font-family="Arial" font-size="14.00" fill="#666666">[datetime]</text>
<polygon fill="none" stroke="#000000" points="273,-222.5 273,-252.5 514,-252.5 514,-222.5 273,-222.5"/>
<text text-anchor="start" x="280" y="-233.9" font-family="Arial" font-size="14.00" fill="#000000">checked_out_by </text>
<text text-anchor="start" x="385.8246" y="-233.9" font-family="Arial" font-size="14.00" fill="#666666">[int(11)]</text>
<polygon fill="none" stroke="#000000" points="273,-192.5 273,-222.5 514,-222.5 514,-192.5 273,-192.5"/>
<text text-anchor="start" x="279.5239" y="-203.9" font-family="Arial" font-size="14.00" fill="#000000">checked_out_by_user </text>
<text text-anchor="start" x="420.3569" y="-203.9" font-family="Arial" font-size="14.00" fill="#666666">[varchar(191)]</text>
<polygon fill="none" stroke="#000000" points="273,-162.5 273,-192.5 514,-192.5 514,-162.5 273,-162.5"/>
<text text-anchor="start" x="280" y="-173.9" font-family="Arial" font-size="14.00" fill="#000000">name </text>
<text text-anchor="start" x="318.899" y="-173.9" font-family="Arial" font-size="14.00" fill="#666666">[varchar(191)]</text>
<polygon fill="none" stroke="#000000" points="273,-132.5 273,-162.5 514,-162.5 514,-132.5 273,-132.5"/>
<text text-anchor="start" x="280" y="-143.9" font-family="Arial" font-size="14.00" fill="#000000">description </text>
<text text-anchor="start" x="351.568" y="-143.9" font-family="Arial" font-size="14.00" fill="#666666">[longtext]</text>
<polygon fill="none" stroke="#000000" points="273,-102.5 273,-132.5 514,-132.5 514,-102.5 273,-102.5"/>
<text text-anchor="start" x="280" y="-113.9" font-family="Arial" font-size="14.00" fill="#000000">webhook_url </text>
<text text-anchor="start" x="363.2426" y="-113.9" font-family="Arial" font-size="14.00" fill="#666666">[varchar(191)]</text>
<polygon fill="none" stroke="#000000" points="273,-72.5 273,-102.5 514,-102.5 514,-72.5 273,-72.5"/>
<text text-anchor="start" x="280" y="-83.9" font-family="Arial" font-size="14.00" fill="#000000">secret </text>
<text text-anchor="start" x="322.007" y="-83.9" font-family="Arial" font-size="14.00" fill="#666666">[varchar(191)]</text>
<polygon fill="none" stroke="#000000" points="273,-42.5 273,-72.5 514,-72.5 514,-42.5 273,-42.5"/>
<text text-anchor="start" x="280" y="-53.9" font-family="Arial" font-size="14.00" fill="#000000">events_orderby_dir </text>
<text text-anchor="start" x="403.6956" y="-53.9" font-family="Arial" font-size="14.00" fill="#666666">[varchar(191)]</text>
</g>
<!-- webhook_logs&#45;&gt;webhooks -->
<g id="edge1" class="edge">
<title>webhook_logs:webhook_id&#45;&gt;webhooks:id</title>
<path fill="none" stroke="#000000" d="M270.8364,-846.7921C203.3429,-836.8734 231.1301,-725.1669 281,-667 349.2027,-587.4503 445.7973,-710.5497 514,-631 541.0479,-599.452 555.5556,-537.5 514,-537.5"/>
<polygon fill="#000000" stroke="#000000" points="271.0242,-846.8051 280.6873,-851.9891 276.0121,-847.1526 281,-847.5 281,-847.5 281,-847.5 276.0121,-847.1526 281.3127,-843.0109 271.0242,-846.8051 271.0242,-846.8051"/>
<text text-anchor="start" x="7.378" y="-857.5" font-family="Arial" font-size="10.00" fill="#000000">FOREIGN KEY (webhook_id) REFERENCES webhooks (id)</text>
</g>
</g>
</svg>
